<?xml version="1.0" encoding="UTF-8" standalone="no"?>
<!DOCTYPE svg PUBLIC "-//W3C//DTD SVG 1.1//EN"
 "http://www.w3.org/Graphics/SVG/1.1/DTD/svg11.dtd">
<!-- Generated by graphviz version 2.38.0 (20140413.2041)
 -->
<!-- Title: %3 Pages: 1 -->
<svg width="4571pt" height="332pt"
 viewBox="0.00 0.00 4570.83 332.00" xmlns="http://www.w3.org/2000/svg" xmlns:xlink="http://www.w3.org/1999/xlink">
<g id="graph0" class="graph" transform="scale(1 1) rotate(0) translate(4 328)">
<title>%3</title>
<polygon fill="white" stroke="none" points="-4,4 -4,-328 4566.83,-328 4566.83,4 -4,4"/>
<!-- Description -->
<g id="node1" class="node"><title>Description</title>
<ellipse fill="none" stroke="black" cx="499.189" cy="-162" rx="64.9885" ry="18"/>
<text text-anchor="middle" x="499.189" y="-158.3" font-family="Times,serif" font-size="14.00">Description</text>
</g>
<!-- SimpleDescription -->
<g id="node2" class="node"><title>SimpleDescription</title>
<ellipse fill="none" stroke="black" cx="233.189" cy="-90" rx="96.6831" ry="18"/>
<text text-anchor="middle" x="233.189" y="-86.3" font-family="Times,serif" font-size="14.00">SimpleDescription</text>
</g>
<!-- SimpleDescription&#45;&gt;Description -->
<g id="edge1" class="edge"><title>SimpleDescription&#45;&gt;Description</title>
<path fill="none" stroke="black" d="M286.698,-105.081C332.351,-117.095 397.742,-134.303 443.899,-146.45"/>
<polygon fill="black" stroke="black" points="443.172,-149.878 453.733,-149.038 444.953,-143.108 443.172,-149.878"/>
</g>
<!-- AddressableDescription -->
<g id="node3" class="node"><title>AddressableDescription</title>
<ellipse fill="none" stroke="black" cx="122.189" cy="-18" rx="122.379" ry="18"/>
<text text-anchor="middle" x="122.189" y="-14.3" font-family="Times,serif" font-size="14.00">AddressableDescription</text>
</g>
<!-- AddressableDescription&#45;&gt;SimpleDescription -->
<g id="edge2" class="edge"><title>AddressableDescription&#45;&gt;SimpleDescription</title>
<path fill="none" stroke="black" d="M148.495,-35.589C163.424,-45.0041 182.294,-56.9039 198.431,-67.0804"/>
<polygon fill="black" stroke="black" points="196.747,-70.1563 207.073,-72.5301 200.481,-64.2353 196.747,-70.1563"/>
</g>
<!-- ExternalDescriptionDecorator -->
<g id="node4" class="node"><title>ExternalDescriptionDecorator</title>
<ellipse fill="none" stroke="black" cx="499.189" cy="-90" rx="151.373" ry="18"/>
<text text-anchor="middle" x="499.189" y="-86.3" font-family="Times,serif" font-size="14.00">ExternalDescriptionDecorator</text>
</g>
<!-- ExternalDescriptionDecorator&#45;&gt;Description -->
<g id="edge3" class="edge"><title>ExternalDescriptionDecorator&#45;&gt;Description</title>
<path fill="none" stroke="black" d="M499.189,-108.303C499.189,-116.017 499.189,-125.288 499.189,-133.888"/>
<polygon fill="black" stroke="black" points="495.689,-133.896 499.189,-143.896 502.689,-133.896 495.689,-133.896"/>
</g>
<!-- StandardDescriptionDecorator -->
<g id="node5" class="node"><title>StandardDescriptionDecorator</title>
<ellipse fill="none" stroke="black" cx="822.189" cy="-90" rx="154.073" ry="18"/>
<text text-anchor="middle" x="822.189" y="-86.3" font-family="Times,serif" font-size="14.00">StandardDescriptionDecorator</text>
</g>
<!-- StandardDescriptionDecorator&#45;&gt;Description -->
<g id="edge4" class="edge"><title>StandardDescriptionDecorator&#45;&gt;Description</title>
<path fill="none" stroke="black" d="M752.501,-106.103C694.712,-118.627 613.438,-136.24 558.67,-148.109"/>
<polygon fill="black" stroke="black" points="557.795,-144.718 548.763,-150.256 559.278,-151.559 557.795,-144.718"/>
</g>
<!-- FileDescription -->
<g id="node6" class="node"><title>FileDescription</title>
<ellipse fill="none" stroke="black" cx="345.189" cy="-18" rx="82.5854" ry="18"/>
<text text-anchor="middle" x="345.189" y="-14.3" font-family="Times,serif" font-size="14.00">FileDescription</text>
</g>
<!-- FileDescription&#45;&gt;SimpleDescription -->
<g id="edge5" class="edge"><title>FileDescription&#45;&gt;SimpleDescription</title>
<path fill="none" stroke="black" d="M319.213,-35.2354C304.055,-44.7089 284.731,-56.7865 268.239,-67.0938"/>
<polygon fill="black" stroke="black" points="266.038,-64.3422 259.413,-72.6102 269.748,-70.2782 266.038,-64.3422"/>
</g>
<!-- Tracked -->
<g id="node7" class="node"><title>Tracked</title>
<ellipse fill="none" stroke="black" cx="3932.19" cy="-306" rx="48.9926" ry="18"/>
<text text-anchor="middle" x="3932.19" y="-302.3" font-family="Times,serif" font-size="14.00">Tracked</text>
</g>
<!-- Templateable -->
<g id="node8" class="node"><title>Templateable</title>
<ellipse fill="none" stroke="black" cx="1620.19" cy="-234" rx="73.387" ry="18"/>
<text text-anchor="middle" x="1620.19" y="-230.3" font-family="Times,serif" font-size="14.00">Templateable</text>
</g>
<!-- Templateable&#45;&gt;Tracked -->
<g id="edge6" class="edge"><title>Templateable&#45;&gt;Tracked</title>
<path fill="none" stroke="black" d="M1692.56,-237.191C2042.53,-247.787 3555.62,-293.599 3873.47,-303.222"/>
<polygon fill="black" stroke="black" points="3873.73,-306.732 3883.83,-303.536 3873.94,-299.735 3873.73,-306.732"/>
</g>
<!-- ExternalDecorator -->
<g id="node9" class="node"><title>ExternalDecorator</title>
<ellipse fill="none" stroke="black" cx="3557.19" cy="-234" rx="97.4827" ry="18"/>
<text text-anchor="middle" x="3557.19" y="-230.3" font-family="Times,serif" font-size="14.00">ExternalDecorator</text>
</g>
<!-- ExternalDecorator&#45;&gt;Tracked -->
<g id="edge7" class="edge"><title>ExternalDecorator&#45;&gt;Tracked</title>
<path fill="none" stroke="black" d="M3623.37,-247.353C3696.47,-260.999 3812.68,-282.692 3879.75,-295.212"/>
<polygon fill="black" stroke="black" points="3879.21,-298.671 3889.68,-297.065 3880.49,-291.79 3879.21,-298.671"/>
</g>
<!-- StandardDecorator -->
<g id="node10" class="node"><title>StandardDecorator</title>
<ellipse fill="none" stroke="black" cx="3773.19" cy="-234" rx="100.182" ry="18"/>
<text text-anchor="middle" x="3773.19" y="-230.3" font-family="Times,serif" font-size="14.00">StandardDecorator</text>
</g>
<!-- StandardDecorator&#45;&gt;Tracked -->
<g id="edge8" class="edge"><title>StandardDecorator&#45;&gt;Tracked</title>
<path fill="none" stroke="black" d="M3809.27,-250.884C3834.13,-261.829 3867.16,-276.372 3892.72,-287.625"/>
<polygon fill="black" stroke="black" points="3891.56,-290.937 3902.12,-291.763 3894.38,-284.53 3891.56,-290.937"/>
</g>
<!-- Frame -->
<g id="node11" class="node"><title>Frame</title>
<ellipse fill="none" stroke="black" cx="3932.19" cy="-234" rx="40.8928" ry="18"/>
<text text-anchor="middle" x="3932.19" y="-230.3" font-family="Times,serif" font-size="14.00">Frame</text>
</g>
<!-- Frame&#45;&gt;Tracked -->
<g id="edge9" class="edge"><title>Frame&#45;&gt;Tracked</title>
<path fill="none" stroke="black" d="M3932.19,-252.303C3932.19,-260.017 3932.19,-269.288 3932.19,-277.888"/>
<polygon fill="black" stroke="black" points="3928.69,-277.896 3932.19,-287.896 3935.69,-277.896 3928.69,-277.896"/>
</g>
<!-- Type -->
<g id="node12" class="node"><title>Type</title>
<ellipse fill="none" stroke="black" cx="1355.19" cy="-162" rx="33.2948" ry="18"/>
<text text-anchor="middle" x="1355.19" y="-158.3" font-family="Times,serif" font-size="14.00">Type</text>
</g>
<!-- Type&#45;&gt;Templateable -->
<g id="edge10" class="edge"><title>Type&#45;&gt;Templateable</title>
<path fill="none" stroke="black" d="M1380.28,-173.876C1385.79,-176.063 1391.64,-178.23 1397.19,-180 1449.35,-196.649 1509.86,-210.712 1554.68,-220.159"/>
<polygon fill="black" stroke="black" points="1554.06,-223.606 1564.57,-222.222 1555.49,-216.754 1554.06,-223.606"/>
</g>
<!-- ChildTypeDecorator -->
<g id="node13" class="node"><title>ChildTypeDecorator</title>
<ellipse fill="none" stroke="black" cx="1213.19" cy="-90" rx="104.782" ry="18"/>
<text text-anchor="middle" x="1213.19" y="-86.3" font-family="Times,serif" font-size="14.00">ChildTypeDecorator</text>
</g>
<!-- ChildTypeDecorator&#45;&gt;Type -->
<g id="edge12" class="edge"><title>ChildTypeDecorator&#45;&gt;Type</title>
<path fill="none" stroke="black" d="M1246.12,-107.235C1269.02,-118.524 1299.42,-133.509 1322.31,-144.791"/>
<polygon fill="black" stroke="black" points="1320.78,-147.942 1331.3,-149.224 1323.88,-141.663 1320.78,-147.942"/>
</g>
<!-- Typedef -->
<g id="node14" class="node"><title>Typedef</title>
<ellipse fill="none" stroke="black" cx="1042.19" cy="-90" rx="48.1917" ry="18"/>
<text text-anchor="middle" x="1042.19" y="-86.3" font-family="Times,serif" font-size="14.00">Typedef</text>
</g>
<!-- Alias -->
<g id="node26" class="node"><title>Alias</title>
<ellipse fill="none" stroke="black" cx="1270.19" cy="-162" rx="33.5952" ry="18"/>
<text text-anchor="middle" x="1270.19" y="-158.3" font-family="Times,serif" font-size="14.00">Alias</text>
</g>
<!-- Typedef&#45;&gt;Alias -->
<g id="edge14" class="edge"><title>Typedef&#45;&gt;Alias</title>
<path fill="none" stroke="black" d="M1078.35,-101.877C1085.26,-103.93 1092.44,-106.046 1099.19,-108 1155.95,-124.445 1171.19,-125.112 1227.19,-144 1229.74,-144.86 1232.36,-145.787 1234.99,-146.748"/>
<polygon fill="black" stroke="black" points="1233.83,-150.053 1244.43,-150.319 1236.31,-143.506 1233.83,-150.053"/>
</g>
<!-- Symbol -->
<g id="node15" class="node"><title>Symbol</title>
<ellipse fill="none" stroke="black" cx="4036.19" cy="-234" rx="44.6926" ry="18"/>
<text text-anchor="middle" x="4036.19" y="-230.3" font-family="Times,serif" font-size="14.00">Symbol</text>
</g>
<!-- Symbol&#45;&gt;Tracked -->
<g id="edge15" class="edge"><title>Symbol&#45;&gt;Tracked</title>
<path fill="none" stroke="black" d="M4014.13,-249.845C3999.34,-259.801 3979.65,-273.056 3963.27,-284.077"/>
<polygon fill="black" stroke="black" points="3960.91,-281.448 3954.57,-289.935 3964.82,-287.255 3960.91,-281.448"/>
</g>
<!-- TemplateDecorator -->
<g id="node16" class="node"><title>TemplateDecorator</title>
<ellipse fill="none" stroke="black" cx="1507.19" cy="-162" rx="100.983" ry="18"/>
<text text-anchor="middle" x="1507.19" y="-158.3" font-family="Times,serif" font-size="14.00">TemplateDecorator</text>
</g>
<!-- TemplateDecorator&#45;&gt;Templateable -->
<g id="edge16" class="edge"><title>TemplateDecorator&#45;&gt;Templateable</title>
<path fill="none" stroke="black" d="M1533.68,-179.412C1549.09,-188.959 1568.7,-201.105 1585.35,-211.419"/>
<polygon fill="black" stroke="black" points="1583.91,-214.642 1594.25,-216.932 1587.59,-208.691 1583.91,-214.642"/>
</g>
<!-- TemplatedDecorator -->
<g id="node17" class="node"><title>TemplatedDecorator</title>
<ellipse fill="none" stroke="black" cx="1732.19" cy="-162" rx="106.681" ry="18"/>
<text text-anchor="middle" x="1732.19" y="-158.3" font-family="Times,serif" font-size="14.00">TemplatedDecorator</text>
</g>
<!-- TemplatedDecorator&#45;&gt;Templateable -->
<g id="edge17" class="edge"><title>TemplatedDecorator&#45;&gt;Templateable</title>
<path fill="none" stroke="black" d="M1705.65,-179.589C1690.36,-189.141 1670.99,-201.249 1654.55,-211.522"/>
<polygon fill="black" stroke="black" points="1652.4,-208.744 1645.77,-217.012 1656.11,-214.68 1652.4,-208.744"/>
</g>
<!-- Union -->
<g id="node18" class="node"><title>Union</title>
<ellipse fill="none" stroke="black" cx="1180.19" cy="-162" rx="38.1938" ry="18"/>
<text text-anchor="middle" x="1180.19" y="-158.3" font-family="Times,serif" font-size="14.00">Union</text>
</g>
<!-- Union&#45;&gt;Templateable -->
<g id="edge18" class="edge"><title>Union&#45;&gt;Templateable</title>
<path fill="none" stroke="black" d="M1208.72,-174.415C1214.75,-176.516 1221.12,-178.512 1227.19,-180 1333.95,-206.19 1460.42,-220.328 1540.48,-227.259"/>
<polygon fill="black" stroke="black" points="1540.23,-230.751 1550.49,-228.109 1540.83,-223.776 1540.23,-230.751"/>
</g>
<!-- Enum -->
<g id="node19" class="node"><title>Enum</title>
<ellipse fill="none" stroke="black" cx="1374.19" cy="-90" rx="38.1938" ry="18"/>
<text text-anchor="middle" x="1374.19" y="-86.3" font-family="Times,serif" font-size="14.00">Enum</text>
</g>
<!-- Enum&#45;&gt;Type -->
<g id="edge19" class="edge"><title>Enum&#45;&gt;Type</title>
<path fill="none" stroke="black" d="M1369.59,-107.945C1367.47,-115.739 1364.91,-125.178 1362.54,-133.921"/>
<polygon fill="black" stroke="black" points="1359.12,-133.157 1359.88,-143.725 1365.88,-134.991 1359.12,-133.157"/>
</g>
<!-- ProgramFile -->
<g id="node20" class="node"><title>ProgramFile</title>
<ellipse fill="none" stroke="black" cx="4168.19" cy="-234" rx="68.7879" ry="18"/>
<text text-anchor="middle" x="4168.19" y="-230.3" font-family="Times,serif" font-size="14.00">ProgramFile</text>
</g>
<!-- ProgramFile&#45;&gt;Tracked -->
<g id="edge22" class="edge"><title>ProgramFile&#45;&gt;Tracked</title>
<path fill="none" stroke="black" d="M4124.35,-248.002C4083.01,-260.265 4021.25,-278.585 3978.97,-291.125"/>
<polygon fill="black" stroke="black" points="3977.79,-287.824 3969.2,-294.023 3979.78,-294.535 3977.79,-287.824"/>
</g>
<!-- SourceFile -->
<g id="node21" class="node"><title>SourceFile</title>
<ellipse fill="none" stroke="black" cx="4450.19" cy="-162" rx="60.3893" ry="18"/>
<text text-anchor="middle" x="4450.19" y="-158.3" font-family="Times,serif" font-size="14.00">SourceFile</text>
</g>
<!-- SourceFile&#45;&gt;ProgramFile -->
<g id="edge23" class="edge"><title>SourceFile&#45;&gt;ProgramFile</title>
<path fill="none" stroke="black" d="M4405.19,-174.169C4356.69,-186.208 4279.33,-205.411 4226.27,-218.583"/>
<polygon fill="black" stroke="black" points="4225.19,-215.244 4216.33,-221.05 4226.88,-222.038 4225.19,-215.244"/>
</g>
<!-- ObjectFile -->
<g id="node22" class="node"><title>ObjectFile</title>
<ellipse fill="none" stroke="black" cx="4312.19" cy="-162" rx="59.2899" ry="18"/>
<text text-anchor="middle" x="4312.19" y="-158.3" font-family="Times,serif" font-size="14.00">ObjectFile</text>
</g>
<!-- ObjectFile&#45;&gt;ProgramFile -->
<g id="edge24" class="edge"><title>ObjectFile&#45;&gt;ProgramFile</title>
<path fill="none" stroke="black" d="M4282,-177.674C4260.69,-188.034 4231.9,-202.028 4208.61,-213.35"/>
<polygon fill="black" stroke="black" points="4206.79,-210.342 4199.33,-217.862 4209.85,-216.637 4206.79,-210.342"/>
</g>
<!-- ProgramSpace -->
<g id="node23" class="node"><title>ProgramSpace</title>
<ellipse fill="none" stroke="black" cx="4334.19" cy="-234" rx="79.0865" ry="18"/>
<text text-anchor="middle" x="4334.19" y="-230.3" font-family="Times,serif" font-size="14.00">ProgramSpace</text>
</g>
<!-- ProgramSpace&#45;&gt;Tracked -->
<g id="edge25" class="edge"><title>ProgramSpace&#45;&gt;Tracked</title>
<path fill="none" stroke="black" d="M4276.48,-246.351C4266.39,-248.278 4255.99,-250.227 4246.19,-252 4154.98,-268.506 4048.55,-286.125 3985.97,-296.32"/>
<polygon fill="black" stroke="black" points="3985.24,-292.892 3975.93,-297.952 3986.36,-299.801 3985.24,-292.892"/>
</g>
<!-- Namespace -->
<g id="node24" class="node"><title>Namespace</title>
<ellipse fill="none" stroke="black" cx="4497.19" cy="-234" rx="65.7887" ry="18"/>
<text text-anchor="middle" x="4497.19" y="-230.3" font-family="Times,serif" font-size="14.00">Namespace</text>
</g>
<!-- Namespace&#45;&gt;Tracked -->
<g id="edge20" class="edge"><title>Namespace&#45;&gt;Tracked</title>
<path fill="none" stroke="black" d="M4449.74,-246.621C4440.63,-248.606 4431.14,-250.506 4422.19,-252 4266.97,-277.898 4081.88,-293.939 3989.95,-300.92"/>
<polygon fill="black" stroke="black" points="3989.45,-297.447 3979.74,-301.686 3989.97,-304.427 3989.45,-297.447"/>
</g>
<!-- SimpleType -->
<g id="node25" class="node"><title>SimpleType</title>
<ellipse fill="none" stroke="black" cx="1495.19" cy="-90" rx="64.9885" ry="18"/>
<text text-anchor="middle" x="1495.19" y="-86.3" font-family="Times,serif" font-size="14.00">SimpleType</text>
</g>
<!-- SimpleType&#45;&gt;Type -->
<g id="edge11" class="edge"><title>SimpleType&#45;&gt;Type</title>
<path fill="none" stroke="black" d="M1465.16,-106.017C1442.42,-117.386 1411.22,-132.986 1387.86,-144.665"/>
<polygon fill="black" stroke="black" points="1386.07,-141.646 1378.69,-149.248 1389.2,-147.907 1386.07,-141.646"/>
</g>
<!-- Alias&#45;&gt;Templateable -->
<g id="edge13" class="edge"><title>Alias&#45;&gt;Templateable</title>
<path fill="none" stroke="black" d="M1295.82,-174.125C1301.46,-176.296 1307.47,-178.394 1313.19,-180 1390.76,-201.779 1482,-216.157 1544.74,-224.373"/>
<polygon fill="black" stroke="black" points="1544.58,-227.881 1554.94,-225.688 1545.47,-220.939 1544.58,-227.881"/>
</g>
<!-- StronglyTypedEnum -->
<g id="node27" class="node"><title>StronglyTypedEnum</title>
<ellipse fill="none" stroke="black" cx="1374.19" cy="-18" rx="105.881" ry="18"/>
<text text-anchor="middle" x="1374.19" y="-14.3" font-family="Times,serif" font-size="14.00">StronglyTypedEnum</text>
</g>
<!-- StronglyTypedEnum&#45;&gt;Enum -->
<g id="edge21" class="edge"><title>StronglyTypedEnum&#45;&gt;Enum</title>
<path fill="none" stroke="black" d="M1374.19,-36.3034C1374.19,-44.0173 1374.19,-53.2875 1374.19,-61.8876"/>
<polygon fill="black" stroke="black" points="1370.69,-61.8956 1374.19,-71.8957 1377.69,-61.8957 1370.69,-61.8956"/>
</g>
<!-- Addressable -->
<g id="node28" class="node"><title>Addressable</title>
<ellipse fill="none" stroke="black" cx="3230.19" cy="-234" rx="68.4888" ry="18"/>
<text text-anchor="middle" x="3230.19" y="-230.3" font-family="Times,serif" font-size="14.00">Addressable</text>
</g>
<!-- Addressable&#45;&gt;Tracked -->
<g id="edge26" class="edge"><title>Addressable&#45;&gt;Tracked</title>
<path fill="none" stroke="black" d="M3292.8,-241.243C3428.09,-254.733 3745.95,-286.429 3875.62,-299.359"/>
<polygon fill="black" stroke="black" points="3875.43,-302.858 3885.73,-300.367 3876.13,-295.892 3875.43,-302.858"/>
</g>
<!-- Primative -->
<g id="node29" class="node"><title>Primative</title>
<ellipse fill="none" stroke="black" cx="3803.19" cy="-162" rx="55.7903" ry="18"/>
<text text-anchor="middle" x="3803.19" y="-158.3" font-family="Times,serif" font-size="14.00">Primative</text>
</g>
<!-- Primative&#45;&gt;Addressable -->
<g id="edge27" class="edge"><title>Primative&#45;&gt;Addressable</title>
<path fill="none" stroke="black" d="M3762.83,-174.568C3754.72,-176.606 3746.22,-178.539 3738.19,-180 3656.91,-194.78 3424.85,-216.12 3304.55,-226.643"/>
<polygon fill="black" stroke="black" points="3303.98,-223.179 3294.32,-227.535 3304.58,-230.153 3303.98,-223.179"/>
</g>
<!-- CharString -->
<g id="node30" class="node"><title>CharString</title>
<ellipse fill="none" stroke="black" cx="3803.19" cy="-90" rx="62.2891" ry="18"/>
<text text-anchor="middle" x="3803.19" y="-86.3" font-family="Times,serif" font-size="14.00">CharString</text>
</g>
<!-- CharString&#45;&gt;Primative -->
<g id="edge28" class="edge"><title>CharString&#45;&gt;Primative</title>
<path fill="none" stroke="black" d="M3803.19,-108.303C3803.19,-116.017 3803.19,-125.288 3803.19,-133.888"/>
<polygon fill="black" stroke="black" points="3799.69,-133.896 3803.19,-143.896 3806.69,-133.896 3799.69,-133.896"/>
</g>
<!-- ConstDecorator -->
<g id="node31" class="node"><title>ConstDecorator</title>
<ellipse fill="none" stroke="black" cx="3962.19" cy="-162" rx="85.2851" ry="18"/>
<text text-anchor="middle" x="3962.19" y="-158.3" font-family="Times,serif" font-size="14.00">ConstDecorator</text>
</g>
<!-- ConstDecorator&#45;&gt;Addressable -->
<g id="edge29" class="edge"><title>ConstDecorator&#45;&gt;Addressable</title>
<path fill="none" stroke="black" d="M3901.9,-174.788C3890.72,-176.722 3879.12,-178.56 3868.19,-180 3813.57,-187.191 3460.85,-215.035 3304.55,-227.227"/>
<polygon fill="black" stroke="black" points="3304.24,-223.741 3294.55,-228.007 3304.79,-230.719 3304.24,-223.741"/>
</g>
<!-- StaticDecorator -->
<g id="node32" class="node"><title>StaticDecorator</title>
<ellipse fill="none" stroke="black" cx="4150.19" cy="-162" rx="85.2851" ry="18"/>
<text text-anchor="middle" x="4150.19" y="-158.3" font-family="Times,serif" font-size="14.00">StaticDecorator</text>
</g>
<!-- StaticDecorator&#45;&gt;Addressable -->
<g id="edge30" class="edge"><title>StaticDecorator&#45;&gt;Addressable</title>
<path fill="none" stroke="black" d="M4090.43,-174.913C4079.09,-176.858 4067.3,-178.669 4056.19,-180 3788.74,-212.026 3719.93,-197.67 3451.19,-216 3402.32,-219.333 3347.41,-223.555 3304.54,-226.957"/>
<polygon fill="black" stroke="black" points="3304.17,-223.476 3294.48,-227.759 3304.72,-230.454 3304.17,-223.476"/>
</g>
<!-- VolatileDecorator -->
<g id="node33" class="node"><title>VolatileDecorator</title>
<ellipse fill="none" stroke="black" cx="2201.19" cy="-162" rx="92.0841" ry="18"/>
<text text-anchor="middle" x="2201.19" y="-158.3" font-family="Times,serif" font-size="14.00">VolatileDecorator</text>
</g>
<!-- VolatileDecorator&#45;&gt;Addressable -->
<g id="edge31" class="edge"><title>VolatileDecorator&#45;&gt;Addressable</title>
<path fill="none" stroke="black" d="M2265.7,-174.941C2277.79,-176.871 2290.35,-178.67 2302.19,-180 2616.03,-215.266 2992.36,-227.587 3152.23,-231.434"/>
<polygon fill="black" stroke="black" points="3152.36,-234.938 3162.44,-231.675 3152.53,-227.94 3152.36,-234.938"/>
</g>
<!-- RegisterDecorator -->
<g id="node34" class="node"><title>RegisterDecorator</title>
<ellipse fill="none" stroke="black" cx="2408.19" cy="-162" rx="96.6831" ry="18"/>
<text text-anchor="middle" x="2408.19" y="-158.3" font-family="Times,serif" font-size="14.00">RegisterDecorator</text>
</g>
<!-- RegisterDecorator&#45;&gt;Addressable -->
<g id="edge32" class="edge"><title>RegisterDecorator&#45;&gt;Addressable</title>
<path fill="none" stroke="black" d="M2476.5,-174.831C2489.01,-176.748 2501.97,-178.571 2514.19,-180 2745.92,-207.109 3021.57,-222.91 3153.02,-229.446"/>
<polygon fill="black" stroke="black" points="3153.22,-232.96 3163.38,-229.957 3153.56,-225.969 3153.22,-232.96"/>
</g>
<!-- ExternDecorator -->
<g id="node35" class="node"><title>ExternDecorator</title>
<ellipse fill="none" stroke="black" cx="2612.19" cy="-162" rx="89.0842" ry="18"/>
<text text-anchor="middle" x="2612.19" y="-158.3" font-family="Times,serif" font-size="14.00">ExternDecorator</text>
</g>
<!-- ExternDecorator&#45;&gt;Addressable -->
<g id="edge33" class="edge"><title>ExternDecorator&#45;&gt;Addressable</title>
<path fill="none" stroke="black" d="M2675.61,-174.671C2687.1,-176.594 2698.98,-178.459 2710.19,-180 2868.16,-201.724 3054.26,-218.596 3155.45,-227.041"/>
<polygon fill="black" stroke="black" points="3155.31,-230.542 3165.57,-227.882 3155.89,-223.566 3155.31,-230.542"/>
</g>
<!-- ReferenceDecorator -->
<g id="node36" class="node"><title>ReferenceDecorator</title>
<ellipse fill="none" stroke="black" cx="2824.19" cy="-162" rx="104.782" ry="18"/>
<text text-anchor="middle" x="2824.19" y="-158.3" font-family="Times,serif" font-size="14.00">ReferenceDecorator</text>
</g>
<!-- ReferenceDecorator&#45;&gt;Addressable -->
<g id="edge34" class="edge"><title>ReferenceDecorator&#45;&gt;Addressable</title>
<path fill="none" stroke="black" d="M2895.37,-175.273C2971.39,-188.38 3090.87,-208.979 3164.65,-221.7"/>
<polygon fill="black" stroke="black" points="3164.3,-225.191 3174.75,-223.441 3165.49,-218.293 3164.3,-225.191"/>
</g>
<!-- LValueDecorator -->
<g id="node37" class="node"><title>LValueDecorator</title>
<ellipse fill="none" stroke="black" cx="3035.19" cy="-162" rx="88.2844" ry="18"/>
<text text-anchor="middle" x="3035.19" y="-158.3" font-family="Times,serif" font-size="14.00">LValueDecorator</text>
</g>
<!-- LValueDecorator&#45;&gt;Addressable -->
<g id="edge35" class="edge"><title>LValueDecorator&#45;&gt;Addressable</title>
<path fill="none" stroke="black" d="M3077.02,-178.017C3107.75,-189.048 3149.58,-204.062 3181.76,-215.613"/>
<polygon fill="black" stroke="black" points="3180.81,-218.995 3191.41,-219.079 3183.18,-212.406 3180.81,-218.995"/>
</g>
<!-- RValueDecorator -->
<g id="node38" class="node"><title>RValueDecorator</title>
<ellipse fill="none" stroke="black" cx="3230.19" cy="-162" rx="89.0842" ry="18"/>
<text text-anchor="middle" x="3230.19" y="-158.3" font-family="Times,serif" font-size="14.00">RValueDecorator</text>
</g>
<!-- RValueDecorator&#45;&gt;Addressable -->
<g id="edge36" class="edge"><title>RValueDecorator&#45;&gt;Addressable</title>
<path fill="none" stroke="black" d="M3230.19,-180.303C3230.19,-188.017 3230.19,-197.288 3230.19,-205.888"/>
<polygon fill="black" stroke="black" points="3226.69,-205.896 3230.19,-215.896 3233.69,-205.896 3226.69,-205.896"/>
</g>
<!-- MemberDecorator -->
<g id="node39" class="node"><title>MemberDecorator</title>
<ellipse fill="none" stroke="black" cx="3434.19" cy="-162" rx="96.6831" ry="18"/>
<text text-anchor="middle" x="3434.19" y="-158.3" font-family="Times,serif" font-size="14.00">MemberDecorator</text>
</g>
<!-- MemberDecorator&#45;&gt;Addressable -->
<g id="edge37" class="edge"><title>MemberDecorator&#45;&gt;Addressable</title>
<path fill="none" stroke="black" d="M3390.18,-178.103C3357.66,-189.26 3313.37,-204.456 3279.64,-216.032"/>
<polygon fill="black" stroke="black" points="3278.3,-212.791 3269.98,-219.347 3280.57,-219.412 3278.3,-212.791"/>
</g>
<!-- Function -->
<g id="node40" class="node"><title>Function</title>
<ellipse fill="none" stroke="black" cx="1909.19" cy="-162" rx="51.9908" ry="18"/>
<text text-anchor="middle" x="1909.19" y="-158.3" font-family="Times,serif" font-size="14.00">Function</text>
</g>
<!-- Function&#45;&gt;Templateable -->
<g id="edge38" class="edge"><title>Function&#45;&gt;Templateable</title>
<path fill="none" stroke="black" d="M1870.53,-174.045C1863.13,-176.083 1855.43,-178.15 1848.19,-180 1792.43,-194.243 1728.59,-208.946 1682.68,-219.242"/>
<polygon fill="black" stroke="black" points="1681.87,-215.837 1672.87,-221.435 1683.39,-222.668 1681.87,-215.837"/>
</g>
<!-- Function&#45;&gt;Addressable -->
<g id="edge39" class="edge"><title>Function&#45;&gt;Addressable</title>
<path fill="none" stroke="black" d="M1945.99,-174.719C1953.9,-176.825 1962.26,-178.746 1970.19,-180 2199.52,-216.284 2913.74,-228.825 3151.96,-232.06"/>
<polygon fill="black" stroke="black" points="3152.22,-235.563 3162.27,-232.198 3152.31,-228.564 3152.22,-235.563"/>
</g>
<!-- Pointer -->
<g id="node41" class="node"><title>Pointer</title>
<ellipse fill="none" stroke="black" cx="3593.19" cy="-162" rx="44.393" ry="18"/>
<text text-anchor="middle" x="3593.19" y="-158.3" font-family="Times,serif" font-size="14.00">Pointer</text>
</g>
<!-- Pointer&#45;&gt;Addressable -->
<g id="edge40" class="edge"><title>Pointer&#45;&gt;Addressable</title>
<path fill="none" stroke="black" d="M3560.6,-174.249C3553.9,-176.337 3546.85,-178.37 3540.19,-180 3458.8,-199.905 3363.59,-214.991 3300.38,-223.883"/>
<polygon fill="black" stroke="black" points="3299.55,-220.464 3290.13,-225.31 3300.52,-227.397 3299.55,-220.464"/>
</g>
<!-- Structure -->
<g id="node42" class="node"><title>Structure</title>
<ellipse fill="none" stroke="black" cx="2035.19" cy="-162" rx="55.7903" ry="18"/>
<text text-anchor="middle" x="2035.19" y="-158.3" font-family="Times,serif" font-size="14.00">Structure</text>
</g>
<!-- Structure&#45;&gt;Templateable -->
<g id="edge41" class="edge"><title>Structure&#45;&gt;Templateable</title>
<path fill="none" stroke="black" d="M1994.43,-174.363C1986.43,-176.394 1978.07,-178.377 1970.19,-180 1875.95,-199.401 1766.09,-214.894 1694.95,-224.003"/>
<polygon fill="black" stroke="black" points="1694.22,-220.568 1684.74,-225.3 1695.1,-227.512 1694.22,-220.568"/>
</g>
<!-- Structure&#45;&gt;Addressable -->
<g id="edge42" class="edge"><title>Structure&#45;&gt;Addressable</title>
<path fill="none" stroke="black" d="M2074.79,-174.76C2083.11,-176.835 2091.89,-178.734 2100.19,-180 2303.61,-211.023 2931.14,-226.769 3152.17,-231.462"/>
<polygon fill="black" stroke="black" points="3152.31,-234.966 3162.39,-231.678 3152.46,-227.968 3152.31,-234.966"/>
</g>
<!-- Array -->
<g id="node43" class="node"><title>Array</title>
<ellipse fill="none" stroke="black" cx="3692.19" cy="-162" rx="37.0935" ry="18"/>
<text text-anchor="middle" x="3692.19" y="-158.3" font-family="Times,serif" font-size="14.00">Array</text>
</g>
<!-- Array&#45;&gt;Addressable -->
<g id="edge43" class="edge"><title>Array&#45;&gt;Addressable</title>
<path fill="none" stroke="black" d="M3664.78,-174.286C3658.73,-176.447 3652.31,-178.5 3646.19,-180 3529.48,-208.604 3390.36,-222.355 3306.22,-228.515"/>
<polygon fill="black" stroke="black" points="3305.96,-225.025 3296.24,-229.229 3306.46,-232.007 3305.96,-225.025"/>
</g>
<!-- Container -->
<g id="node44" class="node"><title>Container</title>
<ellipse fill="none" stroke="black" cx="2035.19" cy="-90" rx="57.3905" ry="18"/>
<text text-anchor="middle" x="2035.19" y="-86.3" font-family="Times,serif" font-size="14.00">Container</text>
</g>
<!-- Container&#45;&gt;Structure -->
<g id="edge44" class="edge"><title>Container&#45;&gt;Structure</title>
<path fill="none" stroke="black" d="M2035.19,-108.303C2035.19,-116.017 2035.19,-125.288 2035.19,-133.888"/>
<polygon fill="black" stroke="black" points="2031.69,-133.896 2035.19,-143.896 2038.69,-133.896 2031.69,-133.896"/>
</g>
<!-- SLArray -->
<g id="node45" class="node"><title>SLArray</title>
<ellipse fill="none" stroke="black" cx="2578.19" cy="-18" rx="49.2915" ry="18"/>
<text text-anchor="middle" x="2578.19" y="-14.3" font-family="Times,serif" font-size="14.00">SLArray</text>
</g>
<!-- SLArray&#45;&gt;Container -->
<g id="edge45" class="edge"><title>SLArray&#45;&gt;Container</title>
<path fill="none" stroke="black" d="M2542.54,-30.5181C2535.21,-32.585 2527.5,-34.5419 2520.19,-36 2372.27,-65.5198 2195.46,-79.6162 2101.53,-85.4628"/>
<polygon fill="black" stroke="black" points="2101.09,-81.9831 2091.32,-86.086 2101.52,-88.9701 2101.09,-81.9831"/>
</g>
<!-- Bitset -->
<g id="node46" class="node"><title>Bitset</title>
<ellipse fill="none" stroke="black" cx="2684.19" cy="-18" rx="38.1938" ry="18"/>
<text text-anchor="middle" x="2684.19" y="-14.3" font-family="Times,serif" font-size="14.00">Bitset</text>
</g>
<!-- Bitset&#45;&gt;Container -->
<g id="edge46" class="edge"><title>Bitset&#45;&gt;Container</title>
<path fill="none" stroke="black" d="M2656.11,-30.2768C2649.65,-32.4936 2642.75,-34.572 2636.19,-36 2445.62,-77.4495 2214.35,-86.6417 2102.38,-88.5728"/>
<polygon fill="black" stroke="black" points="2102.19,-85.0752 2092.25,-88.7331 2102.3,-92.0743 2102.19,-85.0752"/>
</g>
<!-- Deque -->
<g id="node47" class="node"><title>Deque</title>
<ellipse fill="none" stroke="black" cx="2781.19" cy="-18" rx="40.0939" ry="18"/>
<text text-anchor="middle" x="2781.19" y="-14.3" font-family="Times,serif" font-size="14.00">Deque</text>
</g>
<!-- Deque&#45;&gt;Container -->
<g id="edge47" class="edge"><title>Deque&#45;&gt;Container</title>
<path fill="none" stroke="black" d="M2751.65,-30.4099C2745.01,-32.5913 2737.93,-34.6213 2731.19,-36 2504.28,-82.4391 2228.24,-89.0783 2102.91,-89.461"/>
<polygon fill="black" stroke="black" points="2102.69,-85.9613 2092.7,-89.4792 2102.71,-92.9613 2102.69,-85.9613"/>
</g>
<!-- ForwardList -->
<g id="node48" class="node"><title>ForwardList</title>
<ellipse fill="none" stroke="black" cx="1576.19" cy="-18" rx="67.6881" ry="18"/>
<text text-anchor="middle" x="1576.19" y="-14.3" font-family="Times,serif" font-size="14.00">ForwardList</text>
</g>
<!-- ForwardList&#45;&gt;Container -->
<g id="edge48" class="edge"><title>ForwardList&#45;&gt;Container</title>
<path fill="none" stroke="black" d="M1625.13,-30.5704C1634.1,-32.5145 1643.41,-34.4131 1652.19,-36 1764.17,-56.237 1895.8,-72.9135 1971.94,-81.8706"/>
<polygon fill="black" stroke="black" points="1971.97,-85.3978 1982.31,-83.0828 1972.79,-78.4452 1971.97,-85.3978"/>
</g>
<!-- List -->
<g id="node49" class="node"><title>List</title>
<ellipse fill="none" stroke="black" cx="1690.19" cy="-18" rx="28.6953" ry="18"/>
<text text-anchor="middle" x="1690.19" y="-14.3" font-family="Times,serif" font-size="14.00">List</text>
</g>
<!-- List&#45;&gt;Container -->
<g id="edge49" class="edge"><title>List&#45;&gt;Container</title>
<path fill="none" stroke="black" d="M1711.73,-30.0357C1716.71,-32.265 1722.06,-34.4095 1727.19,-36 1809.3,-61.4485 1907.74,-75.6974 1970.85,-82.862"/>
<polygon fill="black" stroke="black" points="1970.73,-86.3699 1981.06,-83.9935 1971.5,-79.4126 1970.73,-86.3699"/>
</g>
<!-- Map -->
<g id="node50" class="node"><title>Map</title>
<ellipse fill="none" stroke="black" cx="1768.19" cy="-18" rx="31.6951" ry="18"/>
<text text-anchor="middle" x="1768.19" y="-14.3" font-family="Times,serif" font-size="14.00">Map</text>
</g>
<!-- Map&#45;&gt;Container -->
<g id="edge50" class="edge"><title>Map&#45;&gt;Container</title>
<path fill="none" stroke="black" d="M1792.66,-29.9082C1798.05,-32.093 1803.76,-34.2512 1809.19,-36 1865.3,-54.0779 1931.07,-68.7997 1977.14,-78.099"/>
<polygon fill="black" stroke="black" points="1976.46,-81.5324 1986.95,-80.0576 1977.83,-74.6678 1976.46,-81.5324"/>
</g>
<!-- Queue -->
<g id="node51" class="node"><title>Queue</title>
<ellipse fill="none" stroke="black" cx="1858.19" cy="-18" rx="40.0939" ry="18"/>
<text text-anchor="middle" x="1858.19" y="-14.3" font-family="Times,serif" font-size="14.00">Queue</text>
</g>
<!-- Queue&#45;&gt;Container -->
<g id="edge51" class="edge"><title>Queue&#45;&gt;Container</title>
<path fill="none" stroke="black" d="M1887.42,-30.5591C1915.71,-41.75 1958.97,-58.8581 1991.39,-71.6767"/>
<polygon fill="black" stroke="black" points="1990.48,-75.0829 2001.07,-75.5059 1993.06,-68.5735 1990.48,-75.0829"/>
</g>
<!-- Set -->
<g id="node52" class="node"><title>Set</title>
<ellipse fill="none" stroke="black" cx="1943.19" cy="-18" rx="27" ry="18"/>
<text text-anchor="middle" x="1943.19" y="-14.3" font-family="Times,serif" font-size="14.00">Set</text>
</g>
<!-- Set&#45;&gt;Container -->
<g id="edge52" class="edge"><title>Set&#45;&gt;Container</title>
<path fill="none" stroke="black" d="M1960.49,-32.1665C1973.41,-41.9908 1991.34,-55.6363 2006.4,-67.0942"/>
<polygon fill="black" stroke="black" points="2004.34,-69.9267 2014.42,-73.1965 2008.58,-64.3559 2004.34,-69.9267"/>
</g>
<!-- Stack -->
<g id="node53" class="node"><title>Stack</title>
<ellipse fill="none" stroke="black" cx="2025.19" cy="-18" rx="37.0935" ry="18"/>
<text text-anchor="middle" x="2025.19" y="-14.3" font-family="Times,serif" font-size="14.00">Stack</text>
</g>
<!-- Stack&#45;&gt;Container -->
<g id="edge53" class="edge"><title>Stack&#45;&gt;Container</title>
<path fill="none" stroke="black" d="M2027.66,-36.3034C2028.76,-44.0173 2030.09,-53.2875 2031.32,-61.8876"/>
<polygon fill="black" stroke="black" points="2027.87,-62.4912 2032.75,-71.8957 2034.8,-61.5012 2027.87,-62.4912"/>
</g>
<!-- UnorderedMap -->
<g id="node54" class="node"><title>UnorderedMap</title>
<ellipse fill="none" stroke="black" cx="2161.19" cy="-18" rx="81.4863" ry="18"/>
<text text-anchor="middle" x="2161.19" y="-14.3" font-family="Times,serif" font-size="14.00">UnorderedMap</text>
</g>
<!-- UnorderedMap&#45;&gt;Container -->
<g id="edge54" class="edge"><title>UnorderedMap&#45;&gt;Container</title>
<path fill="none" stroke="black" d="M2132.6,-34.8841C2114.42,-44.9827 2090.73,-58.1441 2071.26,-68.9585"/>
<polygon fill="black" stroke="black" points="2069.41,-65.9825 2062.37,-73.8986 2072.81,-72.1016 2069.41,-65.9825"/>
</g>
<!-- UnorderedSet -->
<g id="node55" class="node"><title>UnorderedSet</title>
<ellipse fill="none" stroke="black" cx="2336.19" cy="-18" rx="75.2868" ry="18"/>
<text text-anchor="middle" x="2336.19" y="-14.3" font-family="Times,serif" font-size="14.00">UnorderedSet</text>
</g>
<!-- UnorderedSet&#45;&gt;Container -->
<g id="edge55" class="edge"><title>UnorderedSet&#45;&gt;Container</title>
<path fill="none" stroke="black" d="M2284.1,-31.1132C2229.77,-43.7485 2144.97,-63.4705 2089.74,-76.3149"/>
<polygon fill="black" stroke="black" points="2088.73,-72.9557 2079.78,-78.6299 2090.31,-79.7737 2088.73,-72.9557"/>
</g>
<!-- Vector -->
<g id="node56" class="node"><title>Vector</title>
<ellipse fill="none" stroke="black" cx="2470.19" cy="-18" rx="40.8928" ry="18"/>
<text text-anchor="middle" x="2470.19" y="-14.3" font-family="Times,serif" font-size="14.00">Vector</text>
</g>
<!-- Vector&#45;&gt;Container -->
<g id="edge56" class="edge"><title>Vector&#45;&gt;Container</title>
<path fill="none" stroke="black" d="M2440.05,-30.2795C2433.57,-32.415 2426.7,-34.4593 2420.19,-36 2309.28,-62.2342 2177.11,-76.923 2100.03,-83.8808"/>
<polygon fill="black" stroke="black" points="2099.64,-80.4016 2089.99,-84.7715 2100.26,-87.3743 2099.64,-80.4016"/>
</g>
</g>
</svg>
