<?xml version="1.0" encoding="UTF-8" standalone="no"?>
<!DOCTYPE svg PUBLIC "-//W3C//DTD SVG 1.1//EN"
 "http://www.w3.org/Graphics/SVG/1.1/DTD/svg11.dtd">
<!-- Generated by graphviz version 2.38.0 (20140413.2041)
 -->
<!-- Title: memoryoracle.descriptions.AddressableDescription.frame Pages: 1 -->
<svg width="1275pt" height="176pt"
 viewBox="0.00 0.00 1275.00 175.50" xmlns="http://www.w3.org/2000/svg" xmlns:xlink="http://www.w3.org/1999/xlink">
<g id="graph0" class="graph" transform="scale(1 1) rotate(0) translate(4 171.5)">
<title>memoryoracle.descriptions.AddressableDescription.frame</title>
<!-- Node1 -->
<g id="node1" class="node"><title>Node1</title>
<polygon fill="#bfbfbf" stroke="black" points="0,-87.5 0,-117.5 161,-117.5 161,-87.5 0,-87.5"/>
<text text-anchor="start" x="8" y="-105.5" font-family="Helvetica,sans-Serif" font-size="10.00">memoryoracle.descriptions.</text>
<text text-anchor="middle" x="80.5" y="-94.5" font-family="Helvetica,sans-Serif" font-size="10.00">AddressableDescription.frame</text>
</g>
<!-- Node2 -->
<g id="node2" class="node"><title>Node2</title>
<g id="a_node2"><a xlink:href="classmemoryoracle_1_1descriptions_1_1AddressableDescription.html#a37c8fe09ba97c170b1c742cdb8ccce0d" target="_top" xlink:title="memoryoracle.descriptions.\lAddressableDescription.dict">
<polygon fill="none" stroke="black" points="217.5,-112.5 217.5,-142.5 367.5,-142.5 367.5,-112.5 217.5,-112.5"/>
<text text-anchor="start" x="225.5" y="-130.5" font-family="Helvetica,sans-Serif" font-size="10.00">memoryoracle.descriptions.</text>
<text text-anchor="middle" x="292.5" y="-119.5" font-family="Helvetica,sans-Serif" font-size="10.00">AddressableDescription.dict</text>
</a>
</g>
</g>
<!-- Node1&#45;&gt;Node2 -->
<g id="edge1" class="edge"><title>Node1&#45;&gt;Node2</title>
<path fill="none" stroke="midnightblue" d="M171.23,-113.182C186.625,-115.015 202.467,-116.901 217.395,-118.678"/>
<polygon fill="midnightblue" stroke="midnightblue" points="171.535,-109.694 161.191,-111.987 170.708,-116.645 171.535,-109.694"/>
</g>
<!-- Node3 -->
<g id="node3" class="node"><title>Node3</title>
<g id="a_node3"><a xlink:href="classmemoryoracle_1_1instance_1_1Primitive.html#abc513cbf3d0938c0db133e9af0a6f5ea" target="_top" xlink:title="memoryoracle.instance.Primitive.val\l_string">
<polygon fill="none" stroke="black" points="197,-63.5 197,-93.5 388,-93.5 388,-63.5 197,-63.5"/>
<text text-anchor="start" x="205" y="-81.5" font-family="Helvetica,sans-Serif" font-size="10.00">memoryoracle.instance.Primitive.val</text>
<text text-anchor="middle" x="292.5" y="-70.5" font-family="Helvetica,sans-Serif" font-size="10.00">_string</text>
</a>
</g>
</g>
<!-- Node1&#45;&gt;Node3 -->
<g id="edge2" class="edge"><title>Node1&#45;&gt;Node3</title>
<path fill="none" stroke="midnightblue" d="M171.348,-92.2316C179.741,-91.2724 188.266,-90.2982 196.702,-89.3341"/>
<polygon fill="midnightblue" stroke="midnightblue" points="170.729,-88.7795 161.191,-93.3924 171.524,-95.7342 170.729,-88.7795"/>
</g>
<!-- Node4 -->
<g id="node4" class="node"><title>Node4</title>
<g id="a_node4"><a xlink:href="classmemoryoracle_1_1instance_1_1Primitive.html#a68562bda9732e33fe32188597e2f4b91" target="_top" xlink:title="memoryoracle.instance.Primitive.\l_track">
<polygon fill="none" stroke="black" points="608,-128.5 608,-158.5 785,-158.5 785,-128.5 608,-128.5"/>
<text text-anchor="start" x="616" y="-146.5" font-family="Helvetica,sans-Serif" font-size="10.00">memoryoracle.instance.Primitive.</text>
<text text-anchor="middle" x="696.5" y="-135.5" font-family="Helvetica,sans-Serif" font-size="10.00">_track</text>
</a>
</g>
</g>
<!-- Node3&#45;&gt;Node4 -->
<g id="edge3" class="edge"><title>Node3&#45;&gt;Node4</title>
<path fill="none" stroke="midnightblue" d="M387.216,-95.2608C399.58,-97.4005 412.09,-99.5295 424,-101.5 485.291,-111.641 554.496,-122.335 607.695,-130.394"/>
<polygon fill="midnightblue" stroke="midnightblue" points="387.798,-91.8095 377.346,-93.5453 386.599,-98.7061 387.798,-91.8095"/>
</g>
<!-- Node10 -->
<g id="node10" class="node"><title>Node10</title>
<g id="a_node10"><a xlink:href="classmemoryoracle_1_1instance_1_1Pointer.html#a2cc9e298adaad8bed089d90186fcde8a" target="_top" xlink:title="memoryoracle.instance.Pointer.\l_track">
<polygon fill="none" stroke="black" points="612,-79.5 612,-109.5 781,-109.5 781,-79.5 612,-79.5"/>
<text text-anchor="start" x="620" y="-97.5" font-family="Helvetica,sans-Serif" font-size="10.00">memoryoracle.instance.Pointer.</text>
<text text-anchor="middle" x="696.5" y="-86.5" font-family="Helvetica,sans-Serif" font-size="10.00">_track</text>
</a>
</g>
</g>
<!-- Node3&#45;&gt;Node10 -->
<g id="edge11" class="edge"><title>Node3&#45;&gt;Node10</title>
<path fill="none" stroke="midnightblue" d="M398.107,-82.6635C464.688,-85.3135 549.759,-88.6994 611.844,-91.1704"/>
<polygon fill="midnightblue" stroke="midnightblue" points="398.136,-79.162 388.005,-82.2614 397.858,-86.1564 398.136,-79.162"/>
</g>
<!-- Node11 -->
<g id="node11" class="node"><title>Node11</title>
<g id="a_node11"><a xlink:href="classmemoryoracle_1_1instance_1_1Int.html#a450a73bc8aaf1a7ac5f18c3ed1a933fc" target="_top" xlink:title="memoryoracle.instance.Int.\l_find_hidden_type">
<polygon fill="none" stroke="black" points="424,-0.5 424,-30.5 572,-30.5 572,-0.5 424,-0.5"/>
<text text-anchor="start" x="432" y="-18.5" font-family="Helvetica,sans-Serif" font-size="10.00">memoryoracle.instance.Int.</text>
<text text-anchor="middle" x="498" y="-7.5" font-family="Helvetica,sans-Serif" font-size="10.00">_find_hidden_type</text>
</a>
</g>
</g>
<!-- Node3&#45;&gt;Node11 -->
<g id="edge14" class="edge"><title>Node3&#45;&gt;Node11</title>
<path fill="none" stroke="midnightblue" d="M351.687,-60.4863C382.33,-50.9997 419.472,-39.5013 448.534,-30.5041"/>
<polygon fill="midnightblue" stroke="midnightblue" points="350.502,-57.1891 341.985,-63.49 352.573,-63.876 350.502,-57.1891"/>
</g>
<!-- Node12 -->
<g id="node12" class="node"><title>Node12</title>
<g id="a_node12"><a xlink:href="classmemoryoracle_1_1instance_1_1Int.html#a38c9424341353f006771163d360594da" target="_top" xlink:title="memoryoracle.instance.Int.\l_track">
<polygon fill="none" stroke="black" points="622.5,-30.5 622.5,-60.5 770.5,-60.5 770.5,-30.5 622.5,-30.5"/>
<text text-anchor="start" x="630.5" y="-48.5" font-family="Helvetica,sans-Serif" font-size="10.00">memoryoracle.instance.Int.</text>
<text text-anchor="middle" x="696.5" y="-37.5" font-family="Helvetica,sans-Serif" font-size="10.00">_track</text>
</a>
</g>
</g>
<!-- Node3&#45;&gt;Node12 -->
<g id="edge18" class="edge"><title>Node3&#45;&gt;Node12</title>
<path fill="none" stroke="midnightblue" d="M398.235,-69.9023C468.628,-64.1238 559.643,-56.6525 622.319,-51.5074"/>
<polygon fill="midnightblue" stroke="midnightblue" points="397.685,-66.4356 388.005,-70.7421 398.258,-73.4121 397.685,-66.4356"/>
</g>
<!-- Node5 -->
<g id="node5" class="node"><title>Node5</title>
<g id="a_node5"><a xlink:href="classmemoryoracle_1_1instance_1_1Instance.html#a86649e01ee4f562debdba5421a334f78" target="_top" xlink:title="memoryoracle.instance.Instance.track">
<polygon fill="none" stroke="black" points="821,-104 821,-123 1021,-123 1021,-104 821,-104"/>
<text text-anchor="middle" x="921" y="-111" font-family="Helvetica,sans-Serif" font-size="10.00">memoryoracle.instance.Instance.track</text>
</a>
</g>
</g>
<!-- Node4&#45;&gt;Node5 -->
<g id="edge4" class="edge"><title>Node4&#45;&gt;Node5</title>
<path fill="none" stroke="midnightblue" d="M795.17,-130.331C813.377,-127.876 832.077,-125.355 849.279,-123.035"/>
<polygon fill="midnightblue" stroke="midnightblue" points="794.561,-126.881 785.118,-131.686 795.497,-133.819 794.561,-126.881"/>
</g>
<!-- Node9 -->
<g id="node9" class="node"><title>Node9</title>
<g id="a_node9"><a xlink:href="classmemoryoracle_1_1models_1_1Memory.html#a27f8d94aeb19f8101c29a673c7bae4a1" target="_top" xlink:title="memoryoracle.models.Memory.track">
<polygon fill="none" stroke="black" points="825,-66 825,-85 1017,-85 1017,-66 825,-66"/>
<text text-anchor="middle" x="921" y="-73" font-family="Helvetica,sans-Serif" font-size="10.00">memoryoracle.models.Memory.track</text>
</a>
</g>
</g>
<!-- Node4&#45;&gt;Node9 -->
<g id="edge8" class="edge"><title>Node4&#45;&gt;Node9</title>
<path fill="none" stroke="midnightblue" d="M769.319,-124.963C774.699,-122.975 779.981,-120.821 785,-118.5 802.454,-110.429 803.206,-101.79 821,-94.5 830.474,-90.6188 840.788,-87.5193 851.063,-85.0469"/>
<polygon fill="midnightblue" stroke="midnightblue" points="767.856,-121.767 759.567,-128.365 770.162,-128.376 767.856,-121.767"/>
</g>
<!-- Node6 -->
<g id="node6" class="node"><title>Node6</title>
<g id="a_node6"><a xlink:href="classmemoryoracle_1_1instance_1_1Instance.html#a286e015a030541a0704994172024f034" target="_top" xlink:title="memoryoracle.instance.Instance.update">
<polygon fill="none" stroke="black" points="1057,-148 1057,-167 1267,-167 1267,-148 1057,-148"/>
<text text-anchor="middle" x="1162" y="-155" font-family="Helvetica,sans-Serif" font-size="10.00">memoryoracle.instance.Instance.update</text>
</a>
</g>
</g>
<!-- Node5&#45;&gt;Node6 -->
<g id="edge5" class="edge"><title>Node5&#45;&gt;Node6</title>
<path fill="none" stroke="midnightblue" d="M983.292,-124.883C1006.39,-129.164 1032.9,-134.068 1057,-138.5 1073.79,-141.588 1092.1,-144.94 1108.62,-147.956"/>
<polygon fill="midnightblue" stroke="midnightblue" points="983.749,-121.408 973.279,-123.026 982.473,-128.291 983.749,-121.408"/>
</g>
<!-- Node7 -->
<g id="node7" class="node"><title>Node7</title>
<g id="a_node7"><a xlink:href="classmemoryoracle_1_1models_1_1Memory.html#a71d4a141abc3358afdf1a1325bfd4253" target="_top" xlink:title="memoryoracle.models.Memory.update">
<polygon fill="none" stroke="black" points="1061,-60 1061,-79 1263,-79 1263,-60 1061,-60"/>
<text text-anchor="middle" x="1162" y="-67" font-family="Helvetica,sans-Serif" font-size="10.00">memoryoracle.models.Memory.update</text>
</a>
</g>
</g>
<!-- Node5&#45;&gt;Node7 -->
<g id="edge6" class="edge"><title>Node5&#45;&gt;Node7</title>
<path fill="none" stroke="midnightblue" d="M983.292,-102.117C1006.39,-97.8357 1032.9,-92.9323 1057,-88.5 1073.79,-85.412 1092.1,-82.0602 1108.62,-79.0437"/>
<polygon fill="midnightblue" stroke="midnightblue" points="982.473,-98.7094 973.279,-103.974 983.749,-105.592 982.473,-98.7094"/>
</g>
<!-- Node8 -->
<g id="node8" class="node"><title>Node8</title>
<g id="a_node8"><a xlink:href="classmemoryoracle_1_1models_1_1Memory.html#aed3af349dd80317ae9cca4b4e9cb7c26" target="_top" xlink:title="memoryoracle.models.Memory.\l__init__">
<polygon fill="none" stroke="black" points="1078,-98.5 1078,-128.5 1246,-128.5 1246,-98.5 1078,-98.5"/>
<text text-anchor="start" x="1086" y="-116.5" font-family="Helvetica,sans-Serif" font-size="10.00">memoryoracle.models.Memory.</text>
<text text-anchor="middle" x="1162" y="-105.5" font-family="Helvetica,sans-Serif" font-size="10.00">__init__</text>
</a>
</g>
</g>
<!-- Node5&#45;&gt;Node8 -->
<g id="edge7" class="edge"><title>Node5&#45;&gt;Node8</title>
<path fill="none" stroke="midnightblue" d="M1031.5,-113.5C1047.12,-113.5 1062.96,-113.5 1077.96,-113.5"/>
<polygon fill="midnightblue" stroke="midnightblue" points="1031.28,-110 1021.28,-113.5 1031.28,-117 1031.28,-110"/>
</g>
<!-- Node9&#45;&gt;Node7 -->
<g id="edge9" class="edge"><title>Node9&#45;&gt;Node7</title>
<path fill="none" stroke="midnightblue" d="M1027.28,-72.8569C1038.38,-72.5782 1049.65,-72.2953 1060.69,-72.0181"/>
<polygon fill="midnightblue" stroke="midnightblue" points="1027.05,-69.3614 1017.15,-73.1114 1027.23,-76.3592 1027.05,-69.3614"/>
</g>
<!-- Node9&#45;&gt;Node8 -->
<g id="edge10" class="edge"><title>Node9&#45;&gt;Node8</title>
<path fill="none" stroke="midnightblue" d="M992.097,-86.6452C1019,-90.9218 1049.95,-95.8429 1077.95,-100.295"/>
<polygon fill="midnightblue" stroke="midnightblue" points="992.427,-83.1537 982.001,-85.04 991.328,-90.0669 992.427,-83.1537"/>
</g>
<!-- Node10&#45;&gt;Node5 -->
<g id="edge12" class="edge"><title>Node10&#45;&gt;Node5</title>
<path fill="none" stroke="midnightblue" d="M791.397,-102.518C801.162,-103.352 811.109,-104.201 820.928,-105.04"/>
<polygon fill="midnightblue" stroke="midnightblue" points="791.562,-99.0196 781.301,-101.656 790.967,-105.994 791.562,-99.0196"/>
</g>
<!-- Node10&#45;&gt;Node9 -->
<g id="edge13" class="edge"><title>Node10&#45;&gt;Node9</title>
<path fill="none" stroke="midnightblue" d="M791.353,-86.4856C802.385,-85.5436 813.65,-84.5816 824.701,-83.6379"/>
<polygon fill="midnightblue" stroke="midnightblue" points="790.967,-83.0058 781.301,-87.344 791.562,-89.9804 790.967,-83.0058"/>
</g>
<!-- Node11&#45;&gt;Node12 -->
<g id="edge15" class="edge"><title>Node11&#45;&gt;Node12</title>
<path fill="none" stroke="midnightblue" d="M582.25,-28.2099C595.549,-30.2404 609.225,-32.3282 622.27,-34.3198"/>
<polygon fill="midnightblue" stroke="midnightblue" points="582.583,-24.7203 572.169,-26.6709 581.527,-31.6401 582.583,-24.7203"/>
</g>
<!-- Node12&#45;&gt;Node5 -->
<g id="edge16" class="edge"><title>Node12&#45;&gt;Node5</title>
<path fill="none" stroke="midnightblue" d="M772.168,-64.0984C776.566,-65.7725 780.875,-67.5715 785,-69.5 802.646,-77.7503 803.045,-86.9448 821,-94.5 830.275,-98.403 840.379,-101.511 850.47,-103.985"/>
<polygon fill="midnightblue" stroke="midnightblue" points="773.025,-60.6886 762.431,-60.6311 770.677,-67.283 773.025,-60.6886"/>
</g>
<!-- Node12&#45;&gt;Node9 -->
<g id="edge17" class="edge"><title>Node12&#45;&gt;Node9</title>
<path fill="none" stroke="midnightblue" d="M780.595,-56.7039C803.245,-59.7578 827.561,-63.0364 849.442,-65.9866"/>
<polygon fill="midnightblue" stroke="midnightblue" points="781.041,-53.2324 770.663,-55.3647 780.106,-60.1696 781.041,-53.2324"/>
</g>
</g>
</svg>
