<?xml version="1.0" encoding="UTF-8" standalone="no"?>
<!DOCTYPE svg PUBLIC "-//W3C//DTD SVG 1.1//EN"
 "http://www.w3.org/Graphics/SVG/1.1/DTD/svg11.dtd">
<!-- Generated by graphviz version 2.38.0 (20140413.2041)
 -->
<!-- Title: memoryoracle.symbol.Structure Pages: 1 -->
<svg width="180pt" height="569pt"
 viewBox="0.00 0.00 180.00 569.00" xmlns="http://www.w3.org/2000/svg" xmlns:xlink="http://www.w3.org/1999/xlink">
<g id="graph0" class="graph" transform="scale(1 1) rotate(0) translate(4 565)">
<title>memoryoracle.symbol.Structure</title>
<!-- Node1 -->
<g id="node1" class="node"><title>Node1</title>
<polygon fill="#bfbfbf" stroke="black" points="0,-0.5 0,-57.5 172,-57.5 172,-0.5 0,-0.5"/>
<text text-anchor="middle" x="86" y="-45.5" font-family="Helvetica,sans-Serif" font-size="10.00">memoryoracle.symbol.Structure</text>
<polyline fill="none" stroke="black" points="0,-38.5 172,-38.5 "/>
<text text-anchor="middle" x="86" y="-26.5" font-family="Helvetica,sans-Serif" font-size="10.00"> </text>
<polyline fill="none" stroke="black" points="0,-19.5 172,-19.5 "/>
<text text-anchor="middle" x="86" y="-7.5" font-family="Helvetica,sans-Serif" font-size="10.00"> </text>
</g>
<!-- Node2 -->
<g id="node2" class="node"><title>Node2</title>
<g id="a_node2"><a xlink:href="classmemoryoracle_1_1symbol_1_1Type.html" target="_top" xlink:title="{memoryoracle.symbol.Type\n||}">
<polygon fill="none" stroke="black" points="12,-94.5 12,-151.5 160,-151.5 160,-94.5 12,-94.5"/>
<text text-anchor="middle" x="86" y="-139.5" font-family="Helvetica,sans-Serif" font-size="10.00">memoryoracle.symbol.Type</text>
<polyline fill="none" stroke="black" points="12,-132.5 160,-132.5 "/>
<text text-anchor="middle" x="86" y="-120.5" font-family="Helvetica,sans-Serif" font-size="10.00"> </text>
<polyline fill="none" stroke="black" points="12,-113.5 160,-113.5 "/>
<text text-anchor="middle" x="86" y="-101.5" font-family="Helvetica,sans-Serif" font-size="10.00"> </text>
</a>
</g>
</g>
<!-- Node2&#45;&gt;Node1 -->
<g id="edge1" class="edge"><title>Node2&#45;&gt;Node1</title>
<path fill="none" stroke="midnightblue" d="M86,-84.2092C86,-75.2929 86,-65.9513 86,-57.5836"/>
<polygon fill="none" stroke="midnightblue" points="82.5001,-84.3969 86,-94.397 89.5001,-84.397 82.5001,-84.3969"/>
</g>
<!-- Node3 -->
<g id="node3" class="node"><title>Node3</title>
<g id="a_node3"><a xlink:href="classmemoryoracle_1_1symbol_1_1Symbol.html" target="_top" xlink:title="{memoryoracle.symbol.Symbol\n||}">
<polygon fill="none" stroke="black" points="4.5,-188.5 4.5,-245.5 167.5,-245.5 167.5,-188.5 4.5,-188.5"/>
<text text-anchor="middle" x="86" y="-233.5" font-family="Helvetica,sans-Serif" font-size="10.00">memoryoracle.symbol.Symbol</text>
<polyline fill="none" stroke="black" points="4.5,-226.5 167.5,-226.5 "/>
<text text-anchor="middle" x="86" y="-214.5" font-family="Helvetica,sans-Serif" font-size="10.00"> </text>
<polyline fill="none" stroke="black" points="4.5,-207.5 167.5,-207.5 "/>
<text text-anchor="middle" x="86" y="-195.5" font-family="Helvetica,sans-Serif" font-size="10.00"> </text>
</a>
</g>
</g>
<!-- Node3&#45;&gt;Node2 -->
<g id="edge2" class="edge"><title>Node3&#45;&gt;Node2</title>
<path fill="none" stroke="midnightblue" d="M86,-178.209C86,-169.293 86,-159.951 86,-151.584"/>
<polygon fill="none" stroke="midnightblue" points="82.5001,-178.397 86,-188.397 89.5001,-178.397 82.5001,-178.397"/>
</g>
<!-- Node4 -->
<g id="node4" class="node"><title>Node4</title>
<g id="a_node4"><a xlink:href="classmemoryoracle_1_1typed_1_1Typed.html" target="_top" xlink:title="{memoryoracle.typed.Typed\n||+ type_code()\l+ gdb_type()\l+ object()\l}">
<polygon fill="none" stroke="black" points="13,-282.5 13,-361.5 159,-361.5 159,-282.5 13,-282.5"/>
<text text-anchor="middle" x="86" y="-349.5" font-family="Helvetica,sans-Serif" font-size="10.00">memoryoracle.typed.Typed</text>
<polyline fill="none" stroke="black" points="13,-342.5 159,-342.5 "/>
<text text-anchor="middle" x="86" y="-330.5" font-family="Helvetica,sans-Serif" font-size="10.00"> </text>
<polyline fill="none" stroke="black" points="13,-323.5 159,-323.5 "/>
<text text-anchor="start" x="21" y="-311.5" font-family="Helvetica,sans-Serif" font-size="10.00">+ type_code()</text>
<text text-anchor="start" x="21" y="-300.5" font-family="Helvetica,sans-Serif" font-size="10.00">+ gdb_type()</text>
<text text-anchor="start" x="21" y="-289.5" font-family="Helvetica,sans-Serif" font-size="10.00">+ object()</text>
</a>
</g>
</g>
<!-- Node4&#45;&gt;Node3 -->
<g id="edge3" class="edge"><title>Node4&#45;&gt;Node3</title>
<path fill="none" stroke="midnightblue" d="M86,-272.163C86,-263.04 86,-253.806 86,-245.61"/>
<polygon fill="none" stroke="midnightblue" points="82.5001,-272.354 86,-282.354 89.5001,-272.354 82.5001,-272.354"/>
</g>
<!-- Node5 -->
<g id="node5" class="node"><title>Node5</title>
<g id="a_node5"><a xlink:href="classmemoryoracle_1_1tracked_1_1Tracked.html" target="_top" xlink:title="{memoryoracle.tracked.Tracked\n|+ meta\l|+ track()\l+ description()\l}">
<polygon fill="none" stroke="black" points="4,-398.5 4,-466.5 168,-466.5 168,-398.5 4,-398.5"/>
<text text-anchor="middle" x="86" y="-454.5" font-family="Helvetica,sans-Serif" font-size="10.00">memoryoracle.tracked.Tracked</text>
<polyline fill="none" stroke="black" points="4,-447.5 168,-447.5 "/>
<text text-anchor="start" x="12" y="-435.5" font-family="Helvetica,sans-Serif" font-size="10.00">+ meta</text>
<polyline fill="none" stroke="black" points="4,-428.5 168,-428.5 "/>
<text text-anchor="start" x="12" y="-416.5" font-family="Helvetica,sans-Serif" font-size="10.00">+ track()</text>
<text text-anchor="start" x="12" y="-405.5" font-family="Helvetica,sans-Serif" font-size="10.00">+ description()</text>
</a>
</g>
</g>
<!-- Node5&#45;&gt;Node4 -->
<g id="edge4" class="edge"><title>Node5&#45;&gt;Node4</title>
<path fill="none" stroke="midnightblue" d="M86,-388.274C86,-379.476 86,-370.275 86,-361.649"/>
<polygon fill="none" stroke="midnightblue" points="82.5001,-388.357 86,-398.357 89.5001,-388.357 82.5001,-388.357"/>
</g>
<!-- Node6 -->
<g id="node6" class="node"><title>Node6</title>
<polygon fill="none" stroke="#bfbfbf" points="52.5,-503.5 52.5,-560.5 119.5,-560.5 119.5,-503.5 52.5,-503.5"/>
<text text-anchor="middle" x="86" y="-548.5" font-family="Helvetica,sans-Serif" font-size="10.00">Document</text>
<polyline fill="none" stroke="#bfbfbf" points="52.5,-541.5 119.5,-541.5 "/>
<text text-anchor="middle" x="86" y="-529.5" font-family="Helvetica,sans-Serif" font-size="10.00"> </text>
<polyline fill="none" stroke="#bfbfbf" points="52.5,-522.5 119.5,-522.5 "/>
<text text-anchor="middle" x="86" y="-510.5" font-family="Helvetica,sans-Serif" font-size="10.00"> </text>
</g>
<!-- Node6&#45;&gt;Node5 -->
<g id="edge5" class="edge"><title>Node6&#45;&gt;Node5</title>
<path fill="none" stroke="midnightblue" d="M86,-493.063C86,-484.393 86,-475.243 86,-466.786"/>
<polygon fill="none" stroke="midnightblue" points="82.5001,-493.321 86,-503.321 89.5001,-493.321 82.5001,-493.321"/>
</g>
</g>
</svg>
