<?xml version="1.0" encoding="UTF-8" standalone="no"?>
<!DOCTYPE svg PUBLIC "-//W3C//DTD SVG 1.1//EN"
 "http://www.w3.org/Graphics/SVG/1.1/DTD/svg11.dtd">
<!-- Generated by graphviz version 2.38.0 (20140413.2041)
 -->
<!-- Title: memoryoracle.frame.Frame.type Pages: 1 -->
<svg width="861pt" height="166pt"
 viewBox="0.00 0.00 861.00 165.50" xmlns="http://www.w3.org/2000/svg" xmlns:xlink="http://www.w3.org/1999/xlink">
<g id="graph0" class="graph" transform="scale(1 1) rotate(0) translate(4 161.5)">
<title>memoryoracle.frame.Frame.type</title>
<!-- Node1 -->
<g id="node1" class="node"><title>Node1</title>
<polygon fill="#bfbfbf" stroke="black" points="0,-69 0,-88 175,-88 175,-69 0,-69"/>
<text text-anchor="middle" x="87.5" y="-76" font-family="Helvetica,sans-Serif" font-size="10.00">memoryoracle.frame.Frame.type</text>
</g>
<!-- Node2 -->
<g id="node2" class="node"><title>Node2</title>
<g id="a_node2"><a xlink:href="classmemoryoracle_1_1instance_1_1Array.html#a1d8c3993d8a52bfbec8240d6f79b3ce1" target="_top" xlink:title="memoryoracle.instance.Array.\l_track">
<polygon fill="none" stroke="black" points="211,-63.5 211,-93.5 371,-93.5 371,-63.5 211,-63.5"/>
<text text-anchor="start" x="219" y="-81.5" font-family="Helvetica,sans-Serif" font-size="10.00">memoryoracle.instance.Array.</text>
<text text-anchor="middle" x="291" y="-70.5" font-family="Helvetica,sans-Serif" font-size="10.00">_track</text>
</a>
</g>
</g>
<!-- Node1&#45;&gt;Node2 -->
<g id="edge1" class="edge"><title>Node1&#45;&gt;Node2</title>
<path fill="none" stroke="midnightblue" d="M185.162,-78.5C193.741,-78.5 202.36,-78.5 210.769,-78.5"/>
<polygon fill="midnightblue" stroke="midnightblue" points="185.124,-75.0001 175.124,-78.5 185.124,-82.0001 185.124,-75.0001"/>
</g>
<!-- Node3 -->
<g id="node3" class="node"><title>Node3</title>
<g id="a_node3"><a xlink:href="classmemoryoracle_1_1instance_1_1Instance.html#a86649e01ee4f562debdba5421a334f78" target="_top" xlink:title="memoryoracle.instance.Instance.track">
<polygon fill="none" stroke="black" points="407,-88 407,-107 607,-107 607,-88 407,-88"/>
<text text-anchor="middle" x="507" y="-95" font-family="Helvetica,sans-Serif" font-size="10.00">memoryoracle.instance.Instance.track</text>
</a>
</g>
</g>
<!-- Node2&#45;&gt;Node3 -->
<g id="edge2" class="edge"><title>Node2&#45;&gt;Node3</title>
<path fill="none" stroke="midnightblue" d="M381.301,-86.4286C389.756,-87.1793 398.362,-87.9434 406.902,-88.7015"/>
<polygon fill="midnightblue" stroke="midnightblue" points="381.348,-82.9191 371.078,-85.5209 380.729,-89.8917 381.348,-82.9191"/>
</g>
<!-- Node8 -->
<g id="node8" class="node"><title>Node8</title>
<g id="a_node8"><a xlink:href="classmemoryoracle_1_1models_1_1Typed.html#aa1d5d8d5b7ebe5c2876f363e7eb669db" target="_top" xlink:title="memoryoracle.models.Typed.track">
<polygon fill="none" stroke="black" points="416,-50 416,-69 598,-69 598,-50 416,-50"/>
<text text-anchor="middle" x="507" y="-57" font-family="Helvetica,sans-Serif" font-size="10.00">memoryoracle.models.Typed.track</text>
</a>
</g>
</g>
<!-- Node2&#45;&gt;Node8 -->
<g id="edge7" class="edge"><title>Node2&#45;&gt;Node8</title>
<path fill="none" stroke="midnightblue" d="M381.051,-70.5936C392.497,-69.5773 404.226,-68.536 415.693,-67.5179"/>
<polygon fill="midnightblue" stroke="midnightblue" points="380.729,-67.1083 371.078,-71.4791 381.348,-74.0809 380.729,-67.1083"/>
</g>
<!-- Node4 -->
<g id="node4" class="node"><title>Node4</title>
<g id="a_node4"><a xlink:href="classmemoryoracle_1_1instance_1_1Instance.html#a286e015a030541a0704994172024f034" target="_top" xlink:title="memoryoracle.instance.Instance.update">
<polygon fill="none" stroke="black" points="643,-138 643,-157 853,-157 853,-138 643,-138"/>
<text text-anchor="middle" x="748" y="-145" font-family="Helvetica,sans-Serif" font-size="10.00">memoryoracle.instance.Instance.update</text>
</a>
</g>
</g>
<!-- Node3&#45;&gt;Node4 -->
<g id="edge3" class="edge"><title>Node3&#45;&gt;Node4</title>
<path fill="none" stroke="midnightblue" d="M557.29,-109.379C582.812,-115.388 614.514,-122.63 643,-128.5 658.909,-131.778 676.248,-135.06 692.126,-137.952"/>
<polygon fill="midnightblue" stroke="midnightblue" points="558.013,-105.954 547.476,-107.058 556.402,-112.766 558.013,-105.954"/>
</g>
<!-- Node5 -->
<g id="node5" class="node"><title>Node5</title>
<g id="a_node5"><a xlink:href="classmemoryoracle_1_1models_1_1Typed.html#a494dfbe205034b874ff9e8c7039f579b" target="_top" xlink:title="memoryoracle.models.Typed.\l__init__">
<polygon fill="none" stroke="black" points="669,-88.5 669,-118.5 827,-118.5 827,-88.5 669,-88.5"/>
<text text-anchor="start" x="677" y="-106.5" font-family="Helvetica,sans-Serif" font-size="10.00">memoryoracle.models.Typed.</text>
<text text-anchor="middle" x="748" y="-95.5" font-family="Helvetica,sans-Serif" font-size="10.00">__init__</text>
</a>
</g>
</g>
<!-- Node3&#45;&gt;Node5 -->
<g id="edge4" class="edge"><title>Node3&#45;&gt;Node5</title>
<path fill="none" stroke="midnightblue" d="M617.436,-100.247C634.758,-100.682 652.364,-101.124 668.784,-101.536"/>
<polygon fill="midnightblue" stroke="midnightblue" points="617.366,-96.7446 607.281,-99.9924 617.19,-103.742 617.366,-96.7446"/>
</g>
<!-- Node6 -->
<g id="node6" class="node"><title>Node6</title>
<g id="a_node6"><a xlink:href="classmemoryoracle_1_1models_1_1Memory.html#a71d4a141abc3358afdf1a1325bfd4253" target="_top" xlink:title="memoryoracle.models.Memory.update">
<polygon fill="none" stroke="black" points="647,-50 647,-69 849,-69 849,-50 647,-50"/>
<text text-anchor="middle" x="748" y="-57" font-family="Helvetica,sans-Serif" font-size="10.00">memoryoracle.models.Memory.update</text>
</a>
</g>
</g>
<!-- Node3&#45;&gt;Node6 -->
<g id="edge5" class="edge"><title>Node3&#45;&gt;Node6</title>
<path fill="none" stroke="midnightblue" d="M578.028,-86.3659C612.596,-80.8697 653.871,-74.3071 686.974,-69.0439"/>
<polygon fill="midnightblue" stroke="midnightblue" points="577.328,-82.9331 568.001,-87.96 578.427,-89.8463 577.328,-82.9331"/>
</g>
<!-- Node7 -->
<g id="node7" class="node"><title>Node7</title>
<g id="a_node7"><a xlink:href="classmemoryoracle_1_1models_1_1Memory.html#aed3af349dd80317ae9cca4b4e9cb7c26" target="_top" xlink:title="memoryoracle.models.Memory.\l__init__">
<polygon fill="none" stroke="black" points="664,-0.5 664,-30.5 832,-30.5 832,-0.5 664,-0.5"/>
<text text-anchor="start" x="672" y="-18.5" font-family="Helvetica,sans-Serif" font-size="10.00">memoryoracle.models.Memory.</text>
<text text-anchor="middle" x="748" y="-7.5" font-family="Helvetica,sans-Serif" font-size="10.00">__init__</text>
</a>
</g>
</g>
<!-- Node3&#45;&gt;Node7 -->
<g id="edge6" class="edge"><title>Node3&#45;&gt;Node7</title>
<path fill="none" stroke="midnightblue" d="M593.823,-84.5991C598.383,-82.8182 602.807,-80.7959 607,-78.5 627.405,-67.3257 622.859,-52.1436 643,-40.5 649.752,-36.5965 657.088,-33.3009 664.635,-30.5189"/>
<polygon fill="midnightblue" stroke="midnightblue" points="592.59,-81.3224 584.305,-87.926 594.9,-87.9303 592.59,-81.3224"/>
</g>
<!-- Node8&#45;&gt;Node5 -->
<g id="edge8" class="edge"><title>Node8&#45;&gt;Node5</title>
<path fill="none" stroke="midnightblue" d="M569.844,-70.8855C600.064,-76.449 636.753,-83.2035 668.887,-89.1194"/>
<polygon fill="midnightblue" stroke="midnightblue" points="570.328,-67.4158 559.859,-69.0473 569.06,-74.3002 570.328,-67.4158"/>
</g>
<!-- Node8&#45;&gt;Node6 -->
<g id="edge9" class="edge"><title>Node8&#45;&gt;Node6</title>
<path fill="none" stroke="midnightblue" d="M608.151,-59.5C620.884,-59.5 633.918,-59.5 646.654,-59.5"/>
<polygon fill="midnightblue" stroke="midnightblue" points="608.015,-56.0001 598.015,-59.5 608.015,-63.0001 608.015,-56.0001"/>
</g>
<!-- Node8&#45;&gt;Node7 -->
<g id="edge10" class="edge"><title>Node8&#45;&gt;Node7</title>
<path fill="none" stroke="midnightblue" d="M569.871,-48.1095C598.926,-42.7606 633.956,-36.3114 665.168,-30.5654"/>
<polygon fill="midnightblue" stroke="midnightblue" points="569.06,-44.6998 559.859,-49.9527 570.328,-51.5842 569.06,-44.6998"/>
</g>
</g>
</svg>
