<?xml version="1.0" encoding="UTF-8" standalone="no"?>
<!DOCTYPE svg PUBLIC "-//W3C//DTD SVG 1.1//EN"
 "http://www.w3.org/Graphics/SVG/1.1/DTD/svg11.dtd">
<!-- Generated by graphviz version 2.38.0 (20140413.2041)
 -->
<!-- Title: memoryoracle.instance.Instance.id Pages: 1 -->
<svg width="889pt" height="186pt"
 viewBox="0.00 0.00 889.00 186.00" xmlns="http://www.w3.org/2000/svg" xmlns:xlink="http://www.w3.org/1999/xlink">
<g id="graph0" class="graph" transform="scale(1 1) rotate(0) translate(4 182)">
<title>memoryoracle.instance.Instance.id</title>
<!-- Node1 -->
<g id="node1" class="node"><title>Node1</title>
<polygon fill="#bfbfbf" stroke="black" points="0,-79 0,-98 185,-98 185,-79 0,-79"/>
<text text-anchor="middle" x="92.5" y="-86" font-family="Helvetica,sans-Serif" font-size="10.00">memoryoracle.instance.Instance.id</text>
</g>
<!-- Node2 -->
<g id="node2" class="node"><title>Node2</title>
<g id="a_node2"><a xlink:href="classmemoryoracle_1_1instance_1_1Instance.html#a254a208a64e4c7f32c514e2fb64edbbe" target="_top" xlink:title="memoryoracle.instance.Instance.\l_basic_track">
<polygon fill="none" stroke="black" points="222,-49.5 222,-79.5 398,-79.5 398,-49.5 222,-49.5"/>
<text text-anchor="start" x="230" y="-67.5" font-family="Helvetica,sans-Serif" font-size="10.00">memoryoracle.instance.Instance.</text>
<text text-anchor="middle" x="310" y="-56.5" font-family="Helvetica,sans-Serif" font-size="10.00">_basic_track</text>
</a>
</g>
</g>
<!-- Node1&#45;&gt;Node2 -->
<g id="edge1" class="edge"><title>Node1&#45;&gt;Node2</title>
<path fill="none" stroke="midnightblue" d="M188.97,-77.8676C199.915,-76.6487 211.03,-75.4108 221.858,-74.205"/>
<polygon fill="midnightblue" stroke="midnightblue" points="188.532,-74.3947 178.981,-78.9801 189.307,-81.3517 188.532,-74.3947"/>
</g>
<!-- Node8 -->
<g id="node8" class="node"><title>Node8</title>
<g id="a_node8"><a xlink:href="classmemoryoracle_1_1instance_1_1StructureInstance.html#a972b88ba2dcdc0e5d362d92e740f446d" target="_top" xlink:title="memoryoracle.instance.Structure\lInstance._track">
<polygon fill="none" stroke="black" points="221,-0.5 221,-30.5 399,-30.5 399,-0.5 221,-0.5"/>
<text text-anchor="start" x="229" y="-18.5" font-family="Helvetica,sans-Serif" font-size="10.00">memoryoracle.instance.Structure</text>
<text text-anchor="middle" x="310" y="-7.5" font-family="Helvetica,sans-Serif" font-size="10.00">Instance._track</text>
</a>
</g>
</g>
<!-- Node1&#45;&gt;Node8 -->
<g id="edge9" class="edge"><title>Node1&#45;&gt;Node8</title>
<path fill="none" stroke="midnightblue" d="M125.844,-75.0322C151.425,-64.634 188.174,-50.2538 221,-39.5 230.481,-36.3941 240.625,-33.3634 250.531,-30.559"/>
<polygon fill="midnightblue" stroke="midnightblue" points="124.213,-71.9181 116.283,-78.9448 126.864,-78.3967 124.213,-71.9181"/>
</g>
<!-- Node9 -->
<g id="node9" class="node"><title>Node9</title>
<g id="a_node9"><a xlink:href="classmemoryoracle_1_1instance_1_1Array.html#a1d8c3993d8a52bfbec8240d6f79b3ce1" target="_top" xlink:title="memoryoracle.instance.Array.\l_track">
<polygon fill="none" stroke="black" points="230,-147.5 230,-177.5 390,-177.5 390,-147.5 230,-147.5"/>
<text text-anchor="start" x="238" y="-165.5" font-family="Helvetica,sans-Serif" font-size="10.00">memoryoracle.instance.Array.</text>
<text text-anchor="middle" x="310" y="-154.5" font-family="Helvetica,sans-Serif" font-size="10.00">_track</text>
</a>
</g>
</g>
<!-- Node1&#45;&gt;Node9 -->
<g id="edge12" class="edge"><title>Node1&#45;&gt;Node9</title>
<path fill="none" stroke="midnightblue" d="M125.353,-102.094C150.936,-112.743 187.925,-127.54 221,-138.5 230.47,-141.638 240.609,-144.685 250.513,-147.496"/>
<polygon fill="midnightblue" stroke="midnightblue" points="126.379,-98.7289 115.803,-98.0908 123.673,-105.185 126.379,-98.7289"/>
</g>
<!-- Node10 -->
<g id="node10" class="node"><title>Node10</title>
<g id="a_node10"><a xlink:href="classmemoryoracle_1_1instance_1_1Pointer.html#a2cc9e298adaad8bed089d90186fcde8a" target="_top" xlink:title="memoryoracle.instance.Pointer.\l_track">
<polygon fill="none" stroke="black" points="225.5,-98.5 225.5,-128.5 394.5,-128.5 394.5,-98.5 225.5,-98.5"/>
<text text-anchor="start" x="233.5" y="-116.5" font-family="Helvetica,sans-Serif" font-size="10.00">memoryoracle.instance.Pointer.</text>
<text text-anchor="middle" x="310" y="-105.5" font-family="Helvetica,sans-Serif" font-size="10.00">_track</text>
</a>
</g>
</g>
<!-- Node1&#45;&gt;Node10 -->
<g id="edge15" class="edge"><title>Node1&#45;&gt;Node10</title>
<path fill="none" stroke="midnightblue" d="M185.606,-99.1851C198.807,-100.717 212.329,-102.285 225.356,-103.796"/>
<polygon fill="midnightblue" stroke="midnightblue" points="185.923,-95.6985 175.586,-98.0227 185.116,-102.652 185.923,-95.6985"/>
</g>
<!-- Node3 -->
<g id="node3" class="node"><title>Node3</title>
<g id="a_node3"><a xlink:href="classmemoryoracle_1_1instance_1_1Instance.html#a86649e01ee4f562debdba5421a334f78" target="_top" xlink:title="memoryoracle.instance.Instance.track">
<polygon fill="none" stroke="black" points="435,-98 435,-117 635,-117 635,-98 435,-98"/>
<text text-anchor="middle" x="535" y="-105" font-family="Helvetica,sans-Serif" font-size="10.00">memoryoracle.instance.Instance.track</text>
</a>
</g>
</g>
<!-- Node2&#45;&gt;Node3 -->
<g id="edge2" class="edge"><title>Node2&#45;&gt;Node3</title>
<path fill="none" stroke="midnightblue" d="M399.169,-81.5011C428.233,-87.1054 459.51,-93.1365 484.617,-97.9777"/>
<polygon fill="midnightblue" stroke="midnightblue" points="399.476,-77.9961 388.995,-79.5393 398.151,-84.8695 399.476,-77.9961"/>
</g>
<!-- Node7 -->
<g id="node7" class="node"><title>Node7</title>
<g id="a_node7"><a xlink:href="classmemoryoracle_1_1models_1_1Memory.html#a27f8d94aeb19f8101c29a673c7bae4a1" target="_top" xlink:title="memoryoracle.models.Memory.track">
<polygon fill="none" stroke="black" points="439,-57 439,-76 631,-76 631,-57 439,-57"/>
<text text-anchor="middle" x="535" y="-64" font-family="Helvetica,sans-Serif" font-size="10.00">memoryoracle.models.Memory.track</text>
</a>
</g>
</g>
<!-- Node2&#45;&gt;Node7 -->
<g id="edge6" class="edge"><title>Node2&#45;&gt;Node7</title>
<path fill="none" stroke="midnightblue" d="M408.241,-65.3721C418.372,-65.463 428.662,-65.5553 438.77,-65.6459"/>
<polygon fill="midnightblue" stroke="midnightblue" points="408.207,-61.8718 398.176,-65.2818 408.144,-68.8715 408.207,-61.8718"/>
</g>
<!-- Node4 -->
<g id="node4" class="node"><title>Node4</title>
<g id="a_node4"><a xlink:href="classmemoryoracle_1_1instance_1_1Instance.html#a286e015a030541a0704994172024f034" target="_top" xlink:title="memoryoracle.instance.Instance.update">
<polygon fill="none" stroke="black" points="671,-142 671,-161 881,-161 881,-142 671,-142"/>
<text text-anchor="middle" x="776" y="-149" font-family="Helvetica,sans-Serif" font-size="10.00">memoryoracle.instance.Instance.update</text>
</a>
</g>
</g>
<!-- Node3&#45;&gt;Node4 -->
<g id="edge3" class="edge"><title>Node3&#45;&gt;Node4</title>
<path fill="none" stroke="midnightblue" d="M597.292,-118.883C620.393,-123.164 646.903,-128.068 671,-132.5 687.788,-135.588 706.104,-138.94 722.621,-141.956"/>
<polygon fill="midnightblue" stroke="midnightblue" points="597.749,-115.408 587.279,-117.026 596.473,-122.291 597.749,-115.408"/>
</g>
<!-- Node5 -->
<g id="node5" class="node"><title>Node5</title>
<g id="a_node5"><a xlink:href="classmemoryoracle_1_1models_1_1Memory.html#a71d4a141abc3358afdf1a1325bfd4253" target="_top" xlink:title="memoryoracle.models.Memory.update">
<polygon fill="none" stroke="black" points="675,-54 675,-73 877,-73 877,-54 675,-54"/>
<text text-anchor="middle" x="776" y="-61" font-family="Helvetica,sans-Serif" font-size="10.00">memoryoracle.models.Memory.update</text>
</a>
</g>
</g>
<!-- Node3&#45;&gt;Node5 -->
<g id="edge4" class="edge"><title>Node3&#45;&gt;Node5</title>
<path fill="none" stroke="midnightblue" d="M597.292,-96.1174C620.393,-91.8357 646.903,-86.9323 671,-82.5 687.788,-79.412 706.104,-76.0602 722.621,-73.0437"/>
<polygon fill="midnightblue" stroke="midnightblue" points="596.473,-92.7094 587.279,-97.9738 597.749,-99.5921 596.473,-92.7094"/>
</g>
<!-- Node6 -->
<g id="node6" class="node"><title>Node6</title>
<g id="a_node6"><a xlink:href="classmemoryoracle_1_1models_1_1Memory.html#aed3af349dd80317ae9cca4b4e9cb7c26" target="_top" xlink:title="memoryoracle.models.Memory.\l__init__">
<polygon fill="none" stroke="black" points="692,-92.5 692,-122.5 860,-122.5 860,-92.5 692,-92.5"/>
<text text-anchor="start" x="700" y="-110.5" font-family="Helvetica,sans-Serif" font-size="10.00">memoryoracle.models.Memory.</text>
<text text-anchor="middle" x="776" y="-99.5" font-family="Helvetica,sans-Serif" font-size="10.00">__init__</text>
</a>
</g>
</g>
<!-- Node3&#45;&gt;Node6 -->
<g id="edge5" class="edge"><title>Node3&#45;&gt;Node6</title>
<path fill="none" stroke="midnightblue" d="M645.5,-107.5C661.117,-107.5 676.964,-107.5 691.964,-107.5"/>
<polygon fill="midnightblue" stroke="midnightblue" points="645.281,-104 635.281,-107.5 645.281,-111 645.281,-104"/>
</g>
<!-- Node7&#45;&gt;Node5 -->
<g id="edge7" class="edge"><title>Node7&#45;&gt;Node5</title>
<path fill="none" stroke="midnightblue" d="M641.283,-65.1785C652.385,-65.0391 663.652,-64.8977 674.695,-64.7591"/>
<polygon fill="midnightblue" stroke="midnightblue" points="641.101,-61.6804 631.146,-65.3057 641.189,-68.6798 641.101,-61.6804"/>
</g>
<!-- Node7&#45;&gt;Node6 -->
<g id="edge8" class="edge"><title>Node7&#45;&gt;Node6</title>
<path fill="none" stroke="midnightblue" d="M601.461,-77.7297C629.333,-82.5112 662.174,-88.145 691.745,-93.2177"/>
<polygon fill="midnightblue" stroke="midnightblue" points="601.88,-74.2505 591.432,-76.0093 600.696,-81.1498 601.88,-74.2505"/>
</g>
<!-- Node8&#45;&gt;Node3 -->
<g id="edge10" class="edge"><title>Node8&#45;&gt;Node3</title>
<path fill="none" stroke="midnightblue" d="M391.481,-35.0056C394.073,-36.402 396.589,-37.8978 399,-39.5 420.622,-53.8681 413.042,-71.6503 435,-85.5 443.488,-90.8539 453.105,-94.9144 462.926,-97.9919"/>
<polygon fill="midnightblue" stroke="midnightblue" points="392.935,-31.8214 382.407,-30.6308 389.895,-38.1267 392.935,-31.8214"/>
</g>
<!-- Node8&#45;&gt;Node7 -->
<g id="edge11" class="edge"><title>Node8&#45;&gt;Node7</title>
<path fill="none" stroke="midnightblue" d="M386.51,-32.7692C421.845,-40.8502 462.581,-50.1664 492.276,-56.9578"/>
<polygon fill="midnightblue" stroke="midnightblue" points="387.23,-29.3434 376.701,-30.5258 385.669,-36.1673 387.23,-29.3434"/>
</g>
<!-- Node9&#45;&gt;Node3 -->
<g id="edge13" class="edge"><title>Node9&#45;&gt;Node3</title>
<path fill="none" stroke="midnightblue" d="M381.815,-145.034C419.36,-135.774 464.038,-124.755 495.236,-117.061"/>
<polygon fill="midnightblue" stroke="midnightblue" points="380.807,-141.678 371.936,-147.471 382.483,-148.474 380.807,-141.678"/>
</g>
<!-- Node9&#45;&gt;Node7 -->
<g id="edge14" class="edge"><title>Node9&#45;&gt;Node7</title>
<path fill="none" stroke="midnightblue" d="M392.261,-142.727C394.584,-141.408 396.837,-140.001 399,-138.5 421.499,-122.892 412.136,-103.569 435,-88.5 443.086,-83.1711 452.267,-79.1164 461.699,-76.0345"/>
<polygon fill="midnightblue" stroke="midnightblue" points="390.358,-139.766 383.003,-147.391 393.508,-146.018 390.358,-139.766"/>
</g>
<!-- Node10&#45;&gt;Node3 -->
<g id="edge16" class="edge"><title>Node10&#45;&gt;Node3</title>
<path fill="none" stroke="midnightblue" d="M404.899,-110.974C414.793,-110.707 424.876,-110.436 434.827,-110.168"/>
<polygon fill="midnightblue" stroke="midnightblue" points="404.574,-107.481 394.671,-111.249 404.762,-114.478 404.574,-107.481"/>
</g>
<!-- Node10&#45;&gt;Node7 -->
<g id="edge17" class="edge"><title>Node10&#45;&gt;Node7</title>
<path fill="none" stroke="midnightblue" d="M392.142,-96.3984C424.698,-89.5367 460.992,-81.8873 488.719,-76.0434"/>
<polygon fill="midnightblue" stroke="midnightblue" points="391.235,-93.0125 382.172,-98.4997 392.679,-99.8621 391.235,-93.0125"/>
</g>
</g>
</svg>
