<?xml version="1.0" encoding="UTF-8" standalone="no"?>
<!DOCTYPE svg PUBLIC "-//W3C//DTD SVG 1.1//EN"
 "http://www.w3.org/Graphics/SVG/1.1/DTD/svg11.dtd">
<!-- Generated by graphviz version 2.38.0 (20140413.2041)
 -->
<!-- Title: memoryoracle.instance.Primitive._track Pages: 1 -->
<svg width="1117pt" height="202pt"
 viewBox="0.00 0.00 1117.00 201.91" xmlns="http://www.w3.org/2000/svg" xmlns:xlink="http://www.w3.org/1999/xlink">
<g id="graph0" class="graph" transform="scale(1 1) rotate(0) translate(4 197.913)">
<title>memoryoracle.instance.Primitive._track</title>
<!-- Node1 -->
<g id="node1" class="node"><title>Node1</title>
<polygon fill="#bfbfbf" stroke="black" points="0,-163.413 0,-193.413 177,-193.413 177,-163.413 0,-163.413"/>
<text text-anchor="start" x="8" y="-181.413" font-family="Helvetica,sans-Serif" font-size="10.00">memoryoracle.instance.Primitive.</text>
<text text-anchor="middle" x="88.5" y="-170.413" font-family="Helvetica,sans-Serif" font-size="10.00">_track</text>
</g>
<!-- Node2 -->
<g id="node2" class="node"><title>Node2</title>
<g id="a_node2"><a xlink:href="classmemoryoracle_1_1instance_1_1Memory.html#a8951ac234fecbd6cd473133ae7e63662" target="_top" xlink:title="memoryoracle.instance.Memory.track">
<polygon fill="none" stroke="black" points="213,-127.913 213,-146.913 410,-146.913 410,-127.913 213,-127.913"/>
<text text-anchor="middle" x="311.5" y="-134.913" font-family="Helvetica,sans-Serif" font-size="10.00">memoryoracle.instance.Memory.track</text>
</a>
</g>
</g>
<!-- Node1&#45;&gt;Node2 -->
<g id="edge1" class="edge"><title>Node1&#45;&gt;Node2</title>
<path fill="none" stroke="midnightblue" d="M180.688,-161.495C207.408,-156.538 235.683,-151.293 258.999,-146.967"/>
<polygon fill="midnightblue" stroke="midnightblue" points="179.731,-158.113 170.537,-163.379 181.008,-164.996 179.731,-158.113"/>
</g>
<!-- Node6 -->
<g id="node6" class="node"><title>Node6</title>
<g id="a_node6"><a xlink:href="classmemoryoracle_1_1models_1_1Typed.html#aa1d5d8d5b7ebe5c2876f363e7eb669db" target="_top" xlink:title="memoryoracle.models.Typed.track">
<polygon fill="none" stroke="black" points="689,-127.913 689,-146.913 871,-146.913 871,-127.913 689,-127.913"/>
<text text-anchor="middle" x="780" y="-134.913" font-family="Helvetica,sans-Serif" font-size="10.00">memoryoracle.models.Typed.track</text>
</a>
</g>
</g>
<!-- Node1&#45;&gt;Node6 -->
<g id="edge12" class="edge"><title>Node1&#45;&gt;Node6</title>
<path fill="none" stroke="midnightblue" d="M187.481,-180.135C300.148,-181.033 490.489,-179.228 653,-161.413 681.555,-158.282 713.326,-152.213 737.821,-146.961"/>
<polygon fill="midnightblue" stroke="midnightblue" points="187.19,-176.632 177.16,-180.044 187.128,-183.632 187.19,-176.632"/>
</g>
<!-- Node3 -->
<g id="node3" class="node"><title>Node3</title>
<g id="a_node3"><a xlink:href="classmemoryoracle_1_1models_1_1Typed.html#a494dfbe205034b874ff9e8c7039f579b" target="_top" xlink:title="memoryoracle.models.Typed.\l__init__">
<polygon fill="none" stroke="black" points="929,-18.4126 929,-48.4126 1087,-48.4126 1087,-18.4126 929,-18.4126"/>
<text text-anchor="start" x="937" y="-36.4126" font-family="Helvetica,sans-Serif" font-size="10.00">memoryoracle.models.Typed.</text>
<text text-anchor="middle" x="1008" y="-25.4126" font-family="Helvetica,sans-Serif" font-size="10.00">__init__</text>
</a>
</g>
</g>
<!-- Node2&#45;&gt;Node3 -->
<g id="edge2" class="edge"><title>Node2&#45;&gt;Node3</title>
<path fill="none" stroke="midnightblue" d="M327.83,-120.304C350.739,-96.1584 396.537,-53.1626 446,-36.4126 610.438,19.272 817.866,-1.13414 928.695,-18.6656"/>
<polygon fill="midnightblue" stroke="midnightblue" points="325.2,-117.992 320.966,-127.704 330.333,-122.752 325.2,-117.992"/>
</g>
<!-- Node4 -->
<g id="node4" class="node"><title>Node4</title>
<g id="a_node4"><a xlink:href="classmemoryoracle_1_1models_1_1Memory.html#aed3af349dd80317ae9cca4b4e9cb7c26" target="_top" xlink:title="memoryoracle.models.Memory.\l__init__">
<polygon fill="none" stroke="black" points="924,-144.413 924,-174.413 1092,-174.413 1092,-144.413 924,-144.413"/>
<text text-anchor="start" x="932" y="-162.413" font-family="Helvetica,sans-Serif" font-size="10.00">memoryoracle.models.Memory.</text>
<text text-anchor="middle" x="1008" y="-151.413" font-family="Helvetica,sans-Serif" font-size="10.00">__init__</text>
</a>
</g>
</g>
<!-- Node2&#45;&gt;Node4 -->
<g id="edge3" class="edge"><title>Node2&#45;&gt;Node4</title>
<path fill="none" stroke="midnightblue" d="M364.468,-148.972C389.049,-153.869 418.891,-158.995 446,-161.413 615.043,-176.487 813.876,-170.113 923.627,-164.506"/>
<polygon fill="midnightblue" stroke="midnightblue" points="365.125,-145.534 354.628,-146.969 363.728,-152.394 365.125,-145.534"/>
</g>
<!-- Node5 -->
<g id="node5" class="node"><title>Node5</title>
<g id="a_node5"><a xlink:href="classmemoryoracle_1_1instance_1_1Int.html#a38c9424341353f006771163d360594da" target="_top" xlink:title="memoryoracle.instance.Int.\l_track">
<polygon fill="none" stroke="black" points="475.5,-122.413 475.5,-152.413 623.5,-152.413 623.5,-122.413 475.5,-122.413"/>
<text text-anchor="start" x="483.5" y="-140.413" font-family="Helvetica,sans-Serif" font-size="10.00">memoryoracle.instance.Int.</text>
<text text-anchor="middle" x="549.5" y="-129.413" font-family="Helvetica,sans-Serif" font-size="10.00">_track</text>
</a>
</g>
</g>
<!-- Node2&#45;&gt;Node5 -->
<g id="edge4" class="edge"><title>Node2&#45;&gt;Node5</title>
<path fill="none" stroke="midnightblue" d="M420.217,-130.685C438.891,-130.602 457.91,-130.746 475.386,-131.117"/>
<polygon fill="midnightblue" stroke="midnightblue" points="420.17,-127.186 410.194,-130.752 420.217,-134.185 420.17,-127.186"/>
</g>
<!-- Node7 -->
<g id="node7" class="node"><title>Node7</title>
<g id="a_node7"><a xlink:href="classmemoryoracle_1_1models_1_1Memory.html#a71d4a141abc3358afdf1a1325bfd4253" target="_top" xlink:title="memoryoracle.models.Memory.update">
<polygon fill="none" stroke="black" points="907,-94.9126 907,-113.913 1109,-113.913 1109,-94.9126 907,-94.9126"/>
<text text-anchor="middle" x="1008" y="-101.913" font-family="Helvetica,sans-Serif" font-size="10.00">memoryoracle.models.Memory.update</text>
</a>
</g>
</g>
<!-- Node2&#45;&gt;Node7 -->
<g id="edge11" class="edge"><title>Node2&#45;&gt;Node7</title>
<path fill="none" stroke="midnightblue" d="M363.342,-125.778C388.131,-120.647 418.47,-115.166 446,-112.413 606.648,-96.3442 794.444,-97.7295 906.889,-100.703"/>
<polygon fill="midnightblue" stroke="midnightblue" points="362.495,-122.379 353.434,-127.87 363.941,-129.228 362.495,-122.379"/>
</g>
<!-- Node8 -->
<g id="node8" class="node"><title>Node8</title>
<g id="a_node8"><a xlink:href="classmemoryoracle_1_1instance_1_1Memory.html#aa937ea1a82dcaa2fa1c868a387d59483" target="_top" xlink:title="memoryoracle.instance.Memory.update">
<polygon fill="none" stroke="black" points="446,-45.9126 446,-64.9126 653,-64.9126 653,-45.9126 446,-45.9126"/>
<text text-anchor="middle" x="549.5" y="-52.9126" font-family="Helvetica,sans-Serif" font-size="10.00">memoryoracle.instance.Memory.update</text>
</a>
</g>
</g>
<!-- Node2&#45;&gt;Node8 -->
<g id="edge10" class="edge"><title>Node2&#45;&gt;Node8</title>
<path fill="none" stroke="midnightblue" d="M340.639,-123.417C367.266,-110.602 408.613,-91.7993 446,-79.4126 463.262,-73.6935 482.59,-68.7945 499.77,-64.9421"/>
<polygon fill="midnightblue" stroke="midnightblue" points="338.994,-120.325 331.53,-127.845 342.054,-126.621 338.994,-120.325"/>
</g>
<!-- Node5&#45;&gt;Node2 -->
<g id="edge5" class="edge"><title>Node5&#45;&gt;Node2</title>
<path fill="none" stroke="midnightblue" d="M465.079,-143.898C447.326,-144.177 428.426,-144.235 410.194,-144.073"/>
<polygon fill="midnightblue" stroke="midnightblue" points="465.453,-147.392 475.386,-143.708 465.324,-140.393 465.453,-147.392"/>
</g>
<!-- Node5&#45;&gt;Node6 -->
<g id="edge6" class="edge"><title>Node5&#45;&gt;Node6</title>
<path fill="none" stroke="midnightblue" d="M633.861,-137.413C651.781,-137.413 670.798,-137.413 688.959,-137.413"/>
<polygon fill="midnightblue" stroke="midnightblue" points="633.742,-133.913 623.742,-137.413 633.742,-140.913 633.742,-133.913"/>
</g>
<!-- Node6&#45;&gt;Node3 -->
<g id="edge7" class="edge"><title>Node6&#45;&gt;Node3</title>
<path fill="none" stroke="midnightblue" d="M811.103,-123.56C853.504,-104.048 930.518,-68.6078 974.289,-48.4657"/>
<polygon fill="midnightblue" stroke="midnightblue" points="809.478,-120.455 801.856,-127.815 812.404,-126.814 809.478,-120.455"/>
</g>
<!-- Node6&#45;&gt;Node4 -->
<g id="edge9" class="edge"><title>Node6&#45;&gt;Node4</title>
<path fill="none" stroke="midnightblue" d="M881.525,-147.198C895.656,-148.574 910.05,-149.975 923.809,-151.314"/>
<polygon fill="midnightblue" stroke="midnightblue" points="881.588,-143.688 871.296,-146.202 880.909,-150.655 881.588,-143.688"/>
</g>
<!-- Node6&#45;&gt;Node7 -->
<g id="edge8" class="edge"><title>Node6&#45;&gt;Node7</title>
<path fill="none" stroke="midnightblue" d="M856.091,-126.448C883.762,-122.408 914.864,-117.866 941.611,-113.961"/>
<polygon fill="midnightblue" stroke="midnightblue" points="855.455,-123.004 846.065,-127.912 856.466,-129.93 855.455,-123.004"/>
</g>
</g>
</svg>
