<?xml version="1.0" encoding="UTF-8" standalone="no"?>
<!DOCTYPE svg PUBLIC "-//W3C//DTD SVG 1.1//EN"
 "http://www.w3.org/Graphics/SVG/1.1/DTD/svg11.dtd">
<!-- Generated by graphviz version 2.38.0 (20140413.2041)
 -->
<!-- Title: memoryoracle.templatable.SimpleType Pages: 1 -->
<svg width="179pt" height="370pt"
 viewBox="0.00 0.00 179.00 370.00" xmlns="http://www.w3.org/2000/svg" xmlns:xlink="http://www.w3.org/1999/xlink">
<g id="graph0" class="graph" transform="scale(1 1) rotate(0) translate(4 366)">
<title>memoryoracle.templatable.SimpleType</title>
<!-- Node1 -->
<g id="node1" class="node"><title>Node1</title>
<polygon fill="#bfbfbf" stroke="black" points="10.5,-0.5 10.5,-68.5 160.5,-68.5 160.5,-0.5 10.5,-0.5"/>
<text text-anchor="start" x="18.5" y="-56.5" font-family="Helvetica,sans-Serif" font-size="10.00">memoryoracle.templatable.</text>
<text text-anchor="middle" x="85.5" y="-45.5" font-family="Helvetica,sans-Serif" font-size="10.00">SimpleType</text>
<polyline fill="none" stroke="black" points="10.5,-38.5 160.5,-38.5 "/>
<text text-anchor="middle" x="85.5" y="-26.5" font-family="Helvetica,sans-Serif" font-size="10.00"> </text>
<polyline fill="none" stroke="black" points="10.5,-19.5 160.5,-19.5 "/>
<text text-anchor="middle" x="85.5" y="-7.5" font-family="Helvetica,sans-Serif" font-size="10.00"> </text>
</g>
<!-- Node2 -->
<g id="node2" class="node"><title>Node2</title>
<g id="a_node2"><a xlink:href="classmemoryoracle_1_1templatable_1_1Type.html" target="_top" xlink:title="{memoryoracle.templatable.Type\n||}">
<polygon fill="none" stroke="black" points="0,-105.5 0,-162.5 171,-162.5 171,-105.5 0,-105.5"/>
<text text-anchor="middle" x="85.5" y="-150.5" font-family="Helvetica,sans-Serif" font-size="10.00">memoryoracle.templatable.Type</text>
<polyline fill="none" stroke="black" points="0,-143.5 171,-143.5 "/>
<text text-anchor="middle" x="85.5" y="-131.5" font-family="Helvetica,sans-Serif" font-size="10.00"> </text>
<polyline fill="none" stroke="black" points="0,-124.5 171,-124.5 "/>
<text text-anchor="middle" x="85.5" y="-112.5" font-family="Helvetica,sans-Serif" font-size="10.00"> </text>
</a>
</g>
</g>
<!-- Node2&#45;&gt;Node1 -->
<g id="edge1" class="edge"><title>Node2&#45;&gt;Node1</title>
<path fill="none" stroke="midnightblue" d="M85.5,-95.0631C85.5,-86.3933 85.5,-77.2431 85.5,-68.7855"/>
<polygon fill="none" stroke="midnightblue" points="82.0001,-95.3212 85.5,-105.321 89.0001,-95.3212 82.0001,-95.3212"/>
</g>
<!-- Node3 -->
<g id="node3" class="node"><title>Node3</title>
<g id="a_node3"><a xlink:href="classmemoryoracle_1_1templatable_1_1Templatable.html" target="_top" xlink:title="{memoryoracle.templatable.\lTemplatable\n||}">
<polygon fill="none" stroke="black" points="10.5,-199.5 10.5,-267.5 160.5,-267.5 160.5,-199.5 10.5,-199.5"/>
<text text-anchor="start" x="18.5" y="-255.5" font-family="Helvetica,sans-Serif" font-size="10.00">memoryoracle.templatable.</text>
<text text-anchor="middle" x="85.5" y="-244.5" font-family="Helvetica,sans-Serif" font-size="10.00">Templatable</text>
<polyline fill="none" stroke="black" points="10.5,-237.5 160.5,-237.5 "/>
<text text-anchor="middle" x="85.5" y="-225.5" font-family="Helvetica,sans-Serif" font-size="10.00"> </text>
<polyline fill="none" stroke="black" points="10.5,-218.5 160.5,-218.5 "/>
<text text-anchor="middle" x="85.5" y="-206.5" font-family="Helvetica,sans-Serif" font-size="10.00"> </text>
</a>
</g>
</g>
<!-- Node3&#45;&gt;Node2 -->
<g id="edge2" class="edge"><title>Node3&#45;&gt;Node2</title>
<path fill="none" stroke="midnightblue" d="M85.5,-189.454C85.5,-180.404 85.5,-171.088 85.5,-162.777"/>
<polygon fill="none" stroke="midnightblue" points="82.0001,-189.491 85.5,-199.491 89.0001,-189.491 82.0001,-189.491"/>
</g>
<!-- Node4 -->
<g id="node4" class="node"><title>Node4</title>
<polygon fill="none" stroke="#bfbfbf" points="38,-304.5 38,-361.5 133,-361.5 133,-304.5 38,-304.5"/>
<text text-anchor="middle" x="85.5" y="-349.5" font-family="Helvetica,sans-Serif" font-size="10.00">tracked::Symbol</text>
<polyline fill="none" stroke="#bfbfbf" points="38,-342.5 133,-342.5 "/>
<text text-anchor="middle" x="85.5" y="-330.5" font-family="Helvetica,sans-Serif" font-size="10.00"> </text>
<polyline fill="none" stroke="#bfbfbf" points="38,-323.5 133,-323.5 "/>
<text text-anchor="middle" x="85.5" y="-311.5" font-family="Helvetica,sans-Serif" font-size="10.00"> </text>
</g>
<!-- Node4&#45;&gt;Node3 -->
<g id="edge3" class="edge"><title>Node4&#45;&gt;Node3</title>
<path fill="none" stroke="midnightblue" d="M85.5,-294.063C85.5,-285.393 85.5,-276.243 85.5,-267.786"/>
<polygon fill="none" stroke="midnightblue" points="82.0001,-294.321 85.5,-304.321 89.0001,-294.321 82.0001,-294.321"/>
</g>
</g>
</svg>
