<?xml version="1.0" encoding="UTF-8" standalone="no"?>
<!DOCTYPE svg PUBLIC "-//W3C//DTD SVG 1.1//EN"
 "http://www.w3.org/Graphics/SVG/1.1/DTD/svg11.dtd">
<!-- Generated by graphviz version 2.38.0 (20140413.2041)
 -->
<!-- Title: memoryoracle.templatable.Type Pages: 1 -->
<svg width="690pt" height="475pt"
 viewBox="0.00 0.00 690.00 475.00" xmlns="http://www.w3.org/2000/svg" xmlns:xlink="http://www.w3.org/1999/xlink">
<g id="graph0" class="graph" transform="scale(1 1) rotate(0) translate(4 471)">
<title>memoryoracle.templatable.Type</title>
<!-- Node1 -->
<g id="node1" class="node"><title>Node1</title>
<polygon fill="#bfbfbf" stroke="black" points="269.5,-210.5 269.5,-267.5 440.5,-267.5 440.5,-210.5 269.5,-210.5"/>
<text text-anchor="middle" x="355" y="-255.5" font-family="Helvetica,sans-Serif" font-size="10.00">memoryoracle.templatable.Type</text>
<polyline fill="none" stroke="black" points="269.5,-248.5 440.5,-248.5 "/>
<text text-anchor="middle" x="355" y="-236.5" font-family="Helvetica,sans-Serif" font-size="10.00"> </text>
<polyline fill="none" stroke="black" points="269.5,-229.5 440.5,-229.5 "/>
<text text-anchor="middle" x="355" y="-217.5" font-family="Helvetica,sans-Serif" font-size="10.00"> </text>
</g>
<!-- Node4 -->
<g id="node4" class="node"><title>Node4</title>
<g id="a_node4"><a xlink:href="classmemoryoracle_1_1templatable_1_1Enum.html" target="_top" xlink:title="{memoryoracle.templatable.Enum\n||}">
<polygon fill="none" stroke="black" points="0,-111 0,-168 178,-168 178,-111 0,-111"/>
<text text-anchor="middle" x="89" y="-156" font-family="Helvetica,sans-Serif" font-size="10.00">memoryoracle.templatable.Enum</text>
<polyline fill="none" stroke="black" points="0,-149 178,-149 "/>
<text text-anchor="middle" x="89" y="-137" font-family="Helvetica,sans-Serif" font-size="10.00"> </text>
<polyline fill="none" stroke="black" points="0,-130 178,-130 "/>
<text text-anchor="middle" x="89" y="-118" font-family="Helvetica,sans-Serif" font-size="10.00"> </text>
</a>
</g>
</g>
<!-- Node1&#45;&gt;Node4 -->
<g id="edge3" class="edge"><title>Node1&#45;&gt;Node4</title>
<path fill="none" stroke="midnightblue" d="M270.386,-206.986C236.371,-194.518 197.467,-180.258 164.434,-168.15"/>
<polygon fill="none" stroke="midnightblue" points="269.248,-210.296 279.842,-210.451 271.657,-203.724 269.248,-210.296"/>
</g>
<!-- Node5 -->
<g id="node5" class="node"><title>Node5</title>
<g id="a_node5"><a xlink:href="classmemoryoracle_1_1templatable_1_1SimpleType.html" target="_top" xlink:title="{memoryoracle.templatable.\lSimpleType\n||}">
<polygon fill="none" stroke="black" points="196,-105.5 196,-173.5 346,-173.5 346,-105.5 196,-105.5"/>
<text text-anchor="start" x="204" y="-161.5" font-family="Helvetica,sans-Serif" font-size="10.00">memoryoracle.templatable.</text>
<text text-anchor="middle" x="271" y="-150.5" font-family="Helvetica,sans-Serif" font-size="10.00">SimpleType</text>
<polyline fill="none" stroke="black" points="196,-143.5 346,-143.5 "/>
<text text-anchor="middle" x="271" y="-131.5" font-family="Helvetica,sans-Serif" font-size="10.00"> </text>
<polyline fill="none" stroke="black" points="196,-124.5 346,-124.5 "/>
<text text-anchor="middle" x="271" y="-112.5" font-family="Helvetica,sans-Serif" font-size="10.00"> </text>
</a>
</g>
</g>
<!-- Node1&#45;&gt;Node5 -->
<g id="edge4" class="edge"><title>Node1&#45;&gt;Node5</title>
<path fill="none" stroke="midnightblue" d="M324.519,-202.62C316.412,-193.21 307.684,-183.08 299.677,-173.786"/>
<polygon fill="none" stroke="midnightblue" points="321.975,-205.03 331.154,-210.321 327.278,-200.461 321.975,-205.03"/>
</g>
<!-- Node6 -->
<g id="node6" class="node"><title>Node6</title>
<g id="a_node6"><a xlink:href="classmemoryoracle_1_1templatable_1_1Structure.html" target="_top" xlink:title="{memoryoracle.templatable.\lStructure\n||}">
<polygon fill="none" stroke="black" points="364,-105.5 364,-173.5 514,-173.5 514,-105.5 364,-105.5"/>
<text text-anchor="start" x="372" y="-161.5" font-family="Helvetica,sans-Serif" font-size="10.00">memoryoracle.templatable.</text>
<text text-anchor="middle" x="439" y="-150.5" font-family="Helvetica,sans-Serif" font-size="10.00">Structure</text>
<polyline fill="none" stroke="black" points="364,-143.5 514,-143.5 "/>
<text text-anchor="middle" x="439" y="-131.5" font-family="Helvetica,sans-Serif" font-size="10.00"> </text>
<polyline fill="none" stroke="black" points="364,-124.5 514,-124.5 "/>
<text text-anchor="middle" x="439" y="-112.5" font-family="Helvetica,sans-Serif" font-size="10.00"> </text>
</a>
</g>
</g>
<!-- Node1&#45;&gt;Node6 -->
<g id="edge5" class="edge"><title>Node1&#45;&gt;Node6</title>
<path fill="none" stroke="midnightblue" d="M385.481,-202.62C393.588,-193.21 402.316,-183.08 410.323,-173.786"/>
<polygon fill="none" stroke="midnightblue" points="382.722,-200.461 378.846,-210.321 388.025,-205.03 382.722,-200.461"/>
</g>
<!-- Node8 -->
<g id="node8" class="node"><title>Node8</title>
<g id="a_node8"><a xlink:href="classmemoryoracle_1_1templatable_1_1Union.html" target="_top" xlink:title="{memoryoracle.templatable.\lUnion\n||}">
<polygon fill="none" stroke="black" points="532,-105.5 532,-173.5 682,-173.5 682,-105.5 532,-105.5"/>
<text text-anchor="start" x="540" y="-161.5" font-family="Helvetica,sans-Serif" font-size="10.00">memoryoracle.templatable.</text>
<text text-anchor="middle" x="607" y="-150.5" font-family="Helvetica,sans-Serif" font-size="10.00">Union</text>
<polyline fill="none" stroke="black" points="532,-143.5 682,-143.5 "/>
<text text-anchor="middle" x="607" y="-131.5" font-family="Helvetica,sans-Serif" font-size="10.00"> </text>
<polyline fill="none" stroke="black" points="532,-124.5 682,-124.5 "/>
<text text-anchor="middle" x="607" y="-112.5" font-family="Helvetica,sans-Serif" font-size="10.00"> </text>
</a>
</g>
</g>
<!-- Node1&#45;&gt;Node8 -->
<g id="edge7" class="edge"><title>Node1&#45;&gt;Node8</title>
<path fill="none" stroke="midnightblue" d="M437.756,-206.766C464.946,-196.425 495.296,-184.8 523,-174 525.926,-172.859 528.907,-171.693 531.917,-170.511"/>
<polygon fill="none" stroke="midnightblue" points="436.384,-203.543 428.279,-210.366 438.87,-210.086 436.384,-203.543"/>
</g>
<!-- Node2 -->
<g id="node2" class="node"><title>Node2</title>
<g id="a_node2"><a xlink:href="classmemoryoracle_1_1templatable_1_1Templatable.html" target="_top" xlink:title="{memoryoracle.templatable.\lTemplatable\n||}">
<polygon fill="none" stroke="black" points="280,-304.5 280,-372.5 430,-372.5 430,-304.5 280,-304.5"/>
<text text-anchor="start" x="288" y="-360.5" font-family="Helvetica,sans-Serif" font-size="10.00">memoryoracle.templatable.</text>
<text text-anchor="middle" x="355" y="-349.5" font-family="Helvetica,sans-Serif" font-size="10.00">Templatable</text>
<polyline fill="none" stroke="black" points="280,-342.5 430,-342.5 "/>
<text text-anchor="middle" x="355" y="-330.5" font-family="Helvetica,sans-Serif" font-size="10.00"> </text>
<polyline fill="none" stroke="black" points="280,-323.5 430,-323.5 "/>
<text text-anchor="middle" x="355" y="-311.5" font-family="Helvetica,sans-Serif" font-size="10.00"> </text>
</a>
</g>
</g>
<!-- Node2&#45;&gt;Node1 -->
<g id="edge1" class="edge"><title>Node2&#45;&gt;Node1</title>
<path fill="none" stroke="midnightblue" d="M355,-294.454C355,-285.404 355,-276.088 355,-267.777"/>
<polygon fill="none" stroke="midnightblue" points="351.5,-294.491 355,-304.491 358.5,-294.491 351.5,-294.491"/>
</g>
<!-- Node3 -->
<g id="node3" class="node"><title>Node3</title>
<polygon fill="none" stroke="#bfbfbf" points="307.5,-409.5 307.5,-466.5 402.5,-466.5 402.5,-409.5 307.5,-409.5"/>
<text text-anchor="middle" x="355" y="-454.5" font-family="Helvetica,sans-Serif" font-size="10.00">tracked::Symbol</text>
<polyline fill="none" stroke="#bfbfbf" points="307.5,-447.5 402.5,-447.5 "/>
<text text-anchor="middle" x="355" y="-435.5" font-family="Helvetica,sans-Serif" font-size="10.00"> </text>
<polyline fill="none" stroke="#bfbfbf" points="307.5,-428.5 402.5,-428.5 "/>
<text text-anchor="middle" x="355" y="-416.5" font-family="Helvetica,sans-Serif" font-size="10.00"> </text>
</g>
<!-- Node3&#45;&gt;Node2 -->
<g id="edge2" class="edge"><title>Node3&#45;&gt;Node2</title>
<path fill="none" stroke="midnightblue" d="M355,-399.063C355,-390.393 355,-381.243 355,-372.786"/>
<polygon fill="none" stroke="midnightblue" points="351.5,-399.321 355,-409.321 358.5,-399.321 351.5,-399.321"/>
</g>
<!-- Node7 -->
<g id="node7" class="node"><title>Node7</title>
<g id="a_node7"><a xlink:href="classmemoryoracle_1_1templatable_1_1StronglyTypedEnum.html" target="_top" xlink:title="{memoryoracle.templatable.\lStronglyTypedEnum\n||}">
<polygon fill="none" stroke="black" points="364,-0.5 364,-68.5 514,-68.5 514,-0.5 364,-0.5"/>
<text text-anchor="start" x="372" y="-56.5" font-family="Helvetica,sans-Serif" font-size="10.00">memoryoracle.templatable.</text>
<text text-anchor="middle" x="439" y="-45.5" font-family="Helvetica,sans-Serif" font-size="10.00">StronglyTypedEnum</text>
<polyline fill="none" stroke="black" points="364,-38.5 514,-38.5 "/>
<text text-anchor="middle" x="439" y="-26.5" font-family="Helvetica,sans-Serif" font-size="10.00"> </text>
<polyline fill="none" stroke="black" points="364,-19.5 514,-19.5 "/>
<text text-anchor="middle" x="439" y="-7.5" font-family="Helvetica,sans-Serif" font-size="10.00"> </text>
</a>
</g>
</g>
<!-- Node6&#45;&gt;Node7 -->
<g id="edge6" class="edge"><title>Node6&#45;&gt;Node7</title>
<path fill="none" stroke="midnightblue" d="M439,-95.1362C439,-86.256 439,-77.0447 439,-68.5947"/>
<polygon fill="none" stroke="midnightblue" points="435.5,-95.3432 439,-105.343 442.5,-95.3432 435.5,-95.3432"/>
</g>
</g>
</svg>
