<?xml version="1.0" encoding="UTF-8" standalone="no"?>
<!DOCTYPE svg PUBLIC "-//W3C//DTD SVG 1.1//EN"
 "http://www.w3.org/Graphics/SVG/1.1/DTD/svg11.dtd">
<!-- Generated by graphviz version 2.38.0 (20140413.2041)
 -->
<!-- Title: memoryoracle.instance.Instance Pages: 1 -->
<svg width="181pt" height="513pt"
 viewBox="0.00 0.00 181.00 513.00" xmlns="http://www.w3.org/2000/svg" xmlns:xlink="http://www.w3.org/1999/xlink">
<g id="graph0" class="graph" transform="scale(1 1) rotate(0) translate(4 509)">
<title>memoryoracle.instance.Instance</title>
<!-- Node1 -->
<g id="node1" class="node"><title>Node1</title>
<polygon fill="#bfbfbf" stroke="black" points="0,-0.5 0,-200.5 173,-200.5 173,-0.5 0,-0.5"/>
<text text-anchor="middle" x="86.5" y="-188.5" font-family="Helvetica,sans-Serif" font-size="10.00">memoryoracle.instance.Instance</text>
<polyline fill="none" stroke="black" points="0,-181.5 173,-181.5 "/>
<text text-anchor="start" x="8" y="-169.5" font-family="Helvetica,sans-Serif" font-size="10.00">+ address</text>
<text text-anchor="start" x="8" y="-158.5" font-family="Helvetica,sans-Serif" font-size="10.00">+ name</text>
<text text-anchor="start" x="8" y="-147.5" font-family="Helvetica,sans-Serif" font-size="10.00">+ description</text>
<text text-anchor="start" x="8" y="-136.5" font-family="Helvetica,sans-Serif" font-size="10.00">+ type</text>
<text text-anchor="start" x="8" y="-125.5" font-family="Helvetica,sans-Serif" font-size="10.00">+ parent_class</text>
<text text-anchor="start" x="8" y="-114.5" font-family="Helvetica,sans-Serif" font-size="10.00">+ meta</text>
<text text-anchor="start" x="8" y="-103.5" font-family="Helvetica,sans-Serif" font-size="10.00">&#45; _addressFixer</text>
<text text-anchor="start" x="8" y="-92.5" font-family="Helvetica,sans-Serif" font-size="10.00">&#45; _updatedNames</text>
<text text-anchor="start" x="8" y="-81.5" font-family="Helvetica,sans-Serif" font-size="10.00">&#45; _watchers</text>
<polyline fill="none" stroke="black" points="0,-74.5 173,-74.5 "/>
<text text-anchor="start" x="8" y="-62.5" font-family="Helvetica,sans-Serif" font-size="10.00">+ index()</text>
<text text-anchor="start" x="8" y="-51.5" font-family="Helvetica,sans-Serif" font-size="10.00">+ track()</text>
<text text-anchor="start" x="8" y="-40.5" font-family="Helvetica,sans-Serif" font-size="10.00">+ update()</text>
<text text-anchor="start" x="8" y="-29.5" font-family="Helvetica,sans-Serif" font-size="10.00">+ watchers()</text>
<text text-anchor="start" x="8" y="-18.5" font-family="Helvetica,sans-Serif" font-size="10.00">&#45; _basic_track()</text>
<text text-anchor="start" x="8" y="-7.5" font-family="Helvetica,sans-Serif" font-size="10.00">&#45; _clear_updated()</text>
</g>
<!-- Node2 -->
<g id="node2" class="node"><title>Node2</title>
<g id="a_node2"><a xlink:href="classmemoryoracle_1_1typed_1_1Typed.html" target="_top" xlink:title="{memoryoracle.typed.Typed\n|&#45; _type\l&#45; _typeHandlerCode\l|+ type()\l+ type_code()\l}">
<polygon fill="none" stroke="black" points="13.5,-237.5 13.5,-316.5 159.5,-316.5 159.5,-237.5 13.5,-237.5"/>
<text text-anchor="middle" x="86.5" y="-304.5" font-family="Helvetica,sans-Serif" font-size="10.00">memoryoracle.typed.Typed</text>
<polyline fill="none" stroke="black" points="13.5,-297.5 159.5,-297.5 "/>
<text text-anchor="start" x="21.5" y="-285.5" font-family="Helvetica,sans-Serif" font-size="10.00">&#45; _type</text>
<text text-anchor="start" x="21.5" y="-274.5" font-family="Helvetica,sans-Serif" font-size="10.00">&#45; _typeHandlerCode</text>
<polyline fill="none" stroke="black" points="13.5,-267.5 159.5,-267.5 "/>
<text text-anchor="start" x="21.5" y="-255.5" font-family="Helvetica,sans-Serif" font-size="10.00">+ type()</text>
<text text-anchor="start" x="21.5" y="-244.5" font-family="Helvetica,sans-Serif" font-size="10.00">+ type_code()</text>
</a>
</g>
</g>
<!-- Node2&#45;&gt;Node1 -->
<g id="edge1" class="edge"><title>Node2&#45;&gt;Node1</title>
<path fill="none" stroke="midnightblue" d="M86.5,-227.064C86.5,-218.735 86.5,-209.825 86.5,-200.738"/>
<polygon fill="none" stroke="midnightblue" points="83.0001,-227.273 86.5,-237.273 90.0001,-227.273 83.0001,-227.273"/>
</g>
<!-- Node3 -->
<g id="node3" class="node"><title>Node3</title>
<g id="a_node3"><a xlink:href="classmemoryoracle_1_1tracked_1_1Tracked.html" target="_top" xlink:title="{memoryoracle.tracked.Tracked\n|+ execution\l|+ track()\l}">
<polygon fill="none" stroke="black" points="4.5,-353.5 4.5,-410.5 168.5,-410.5 168.5,-353.5 4.5,-353.5"/>
<text text-anchor="middle" x="86.5" y="-398.5" font-family="Helvetica,sans-Serif" font-size="10.00">memoryoracle.tracked.Tracked</text>
<polyline fill="none" stroke="black" points="4.5,-391.5 168.5,-391.5 "/>
<text text-anchor="start" x="12.5" y="-379.5" font-family="Helvetica,sans-Serif" font-size="10.00">+ execution</text>
<polyline fill="none" stroke="black" points="4.5,-372.5 168.5,-372.5 "/>
<text text-anchor="start" x="12.5" y="-360.5" font-family="Helvetica,sans-Serif" font-size="10.00">+ track()</text>
</a>
</g>
</g>
<!-- Node3&#45;&gt;Node2 -->
<g id="edge2" class="edge"><title>Node3&#45;&gt;Node2</title>
<path fill="none" stroke="midnightblue" d="M86.5,-343.156C86.5,-334.473 86.5,-325.232 86.5,-316.52"/>
<polygon fill="none" stroke="midnightblue" points="83.0001,-343.398 86.5,-353.398 90.0001,-343.398 83.0001,-343.398"/>
</g>
<!-- Node4 -->
<g id="node4" class="node"><title>Node4</title>
<polygon fill="none" stroke="#bfbfbf" points="27,-447.5 27,-504.5 146,-504.5 146,-447.5 27,-447.5"/>
<text text-anchor="middle" x="86.5" y="-492.5" font-family="Helvetica,sans-Serif" font-size="10.00">EmbeddedDocument</text>
<polyline fill="none" stroke="#bfbfbf" points="27,-485.5 146,-485.5 "/>
<text text-anchor="middle" x="86.5" y="-473.5" font-family="Helvetica,sans-Serif" font-size="10.00"> </text>
<polyline fill="none" stroke="#bfbfbf" points="27,-466.5 146,-466.5 "/>
<text text-anchor="middle" x="86.5" y="-454.5" font-family="Helvetica,sans-Serif" font-size="10.00"> </text>
</g>
<!-- Node4&#45;&gt;Node3 -->
<g id="edge3" class="edge"><title>Node4&#45;&gt;Node3</title>
<path fill="none" stroke="midnightblue" d="M86.5,-437.209C86.5,-428.293 86.5,-418.951 86.5,-410.584"/>
<polygon fill="none" stroke="midnightblue" points="83.0001,-437.397 86.5,-447.397 90.0001,-437.397 83.0001,-437.397"/>
</g>
</g>
</svg>
