<?xml version="1.0" encoding="UTF-8" standalone="no"?>
<!DOCTYPE svg PUBLIC "-//W3C//DTD SVG 1.1//EN"
 "http://www.w3.org/Graphics/SVG/1.1/DTD/svg11.dtd">
<!-- Generated by graphviz version 2.38.0 (20140413.2041)
 -->
<!-- Title: memoryoracle.descriptions.AddressableDescription.object Pages: 1 -->
<svg width="1049pt" height="146pt"
 viewBox="0.00 0.00 1049.00 145.50" xmlns="http://www.w3.org/2000/svg" xmlns:xlink="http://www.w3.org/1999/xlink">
<g id="graph0" class="graph" transform="scale(1 1) rotate(0) translate(4 141.5)">
<title>memoryoracle.descriptions.AddressableDescription.object</title>
<!-- Node1 -->
<g id="node1" class="node"><title>Node1</title>
<polygon fill="#bfbfbf" stroke="black" points="0,-49.5 0,-79.5 162,-79.5 162,-49.5 0,-49.5"/>
<text text-anchor="start" x="8" y="-67.5" font-family="Helvetica,sans-Serif" font-size="10.00">memoryoracle.descriptions.</text>
<text text-anchor="middle" x="81" y="-56.5" font-family="Helvetica,sans-Serif" font-size="10.00">AddressableDescription.object</text>
</g>
<!-- Node2 -->
<g id="node2" class="node"><title>Node2</title>
<g id="a_node2"><a xlink:href="classmemoryoracle_1_1instance_1_1Int.html#a450a73bc8aaf1a7ac5f18c3ed1a933fc" target="_top" xlink:title="memoryoracle.instance.Int.\l_find_hidden_type">
<polygon fill="none" stroke="black" points="198,-95.5 198,-125.5 346,-125.5 346,-95.5 198,-95.5"/>
<text text-anchor="start" x="206" y="-113.5" font-family="Helvetica,sans-Serif" font-size="10.00">memoryoracle.instance.Int.</text>
<text text-anchor="middle" x="272" y="-102.5" font-family="Helvetica,sans-Serif" font-size="10.00">_find_hidden_type</text>
</a>
</g>
</g>
<!-- Node1&#45;&gt;Node2 -->
<g id="edge1" class="edge"><title>Node1&#45;&gt;Node2</title>
<path fill="none" stroke="midnightblue" d="M153.633,-81.9345C171.964,-86.3959 191.515,-91.1546 209.298,-95.4826"/>
<polygon fill="midnightblue" stroke="midnightblue" points="154.43,-78.5263 143.886,-79.5621 152.774,-85.3278 154.43,-78.5263"/>
</g>
<!-- Node9 -->
<g id="node9" class="node"><title>Node9</title>
<g id="a_node9"><a xlink:href="classmemoryoracle_1_1instance_1_1Array.html#a1d8c3993d8a52bfbec8240d6f79b3ce1" target="_top" xlink:title="memoryoracle.instance.Array.\l_track">
<polygon fill="none" stroke="black" points="390.5,-49.5 390.5,-79.5 550.5,-79.5 550.5,-49.5 390.5,-49.5"/>
<text text-anchor="start" x="398.5" y="-67.5" font-family="Helvetica,sans-Serif" font-size="10.00">memoryoracle.instance.Array.</text>
<text text-anchor="middle" x="470.5" y="-56.5" font-family="Helvetica,sans-Serif" font-size="10.00">_track</text>
</a>
</g>
</g>
<!-- Node1&#45;&gt;Node9 -->
<g id="edge10" class="edge"><title>Node1&#45;&gt;Node9</title>
<path fill="none" stroke="midnightblue" d="M172.68,-64.5C238.668,-64.5 327.156,-64.5 390.308,-64.5"/>
<polygon fill="midnightblue" stroke="midnightblue" points="172.29,-61.0001 162.29,-64.5 172.29,-68.0001 172.29,-61.0001"/>
</g>
<!-- Node10 -->
<g id="node10" class="node"><title>Node10</title>
<g id="a_node10"><a xlink:href="classmemoryoracle_1_1instance_1_1Primitive.html#a68562bda9732e33fe32188597e2f4b91" target="_top" xlink:title="memoryoracle.instance.Primitive.\l_track">
<polygon fill="none" stroke="black" points="382,-0.5 382,-30.5 559,-30.5 559,-0.5 382,-0.5"/>
<text text-anchor="start" x="390" y="-18.5" font-family="Helvetica,sans-Serif" font-size="10.00">memoryoracle.instance.Primitive.</text>
<text text-anchor="middle" x="470.5" y="-7.5" font-family="Helvetica,sans-Serif" font-size="10.00">_track</text>
</a>
</g>
</g>
<!-- Node1&#45;&gt;Node10 -->
<g id="edge13" class="edge"><title>Node1&#45;&gt;Node10</title>
<path fill="none" stroke="midnightblue" d="M172.242,-53.0888C235.397,-45.1027 319.324,-34.49 381.892,-26.5782"/>
<polygon fill="midnightblue" stroke="midnightblue" points="171.772,-49.6202 162.29,-54.3472 172.65,-56.5649 171.772,-49.6202"/>
</g>
<!-- Node3 -->
<g id="node3" class="node"><title>Node3</title>
<g id="a_node3"><a xlink:href="classmemoryoracle_1_1instance_1_1Int.html#a38c9424341353f006771163d360594da" target="_top" xlink:title="memoryoracle.instance.Int.\l_track">
<polygon fill="none" stroke="black" points="396.5,-98.5 396.5,-128.5 544.5,-128.5 544.5,-98.5 396.5,-98.5"/>
<text text-anchor="start" x="404.5" y="-116.5" font-family="Helvetica,sans-Serif" font-size="10.00">memoryoracle.instance.Int.</text>
<text text-anchor="middle" x="470.5" y="-105.5" font-family="Helvetica,sans-Serif" font-size="10.00">_track</text>
</a>
</g>
</g>
<!-- Node2&#45;&gt;Node3 -->
<g id="edge2" class="edge"><title>Node2&#45;&gt;Node3</title>
<path fill="none" stroke="midnightblue" d="M356.25,-111.771C369.549,-111.974 383.225,-112.183 396.27,-112.382"/>
<polygon fill="midnightblue" stroke="midnightblue" points="356.222,-108.27 346.169,-111.617 356.115,-115.269 356.222,-108.27"/>
</g>
<!-- Node4 -->
<g id="node4" class="node"><title>Node4</title>
<g id="a_node4"><a xlink:href="classmemoryoracle_1_1instance_1_1Instance.html#a86649e01ee4f562debdba5421a334f78" target="_top" xlink:title="memoryoracle.instance.Instance.track">
<polygon fill="none" stroke="black" points="595,-74 595,-93 795,-93 795,-74 595,-74"/>
<text text-anchor="middle" x="695" y="-81" font-family="Helvetica,sans-Serif" font-size="10.00">memoryoracle.instance.Instance.track</text>
</a>
</g>
</g>
<!-- Node3&#45;&gt;Node4 -->
<g id="edge3" class="edge"><title>Node3&#45;&gt;Node4</title>
<path fill="none" stroke="midnightblue" d="M554.595,-102.296C577.245,-99.2422 601.561,-95.9636 623.442,-93.0134"/>
<polygon fill="midnightblue" stroke="midnightblue" points="554.106,-98.8304 544.663,-103.635 555.041,-105.768 554.106,-98.8304"/>
</g>
<!-- Node8 -->
<g id="node8" class="node"><title>Node8</title>
<g id="a_node8"><a xlink:href="classmemoryoracle_1_1models_1_1Memory.html#a27f8d94aeb19f8101c29a673c7bae4a1" target="_top" xlink:title="memoryoracle.models.Memory.track">
<polygon fill="none" stroke="black" points="599,-36 599,-55 791,-55 791,-36 599,-36"/>
<text text-anchor="middle" x="695" y="-43" font-family="Helvetica,sans-Serif" font-size="10.00">memoryoracle.models.Memory.track</text>
</a>
</g>
</g>
<!-- Node3&#45;&gt;Node8 -->
<g id="edge7" class="edge"><title>Node3&#45;&gt;Node8</title>
<path fill="none" stroke="midnightblue" d="M543.319,-94.9632C548.699,-92.9746 553.981,-90.821 559,-88.5 576.454,-80.4287 577.206,-71.7897 595,-64.5 604.474,-60.6188 614.788,-57.5193 625.063,-55.0469"/>
<polygon fill="midnightblue" stroke="midnightblue" points="541.856,-91.7668 533.567,-98.3652 544.162,-98.3762 541.856,-91.7668"/>
</g>
<!-- Node5 -->
<g id="node5" class="node"><title>Node5</title>
<g id="a_node5"><a xlink:href="classmemoryoracle_1_1instance_1_1Instance.html#a286e015a030541a0704994172024f034" target="_top" xlink:title="memoryoracle.instance.Instance.update">
<polygon fill="none" stroke="black" points="831,-118 831,-137 1041,-137 1041,-118 831,-118"/>
<text text-anchor="middle" x="936" y="-125" font-family="Helvetica,sans-Serif" font-size="10.00">memoryoracle.instance.Instance.update</text>
</a>
</g>
</g>
<!-- Node4&#45;&gt;Node5 -->
<g id="edge4" class="edge"><title>Node4&#45;&gt;Node5</title>
<path fill="none" stroke="midnightblue" d="M758.014,-94.9168C796.907,-102.077 846.465,-111.201 883.242,-117.971"/>
<polygon fill="midnightblue" stroke="midnightblue" points="758.328,-91.4158 747.859,-93.0473 757.06,-98.3002 758.328,-91.4158"/>
</g>
<!-- Node6 -->
<g id="node6" class="node"><title>Node6</title>
<g id="a_node6"><a xlink:href="classmemoryoracle_1_1models_1_1Memory.html#a71d4a141abc3358afdf1a1325bfd4253" target="_top" xlink:title="memoryoracle.models.Memory.update">
<polygon fill="none" stroke="black" points="835,-30 835,-49 1037,-49 1037,-30 835,-30"/>
<text text-anchor="middle" x="936" y="-37" font-family="Helvetica,sans-Serif" font-size="10.00">memoryoracle.models.Memory.update</text>
</a>
</g>
</g>
<!-- Node4&#45;&gt;Node6 -->
<g id="edge5" class="edge"><title>Node4&#45;&gt;Node6</title>
<path fill="none" stroke="midnightblue" d="M757.292,-72.1174C780.393,-67.8357 806.903,-62.9323 831,-58.5 847.788,-55.412 866.104,-52.0602 882.621,-49.0437"/>
<polygon fill="midnightblue" stroke="midnightblue" points="756.473,-68.7094 747.279,-73.9738 757.749,-75.5921 756.473,-68.7094"/>
</g>
<!-- Node7 -->
<g id="node7" class="node"><title>Node7</title>
<g id="a_node7"><a xlink:href="classmemoryoracle_1_1models_1_1Memory.html#aed3af349dd80317ae9cca4b4e9cb7c26" target="_top" xlink:title="memoryoracle.models.Memory.\l__init__">
<polygon fill="none" stroke="black" points="852,-68.5 852,-98.5 1020,-98.5 1020,-68.5 852,-68.5"/>
<text text-anchor="start" x="860" y="-86.5" font-family="Helvetica,sans-Serif" font-size="10.00">memoryoracle.models.Memory.</text>
<text text-anchor="middle" x="936" y="-75.5" font-family="Helvetica,sans-Serif" font-size="10.00">__init__</text>
</a>
</g>
</g>
<!-- Node4&#45;&gt;Node7 -->
<g id="edge6" class="edge"><title>Node4&#45;&gt;Node7</title>
<path fill="none" stroke="midnightblue" d="M805.5,-83.5C821.117,-83.5 836.964,-83.5 851.964,-83.5"/>
<polygon fill="midnightblue" stroke="midnightblue" points="805.281,-80.0001 795.281,-83.5 805.281,-87.0001 805.281,-80.0001"/>
</g>
<!-- Node8&#45;&gt;Node6 -->
<g id="edge8" class="edge"><title>Node8&#45;&gt;Node6</title>
<path fill="none" stroke="midnightblue" d="M801.283,-42.8569C812.385,-42.5782 823.652,-42.2953 834.695,-42.0181"/>
<polygon fill="midnightblue" stroke="midnightblue" points="801.055,-39.3614 791.146,-43.1114 801.231,-46.3592 801.055,-39.3614"/>
</g>
<!-- Node8&#45;&gt;Node7 -->
<g id="edge9" class="edge"><title>Node8&#45;&gt;Node7</title>
<path fill="none" stroke="midnightblue" d="M766.097,-56.6452C792.995,-60.9218 823.946,-65.8429 851.945,-70.2947"/>
<polygon fill="midnightblue" stroke="midnightblue" points="766.427,-53.1537 756.001,-55.04 765.328,-60.0669 766.427,-53.1537"/>
</g>
<!-- Node9&#45;&gt;Node4 -->
<g id="edge11" class="edge"><title>Node9&#45;&gt;Node4</title>
<path fill="none" stroke="midnightblue" d="M560.787,-72.1245C572.02,-73.0838 583.565,-74.0696 594.938,-75.0408"/>
<polygon fill="midnightblue" stroke="midnightblue" points="560.833,-68.6158 550.572,-71.2522 560.238,-75.5904 560.833,-68.6158"/>
</g>
<!-- Node9&#45;&gt;Node8 -->
<g id="edge12" class="edge"><title>Node9&#45;&gt;Node8</title>
<path fill="none" stroke="midnightblue" d="M560.563,-56.8947C573.142,-55.8205 586.116,-54.7126 598.805,-53.629"/>
<polygon fill="midnightblue" stroke="midnightblue" points="560.238,-53.4096 550.572,-57.7478 560.833,-60.3842 560.238,-53.4096"/>
</g>
<!-- Node10&#45;&gt;Node4 -->
<g id="edge14" class="edge"><title>Node10&#45;&gt;Node4</title>
<path fill="none" stroke="midnightblue" d="M546.168,-34.0984C550.566,-35.7725 554.875,-37.5715 559,-39.5 576.646,-47.7503 577.045,-56.9448 595,-64.5 604.275,-68.403 614.379,-71.5113 624.47,-73.9849"/>
<polygon fill="midnightblue" stroke="midnightblue" points="547.025,-30.6886 536.431,-30.6311 544.677,-37.283 547.025,-30.6886"/>
</g>
<!-- Node10&#45;&gt;Node8 -->
<g id="edge15" class="edge"><title>Node10&#45;&gt;Node8</title>
<path fill="none" stroke="midnightblue" d="M569.17,-28.669C587.377,-31.1239 606.077,-33.6452 623.279,-35.9646"/>
<polygon fill="midnightblue" stroke="midnightblue" points="569.497,-25.1814 559.118,-27.3137 568.561,-32.1187 569.497,-25.1814"/>
</g>
</g>
</svg>
