<?xml version="1.0" encoding="UTF-8" standalone="no"?>
<!DOCTYPE svg PUBLIC "-//W3C//DTD SVG 1.1//EN"
 "http://www.w3.org/Graphics/SVG/1.1/DTD/svg11.dtd">
<!-- Generated by graphviz version 2.38.0 (20140413.2041)
 -->
<!-- Title: memoryoracle.descriptions.FileDescription Pages: 1 -->
<svg width="326pt" height="425pt"
 viewBox="0.00 0.00 326.00 425.00" xmlns="http://www.w3.org/2000/svg" xmlns:xlink="http://www.w3.org/1999/xlink">
<g id="graph0" class="graph" transform="scale(1 1) rotate(0) translate(4 421)">
<title>memoryoracle.descriptions.FileDescription</title>
<!-- Node1 -->
<g id="node1" class="node"><title>Node1</title>
<polygon fill="#bfbfbf" stroke="black" points="84,-105.5 84,-173.5 234,-173.5 234,-105.5 84,-105.5"/>
<text text-anchor="start" x="92" y="-161.5" font-family="Helvetica,sans-Serif" font-size="10.00">memoryoracle.descriptions.</text>
<text text-anchor="middle" x="159" y="-150.5" font-family="Helvetica,sans-Serif" font-size="10.00">FileDescription</text>
<polyline fill="none" stroke="black" points="84,-143.5 234,-143.5 "/>
<text text-anchor="middle" x="159" y="-131.5" font-family="Helvetica,sans-Serif" font-size="10.00"> </text>
<polyline fill="none" stroke="black" points="84,-124.5 234,-124.5 "/>
<text text-anchor="middle" x="159" y="-112.5" font-family="Helvetica,sans-Serif" font-size="10.00"> </text>
</g>
<!-- Node4 -->
<g id="node4" class="node"><title>Node4</title>
<g id="a_node4"><a xlink:href="classmemoryoracle_1_1descriptions_1_1ObjectFileDescription.html" target="_top" xlink:title="{memoryoracle.descriptions.\lObjectFileDescription\n||}">
<polygon fill="none" stroke="black" points="0,-0.5 0,-68.5 150,-68.5 150,-0.5 0,-0.5"/>
<text text-anchor="start" x="8" y="-56.5" font-family="Helvetica,sans-Serif" font-size="10.00">memoryoracle.descriptions.</text>
<text text-anchor="middle" x="75" y="-45.5" font-family="Helvetica,sans-Serif" font-size="10.00">ObjectFileDescription</text>
<polyline fill="none" stroke="black" points="0,-38.5 150,-38.5 "/>
<text text-anchor="middle" x="75" y="-26.5" font-family="Helvetica,sans-Serif" font-size="10.00"> </text>
<polyline fill="none" stroke="black" points="0,-19.5 150,-19.5 "/>
<text text-anchor="middle" x="75" y="-7.5" font-family="Helvetica,sans-Serif" font-size="10.00"> </text>
</a>
</g>
</g>
<!-- Node1&#45;&gt;Node4 -->
<g id="edge3" class="edge"><title>Node1&#45;&gt;Node4</title>
<path fill="none" stroke="midnightblue" d="M125.518,-97.4445C117.704,-87.8637 109.48,-77.7795 101.99,-68.5947"/>
<polygon fill="none" stroke="midnightblue" points="122.927,-99.8056 131.959,-105.343 128.352,-95.3815 122.927,-99.8056"/>
</g>
<!-- Node5 -->
<g id="node5" class="node"><title>Node5</title>
<g id="a_node5"><a xlink:href="classmemoryoracle_1_1descriptions_1_1SourceFileDescription.html" target="_top" xlink:title="{memoryoracle.descriptions.\lSourceFileDescription\n||}">
<polygon fill="none" stroke="black" points="168,-0.5 168,-68.5 318,-68.5 318,-0.5 168,-0.5"/>
<text text-anchor="start" x="176" y="-56.5" font-family="Helvetica,sans-Serif" font-size="10.00">memoryoracle.descriptions.</text>
<text text-anchor="middle" x="243" y="-45.5" font-family="Helvetica,sans-Serif" font-size="10.00">SourceFileDescription</text>
<polyline fill="none" stroke="black" points="168,-38.5 318,-38.5 "/>
<text text-anchor="middle" x="243" y="-26.5" font-family="Helvetica,sans-Serif" font-size="10.00"> </text>
<polyline fill="none" stroke="black" points="168,-19.5 318,-19.5 "/>
<text text-anchor="middle" x="243" y="-7.5" font-family="Helvetica,sans-Serif" font-size="10.00"> </text>
</a>
</g>
</g>
<!-- Node1&#45;&gt;Node5 -->
<g id="edge4" class="edge"><title>Node1&#45;&gt;Node5</title>
<path fill="none" stroke="midnightblue" d="M192.482,-97.4445C200.296,-87.8637 208.52,-77.7795 216.01,-68.5947"/>
<polygon fill="none" stroke="midnightblue" points="189.648,-95.3815 186.041,-105.343 195.073,-99.8056 189.648,-95.3815"/>
</g>
<!-- Node2 -->
<g id="node2" class="node"><title>Node2</title>
<g id="a_node2"><a xlink:href="classmemoryoracle_1_1descriptions_1_1Description.html" target="_top" xlink:title="{memoryoracle.descriptions.\lDescription\n|&#45; _id\l|+ __init__()\l+ id()\l+ name()\l+ dict()\l&#45; _init()\l}">
<polygon fill="none" stroke="black" points="84,-210.5 84,-322.5 234,-322.5 234,-210.5 84,-210.5"/>
<text text-anchor="start" x="92" y="-310.5" font-family="Helvetica,sans-Serif" font-size="10.00">memoryoracle.descriptions.</text>
<text text-anchor="middle" x="159" y="-299.5" font-family="Helvetica,sans-Serif" font-size="10.00">Description</text>
<polyline fill="none" stroke="black" points="84,-292.5 234,-292.5 "/>
<text text-anchor="start" x="92" y="-280.5" font-family="Helvetica,sans-Serif" font-size="10.00">&#45; _id</text>
<polyline fill="none" stroke="black" points="84,-273.5 234,-273.5 "/>
<text text-anchor="start" x="92" y="-261.5" font-family="Helvetica,sans-Serif" font-size="10.00">+ __init__()</text>
<text text-anchor="start" x="92" y="-250.5" font-family="Helvetica,sans-Serif" font-size="10.00">+ id()</text>
<text text-anchor="start" x="92" y="-239.5" font-family="Helvetica,sans-Serif" font-size="10.00">+ name()</text>
<text text-anchor="start" x="92" y="-228.5" font-family="Helvetica,sans-Serif" font-size="10.00">+ dict()</text>
<text text-anchor="start" x="92" y="-217.5" font-family="Helvetica,sans-Serif" font-size="10.00">&#45; _init()</text>
</a>
</g>
</g>
<!-- Node2&#45;&gt;Node1 -->
<g id="edge1" class="edge"><title>Node2&#45;&gt;Node1</title>
<path fill="none" stroke="midnightblue" d="M159,-200.257C159,-190.987 159,-181.797 159,-173.506"/>
<polygon fill="none" stroke="midnightblue" points="155.5,-200.309 159,-210.309 162.5,-200.309 155.5,-200.309"/>
</g>
<!-- Node3 -->
<g id="node3" class="node"><title>Node3</title>
<polygon fill="none" stroke="#bfbfbf" points="136,-359.5 136,-416.5 182,-416.5 182,-359.5 136,-359.5"/>
<text text-anchor="middle" x="159" y="-404.5" font-family="Helvetica,sans-Serif" font-size="10.00">object</text>
<polyline fill="none" stroke="#bfbfbf" points="136,-397.5 182,-397.5 "/>
<text text-anchor="middle" x="159" y="-385.5" font-family="Helvetica,sans-Serif" font-size="10.00"> </text>
<polyline fill="none" stroke="#bfbfbf" points="136,-378.5 182,-378.5 "/>
<text text-anchor="middle" x="159" y="-366.5" font-family="Helvetica,sans-Serif" font-size="10.00"> </text>
</g>
<!-- Node3&#45;&gt;Node2 -->
<g id="edge2" class="edge"><title>Node3&#45;&gt;Node2</title>
<path fill="none" stroke="midnightblue" d="M159,-349.108C159,-340.748 159,-331.725 159,-322.834"/>
<polygon fill="none" stroke="midnightblue" points="155.5,-349.284 159,-359.284 162.5,-349.284 155.5,-349.284"/>
</g>
</g>
</svg>
