<?xml version="1.0" encoding="UTF-8" standalone="no"?>
<!DOCTYPE svg PUBLIC "-//W3C//DTD SVG 1.1//EN"
 "http://www.w3.org/Graphics/SVG/1.1/DTD/svg11.dtd">
<!-- Generated by graphviz version 2.38.0 (20140413.2041)
 -->
<!-- Title: memoryoracle.instance.Array._track Pages: 1 -->
<svg width="383pt" height="78pt"
 viewBox="0.00 0.00 383.00 77.50" xmlns="http://www.w3.org/2000/svg" xmlns:xlink="http://www.w3.org/1999/xlink">
<g id="graph0" class="graph" transform="scale(1 1) rotate(0) translate(4 73.5)">
<title>memoryoracle.instance.Array._track</title>
<!-- Node1 -->
<g id="node1" class="node"><title>Node1</title>
<polygon fill="#bfbfbf" stroke="black" points="0,-22.5 0,-52.5 160,-52.5 160,-22.5 0,-22.5"/>
<text text-anchor="start" x="8" y="-40.5" font-family="Helvetica,sans-Serif" font-size="10.00">memoryoracle.instance.Array.</text>
<text text-anchor="middle" x="80" y="-29.5" font-family="Helvetica,sans-Serif" font-size="10.00">_track</text>
</g>
<!-- Node2 -->
<g id="node2" class="node"><title>Node2</title>
<g id="a_node2"><a xlink:href="classmemoryoracle_1_1typed_1_1Typed.html#a0d1a3c7644d37da66f9ea5cb269115fe" target="_top" xlink:title="memoryoracle.typed.Typed.object">
<polygon fill="none" stroke="black" points="196,-50 196,-69 375,-69 375,-50 196,-50"/>
<text text-anchor="middle" x="285.5" y="-57" font-family="Helvetica,sans-Serif" font-size="10.00">memoryoracle.typed.Typed.object</text>
</a>
</g>
</g>
<!-- Node1&#45;&gt;Node2 -->
<g id="edge1" class="edge"><title>Node1&#45;&gt;Node2</title>
<path fill="none" stroke="midnightblue" d="M160.261,-46.0688C168.764,-46.988 177.487,-47.931 186.177,-48.8704"/>
<polygon fill="midnightblue" stroke="midnightblue" points="186.029,-52.3748 196.347,-49.9699 186.781,-45.4153 186.029,-52.3748"/>
</g>
<!-- Node3 -->
<g id="node3" class="node"><title>Node3</title>
<g id="a_node3"><a xlink:href="classmemoryoracle_1_1descriptions_1_1MemoryDescription.html#a0fc58900317d1e723b6352005e163aef" target="_top" xlink:title="memoryoracle.descriptions.\lMemoryDescription.object">
<polygon fill="none" stroke="black" points="210.5,-0.5 210.5,-30.5 360.5,-30.5 360.5,-0.5 210.5,-0.5"/>
<text text-anchor="start" x="218.5" y="-18.5" font-family="Helvetica,sans-Serif" font-size="10.00">memoryoracle.descriptions.</text>
<text text-anchor="middle" x="285.5" y="-7.5" font-family="Helvetica,sans-Serif" font-size="10.00">MemoryDescription.object</text>
</a>
</g>
</g>
<!-- Node1&#45;&gt;Node3 -->
<g id="edge2" class="edge"><title>Node1&#45;&gt;Node3</title>
<path fill="none" stroke="midnightblue" d="M160.261,-28.9312C173.423,-27.5083 187.113,-26.0283 200.39,-24.5929"/>
<polygon fill="midnightblue" stroke="midnightblue" points="200.881,-28.0603 210.447,-23.5057 200.129,-21.1009 200.881,-28.0603"/>
</g>
</g>
</svg>
