<?xml version="1.0" encoding="UTF-8" standalone="no"?>
<!DOCTYPE svg PUBLIC "-//W3C//DTD SVG 1.1//EN"
 "http://www.w3.org/Graphics/SVG/1.1/DTD/svg11.dtd">
<!-- Generated by graphviz version 2.38.0 (20140413.2041)
 -->
<!-- Title: memoryoracle.instance.Call.__init__ Pages: 1 -->
<svg width="393pt" height="78pt"
 viewBox="0.00 0.00 393.00 77.50" xmlns="http://www.w3.org/2000/svg" xmlns:xlink="http://www.w3.org/1999/xlink">
<g id="graph0" class="graph" transform="scale(1 1) rotate(0) translate(4 73.5)">
<title>memoryoracle.instance.Call.__init__</title>
<!-- Node1 -->
<g id="node1" class="node"><title>Node1</title>
<polygon fill="#bfbfbf" stroke="black" points="0,-17 0,-47 153,-47 153,-17 0,-17"/>
<text text-anchor="start" x="8" y="-35" font-family="Helvetica,sans-Serif" font-size="10.00">memoryoracle.instance.Call.</text>
<text text-anchor="middle" x="76.5" y="-24" font-family="Helvetica,sans-Serif" font-size="10.00">__init__</text>
</g>
<!-- Node2 -->
<g id="node2" class="node"><title>Node2</title>
<g id="a_node2"><a xlink:href="classmemoryoracle_1_1descriptions_1_1Description.html#a61b082efab73e7121ad7321bd5d21b84" target="_top" xlink:title="memoryoracle.descriptions.\lDescription._init">
<polygon fill="none" stroke="black" points="212,-39 212,-69 362,-69 362,-39 212,-39"/>
<text text-anchor="start" x="220" y="-57" font-family="Helvetica,sans-Serif" font-size="10.00">memoryoracle.descriptions.</text>
<text text-anchor="middle" x="287" y="-46" font-family="Helvetica,sans-Serif" font-size="10.00">Description._init</text>
</a>
</g>
</g>
<!-- Node1&#45;&gt;Node2 -->
<g id="edge1" class="edge"><title>Node1&#45;&gt;Node2</title>
<path fill="none" stroke="midnightblue" d="M153.068,-39.9736C168.747,-41.6279 185.363,-43.3813 201.343,-45.0674"/>
<polygon fill="midnightblue" stroke="midnightblue" points="201.424,-48.5953 211.736,-46.164 202.159,-41.6339 201.424,-48.5953"/>
</g>
<!-- Node3 -->
<g id="node3" class="node"><title>Node3</title>
<g id="a_node3"><a xlink:href="classmemoryoracle_1_1instance_1_1Instance.html#a83d51f791768e20061edf6e1c40297cb" target="_top" xlink:title="memoryoracle.instance.Instance._init">
<polygon fill="none" stroke="black" points="189,-0.5 189,-19.5 385,-19.5 385,-0.5 189,-0.5"/>
<text text-anchor="middle" x="287" y="-7.5" font-family="Helvetica,sans-Serif" font-size="10.00">memoryoracle.instance.Instance._init</text>
</a>
</g>
</g>
<!-- Node1&#45;&gt;Node3 -->
<g id="edge2" class="edge"><title>Node1&#45;&gt;Node3</title>
<path fill="none" stroke="midnightblue" d="M153.068,-24.0264C163.686,-22.906 174.735,-21.7402 185.724,-20.5807"/>
<polygon fill="midnightblue" stroke="midnightblue" points="186.208,-24.0491 195.786,-19.519 185.474,-17.0877 186.208,-24.0491"/>
</g>
</g>
</svg>
