<?xml version="1.0" encoding="UTF-8" standalone="no"?>
<!DOCTYPE svg PUBLIC "-//W3C//DTD SVG 1.1//EN"
 "http://www.w3.org/Graphics/SVG/1.1/DTD/svg11.dtd">
<!-- Generated by graphviz version 2.38.0 (20140413.2041)
 -->
<!-- Title: memoryoracle.instance.Function Pages: 1 -->
<svg width="350pt" height="816pt"
 viewBox="0.00 0.00 349.50 816.00" xmlns="http://www.w3.org/2000/svg" xmlns:xlink="http://www.w3.org/1999/xlink">
<g id="graph0" class="graph" transform="scale(1 1) rotate(0) translate(4 812)">
<title>memoryoracle.instance.Function</title>
<!-- Node1 -->
<g id="node1" class="node"><title>Node1</title>
<polygon fill="#bfbfbf" stroke="black" points="90,-0.5 90,-101.5 263,-101.5 263,-0.5 90,-0.5"/>
<text text-anchor="middle" x="176.5" y="-89.5" font-family="Helvetica,sans-Serif" font-size="10.00">memoryoracle.instance.Function</text>
<polyline fill="none" stroke="black" points="90,-82.5 263,-82.5 "/>
<text text-anchor="start" x="98" y="-70.5" font-family="Helvetica,sans-Serif" font-size="10.00">+ repository</text>
<text text-anchor="start" x="98" y="-59.5" font-family="Helvetica,sans-Serif" font-size="10.00">&#45; _typeHandlerCode</text>
<text text-anchor="start" x="98" y="-48.5" font-family="Helvetica,sans-Serif" font-size="10.00">&#45; _updateTracker</text>
<text text-anchor="start" x="98" y="-37.5" font-family="Helvetica,sans-Serif" font-size="10.00">&#45; _watchers</text>
<polyline fill="none" stroke="black" points="90,-30.5 263,-30.5 "/>
<text text-anchor="start" x="98" y="-18.5" font-family="Helvetica,sans-Serif" font-size="10.00">+ __init__()</text>
<text text-anchor="start" x="98" y="-7.5" font-family="Helvetica,sans-Serif" font-size="10.00">&#45; _track()</text>
</g>
<!-- Node2 -->
<g id="node2" class="node"><title>Node2</title>
<g id="a_node2"><a xlink:href="classmemoryoracle_1_1instance_1_1Instance.html" target="_top" xlink:title="{memoryoracle.instance.Instance\n|&#45; _id\l&#45; _address\l&#45; _description\l&#45; _name\l&#45; _object\l&#45; _type\l&#45; _addressFixer\l&#45; _updatedNames\l|+ symbol()\l+ id()\l+ object()\l+ name()\l+ index()\l+ track()\l+ update()\l+ watchers()\l+ address()\l+ description()\l+ parent()\l+ parent_class()\l+ frame()\l+ __init__()\l&#45; _init()\l&#45; _basic_track()\l&#45; _clear_updated()\l&#45; _compute_address()\l}">
<polygon fill="none" stroke="black" points="0,-138.5 0,-459.5 173,-459.5 173,-138.5 0,-138.5"/>
<text text-anchor="middle" x="86.5" y="-447.5" font-family="Helvetica,sans-Serif" font-size="10.00">memoryoracle.instance.Instance</text>
<polyline fill="none" stroke="black" points="0,-440.5 173,-440.5 "/>
<text text-anchor="start" x="8" y="-428.5" font-family="Helvetica,sans-Serif" font-size="10.00">&#45; _id</text>
<text text-anchor="start" x="8" y="-417.5" font-family="Helvetica,sans-Serif" font-size="10.00">&#45; _address</text>
<text text-anchor="start" x="8" y="-406.5" font-family="Helvetica,sans-Serif" font-size="10.00">&#45; _description</text>
<text text-anchor="start" x="8" y="-395.5" font-family="Helvetica,sans-Serif" font-size="10.00">&#45; _name</text>
<text text-anchor="start" x="8" y="-384.5" font-family="Helvetica,sans-Serif" font-size="10.00">&#45; _object</text>
<text text-anchor="start" x="8" y="-373.5" font-family="Helvetica,sans-Serif" font-size="10.00">&#45; _type</text>
<text text-anchor="start" x="8" y="-362.5" font-family="Helvetica,sans-Serif" font-size="10.00">&#45; _addressFixer</text>
<text text-anchor="start" x="8" y="-351.5" font-family="Helvetica,sans-Serif" font-size="10.00">&#45; _updatedNames</text>
<polyline fill="none" stroke="black" points="0,-344.5 173,-344.5 "/>
<text text-anchor="start" x="8" y="-332.5" font-family="Helvetica,sans-Serif" font-size="10.00">+ symbol()</text>
<text text-anchor="start" x="8" y="-321.5" font-family="Helvetica,sans-Serif" font-size="10.00">+ id()</text>
<text text-anchor="start" x="8" y="-310.5" font-family="Helvetica,sans-Serif" font-size="10.00">+ object()</text>
<text text-anchor="start" x="8" y="-299.5" font-family="Helvetica,sans-Serif" font-size="10.00">+ name()</text>
<text text-anchor="start" x="8" y="-288.5" font-family="Helvetica,sans-Serif" font-size="10.00">+ index()</text>
<text text-anchor="start" x="8" y="-277.5" font-family="Helvetica,sans-Serif" font-size="10.00">+ track()</text>
<text text-anchor="start" x="8" y="-266.5" font-family="Helvetica,sans-Serif" font-size="10.00">+ update()</text>
<text text-anchor="start" x="8" y="-255.5" font-family="Helvetica,sans-Serif" font-size="10.00">+ watchers()</text>
<text text-anchor="start" x="8" y="-244.5" font-family="Helvetica,sans-Serif" font-size="10.00">+ address()</text>
<text text-anchor="start" x="8" y="-233.5" font-family="Helvetica,sans-Serif" font-size="10.00">+ description()</text>
<text text-anchor="start" x="8" y="-222.5" font-family="Helvetica,sans-Serif" font-size="10.00">+ parent()</text>
<text text-anchor="start" x="8" y="-211.5" font-family="Helvetica,sans-Serif" font-size="10.00">+ parent_class()</text>
<text text-anchor="start" x="8" y="-200.5" font-family="Helvetica,sans-Serif" font-size="10.00">+ frame()</text>
<text text-anchor="start" x="8" y="-189.5" font-family="Helvetica,sans-Serif" font-size="10.00">+ __init__()</text>
<text text-anchor="start" x="8" y="-178.5" font-family="Helvetica,sans-Serif" font-size="10.00">&#45; _init()</text>
<text text-anchor="start" x="8" y="-167.5" font-family="Helvetica,sans-Serif" font-size="10.00">&#45; _basic_track()</text>
<text text-anchor="start" x="8" y="-156.5" font-family="Helvetica,sans-Serif" font-size="10.00">&#45; _clear_updated()</text>
<text text-anchor="start" x="8" y="-145.5" font-family="Helvetica,sans-Serif" font-size="10.00">&#45; _compute_address()</text>
</a>
</g>
</g>
<!-- Node2&#45;&gt;Node1 -->
<g id="edge1" class="edge"><title>Node2&#45;&gt;Node1</title>
<path fill="none" stroke="midnightblue" d="M148.438,-128.703C151.93,-119.157 155.264,-110.046 158.334,-101.653"/>
<polygon fill="none" stroke="midnightblue" points="145.045,-127.791 144.896,-138.384 151.619,-130.196 145.045,-127.791"/>
</g>
<!-- Node3 -->
<g id="node3" class="node"><title>Node3</title>
<g id="a_node3"><a xlink:href="classmemoryoracle_1_1typed_1_1Typed.html" target="_top" xlink:title="{memoryoracle.typed.Typed\n|+ lookup\l&#45; _type\l&#45; _typeCodeMap\l&#45; _typeHandlerCode\l|+ type()\l+ type_code()\l+ gdb_type()\l+ type_handler()\l}">
<polygon fill="none" stroke="black" points="33.5,-496.5 33.5,-619.5 179.5,-619.5 179.5,-496.5 33.5,-496.5"/>
<text text-anchor="middle" x="106.5" y="-607.5" font-family="Helvetica,sans-Serif" font-size="10.00">memoryoracle.typed.Typed</text>
<polyline fill="none" stroke="black" points="33.5,-600.5 179.5,-600.5 "/>
<text text-anchor="start" x="41.5" y="-588.5" font-family="Helvetica,sans-Serif" font-size="10.00">+ lookup</text>
<text text-anchor="start" x="41.5" y="-577.5" font-family="Helvetica,sans-Serif" font-size="10.00">&#45; _type</text>
<text text-anchor="start" x="41.5" y="-566.5" font-family="Helvetica,sans-Serif" font-size="10.00">&#45; _typeCodeMap</text>
<text text-anchor="start" x="41.5" y="-555.5" font-family="Helvetica,sans-Serif" font-size="10.00">&#45; _typeHandlerCode</text>
<polyline fill="none" stroke="black" points="33.5,-548.5 179.5,-548.5 "/>
<text text-anchor="start" x="41.5" y="-536.5" font-family="Helvetica,sans-Serif" font-size="10.00">+ type()</text>
<text text-anchor="start" x="41.5" y="-525.5" font-family="Helvetica,sans-Serif" font-size="10.00">+ type_code()</text>
<text text-anchor="start" x="41.5" y="-514.5" font-family="Helvetica,sans-Serif" font-size="10.00">+ gdb_type()</text>
<text text-anchor="start" x="41.5" y="-503.5" font-family="Helvetica,sans-Serif" font-size="10.00">+ type_handler()</text>
</a>
</g>
</g>
<!-- Node3&#45;&gt;Node2 -->
<g id="edge2" class="edge"><title>Node3&#45;&gt;Node2</title>
<path fill="none" stroke="midnightblue" d="M100.996,-486.272C100.334,-477.769 99.6392,-468.839 98.9268,-459.684"/>
<polygon fill="none" stroke="midnightblue" points="97.5202,-486.722 101.786,-496.42 104.499,-486.179 97.5202,-486.722"/>
</g>
<!-- Node4 -->
<g id="node4" class="node"><title>Node4</title>
<g id="a_node4"><a xlink:href="classmemoryoracle_1_1tracked_1_1Tracked.html" target="_top" xlink:title="{memoryoracle.tracked.Tracked\n||}">
<polygon fill="none" stroke="black" points="74.5,-656.5 74.5,-713.5 238.5,-713.5 238.5,-656.5 74.5,-656.5"/>
<text text-anchor="middle" x="156.5" y="-701.5" font-family="Helvetica,sans-Serif" font-size="10.00">memoryoracle.tracked.Tracked</text>
<polyline fill="none" stroke="black" points="74.5,-694.5 238.5,-694.5 "/>
<text text-anchor="middle" x="156.5" y="-682.5" font-family="Helvetica,sans-Serif" font-size="10.00"> </text>
<polyline fill="none" stroke="black" points="74.5,-675.5 238.5,-675.5 "/>
<text text-anchor="middle" x="156.5" y="-663.5" font-family="Helvetica,sans-Serif" font-size="10.00"> </text>
</a>
</g>
</g>
<!-- Node4&#45;&gt;Node3 -->
<g id="edge3" class="edge"><title>Node4&#45;&gt;Node3</title>
<path fill="none" stroke="midnightblue" d="M141.673,-646.933C138.237,-638.343 134.492,-628.98 130.769,-619.672"/>
<polygon fill="none" stroke="midnightblue" points="138.44,-648.274 145.403,-656.258 144.939,-645.674 138.44,-648.274"/>
</g>
<!-- Node6 -->
<g id="node6" class="node"><title>Node6</title>
<g id="a_node6"><a xlink:href="classmemoryoracle_1_1templatable_1_1Templatable.html" target="_top" xlink:title="{memoryoracle.templatable.\lTemplatable\n||}">
<polygon fill="none" stroke="black" points="191.5,-265 191.5,-333 341.5,-333 341.5,-265 191.5,-265"/>
<text text-anchor="start" x="199.5" y="-321" font-family="Helvetica,sans-Serif" font-size="10.00">memoryoracle.templatable.</text>
<text text-anchor="middle" x="266.5" y="-310" font-family="Helvetica,sans-Serif" font-size="10.00">Templatable</text>
<polyline fill="none" stroke="black" points="191.5,-303 341.5,-303 "/>
<text text-anchor="middle" x="266.5" y="-291" font-family="Helvetica,sans-Serif" font-size="10.00"> </text>
<polyline fill="none" stroke="black" points="191.5,-284 341.5,-284 "/>
<text text-anchor="middle" x="266.5" y="-272" font-family="Helvetica,sans-Serif" font-size="10.00"> </text>
</a>
</g>
</g>
<!-- Node4&#45;&gt;Node6 -->
<g id="edge6" class="edge"><title>Node4&#45;&gt;Node6</title>
<path fill="none" stroke="midnightblue" d="M176.709,-647.097C180.989,-638.376 185.203,-628.994 188.5,-620 225.697,-518.529 250.485,-392.467 260.912,-333.432"/>
<polygon fill="none" stroke="midnightblue" points="173.47,-645.747 172.08,-656.25 179.717,-648.906 173.47,-645.747"/>
</g>
<!-- Node5 -->
<g id="node5" class="node"><title>Node5</title>
<polygon fill="none" stroke="#bfbfbf" points="133.5,-750.5 133.5,-807.5 179.5,-807.5 179.5,-750.5 133.5,-750.5"/>
<text text-anchor="middle" x="156.5" y="-795.5" font-family="Helvetica,sans-Serif" font-size="10.00">object</text>
<polyline fill="none" stroke="#bfbfbf" points="133.5,-788.5 179.5,-788.5 "/>
<text text-anchor="middle" x="156.5" y="-776.5" font-family="Helvetica,sans-Serif" font-size="10.00"> </text>
<polyline fill="none" stroke="#bfbfbf" points="133.5,-769.5 179.5,-769.5 "/>
<text text-anchor="middle" x="156.5" y="-757.5" font-family="Helvetica,sans-Serif" font-size="10.00"> </text>
</g>
<!-- Node5&#45;&gt;Node4 -->
<g id="edge4" class="edge"><title>Node5&#45;&gt;Node4</title>
<path fill="none" stroke="midnightblue" d="M156.5,-740.209C156.5,-731.293 156.5,-721.951 156.5,-713.584"/>
<polygon fill="none" stroke="midnightblue" points="153,-740.397 156.5,-750.397 160,-740.397 153,-740.397"/>
</g>
<!-- Node6&#45;&gt;Node1 -->
<g id="edge5" class="edge"><title>Node6&#45;&gt;Node1</title>
<path fill="none" stroke="midnightblue" d="M250.865,-255.265C235.213,-212.483 211.148,-146.703 194.659,-101.634"/>
<polygon fill="none" stroke="midnightblue" points="247.639,-256.635 254.362,-264.823 254.213,-254.23 247.639,-256.635"/>
</g>
</g>
</svg>
