<?xml version="1.0" encoding="UTF-8" standalone="no"?>
<!DOCTYPE svg PUBLIC "-//W3C//DTD SVG 1.1//EN"
 "http://www.w3.org/Graphics/SVG/1.1/DTD/svg11.dtd">
<!-- Generated by graphviz version 2.38.0 (20140413.2041)
 -->
<!-- Title: memoryoracle.models.Memory.track Pages: 1 -->
<svg width="438pt" height="78pt"
 viewBox="0.00 0.00 438.00 77.50" xmlns="http://www.w3.org/2000/svg" xmlns:xlink="http://www.w3.org/1999/xlink">
<g id="graph0" class="graph" transform="scale(1 1) rotate(0) translate(4 73.5)">
<title>memoryoracle.models.Memory.track</title>
<!-- Node1 -->
<g id="node1" class="node"><title>Node1</title>
<polygon fill="#bfbfbf" stroke="black" points="0,-22.5 0,-41.5 192,-41.5 192,-22.5 0,-22.5"/>
<text text-anchor="middle" x="96" y="-29.5" font-family="Helvetica,sans-Serif" font-size="10.00">memoryoracle.models.Memory.track</text>
</g>
<!-- Node2 -->
<g id="node2" class="node"><title>Node2</title>
<g id="a_node2"><a xlink:href="classmemoryoracle_1_1models_1_1Memory.html#aed3af349dd80317ae9cca4b4e9cb7c26" target="_top" xlink:title="memoryoracle.models.Memory.\l__init__">
<polygon fill="none" stroke="black" points="245,-39 245,-69 413,-69 413,-39 245,-39"/>
<text text-anchor="start" x="253" y="-57" font-family="Helvetica,sans-Serif" font-size="10.00">memoryoracle.models.Memory.</text>
<text text-anchor="middle" x="329" y="-46" font-family="Helvetica,sans-Serif" font-size="10.00">__init__</text>
</a>
</g>
</g>
<!-- Node1&#45;&gt;Node2 -->
<g id="edge1" class="edge"><title>Node1&#45;&gt;Node2</title>
<path fill="none" stroke="midnightblue" d="M202.545,-42.0519C216.694,-43.3994 231.044,-44.7661 244.736,-46.0701"/>
<polygon fill="midnightblue" stroke="midnightblue" points="202.577,-38.5392 192.29,-41.0753 201.913,-45.5077 202.577,-38.5392"/>
</g>
<!-- Node3 -->
<g id="node3" class="node"><title>Node3</title>
<g id="a_node3"><a xlink:href="classmemoryoracle_1_1models_1_1Memory.html#a71d4a141abc3358afdf1a1325bfd4253" target="_top" xlink:title="memoryoracle.models.Memory.update">
<polygon fill="none" stroke="black" points="228,-0.5 228,-19.5 430,-19.5 430,-0.5 228,-0.5"/>
<text text-anchor="middle" x="329" y="-7.5" font-family="Helvetica,sans-Serif" font-size="10.00">memoryoracle.models.Memory.update</text>
</a>
</g>
</g>
<!-- Node1&#45;&gt;Node3 -->
<g id="edge2" class="edge"><title>Node1&#45;&gt;Node3</title>
<path fill="none" stroke="midnightblue" d="M202.31,-21.9705C210.884,-21.1539 219.534,-20.3301 228.068,-19.5173"/>
<polygon fill="midnightblue" stroke="midnightblue" points="201.913,-18.4923 192.29,-22.9247 202.577,-25.4608 201.913,-18.4923"/>
</g>
</g>
</svg>
