<?xml version="1.0" encoding="UTF-8" standalone="no"?>
<!DOCTYPE svg PUBLIC "-//W3C//DTD SVG 1.1//EN"
 "http://www.w3.org/Graphics/SVG/1.1/DTD/svg11.dtd">
<!-- Generated by graphviz version 2.38.0 (20140413.2041)
 -->
<!-- Title: memoryoracle.descriptions.ExternalDescriptionDecorator.description Pages: 1 -->
<svg width="880pt" height="166pt"
 viewBox="0.00 0.00 880.00 165.50" xmlns="http://www.w3.org/2000/svg" xmlns:xlink="http://www.w3.org/1999/xlink">
<g id="graph0" class="graph" transform="scale(1 1) rotate(0) translate(4 161.5)">
<title>memoryoracle.descriptions.ExternalDescriptionDecorator.description</title>
<!-- Node1 -->
<g id="node1" class="node"><title>Node1</title>
<polygon fill="#bfbfbf" stroke="black" points="0,-82.5 0,-112.5 212,-112.5 212,-82.5 0,-82.5"/>
<text text-anchor="start" x="8" y="-100.5" font-family="Helvetica,sans-Serif" font-size="10.00">memoryoracle.descriptions.</text>
<text text-anchor="middle" x="106" y="-89.5" font-family="Helvetica,sans-Serif" font-size="10.00">ExternalDescriptionDecorator.description</text>
</g>
<!-- Node2 -->
<g id="node2" class="node"><title>Node2</title>
<g id="a_node2"><a xlink:href="classmemoryoracle_1_1instance_1_1Int.html#a38c9424341353f006771163d360594da" target="_top" xlink:title="memoryoracle.instance.Int.\l_track">
<polygon fill="none" stroke="black" points="248,-82.5 248,-112.5 396,-112.5 396,-82.5 248,-82.5"/>
<text text-anchor="start" x="256" y="-100.5" font-family="Helvetica,sans-Serif" font-size="10.00">memoryoracle.instance.Int.</text>
<text text-anchor="middle" x="322" y="-89.5" font-family="Helvetica,sans-Serif" font-size="10.00">_track</text>
</a>
</g>
</g>
<!-- Node1&#45;&gt;Node2 -->
<g id="edge1" class="edge"><title>Node1&#45;&gt;Node2</title>
<path fill="none" stroke="midnightblue" d="M222.28,-97.5C230.919,-97.5 239.486,-97.5 247.753,-97.5"/>
<polygon fill="midnightblue" stroke="midnightblue" points="222.119,-94.0001 212.119,-97.5 222.119,-101 222.119,-94.0001"/>
</g>
<!-- Node3 -->
<g id="node3" class="node"><title>Node3</title>
<g id="a_node3"><a xlink:href="classmemoryoracle_1_1instance_1_1Memory.html#a8951ac234fecbd6cd473133ae7e63662" target="_top" xlink:title="memoryoracle.instance.Memory.track">
<polygon fill="none" stroke="black" points="432,-88 432,-107 629,-107 629,-88 432,-88"/>
<text text-anchor="middle" x="530.5" y="-95" font-family="Helvetica,sans-Serif" font-size="10.00">memoryoracle.instance.Memory.track</text>
</a>
</g>
</g>
<!-- Node2&#45;&gt;Node3 -->
<g id="edge2" class="edge"><title>Node2&#45;&gt;Node3</title>
<path fill="none" stroke="midnightblue" d="M406.28,-90.8635C414.718,-90.7665 423.341,-90.7317 431.912,-90.759"/>
<polygon fill="midnightblue" stroke="midnightblue" points="406.042,-87.3665 396.095,-91.0127 406.145,-94.3658 406.042,-87.3665"/>
</g>
<!-- Node8 -->
<g id="node8" class="node"><title>Node8</title>
<g id="a_node8"><a xlink:href="classmemoryoracle_1_1models_1_1Typed.html#aa1d5d8d5b7ebe5c2876f363e7eb669db" target="_top" xlink:title="memoryoracle.models.Typed.track">
<polygon fill="none" stroke="black" points="439.5,-50 439.5,-69 621.5,-69 621.5,-50 439.5,-50"/>
<text text-anchor="middle" x="530.5" y="-57" font-family="Helvetica,sans-Serif" font-size="10.00">memoryoracle.models.Typed.track</text>
</a>
</g>
</g>
<!-- Node2&#45;&gt;Node8 -->
<g id="edge8" class="edge"><title>Node2&#45;&gt;Node8</title>
<path fill="none" stroke="midnightblue" d="M405.991,-82.2281C430.18,-77.7768 455.914,-73.0413 477.595,-69.0514"/>
<polygon fill="midnightblue" stroke="midnightblue" points="405.296,-78.7971 396.095,-84.0491 406.563,-85.6815 405.296,-78.7971"/>
</g>
<!-- Node3&#45;&gt;Node2 -->
<g id="edge4" class="edge"><title>Node3&#45;&gt;Node2</title>
<path fill="none" stroke="midnightblue" d="M421.73,-104.244C413.061,-104.222 404.434,-104.137 396.095,-103.987"/>
<polygon fill="midnightblue" stroke="midnightblue" points="421.913,-107.744 431.912,-104.241 421.911,-100.744 421.913,-107.744"/>
</g>
<!-- Node4 -->
<g id="node4" class="node"><title>Node4</title>
<g id="a_node4"><a xlink:href="classmemoryoracle_1_1instance_1_1Memory.html#aa937ea1a82dcaa2fa1c868a387d59483" target="_top" xlink:title="memoryoracle.instance.Memory.update">
<polygon fill="none" stroke="black" points="665,-138 665,-157 872,-157 872,-138 665,-138"/>
<text text-anchor="middle" x="768.5" y="-145" font-family="Helvetica,sans-Serif" font-size="10.00">memoryoracle.instance.Memory.update</text>
</a>
</g>
</g>
<!-- Node3&#45;&gt;Node4 -->
<g id="edge3" class="edge"><title>Node3&#45;&gt;Node4</title>
<path fill="none" stroke="midnightblue" d="M580.577,-109.452C605.757,-115.442 636.954,-122.647 665,-128.5 680.768,-131.79 697.961,-135.089 713.682,-137.993"/>
<polygon fill="midnightblue" stroke="midnightblue" points="581.076,-105.972 570.536,-107.051 579.448,-112.78 581.076,-105.972"/>
</g>
<!-- Node5 -->
<g id="node5" class="node"><title>Node5</title>
<g id="a_node5"><a xlink:href="classmemoryoracle_1_1models_1_1Typed.html#a494dfbe205034b874ff9e8c7039f579b" target="_top" xlink:title="memoryoracle.models.Typed.\l__init__">
<polygon fill="none" stroke="black" points="689.5,-88.5 689.5,-118.5 847.5,-118.5 847.5,-88.5 689.5,-88.5"/>
<text text-anchor="start" x="697.5" y="-106.5" font-family="Helvetica,sans-Serif" font-size="10.00">memoryoracle.models.Typed.</text>
<text text-anchor="middle" x="768.5" y="-95.5" font-family="Helvetica,sans-Serif" font-size="10.00">__init__</text>
</a>
</g>
</g>
<!-- Node3&#45;&gt;Node5 -->
<g id="edge5" class="edge"><title>Node3&#45;&gt;Node5</title>
<path fill="none" stroke="midnightblue" d="M639.584,-100.248C656.346,-100.674 673.377,-101.107 689.311,-101.512"/>
<polygon fill="midnightblue" stroke="midnightblue" points="639.28,-96.7391 629.194,-99.9837 639.102,-103.737 639.28,-96.7391"/>
</g>
<!-- Node6 -->
<g id="node6" class="node"><title>Node6</title>
<g id="a_node6"><a xlink:href="classmemoryoracle_1_1models_1_1Memory.html#a71d4a141abc3358afdf1a1325bfd4253" target="_top" xlink:title="memoryoracle.models.Memory.update">
<polygon fill="none" stroke="black" points="667.5,-50 667.5,-69 869.5,-69 869.5,-50 667.5,-50"/>
<text text-anchor="middle" x="768.5" y="-57" font-family="Helvetica,sans-Serif" font-size="10.00">memoryoracle.models.Memory.update</text>
</a>
</g>
</g>
<!-- Node3&#45;&gt;Node6 -->
<g id="edge6" class="edge"><title>Node3&#45;&gt;Node6</title>
<path fill="none" stroke="midnightblue" d="M600.649,-86.3659C634.783,-80.8697 675.54,-74.3071 708.227,-69.0439"/>
<polygon fill="midnightblue" stroke="midnightblue" points="600.065,-82.9148 590.748,-87.96 601.177,-89.8258 600.065,-82.9148"/>
</g>
<!-- Node7 -->
<g id="node7" class="node"><title>Node7</title>
<g id="a_node7"><a xlink:href="classmemoryoracle_1_1models_1_1Memory.html#aed3af349dd80317ae9cca4b4e9cb7c26" target="_top" xlink:title="memoryoracle.models.Memory.\l__init__">
<polygon fill="none" stroke="black" points="684.5,-0.5 684.5,-30.5 852.5,-30.5 852.5,-0.5 684.5,-0.5"/>
<text text-anchor="start" x="692.5" y="-18.5" font-family="Helvetica,sans-Serif" font-size="10.00">memoryoracle.models.Memory.</text>
<text text-anchor="middle" x="768.5" y="-7.5" font-family="Helvetica,sans-Serif" font-size="10.00">__init__</text>
</a>
</g>
</g>
<!-- Node3&#45;&gt;Node7 -->
<g id="edge7" class="edge"><title>Node3&#45;&gt;Node7</title>
<path fill="none" stroke="midnightblue" d="M615.732,-84.6476C620.325,-82.8556 624.782,-80.8176 629,-78.5 649.389,-67.2967 644.878,-52.1771 665,-40.5 671.733,-36.5927 679.055,-33.2937 686.586,-30.5087"/>
<polygon fill="midnightblue" stroke="midnightblue" points="614.433,-81.3936 606.143,-87.9909 616.738,-88.0033 614.433,-81.3936"/>
</g>
<!-- Node8&#45;&gt;Node5 -->
<g id="edge9" class="edge"><title>Node8&#45;&gt;Node5</title>
<path fill="none" stroke="midnightblue" d="M592.866,-70.9412C622.363,-76.4406 658.048,-83.0938 689.453,-88.9489"/>
<polygon fill="midnightblue" stroke="midnightblue" points="593.181,-67.4395 582.708,-69.0473 591.898,-74.321 593.181,-67.4395"/>
</g>
<!-- Node8&#45;&gt;Node6 -->
<g id="edge10" class="edge"><title>Node8&#45;&gt;Node6</title>
<path fill="none" stroke="midnightblue" d="M631.988,-59.5C643.742,-59.5 655.733,-59.5 667.481,-59.5"/>
<polygon fill="midnightblue" stroke="midnightblue" points="631.732,-56.0001 621.732,-59.5 631.732,-63.0001 631.732,-56.0001"/>
</g>
<!-- Node8&#45;&gt;Node7 -->
<g id="edge11" class="edge"><title>Node8&#45;&gt;Node7</title>
<path fill="none" stroke="midnightblue" d="M592.594,-48.1095C621.284,-42.7606 655.875,-36.3114 686.695,-30.5654"/>
<polygon fill="midnightblue" stroke="midnightblue" points="591.898,-44.679 582.708,-49.9527 593.181,-51.5605 591.898,-44.679"/>
</g>
</g>
</svg>
