<?xml version="1.0" encoding="UTF-8" standalone="no"?>
<!DOCTYPE svg PUBLIC "-//W3C//DTD SVG 1.1//EN"
 "http://www.w3.org/Graphics/SVG/1.1/DTD/svg11.dtd">
<!-- Generated by graphviz version 2.38.0 (20140413.2041)
 -->
<!-- Title: memoryoracle.tracked.ObjectFile Pages: 1 -->
<svg width="193pt" height="359pt"
 viewBox="0.00 0.00 193.00 359.00" xmlns="http://www.w3.org/2000/svg" xmlns:xlink="http://www.w3.org/1999/xlink">
<g id="graph0" class="graph" transform="scale(1 1) rotate(0) translate(4 355)">
<title>memoryoracle.tracked.ObjectFile</title>
<!-- Node1 -->
<g id="node1" class="node"><title>Node1</title>
<polygon fill="#bfbfbf" stroke="black" points="5.5,-0.5 5.5,-57.5 179.5,-57.5 179.5,-0.5 5.5,-0.5"/>
<text text-anchor="middle" x="92.5" y="-45.5" font-family="Helvetica,sans-Serif" font-size="10.00">memoryoracle.tracked.ObjectFile</text>
<polyline fill="none" stroke="black" points="5.5,-38.5 179.5,-38.5 "/>
<text text-anchor="start" x="13.5" y="-26.5" font-family="Helvetica,sans-Serif" font-size="10.00">+ source_file</text>
<polyline fill="none" stroke="black" points="5.5,-19.5 179.5,-19.5 "/>
<text text-anchor="middle" x="92.5" y="-7.5" font-family="Helvetica,sans-Serif" font-size="10.00"> </text>
</g>
<!-- Node2 -->
<g id="node2" class="node"><title>Node2</title>
<g id="a_node2"><a xlink:href="classmemoryoracle_1_1tracked_1_1ProgramFile.html" target="_top" xlink:title="{memoryoracle.tracked.ProgramFile\n||}">
<polygon fill="none" stroke="black" points="-1.42109e-14,-94.5 -1.42109e-14,-151.5 185,-151.5 185,-94.5 -1.42109e-14,-94.5"/>
<text text-anchor="middle" x="92.5" y="-139.5" font-family="Helvetica,sans-Serif" font-size="10.00">memoryoracle.tracked.ProgramFile</text>
<polyline fill="none" stroke="black" points="-1.42109e-14,-132.5 185,-132.5 "/>
<text text-anchor="middle" x="92.5" y="-120.5" font-family="Helvetica,sans-Serif" font-size="10.00"> </text>
<polyline fill="none" stroke="black" points="-1.42109e-14,-113.5 185,-113.5 "/>
<text text-anchor="middle" x="92.5" y="-101.5" font-family="Helvetica,sans-Serif" font-size="10.00"> </text>
</a>
</g>
</g>
<!-- Node2&#45;&gt;Node1 -->
<g id="edge1" class="edge"><title>Node2&#45;&gt;Node1</title>
<path fill="none" stroke="midnightblue" d="M92.5,-84.2092C92.5,-75.2929 92.5,-65.9513 92.5,-57.5836"/>
<polygon fill="none" stroke="midnightblue" points="89.0001,-84.3969 92.5,-94.397 96.0001,-84.397 89.0001,-84.3969"/>
</g>
<!-- Node3 -->
<g id="node3" class="node"><title>Node3</title>
<g id="a_node3"><a xlink:href="classmemoryoracle_1_1tracked_1_1Tracked.html" target="_top" xlink:title="{memoryoracle.tracked.Tracked\n|+ meta\l|+ track()\l+ description()\l}">
<polygon fill="none" stroke="black" points="10.5,-188.5 10.5,-256.5 174.5,-256.5 174.5,-188.5 10.5,-188.5"/>
<text text-anchor="middle" x="92.5" y="-244.5" font-family="Helvetica,sans-Serif" font-size="10.00">memoryoracle.tracked.Tracked</text>
<polyline fill="none" stroke="black" points="10.5,-237.5 174.5,-237.5 "/>
<text text-anchor="start" x="18.5" y="-225.5" font-family="Helvetica,sans-Serif" font-size="10.00">+ meta</text>
<polyline fill="none" stroke="black" points="10.5,-218.5 174.5,-218.5 "/>
<text text-anchor="start" x="18.5" y="-206.5" font-family="Helvetica,sans-Serif" font-size="10.00">+ track()</text>
<text text-anchor="start" x="18.5" y="-195.5" font-family="Helvetica,sans-Serif" font-size="10.00">+ description()</text>
</a>
</g>
</g>
<!-- Node3&#45;&gt;Node2 -->
<g id="edge2" class="edge"><title>Node3&#45;&gt;Node2</title>
<path fill="none" stroke="midnightblue" d="M92.5,-178.454C92.5,-169.404 92.5,-160.088 92.5,-151.777"/>
<polygon fill="none" stroke="midnightblue" points="89.0001,-178.491 92.5,-188.491 96.0001,-178.491 89.0001,-178.491"/>
</g>
<!-- Node4 -->
<g id="node4" class="node"><title>Node4</title>
<polygon fill="none" stroke="#bfbfbf" points="59,-293.5 59,-350.5 126,-350.5 126,-293.5 59,-293.5"/>
<text text-anchor="middle" x="92.5" y="-338.5" font-family="Helvetica,sans-Serif" font-size="10.00">Document</text>
<polyline fill="none" stroke="#bfbfbf" points="59,-331.5 126,-331.5 "/>
<text text-anchor="middle" x="92.5" y="-319.5" font-family="Helvetica,sans-Serif" font-size="10.00"> </text>
<polyline fill="none" stroke="#bfbfbf" points="59,-312.5 126,-312.5 "/>
<text text-anchor="middle" x="92.5" y="-300.5" font-family="Helvetica,sans-Serif" font-size="10.00"> </text>
</g>
<!-- Node4&#45;&gt;Node3 -->
<g id="edge3" class="edge"><title>Node4&#45;&gt;Node3</title>
<path fill="none" stroke="midnightblue" d="M92.5,-283.063C92.5,-274.393 92.5,-265.243 92.5,-256.786"/>
<polygon fill="none" stroke="midnightblue" points="89.0001,-283.321 92.5,-293.321 96.0001,-283.321 89.0001,-283.321"/>
</g>
</g>
</svg>
