<?xml version="1.0" encoding="UTF-8" standalone="no"?>
<!DOCTYPE svg PUBLIC "-//W3C//DTD SVG 1.1//EN"
 "http://www.w3.org/Graphics/SVG/1.1/DTD/svg11.dtd">
<!-- Generated by graphviz version 2.38.0 (20140413.2041)
 -->
<!-- Title: memoryoracle.whip.WhipDecorator.name Pages: 1 -->
<svg width="921pt" height="165pt"
 viewBox="0.00 0.00 921.00 164.50" xmlns="http://www.w3.org/2000/svg" xmlns:xlink="http://www.w3.org/1999/xlink">
<g id="graph0" class="graph" transform="scale(1 1) rotate(0) translate(4 160.5)">
<title>memoryoracle.whip.WhipDecorator.name</title>
<!-- Node1 -->
<g id="node1" class="node"><title>Node1</title>
<polygon fill="#bfbfbf" stroke="black" points="0,-63.5 0,-82.5 214,-82.5 214,-63.5 0,-63.5"/>
<text text-anchor="middle" x="107" y="-70.5" font-family="Helvetica,sans-Serif" font-size="10.00">memoryoracle.whip.WhipDecorator.name</text>
</g>
<!-- Node2 -->
<g id="node2" class="node"><title>Node2</title>
<g id="a_node2"><a xlink:href="classmemoryoracle_1_1instance_1_1Structure.html#a200a54be462e0199b7833cbd11f81a52" target="_top" xlink:title="memoryoracle.instance.Structure.\l_track">
<polygon fill="none" stroke="black" points="250,-83 250,-113 431,-113 431,-83 250,-83"/>
<text text-anchor="start" x="258" y="-101" font-family="Helvetica,sans-Serif" font-size="10.00">memoryoracle.instance.Structure.</text>
<text text-anchor="middle" x="340.5" y="-90" font-family="Helvetica,sans-Serif" font-size="10.00">_track</text>
</a>
</g>
</g>
<!-- Node1&#45;&gt;Node2 -->
<g id="edge1" class="edge"><title>Node1&#45;&gt;Node2</title>
<path fill="none" stroke="midnightblue" d="M206.527,-83.6401C220.841,-85.1859 235.515,-86.7705 249.645,-88.2965"/>
<polygon fill="midnightblue" stroke="midnightblue" points="206.499,-80.1167 196.181,-82.5227 205.747,-87.0763 206.499,-80.1167"/>
</g>
<!-- Node9 -->
<g id="node9" class="node"><title>Node9</title>
<g id="a_node9"><a xlink:href="classmemoryoracle_1_1instance_1_1Array.html#a1d8c3993d8a52bfbec8240d6f79b3ce1" target="_top" xlink:title="memoryoracle.instance.Array.\l_track">
<polygon fill="none" stroke="black" points="260.5,-34 260.5,-64 420.5,-64 420.5,-34 260.5,-34"/>
<text text-anchor="start" x="268.5" y="-52" font-family="Helvetica,sans-Serif" font-size="10.00">memoryoracle.instance.Array.</text>
<text text-anchor="middle" x="340.5" y="-41" font-family="Helvetica,sans-Serif" font-size="10.00">_track</text>
</a>
</g>
</g>
<!-- Node1&#45;&gt;Node9 -->
<g id="edge11" class="edge"><title>Node1&#45;&gt;Node9</title>
<path fill="none" stroke="midnightblue" d="M209.776,-62.4487C226.773,-60.6866 244.177,-58.8823 260.494,-57.1907"/>
<polygon fill="midnightblue" stroke="midnightblue" points="209.413,-58.9675 199.827,-63.4801 210.135,-65.9302 209.413,-58.9675"/>
</g>
<!-- Node3 -->
<g id="node3" class="node"><title>Node3</title>
<g id="a_node3"><a xlink:href="classmemoryoracle_1_1instance_1_1Instance.html#a86649e01ee4f562debdba5421a334f78" target="_top" xlink:title="memoryoracle.instance.Instance.track">
<polygon fill="none" stroke="black" points="467,-41.5 467,-60.5 667,-60.5 667,-41.5 467,-41.5"/>
<text text-anchor="middle" x="567" y="-48.5" font-family="Helvetica,sans-Serif" font-size="10.00">memoryoracle.instance.Instance.track</text>
</a>
</g>
</g>
<!-- Node2&#45;&gt;Node3 -->
<g id="edge2" class="edge"><title>Node2&#45;&gt;Node3</title>
<path fill="none" stroke="midnightblue" d="M423.188,-80.8984C455.963,-74.0367 492.501,-66.3873 520.415,-60.5434"/>
<polygon fill="midnightblue" stroke="midnightblue" points="422.221,-77.5248 413.15,-82.9997 423.655,-84.3762 422.221,-77.5248"/>
</g>
<!-- Node8 -->
<g id="node8" class="node"><title>Node8</title>
<g id="a_node8"><a xlink:href="classmemoryoracle_1_1models_1_1Typed.html#aa1d5d8d5b7ebe5c2876f363e7eb669db" target="_top" xlink:title="memoryoracle.models.Typed.track">
<polygon fill="none" stroke="black" points="476,-82.5 476,-101.5 658,-101.5 658,-82.5 476,-82.5"/>
<text text-anchor="middle" x="567" y="-89.5" font-family="Helvetica,sans-Serif" font-size="10.00">memoryoracle.models.Typed.track</text>
</a>
</g>
</g>
<!-- Node2&#45;&gt;Node8 -->
<g id="edge7" class="edge"><title>Node2&#45;&gt;Node8</title>
<path fill="none" stroke="midnightblue" d="M441.228,-95.3347C452.709,-95.0278 464.367,-94.7163 475.713,-94.413"/>
<polygon fill="midnightblue" stroke="midnightblue" points="441.099,-91.8368 431.196,-95.6028 441.286,-98.8343 441.099,-91.8368"/>
</g>
<!-- Node4 -->
<g id="node4" class="node"><title>Node4</title>
<g id="a_node4"><a xlink:href="classmemoryoracle_1_1models_1_1Typed.html#a494dfbe205034b874ff9e8c7039f579b" target="_top" xlink:title="memoryoracle.models.Typed.\l__init__">
<polygon fill="none" stroke="black" points="729,-126 729,-156 887,-156 887,-126 729,-126"/>
<text text-anchor="start" x="737" y="-144" font-family="Helvetica,sans-Serif" font-size="10.00">memoryoracle.models.Typed.</text>
<text text-anchor="middle" x="808" y="-133" font-family="Helvetica,sans-Serif" font-size="10.00">__init__</text>
</a>
</g>
</g>
<!-- Node3&#45;&gt;Node4 -->
<g id="edge3" class="edge"><title>Node3&#45;&gt;Node4</title>
<path fill="none" stroke="midnightblue" d="M648.219,-63.8698C654.8,-66.3911 661.157,-69.4029 667,-73 688.516,-86.2469 681.538,-103.666 703,-117 710.949,-121.938 719.808,-125.862 728.91,-128.98"/>
<polygon fill="midnightblue" stroke="midnightblue" points="649.046,-60.4534 638.452,-60.5157 646.773,-67.0739 649.046,-60.4534"/>
</g>
<!-- Node5 -->
<g id="node5" class="node"><title>Node5</title>
<g id="a_node5"><a xlink:href="classmemoryoracle_1_1models_1_1Memory.html#aed3af349dd80317ae9cca4b4e9cb7c26" target="_top" xlink:title="memoryoracle.models.Memory.\l__init__">
<polygon fill="none" stroke="black" points="724,-77 724,-107 892,-107 892,-77 724,-77"/>
<text text-anchor="start" x="732" y="-95" font-family="Helvetica,sans-Serif" font-size="10.00">memoryoracle.models.Memory.</text>
<text text-anchor="middle" x="808" y="-84" font-family="Helvetica,sans-Serif" font-size="10.00">__init__</text>
</a>
</g>
</g>
<!-- Node3&#45;&gt;Node5 -->
<g id="edge4" class="edge"><title>Node3&#45;&gt;Node5</title>
<path fill="none" stroke="midnightblue" d="M633.461,-62.2297C661.333,-67.0112 694.174,-72.645 723.745,-77.7177"/>
<polygon fill="midnightblue" stroke="midnightblue" points="633.88,-58.7505 623.432,-60.5093 632.696,-65.6498 633.88,-58.7505"/>
</g>
<!-- Node6 -->
<g id="node6" class="node"><title>Node6</title>
<g id="a_node6"><a xlink:href="classmemoryoracle_1_1instance_1_1Instance.html#a286e015a030541a0704994172024f034" target="_top" xlink:title="memoryoracle.instance.Instance.update">
<polygon fill="none" stroke="black" points="703,-0.5 703,-19.5 913,-19.5 913,-0.5 703,-0.5"/>
<text text-anchor="middle" x="808" y="-7.5" font-family="Helvetica,sans-Serif" font-size="10.00">memoryoracle.instance.Instance.update</text>
</a>
</g>
</g>
<!-- Node3&#45;&gt;Node6 -->
<g id="edge5" class="edge"><title>Node3&#45;&gt;Node6</title>
<path fill="none" stroke="midnightblue" d="M633.614,-39.7441C670.587,-33.4014 716.266,-25.5653 751.455,-19.5286"/>
<polygon fill="midnightblue" stroke="midnightblue" points="632.696,-36.3502 623.432,-41.4907 633.88,-43.2495 632.696,-36.3502"/>
</g>
<!-- Node7 -->
<g id="node7" class="node"><title>Node7</title>
<g id="a_node7"><a xlink:href="classmemoryoracle_1_1models_1_1Memory.html#a71d4a141abc3358afdf1a1325bfd4253" target="_top" xlink:title="memoryoracle.models.Memory.update">
<polygon fill="none" stroke="black" points="707,-38.5 707,-57.5 909,-57.5 909,-38.5 707,-38.5"/>
<text text-anchor="middle" x="808" y="-45.5" font-family="Helvetica,sans-Serif" font-size="10.00">memoryoracle.models.Memory.update</text>
</a>
</g>
</g>
<!-- Node3&#45;&gt;Node7 -->
<g id="edge6" class="edge"><title>Node3&#45;&gt;Node7</title>
<path fill="none" stroke="midnightblue" d="M677.454,-49.6261C687.259,-49.503 697.154,-49.3788 706.873,-49.2568"/>
<polygon fill="midnightblue" stroke="midnightblue" points="677.236,-46.1285 667.281,-49.7538 677.324,-53.1279 677.236,-46.1285"/>
</g>
<!-- Node8&#45;&gt;Node4 -->
<g id="edge8" class="edge"><title>Node8&#45;&gt;Node4</title>
<path fill="none" stroke="midnightblue" d="M624.189,-103.52C656.815,-110.209 698.292,-118.713 733.489,-125.929"/>
<polygon fill="midnightblue" stroke="midnightblue" points="624.864,-100.086 614.365,-101.506 623.458,-106.943 624.864,-100.086"/>
</g>
<!-- Node8&#45;&gt;Node5 -->
<g id="edge9" class="edge"><title>Node8&#45;&gt;Node5</title>
<path fill="none" stroke="midnightblue" d="M668.214,-92C686.71,-92 705.839,-92 723.765,-92"/>
<polygon fill="midnightblue" stroke="midnightblue" points="668.015,-88.5001 658.015,-92 668.015,-95.5001 668.015,-88.5001"/>
</g>
<!-- Node8&#45;&gt;Node7 -->
<g id="edge10" class="edge"><title>Node8&#45;&gt;Node7</title>
<path fill="none" stroke="midnightblue" d="M629.292,-80.6174C652.393,-76.3357 678.903,-71.4323 703,-67 719.788,-63.912 738.104,-60.5602 754.621,-57.5437"/>
<polygon fill="midnightblue" stroke="midnightblue" points="628.473,-77.2094 619.279,-82.4738 629.749,-84.0921 628.473,-77.2094"/>
</g>
<!-- Node9&#45;&gt;Node3 -->
<g id="edge12" class="edge"><title>Node9&#45;&gt;Node3</title>
<path fill="none" stroke="midnightblue" d="M430.893,-49.7964C442.667,-49.9013 454.791,-50.0093 466.717,-50.1155"/>
<polygon fill="midnightblue" stroke="midnightblue" points="430.681,-46.2944 420.65,-49.7051 430.619,-53.2942 430.681,-46.2944"/>
</g>
<!-- Node9&#45;&gt;Node8 -->
<g id="edge13" class="edge"><title>Node9&#45;&gt;Node8</title>
<path fill="none" stroke="midnightblue" d="M429.879,-65.9277C459.246,-71.5527 490.899,-77.6154 516.285,-82.4777"/>
<polygon fill="midnightblue" stroke="midnightblue" points="430.499,-62.4831 420.019,-64.0393 429.182,-69.3581 430.499,-62.4831"/>
</g>
</g>
</svg>
