<?xml version="1.0" encoding="UTF-8" standalone="no"?>
<!DOCTYPE svg PUBLIC "-//W3C//DTD SVG 1.1//EN"
 "http://www.w3.org/Graphics/SVG/1.1/DTD/svg11.dtd">
<!-- Generated by graphviz version 2.38.0 (20140413.2041)
 -->
<!-- Title: memoryoracle.instance.VolatileDecorator Pages: 1 -->
<svg width="180pt" height="783pt"
 viewBox="0.00 0.00 180.00 783.00" xmlns="http://www.w3.org/2000/svg" xmlns:xlink="http://www.w3.org/1999/xlink">
<g id="graph0" class="graph" transform="scale(1 1) rotate(0) translate(4 779)">
<title>memoryoracle.instance.VolatileDecorator</title>
<!-- Node1 -->
<g id="node1" class="node"><title>Node1</title>
<polygon fill="#bfbfbf" stroke="black" points="2.5,-0.5 2.5,-68.5 169.5,-68.5 169.5,-0.5 2.5,-0.5"/>
<text text-anchor="start" x="10.5" y="-56.5" font-family="Helvetica,sans-Serif" font-size="10.00">memoryoracle.instance.Volatile</text>
<text text-anchor="middle" x="86" y="-45.5" font-family="Helvetica,sans-Serif" font-size="10.00">Decorator</text>
<polyline fill="none" stroke="black" points="2.5,-38.5 169.5,-38.5 "/>
<text text-anchor="middle" x="86" y="-26.5" font-family="Helvetica,sans-Serif" font-size="10.00"> </text>
<polyline fill="none" stroke="black" points="2.5,-19.5 169.5,-19.5 "/>
<text text-anchor="middle" x="86" y="-7.5" font-family="Helvetica,sans-Serif" font-size="10.00"> </text>
</g>
<!-- Node2 -->
<g id="node2" class="node"><title>Node2</title>
<g id="a_node2"><a xlink:href="classmemoryoracle_1_1instance_1_1Memory.html" target="_top" xlink:title="{memoryoracle.instance.Memory\n|+ unaliased_type\l+ dynamic_type\l+ address\l+ name\l+ frame\l+ execution\l+ type\l+ dynamic_type\l+ unaliased_type\l+ parent\l+ meta\l&#45; _description\l&#45; _object\l&#45; _addressFixer\l&#45; _updatedNames\l&#45; _watchers\l&#45; _execution\l&#45; _updateTracker\l|+ __init__()\l+ index()\l+ factory()\l+ track()\l+ update()\l+ watchers()\l+ extract_dynamic_type()\l&#45; _fetch()\l&#45; _basic_track()\l&#45; _clear_updated()\l&#45; _set_execution()\l}">
<polygon fill="none" stroke="black" points="0,-105.5 0,-459.5 172,-459.5 172,-105.5 0,-105.5"/>
<text text-anchor="middle" x="86" y="-447.5" font-family="Helvetica,sans-Serif" font-size="10.00">memoryoracle.instance.Memory</text>
<polyline fill="none" stroke="black" points="0,-440.5 172,-440.5 "/>
<text text-anchor="start" x="8" y="-428.5" font-family="Helvetica,sans-Serif" font-size="10.00">+ unaliased_type</text>
<text text-anchor="start" x="8" y="-417.5" font-family="Helvetica,sans-Serif" font-size="10.00">+ dynamic_type</text>
<text text-anchor="start" x="8" y="-406.5" font-family="Helvetica,sans-Serif" font-size="10.00">+ address</text>
<text text-anchor="start" x="8" y="-395.5" font-family="Helvetica,sans-Serif" font-size="10.00">+ name</text>
<text text-anchor="start" x="8" y="-384.5" font-family="Helvetica,sans-Serif" font-size="10.00">+ frame</text>
<text text-anchor="start" x="8" y="-373.5" font-family="Helvetica,sans-Serif" font-size="10.00">+ execution</text>
<text text-anchor="start" x="8" y="-362.5" font-family="Helvetica,sans-Serif" font-size="10.00">+ type</text>
<text text-anchor="start" x="8" y="-351.5" font-family="Helvetica,sans-Serif" font-size="10.00">+ dynamic_type</text>
<text text-anchor="start" x="8" y="-340.5" font-family="Helvetica,sans-Serif" font-size="10.00">+ unaliased_type</text>
<text text-anchor="start" x="8" y="-329.5" font-family="Helvetica,sans-Serif" font-size="10.00">+ parent</text>
<text text-anchor="start" x="8" y="-318.5" font-family="Helvetica,sans-Serif" font-size="10.00">+ meta</text>
<text text-anchor="start" x="8" y="-307.5" font-family="Helvetica,sans-Serif" font-size="10.00">&#45; _description</text>
<text text-anchor="start" x="8" y="-296.5" font-family="Helvetica,sans-Serif" font-size="10.00">&#45; _object</text>
<text text-anchor="start" x="8" y="-285.5" font-family="Helvetica,sans-Serif" font-size="10.00">&#45; _addressFixer</text>
<text text-anchor="start" x="8" y="-274.5" font-family="Helvetica,sans-Serif" font-size="10.00">&#45; _updatedNames</text>
<text text-anchor="start" x="8" y="-263.5" font-family="Helvetica,sans-Serif" font-size="10.00">&#45; _watchers</text>
<text text-anchor="start" x="8" y="-252.5" font-family="Helvetica,sans-Serif" font-size="10.00">&#45; _execution</text>
<text text-anchor="start" x="8" y="-241.5" font-family="Helvetica,sans-Serif" font-size="10.00">&#45; _updateTracker</text>
<polyline fill="none" stroke="black" points="0,-234.5 172,-234.5 "/>
<text text-anchor="start" x="8" y="-222.5" font-family="Helvetica,sans-Serif" font-size="10.00">+ __init__()</text>
<text text-anchor="start" x="8" y="-211.5" font-family="Helvetica,sans-Serif" font-size="10.00">+ index()</text>
<text text-anchor="start" x="8" y="-200.5" font-family="Helvetica,sans-Serif" font-size="10.00">+ factory()</text>
<text text-anchor="start" x="8" y="-189.5" font-family="Helvetica,sans-Serif" font-size="10.00">+ track()</text>
<text text-anchor="start" x="8" y="-178.5" font-family="Helvetica,sans-Serif" font-size="10.00">+ update()</text>
<text text-anchor="start" x="8" y="-167.5" font-family="Helvetica,sans-Serif" font-size="10.00">+ watchers()</text>
<text text-anchor="start" x="8" y="-156.5" font-family="Helvetica,sans-Serif" font-size="10.00">+ extract_dynamic_type()</text>
<text text-anchor="start" x="8" y="-145.5" font-family="Helvetica,sans-Serif" font-size="10.00">&#45; _fetch()</text>
<text text-anchor="start" x="8" y="-134.5" font-family="Helvetica,sans-Serif" font-size="10.00">&#45; _basic_track()</text>
<text text-anchor="start" x="8" y="-123.5" font-family="Helvetica,sans-Serif" font-size="10.00">&#45; _clear_updated()</text>
<text text-anchor="start" x="8" y="-112.5" font-family="Helvetica,sans-Serif" font-size="10.00">&#45; _set_execution()</text>
</a>
</g>
</g>
<!-- Node2&#45;&gt;Node1 -->
<g id="edge1" class="edge"><title>Node2&#45;&gt;Node1</title>
<path fill="none" stroke="midnightblue" d="M86,-95.0798C86,-85.4709 86,-76.5728 86,-68.7406"/>
<polygon fill="none" stroke="midnightblue" points="82.5001,-95.3357 86,-105.336 89.5001,-95.3357 82.5001,-95.3357"/>
</g>
<!-- Node3 -->
<g id="node3" class="node"><title>Node3</title>
<g id="a_node3"><a xlink:href="classmemoryoracle_1_1typed_1_1Typed.html" target="_top" xlink:title="{memoryoracle.typed.Typed\n||+ type_code()\l+ gdb_type()\l+ object()\l}">
<polygon fill="none" stroke="black" points="13,-496.5 13,-575.5 159,-575.5 159,-496.5 13,-496.5"/>
<text text-anchor="middle" x="86" y="-563.5" font-family="Helvetica,sans-Serif" font-size="10.00">memoryoracle.typed.Typed</text>
<polyline fill="none" stroke="black" points="13,-556.5 159,-556.5 "/>
<text text-anchor="middle" x="86" y="-544.5" font-family="Helvetica,sans-Serif" font-size="10.00"> </text>
<polyline fill="none" stroke="black" points="13,-537.5 159,-537.5 "/>
<text text-anchor="start" x="21" y="-525.5" font-family="Helvetica,sans-Serif" font-size="10.00">+ type_code()</text>
<text text-anchor="start" x="21" y="-514.5" font-family="Helvetica,sans-Serif" font-size="10.00">+ gdb_type()</text>
<text text-anchor="start" x="21" y="-503.5" font-family="Helvetica,sans-Serif" font-size="10.00">+ object()</text>
</a>
</g>
</g>
<!-- Node3&#45;&gt;Node2 -->
<g id="edge2" class="edge"><title>Node3&#45;&gt;Node2</title>
<path fill="none" stroke="midnightblue" d="M86,-486.196C86,-477.935 86,-468.955 86,-459.522"/>
<polygon fill="none" stroke="midnightblue" points="82.5001,-486.254 86,-496.254 89.5001,-486.254 82.5001,-486.254"/>
</g>
<!-- Node4 -->
<g id="node4" class="node"><title>Node4</title>
<g id="a_node4"><a xlink:href="classmemoryoracle_1_1tracked_1_1Tracked.html" target="_top" xlink:title="{memoryoracle.tracked.Tracked\n|+ meta\l|+ track()\l+ description()\l}">
<polygon fill="none" stroke="black" points="4,-612.5 4,-680.5 168,-680.5 168,-612.5 4,-612.5"/>
<text text-anchor="middle" x="86" y="-668.5" font-family="Helvetica,sans-Serif" font-size="10.00">memoryoracle.tracked.Tracked</text>
<polyline fill="none" stroke="black" points="4,-661.5 168,-661.5 "/>
<text text-anchor="start" x="12" y="-649.5" font-family="Helvetica,sans-Serif" font-size="10.00">+ meta</text>
<polyline fill="none" stroke="black" points="4,-642.5 168,-642.5 "/>
<text text-anchor="start" x="12" y="-630.5" font-family="Helvetica,sans-Serif" font-size="10.00">+ track()</text>
<text text-anchor="start" x="12" y="-619.5" font-family="Helvetica,sans-Serif" font-size="10.00">+ description()</text>
</a>
</g>
</g>
<!-- Node4&#45;&gt;Node3 -->
<g id="edge3" class="edge"><title>Node4&#45;&gt;Node3</title>
<path fill="none" stroke="midnightblue" d="M86,-602.274C86,-593.476 86,-584.275 86,-575.649"/>
<polygon fill="none" stroke="midnightblue" points="82.5001,-602.357 86,-612.357 89.5001,-602.357 82.5001,-602.357"/>
</g>
<!-- Node5 -->
<g id="node5" class="node"><title>Node5</title>
<polygon fill="none" stroke="#bfbfbf" points="52.5,-717.5 52.5,-774.5 119.5,-774.5 119.5,-717.5 52.5,-717.5"/>
<text text-anchor="middle" x="86" y="-762.5" font-family="Helvetica,sans-Serif" font-size="10.00">Document</text>
<polyline fill="none" stroke="#bfbfbf" points="52.5,-755.5 119.5,-755.5 "/>
<text text-anchor="middle" x="86" y="-743.5" font-family="Helvetica,sans-Serif" font-size="10.00"> </text>
<polyline fill="none" stroke="#bfbfbf" points="52.5,-736.5 119.5,-736.5 "/>
<text text-anchor="middle" x="86" y="-724.5" font-family="Helvetica,sans-Serif" font-size="10.00"> </text>
</g>
<!-- Node5&#45;&gt;Node4 -->
<g id="edge4" class="edge"><title>Node5&#45;&gt;Node4</title>
<path fill="none" stroke="midnightblue" d="M86,-707.063C86,-698.393 86,-689.243 86,-680.786"/>
<polygon fill="none" stroke="midnightblue" points="82.5001,-707.321 86,-717.321 89.5001,-707.321 82.5001,-707.321"/>
</g>
</g>
</svg>
