<?xml version="1.0" encoding="UTF-8" standalone="no"?>
<!DOCTYPE svg PUBLIC "-//W3C//DTD SVG 1.1//EN"
 "http://www.w3.org/Graphics/SVG/1.1/DTD/svg11.dtd">
<!-- Generated by graphviz version 2.38.0 (20140413.2041)
 -->
<!-- Title: memoryoracle.instance.Call._track Pages: 1 -->
<svg width="643pt" height="116pt"
 viewBox="0.00 0.00 643.00 116.00" xmlns="http://www.w3.org/2000/svg" xmlns:xlink="http://www.w3.org/1999/xlink">
<g id="graph0" class="graph" transform="scale(1 1) rotate(0) translate(4 112)">
<title>memoryoracle.instance.Call._track</title>
<!-- Node1 -->
<g id="node1" class="node"><title>Node1</title>
<polygon fill="#bfbfbf" stroke="black" points="0,-20 0,-50 153,-50 153,-20 0,-20"/>
<text text-anchor="start" x="8" y="-38" font-family="Helvetica,sans-Serif" font-size="10.00">memoryoracle.instance.Call.</text>
<text text-anchor="middle" x="76.5" y="-27" font-family="Helvetica,sans-Serif" font-size="10.00">_track</text>
</g>
<!-- Node2 -->
<g id="node2" class="node"><title>Node2</title>
<g id="a_node2"><a xlink:href="classmemoryoracle_1_1instance_1_1Instance.html#a86649e01ee4f562debdba5421a334f78" target="_top" xlink:title="memoryoracle.instance.Instance.track">
<polygon fill="none" stroke="black" points="189,-44.5 189,-63.5 389,-63.5 389,-44.5 189,-44.5"/>
<text text-anchor="middle" x="289" y="-51.5" font-family="Helvetica,sans-Serif" font-size="10.00">memoryoracle.instance.Instance.track</text>
</a>
</g>
</g>
<!-- Node1&#45;&gt;Node2 -->
<g id="edge1" class="edge"><title>Node1&#45;&gt;Node2</title>
<path fill="none" stroke="midnightblue" d="M163.329,-42.7471C171.717,-43.5041 180.275,-44.2766 188.78,-45.0443"/>
<polygon fill="midnightblue" stroke="midnightblue" points="163.472,-39.2458 153.198,-41.8326 162.843,-46.2175 163.472,-39.2458"/>
</g>
<!-- Node6 -->
<g id="node6" class="node"><title>Node6</title>
<g id="a_node6"><a xlink:href="classmemoryoracle_1_1models_1_1Memory.html#a27f8d94aeb19f8101c29a673c7bae4a1" target="_top" xlink:title="memoryoracle.models.Memory.track">
<polygon fill="none" stroke="black" points="193,-6.5 193,-25.5 385,-25.5 385,-6.5 193,-6.5"/>
<text text-anchor="middle" x="289" y="-13.5" font-family="Helvetica,sans-Serif" font-size="10.00">memoryoracle.models.Memory.track</text>
</a>
</g>
</g>
<!-- Node1&#45;&gt;Node6 -->
<g id="edge5" class="edge"><title>Node1&#45;&gt;Node6</title>
<path fill="none" stroke="midnightblue" d="M163.248,-27.2603C172.985,-26.3814 182.954,-25.4816 192.804,-24.5925"/>
<polygon fill="midnightblue" stroke="midnightblue" points="162.843,-23.7825 153.198,-28.1674 163.472,-30.7542 162.843,-23.7825"/>
</g>
<!-- Node3 -->
<g id="node3" class="node"><title>Node3</title>
<g id="a_node3"><a xlink:href="classmemoryoracle_1_1instance_1_1Instance.html#a286e015a030541a0704994172024f034" target="_top" xlink:title="memoryoracle.instance.Instance.update">
<polygon fill="none" stroke="black" points="425,-88.5 425,-107.5 635,-107.5 635,-88.5 425,-88.5"/>
<text text-anchor="middle" x="530" y="-95.5" font-family="Helvetica,sans-Serif" font-size="10.00">memoryoracle.instance.Instance.update</text>
</a>
</g>
</g>
<!-- Node2&#45;&gt;Node3 -->
<g id="edge2" class="edge"><title>Node2&#45;&gt;Node3</title>
<path fill="none" stroke="midnightblue" d="M351.292,-65.3826C374.393,-69.6643 400.903,-74.5677 425,-79 441.788,-82.088 460.104,-85.4398 476.621,-88.4563"/>
<polygon fill="midnightblue" stroke="midnightblue" points="351.749,-61.9079 341.279,-63.5262 350.473,-68.7906 351.749,-61.9079"/>
</g>
<!-- Node4 -->
<g id="node4" class="node"><title>Node4</title>
<g id="a_node4"><a xlink:href="classmemoryoracle_1_1models_1_1Memory.html#a71d4a141abc3358afdf1a1325bfd4253" target="_top" xlink:title="memoryoracle.models.Memory.update">
<polygon fill="none" stroke="black" points="429,-0.5 429,-19.5 631,-19.5 631,-0.5 429,-0.5"/>
<text text-anchor="middle" x="530" y="-7.5" font-family="Helvetica,sans-Serif" font-size="10.00">memoryoracle.models.Memory.update</text>
</a>
</g>
</g>
<!-- Node2&#45;&gt;Node4 -->
<g id="edge3" class="edge"><title>Node2&#45;&gt;Node4</title>
<path fill="none" stroke="midnightblue" d="M351.292,-42.6174C374.393,-38.3357 400.903,-33.4323 425,-29 441.788,-25.912 460.104,-22.5602 476.621,-19.5437"/>
<polygon fill="midnightblue" stroke="midnightblue" points="350.473,-39.2094 341.279,-44.4738 351.749,-46.0921 350.473,-39.2094"/>
</g>
<!-- Node5 -->
<g id="node5" class="node"><title>Node5</title>
<g id="a_node5"><a xlink:href="classmemoryoracle_1_1models_1_1Memory.html#aed3af349dd80317ae9cca4b4e9cb7c26" target="_top" xlink:title="memoryoracle.models.Memory.\l__init__">
<polygon fill="none" stroke="black" points="446,-39 446,-69 614,-69 614,-39 446,-39"/>
<text text-anchor="start" x="454" y="-57" font-family="Helvetica,sans-Serif" font-size="10.00">memoryoracle.models.Memory.</text>
<text text-anchor="middle" x="530" y="-46" font-family="Helvetica,sans-Serif" font-size="10.00">__init__</text>
</a>
</g>
</g>
<!-- Node2&#45;&gt;Node5 -->
<g id="edge4" class="edge"><title>Node2&#45;&gt;Node5</title>
<path fill="none" stroke="midnightblue" d="M399.5,-54C415.117,-54 430.964,-54 445.964,-54"/>
<polygon fill="midnightblue" stroke="midnightblue" points="399.281,-50.5001 389.281,-54 399.281,-57.5001 399.281,-50.5001"/>
</g>
<!-- Node6&#45;&gt;Node4 -->
<g id="edge6" class="edge"><title>Node6&#45;&gt;Node4</title>
<path fill="none" stroke="midnightblue" d="M395.283,-13.3569C406.385,-13.0782 417.652,-12.7953 428.695,-12.5181"/>
<polygon fill="midnightblue" stroke="midnightblue" points="395.055,-9.86144 385.146,-13.6114 395.231,-16.8592 395.055,-9.86144"/>
</g>
<!-- Node6&#45;&gt;Node5 -->
<g id="edge7" class="edge"><title>Node6&#45;&gt;Node5</title>
<path fill="none" stroke="midnightblue" d="M360.097,-27.1452C386.995,-31.4218 417.946,-36.3429 445.945,-40.7947"/>
<polygon fill="midnightblue" stroke="midnightblue" points="360.427,-23.6537 350.001,-25.54 359.328,-30.5669 360.427,-23.6537"/>
</g>
</g>
</svg>
