<?xml version="1.0" encoding="UTF-8" standalone="no"?>
<!DOCTYPE svg PUBLIC "-//W3C//DTD SVG 1.1//EN"
 "http://www.w3.org/Graphics/SVG/1.1/DTD/svg11.dtd">
<!-- Generated by graphviz version 2.38.0 (20140413.2041)
 -->
<!-- Title: memoryoracle.descriptions.InstanceDescription.object Pages: 1 -->
<svg width="1037pt" height="166pt"
 viewBox="0.00 0.00 1037.00 165.50" xmlns="http://www.w3.org/2000/svg" xmlns:xlink="http://www.w3.org/1999/xlink">
<g id="graph0" class="graph" transform="scale(1 1) rotate(0) translate(4 161.5)">
<title>memoryoracle.descriptions.InstanceDescription.object</title>
<!-- Node1 -->
<g id="node1" class="node"><title>Node1</title>
<polygon fill="#bfbfbf" stroke="black" points="0,-63.5 0,-93.5 150,-93.5 150,-63.5 0,-63.5"/>
<text text-anchor="start" x="8" y="-81.5" font-family="Helvetica,sans-Serif" font-size="10.00">memoryoracle.descriptions.</text>
<text text-anchor="middle" x="75" y="-70.5" font-family="Helvetica,sans-Serif" font-size="10.00">InstanceDescription.object</text>
</g>
<!-- Node2 -->
<g id="node2" class="node"><title>Node2</title>
<g id="a_node2"><a xlink:href="classmemoryoracle_1_1instance_1_1Int.html#a450a73bc8aaf1a7ac5f18c3ed1a933fc" target="_top" xlink:title="memoryoracle.instance.Int.\l_find_hidden_type">
<polygon fill="none" stroke="black" points="186,-109.5 186,-139.5 334,-139.5 334,-109.5 186,-109.5"/>
<text text-anchor="start" x="194" y="-127.5" font-family="Helvetica,sans-Serif" font-size="10.00">memoryoracle.instance.Int.</text>
<text text-anchor="middle" x="260" y="-116.5" font-family="Helvetica,sans-Serif" font-size="10.00">_find_hidden_type</text>
</a>
</g>
</g>
<!-- Node1&#45;&gt;Node2 -->
<g id="edge1" class="edge"><title>Node1&#45;&gt;Node2</title>
<path fill="none" stroke="midnightblue" d="M146.096,-96.1197C163.631,-100.527 182.277,-105.214 199.257,-109.483"/>
<polygon fill="midnightblue" stroke="midnightblue" points="146.473,-92.6056 135.921,-93.5621 144.766,-99.3944 146.473,-92.6056"/>
</g>
<!-- Node10 -->
<g id="node10" class="node"><title>Node10</title>
<g id="a_node10"><a xlink:href="classmemoryoracle_1_1instance_1_1Array.html#a1d8c3993d8a52bfbec8240d6f79b3ce1" target="_top" xlink:title="memoryoracle.instance.Array.\l_track">
<polygon fill="none" stroke="black" points="378.5,-63.5 378.5,-93.5 538.5,-93.5 538.5,-63.5 378.5,-63.5"/>
<text text-anchor="start" x="386.5" y="-81.5" font-family="Helvetica,sans-Serif" font-size="10.00">memoryoracle.instance.Array.</text>
<text text-anchor="middle" x="458.5" y="-70.5" font-family="Helvetica,sans-Serif" font-size="10.00">_track</text>
</a>
</g>
</g>
<!-- Node1&#45;&gt;Node10 -->
<g id="edge12" class="edge"><title>Node1&#45;&gt;Node10</title>
<path fill="none" stroke="midnightblue" d="M160.236,-78.5C225.304,-78.5 314.711,-78.5 378.439,-78.5"/>
<polygon fill="midnightblue" stroke="midnightblue" points="160.009,-75.0001 150.009,-78.5 160.009,-82.0001 160.009,-75.0001"/>
</g>
<!-- Node11 -->
<g id="node11" class="node"><title>Node11</title>
<g id="a_node11"><a xlink:href="classmemoryoracle_1_1instance_1_1Primitive.html#a68562bda9732e33fe32188597e2f4b91" target="_top" xlink:title="memoryoracle.instance.Primitive.\l_track">
<polygon fill="none" stroke="black" points="370,-14.5 370,-44.5 547,-44.5 547,-14.5 370,-14.5"/>
<text text-anchor="start" x="378" y="-32.5" font-family="Helvetica,sans-Serif" font-size="10.00">memoryoracle.instance.Primitive.</text>
<text text-anchor="middle" x="458.5" y="-21.5" font-family="Helvetica,sans-Serif" font-size="10.00">_track</text>
</a>
</g>
</g>
<!-- Node1&#45;&gt;Node11 -->
<g id="edge15" class="edge"><title>Node1&#45;&gt;Node11</title>
<path fill="none" stroke="midnightblue" d="M160.19,-67.6866C222.435,-59.6918 306.97,-48.8342 369.989,-40.74"/>
<polygon fill="midnightblue" stroke="midnightblue" points="159.482,-64.2487 150.009,-68.9942 160.374,-71.1917 159.482,-64.2487"/>
</g>
<!-- Node3 -->
<g id="node3" class="node"><title>Node3</title>
<g id="a_node3"><a xlink:href="classmemoryoracle_1_1instance_1_1Int.html#a38c9424341353f006771163d360594da" target="_top" xlink:title="memoryoracle.instance.Int.\l_track">
<polygon fill="none" stroke="black" points="384.5,-112.5 384.5,-142.5 532.5,-142.5 532.5,-112.5 384.5,-112.5"/>
<text text-anchor="start" x="392.5" y="-130.5" font-family="Helvetica,sans-Serif" font-size="10.00">memoryoracle.instance.Int.</text>
<text text-anchor="middle" x="458.5" y="-119.5" font-family="Helvetica,sans-Serif" font-size="10.00">_track</text>
</a>
</g>
</g>
<!-- Node2&#45;&gt;Node3 -->
<g id="edge2" class="edge"><title>Node2&#45;&gt;Node3</title>
<path fill="none" stroke="midnightblue" d="M344.25,-125.771C357.549,-125.974 371.225,-126.183 384.27,-126.382"/>
<polygon fill="midnightblue" stroke="midnightblue" points="344.222,-122.27 334.169,-125.617 344.115,-129.269 344.222,-122.27"/>
</g>
<!-- Node4 -->
<g id="node4" class="node"><title>Node4</title>
<g id="a_node4"><a xlink:href="classmemoryoracle_1_1instance_1_1Instance.html#a86649e01ee4f562debdba5421a334f78" target="_top" xlink:title="memoryoracle.instance.Instance.track">
<polygon fill="none" stroke="black" points="583,-88 583,-107 783,-107 783,-88 583,-88"/>
<text text-anchor="middle" x="683" y="-95" font-family="Helvetica,sans-Serif" font-size="10.00">memoryoracle.instance.Instance.track</text>
</a>
</g>
</g>
<!-- Node3&#45;&gt;Node4 -->
<g id="edge3" class="edge"><title>Node3&#45;&gt;Node4</title>
<path fill="none" stroke="midnightblue" d="M542.595,-116.296C565.245,-113.242 589.561,-109.964 611.442,-107.013"/>
<polygon fill="midnightblue" stroke="midnightblue" points="542.106,-112.83 532.663,-117.635 543.041,-119.768 542.106,-112.83"/>
</g>
<!-- Node9 -->
<g id="node9" class="node"><title>Node9</title>
<g id="a_node9"><a xlink:href="classmemoryoracle_1_1models_1_1Typed.html#aa1d5d8d5b7ebe5c2876f363e7eb669db" target="_top" xlink:title="memoryoracle.models.Typed.track">
<polygon fill="none" stroke="black" points="592,-50 592,-69 774,-69 774,-50 592,-50"/>
<text text-anchor="middle" x="683" y="-57" font-family="Helvetica,sans-Serif" font-size="10.00">memoryoracle.models.Typed.track</text>
</a>
</g>
</g>
<!-- Node3&#45;&gt;Node9 -->
<g id="edge8" class="edge"><title>Node3&#45;&gt;Node9</title>
<path fill="none" stroke="midnightblue" d="M531.319,-108.963C536.699,-106.975 541.981,-104.821 547,-102.5 564.454,-94.4287 565.206,-85.7897 583,-78.5 592.474,-74.6188 602.788,-71.5193 613.063,-69.0469"/>
<polygon fill="midnightblue" stroke="midnightblue" points="529.856,-105.767 521.567,-112.365 532.162,-112.376 529.856,-105.767"/>
</g>
<!-- Node5 -->
<g id="node5" class="node"><title>Node5</title>
<g id="a_node5"><a xlink:href="classmemoryoracle_1_1instance_1_1Instance.html#a286e015a030541a0704994172024f034" target="_top" xlink:title="memoryoracle.instance.Instance.update">
<polygon fill="none" stroke="black" points="819,-138 819,-157 1029,-157 1029,-138 819,-138"/>
<text text-anchor="middle" x="924" y="-145" font-family="Helvetica,sans-Serif" font-size="10.00">memoryoracle.instance.Instance.update</text>
</a>
</g>
</g>
<!-- Node4&#45;&gt;Node5 -->
<g id="edge4" class="edge"><title>Node4&#45;&gt;Node5</title>
<path fill="none" stroke="midnightblue" d="M733.29,-109.379C758.812,-115.388 790.514,-122.63 819,-128.5 834.909,-131.778 852.248,-135.06 868.126,-137.952"/>
<polygon fill="midnightblue" stroke="midnightblue" points="734.013,-105.954 723.476,-107.058 732.402,-112.766 734.013,-105.954"/>
</g>
<!-- Node6 -->
<g id="node6" class="node"><title>Node6</title>
<g id="a_node6"><a xlink:href="classmemoryoracle_1_1models_1_1Typed.html#a494dfbe205034b874ff9e8c7039f579b" target="_top" xlink:title="memoryoracle.models.Typed.\l__init__">
<polygon fill="none" stroke="black" points="845,-88.5 845,-118.5 1003,-118.5 1003,-88.5 845,-88.5"/>
<text text-anchor="start" x="853" y="-106.5" font-family="Helvetica,sans-Serif" font-size="10.00">memoryoracle.models.Typed.</text>
<text text-anchor="middle" x="924" y="-95.5" font-family="Helvetica,sans-Serif" font-size="10.00">__init__</text>
</a>
</g>
</g>
<!-- Node4&#45;&gt;Node6 -->
<g id="edge5" class="edge"><title>Node4&#45;&gt;Node6</title>
<path fill="none" stroke="midnightblue" d="M793.436,-100.247C810.758,-100.682 828.364,-101.124 844.784,-101.536"/>
<polygon fill="midnightblue" stroke="midnightblue" points="793.366,-96.7446 783.281,-99.9924 793.19,-103.742 793.366,-96.7446"/>
</g>
<!-- Node7 -->
<g id="node7" class="node"><title>Node7</title>
<g id="a_node7"><a xlink:href="classmemoryoracle_1_1models_1_1Memory.html#a71d4a141abc3358afdf1a1325bfd4253" target="_top" xlink:title="memoryoracle.models.Memory.update">
<polygon fill="none" stroke="black" points="823,-50 823,-69 1025,-69 1025,-50 823,-50"/>
<text text-anchor="middle" x="924" y="-57" font-family="Helvetica,sans-Serif" font-size="10.00">memoryoracle.models.Memory.update</text>
</a>
</g>
</g>
<!-- Node4&#45;&gt;Node7 -->
<g id="edge6" class="edge"><title>Node4&#45;&gt;Node7</title>
<path fill="none" stroke="midnightblue" d="M754.028,-86.3659C788.596,-80.8697 829.871,-74.3071 862.974,-69.0439"/>
<polygon fill="midnightblue" stroke="midnightblue" points="753.328,-82.9331 744.001,-87.96 754.427,-89.8463 753.328,-82.9331"/>
</g>
<!-- Node8 -->
<g id="node8" class="node"><title>Node8</title>
<g id="a_node8"><a xlink:href="classmemoryoracle_1_1models_1_1Memory.html#aed3af349dd80317ae9cca4b4e9cb7c26" target="_top" xlink:title="memoryoracle.models.Memory.\l__init__">
<polygon fill="none" stroke="black" points="840,-0.5 840,-30.5 1008,-30.5 1008,-0.5 840,-0.5"/>
<text text-anchor="start" x="848" y="-18.5" font-family="Helvetica,sans-Serif" font-size="10.00">memoryoracle.models.Memory.</text>
<text text-anchor="middle" x="924" y="-7.5" font-family="Helvetica,sans-Serif" font-size="10.00">__init__</text>
</a>
</g>
</g>
<!-- Node4&#45;&gt;Node8 -->
<g id="edge7" class="edge"><title>Node4&#45;&gt;Node8</title>
<path fill="none" stroke="midnightblue" d="M769.823,-84.5991C774.383,-82.8182 778.807,-80.7959 783,-78.5 803.405,-67.3257 798.859,-52.1436 819,-40.5 825.752,-36.5965 833.088,-33.3009 840.635,-30.5189"/>
<polygon fill="midnightblue" stroke="midnightblue" points="768.59,-81.3224 760.305,-87.926 770.9,-87.9303 768.59,-81.3224"/>
</g>
<!-- Node9&#45;&gt;Node6 -->
<g id="edge9" class="edge"><title>Node9&#45;&gt;Node6</title>
<path fill="none" stroke="midnightblue" d="M745.844,-70.8855C776.064,-76.449 812.753,-83.2035 844.887,-89.1194"/>
<polygon fill="midnightblue" stroke="midnightblue" points="746.328,-67.4158 735.859,-69.0473 745.06,-74.3002 746.328,-67.4158"/>
</g>
<!-- Node9&#45;&gt;Node7 -->
<g id="edge10" class="edge"><title>Node9&#45;&gt;Node7</title>
<path fill="none" stroke="midnightblue" d="M784.151,-59.5C796.884,-59.5 809.918,-59.5 822.654,-59.5"/>
<polygon fill="midnightblue" stroke="midnightblue" points="784.015,-56.0001 774.015,-59.5 784.015,-63.0001 784.015,-56.0001"/>
</g>
<!-- Node9&#45;&gt;Node8 -->
<g id="edge11" class="edge"><title>Node9&#45;&gt;Node8</title>
<path fill="none" stroke="midnightblue" d="M745.871,-48.1095C774.926,-42.7606 809.956,-36.3114 841.168,-30.5654"/>
<polygon fill="midnightblue" stroke="midnightblue" points="745.06,-44.6998 735.859,-49.9527 746.328,-51.5842 745.06,-44.6998"/>
</g>
<!-- Node10&#45;&gt;Node4 -->
<g id="edge13" class="edge"><title>Node10&#45;&gt;Node4</title>
<path fill="none" stroke="midnightblue" d="M548.787,-86.1245C560.02,-87.0838 571.565,-88.0696 582.938,-89.0408"/>
<polygon fill="midnightblue" stroke="midnightblue" points="548.833,-82.6158 538.572,-85.2522 548.238,-89.5904 548.833,-82.6158"/>
</g>
<!-- Node10&#45;&gt;Node9 -->
<g id="edge14" class="edge"><title>Node10&#45;&gt;Node9</title>
<path fill="none" stroke="midnightblue" d="M548.787,-70.8755C562.955,-69.6657 577.618,-68.4135 591.806,-67.2019"/>
<polygon fill="midnightblue" stroke="midnightblue" points="548.238,-67.4096 538.572,-71.7478 548.833,-74.3842 548.238,-67.4096"/>
</g>
<!-- Node11&#45;&gt;Node4 -->
<g id="edge16" class="edge"><title>Node11&#45;&gt;Node4</title>
<path fill="none" stroke="midnightblue" d="M534.168,-48.0984C538.566,-49.7725 542.875,-51.5715 547,-53.5 564.646,-61.7503 565.045,-70.9448 583,-78.5 592.275,-82.403 602.379,-85.5113 612.47,-87.9849"/>
<polygon fill="midnightblue" stroke="midnightblue" points="535.025,-44.6886 524.431,-44.6311 532.677,-51.283 535.025,-44.6886"/>
</g>
<!-- Node11&#45;&gt;Node9 -->
<g id="edge17" class="edge"><title>Node11&#45;&gt;Node9</title>
<path fill="none" stroke="midnightblue" d="M557.17,-42.669C575.377,-45.1239 594.077,-47.6452 611.279,-49.9646"/>
<polygon fill="midnightblue" stroke="midnightblue" points="557.497,-39.1814 547.118,-41.3137 556.561,-46.1187 557.497,-39.1814"/>
</g>
</g>
</svg>
