<?xml version="1.0" encoding="UTF-8" standalone="no"?>
<!DOCTYPE svg PUBLIC "-//W3C//DTD SVG 1.1//EN"
 "http://www.w3.org/Graphics/SVG/1.1/DTD/svg11.dtd">
<!-- Generated by graphviz version 2.38.0 (20140413.2041)
 -->
<!-- Title: memoryoracle.instance.Primitive.val_string Pages: 1 -->
<svg width="1043pt" height="165pt"
 viewBox="0.00 0.00 1043.00 164.50" xmlns="http://www.w3.org/2000/svg" xmlns:xlink="http://www.w3.org/1999/xlink">
<g id="graph0" class="graph" transform="scale(1 1) rotate(0) translate(4 160.5)">
<title>memoryoracle.instance.Primitive.val_string</title>
<!-- Node1 -->
<g id="node1" class="node"><title>Node1</title>
<polygon fill="#bfbfbf" stroke="black" points="0,-39 0,-69 191,-69 191,-39 0,-39"/>
<text text-anchor="start" x="8" y="-57" font-family="Helvetica,sans-Serif" font-size="10.00">memoryoracle.instance.Primitive.val</text>
<text text-anchor="middle" x="95.5" y="-46" font-family="Helvetica,sans-Serif" font-size="10.00">_string</text>
</g>
<!-- Node2 -->
<g id="node2" class="node"><title>Node2</title>
<g id="a_node2"><a xlink:href="classmemoryoracle_1_1instance_1_1Int.html#a450a73bc8aaf1a7ac5f18c3ed1a933fc" target="_top" xlink:title="memoryoracle.instance.Int.\l_find_hidden_type">
<polygon fill="none" stroke="black" points="227,-39 227,-69 375,-69 375,-39 227,-39"/>
<text text-anchor="start" x="235" y="-57" font-family="Helvetica,sans-Serif" font-size="10.00">memoryoracle.instance.Int.</text>
<text text-anchor="middle" x="301" y="-46" font-family="Helvetica,sans-Serif" font-size="10.00">_find_hidden_type</text>
</a>
</g>
</g>
<!-- Node1&#45;&gt;Node2 -->
<g id="edge1" class="edge"><title>Node1&#45;&gt;Node2</title>
<path fill="none" stroke="midnightblue" d="M201.277,-54C209.946,-54 218.586,-54 226.945,-54"/>
<polygon fill="midnightblue" stroke="midnightblue" points="201.101,-50.5001 191.101,-54 201.101,-57.5001 201.101,-50.5001"/>
</g>
<!-- Node3 -->
<g id="node3" class="node"><title>Node3</title>
<g id="a_node3"><a xlink:href="classmemoryoracle_1_1instance_1_1Int.html#a38c9424341353f006771163d360594da" target="_top" xlink:title="memoryoracle.instance.Int.\l_track">
<polygon fill="none" stroke="black" points="411,-39 411,-69 559,-69 559,-39 411,-39"/>
<text text-anchor="start" x="419" y="-57" font-family="Helvetica,sans-Serif" font-size="10.00">memoryoracle.instance.Int.</text>
<text text-anchor="middle" x="485" y="-46" font-family="Helvetica,sans-Serif" font-size="10.00">_track</text>
</a>
</g>
</g>
<!-- Node2&#45;&gt;Node3 -->
<g id="edge2" class="edge"><title>Node2&#45;&gt;Node3</title>
<path fill="none" stroke="midnightblue" d="M385.516,-54C393.992,-54 402.556,-54 410.91,-54"/>
<polygon fill="midnightblue" stroke="midnightblue" points="385.24,-50.5001 375.24,-54 385.24,-57.5001 385.24,-50.5001"/>
</g>
<!-- Node4 -->
<g id="node4" class="node"><title>Node4</title>
<g id="a_node4"><a xlink:href="classmemoryoracle_1_1instance_1_1Memory.html#a8951ac234fecbd6cd473133ae7e63662" target="_top" xlink:title="memoryoracle.instance.Memory.track">
<polygon fill="none" stroke="black" points="595,-44.5 595,-63.5 792,-63.5 792,-44.5 595,-44.5"/>
<text text-anchor="middle" x="693.5" y="-51.5" font-family="Helvetica,sans-Serif" font-size="10.00">memoryoracle.instance.Memory.track</text>
</a>
</g>
</g>
<!-- Node3&#45;&gt;Node4 -->
<g id="edge3" class="edge"><title>Node3&#45;&gt;Node4</title>
<path fill="none" stroke="midnightblue" d="M569.28,-47.3635C577.718,-47.2665 586.341,-47.2317 594.912,-47.259"/>
<polygon fill="midnightblue" stroke="midnightblue" points="569.042,-43.8665 559.095,-47.5127 569.145,-50.8658 569.042,-43.8665"/>
</g>
<!-- Node9 -->
<g id="node9" class="node"><title>Node9</title>
<g id="a_node9"><a xlink:href="classmemoryoracle_1_1models_1_1Typed.html#aa1d5d8d5b7ebe5c2876f363e7eb669db" target="_top" xlink:title="memoryoracle.models.Typed.track">
<polygon fill="none" stroke="black" points="602.5,-82.5 602.5,-101.5 784.5,-101.5 784.5,-82.5 602.5,-82.5"/>
<text text-anchor="middle" x="693.5" y="-89.5" font-family="Helvetica,sans-Serif" font-size="10.00">memoryoracle.models.Typed.track</text>
</a>
</g>
</g>
<!-- Node3&#45;&gt;Node9 -->
<g id="edge9" class="edge"><title>Node3&#45;&gt;Node9</title>
<path fill="none" stroke="midnightblue" d="M568.991,-69.2719C593.18,-73.7232 618.914,-78.4587 640.595,-82.4486"/>
<polygon fill="midnightblue" stroke="midnightblue" points="569.563,-65.8185 559.095,-67.4509 568.296,-72.7029 569.563,-65.8185"/>
</g>
<!-- Node4&#45;&gt;Node3 -->
<g id="edge6" class="edge"><title>Node4&#45;&gt;Node3</title>
<path fill="none" stroke="midnightblue" d="M584.73,-60.7442C576.061,-60.7222 567.434,-60.6365 559.095,-60.4873"/>
<polygon fill="midnightblue" stroke="midnightblue" points="584.913,-64.2443 594.912,-60.741 584.911,-57.2443 584.913,-64.2443"/>
</g>
<!-- Node5 -->
<g id="node5" class="node"><title>Node5</title>
<g id="a_node5"><a xlink:href="classmemoryoracle_1_1models_1_1Typed.html#a494dfbe205034b874ff9e8c7039f579b" target="_top" xlink:title="memoryoracle.models.Typed.\l__init__">
<polygon fill="none" stroke="black" points="852.5,-126 852.5,-156 1010.5,-156 1010.5,-126 852.5,-126"/>
<text text-anchor="start" x="860.5" y="-144" font-family="Helvetica,sans-Serif" font-size="10.00">memoryoracle.models.Typed.</text>
<text text-anchor="middle" x="931.5" y="-133" font-family="Helvetica,sans-Serif" font-size="10.00">__init__</text>
</a>
</g>
</g>
<!-- Node4&#45;&gt;Node5 -->
<g id="edge4" class="edge"><title>Node4&#45;&gt;Node5</title>
<path fill="none" stroke="midnightblue" d="M780.61,-67.1996C784.558,-68.9102 788.378,-70.8349 792,-73 813.688,-85.9638 806.559,-103.631 828,-117 835.522,-121.69 843.872,-125.464 852.468,-128.502"/>
<polygon fill="midnightblue" stroke="midnightblue" points="781.791,-63.904 771.201,-63.5845 779.28,-70.4383 781.791,-63.904"/>
</g>
<!-- Node6 -->
<g id="node6" class="node"><title>Node6</title>
<g id="a_node6"><a xlink:href="classmemoryoracle_1_1models_1_1Memory.html#aed3af349dd80317ae9cca4b4e9cb7c26" target="_top" xlink:title="memoryoracle.models.Memory.\l__init__">
<polygon fill="none" stroke="black" points="847.5,-77 847.5,-107 1015.5,-107 1015.5,-77 847.5,-77"/>
<text text-anchor="start" x="855.5" y="-95" font-family="Helvetica,sans-Serif" font-size="10.00">memoryoracle.models.Memory.</text>
<text text-anchor="middle" x="931.5" y="-84" font-family="Helvetica,sans-Serif" font-size="10.00">__init__</text>
</a>
</g>
</g>
<!-- Node4&#45;&gt;Node6 -->
<g id="edge5" class="edge"><title>Node4&#45;&gt;Node6</title>
<path fill="none" stroke="midnightblue" d="M763.918,-65.1775C790.003,-69.3777 819.926,-74.1958 847.149,-78.5791"/>
<polygon fill="midnightblue" stroke="midnightblue" points="764.177,-61.6742 753.748,-63.54 763.065,-68.5852 764.177,-61.6742"/>
</g>
<!-- Node7 -->
<g id="node7" class="node"><title>Node7</title>
<g id="a_node7"><a xlink:href="classmemoryoracle_1_1instance_1_1Memory.html#aa937ea1a82dcaa2fa1c868a387d59483" target="_top" xlink:title="memoryoracle.instance.Memory.update">
<polygon fill="none" stroke="black" points="828,-0.5 828,-19.5 1035,-19.5 1035,-0.5 828,-0.5"/>
<text text-anchor="middle" x="931.5" y="-7.5" font-family="Helvetica,sans-Serif" font-size="10.00">memoryoracle.instance.Memory.update</text>
</a>
</g>
</g>
<!-- Node4&#45;&gt;Node7 -->
<g id="edge7" class="edge"><title>Node4&#45;&gt;Node7</title>
<path fill="none" stroke="midnightblue" d="M755.112,-42.6251C777.957,-38.3443 804.172,-33.4395 828,-29 844.636,-25.9005 862.793,-22.5306 879.14,-19.5012"/>
<polygon fill="midnightblue" stroke="midnightblue" points="754.394,-39.1986 745.21,-44.481 755.684,-46.0788 754.394,-39.1986"/>
</g>
<!-- Node8 -->
<g id="node8" class="node"><title>Node8</title>
<g id="a_node8"><a xlink:href="classmemoryoracle_1_1models_1_1Memory.html#a71d4a141abc3358afdf1a1325bfd4253" target="_top" xlink:title="memoryoracle.models.Memory.update">
<polygon fill="none" stroke="black" points="830.5,-38.5 830.5,-57.5 1032.5,-57.5 1032.5,-38.5 830.5,-38.5"/>
<text text-anchor="middle" x="931.5" y="-45.5" font-family="Helvetica,sans-Serif" font-size="10.00">memoryoracle.models.Memory.update</text>
</a>
</g>
</g>
<!-- Node4&#45;&gt;Node8 -->
<g id="edge8" class="edge"><title>Node4&#45;&gt;Node8</title>
<path fill="none" stroke="midnightblue" d="M802.253,-51.2605C811.565,-51.0238 820.963,-50.7848 830.212,-50.5497"/>
<polygon fill="midnightblue" stroke="midnightblue" points="802.102,-47.7631 792.194,-51.5163 802.28,-54.7609 802.102,-47.7631"/>
</g>
<!-- Node9&#45;&gt;Node5 -->
<g id="edge10" class="edge"><title>Node9&#45;&gt;Node5</title>
<path fill="none" stroke="midnightblue" d="M750.401,-103.607C782.553,-110.282 823.307,-118.744 857.912,-125.929"/>
<polygon fill="midnightblue" stroke="midnightblue" points="750.786,-100.112 740.283,-101.506 749.363,-106.966 750.786,-100.112"/>
</g>
<!-- Node9&#45;&gt;Node6 -->
<g id="edge12" class="edge"><title>Node9&#45;&gt;Node6</title>
<path fill="none" stroke="midnightblue" d="M794.935,-92C812.388,-92 830.366,-92 847.294,-92"/>
<polygon fill="midnightblue" stroke="midnightblue" points="794.732,-88.5001 784.732,-92 794.732,-95.5001 794.732,-88.5001"/>
</g>
<!-- Node9&#45;&gt;Node8 -->
<g id="edge11" class="edge"><title>Node9&#45;&gt;Node8</title>
<path fill="none" stroke="midnightblue" d="M755.735,-80.5832C794.14,-73.423 843.077,-64.2993 879.391,-57.5287"/>
<polygon fill="midnightblue" stroke="midnightblue" points="754.898,-77.179 745.708,-82.4527 756.181,-84.0605 754.898,-77.179"/>
</g>
</g>
</svg>
