<?xml version="1.0" encoding="UTF-8" standalone="no"?>
<!DOCTYPE svg PUBLIC "-//W3C//DTD SVG 1.1//EN"
 "http://www.w3.org/Graphics/SVG/1.1/DTD/svg11.dtd">
<!-- Generated by graphviz version 2.38.0 (20140413.2041)
 -->
<!-- Title: memoryoracle.typed.LanguageType Pages: 1 -->
<svg width="570pt" height="508pt"
 viewBox="0.00 0.00 569.50 508.00" xmlns="http://www.w3.org/2000/svg" xmlns:xlink="http://www.w3.org/1999/xlink">
<g id="graph0" class="graph" transform="scale(1 1) rotate(0) translate(4 504)">
<title>memoryoracle.typed.LanguageType</title>
<!-- Node1 -->
<g id="node1" class="node"><title>Node1</title>
<polygon fill="#bfbfbf" stroke="black" points="189.5,-94.5 189.5,-151.5 377.5,-151.5 377.5,-94.5 189.5,-94.5"/>
<text text-anchor="middle" x="283.5" y="-139.5" font-family="Helvetica,sans-Serif" font-size="10.00">memoryoracle.typed.LanguageType</text>
<polyline fill="none" stroke="black" points="189.5,-132.5 377.5,-132.5 "/>
<text text-anchor="middle" x="283.5" y="-120.5" font-family="Helvetica,sans-Serif" font-size="10.00"> </text>
<polyline fill="none" stroke="black" points="189.5,-113.5 377.5,-113.5 "/>
<text text-anchor="middle" x="283.5" y="-101.5" font-family="Helvetica,sans-Serif" font-size="10.00"> </text>
</g>
<!-- Node5 -->
<g id="node5" class="node"><title>Node5</title>
<g id="a_node5"><a xlink:href="classmemoryoracle_1_1typed_1_1SimpleType.html" target="_top" xlink:title="{memoryoracle.typed.SimpleType\n||}">
<polygon fill="none" stroke="black" points="0,-0.5 0,-57.5 173,-57.5 173,-0.5 0,-0.5"/>
<text text-anchor="middle" x="86.5" y="-45.5" font-family="Helvetica,sans-Serif" font-size="10.00">memoryoracle.typed.SimpleType</text>
<polyline fill="none" stroke="black" points="0,-38.5 173,-38.5 "/>
<text text-anchor="middle" x="86.5" y="-26.5" font-family="Helvetica,sans-Serif" font-size="10.00"> </text>
<polyline fill="none" stroke="black" points="0,-19.5 173,-19.5 "/>
<text text-anchor="middle" x="86.5" y="-7.5" font-family="Helvetica,sans-Serif" font-size="10.00"> </text>
</a>
</g>
</g>
<!-- Node1&#45;&gt;Node5 -->
<g id="edge4" class="edge"><title>Node1&#45;&gt;Node5</title>
<path fill="none" stroke="midnightblue" d="M215.173,-90.0907C192.504,-79.5043 167.475,-67.8158 145.565,-57.5836"/>
<polygon fill="none" stroke="midnightblue" points="213.852,-93.3368 224.394,-94.397 216.814,-86.9943 213.852,-93.3368"/>
</g>
<!-- Node6 -->
<g id="node6" class="node"><title>Node6</title>
<g id="a_node6"><a xlink:href="classmemoryoracle_1_1typed_1_1StructureType.html" target="_top" xlink:title="{memoryoracle.typed.StructureType\n||}">
<polygon fill="none" stroke="black" points="191,-0.5 191,-57.5 376,-57.5 376,-0.5 191,-0.5"/>
<text text-anchor="middle" x="283.5" y="-45.5" font-family="Helvetica,sans-Serif" font-size="10.00">memoryoracle.typed.StructureType</text>
<polyline fill="none" stroke="black" points="191,-38.5 376,-38.5 "/>
<text text-anchor="middle" x="283.5" y="-26.5" font-family="Helvetica,sans-Serif" font-size="10.00"> </text>
<polyline fill="none" stroke="black" points="191,-19.5 376,-19.5 "/>
<text text-anchor="middle" x="283.5" y="-7.5" font-family="Helvetica,sans-Serif" font-size="10.00"> </text>
</a>
</g>
</g>
<!-- Node1&#45;&gt;Node6 -->
<g id="edge5" class="edge"><title>Node1&#45;&gt;Node6</title>
<path fill="none" stroke="midnightblue" d="M283.5,-84.2092C283.5,-75.2929 283.5,-65.9513 283.5,-57.5836"/>
<polygon fill="none" stroke="midnightblue" points="280,-84.3969 283.5,-94.397 287,-84.397 280,-84.3969"/>
</g>
<!-- Node7 -->
<g id="node7" class="node"><title>Node7</title>
<g id="a_node7"><a xlink:href="classmemoryoracle_1_1typed_1_1UnionType.html" target="_top" xlink:title="{memoryoracle.typed.UnionType\n||}">
<polygon fill="none" stroke="black" points="393.5,-0.5 393.5,-57.5 561.5,-57.5 561.5,-0.5 393.5,-0.5"/>
<text text-anchor="middle" x="477.5" y="-45.5" font-family="Helvetica,sans-Serif" font-size="10.00">memoryoracle.typed.UnionType</text>
<polyline fill="none" stroke="black" points="393.5,-38.5 561.5,-38.5 "/>
<text text-anchor="middle" x="477.5" y="-26.5" font-family="Helvetica,sans-Serif" font-size="10.00"> </text>
<polyline fill="none" stroke="black" points="393.5,-19.5 561.5,-19.5 "/>
<text text-anchor="middle" x="477.5" y="-7.5" font-family="Helvetica,sans-Serif" font-size="10.00"> </text>
</a>
</g>
</g>
<!-- Node1&#45;&gt;Node7 -->
<g id="edge6" class="edge"><title>Node1&#45;&gt;Node7</title>
<path fill="none" stroke="midnightblue" d="M350.787,-90.0907C373.11,-79.5043 397.758,-67.8158 419.335,-57.5836"/>
<polygon fill="none" stroke="midnightblue" points="349.242,-86.9496 341.706,-94.397 352.242,-93.2745 349.242,-86.9496"/>
</g>
<!-- Node2 -->
<g id="node2" class="node"><title>Node2</title>
<g id="a_node2"><a xlink:href="classmemoryoracle_1_1typed_1_1Typed.html" target="_top" xlink:title="{memoryoracle.typed.Typed\n|+ lookup\l&#45; _type\l&#45; _typeCodeMap\l&#45; _typeHandlerCode\l|+ type()\l+ type_code()\l+ gdb_type()\l+ type_handler()\l}">
<polygon fill="none" stroke="black" points="210.5,-188.5 210.5,-311.5 356.5,-311.5 356.5,-188.5 210.5,-188.5"/>
<text text-anchor="middle" x="283.5" y="-299.5" font-family="Helvetica,sans-Serif" font-size="10.00">memoryoracle.typed.Typed</text>
<polyline fill="none" stroke="black" points="210.5,-292.5 356.5,-292.5 "/>
<text text-anchor="start" x="218.5" y="-280.5" font-family="Helvetica,sans-Serif" font-size="10.00">+ lookup</text>
<text text-anchor="start" x="218.5" y="-269.5" font-family="Helvetica,sans-Serif" font-size="10.00">&#45; _type</text>
<text text-anchor="start" x="218.5" y="-258.5" font-family="Helvetica,sans-Serif" font-size="10.00">&#45; _typeCodeMap</text>
<text text-anchor="start" x="218.5" y="-247.5" font-family="Helvetica,sans-Serif" font-size="10.00">&#45; _typeHandlerCode</text>
<polyline fill="none" stroke="black" points="210.5,-240.5 356.5,-240.5 "/>
<text text-anchor="start" x="218.5" y="-228.5" font-family="Helvetica,sans-Serif" font-size="10.00">+ type()</text>
<text text-anchor="start" x="218.5" y="-217.5" font-family="Helvetica,sans-Serif" font-size="10.00">+ type_code()</text>
<text text-anchor="start" x="218.5" y="-206.5" font-family="Helvetica,sans-Serif" font-size="10.00">+ gdb_type()</text>
<text text-anchor="start" x="218.5" y="-195.5" font-family="Helvetica,sans-Serif" font-size="10.00">+ type_handler()</text>
</a>
</g>
</g>
<!-- Node2&#45;&gt;Node1 -->
<g id="edge1" class="edge"><title>Node2&#45;&gt;Node1</title>
<path fill="none" stroke="midnightblue" d="M283.5,-178.138C283.5,-168.8 283.5,-159.715 283.5,-151.738"/>
<polygon fill="none" stroke="midnightblue" points="280,-178.331 283.5,-188.331 287,-178.331 280,-178.331"/>
</g>
<!-- Node3 -->
<g id="node3" class="node"><title>Node3</title>
<g id="a_node3"><a xlink:href="classmemoryoracle_1_1tracked_1_1Tracked.html" target="_top" xlink:title="{memoryoracle.tracked.Tracked\n||}">
<polygon fill="none" stroke="black" points="201.5,-348.5 201.5,-405.5 365.5,-405.5 365.5,-348.5 201.5,-348.5"/>
<text text-anchor="middle" x="283.5" y="-393.5" font-family="Helvetica,sans-Serif" font-size="10.00">memoryoracle.tracked.Tracked</text>
<polyline fill="none" stroke="black" points="201.5,-386.5 365.5,-386.5 "/>
<text text-anchor="middle" x="283.5" y="-374.5" font-family="Helvetica,sans-Serif" font-size="10.00"> </text>
<polyline fill="none" stroke="black" points="201.5,-367.5 365.5,-367.5 "/>
<text text-anchor="middle" x="283.5" y="-355.5" font-family="Helvetica,sans-Serif" font-size="10.00"> </text>
</a>
</g>
</g>
<!-- Node3&#45;&gt;Node2 -->
<g id="edge2" class="edge"><title>Node3&#45;&gt;Node2</title>
<path fill="none" stroke="midnightblue" d="M283.5,-338.099C283.5,-329.739 283.5,-320.68 283.5,-311.672"/>
<polygon fill="none" stroke="midnightblue" points="280,-338.258 283.5,-348.258 287,-338.258 280,-338.258"/>
</g>
<!-- Node4 -->
<g id="node4" class="node"><title>Node4</title>
<polygon fill="none" stroke="#bfbfbf" points="260.5,-442.5 260.5,-499.5 306.5,-499.5 306.5,-442.5 260.5,-442.5"/>
<text text-anchor="middle" x="283.5" y="-487.5" font-family="Helvetica,sans-Serif" font-size="10.00">object</text>
<polyline fill="none" stroke="#bfbfbf" points="260.5,-480.5 306.5,-480.5 "/>
<text text-anchor="middle" x="283.5" y="-468.5" font-family="Helvetica,sans-Serif" font-size="10.00"> </text>
<polyline fill="none" stroke="#bfbfbf" points="260.5,-461.5 306.5,-461.5 "/>
<text text-anchor="middle" x="283.5" y="-449.5" font-family="Helvetica,sans-Serif" font-size="10.00"> </text>
</g>
<!-- Node4&#45;&gt;Node3 -->
<g id="edge3" class="edge"><title>Node4&#45;&gt;Node3</title>
<path fill="none" stroke="midnightblue" d="M283.5,-432.209C283.5,-423.293 283.5,-413.951 283.5,-405.584"/>
<polygon fill="none" stroke="midnightblue" points="280,-432.397 283.5,-442.397 287,-432.397 280,-432.397"/>
</g>
</g>
</svg>
