<?xml version="1.0" encoding="UTF-8" standalone="no"?>
<!DOCTYPE svg PUBLIC "-//W3C//DTD SVG 1.1//EN"
 "http://www.w3.org/Graphics/SVG/1.1/DTD/svg11.dtd">
<!-- Generated by graphviz version 2.38.0 (20140413.2041)
 -->
<!-- Title: memoryoracle.instance.Instance Pages: 1 -->
<svg width="1629pt" height="927pt"
 viewBox="0.00 0.00 1628.50 927.00" xmlns="http://www.w3.org/2000/svg" xmlns:xlink="http://www.w3.org/1999/xlink">
<g id="graph0" class="graph" transform="scale(1 1) rotate(0) translate(4 923)">
<title>memoryoracle.instance.Instance</title>
<!-- Node1 -->
<g id="node1" class="node"><title>Node1</title>
<polygon fill="#bfbfbf" stroke="black" points="722.5,-414.5 722.5,-614.5 895.5,-614.5 895.5,-414.5 722.5,-414.5"/>
<text text-anchor="middle" x="809" y="-602.5" font-family="Helvetica,sans-Serif" font-size="10.00">memoryoracle.instance.Instance</text>
<polyline fill="none" stroke="black" points="722.5,-595.5 895.5,-595.5 "/>
<text text-anchor="start" x="730.5" y="-583.5" font-family="Helvetica,sans-Serif" font-size="10.00">+ address</text>
<text text-anchor="start" x="730.5" y="-572.5" font-family="Helvetica,sans-Serif" font-size="10.00">+ name</text>
<text text-anchor="start" x="730.5" y="-561.5" font-family="Helvetica,sans-Serif" font-size="10.00">+ description</text>
<text text-anchor="start" x="730.5" y="-550.5" font-family="Helvetica,sans-Serif" font-size="10.00">+ type</text>
<text text-anchor="start" x="730.5" y="-539.5" font-family="Helvetica,sans-Serif" font-size="10.00">+ parent_class</text>
<text text-anchor="start" x="730.5" y="-528.5" font-family="Helvetica,sans-Serif" font-size="10.00">+ meta</text>
<text text-anchor="start" x="730.5" y="-517.5" font-family="Helvetica,sans-Serif" font-size="10.00">&#45; _addressFixer</text>
<text text-anchor="start" x="730.5" y="-506.5" font-family="Helvetica,sans-Serif" font-size="10.00">&#45; _updatedNames</text>
<text text-anchor="start" x="730.5" y="-495.5" font-family="Helvetica,sans-Serif" font-size="10.00">&#45; _watchers</text>
<polyline fill="none" stroke="black" points="722.5,-488.5 895.5,-488.5 "/>
<text text-anchor="start" x="730.5" y="-476.5" font-family="Helvetica,sans-Serif" font-size="10.00">+ index()</text>
<text text-anchor="start" x="730.5" y="-465.5" font-family="Helvetica,sans-Serif" font-size="10.00">+ track()</text>
<text text-anchor="start" x="730.5" y="-454.5" font-family="Helvetica,sans-Serif" font-size="10.00">+ update()</text>
<text text-anchor="start" x="730.5" y="-443.5" font-family="Helvetica,sans-Serif" font-size="10.00">+ watchers()</text>
<text text-anchor="start" x="730.5" y="-432.5" font-family="Helvetica,sans-Serif" font-size="10.00">&#45; _basic_track()</text>
<text text-anchor="start" x="730.5" y="-421.5" font-family="Helvetica,sans-Serif" font-size="10.00">&#45; _clear_updated()</text>
</g>
<!-- Node5 -->
<g id="node5" class="node"><title>Node5</title>
<g id="a_node5"><a xlink:href="classmemoryoracle_1_1instance_1_1Call.html" target="_top" xlink:title="{memoryoracle.instance.Call\n|+ repository\l&#45; _typeHandlerCode\l&#45; _updateTracker\l&#45; _watchers\l|}">
<polygon fill="none" stroke="black" points="0,-287.5 0,-377.5 150,-377.5 150,-287.5 0,-287.5"/>
<text text-anchor="middle" x="75" y="-365.5" font-family="Helvetica,sans-Serif" font-size="10.00">memoryoracle.instance.Call</text>
<polyline fill="none" stroke="black" points="0,-358.5 150,-358.5 "/>
<text text-anchor="start" x="8" y="-346.5" font-family="Helvetica,sans-Serif" font-size="10.00">+ repository</text>
<text text-anchor="start" x="8" y="-335.5" font-family="Helvetica,sans-Serif" font-size="10.00">&#45; _typeHandlerCode</text>
<text text-anchor="start" x="8" y="-324.5" font-family="Helvetica,sans-Serif" font-size="10.00">&#45; _updateTracker</text>
<text text-anchor="start" x="8" y="-313.5" font-family="Helvetica,sans-Serif" font-size="10.00">&#45; _watchers</text>
<polyline fill="none" stroke="black" points="0,-306.5 150,-306.5 "/>
<text text-anchor="middle" x="75" y="-294.5" font-family="Helvetica,sans-Serif" font-size="10.00"> </text>
</a>
</g>
</g>
<!-- Node1&#45;&gt;Node5 -->
<g id="edge4" class="edge"><title>Node1&#45;&gt;Node5</title>
<path fill="none" stroke="midnightblue" d="M712.241,-501.994C583.175,-484.711 348.893,-446.531 159,-378 156.051,-376.936 153.076,-375.784 150.097,-374.564"/>
<polygon fill="none" stroke="midnightblue" points="712.119,-505.509 722.492,-503.353 713.038,-498.57 712.119,-505.509"/>
</g>
<!-- Node6 -->
<g id="node6" class="node"><title>Node6</title>
<g id="a_node6"><a xlink:href="classmemoryoracle_1_1instance_1_1ConstDecorator.html" target="_top" xlink:title="{memoryoracle.instance.Const\lDecorator\n||}">
<polygon fill="none" stroke="black" points="168.5,-298.5 168.5,-366.5 329.5,-366.5 329.5,-298.5 168.5,-298.5"/>
<text text-anchor="start" x="176.5" y="-354.5" font-family="Helvetica,sans-Serif" font-size="10.00">memoryoracle.instance.Const</text>
<text text-anchor="middle" x="249" y="-343.5" font-family="Helvetica,sans-Serif" font-size="10.00">Decorator</text>
<polyline fill="none" stroke="black" points="168.5,-336.5 329.5,-336.5 "/>
<text text-anchor="middle" x="249" y="-324.5" font-family="Helvetica,sans-Serif" font-size="10.00"> </text>
<polyline fill="none" stroke="black" points="168.5,-317.5 329.5,-317.5 "/>
<text text-anchor="middle" x="249" y="-305.5" font-family="Helvetica,sans-Serif" font-size="10.00"> </text>
</a>
</g>
</g>
<!-- Node1&#45;&gt;Node6 -->
<g id="edge5" class="edge"><title>Node1&#45;&gt;Node6</title>
<path fill="none" stroke="midnightblue" d="M712.139,-490.961C615.932,-467.326 464.983,-426.856 339,-378 330.224,-374.597 321.146,-370.649 312.284,-366.539"/>
<polygon fill="none" stroke="midnightblue" points="711.599,-494.432 722.144,-493.407 713.261,-487.632 711.599,-494.432"/>
</g>
<!-- Node7 -->
<g id="node7" class="node"><title>Node7</title>
<g id="a_node7"><a xlink:href="classmemoryoracle_1_1instance_1_1ExternDecorator.html" target="_top" xlink:title="{memoryoracle.instance.Extern\lDecorator\n||}">
<polygon fill="none" stroke="black" points="348,-298.5 348,-366.5 512,-366.5 512,-298.5 348,-298.5"/>
<text text-anchor="start" x="356" y="-354.5" font-family="Helvetica,sans-Serif" font-size="10.00">memoryoracle.instance.Extern</text>
<text text-anchor="middle" x="430" y="-343.5" font-family="Helvetica,sans-Serif" font-size="10.00">Decorator</text>
<polyline fill="none" stroke="black" points="348,-336.5 512,-336.5 "/>
<text text-anchor="middle" x="430" y="-324.5" font-family="Helvetica,sans-Serif" font-size="10.00"> </text>
<polyline fill="none" stroke="black" points="348,-317.5 512,-317.5 "/>
<text text-anchor="middle" x="430" y="-305.5" font-family="Helvetica,sans-Serif" font-size="10.00"> </text>
</a>
</g>
</g>
<!-- Node1&#45;&gt;Node7 -->
<g id="edge6" class="edge"><title>Node1&#45;&gt;Node7</title>
<path fill="none" stroke="midnightblue" d="M712.983,-468.766C656.904,-442.529 584.83,-408.62 521,-378 513.389,-374.349 505.433,-370.502 497.529,-366.662"/>
<polygon fill="none" stroke="midnightblue" points="711.655,-472.009 722.196,-473.075 714.62,-465.668 711.655,-472.009"/>
</g>
<!-- Node8 -->
<g id="node8" class="node"><title>Node8</title>
<g id="a_node8"><a xlink:href="classmemoryoracle_1_1instance_1_1MemberDecorator.html" target="_top" xlink:title="{memoryoracle.instance.Member\lDecorator\n||}">
<polygon fill="none" stroke="black" points="530.5,-298.5 530.5,-366.5 703.5,-366.5 703.5,-298.5 530.5,-298.5"/>
<text text-anchor="start" x="538.5" y="-354.5" font-family="Helvetica,sans-Serif" font-size="10.00">memoryoracle.instance.Member</text>
<text text-anchor="middle" x="617" y="-343.5" font-family="Helvetica,sans-Serif" font-size="10.00">Decorator</text>
<polyline fill="none" stroke="black" points="530.5,-336.5 703.5,-336.5 "/>
<text text-anchor="middle" x="617" y="-324.5" font-family="Helvetica,sans-Serif" font-size="10.00"> </text>
<polyline fill="none" stroke="black" points="530.5,-317.5 703.5,-317.5 "/>
<text text-anchor="middle" x="617" y="-305.5" font-family="Helvetica,sans-Serif" font-size="10.00"> </text>
</a>
</g>
</g>
<!-- Node1&#45;&gt;Node8 -->
<g id="edge7" class="edge"><title>Node1&#45;&gt;Node8</title>
<path fill="none" stroke="midnightblue" d="M714.741,-425.132C692.509,-404.29 670.153,-383.331 652.443,-366.728"/>
<polygon fill="none" stroke="midnightblue" points="712.579,-427.903 722.268,-432.189 717.367,-422.796 712.579,-427.903"/>
</g>
<!-- Node9 -->
<g id="node9" class="node"><title>Node9</title>
<g id="a_node9"><a xlink:href="classmemoryoracle_1_1instance_1_1Primitive.html" target="_top" xlink:title="{memoryoracle.instance.Primitive\n||+ val_string()\l&#45; _track()\l}">
<polygon fill="none" stroke="black" points="722,-298.5 722,-366.5 896,-366.5 896,-298.5 722,-298.5"/>
<text text-anchor="middle" x="809" y="-354.5" font-family="Helvetica,sans-Serif" font-size="10.00">memoryoracle.instance.Primitive</text>
<polyline fill="none" stroke="black" points="722,-347.5 896,-347.5 "/>
<text text-anchor="middle" x="809" y="-335.5" font-family="Helvetica,sans-Serif" font-size="10.00"> </text>
<polyline fill="none" stroke="black" points="722,-328.5 896,-328.5 "/>
<text text-anchor="start" x="730" y="-316.5" font-family="Helvetica,sans-Serif" font-size="10.00">+ val_string()</text>
<text text-anchor="start" x="730" y="-305.5" font-family="Helvetica,sans-Serif" font-size="10.00">&#45; _track()</text>
</a>
</g>
</g>
<!-- Node1&#45;&gt;Node9 -->
<g id="edge8" class="edge"><title>Node1&#45;&gt;Node9</title>
<path fill="none" stroke="midnightblue" d="M809,-403.933C809,-390.523 809,-377.721 809,-366.799"/>
<polygon fill="none" stroke="midnightblue" points="805.5,-404.286 809,-414.286 812.5,-404.286 805.5,-404.286"/>
</g>
<!-- Node14 -->
<g id="node14" class="node"><title>Node14</title>
<g id="a_node14"><a xlink:href="classmemoryoracle_1_1instance_1_1RegisterDecorator.html" target="_top" xlink:title="{memoryoracle.instance.Register\lDecorator\n||}">
<polygon fill="none" stroke="black" points="914.5,-298.5 914.5,-366.5 1085.5,-366.5 1085.5,-298.5 914.5,-298.5"/>
<text text-anchor="start" x="922.5" y="-354.5" font-family="Helvetica,sans-Serif" font-size="10.00">memoryoracle.instance.Register</text>
<text text-anchor="middle" x="1000" y="-343.5" font-family="Helvetica,sans-Serif" font-size="10.00">Decorator</text>
<polyline fill="none" stroke="black" points="914.5,-336.5 1085.5,-336.5 "/>
<text text-anchor="middle" x="1000" y="-324.5" font-family="Helvetica,sans-Serif" font-size="10.00"> </text>
<polyline fill="none" stroke="black" points="914.5,-317.5 1085.5,-317.5 "/>
<text text-anchor="middle" x="1000" y="-305.5" font-family="Helvetica,sans-Serif" font-size="10.00"> </text>
</a>
</g>
</g>
<!-- Node1&#45;&gt;Node14 -->
<g id="edge13" class="edge"><title>Node1&#45;&gt;Node14</title>
<path fill="none" stroke="midnightblue" d="M903.034,-424.881C925.111,-404.076 947.292,-383.173 964.856,-366.62"/>
<polygon fill="none" stroke="midnightblue" points="900.436,-422.521 895.559,-431.927 905.237,-427.615 900.436,-422.521"/>
</g>
<!-- Node15 -->
<g id="node15" class="node"><title>Node15</title>
<g id="a_node15"><a xlink:href="classmemoryoracle_1_1instance_1_1StaticDecorator.html" target="_top" xlink:title="{memoryoracle.instance.Static\lDecorator\n||}">
<polygon fill="none" stroke="black" points="1103.5,-298.5 1103.5,-366.5 1264.5,-366.5 1264.5,-298.5 1103.5,-298.5"/>
<text text-anchor="start" x="1111.5" y="-354.5" font-family="Helvetica,sans-Serif" font-size="10.00">memoryoracle.instance.Static</text>
<text text-anchor="middle" x="1184" y="-343.5" font-family="Helvetica,sans-Serif" font-size="10.00">Decorator</text>
<polyline fill="none" stroke="black" points="1103.5,-336.5 1264.5,-336.5 "/>
<text text-anchor="middle" x="1184" y="-324.5" font-family="Helvetica,sans-Serif" font-size="10.00"> </text>
<polyline fill="none" stroke="black" points="1103.5,-317.5 1264.5,-317.5 "/>
<text text-anchor="middle" x="1184" y="-305.5" font-family="Helvetica,sans-Serif" font-size="10.00"> </text>
</a>
</g>
</g>
<!-- Node1&#45;&gt;Node15 -->
<g id="edge14" class="edge"><title>Node1&#45;&gt;Node15</title>
<path fill="none" stroke="midnightblue" d="M904.638,-468.479C960.046,-442.284 1031.08,-408.512 1094,-378 1101.53,-374.349 1109.4,-370.503 1117.22,-366.664"/>
<polygon fill="none" stroke="midnightblue" points="903.08,-465.344 895.534,-472.782 906.071,-471.673 903.08,-465.344"/>
</g>
<!-- Node16 -->
<g id="node16" class="node"><title>Node16</title>
<g id="a_node16"><a xlink:href="classmemoryoracle_1_1instance_1_1Void.html" target="_top" xlink:title="{memoryoracle.instance.Void\n||}">
<polygon fill="none" stroke="black" points="1282.5,-304 1282.5,-361 1435.5,-361 1435.5,-304 1282.5,-304"/>
<text text-anchor="middle" x="1359" y="-349" font-family="Helvetica,sans-Serif" font-size="10.00">memoryoracle.instance.Void</text>
<polyline fill="none" stroke="black" points="1282.5,-342 1435.5,-342 "/>
<text text-anchor="middle" x="1359" y="-330" font-family="Helvetica,sans-Serif" font-size="10.00"> </text>
<polyline fill="none" stroke="black" points="1282.5,-323 1435.5,-323 "/>
<text text-anchor="middle" x="1359" y="-311" font-family="Helvetica,sans-Serif" font-size="10.00"> </text>
</a>
</g>
</g>
<!-- Node1&#45;&gt;Node16 -->
<g id="edge15" class="edge"><title>Node1&#45;&gt;Node16</title>
<path fill="none" stroke="midnightblue" d="M905.667,-491.081C1000.82,-467.669 1149.41,-427.48 1273,-378 1285.17,-373.126 1297.91,-367.091 1309.74,-361.055"/>
<polygon fill="none" stroke="midnightblue" points="904.651,-487.726 895.769,-493.503 906.315,-494.525 904.651,-487.726"/>
</g>
<!-- Node17 -->
<g id="node17" class="node"><title>Node17</title>
<g id="a_node17"><a xlink:href="classmemoryoracle_1_1instance_1_1VolatileDecorator.html" target="_top" xlink:title="{memoryoracle.instance.Volatile\lDecorator\n||}">
<polygon fill="none" stroke="black" points="1453.5,-298.5 1453.5,-366.5 1620.5,-366.5 1620.5,-298.5 1453.5,-298.5"/>
<text text-anchor="start" x="1461.5" y="-354.5" font-family="Helvetica,sans-Serif" font-size="10.00">memoryoracle.instance.Volatile</text>
<text text-anchor="middle" x="1537" y="-343.5" font-family="Helvetica,sans-Serif" font-size="10.00">Decorator</text>
<polyline fill="none" stroke="black" points="1453.5,-336.5 1620.5,-336.5 "/>
<text text-anchor="middle" x="1537" y="-324.5" font-family="Helvetica,sans-Serif" font-size="10.00"> </text>
<polyline fill="none" stroke="black" points="1453.5,-317.5 1620.5,-317.5 "/>
<text text-anchor="middle" x="1537" y="-305.5" font-family="Helvetica,sans-Serif" font-size="10.00"> </text>
</a>
</g>
</g>
<!-- Node1&#45;&gt;Node17 -->
<g id="edge16" class="edge"><title>Node1&#45;&gt;Node17</title>
<path fill="none" stroke="midnightblue" d="M905.752,-500.135C1031.92,-481.069 1258.42,-441.205 1444,-378 1453.57,-374.74 1463.45,-370.751 1473.03,-366.514"/>
<polygon fill="none" stroke="midnightblue" points="905.095,-496.695 895.725,-501.639 906.133,-503.617 905.095,-496.695"/>
</g>
<!-- Node2 -->
<g id="node2" class="node"><title>Node2</title>
<g id="a_node2"><a xlink:href="classmemoryoracle_1_1typed_1_1Typed.html" target="_top" xlink:title="{memoryoracle.typed.Typed\n|&#45; _type\l&#45; _typeHandlerCode\l|+ type()\l+ type_code()\l}">
<polygon fill="none" stroke="black" points="736,-651.5 736,-730.5 882,-730.5 882,-651.5 736,-651.5"/>
<text text-anchor="middle" x="809" y="-718.5" font-family="Helvetica,sans-Serif" font-size="10.00">memoryoracle.typed.Typed</text>
<polyline fill="none" stroke="black" points="736,-711.5 882,-711.5 "/>
<text text-anchor="start" x="744" y="-699.5" font-family="Helvetica,sans-Serif" font-size="10.00">&#45; _type</text>
<text text-anchor="start" x="744" y="-688.5" font-family="Helvetica,sans-Serif" font-size="10.00">&#45; _typeHandlerCode</text>
<polyline fill="none" stroke="black" points="736,-681.5 882,-681.5 "/>
<text text-anchor="start" x="744" y="-669.5" font-family="Helvetica,sans-Serif" font-size="10.00">+ type()</text>
<text text-anchor="start" x="744" y="-658.5" font-family="Helvetica,sans-Serif" font-size="10.00">+ type_code()</text>
</a>
</g>
</g>
<!-- Node2&#45;&gt;Node1 -->
<g id="edge1" class="edge"><title>Node2&#45;&gt;Node1</title>
<path fill="none" stroke="midnightblue" d="M809,-641.064C809,-632.735 809,-623.825 809,-614.738"/>
<polygon fill="none" stroke="midnightblue" points="805.5,-641.273 809,-651.273 812.5,-641.273 805.5,-641.273"/>
</g>
<!-- Node3 -->
<g id="node3" class="node"><title>Node3</title>
<g id="a_node3"><a xlink:href="classmemoryoracle_1_1tracked_1_1Tracked.html" target="_top" xlink:title="{memoryoracle.tracked.Tracked\n|+ execution\l|+ track()\l}">
<polygon fill="none" stroke="black" points="727,-767.5 727,-824.5 891,-824.5 891,-767.5 727,-767.5"/>
<text text-anchor="middle" x="809" y="-812.5" font-family="Helvetica,sans-Serif" font-size="10.00">memoryoracle.tracked.Tracked</text>
<polyline fill="none" stroke="black" points="727,-805.5 891,-805.5 "/>
<text text-anchor="start" x="735" y="-793.5" font-family="Helvetica,sans-Serif" font-size="10.00">+ execution</text>
<polyline fill="none" stroke="black" points="727,-786.5 891,-786.5 "/>
<text text-anchor="start" x="735" y="-774.5" font-family="Helvetica,sans-Serif" font-size="10.00">+ track()</text>
</a>
</g>
</g>
<!-- Node3&#45;&gt;Node2 -->
<g id="edge2" class="edge"><title>Node3&#45;&gt;Node2</title>
<path fill="none" stroke="midnightblue" d="M809,-757.156C809,-748.473 809,-739.232 809,-730.52"/>
<polygon fill="none" stroke="midnightblue" points="805.5,-757.398 809,-767.398 812.5,-757.398 805.5,-757.398"/>
</g>
<!-- Node4 -->
<g id="node4" class="node"><title>Node4</title>
<polygon fill="none" stroke="#bfbfbf" points="749.5,-861.5 749.5,-918.5 868.5,-918.5 868.5,-861.5 749.5,-861.5"/>
<text text-anchor="middle" x="809" y="-906.5" font-family="Helvetica,sans-Serif" font-size="10.00">EmbeddedDocument</text>
<polyline fill="none" stroke="#bfbfbf" points="749.5,-899.5 868.5,-899.5 "/>
<text text-anchor="middle" x="809" y="-887.5" font-family="Helvetica,sans-Serif" font-size="10.00"> </text>
<polyline fill="none" stroke="#bfbfbf" points="749.5,-880.5 868.5,-880.5 "/>
<text text-anchor="middle" x="809" y="-868.5" font-family="Helvetica,sans-Serif" font-size="10.00"> </text>
</g>
<!-- Node4&#45;&gt;Node3 -->
<g id="edge3" class="edge"><title>Node4&#45;&gt;Node3</title>
<path fill="none" stroke="midnightblue" d="M809,-851.209C809,-842.293 809,-832.951 809,-824.584"/>
<polygon fill="none" stroke="midnightblue" points="805.5,-851.397 809,-861.397 812.5,-851.397 805.5,-851.397"/>
</g>
<!-- Node10 -->
<g id="node10" class="node"><title>Node10</title>
<g id="a_node10"><a xlink:href="classmemoryoracle_1_1instance_1_1Float.html" target="_top" xlink:title="{memoryoracle.instance.Float\n|+ repository\l&#45; _updateTracker\l&#45; _watchers\l&#45; _typeHandlerCode\l|+ __init__()\l}">
<polygon fill="none" stroke="black" points="562,-133 562,-223 718,-223 718,-133 562,-133"/>
<text text-anchor="middle" x="640" y="-211" font-family="Helvetica,sans-Serif" font-size="10.00">memoryoracle.instance.Float</text>
<polyline fill="none" stroke="black" points="562,-204 718,-204 "/>
<text text-anchor="start" x="570" y="-192" font-family="Helvetica,sans-Serif" font-size="10.00">+ repository</text>
<text text-anchor="start" x="570" y="-181" font-family="Helvetica,sans-Serif" font-size="10.00">&#45; _updateTracker</text>
<text text-anchor="start" x="570" y="-170" font-family="Helvetica,sans-Serif" font-size="10.00">&#45; _watchers</text>
<text text-anchor="start" x="570" y="-159" font-family="Helvetica,sans-Serif" font-size="10.00">&#45; _typeHandlerCode</text>
<polyline fill="none" stroke="black" points="562,-152 718,-152 "/>
<text text-anchor="start" x="570" y="-140" font-family="Helvetica,sans-Serif" font-size="10.00">+ __init__()</text>
</a>
</g>
</g>
<!-- Node9&#45;&gt;Node10 -->
<g id="edge9" class="edge"><title>Node9&#45;&gt;Node10</title>
<path fill="none" stroke="midnightblue" d="M764.643,-291.474C741.336,-270.443 712.721,-244.621 688.79,-223.026"/>
<polygon fill="none" stroke="midnightblue" points="762.561,-294.309 772.33,-298.41 767.25,-289.112 762.561,-294.309"/>
</g>
<!-- Node11 -->
<g id="node11" class="node"><title>Node11</title>
<g id="a_node11"><a xlink:href="classmemoryoracle_1_1instance_1_1Int.html" target="_top" xlink:title="{memoryoracle.instance.Int\n|+ repository\l&#45; _updateTracker\l&#45; _watchers\l&#45; _arrayFinder\l&#45; _pointerFinder\l&#45; _spaceFixer\l&#45; _typeHandlerCode\l|+ __init__()\l&#45; _find_hidden_type()\l&#45; _track()\l}">
<polygon fill="none" stroke="black" points="736.5,-105.5 736.5,-250.5 881.5,-250.5 881.5,-105.5 736.5,-105.5"/>
<text text-anchor="middle" x="809" y="-238.5" font-family="Helvetica,sans-Serif" font-size="10.00">memoryoracle.instance.Int</text>
<polyline fill="none" stroke="black" points="736.5,-231.5 881.5,-231.5 "/>
<text text-anchor="start" x="744.5" y="-219.5" font-family="Helvetica,sans-Serif" font-size="10.00">+ repository</text>
<text text-anchor="start" x="744.5" y="-208.5" font-family="Helvetica,sans-Serif" font-size="10.00">&#45; _updateTracker</text>
<text text-anchor="start" x="744.5" y="-197.5" font-family="Helvetica,sans-Serif" font-size="10.00">&#45; _watchers</text>
<text text-anchor="start" x="744.5" y="-186.5" font-family="Helvetica,sans-Serif" font-size="10.00">&#45; _arrayFinder</text>
<text text-anchor="start" x="744.5" y="-175.5" font-family="Helvetica,sans-Serif" font-size="10.00">&#45; _pointerFinder</text>
<text text-anchor="start" x="744.5" y="-164.5" font-family="Helvetica,sans-Serif" font-size="10.00">&#45; _spaceFixer</text>
<text text-anchor="start" x="744.5" y="-153.5" font-family="Helvetica,sans-Serif" font-size="10.00">&#45; _typeHandlerCode</text>
<polyline fill="none" stroke="black" points="736.5,-146.5 881.5,-146.5 "/>
<text text-anchor="start" x="744.5" y="-134.5" font-family="Helvetica,sans-Serif" font-size="10.00">+ __init__()</text>
<text text-anchor="start" x="744.5" y="-123.5" font-family="Helvetica,sans-Serif" font-size="10.00">&#45; _find_hidden_type()</text>
<text text-anchor="start" x="744.5" y="-112.5" font-family="Helvetica,sans-Serif" font-size="10.00">&#45; _track()</text>
</a>
</g>
</g>
<!-- Node9&#45;&gt;Node11 -->
<g id="edge10" class="edge"><title>Node9&#45;&gt;Node11</title>
<path fill="none" stroke="midnightblue" d="M809,-288.409C809,-276.6 809,-263.473 809,-250.528"/>
<polygon fill="none" stroke="midnightblue" points="805.5,-288.41 809,-298.41 812.5,-288.41 805.5,-288.41"/>
</g>
<!-- Node12 -->
<g id="node12" class="node"><title>Node12</title>
<g id="a_node12"><a xlink:href="classmemoryoracle_1_1instance_1_1Pointer.html" target="_top" xlink:title="{memoryoracle.instance.Pointer\n|+ repository\l&#45; _updateTracker\l&#45; _watchers\l&#45; _typeHandlerCode\l|+ __init__()\l&#45; _track()\l}">
<polygon fill="none" stroke="black" points="899.5,-127.5 899.5,-228.5 1066.5,-228.5 1066.5,-127.5 899.5,-127.5"/>
<text text-anchor="middle" x="983" y="-216.5" font-family="Helvetica,sans-Serif" font-size="10.00">memoryoracle.instance.Pointer</text>
<polyline fill="none" stroke="black" points="899.5,-209.5 1066.5,-209.5 "/>
<text text-anchor="start" x="907.5" y="-197.5" font-family="Helvetica,sans-Serif" font-size="10.00">+ repository</text>
<text text-anchor="start" x="907.5" y="-186.5" font-family="Helvetica,sans-Serif" font-size="10.00">&#45; _updateTracker</text>
<text text-anchor="start" x="907.5" y="-175.5" font-family="Helvetica,sans-Serif" font-size="10.00">&#45; _watchers</text>
<text text-anchor="start" x="907.5" y="-164.5" font-family="Helvetica,sans-Serif" font-size="10.00">&#45; _typeHandlerCode</text>
<polyline fill="none" stroke="black" points="899.5,-157.5 1066.5,-157.5 "/>
<text text-anchor="start" x="907.5" y="-145.5" font-family="Helvetica,sans-Serif" font-size="10.00">+ __init__()</text>
<text text-anchor="start" x="907.5" y="-134.5" font-family="Helvetica,sans-Serif" font-size="10.00">&#45; _track()</text>
</a>
</g>
</g>
<!-- Node9&#45;&gt;Node12 -->
<g id="edge11" class="edge"><title>Node9&#45;&gt;Node12</title>
<path fill="none" stroke="midnightblue" d="M854.345,-291.758C876.39,-272.437 903.106,-249.022 926.468,-228.547"/>
<polygon fill="none" stroke="midnightblue" points="851.969,-289.186 846.755,-298.41 856.583,-294.451 851.969,-289.186"/>
</g>
<!-- Node13 -->
<g id="node13" class="node"><title>Node13</title>
<g id="a_node13"><a xlink:href="classmemoryoracle_1_1instance_1_1CharString.html" target="_top" xlink:title="{memoryoracle.instance.Char\lString\n||}">
<polygon fill="none" stroke="black" points="905.5,-0.5 905.5,-68.5 1060.5,-68.5 1060.5,-0.5 905.5,-0.5"/>
<text text-anchor="start" x="913.5" y="-56.5" font-family="Helvetica,sans-Serif" font-size="10.00">memoryoracle.instance.Char</text>
<text text-anchor="middle" x="983" y="-45.5" font-family="Helvetica,sans-Serif" font-size="10.00">String</text>
<polyline fill="none" stroke="black" points="905.5,-38.5 1060.5,-38.5 "/>
<text text-anchor="middle" x="983" y="-26.5" font-family="Helvetica,sans-Serif" font-size="10.00"> </text>
<polyline fill="none" stroke="black" points="905.5,-19.5 1060.5,-19.5 "/>
<text text-anchor="middle" x="983" y="-7.5" font-family="Helvetica,sans-Serif" font-size="10.00"> </text>
</a>
</g>
</g>
<!-- Node12&#45;&gt;Node13 -->
<g id="edge12" class="edge"><title>Node12&#45;&gt;Node13</title>
<path fill="none" stroke="midnightblue" d="M983,-116.931C983,-100.36 983,-82.9884 983,-68.5666"/>
<polygon fill="none" stroke="midnightblue" points="979.5,-117.112 983,-127.112 986.5,-117.112 979.5,-117.112"/>
</g>
</g>
</svg>
