<?xml version="1.0" encoding="UTF-8" standalone="no"?>
<!DOCTYPE svg PUBLIC "-//W3C//DTD SVG 1.1//EN"
 "http://www.w3.org/Graphics/SVG/1.1/DTD/svg11.dtd">
<!-- Generated by graphviz version 2.38.0 (20140413.2041)
 -->
<!-- Title: memoryoracle.whip.WhipDecorator Pages: 1 -->
<svg width="192pt" height="309pt"
 viewBox="0.00 0.00 192.00 309.00" xmlns="http://www.w3.org/2000/svg" xmlns:xlink="http://www.w3.org/1999/xlink">
<g id="graph0" class="graph" transform="scale(1 1) rotate(0) translate(4 305)">
<title>memoryoracle.whip.WhipDecorator</title>
<!-- Node1 -->
<g id="node1" class="node"><title>Node1</title>
<polygon fill="#bfbfbf" stroke="black" points="0,-0.5 0,-90.5 184,-90.5 184,-0.5 0,-0.5"/>
<text text-anchor="middle" x="92" y="-78.5" font-family="Helvetica,sans-Serif" font-size="10.00">memoryoracle.whip.WhipDecorator</text>
<polyline fill="none" stroke="black" points="0,-71.5 184,-71.5 "/>
<text text-anchor="start" x="8" y="-59.5" font-family="Helvetica,sans-Serif" font-size="10.00">+ coffee</text>
<text text-anchor="start" x="8" y="-48.5" font-family="Helvetica,sans-Serif" font-size="10.00">&#45; _additionalCost</text>
<polyline fill="none" stroke="black" points="0,-41.5 184,-41.5 "/>
<text text-anchor="start" x="8" y="-29.5" font-family="Helvetica,sans-Serif" font-size="10.00">+ __init__()</text>
<text text-anchor="start" x="8" y="-18.5" font-family="Helvetica,sans-Serif" font-size="10.00">+ cost()</text>
<text text-anchor="start" x="8" y="-7.5" font-family="Helvetica,sans-Serif" font-size="10.00">+ name()</text>
</g>
<!-- Node2 -->
<g id="node2" class="node"><title>Node2</title>
<g id="a_node2"><a xlink:href="classmemoryoracle_1_1whip_1_1Coffee.html" target="_top" xlink:title="{memoryoracle.whip.Coffee\n||+ __init__()\l+ cost()\l+ name()\l}">
<polygon fill="none" stroke="black" points="20,-127.5 20,-206.5 164,-206.5 164,-127.5 20,-127.5"/>
<text text-anchor="middle" x="92" y="-194.5" font-family="Helvetica,sans-Serif" font-size="10.00">memoryoracle.whip.Coffee</text>
<polyline fill="none" stroke="black" points="20,-187.5 164,-187.5 "/>
<text text-anchor="middle" x="92" y="-175.5" font-family="Helvetica,sans-Serif" font-size="10.00"> </text>
<polyline fill="none" stroke="black" points="20,-168.5 164,-168.5 "/>
<text text-anchor="start" x="28" y="-156.5" font-family="Helvetica,sans-Serif" font-size="10.00">+ __init__()</text>
<text text-anchor="start" x="28" y="-145.5" font-family="Helvetica,sans-Serif" font-size="10.00">+ cost()</text>
<text text-anchor="start" x="28" y="-134.5" font-family="Helvetica,sans-Serif" font-size="10.00">+ name()</text>
</a>
</g>
</g>
<!-- Node2&#45;&gt;Node1 -->
<g id="edge1" class="edge"><title>Node2&#45;&gt;Node1</title>
<path fill="none" stroke="midnightblue" d="M92,-117.187C92,-108.491 92,-99.4758 92,-90.9111"/>
<polygon fill="none" stroke="midnightblue" points="88.5001,-117.202 92,-127.202 95.5001,-117.202 88.5001,-117.202"/>
</g>
<!-- Node3 -->
<g id="node3" class="node"><title>Node3</title>
<polygon fill="none" stroke="#bfbfbf" points="69,-243.5 69,-300.5 115,-300.5 115,-243.5 69,-243.5"/>
<text text-anchor="middle" x="92" y="-288.5" font-family="Helvetica,sans-Serif" font-size="10.00">object</text>
<polyline fill="none" stroke="#bfbfbf" points="69,-281.5 115,-281.5 "/>
<text text-anchor="middle" x="92" y="-269.5" font-family="Helvetica,sans-Serif" font-size="10.00"> </text>
<polyline fill="none" stroke="#bfbfbf" points="69,-262.5 115,-262.5 "/>
<text text-anchor="middle" x="92" y="-250.5" font-family="Helvetica,sans-Serif" font-size="10.00"> </text>
</g>
<!-- Node3&#45;&gt;Node2 -->
<g id="edge2" class="edge"><title>Node3&#45;&gt;Node2</title>
<path fill="none" stroke="midnightblue" d="M92,-233.156C92,-224.473 92,-215.232 92,-206.52"/>
<polygon fill="none" stroke="midnightblue" points="88.5001,-233.398 92,-243.398 95.5001,-233.398 88.5001,-233.398"/>
</g>
</g>
</svg>
