<?xml version="1.0" encoding="UTF-8" standalone="no"?>
<!DOCTYPE svg PUBLIC "-//W3C//DTD SVG 1.1//EN"
 "http://www.w3.org/Graphics/SVG/1.1/DTD/svg11.dtd">
<!-- Generated by graphviz version 2.38.0 (20140413.2041)
 -->
<!-- Title: memoryoracle.templatable.ChildTypeDecorator Pages: 1 -->
<svg width="322pt" height="519pt"
 viewBox="0.00 0.00 322.00 519.00" xmlns="http://www.w3.org/2000/svg" xmlns:xlink="http://www.w3.org/1999/xlink">
<g id="graph0" class="graph" transform="scale(1 1) rotate(0) translate(4 515)">
<title>memoryoracle.templatable.ChildTypeDecorator</title>
<!-- Node1 -->
<g id="node1" class="node"><title>Node1</title>
<polygon fill="#bfbfbf" stroke="black" points="81,-0.5 81,-68.5 231,-68.5 231,-0.5 81,-0.5"/>
<text text-anchor="start" x="89" y="-56.5" font-family="Helvetica,sans-Serif" font-size="10.00">memoryoracle.templatable.</text>
<text text-anchor="middle" x="156" y="-45.5" font-family="Helvetica,sans-Serif" font-size="10.00">ChildTypeDecorator</text>
<polyline fill="none" stroke="black" points="81,-38.5 231,-38.5 "/>
<text text-anchor="middle" x="156" y="-26.5" font-family="Helvetica,sans-Serif" font-size="10.00"> </text>
<polyline fill="none" stroke="black" points="81,-19.5 231,-19.5 "/>
<text text-anchor="middle" x="156" y="-7.5" font-family="Helvetica,sans-Serif" font-size="10.00"> </text>
</g>
<!-- Node2 -->
<g id="node2" class="node"><title>Node2</title>
<g id="a_node2"><a xlink:href="classmemoryoracle_1_1templatable_1_1Type.html" target="_top" xlink:title="{memoryoracle.templatable.Type\n||}">
<polygon fill="none" stroke="black" points="70.5,-105.5 70.5,-162.5 241.5,-162.5 241.5,-105.5 70.5,-105.5"/>
<text text-anchor="middle" x="156" y="-150.5" font-family="Helvetica,sans-Serif" font-size="10.00">memoryoracle.templatable.Type</text>
<polyline fill="none" stroke="black" points="70.5,-143.5 241.5,-143.5 "/>
<text text-anchor="middle" x="156" y="-131.5" font-family="Helvetica,sans-Serif" font-size="10.00"> </text>
<polyline fill="none" stroke="black" points="70.5,-124.5 241.5,-124.5 "/>
<text text-anchor="middle" x="156" y="-112.5" font-family="Helvetica,sans-Serif" font-size="10.00"> </text>
</a>
</g>
</g>
<!-- Node2&#45;&gt;Node1 -->
<g id="edge1" class="edge"><title>Node2&#45;&gt;Node1</title>
<path fill="none" stroke="midnightblue" d="M156,-95.0631C156,-86.3933 156,-77.2431 156,-68.7855"/>
<polygon fill="none" stroke="midnightblue" points="152.5,-95.3212 156,-105.321 159.5,-95.3212 152.5,-95.3212"/>
</g>
<!-- Node3 -->
<g id="node3" class="node"><title>Node3</title>
<g id="a_node3"><a xlink:href="classmemoryoracle_1_1typed_1_1Typed.html" target="_top" xlink:title="{memoryoracle.typed.Typed\n|+ lookup\l&#45; _type\l&#45; _typeCodeMap\l&#45; _typeHandlerCode\l|+ type()\l+ type_code()\l+ gdb_type()\l+ type_handler()\l}">
<polygon fill="none" stroke="black" points="0,-199.5 0,-322.5 146,-322.5 146,-199.5 0,-199.5"/>
<text text-anchor="middle" x="73" y="-310.5" font-family="Helvetica,sans-Serif" font-size="10.00">memoryoracle.typed.Typed</text>
<polyline fill="none" stroke="black" points="0,-303.5 146,-303.5 "/>
<text text-anchor="start" x="8" y="-291.5" font-family="Helvetica,sans-Serif" font-size="10.00">+ lookup</text>
<text text-anchor="start" x="8" y="-280.5" font-family="Helvetica,sans-Serif" font-size="10.00">&#45; _type</text>
<text text-anchor="start" x="8" y="-269.5" font-family="Helvetica,sans-Serif" font-size="10.00">&#45; _typeCodeMap</text>
<text text-anchor="start" x="8" y="-258.5" font-family="Helvetica,sans-Serif" font-size="10.00">&#45; _typeHandlerCode</text>
<polyline fill="none" stroke="black" points="0,-251.5 146,-251.5 "/>
<text text-anchor="start" x="8" y="-239.5" font-family="Helvetica,sans-Serif" font-size="10.00">+ type()</text>
<text text-anchor="start" x="8" y="-228.5" font-family="Helvetica,sans-Serif" font-size="10.00">+ type_code()</text>
<text text-anchor="start" x="8" y="-217.5" font-family="Helvetica,sans-Serif" font-size="10.00">+ gdb_type()</text>
<text text-anchor="start" x="8" y="-206.5" font-family="Helvetica,sans-Serif" font-size="10.00">+ type_handler()</text>
</a>
</g>
</g>
<!-- Node3&#45;&gt;Node2 -->
<g id="edge2" class="edge"><title>Node3&#45;&gt;Node2</title>
<path fill="none" stroke="midnightblue" d="M118.863,-190.93C125.48,-180.964 131.947,-171.224 137.582,-162.738"/>
<polygon fill="none" stroke="midnightblue" points="115.9,-189.064 113.284,-199.331 121.732,-192.936 115.9,-189.064"/>
</g>
<!-- Node4 -->
<g id="node4" class="node"><title>Node4</title>
<g id="a_node4"><a xlink:href="classmemoryoracle_1_1tracked_1_1Tracked.html" target="_top" xlink:title="{memoryoracle.tracked.Tracked\n||}">
<polygon fill="none" stroke="black" points="74,-359.5 74,-416.5 238,-416.5 238,-359.5 74,-359.5"/>
<text text-anchor="middle" x="156" y="-404.5" font-family="Helvetica,sans-Serif" font-size="10.00">memoryoracle.tracked.Tracked</text>
<polyline fill="none" stroke="black" points="74,-397.5 238,-397.5 "/>
<text text-anchor="middle" x="156" y="-385.5" font-family="Helvetica,sans-Serif" font-size="10.00"> </text>
<polyline fill="none" stroke="black" points="74,-378.5 238,-378.5 "/>
<text text-anchor="middle" x="156" y="-366.5" font-family="Helvetica,sans-Serif" font-size="10.00"> </text>
</a>
</g>
</g>
<!-- Node4&#45;&gt;Node3 -->
<g id="edge3" class="edge"><title>Node4&#45;&gt;Node3</title>
<path fill="none" stroke="midnightblue" d="M131.938,-350.762C126.085,-341.947 119.666,-332.281 113.286,-322.672"/>
<polygon fill="none" stroke="midnightblue" points="129.132,-352.864 137.58,-359.258 134.964,-348.992 129.132,-352.864"/>
</g>
<!-- Node6 -->
<g id="node6" class="node"><title>Node6</title>
<g id="a_node6"><a xlink:href="classmemoryoracle_1_1templatable_1_1Templatable.html" target="_top" xlink:title="{memoryoracle.templatable.\lTemplatable\n||}">
<polygon fill="none" stroke="black" points="164,-227 164,-295 314,-295 314,-227 164,-227"/>
<text text-anchor="start" x="172" y="-283" font-family="Helvetica,sans-Serif" font-size="10.00">memoryoracle.templatable.</text>
<text text-anchor="middle" x="239" y="-272" font-family="Helvetica,sans-Serif" font-size="10.00">Templatable</text>
<polyline fill="none" stroke="black" points="164,-265 314,-265 "/>
<text text-anchor="middle" x="239" y="-253" font-family="Helvetica,sans-Serif" font-size="10.00"> </text>
<polyline fill="none" stroke="black" points="164,-246 314,-246 "/>
<text text-anchor="middle" x="239" y="-234" font-family="Helvetica,sans-Serif" font-size="10.00"> </text>
</a>
</g>
</g>
<!-- Node4&#45;&gt;Node6 -->
<g id="edge6" class="edge"><title>Node4&#45;&gt;Node6</title>
<path fill="none" stroke="midnightblue" d="M180.239,-350.495C191.792,-333.096 205.516,-312.427 216.795,-295.441"/>
<polygon fill="none" stroke="midnightblue" points="177.036,-348.992 174.42,-359.258 182.868,-352.864 177.036,-348.992"/>
</g>
<!-- Node5 -->
<g id="node5" class="node"><title>Node5</title>
<polygon fill="none" stroke="#bfbfbf" points="133,-453.5 133,-510.5 179,-510.5 179,-453.5 133,-453.5"/>
<text text-anchor="middle" x="156" y="-498.5" font-family="Helvetica,sans-Serif" font-size="10.00">object</text>
<polyline fill="none" stroke="#bfbfbf" points="133,-491.5 179,-491.5 "/>
<text text-anchor="middle" x="156" y="-479.5" font-family="Helvetica,sans-Serif" font-size="10.00"> </text>
<polyline fill="none" stroke="#bfbfbf" points="133,-472.5 179,-472.5 "/>
<text text-anchor="middle" x="156" y="-460.5" font-family="Helvetica,sans-Serif" font-size="10.00"> </text>
</g>
<!-- Node5&#45;&gt;Node4 -->
<g id="edge4" class="edge"><title>Node5&#45;&gt;Node4</title>
<path fill="none" stroke="midnightblue" d="M156,-443.209C156,-434.293 156,-424.951 156,-416.584"/>
<polygon fill="none" stroke="midnightblue" points="152.5,-443.397 156,-453.397 159.5,-443.397 152.5,-443.397"/>
</g>
<!-- Node6&#45;&gt;Node2 -->
<g id="edge5" class="edge"><title>Node6&#45;&gt;Node2</title>
<path fill="none" stroke="midnightblue" d="M211.201,-218.134C199.11,-199.924 185.27,-179.082 174.474,-162.822"/>
<polygon fill="none" stroke="midnightblue" points="208.528,-220.436 216.975,-226.83 214.36,-216.564 208.528,-220.436"/>
</g>
</g>
</svg>
