<?xml version="1.0" encoding="UTF-8" standalone="no"?>
<!DOCTYPE svg PUBLIC "-//W3C//DTD SVG 1.1//EN"
 "http://www.w3.org/Graphics/SVG/1.1/DTD/svg11.dtd">
<!-- Generated by graphviz version 2.38.0 (20140413.2041)
 -->
<!-- Title: memoryoracle.models.Tracked Pages: 1 -->
<svg width="1400pt" height="579pt"
 viewBox="0.00 0.00 1400.00 579.00" xmlns="http://www.w3.org/2000/svg" xmlns:xlink="http://www.w3.org/1999/xlink">
<g id="graph0" class="graph" transform="scale(1 1) rotate(0) translate(4 575)">
<title>memoryoracle.models.Tracked</title>
<!-- Node1 -->
<g id="node1" class="node"><title>Node1</title>
<polygon fill="#bfbfbf" stroke="black" points="577,-419.5 577,-476.5 741,-476.5 741,-419.5 577,-419.5"/>
<text text-anchor="middle" x="659" y="-464.5" font-family="Helvetica,sans-Serif" font-size="10.00">memoryoracle.models.Tracked</text>
<polyline fill="none" stroke="black" points="577,-457.5 741,-457.5 "/>
<text text-anchor="start" x="585" y="-445.5" font-family="Helvetica,sans-Serif" font-size="10.00">+ name</text>
<polyline fill="none" stroke="black" points="577,-438.5 741,-438.5 "/>
<text text-anchor="middle" x="659" y="-426.5" font-family="Helvetica,sans-Serif" font-size="10.00"> </text>
</g>
<!-- Node3 -->
<g id="node3" class="node"><title>Node3</title>
<g id="a_node3"><a xlink:href="classmemoryoracle_1_1models_1_1Commit.html" target="_top" xlink:title="{memoryoracle.models.Commit\n|+ id_program\l+ vcs_hash\l+ branch_name\l|}">
<polygon fill="none" stroke="black" points="0,-248.5 0,-327.5 166,-327.5 166,-248.5 0,-248.5"/>
<text text-anchor="middle" x="83" y="-315.5" font-family="Helvetica,sans-Serif" font-size="10.00">memoryoracle.models.Commit</text>
<polyline fill="none" stroke="black" points="0,-308.5 166,-308.5 "/>
<text text-anchor="start" x="8" y="-296.5" font-family="Helvetica,sans-Serif" font-size="10.00">+ id_program</text>
<text text-anchor="start" x="8" y="-285.5" font-family="Helvetica,sans-Serif" font-size="10.00">+ vcs_hash</text>
<text text-anchor="start" x="8" y="-274.5" font-family="Helvetica,sans-Serif" font-size="10.00">+ branch_name</text>
<polyline fill="none" stroke="black" points="0,-267.5 166,-267.5 "/>
<text text-anchor="middle" x="83" y="-255.5" font-family="Helvetica,sans-Serif" font-size="10.00"> </text>
</a>
</g>
</g>
<!-- Node1&#45;&gt;Node3 -->
<g id="edge2" class="edge"><title>Node1&#45;&gt;Node3</title>
<path fill="none" stroke="midnightblue" d="M566.892,-441.971C446.139,-434.164 241.82,-416.423 175,-383 149.472,-370.231 126.939,-347.52 110.563,-327.621"/>
<polygon fill="none" stroke="midnightblue" points="566.671,-445.464 576.873,-442.606 567.116,-438.478 566.671,-445.464"/>
</g>
<!-- Node4 -->
<g id="node4" class="node"><title>Node4</title>
<g id="a_node4"><a xlink:href="classmemoryoracle_1_1models_1_1Executable.html" target="_top" xlink:title="{memoryoracle.models.Executable\n|+ path\l+ id_commit\l|}">
<polygon fill="none" stroke="black" points="184,-254 184,-322 364,-322 364,-254 184,-254"/>
<text text-anchor="middle" x="274" y="-310" font-family="Helvetica,sans-Serif" font-size="10.00">memoryoracle.models.Executable</text>
<polyline fill="none" stroke="black" points="184,-303 364,-303 "/>
<text text-anchor="start" x="192" y="-291" font-family="Helvetica,sans-Serif" font-size="10.00">+ path</text>
<text text-anchor="start" x="192" y="-280" font-family="Helvetica,sans-Serif" font-size="10.00">+ id_commit</text>
<polyline fill="none" stroke="black" points="184,-273 364,-273 "/>
<text text-anchor="middle" x="274" y="-261" font-family="Helvetica,sans-Serif" font-size="10.00"> </text>
</a>
</g>
</g>
<!-- Node1&#45;&gt;Node4 -->
<g id="edge3" class="edge"><title>Node1&#45;&gt;Node4</title>
<path fill="none" stroke="midnightblue" d="M567.036,-439.103C508.701,-431.108 433.162,-415.076 373,-383 344.766,-367.947 318.779,-342.629 300.521,-322.059"/>
<polygon fill="none" stroke="midnightblue" points="566.61,-442.577 576.981,-440.411 567.523,-435.637 566.61,-442.577"/>
</g>
<!-- Node5 -->
<g id="node5" class="node"><title>Node5</title>
<g id="a_node5"><a xlink:href="classmemoryoracle_1_1models_1_1Execution.html" target="_top" xlink:title="{memoryoracle.models.Execution\n|+ id_executable\l|}">
<polygon fill="none" stroke="black" points="382,-259.5 382,-316.5 556,-316.5 556,-259.5 382,-259.5"/>
<text text-anchor="middle" x="469" y="-304.5" font-family="Helvetica,sans-Serif" font-size="10.00">memoryoracle.models.Execution</text>
<polyline fill="none" stroke="black" points="382,-297.5 556,-297.5 "/>
<text text-anchor="start" x="390" y="-285.5" font-family="Helvetica,sans-Serif" font-size="10.00">+ id_executable</text>
<polyline fill="none" stroke="black" points="382,-278.5 556,-278.5 "/>
<text text-anchor="middle" x="469" y="-266.5" font-family="Helvetica,sans-Serif" font-size="10.00"> </text>
</a>
</g>
</g>
<!-- Node1&#45;&gt;Node5 -->
<g id="edge4" class="edge"><title>Node1&#45;&gt;Node5</title>
<path fill="none" stroke="midnightblue" d="M606.324,-413.539C592.522,-404.13 577.901,-393.568 565,-383 539.737,-362.306 513.395,-336.133 494.709,-316.663"/>
<polygon fill="none" stroke="midnightblue" points="604.539,-416.556 614.789,-419.238 608.449,-410.75 604.539,-416.556"/>
</g>
<!-- Node6 -->
<g id="node6" class="node"><title>Node6</title>
<g id="a_node6"><a xlink:href="classmemoryoracle_1_1models_1_1Program.html" target="_top" xlink:title="{memoryoracle.models.Program\n||}">
<polygon fill="none" stroke="black" points="574.5,-259.5 574.5,-316.5 743.5,-316.5 743.5,-259.5 574.5,-259.5"/>
<text text-anchor="middle" x="659" y="-304.5" font-family="Helvetica,sans-Serif" font-size="10.00">memoryoracle.models.Program</text>
<polyline fill="none" stroke="black" points="574.5,-297.5 743.5,-297.5 "/>
<text text-anchor="middle" x="659" y="-285.5" font-family="Helvetica,sans-Serif" font-size="10.00"> </text>
<polyline fill="none" stroke="black" points="574.5,-278.5 743.5,-278.5 "/>
<text text-anchor="middle" x="659" y="-266.5" font-family="Helvetica,sans-Serif" font-size="10.00"> </text>
</a>
</g>
</g>
<!-- Node1&#45;&gt;Node6 -->
<g id="edge5" class="edge"><title>Node1&#45;&gt;Node6</title>
<path fill="none" stroke="midnightblue" d="M659,-409.107C659,-380.663 659,-342.365 659,-316.736"/>
<polygon fill="none" stroke="midnightblue" points="655.5,-409.478 659,-419.479 662.5,-409.479 655.5,-409.478"/>
</g>
<!-- Node7 -->
<g id="node7" class="node"><title>Node7</title>
<g id="a_node7"><a xlink:href="classmemoryoracle_1_1models_1_1ProgramFile.html" target="_top" xlink:title="{memoryoracle.models.ProgramFile\n|+ id_commit\l+ path\l+ size\l|}">
<polygon fill="none" stroke="black" points="762,-248.5 762,-327.5 946,-327.5 946,-248.5 762,-248.5"/>
<text text-anchor="middle" x="854" y="-315.5" font-family="Helvetica,sans-Serif" font-size="10.00">memoryoracle.models.ProgramFile</text>
<polyline fill="none" stroke="black" points="762,-308.5 946,-308.5 "/>
<text text-anchor="start" x="770" y="-296.5" font-family="Helvetica,sans-Serif" font-size="10.00">+ id_commit</text>
<text text-anchor="start" x="770" y="-285.5" font-family="Helvetica,sans-Serif" font-size="10.00">+ path</text>
<text text-anchor="start" x="770" y="-274.5" font-family="Helvetica,sans-Serif" font-size="10.00">+ size</text>
<polyline fill="none" stroke="black" points="762,-267.5 946,-267.5 "/>
<text text-anchor="middle" x="854" y="-255.5" font-family="Helvetica,sans-Serif" font-size="10.00"> </text>
</a>
</g>
</g>
<!-- Node1&#45;&gt;Node7 -->
<g id="edge6" class="edge"><title>Node1&#45;&gt;Node7</title>
<path fill="none" stroke="midnightblue" d="M710.478,-413.493C724.251,-404.014 738.934,-393.43 752,-383 773.455,-365.873 796.029,-345.36 814.47,-327.872"/>
<polygon fill="none" stroke="midnightblue" points="708.336,-410.717 702.043,-419.24 712.278,-416.502 708.336,-410.717"/>
</g>
<!-- Node10 -->
<g id="node10" class="node"><title>Node10</title>
<g id="a_node10"><a xlink:href="classmemoryoracle_1_1models_1_1Type.html" target="_top" xlink:title="{memoryoracle.models.Type\n||}">
<polygon fill="none" stroke="black" points="964.5,-259.5 964.5,-316.5 1113.5,-316.5 1113.5,-259.5 964.5,-259.5"/>
<text text-anchor="middle" x="1039" y="-304.5" font-family="Helvetica,sans-Serif" font-size="10.00">memoryoracle.models.Type</text>
<polyline fill="none" stroke="black" points="964.5,-297.5 1113.5,-297.5 "/>
<text text-anchor="middle" x="1039" y="-285.5" font-family="Helvetica,sans-Serif" font-size="10.00"> </text>
<polyline fill="none" stroke="black" points="964.5,-278.5 1113.5,-278.5 "/>
<text text-anchor="middle" x="1039" y="-266.5" font-family="Helvetica,sans-Serif" font-size="10.00"> </text>
</a>
</g>
</g>
<!-- Node1&#45;&gt;Node10 -->
<g id="edge9" class="edge"><title>Node1&#45;&gt;Node10</title>
<path fill="none" stroke="midnightblue" d="M751.226,-441.844C812.497,-434.994 892.806,-419.209 955,-383 982.804,-366.813 1006.37,-338.221 1021.4,-316.808"/>
<polygon fill="none" stroke="midnightblue" points="750.753,-438.375 741.176,-442.907 751.489,-445.336 750.753,-438.375"/>
</g>
<!-- Node11 -->
<g id="node11" class="node"><title>Node11</title>
<g id="a_node11"><a xlink:href="classmemoryoracle_1_1models_1_1Typed.html" target="_top" xlink:title="{memoryoracle.models.Typed\n|+ args\l+ debugee_data\l+ id_execution\l+ type\l+ description\l+ data\l&#45; _updatedNames\l&#45; _typeHandlerCode\l|+ track()\l+ __init__()\l+ type_code()\l+ gdb_type()\l+ type_handler()\l&#45; _basic_track()\l}">
<polygon fill="none" stroke="black" points="1131.5,-193.5 1131.5,-382.5 1286.5,-382.5 1286.5,-193.5 1131.5,-193.5"/>
<text text-anchor="middle" x="1209" y="-370.5" font-family="Helvetica,sans-Serif" font-size="10.00">memoryoracle.models.Typed</text>
<polyline fill="none" stroke="black" points="1131.5,-363.5 1286.5,-363.5 "/>
<text text-anchor="start" x="1139.5" y="-351.5" font-family="Helvetica,sans-Serif" font-size="10.00">+ args</text>
<text text-anchor="start" x="1139.5" y="-340.5" font-family="Helvetica,sans-Serif" font-size="10.00">+ debugee_data</text>
<text text-anchor="start" x="1139.5" y="-329.5" font-family="Helvetica,sans-Serif" font-size="10.00">+ id_execution</text>
<text text-anchor="start" x="1139.5" y="-318.5" font-family="Helvetica,sans-Serif" font-size="10.00">+ type</text>
<text text-anchor="start" x="1139.5" y="-307.5" font-family="Helvetica,sans-Serif" font-size="10.00">+ description</text>
<text text-anchor="start" x="1139.5" y="-296.5" font-family="Helvetica,sans-Serif" font-size="10.00">+ data</text>
<text text-anchor="start" x="1139.5" y="-285.5" font-family="Helvetica,sans-Serif" font-size="10.00">&#45; _updatedNames</text>
<text text-anchor="start" x="1139.5" y="-274.5" font-family="Helvetica,sans-Serif" font-size="10.00">&#45; _typeHandlerCode</text>
<polyline fill="none" stroke="black" points="1131.5,-267.5 1286.5,-267.5 "/>
<text text-anchor="start" x="1139.5" y="-255.5" font-family="Helvetica,sans-Serif" font-size="10.00">+ track()</text>
<text text-anchor="start" x="1139.5" y="-244.5" font-family="Helvetica,sans-Serif" font-size="10.00">+ __init__()</text>
<text text-anchor="start" x="1139.5" y="-233.5" font-family="Helvetica,sans-Serif" font-size="10.00">+ type_code()</text>
<text text-anchor="start" x="1139.5" y="-222.5" font-family="Helvetica,sans-Serif" font-size="10.00">+ gdb_type()</text>
<text text-anchor="start" x="1139.5" y="-211.5" font-family="Helvetica,sans-Serif" font-size="10.00">+ type_handler()</text>
<text text-anchor="start" x="1139.5" y="-200.5" font-family="Helvetica,sans-Serif" font-size="10.00">&#45; _basic_track()</text>
</a>
</g>
</g>
<!-- Node1&#45;&gt;Node11 -->
<g id="edge10" class="edge"><title>Node1&#45;&gt;Node11</title>
<path fill="none" stroke="midnightblue" d="M751.329,-441.589C867.474,-433.529 1059.32,-415.69 1122,-383 1125.15,-381.355 1128.25,-379.548 1131.29,-377.607"/>
<polygon fill="none" stroke="midnightblue" points="750.764,-438.119 741.026,-442.292 751.241,-445.103 750.764,-438.119"/>
</g>
<!-- Node2 -->
<g id="node2" class="node"><title>Node2</title>
<polygon fill="none" stroke="#bfbfbf" points="616,-513.5 616,-570.5 702,-570.5 702,-513.5 616,-513.5"/>
<text text-anchor="middle" x="659" y="-558.5" font-family="Helvetica,sans-Serif" font-size="10.00">models::Model</text>
<polyline fill="none" stroke="#bfbfbf" points="616,-551.5 702,-551.5 "/>
<text text-anchor="middle" x="659" y="-539.5" font-family="Helvetica,sans-Serif" font-size="10.00"> </text>
<polyline fill="none" stroke="#bfbfbf" points="616,-532.5 702,-532.5 "/>
<text text-anchor="middle" x="659" y="-520.5" font-family="Helvetica,sans-Serif" font-size="10.00"> </text>
</g>
<!-- Node2&#45;&gt;Node1 -->
<g id="edge1" class="edge"><title>Node2&#45;&gt;Node1</title>
<path fill="none" stroke="midnightblue" d="M659,-503.209C659,-494.293 659,-484.951 659,-476.584"/>
<polygon fill="none" stroke="midnightblue" points="655.5,-503.397 659,-513.397 662.5,-503.397 655.5,-503.397"/>
</g>
<!-- Node8 -->
<g id="node8" class="node"><title>Node8</title>
<g id="a_node8"><a xlink:href="classmemoryoracle_1_1models_1_1ObjectFile.html" target="_top" xlink:title="{memoryoracle.models.ObjectFile\n||}">
<polygon fill="none" stroke="black" points="616.5,-50 616.5,-107 789.5,-107 789.5,-50 616.5,-50"/>
<text text-anchor="middle" x="703" y="-95" font-family="Helvetica,sans-Serif" font-size="10.00">memoryoracle.models.ObjectFile</text>
<polyline fill="none" stroke="black" points="616.5,-88 789.5,-88 "/>
<text text-anchor="middle" x="703" y="-76" font-family="Helvetica,sans-Serif" font-size="10.00"> </text>
<polyline fill="none" stroke="black" points="616.5,-69 789.5,-69 "/>
<text text-anchor="middle" x="703" y="-57" font-family="Helvetica,sans-Serif" font-size="10.00"> </text>
</a>
</g>
</g>
<!-- Node7&#45;&gt;Node8 -->
<g id="edge7" class="edge"><title>Node7&#45;&gt;Node8</title>
<path fill="none" stroke="midnightblue" d="M819.982,-240.254C790.191,-199.315 747.902,-141.204 723.172,-107.22"/>
<polygon fill="none" stroke="midnightblue" points="817.238,-242.431 825.952,-248.457 822.898,-238.312 817.238,-242.431"/>
</g>
<!-- Node9 -->
<g id="node9" class="node"><title>Node9</title>
<g id="a_node9"><a xlink:href="classmemoryoracle_1_1models_1_1SourceFile.html" target="_top" xlink:title="{memoryoracle.models.SourceFile\n|+ lines\l|}">
<polygon fill="none" stroke="black" points="808,-50 808,-107 984,-107 984,-50 808,-50"/>
<text text-anchor="middle" x="896" y="-95" font-family="Helvetica,sans-Serif" font-size="10.00">memoryoracle.models.SourceFile</text>
<polyline fill="none" stroke="black" points="808,-88 984,-88 "/>
<text text-anchor="start" x="816" y="-76" font-family="Helvetica,sans-Serif" font-size="10.00">+ lines</text>
<polyline fill="none" stroke="black" points="808,-69 984,-69 "/>
<text text-anchor="middle" x="896" y="-57" font-family="Helvetica,sans-Serif" font-size="10.00"> </text>
</a>
</g>
</g>
<!-- Node7&#45;&gt;Node9 -->
<g id="edge8" class="edge"><title>Node7&#45;&gt;Node9</title>
<path fill="none" stroke="midnightblue" d="M863.827,-238.448C872.091,-197.622 883.611,-140.707 890.389,-107.22"/>
<polygon fill="none" stroke="midnightblue" points="860.355,-237.962 861.801,-248.457 867.216,-239.35 860.355,-237.962"/>
</g>
<!-- Node12 -->
<g id="node12" class="node"><title>Node12</title>
<g id="a_node12"><a xlink:href="classmemoryoracle_1_1models_1_1Memory.html" target="_top" xlink:title="{memoryoracle.models.Memory\n|+ address\l+ has_symbol\l+ parent\l&#45; _updateTracker\l&#45; _watchers\l&#45; _addressFixer\l|+ update()\l+ watchers()\l+ __init__()\l&#45; _clear_updated()\l&#45; _compute_index()\l}">
<polygon fill="none" stroke="black" points="1042.5,-0.5 1042.5,-156.5 1209.5,-156.5 1209.5,-0.5 1042.5,-0.5"/>
<text text-anchor="middle" x="1126" y="-144.5" font-family="Helvetica,sans-Serif" font-size="10.00">memoryoracle.models.Memory</text>
<polyline fill="none" stroke="black" points="1042.5,-137.5 1209.5,-137.5 "/>
<text text-anchor="start" x="1050.5" y="-125.5" font-family="Helvetica,sans-Serif" font-size="10.00">+ address</text>
<text text-anchor="start" x="1050.5" y="-114.5" font-family="Helvetica,sans-Serif" font-size="10.00">+ has_symbol</text>
<text text-anchor="start" x="1050.5" y="-103.5" font-family="Helvetica,sans-Serif" font-size="10.00">+ parent</text>
<text text-anchor="start" x="1050.5" y="-92.5" font-family="Helvetica,sans-Serif" font-size="10.00">&#45; _updateTracker</text>
<text text-anchor="start" x="1050.5" y="-81.5" font-family="Helvetica,sans-Serif" font-size="10.00">&#45; _watchers</text>
<text text-anchor="start" x="1050.5" y="-70.5" font-family="Helvetica,sans-Serif" font-size="10.00">&#45; _addressFixer</text>
<polyline fill="none" stroke="black" points="1042.5,-63.5 1209.5,-63.5 "/>
<text text-anchor="start" x="1050.5" y="-51.5" font-family="Helvetica,sans-Serif" font-size="10.00">+ update()</text>
<text text-anchor="start" x="1050.5" y="-40.5" font-family="Helvetica,sans-Serif" font-size="10.00">+ watchers()</text>
<text text-anchor="start" x="1050.5" y="-29.5" font-family="Helvetica,sans-Serif" font-size="10.00">+ __init__()</text>
<text text-anchor="start" x="1050.5" y="-18.5" font-family="Helvetica,sans-Serif" font-size="10.00">&#45; _clear_updated()</text>
<text text-anchor="start" x="1050.5" y="-7.5" font-family="Helvetica,sans-Serif" font-size="10.00">&#45; _compute_index()</text>
</a>
</g>
</g>
<!-- Node11&#45;&gt;Node12 -->
<g id="edge11" class="edge"><title>Node11&#45;&gt;Node12</title>
<path fill="none" stroke="midnightblue" d="M1167.71,-183.771C1164.06,-174.646 1160.41,-165.516 1156.87,-156.663"/>
<polygon fill="none" stroke="midnightblue" points="1164.54,-185.282 1171.51,-193.267 1171.04,-182.682 1164.54,-185.282"/>
</g>
<!-- Node13 -->
<g id="node13" class="node"><title>Node13</title>
<g id="a_node13"><a xlink:href="classmemoryoracle_1_1models_1_1Symbol.html" target="_top" xlink:title="{memoryoracle.models.Symbol\n||}">
<polygon fill="none" stroke="black" points="1228,-50 1228,-107 1392,-107 1392,-50 1228,-50"/>
<text text-anchor="middle" x="1310" y="-95" font-family="Helvetica,sans-Serif" font-size="10.00">memoryoracle.models.Symbol</text>
<polyline fill="none" stroke="black" points="1228,-88 1392,-88 "/>
<text text-anchor="middle" x="1310" y="-76" font-family="Helvetica,sans-Serif" font-size="10.00"> </text>
<polyline fill="none" stroke="black" points="1228,-69 1392,-69 "/>
<text text-anchor="middle" x="1310" y="-57" font-family="Helvetica,sans-Serif" font-size="10.00"> </text>
</a>
</g>
</g>
<!-- Node11&#45;&gt;Node13 -->
<g id="edge12" class="edge"><title>Node11&#45;&gt;Node13</title>
<path fill="none" stroke="midnightblue" d="M1259.11,-184.054C1272.94,-155.639 1286.81,-127.143 1296.57,-107.093"/>
<polygon fill="none" stroke="midnightblue" points="1255.85,-182.743 1254.62,-193.267 1262.15,-185.807 1255.85,-182.743"/>
</g>
</g>
</svg>
