<?xml version="1.0" encoding="UTF-8" standalone="no"?>
<!DOCTYPE svg PUBLIC "-//W3C//DTD SVG 1.1//EN"
 "http://www.w3.org/Graphics/SVG/1.1/DTD/svg11.dtd">
<!-- Generated by graphviz version 2.38.0 (20140413.2041)
 -->
<!-- Title: memoryoracle.models.Typed.type Pages: 1 -->
<svg width="865pt" height="116pt"
 viewBox="0.00 0.00 865.00 116.00" xmlns="http://www.w3.org/2000/svg" xmlns:xlink="http://www.w3.org/1999/xlink">
<g id="graph0" class="graph" transform="scale(1 1) rotate(0) translate(4 112)">
<title>memoryoracle.models.Typed.type</title>
<!-- Node1 -->
<g id="node1" class="node"><title>Node1</title>
<polygon fill="#bfbfbf" stroke="black" points="0,-63.5 0,-82.5 179,-82.5 179,-63.5 0,-63.5"/>
<text text-anchor="middle" x="89.5" y="-70.5" font-family="Helvetica,sans-Serif" font-size="10.00">memoryoracle.models.Typed.type</text>
</g>
<!-- Node2 -->
<g id="node2" class="node"><title>Node2</title>
<g id="a_node2"><a xlink:href="classmemoryoracle_1_1instance_1_1Array.html#a1d8c3993d8a52bfbec8240d6f79b3ce1" target="_top" xlink:title="memoryoracle.instance.Array.\l_track">
<polygon fill="none" stroke="black" points="215,-58 215,-88 375,-88 375,-58 215,-58"/>
<text text-anchor="start" x="223" y="-76" font-family="Helvetica,sans-Serif" font-size="10.00">memoryoracle.instance.Array.</text>
<text text-anchor="middle" x="295" y="-65" font-family="Helvetica,sans-Serif" font-size="10.00">_track</text>
</a>
</g>
</g>
<!-- Node1&#45;&gt;Node2 -->
<g id="edge1" class="edge"><title>Node1&#45;&gt;Node2</title>
<path fill="none" stroke="midnightblue" d="M189.24,-73C197.846,-73 206.48,-73 214.896,-73"/>
<polygon fill="midnightblue" stroke="midnightblue" points="189.166,-69.5001 179.166,-73 189.166,-76.5001 189.166,-69.5001"/>
</g>
<!-- Node3 -->
<g id="node3" class="node"><title>Node3</title>
<g id="a_node3"><a xlink:href="classmemoryoracle_1_1instance_1_1Instance.html#a86649e01ee4f562debdba5421a334f78" target="_top" xlink:title="memoryoracle.instance.Instance.track">
<polygon fill="none" stroke="black" points="411,-44.5 411,-63.5 611,-63.5 611,-44.5 411,-44.5"/>
<text text-anchor="middle" x="511" y="-51.5" font-family="Helvetica,sans-Serif" font-size="10.00">memoryoracle.instance.Instance.track</text>
</a>
</g>
</g>
<!-- Node2&#45;&gt;Node3 -->
<g id="edge2" class="edge"><title>Node2&#45;&gt;Node3</title>
<path fill="none" stroke="midnightblue" d="M385.301,-65.0714C393.756,-64.3207 402.362,-63.5566 410.902,-62.7985"/>
<polygon fill="midnightblue" stroke="midnightblue" points="384.729,-61.6083 375.078,-65.9791 385.348,-68.5809 384.729,-61.6083"/>
</g>
<!-- Node7 -->
<g id="node7" class="node"><title>Node7</title>
<g id="a_node7"><a xlink:href="classmemoryoracle_1_1models_1_1Memory.html#a27f8d94aeb19f8101c29a673c7bae4a1" target="_top" xlink:title="memoryoracle.models.Memory.track">
<polygon fill="none" stroke="black" points="415,-82.5 415,-101.5 607,-101.5 607,-82.5 415,-82.5"/>
<text text-anchor="middle" x="511" y="-89.5" font-family="Helvetica,sans-Serif" font-size="10.00">memoryoracle.models.Memory.track</text>
</a>
</g>
</g>
<!-- Node2&#45;&gt;Node7 -->
<g id="edge6" class="edge"><title>Node2&#45;&gt;Node7</title>
<path fill="none" stroke="midnightblue" d="M385.218,-80.9213C395.035,-81.7928 405.056,-82.6826 414.94,-83.5601"/>
<polygon fill="midnightblue" stroke="midnightblue" points="385.348,-77.4191 375.078,-80.0209 384.729,-84.3917 385.348,-77.4191"/>
</g>
<!-- Node4 -->
<g id="node4" class="node"><title>Node4</title>
<g id="a_node4"><a xlink:href="classmemoryoracle_1_1models_1_1Memory.html#aed3af349dd80317ae9cca4b4e9cb7c26" target="_top" xlink:title="memoryoracle.models.Memory.\l__init__">
<polygon fill="none" stroke="black" points="668,-39 668,-69 836,-69 836,-39 668,-39"/>
<text text-anchor="start" x="676" y="-57" font-family="Helvetica,sans-Serif" font-size="10.00">memoryoracle.models.Memory.</text>
<text text-anchor="middle" x="752" y="-46" font-family="Helvetica,sans-Serif" font-size="10.00">__init__</text>
</a>
</g>
</g>
<!-- Node3&#45;&gt;Node4 -->
<g id="edge3" class="edge"><title>Node3&#45;&gt;Node4</title>
<path fill="none" stroke="midnightblue" d="M621.5,-54C637.117,-54 652.964,-54 667.964,-54"/>
<polygon fill="midnightblue" stroke="midnightblue" points="621.281,-50.5001 611.281,-54 621.281,-57.5001 621.281,-50.5001"/>
</g>
<!-- Node5 -->
<g id="node5" class="node"><title>Node5</title>
<g id="a_node5"><a xlink:href="classmemoryoracle_1_1instance_1_1Instance.html#a286e015a030541a0704994172024f034" target="_top" xlink:title="memoryoracle.instance.Instance.update">
<polygon fill="none" stroke="black" points="647,-0.5 647,-19.5 857,-19.5 857,-0.5 647,-0.5"/>
<text text-anchor="middle" x="752" y="-7.5" font-family="Helvetica,sans-Serif" font-size="10.00">memoryoracle.instance.Instance.update</text>
</a>
</g>
</g>
<!-- Node3&#45;&gt;Node5 -->
<g id="edge4" class="edge"><title>Node3&#45;&gt;Node5</title>
<path fill="none" stroke="midnightblue" d="M573.292,-42.6174C596.393,-38.3357 622.903,-33.4323 647,-29 663.788,-25.912 682.104,-22.5602 698.621,-19.5437"/>
<polygon fill="midnightblue" stroke="midnightblue" points="572.473,-39.2094 563.279,-44.4738 573.749,-46.0921 572.473,-39.2094"/>
</g>
<!-- Node6 -->
<g id="node6" class="node"><title>Node6</title>
<g id="a_node6"><a xlink:href="classmemoryoracle_1_1models_1_1Memory.html#a71d4a141abc3358afdf1a1325bfd4253" target="_top" xlink:title="memoryoracle.models.Memory.update">
<polygon fill="none" stroke="black" points="651,-88.5 651,-107.5 853,-107.5 853,-88.5 651,-88.5"/>
<text text-anchor="middle" x="752" y="-95.5" font-family="Helvetica,sans-Serif" font-size="10.00">memoryoracle.models.Memory.update</text>
</a>
</g>
</g>
<!-- Node3&#45;&gt;Node6 -->
<g id="edge5" class="edge"><title>Node3&#45;&gt;Node6</title>
<path fill="none" stroke="midnightblue" d="M574.014,-65.4168C612.907,-72.577 662.465,-81.7007 699.242,-88.4713"/>
<polygon fill="midnightblue" stroke="midnightblue" points="574.328,-61.9158 563.859,-63.5473 573.06,-68.8002 574.328,-61.9158"/>
</g>
<!-- Node7&#45;&gt;Node4 -->
<g id="edge7" class="edge"><title>Node7&#45;&gt;Node4</title>
<path fill="none" stroke="midnightblue" d="M582.097,-80.8548C608.995,-76.5782 639.946,-71.6571 667.945,-67.2053"/>
<polygon fill="midnightblue" stroke="midnightblue" points="581.328,-77.4331 572.001,-82.46 582.427,-84.3463 581.328,-77.4331"/>
</g>
<!-- Node7&#45;&gt;Node6 -->
<g id="edge8" class="edge"><title>Node7&#45;&gt;Node6</title>
<path fill="none" stroke="midnightblue" d="M617.283,-94.6431C628.385,-94.9218 639.652,-95.2047 650.695,-95.4819"/>
<polygon fill="midnightblue" stroke="midnightblue" points="617.231,-91.1408 607.146,-94.3886 617.055,-98.1386 617.231,-91.1408"/>
</g>
</g>
</svg>
