<?xml version="1.0" encoding="UTF-8" standalone="no"?>
<!DOCTYPE svg PUBLIC "-//W3C//DTD SVG 1.1//EN"
 "http://www.w3.org/Graphics/SVG/1.1/DTD/svg11.dtd">
<!-- Generated by graphviz version 2.38.0 (20140413.2041)
 -->
<!-- Title: memoryoracle.descriptions.MemoryDescription.object Pages: 1 -->
<svg width="1014pt" height="166pt"
 viewBox="0.00 0.00 1014.00 165.50" xmlns="http://www.w3.org/2000/svg" xmlns:xlink="http://www.w3.org/1999/xlink">
<g id="graph0" class="graph" transform="scale(1 1) rotate(0) translate(4 161.5)">
<title>memoryoracle.descriptions.MemoryDescription.object</title>
<!-- Node1 -->
<g id="node1" class="node"><title>Node1</title>
<polygon fill="#bfbfbf" stroke="black" points="0,-60.5 0,-90.5 150,-90.5 150,-60.5 0,-60.5"/>
<text text-anchor="start" x="8" y="-78.5" font-family="Helvetica,sans-Serif" font-size="10.00">memoryoracle.descriptions.</text>
<text text-anchor="middle" x="75" y="-67.5" font-family="Helvetica,sans-Serif" font-size="10.00">MemoryDescription.object</text>
</g>
<!-- Node2 -->
<g id="node2" class="node"><title>Node2</title>
<g id="a_node2"><a xlink:href="classmemoryoracle_1_1instance_1_1Int.html#a450a73bc8aaf1a7ac5f18c3ed1a933fc" target="_top" xlink:title="memoryoracle.instance.Int.\l_find_hidden_type">
<polygon fill="none" stroke="black" points="186,-83.5 186,-113.5 334,-113.5 334,-83.5 186,-83.5"/>
<text text-anchor="start" x="194" y="-101.5" font-family="Helvetica,sans-Serif" font-size="10.00">memoryoracle.instance.Int.</text>
<text text-anchor="middle" x="260" y="-90.5" font-family="Helvetica,sans-Serif" font-size="10.00">_find_hidden_type</text>
</a>
</g>
</g>
<!-- Node1&#45;&gt;Node2 -->
<g id="edge1" class="edge"><title>Node1&#45;&gt;Node2</title>
<path fill="none" stroke="midnightblue" d="M160.193,-86.0817C168.782,-87.1611 177.457,-88.2514 185.913,-89.3142"/>
<polygon fill="midnightblue" stroke="midnightblue" points="160.528,-82.5963 150.169,-84.8218 159.655,-89.5416 160.528,-82.5963"/>
</g>
<!-- Node10 -->
<g id="node10" class="node"><title>Node10</title>
<g id="a_node10"><a xlink:href="classmemoryoracle_1_1instance_1_1Array.html#a1d8c3993d8a52bfbec8240d6f79b3ce1" target="_top" xlink:title="TODO: upgrade this to ref field. ">
<polygon fill="none" stroke="black" points="370,-36.5 370,-66.5 530,-66.5 530,-36.5 370,-36.5"/>
<text text-anchor="start" x="378" y="-54.5" font-family="Helvetica,sans-Serif" font-size="10.00">memoryoracle.instance.Array.</text>
<text text-anchor="middle" x="450" y="-43.5" font-family="Helvetica,sans-Serif" font-size="10.00">_track</text>
</a>
</g>
</g>
<!-- Node1&#45;&gt;Node10 -->
<g id="edge13" class="edge"><title>Node1&#45;&gt;Node10</title>
<path fill="none" stroke="midnightblue" d="M160.412,-70.0687C223.215,-66.0277 308.34,-60.5505 369.847,-56.5929"/>
<polygon fill="midnightblue" stroke="midnightblue" points="159.893,-66.5947 150.139,-70.7297 160.343,-73.5803 159.893,-66.5947"/>
</g>
<!-- Node3 -->
<g id="node3" class="node"><title>Node3</title>
<g id="a_node3"><a xlink:href="classmemoryoracle_1_1instance_1_1Int.html#a38c9424341353f006771163d360594da" target="_top" xlink:title="memoryoracle.instance.Int.\l_track">
<polygon fill="none" stroke="black" points="376,-85.5 376,-115.5 524,-115.5 524,-85.5 376,-85.5"/>
<text text-anchor="start" x="384" y="-103.5" font-family="Helvetica,sans-Serif" font-size="10.00">memoryoracle.instance.Int.</text>
<text text-anchor="middle" x="450" y="-92.5" font-family="Helvetica,sans-Serif" font-size="10.00">_track</text>
</a>
</g>
</g>
<!-- Node2&#45;&gt;Node3 -->
<g id="edge2" class="edge"><title>Node2&#45;&gt;Node3</title>
<path fill="none" stroke="midnightblue" d="M344.278,-99.3859C354.842,-99.4983 365.589,-99.6126 375.976,-99.7231"/>
<polygon fill="midnightblue" stroke="midnightblue" points="344.261,-95.8857 334.224,-99.279 344.186,-102.885 344.261,-95.8857"/>
</g>
<!-- Node4 -->
<g id="node4" class="node"><title>Node4</title>
<g id="a_node4"><a xlink:href="classmemoryoracle_1_1instance_1_1Memory.html#a8951ac234fecbd6cd473133ae7e63662" target="_top" xlink:title="memoryoracle.instance.Memory.track">
<polygon fill="none" stroke="black" points="566,-91 566,-110 763,-110 763,-91 566,-91"/>
<text text-anchor="middle" x="664.5" y="-98" font-family="Helvetica,sans-Serif" font-size="10.00">memoryoracle.instance.Memory.track</text>
</a>
</g>
</g>
<!-- Node3&#45;&gt;Node4 -->
<g id="edge3" class="edge"><title>Node3&#45;&gt;Node4</title>
<path fill="none" stroke="midnightblue" d="M534.347,-93.8914C544.68,-93.762 555.317,-93.7214 565.841,-93.7697"/>
<polygon fill="midnightblue" stroke="midnightblue" points="534.075,-90.3951 524.13,-94.0503 534.184,-97.3942 534.075,-90.3951"/>
</g>
<!-- Node9 -->
<g id="node9" class="node"><title>Node9</title>
<g id="a_node9"><a xlink:href="classmemoryoracle_1_1models_1_1Typed.html#aa1d5d8d5b7ebe5c2876f363e7eb669db" target="_top" xlink:title="memoryoracle.models.Typed.track">
<polygon fill="none" stroke="black" points="573.5,-50 573.5,-69 755.5,-69 755.5,-50 573.5,-50"/>
<text text-anchor="middle" x="664.5" y="-57" font-family="Helvetica,sans-Serif" font-size="10.00">memoryoracle.models.Typed.track</text>
</a>
</g>
</g>
<!-- Node3&#45;&gt;Node9 -->
<g id="edge9" class="edge"><title>Node3&#45;&gt;Node9</title>
<path fill="none" stroke="midnightblue" d="M533.984,-84.489C561.027,-79.2713 590.184,-73.6457 613.974,-69.0557"/>
<polygon fill="midnightblue" stroke="midnightblue" points="533.286,-81.059 524.13,-86.3901 534.612,-87.9322 533.286,-81.059"/>
</g>
<!-- Node4&#45;&gt;Node3 -->
<g id="edge5" class="edge"><title>Node4&#45;&gt;Node3</title>
<path fill="none" stroke="midnightblue" d="M555.625,-107.249C544.962,-107.24 534.32,-107.14 524.13,-106.95"/>
<polygon fill="midnightblue" stroke="midnightblue" points="555.847,-110.749 565.841,-107.23 555.834,-103.749 555.847,-110.749"/>
</g>
<!-- Node5 -->
<g id="node5" class="node"><title>Node5</title>
<g id="a_node5"><a xlink:href="classmemoryoracle_1_1instance_1_1Memory.html#aa937ea1a82dcaa2fa1c868a387d59483" target="_top" xlink:title="memoryoracle.instance.Memory.update">
<polygon fill="none" stroke="black" points="799,-138 799,-157 1006,-157 1006,-138 799,-138"/>
<text text-anchor="middle" x="902.5" y="-145" font-family="Helvetica,sans-Serif" font-size="10.00">memoryoracle.instance.Memory.update</text>
</a>
</g>
</g>
<!-- Node4&#45;&gt;Node5 -->
<g id="edge4" class="edge"><title>Node4&#45;&gt;Node5</title>
<path fill="none" stroke="midnightblue" d="M719.718,-112.173C743.949,-117.312 772.878,-123.34 799,-128.5 815.157,-131.691 832.779,-135.015 848.783,-137.973"/>
<polygon fill="midnightblue" stroke="midnightblue" points="720.153,-108.687 709.643,-110.03 718.696,-115.534 720.153,-108.687"/>
</g>
<!-- Node6 -->
<g id="node6" class="node"><title>Node6</title>
<g id="a_node6"><a xlink:href="classmemoryoracle_1_1models_1_1Typed.html#a494dfbe205034b874ff9e8c7039f579b" target="_top" xlink:title="memoryoracle.models.Typed.\l__init__">
<polygon fill="none" stroke="black" points="823.5,-88.5 823.5,-118.5 981.5,-118.5 981.5,-88.5 823.5,-88.5"/>
<text text-anchor="start" x="831.5" y="-106.5" font-family="Helvetica,sans-Serif" font-size="10.00">memoryoracle.models.Typed.</text>
<text text-anchor="middle" x="902.5" y="-95.5" font-family="Helvetica,sans-Serif" font-size="10.00">__init__</text>
</a>
</g>
</g>
<!-- Node4&#45;&gt;Node6 -->
<g id="edge6" class="edge"><title>Node4&#45;&gt;Node6</title>
<path fill="none" stroke="midnightblue" d="M773.584,-101.874C790.346,-102.087 807.377,-102.304 823.311,-102.506"/>
<polygon fill="midnightblue" stroke="midnightblue" points="773.238,-98.3694 763.194,-101.742 773.148,-105.369 773.238,-98.3694"/>
</g>
<!-- Node7 -->
<g id="node7" class="node"><title>Node7</title>
<g id="a_node7"><a xlink:href="classmemoryoracle_1_1models_1_1Memory.html#a71d4a141abc3358afdf1a1325bfd4253" target="_top" xlink:title="memoryoracle.models.Memory.update">
<polygon fill="none" stroke="black" points="801.5,-50 801.5,-69 1003.5,-69 1003.5,-50 801.5,-50"/>
<text text-anchor="middle" x="902.5" y="-57" font-family="Helvetica,sans-Serif" font-size="10.00">memoryoracle.models.Memory.update</text>
</a>
</g>
</g>
<!-- Node4&#45;&gt;Node7 -->
<g id="edge7" class="edge"><title>Node4&#45;&gt;Node7</title>
<path fill="none" stroke="midnightblue" d="M730.29,-89.2441C766.799,-82.9014 811.905,-75.0653 846.652,-69.0286"/>
<polygon fill="midnightblue" stroke="midnightblue" points="729.49,-85.8306 720.236,-90.9907 730.688,-92.7273 729.49,-85.8306"/>
</g>
<!-- Node8 -->
<g id="node8" class="node"><title>Node8</title>
<g id="a_node8"><a xlink:href="classmemoryoracle_1_1models_1_1Memory.html#aed3af349dd80317ae9cca4b4e9cb7c26" target="_top" xlink:title="memoryoracle.models.Memory.\l__init__">
<polygon fill="none" stroke="black" points="818.5,-0.5 818.5,-30.5 986.5,-30.5 986.5,-0.5 818.5,-0.5"/>
<text text-anchor="start" x="826.5" y="-18.5" font-family="Helvetica,sans-Serif" font-size="10.00">memoryoracle.models.Memory.</text>
<text text-anchor="middle" x="902.5" y="-7.5" font-family="Helvetica,sans-Serif" font-size="10.00">__init__</text>
</a>
</g>
</g>
<!-- Node4&#45;&gt;Node8 -->
<g id="edge8" class="edge"><title>Node4&#45;&gt;Node8</title>
<path fill="none" stroke="midnightblue" d="M742.218,-87.8099C749.467,-85.2553 756.519,-82.1865 763,-78.5 783.222,-66.9975 778.878,-52.1771 799,-40.5 805.733,-36.5927 813.055,-33.2937 820.586,-30.5087"/>
<polygon fill="midnightblue" stroke="midnightblue" points="740.713,-84.6158 732.246,-90.9843 742.836,-91.286 740.713,-84.6158"/>
</g>
<!-- Node9&#45;&gt;Node6 -->
<g id="edge10" class="edge"><title>Node9&#45;&gt;Node6</title>
<path fill="none" stroke="midnightblue" d="M726.866,-70.9412C756.363,-76.4406 792.048,-83.0938 823.453,-88.9489"/>
<polygon fill="midnightblue" stroke="midnightblue" points="727.181,-67.4395 716.708,-69.0473 725.898,-74.321 727.181,-67.4395"/>
</g>
<!-- Node9&#45;&gt;Node7 -->
<g id="edge11" class="edge"><title>Node9&#45;&gt;Node7</title>
<path fill="none" stroke="midnightblue" d="M765.988,-59.5C777.742,-59.5 789.733,-59.5 801.481,-59.5"/>
<polygon fill="midnightblue" stroke="midnightblue" points="765.732,-56.0001 755.732,-59.5 765.732,-63.0001 765.732,-56.0001"/>
</g>
<!-- Node9&#45;&gt;Node8 -->
<g id="edge12" class="edge"><title>Node9&#45;&gt;Node8</title>
<path fill="none" stroke="midnightblue" d="M726.594,-48.1095C755.284,-42.7606 789.875,-36.3114 820.695,-30.5654"/>
<polygon fill="midnightblue" stroke="midnightblue" points="725.898,-44.679 716.708,-49.9527 727.181,-51.5605 725.898,-44.679"/>
</g>
<!-- Node10&#45;&gt;Node4 -->
<g id="edge14" class="edge"><title>Node10&#45;&gt;Node4</title>
<path fill="none" stroke="midnightblue" d="M524.479,-68.8517C538.27,-72.0801 552.572,-75.4087 566,-78.5 583.925,-82.6265 603.722,-87.1075 620.768,-90.9421"/>
<polygon fill="midnightblue" stroke="midnightblue" points="525.081,-65.3982 514.546,-66.5236 523.484,-72.2135 525.081,-65.3982"/>
</g>
<!-- Node10&#45;&gt;Node9 -->
<g id="edge15" class="edge"><title>Node10&#45;&gt;Node9</title>
<path fill="none" stroke="midnightblue" d="M540.434,-54.8669C551.276,-55.2751 562.358,-55.6923 573.212,-56.1009"/>
<polygon fill="midnightblue" stroke="midnightblue" points="540.252,-51.3577 530.127,-54.4789 539.988,-58.3527 540.252,-51.3577"/>
</g>
</g>
</svg>
