<?xml version="1.0" encoding="UTF-8" standalone="no"?>
<!DOCTYPE svg PUBLIC "-//W3C//DTD SVG 1.1//EN"
 "http://www.w3.org/Graphics/SVG/1.1/DTD/svg11.dtd">
<!-- Generated by graphviz version 2.38.0 (20140413.2041)
 -->
<!-- Title: memoryoracle.instance.Structure._track Pages: 1 -->
<svg width="1121pt" height="202pt"
 viewBox="0.00 0.00 1121.00 201.91" xmlns="http://www.w3.org/2000/svg" xmlns:xlink="http://www.w3.org/1999/xlink">
<g id="graph0" class="graph" transform="scale(1 1) rotate(0) translate(4 197.913)">
<title>memoryoracle.instance.Structure._track</title>
<!-- Node1 -->
<g id="node1" class="node"><title>Node1</title>
<polygon fill="#bfbfbf" stroke="black" points="0,-163.413 0,-193.413 181,-193.413 181,-163.413 0,-163.413"/>
<text text-anchor="start" x="8" y="-181.413" font-family="Helvetica,sans-Serif" font-size="10.00">memoryoracle.instance.Structure.</text>
<text text-anchor="middle" x="90.5" y="-170.413" font-family="Helvetica,sans-Serif" font-size="10.00">_track</text>
</g>
<!-- Node2 -->
<g id="node2" class="node"><title>Node2</title>
<g id="a_node2"><a xlink:href="classmemoryoracle_1_1instance_1_1Memory.html#a8951ac234fecbd6cd473133ae7e63662" target="_top" xlink:title="memoryoracle.instance.Memory.track">
<polygon fill="none" stroke="black" points="217,-127.913 217,-146.913 414,-146.913 414,-127.913 217,-127.913"/>
<text text-anchor="middle" x="315.5" y="-134.913" font-family="Helvetica,sans-Serif" font-size="10.00">memoryoracle.instance.Memory.track</text>
</a>
</g>
</g>
<!-- Node1&#45;&gt;Node2 -->
<g id="edge1" class="edge"><title>Node1&#45;&gt;Node2</title>
<path fill="none" stroke="midnightblue" d="M183.157,-161.561C210.224,-156.584 238.902,-151.312 262.533,-146.967"/>
<polygon fill="midnightblue" stroke="midnightblue" points="182.473,-158.128 173.271,-163.379 183.739,-165.013 182.473,-158.128"/>
</g>
<!-- Node6 -->
<g id="node6" class="node"><title>Node6</title>
<g id="a_node6"><a xlink:href="classmemoryoracle_1_1models_1_1Typed.html#aa1d5d8d5b7ebe5c2876f363e7eb669db" target="_top" xlink:title="memoryoracle.models.Typed.track">
<polygon fill="none" stroke="black" points="693,-127.913 693,-146.913 875,-146.913 875,-127.913 693,-127.913"/>
<text text-anchor="middle" x="784" y="-134.913" font-family="Helvetica,sans-Serif" font-size="10.00">memoryoracle.models.Typed.track</text>
</a>
</g>
</g>
<!-- Node1&#45;&gt;Node6 -->
<g id="edge12" class="edge"><title>Node1&#45;&gt;Node6</title>
<path fill="none" stroke="midnightblue" d="M191.464,-180.168C304.731,-181.053 494.695,-179.197 657,-161.413 685.555,-158.284 717.326,-152.214 741.821,-146.962"/>
<polygon fill="midnightblue" stroke="midnightblue" points="191.451,-176.668 181.421,-180.081 191.39,-183.667 191.451,-176.668"/>
</g>
<!-- Node3 -->
<g id="node3" class="node"><title>Node3</title>
<g id="a_node3"><a xlink:href="classmemoryoracle_1_1models_1_1Typed.html#a494dfbe205034b874ff9e8c7039f579b" target="_top" xlink:title="memoryoracle.models.Typed.\l__init__">
<polygon fill="none" stroke="black" points="933,-18.4126 933,-48.4126 1091,-48.4126 1091,-18.4126 933,-18.4126"/>
<text text-anchor="start" x="941" y="-36.4126" font-family="Helvetica,sans-Serif" font-size="10.00">memoryoracle.models.Typed.</text>
<text text-anchor="middle" x="1012" y="-25.4126" font-family="Helvetica,sans-Serif" font-size="10.00">__init__</text>
</a>
</g>
</g>
<!-- Node2&#45;&gt;Node3 -->
<g id="edge2" class="edge"><title>Node2&#45;&gt;Node3</title>
<path fill="none" stroke="midnightblue" d="M331.83,-120.304C354.739,-96.1584 400.537,-53.1626 450,-36.4126 614.438,19.272 821.866,-1.13414 932.695,-18.6656"/>
<polygon fill="midnightblue" stroke="midnightblue" points="329.2,-117.992 324.966,-127.704 334.333,-122.752 329.2,-117.992"/>
</g>
<!-- Node4 -->
<g id="node4" class="node"><title>Node4</title>
<g id="a_node4"><a xlink:href="classmemoryoracle_1_1models_1_1Memory.html#aed3af349dd80317ae9cca4b4e9cb7c26" target="_top" xlink:title="memoryoracle.models.Memory.\l__init__">
<polygon fill="none" stroke="black" points="928,-144.413 928,-174.413 1096,-174.413 1096,-144.413 928,-144.413"/>
<text text-anchor="start" x="936" y="-162.413" font-family="Helvetica,sans-Serif" font-size="10.00">memoryoracle.models.Memory.</text>
<text text-anchor="middle" x="1012" y="-151.413" font-family="Helvetica,sans-Serif" font-size="10.00">__init__</text>
</a>
</g>
</g>
<!-- Node2&#45;&gt;Node4 -->
<g id="edge3" class="edge"><title>Node2&#45;&gt;Node4</title>
<path fill="none" stroke="midnightblue" d="M368.468,-148.972C393.049,-153.869 422.891,-158.995 450,-161.413 619.043,-176.487 817.876,-170.113 927.627,-164.506"/>
<polygon fill="midnightblue" stroke="midnightblue" points="369.125,-145.534 358.628,-146.969 367.728,-152.394 369.125,-145.534"/>
</g>
<!-- Node5 -->
<g id="node5" class="node"><title>Node5</title>
<g id="a_node5"><a xlink:href="classmemoryoracle_1_1instance_1_1Int.html#a38c9424341353f006771163d360594da" target="_top" xlink:title="memoryoracle.instance.Int.\l_track">
<polygon fill="none" stroke="black" points="479.5,-122.413 479.5,-152.413 627.5,-152.413 627.5,-122.413 479.5,-122.413"/>
<text text-anchor="start" x="487.5" y="-140.413" font-family="Helvetica,sans-Serif" font-size="10.00">memoryoracle.instance.Int.</text>
<text text-anchor="middle" x="553.5" y="-129.413" font-family="Helvetica,sans-Serif" font-size="10.00">_track</text>
</a>
</g>
</g>
<!-- Node2&#45;&gt;Node5 -->
<g id="edge4" class="edge"><title>Node2&#45;&gt;Node5</title>
<path fill="none" stroke="midnightblue" d="M424.217,-130.685C442.891,-130.602 461.91,-130.746 479.386,-131.117"/>
<polygon fill="midnightblue" stroke="midnightblue" points="424.17,-127.186 414.194,-130.752 424.217,-134.185 424.17,-127.186"/>
</g>
<!-- Node7 -->
<g id="node7" class="node"><title>Node7</title>
<g id="a_node7"><a xlink:href="classmemoryoracle_1_1models_1_1Memory.html#a71d4a141abc3358afdf1a1325bfd4253" target="_top" xlink:title="memoryoracle.models.Memory.update">
<polygon fill="none" stroke="black" points="911,-94.9126 911,-113.913 1113,-113.913 1113,-94.9126 911,-94.9126"/>
<text text-anchor="middle" x="1012" y="-101.913" font-family="Helvetica,sans-Serif" font-size="10.00">memoryoracle.models.Memory.update</text>
</a>
</g>
</g>
<!-- Node2&#45;&gt;Node7 -->
<g id="edge11" class="edge"><title>Node2&#45;&gt;Node7</title>
<path fill="none" stroke="midnightblue" d="M367.342,-125.778C392.131,-120.647 422.47,-115.166 450,-112.413 610.648,-96.3442 798.444,-97.7295 910.889,-100.703"/>
<polygon fill="midnightblue" stroke="midnightblue" points="366.495,-122.379 357.434,-127.87 367.941,-129.228 366.495,-122.379"/>
</g>
<!-- Node8 -->
<g id="node8" class="node"><title>Node8</title>
<g id="a_node8"><a xlink:href="classmemoryoracle_1_1instance_1_1Memory.html#aa937ea1a82dcaa2fa1c868a387d59483" target="_top" xlink:title="memoryoracle.instance.Memory.update">
<polygon fill="none" stroke="black" points="450,-45.9126 450,-64.9126 657,-64.9126 657,-45.9126 450,-45.9126"/>
<text text-anchor="middle" x="553.5" y="-52.9126" font-family="Helvetica,sans-Serif" font-size="10.00">memoryoracle.instance.Memory.update</text>
</a>
</g>
</g>
<!-- Node2&#45;&gt;Node8 -->
<g id="edge10" class="edge"><title>Node2&#45;&gt;Node8</title>
<path fill="none" stroke="midnightblue" d="M344.639,-123.417C371.266,-110.602 412.613,-91.7993 450,-79.4126 467.262,-73.6935 486.59,-68.7945 503.77,-64.9421"/>
<polygon fill="midnightblue" stroke="midnightblue" points="342.994,-120.325 335.53,-127.845 346.054,-126.621 342.994,-120.325"/>
</g>
<!-- Node5&#45;&gt;Node2 -->
<g id="edge5" class="edge"><title>Node5&#45;&gt;Node2</title>
<path fill="none" stroke="midnightblue" d="M469.079,-143.898C451.326,-144.177 432.426,-144.235 414.194,-144.073"/>
<polygon fill="midnightblue" stroke="midnightblue" points="469.453,-147.392 479.386,-143.708 469.324,-140.393 469.453,-147.392"/>
</g>
<!-- Node5&#45;&gt;Node6 -->
<g id="edge6" class="edge"><title>Node5&#45;&gt;Node6</title>
<path fill="none" stroke="midnightblue" d="M637.861,-137.413C655.781,-137.413 674.798,-137.413 692.959,-137.413"/>
<polygon fill="midnightblue" stroke="midnightblue" points="637.742,-133.913 627.742,-137.413 637.742,-140.913 637.742,-133.913"/>
</g>
<!-- Node6&#45;&gt;Node3 -->
<g id="edge7" class="edge"><title>Node6&#45;&gt;Node3</title>
<path fill="none" stroke="midnightblue" d="M815.103,-123.56C857.504,-104.048 934.518,-68.6078 978.289,-48.4657"/>
<polygon fill="midnightblue" stroke="midnightblue" points="813.478,-120.455 805.856,-127.815 816.404,-126.814 813.478,-120.455"/>
</g>
<!-- Node6&#45;&gt;Node4 -->
<g id="edge9" class="edge"><title>Node6&#45;&gt;Node4</title>
<path fill="none" stroke="midnightblue" d="M885.525,-147.198C899.656,-148.574 914.05,-149.975 927.809,-151.314"/>
<polygon fill="midnightblue" stroke="midnightblue" points="885.588,-143.688 875.296,-146.202 884.909,-150.655 885.588,-143.688"/>
</g>
<!-- Node6&#45;&gt;Node7 -->
<g id="edge8" class="edge"><title>Node6&#45;&gt;Node7</title>
<path fill="none" stroke="midnightblue" d="M860.091,-126.448C887.762,-122.408 918.864,-117.866 945.611,-113.961"/>
<polygon fill="midnightblue" stroke="midnightblue" points="859.455,-123.004 850.065,-127.912 860.466,-129.93 859.455,-123.004"/>
</g>
</g>
</svg>
