<?xml version="1.0" encoding="UTF-8" standalone="no"?>
<!DOCTYPE svg PUBLIC "-//W3C//DTD SVG 1.1//EN"
 "http://www.w3.org/Graphics/SVG/1.1/DTD/svg11.dtd">
<!-- Generated by graphviz version 2.38.0 (20140413.2041)
 -->
<!-- Title: memoryoracle.templatable.Type Pages: 1 -->
<svg width="179pt" height="265pt"
 viewBox="0.00 0.00 179.00 265.00" xmlns="http://www.w3.org/2000/svg" xmlns:xlink="http://www.w3.org/1999/xlink">
<g id="graph0" class="graph" transform="scale(1 1) rotate(0) translate(4 261)">
<title>memoryoracle.templatable.Type</title>
<!-- Node1 -->
<g id="node1" class="node"><title>Node1</title>
<polygon fill="#bfbfbf" stroke="black" points="0,-0.5 0,-57.5 171,-57.5 171,-0.5 0,-0.5"/>
<text text-anchor="middle" x="85.5" y="-45.5" font-family="Helvetica,sans-Serif" font-size="10.00">memoryoracle.templatable.Type</text>
<polyline fill="none" stroke="black" points="0,-38.5 171,-38.5 "/>
<text text-anchor="middle" x="85.5" y="-26.5" font-family="Helvetica,sans-Serif" font-size="10.00"> </text>
<polyline fill="none" stroke="black" points="0,-19.5 171,-19.5 "/>
<text text-anchor="middle" x="85.5" y="-7.5" font-family="Helvetica,sans-Serif" font-size="10.00"> </text>
</g>
<!-- Node2 -->
<g id="node2" class="node"><title>Node2</title>
<g id="a_node2"><a xlink:href="classmemoryoracle_1_1templatable_1_1Templatable.html" target="_top" xlink:title="{memoryoracle.templatable.\lTemplatable\n||}">
<polygon fill="none" stroke="black" points="10.5,-94.5 10.5,-162.5 160.5,-162.5 160.5,-94.5 10.5,-94.5"/>
<text text-anchor="start" x="18.5" y="-150.5" font-family="Helvetica,sans-Serif" font-size="10.00">memoryoracle.templatable.</text>
<text text-anchor="middle" x="85.5" y="-139.5" font-family="Helvetica,sans-Serif" font-size="10.00">Templatable</text>
<polyline fill="none" stroke="black" points="10.5,-132.5 160.5,-132.5 "/>
<text text-anchor="middle" x="85.5" y="-120.5" font-family="Helvetica,sans-Serif" font-size="10.00"> </text>
<polyline fill="none" stroke="black" points="10.5,-113.5 160.5,-113.5 "/>
<text text-anchor="middle" x="85.5" y="-101.5" font-family="Helvetica,sans-Serif" font-size="10.00"> </text>
</a>
</g>
</g>
<!-- Node2&#45;&gt;Node1 -->
<g id="edge1" class="edge"><title>Node2&#45;&gt;Node1</title>
<path fill="none" stroke="midnightblue" d="M85.5,-84.4538C85.5,-75.4036 85.5,-66.0876 85.5,-57.7765"/>
<polygon fill="none" stroke="midnightblue" points="82.0001,-84.4909 85.5,-94.4909 89.0001,-84.491 82.0001,-84.4909"/>
</g>
<!-- Node3 -->
<g id="node3" class="node"><title>Node3</title>
<polygon fill="none" stroke="#bfbfbf" points="38,-199.5 38,-256.5 133,-256.5 133,-199.5 38,-199.5"/>
<text text-anchor="middle" x="85.5" y="-244.5" font-family="Helvetica,sans-Serif" font-size="10.00">tracked::Symbol</text>
<polyline fill="none" stroke="#bfbfbf" points="38,-237.5 133,-237.5 "/>
<text text-anchor="middle" x="85.5" y="-225.5" font-family="Helvetica,sans-Serif" font-size="10.00"> </text>
<polyline fill="none" stroke="#bfbfbf" points="38,-218.5 133,-218.5 "/>
<text text-anchor="middle" x="85.5" y="-206.5" font-family="Helvetica,sans-Serif" font-size="10.00"> </text>
</g>
<!-- Node3&#45;&gt;Node2 -->
<g id="edge2" class="edge"><title>Node3&#45;&gt;Node2</title>
<path fill="none" stroke="midnightblue" d="M85.5,-189.063C85.5,-180.393 85.5,-171.243 85.5,-162.786"/>
<polygon fill="none" stroke="midnightblue" points="82.0001,-189.321 85.5,-199.321 89.0001,-189.321 82.0001,-189.321"/>
</g>
</g>
</svg>
