<?xml version="1.0" encoding="UTF-8" standalone="no"?>
<!DOCTYPE svg PUBLIC "-//W3C//DTD SVG 1.1//EN"
 "http://www.w3.org/Graphics/SVG/1.1/DTD/svg11.dtd">
<!-- Generated by graphviz version 2.38.0 (20140413.2041)
 -->
<!-- Title: memoryoracle.typed.ErrorType Pages: 1 -->
<svg width="172pt" height="370pt"
 viewBox="0.00 0.00 172.00 370.00" xmlns="http://www.w3.org/2000/svg" xmlns:xlink="http://www.w3.org/1999/xlink">
<g id="graph0" class="graph" transform="scale(1 1) rotate(0) translate(4 366)">
<title>memoryoracle.typed.ErrorType</title>
<!-- Node1 -->
<g id="node1" class="node"><title>Node1</title>
<polygon fill="#bfbfbf" stroke="black" points="0,-0.5 0,-57.5 164,-57.5 164,-0.5 0,-0.5"/>
<text text-anchor="middle" x="82" y="-45.5" font-family="Helvetica,sans-Serif" font-size="10.00">memoryoracle.typed.ErrorType</text>
<polyline fill="none" stroke="black" points="0,-38.5 164,-38.5 "/>
<text text-anchor="middle" x="82" y="-26.5" font-family="Helvetica,sans-Serif" font-size="10.00"> </text>
<polyline fill="none" stroke="black" points="0,-19.5 164,-19.5 "/>
<text text-anchor="middle" x="82" y="-7.5" font-family="Helvetica,sans-Serif" font-size="10.00"> </text>
</g>
<!-- Node2 -->
<g id="node2" class="node"><title>Node2</title>
<g id="a_node2"><a xlink:href="classmemoryoracle_1_1typed_1_1Typed.html" target="_top" xlink:title="{memoryoracle.typed.Typed\n|&#45; _type\l&#45; _typeHandlerCode\l|+ type()\l+ type_code()\l}">
<polygon fill="none" stroke="black" points="9,-94.5 9,-173.5 155,-173.5 155,-94.5 9,-94.5"/>
<text text-anchor="middle" x="82" y="-161.5" font-family="Helvetica,sans-Serif" font-size="10.00">memoryoracle.typed.Typed</text>
<polyline fill="none" stroke="black" points="9,-154.5 155,-154.5 "/>
<text text-anchor="start" x="17" y="-142.5" font-family="Helvetica,sans-Serif" font-size="10.00">&#45; _type</text>
<text text-anchor="start" x="17" y="-131.5" font-family="Helvetica,sans-Serif" font-size="10.00">&#45; _typeHandlerCode</text>
<polyline fill="none" stroke="black" points="9,-124.5 155,-124.5 "/>
<text text-anchor="start" x="17" y="-112.5" font-family="Helvetica,sans-Serif" font-size="10.00">+ type()</text>
<text text-anchor="start" x="17" y="-101.5" font-family="Helvetica,sans-Serif" font-size="10.00">+ type_code()</text>
</a>
</g>
</g>
<!-- Node2&#45;&gt;Node1 -->
<g id="edge1" class="edge"><title>Node2&#45;&gt;Node1</title>
<path fill="none" stroke="midnightblue" d="M82,-84.1628C82,-75.0404 82,-65.8063 82,-57.6095"/>
<polygon fill="none" stroke="midnightblue" points="78.5001,-84.3535 82,-94.3536 85.5001,-84.3536 78.5001,-84.3535"/>
</g>
<!-- Node3 -->
<g id="node3" class="node"><title>Node3</title>
<g id="a_node3"><a xlink:href="classmemoryoracle_1_1tracked_1_1Tracked.html" target="_top" xlink:title="{memoryoracle.tracked.Tracked\n|+ execution\l|+ track()\l}">
<polygon fill="none" stroke="black" points="0,-210.5 0,-267.5 164,-267.5 164,-210.5 0,-210.5"/>
<text text-anchor="middle" x="82" y="-255.5" font-family="Helvetica,sans-Serif" font-size="10.00">memoryoracle.tracked.Tracked</text>
<polyline fill="none" stroke="black" points="0,-248.5 164,-248.5 "/>
<text text-anchor="start" x="8" y="-236.5" font-family="Helvetica,sans-Serif" font-size="10.00">+ execution</text>
<polyline fill="none" stroke="black" points="0,-229.5 164,-229.5 "/>
<text text-anchor="start" x="8" y="-217.5" font-family="Helvetica,sans-Serif" font-size="10.00">+ track()</text>
</a>
</g>
</g>
<!-- Node3&#45;&gt;Node2 -->
<g id="edge2" class="edge"><title>Node3&#45;&gt;Node2</title>
<path fill="none" stroke="midnightblue" d="M82,-200.156C82,-191.473 82,-182.232 82,-173.52"/>
<polygon fill="none" stroke="midnightblue" points="78.5001,-200.398 82,-210.398 85.5001,-200.398 78.5001,-200.398"/>
</g>
<!-- Node4 -->
<g id="node4" class="node"><title>Node4</title>
<polygon fill="none" stroke="#bfbfbf" points="22.5,-304.5 22.5,-361.5 141.5,-361.5 141.5,-304.5 22.5,-304.5"/>
<text text-anchor="middle" x="82" y="-349.5" font-family="Helvetica,sans-Serif" font-size="10.00">EmbeddedDocument</text>
<polyline fill="none" stroke="#bfbfbf" points="22.5,-342.5 141.5,-342.5 "/>
<text text-anchor="middle" x="82" y="-330.5" font-family="Helvetica,sans-Serif" font-size="10.00"> </text>
<polyline fill="none" stroke="#bfbfbf" points="22.5,-323.5 141.5,-323.5 "/>
<text text-anchor="middle" x="82" y="-311.5" font-family="Helvetica,sans-Serif" font-size="10.00"> </text>
</g>
<!-- Node4&#45;&gt;Node3 -->
<g id="edge3" class="edge"><title>Node4&#45;&gt;Node3</title>
<path fill="none" stroke="midnightblue" d="M82,-294.209C82,-285.293 82,-275.951 82,-267.584"/>
<polygon fill="none" stroke="midnightblue" points="78.5001,-294.397 82,-304.397 85.5001,-294.397 78.5001,-294.397"/>
</g>
</g>
</svg>
