<?xml version="1.0" encoding="UTF-8" standalone="no"?>
<!DOCTYPE svg PUBLIC "-//W3C//DTD SVG 1.1//EN"
 "http://www.w3.org/Graphics/SVG/1.1/DTD/svg11.dtd">
<!-- Generated by graphviz version 2.38.0 (20140413.2041)
 -->
<!-- Title: memoryoracle.models.Program.Meta Pages: 1 -->
<svg width="204pt" height="171pt"
 viewBox="0.00 0.00 204.00 171.00" xmlns="http://www.w3.org/2000/svg" xmlns:xlink="http://www.w3.org/1999/xlink">
<g id="graph0" class="graph" transform="scale(1 1) rotate(0) translate(4 167)">
<title>memoryoracle.models.Program.Meta</title>
<!-- Node1 -->
<g id="node1" class="node"><title>Node1</title>
<polygon fill="#bfbfbf" stroke="black" points="-1.42109e-14,-0.5 -1.42109e-14,-57.5 196,-57.5 196,-0.5 -1.42109e-14,-0.5"/>
<text text-anchor="middle" x="98" y="-45.5" font-family="Helvetica,sans-Serif" font-size="10.00">memoryoracle.models.Program.Meta</text>
<polyline fill="none" stroke="black" points="-1.42109e-14,-38.5 196,-38.5 "/>
<text text-anchor="middle" x="98" y="-26.5" font-family="Helvetica,sans-Serif" font-size="10.00"> </text>
<polyline fill="none" stroke="black" points="-1.42109e-14,-19.5 196,-19.5 "/>
<text text-anchor="middle" x="98" y="-7.5" font-family="Helvetica,sans-Serif" font-size="10.00"> </text>
</g>
<!-- Node2 -->
<g id="node2" class="node"><title>Node2</title>
<polygon fill="none" stroke="#bfbfbf" points="76,-105.5 76,-162.5 120,-162.5 120,-105.5 76,-105.5"/>
<text text-anchor="middle" x="98" y="-150.5" font-family="Helvetica,sans-Serif" font-size="10.00">string</text>
<polyline fill="none" stroke="#bfbfbf" points="76,-143.5 120,-143.5 "/>
<text text-anchor="middle" x="98" y="-131.5" font-family="Helvetica,sans-Serif" font-size="10.00"> </text>
<polyline fill="none" stroke="#bfbfbf" points="76,-124.5 120,-124.5 "/>
<text text-anchor="middle" x="98" y="-112.5" font-family="Helvetica,sans-Serif" font-size="10.00"> </text>
</g>
<!-- Node2&#45;&gt;Node1 -->
<g id="edge1" class="edge"><title>Node2&#45;&gt;Node1</title>
<path fill="none" stroke="#404040" d="M98,-105.398C98,-94.5451 98,-81.8731 98,-70.0493"/>
<polygon fill="none" stroke="#404040" points="98.0001,-69.6783 94,-63.6783 98,-57.6783 102,-63.6783 98.0001,-69.6783"/>
<text text-anchor="middle" x="124.5" y="-79" font-family="Helvetica,sans-Serif" font-size="10.00"> +db_table</text>
</g>
</g>
</svg>
