<?xml version="1.0" encoding="UTF-8" standalone="no"?>
<!DOCTYPE svg PUBLIC "-//W3C//DTD SVG 1.1//EN"
 "http://www.w3.org/Graphics/SVG/1.1/DTD/svg11.dtd">
<!-- Generated by graphviz version 2.38.0 (20140413.2041)
 -->
<!-- Title: memoryoracle.frame.FrameSelector.frame Pages: 1 -->
<svg width="1265pt" height="182pt"
 viewBox="0.00 0.00 1265.00 181.50" xmlns="http://www.w3.org/2000/svg" xmlns:xlink="http://www.w3.org/1999/xlink">
<g id="graph0" class="graph" transform="scale(1 1) rotate(0) translate(4 177.5)">
<title>memoryoracle.frame.FrameSelector.frame</title>
<!-- Node1 -->
<g id="node1" class="node"><title>Node1</title>
<polygon fill="#bfbfbf" stroke="black" points="0,-63.5 0,-93.5 151,-93.5 151,-63.5 0,-63.5"/>
<text text-anchor="start" x="8" y="-81.5" font-family="Helvetica,sans-Serif" font-size="10.00">memoryoracle.frame.Frame</text>
<text text-anchor="middle" x="75.5" y="-70.5" font-family="Helvetica,sans-Serif" font-size="10.00">Selector.frame</text>
</g>
<!-- Node2 -->
<g id="node2" class="node"><title>Node2</title>
<g id="a_node2"><a xlink:href="classmemoryoracle_1_1instance_1_1Primitive.html#abc513cbf3d0938c0db133e9af0a6f5ea" target="_top" xlink:title="memoryoracle.instance.Primitive.val\l_string">
<polygon fill="none" stroke="black" points="187,-63.5 187,-93.5 378,-93.5 378,-63.5 187,-63.5"/>
<text text-anchor="start" x="195" y="-81.5" font-family="Helvetica,sans-Serif" font-size="10.00">memoryoracle.instance.Primitive.val</text>
<text text-anchor="middle" x="282.5" y="-70.5" font-family="Helvetica,sans-Serif" font-size="10.00">_string</text>
</a>
</g>
</g>
<!-- Node1&#45;&gt;Node2 -->
<g id="edge1" class="edge"><title>Node1&#45;&gt;Node2</title>
<path fill="none" stroke="midnightblue" d="M161.229,-78.5C169.622,-78.5 178.178,-78.5 186.664,-78.5"/>
<polygon fill="midnightblue" stroke="midnightblue" points="161.09,-75.0001 151.09,-78.5 161.09,-82.0001 161.09,-75.0001"/>
</g>
<!-- Node3 -->
<g id="node3" class="node"><title>Node3</title>
<g id="a_node3"><a xlink:href="classmemoryoracle_1_1instance_1_1Primitive.html#a68562bda9732e33fe32188597e2f4b91" target="_top" xlink:title="memoryoracle.instance.Primitive.\l_track">
<polygon fill="none" stroke="black" points="598,-128.5 598,-158.5 775,-158.5 775,-128.5 598,-128.5"/>
<text text-anchor="start" x="606" y="-146.5" font-family="Helvetica,sans-Serif" font-size="10.00">memoryoracle.instance.Primitive.</text>
<text text-anchor="middle" x="686.5" y="-135.5" font-family="Helvetica,sans-Serif" font-size="10.00">_track</text>
</a>
</g>
</g>
<!-- Node2&#45;&gt;Node3 -->
<g id="edge2" class="edge"><title>Node2&#45;&gt;Node3</title>
<path fill="none" stroke="midnightblue" d="M377.216,-95.2608C389.58,-97.4005 402.09,-99.5295 414,-101.5 475.291,-111.641 544.496,-122.335 597.695,-130.394"/>
<polygon fill="midnightblue" stroke="midnightblue" points="377.798,-91.8095 367.346,-93.5453 376.599,-98.7061 377.798,-91.8095"/>
</g>
<!-- Node10 -->
<g id="node10" class="node"><title>Node10</title>
<g id="a_node10"><a xlink:href="classmemoryoracle_1_1instance_1_1Pointer.html#a2cc9e298adaad8bed089d90186fcde8a" target="_top" xlink:title="memoryoracle.instance.Pointer.\l_track">
<polygon fill="none" stroke="black" points="602,-79.5 602,-109.5 771,-109.5 771,-79.5 602,-79.5"/>
<text text-anchor="start" x="610" y="-97.5" font-family="Helvetica,sans-Serif" font-size="10.00">memoryoracle.instance.Pointer.</text>
<text text-anchor="middle" x="686.5" y="-86.5" font-family="Helvetica,sans-Serif" font-size="10.00">_track</text>
</a>
</g>
</g>
<!-- Node2&#45;&gt;Node10 -->
<g id="edge12" class="edge"><title>Node2&#45;&gt;Node10</title>
<path fill="none" stroke="midnightblue" d="M388.107,-82.6635C454.688,-85.3135 539.759,-88.6994 601.844,-91.1704"/>
<polygon fill="midnightblue" stroke="midnightblue" points="388.136,-79.162 378.005,-82.2614 387.858,-86.1564 388.136,-79.162"/>
</g>
<!-- Node11 -->
<g id="node11" class="node"><title>Node11</title>
<g id="a_node11"><a xlink:href="classmemoryoracle_1_1instance_1_1Int.html#a450a73bc8aaf1a7ac5f18c3ed1a933fc" target="_top" xlink:title="memoryoracle.instance.Int.\l_find_hidden_type">
<polygon fill="none" stroke="black" points="414,-0.5 414,-30.5 562,-30.5 562,-0.5 414,-0.5"/>
<text text-anchor="start" x="422" y="-18.5" font-family="Helvetica,sans-Serif" font-size="10.00">memoryoracle.instance.Int.</text>
<text text-anchor="middle" x="488" y="-7.5" font-family="Helvetica,sans-Serif" font-size="10.00">_find_hidden_type</text>
</a>
</g>
</g>
<!-- Node2&#45;&gt;Node11 -->
<g id="edge15" class="edge"><title>Node2&#45;&gt;Node11</title>
<path fill="none" stroke="midnightblue" d="M341.687,-60.4863C372.33,-50.9997 409.472,-39.5013 438.534,-30.5041"/>
<polygon fill="midnightblue" stroke="midnightblue" points="340.502,-57.1891 331.985,-63.49 342.573,-63.876 340.502,-57.1891"/>
</g>
<!-- Node12 -->
<g id="node12" class="node"><title>Node12</title>
<g id="a_node12"><a xlink:href="classmemoryoracle_1_1instance_1_1Int.html#a38c9424341353f006771163d360594da" target="_top" xlink:title="memoryoracle.instance.Int.\l_track">
<polygon fill="none" stroke="black" points="612.5,-30.5 612.5,-60.5 760.5,-60.5 760.5,-30.5 612.5,-30.5"/>
<text text-anchor="start" x="620.5" y="-48.5" font-family="Helvetica,sans-Serif" font-size="10.00">memoryoracle.instance.Int.</text>
<text text-anchor="middle" x="686.5" y="-37.5" font-family="Helvetica,sans-Serif" font-size="10.00">_track</text>
</a>
</g>
</g>
<!-- Node2&#45;&gt;Node12 -->
<g id="edge19" class="edge"><title>Node2&#45;&gt;Node12</title>
<path fill="none" stroke="midnightblue" d="M388.235,-69.9023C458.628,-64.1238 549.643,-56.6525 612.319,-51.5074"/>
<polygon fill="midnightblue" stroke="midnightblue" points="387.685,-66.4356 378.005,-70.7421 388.258,-73.4121 387.685,-66.4356"/>
</g>
<!-- Node4 -->
<g id="node4" class="node"><title>Node4</title>
<g id="a_node4"><a xlink:href="classmemoryoracle_1_1instance_1_1Instance.html#a86649e01ee4f562debdba5421a334f78" target="_top" xlink:title="memoryoracle.instance.Instance.track">
<polygon fill="none" stroke="black" points="811,-104 811,-123 1011,-123 1011,-104 811,-104"/>
<text text-anchor="middle" x="911" y="-111" font-family="Helvetica,sans-Serif" font-size="10.00">memoryoracle.instance.Instance.track</text>
</a>
</g>
</g>
<!-- Node3&#45;&gt;Node4 -->
<g id="edge3" class="edge"><title>Node3&#45;&gt;Node4</title>
<path fill="none" stroke="midnightblue" d="M785.17,-130.331C803.377,-127.876 822.077,-125.355 839.279,-123.035"/>
<polygon fill="midnightblue" stroke="midnightblue" points="784.561,-126.881 775.118,-131.686 785.497,-133.819 784.561,-126.881"/>
</g>
<!-- Node9 -->
<g id="node9" class="node"><title>Node9</title>
<g id="a_node9"><a xlink:href="classmemoryoracle_1_1models_1_1Typed.html#aa1d5d8d5b7ebe5c2876f363e7eb669db" target="_top" xlink:title="memoryoracle.models.Typed.track">
<polygon fill="none" stroke="black" points="820,-66 820,-85 1002,-85 1002,-66 820,-66"/>
<text text-anchor="middle" x="911" y="-73" font-family="Helvetica,sans-Serif" font-size="10.00">memoryoracle.models.Typed.track</text>
</a>
</g>
</g>
<!-- Node3&#45;&gt;Node9 -->
<g id="edge8" class="edge"><title>Node3&#45;&gt;Node9</title>
<path fill="none" stroke="midnightblue" d="M759.319,-124.963C764.699,-122.975 769.981,-120.821 775,-118.5 792.454,-110.429 793.206,-101.79 811,-94.5 820.474,-90.6188 830.788,-87.5193 841.063,-85.0469"/>
<polygon fill="midnightblue" stroke="midnightblue" points="757.856,-121.767 749.567,-128.365 760.162,-128.376 757.856,-121.767"/>
</g>
<!-- Node5 -->
<g id="node5" class="node"><title>Node5</title>
<g id="a_node5"><a xlink:href="classmemoryoracle_1_1instance_1_1Instance.html#a286e015a030541a0704994172024f034" target="_top" xlink:title="memoryoracle.instance.Instance.update">
<polygon fill="none" stroke="black" points="1047,-154 1047,-173 1257,-173 1257,-154 1047,-154"/>
<text text-anchor="middle" x="1152" y="-161" font-family="Helvetica,sans-Serif" font-size="10.00">memoryoracle.instance.Instance.update</text>
</a>
</g>
</g>
<!-- Node4&#45;&gt;Node5 -->
<g id="edge4" class="edge"><title>Node4&#45;&gt;Node5</title>
<path fill="none" stroke="midnightblue" d="M961.29,-125.379C986.812,-131.388 1018.51,-138.63 1047,-144.5 1062.91,-147.778 1080.25,-151.06 1096.13,-153.952"/>
<polygon fill="midnightblue" stroke="midnightblue" points="962.013,-121.954 951.476,-123.058 960.402,-128.766 962.013,-121.954"/>
</g>
<!-- Node6 -->
<g id="node6" class="node"><title>Node6</title>
<g id="a_node6"><a xlink:href="classmemoryoracle_1_1models_1_1Typed.html#a494dfbe205034b874ff9e8c7039f579b" target="_top" xlink:title="memoryoracle.models.Typed.\l__init__">
<polygon fill="none" stroke="black" points="1073,-104.5 1073,-134.5 1231,-134.5 1231,-104.5 1073,-104.5"/>
<text text-anchor="start" x="1081" y="-122.5" font-family="Helvetica,sans-Serif" font-size="10.00">memoryoracle.models.Typed.</text>
<text text-anchor="middle" x="1152" y="-111.5" font-family="Helvetica,sans-Serif" font-size="10.00">__init__</text>
</a>
</g>
</g>
<!-- Node4&#45;&gt;Node6 -->
<g id="edge5" class="edge"><title>Node4&#45;&gt;Node6</title>
<path fill="none" stroke="midnightblue" d="M1021.44,-116.247C1038.76,-116.682 1056.36,-117.124 1072.78,-117.536"/>
<polygon fill="midnightblue" stroke="midnightblue" points="1021.37,-112.745 1011.28,-115.992 1021.19,-119.742 1021.37,-112.745"/>
</g>
<!-- Node7 -->
<g id="node7" class="node"><title>Node7</title>
<g id="a_node7"><a xlink:href="classmemoryoracle_1_1models_1_1Memory.html#a71d4a141abc3358afdf1a1325bfd4253" target="_top" xlink:title="memoryoracle.models.Memory.update">
<polygon fill="none" stroke="black" points="1051,-66 1051,-85 1253,-85 1253,-66 1051,-66"/>
<text text-anchor="middle" x="1152" y="-73" font-family="Helvetica,sans-Serif" font-size="10.00">memoryoracle.models.Memory.update</text>
</a>
</g>
</g>
<!-- Node4&#45;&gt;Node7 -->
<g id="edge6" class="edge"><title>Node4&#45;&gt;Node7</title>
<path fill="none" stroke="midnightblue" d="M982.028,-102.366C1016.6,-96.8697 1057.87,-90.3071 1090.97,-85.0439"/>
<polygon fill="midnightblue" stroke="midnightblue" points="981.328,-98.9331 972.001,-103.96 982.427,-105.846 981.328,-98.9331"/>
</g>
<!-- Node8 -->
<g id="node8" class="node"><title>Node8</title>
<g id="a_node8"><a xlink:href="classmemoryoracle_1_1models_1_1Memory.html#aed3af349dd80317ae9cca4b4e9cb7c26" target="_top" xlink:title="memoryoracle.models.Memory.\l__init__">
<polygon fill="none" stroke="black" points="1068,-16.5 1068,-46.5 1236,-46.5 1236,-16.5 1068,-16.5"/>
<text text-anchor="start" x="1076" y="-34.5" font-family="Helvetica,sans-Serif" font-size="10.00">memoryoracle.models.Memory.</text>
<text text-anchor="middle" x="1152" y="-23.5" font-family="Helvetica,sans-Serif" font-size="10.00">__init__</text>
</a>
</g>
</g>
<!-- Node4&#45;&gt;Node8 -->
<g id="edge7" class="edge"><title>Node4&#45;&gt;Node8</title>
<path fill="none" stroke="midnightblue" d="M997.823,-100.599C1002.38,-98.8182 1006.81,-96.7959 1011,-94.5 1031.41,-83.3257 1026.86,-68.1436 1047,-56.5 1053.75,-52.5965 1061.09,-49.3009 1068.63,-46.5189"/>
<polygon fill="midnightblue" stroke="midnightblue" points="996.59,-97.3224 988.305,-103.926 998.9,-103.93 996.59,-97.3224"/>
</g>
<!-- Node9&#45;&gt;Node6 -->
<g id="edge9" class="edge"><title>Node9&#45;&gt;Node6</title>
<path fill="none" stroke="midnightblue" d="M973.844,-86.8855C1004.06,-92.449 1040.75,-99.2035 1072.89,-105.119"/>
<polygon fill="midnightblue" stroke="midnightblue" points="974.328,-83.4158 963.859,-85.0473 973.06,-90.3002 974.328,-83.4158"/>
</g>
<!-- Node9&#45;&gt;Node7 -->
<g id="edge10" class="edge"><title>Node9&#45;&gt;Node7</title>
<path fill="none" stroke="midnightblue" d="M1012.15,-75.5C1024.88,-75.5 1037.92,-75.5 1050.65,-75.5"/>
<polygon fill="midnightblue" stroke="midnightblue" points="1012.02,-72.0001 1002.02,-75.5 1012.02,-79.0001 1012.02,-72.0001"/>
</g>
<!-- Node9&#45;&gt;Node8 -->
<g id="edge11" class="edge"><title>Node9&#45;&gt;Node8</title>
<path fill="none" stroke="midnightblue" d="M973.871,-64.1095C1002.93,-58.7606 1037.96,-52.3114 1069.17,-46.5654"/>
<polygon fill="midnightblue" stroke="midnightblue" points="973.06,-60.6998 963.859,-65.9527 974.328,-67.5842 973.06,-60.6998"/>
</g>
<!-- Node10&#45;&gt;Node4 -->
<g id="edge13" class="edge"><title>Node10&#45;&gt;Node4</title>
<path fill="none" stroke="midnightblue" d="M781.397,-102.518C791.162,-103.352 801.109,-104.201 810.928,-105.04"/>
<polygon fill="midnightblue" stroke="midnightblue" points="781.562,-99.0196 771.301,-101.656 780.967,-105.994 781.562,-99.0196"/>
</g>
<!-- Node10&#45;&gt;Node9 -->
<g id="edge14" class="edge"><title>Node10&#45;&gt;Node9</title>
<path fill="none" stroke="midnightblue" d="M781.45,-86.4773C794.205,-85.3881 807.271,-84.2724 819.955,-83.1892"/>
<polygon fill="midnightblue" stroke="midnightblue" points="780.967,-83.0058 771.301,-87.344 781.562,-89.9804 780.967,-83.0058"/>
</g>
<!-- Node11&#45;&gt;Node12 -->
<g id="edge16" class="edge"><title>Node11&#45;&gt;Node12</title>
<path fill="none" stroke="midnightblue" d="M572.25,-28.2099C585.549,-30.2404 599.225,-32.3282 612.27,-34.3198"/>
<polygon fill="midnightblue" stroke="midnightblue" points="572.583,-24.7203 562.169,-26.6709 571.527,-31.6401 572.583,-24.7203"/>
</g>
<!-- Node12&#45;&gt;Node4 -->
<g id="edge17" class="edge"><title>Node12&#45;&gt;Node4</title>
<path fill="none" stroke="midnightblue" d="M762.168,-64.0984C766.566,-65.7725 770.875,-67.5715 775,-69.5 792.646,-77.7503 793.045,-86.9448 811,-94.5 820.275,-98.403 830.379,-101.511 840.47,-103.985"/>
<polygon fill="midnightblue" stroke="midnightblue" points="763.025,-60.6886 752.431,-60.6311 760.677,-67.283 763.025,-60.6886"/>
</g>
<!-- Node12&#45;&gt;Node9 -->
<g id="edge18" class="edge"><title>Node12&#45;&gt;Node9</title>
<path fill="none" stroke="midnightblue" d="M770.595,-56.7039C793.245,-59.7578 817.561,-63.0364 839.442,-65.9866"/>
<polygon fill="midnightblue" stroke="midnightblue" points="771.041,-53.2324 760.663,-55.3647 770.106,-60.1696 771.041,-53.2324"/>
</g>
</g>
</svg>
