<?xml version="1.0" encoding="UTF-8" standalone="no"?>
<!DOCTYPE svg PUBLIC "-//W3C//DTD SVG 1.1//EN"
 "http://www.w3.org/Graphics/SVG/1.1/DTD/svg11.dtd">
<!-- Generated by graphviz version 2.38.0 (20140413.2041)
 -->
<!-- Title: memoryoracle.instance.Memory.track Pages: 1 -->
<svg width="904pt" height="193pt"
 viewBox="0.00 0.00 904.00 192.50" xmlns="http://www.w3.org/2000/svg" xmlns:xlink="http://www.w3.org/1999/xlink">
<g id="graph0" class="graph" transform="scale(1 1) rotate(0) translate(4 188.5)">
<title>memoryoracle.instance.Memory.track</title>
<!-- Node1 -->
<g id="node1" class="node"><title>Node1</title>
<polygon fill="#bfbfbf" stroke="black" points="0,-98.5 0,-117.5 197,-117.5 197,-98.5 0,-98.5"/>
<text text-anchor="middle" x="98.5" y="-105.5" font-family="Helvetica,sans-Serif" font-size="10.00">memoryoracle.instance.Memory.track</text>
</g>
<!-- Node2 -->
<g id="node2" class="node"><title>Node2</title>
<g id="a_node2"><a xlink:href="classmemoryoracle_1_1models_1_1Typed.html#a494dfbe205034b874ff9e8c7039f579b" target="_top" xlink:title="memoryoracle.models.Typed.\l__init__">
<polygon fill="none" stroke="black" points="716,-154 716,-184 874,-184 874,-154 716,-154"/>
<text text-anchor="start" x="724" y="-172" font-family="Helvetica,sans-Serif" font-size="10.00">memoryoracle.models.Typed.</text>
<text text-anchor="middle" x="795" y="-161" font-family="Helvetica,sans-Serif" font-size="10.00">__init__</text>
</a>
</g>
</g>
<!-- Node1&#45;&gt;Node2 -->
<g id="edge1" class="edge"><title>Node1&#45;&gt;Node2</title>
<path fill="none" stroke="midnightblue" d="M130.206,-121.593C156.811,-132.632 196.639,-147.41 233,-154 402.928,-184.795 606.485,-180.137 715.641,-174.357"/>
<polygon fill="midnightblue" stroke="midnightblue" points="131.266,-118.241 120.692,-117.57 128.54,-124.688 131.266,-118.241"/>
</g>
<!-- Node3 -->
<g id="node3" class="node"><title>Node3</title>
<g id="a_node3"><a xlink:href="classmemoryoracle_1_1models_1_1Memory.html#aed3af349dd80317ae9cca4b4e9cb7c26" target="_top" xlink:title="memoryoracle.models.Memory.\l__init__">
<polygon fill="none" stroke="black" points="711,-101 711,-131 879,-131 879,-101 711,-101"/>
<text text-anchor="start" x="719" y="-119" font-family="Helvetica,sans-Serif" font-size="10.00">memoryoracle.models.Memory.</text>
<text text-anchor="middle" x="795" y="-108" font-family="Helvetica,sans-Serif" font-size="10.00">__init__</text>
</a>
</g>
</g>
<!-- Node1&#45;&gt;Node3 -->
<g id="edge2" class="edge"><title>Node1&#45;&gt;Node3</title>
<path fill="none" stroke="midnightblue" d="M207.378,-105.368C216.046,-105.22 224.669,-105.094 233,-105 421.882,-102.878 469.231,-101.153 658,-108 675.136,-108.622 693.474,-109.533 710.959,-110.52"/>
<polygon fill="midnightblue" stroke="midnightblue" points="207.131,-101.872 197.196,-105.552 207.257,-108.871 207.131,-101.872"/>
</g>
<!-- Node4 -->
<g id="node4" class="node"><title>Node4</title>
<g id="a_node4"><a xlink:href="classmemoryoracle_1_1instance_1_1Int.html#a38c9424341353f006771163d360594da" target="_top" xlink:title="memoryoracle.instance.Int.\l_track">
<polygon fill="none" stroke="black" points="262.5,-115 262.5,-145 410.5,-145 410.5,-115 262.5,-115"/>
<text text-anchor="start" x="270.5" y="-133" font-family="Helvetica,sans-Serif" font-size="10.00">memoryoracle.instance.Int.</text>
<text text-anchor="middle" x="336.5" y="-122" font-family="Helvetica,sans-Serif" font-size="10.00">_track</text>
</a>
</g>
</g>
<!-- Node1&#45;&gt;Node4 -->
<g id="edge3" class="edge"><title>Node1&#45;&gt;Node4</title>
<path fill="none" stroke="midnightblue" d="M207.217,-111.314C225.891,-112.972 244.91,-114.889 262.386,-116.889"/>
<polygon fill="midnightblue" stroke="midnightblue" points="207.458,-107.822 197.194,-110.447 206.855,-114.796 207.458,-107.822"/>
</g>
<!-- Node6 -->
<g id="node6" class="node"><title>Node6</title>
<g id="a_node6"><a xlink:href="classmemoryoracle_1_1models_1_1Memory.html#a71d4a141abc3358afdf1a1325bfd4253" target="_top" xlink:title="memoryoracle.models.Memory.update">
<polygon fill="none" stroke="black" points="694,-54.5 694,-73.5 896,-73.5 896,-54.5 694,-54.5"/>
<text text-anchor="middle" x="795" y="-61.5" font-family="Helvetica,sans-Serif" font-size="10.00">memoryoracle.models.Memory.update</text>
</a>
</g>
</g>
<!-- Node1&#45;&gt;Node6 -->
<g id="edge10" class="edge"><title>Node1&#45;&gt;Node6</title>
<path fill="none" stroke="midnightblue" d="M207.368,-101.166C340.327,-92.7424 564.495,-78.5402 693.82,-70.3469"/>
<polygon fill="midnightblue" stroke="midnightblue" points="206.924,-97.6871 197.165,-101.812 207.366,-104.673 206.924,-97.6871"/>
</g>
<!-- Node7 -->
<g id="node7" class="node"><title>Node7</title>
<g id="a_node7"><a xlink:href="classmemoryoracle_1_1instance_1_1Memory.html#aa937ea1a82dcaa2fa1c868a387d59483" target="_top" xlink:title="memoryoracle.instance.Memory.update">
<polygon fill="none" stroke="black" points="233,-0.5 233,-19.5 440,-19.5 440,-0.5 233,-0.5"/>
<text text-anchor="middle" x="336.5" y="-7.5" font-family="Helvetica,sans-Serif" font-size="10.00">memoryoracle.instance.Memory.update</text>
</a>
</g>
</g>
<!-- Node1&#45;&gt;Node7 -->
<g id="edge9" class="edge"><title>Node1&#45;&gt;Node7</title>
<path fill="none" stroke="midnightblue" d="M122.341,-92.7581C148.191,-76.1347 192.042,-49.7954 233,-34 248.603,-27.9828 266.147,-23.2009 282.25,-19.54"/>
<polygon fill="midnightblue" stroke="midnightblue" points="120.14,-90.0148 113.671,-98.4053 123.96,-95.8804 120.14,-90.0148"/>
</g>
<!-- Node4&#45;&gt;Node1 -->
<g id="edge4" class="edge"><title>Node4&#45;&gt;Node1</title>
<path fill="none" stroke="midnightblue" d="M252.203,-128.719C215.597,-125.884 174.1,-121.654 143.613,-117.512"/>
<polygon fill="midnightblue" stroke="midnightblue" points="252.152,-132.224 262.385,-129.48 252.674,-125.244 252.152,-132.224"/>
</g>
<!-- Node5 -->
<g id="node5" class="node"><title>Node5</title>
<g id="a_node5"><a xlink:href="classmemoryoracle_1_1models_1_1Typed.html#aa1d5d8d5b7ebe5c2876f363e7eb669db" target="_top" xlink:title="memoryoracle.models.Typed.track">
<polygon fill="none" stroke="black" points="476,-117.5 476,-136.5 658,-136.5 658,-117.5 476,-117.5"/>
<text text-anchor="middle" x="567" y="-124.5" font-family="Helvetica,sans-Serif" font-size="10.00">memoryoracle.models.Typed.track</text>
</a>
</g>
</g>
<!-- Node4&#45;&gt;Node5 -->
<g id="edge5" class="edge"><title>Node4&#45;&gt;Node5</title>
<path fill="none" stroke="midnightblue" d="M420.861,-128.906C438.781,-128.67 457.798,-128.421 475.959,-128.182"/>
<polygon fill="midnightblue" stroke="midnightblue" points="420.695,-125.407 410.742,-129.038 420.787,-132.407 420.695,-125.407"/>
</g>
<!-- Node5&#45;&gt;Node2 -->
<g id="edge6" class="edge"><title>Node5&#45;&gt;Node2</title>
<path fill="none" stroke="midnightblue" d="M629.25,-138.383C655.927,-143.34 687.513,-149.21 715.855,-154.478"/>
<polygon fill="midnightblue" stroke="midnightblue" points="629.754,-134.917 619.283,-136.53 628.475,-141.799 629.754,-134.917"/>
</g>
<!-- Node5&#45;&gt;Node3 -->
<g id="edge8" class="edge"><title>Node5&#45;&gt;Node3</title>
<path fill="none" stroke="midnightblue" d="M668.525,-122.107C682.656,-121.419 697.05,-120.719 710.809,-120.049"/>
<polygon fill="midnightblue" stroke="midnightblue" points="668.114,-118.623 658.296,-122.605 668.454,-125.615 668.114,-118.623"/>
</g>
<!-- Node5&#45;&gt;Node6 -->
<g id="edge7" class="edge"><title>Node5&#45;&gt;Node6</title>
<path fill="none" stroke="midnightblue" d="M610.531,-114.681C634.933,-107.655 666.161,-98.7348 694,-91 715.138,-85.1269 738.84,-78.7196 757.862,-73.6211"/>
<polygon fill="midnightblue" stroke="midnightblue" points="609.499,-111.336 600.86,-117.47 611.438,-118.062 609.499,-111.336"/>
</g>
</g>
</svg>
