<?xml version="1.0" encoding="UTF-8" standalone="no"?>
<!DOCTYPE svg PUBLIC "-//W3C//DTD SVG 1.1//EN"
 "http://www.w3.org/Graphics/SVG/1.1/DTD/svg11.dtd">
<!-- Generated by graphviz version 2.38.0 (20140413.2041)
 -->
<!-- Title: memoryoracle.descriptions.BlackBoxDecorator.name Pages: 1 -->
<svg width="857pt" height="166pt"
 viewBox="0.00 0.00 857.00 165.50" xmlns="http://www.w3.org/2000/svg" xmlns:xlink="http://www.w3.org/1999/xlink">
<g id="graph0" class="graph" transform="scale(1 1) rotate(0) translate(4 161.5)">
<title>memoryoracle.descriptions.BlackBoxDecorator.name</title>
<!-- Node1 -->
<g id="node1" class="node"><title>Node1</title>
<polygon fill="#bfbfbf" stroke="black" points="0,-63.5 0,-93.5 150,-93.5 150,-63.5 0,-63.5"/>
<text text-anchor="start" x="8" y="-81.5" font-family="Helvetica,sans-Serif" font-size="10.00">memoryoracle.descriptions.</text>
<text text-anchor="middle" x="75" y="-70.5" font-family="Helvetica,sans-Serif" font-size="10.00">BlackBoxDecorator.name</text>
</g>
<!-- Node2 -->
<g id="node2" class="node"><title>Node2</title>
<g id="a_node2"><a xlink:href="classmemoryoracle_1_1instance_1_1Structure.html#a200a54be462e0199b7833cbd11f81a52" target="_top" xlink:title="memoryoracle.instance.Structure.\l_track">
<polygon fill="none" stroke="black" points="186,-88.5 186,-118.5 367,-118.5 367,-88.5 186,-88.5"/>
<text text-anchor="start" x="194" y="-106.5" font-family="Helvetica,sans-Serif" font-size="10.00">memoryoracle.instance.Structure.</text>
<text text-anchor="middle" x="276.5" y="-95.5" font-family="Helvetica,sans-Serif" font-size="10.00">_track</text>
</a>
</g>
</g>
<!-- Node1&#45;&gt;Node2 -->
<g id="edge1" class="edge"><title>Node1&#45;&gt;Node2</title>
<path fill="none" stroke="midnightblue" d="M159.931,-89.0176C168.463,-90.0869 177.154,-91.1759 185.745,-92.2525"/>
<polygon fill="midnightblue" stroke="midnightblue" points="160.361,-85.5442 150.003,-87.7736 159.49,-92.4899 160.361,-85.5442"/>
</g>
<!-- Node9 -->
<g id="node9" class="node"><title>Node9</title>
<g id="a_node9"><a xlink:href="classmemoryoracle_1_1instance_1_1Array.html#a1d8c3993d8a52bfbec8240d6f79b3ce1" target="_top" xlink:title="memoryoracle.instance.Array.\l_track">
<polygon fill="none" stroke="black" points="196.5,-39.5 196.5,-69.5 356.5,-69.5 356.5,-39.5 196.5,-39.5"/>
<text text-anchor="start" x="204.5" y="-57.5" font-family="Helvetica,sans-Serif" font-size="10.00">memoryoracle.instance.Array.</text>
<text text-anchor="middle" x="276.5" y="-46.5" font-family="Helvetica,sans-Serif" font-size="10.00">_track</text>
</a>
</g>
</g>
<!-- Node1&#45;&gt;Node9 -->
<g id="edge11" class="edge"><title>Node1&#45;&gt;Node9</title>
<path fill="none" stroke="midnightblue" d="M160.005,-68.3941C172.019,-66.9489 184.345,-65.466 196.263,-64.0323"/>
<polygon fill="midnightblue" stroke="midnightblue" points="159.513,-64.928 150.003,-69.5974 160.349,-71.8779 159.513,-64.928"/>
</g>
<!-- Node3 -->
<g id="node3" class="node"><title>Node3</title>
<g id="a_node3"><a xlink:href="classmemoryoracle_1_1instance_1_1Instance.html#a86649e01ee4f562debdba5421a334f78" target="_top" xlink:title="memoryoracle.instance.Instance.track">
<polygon fill="none" stroke="black" points="403,-91 403,-110 603,-110 603,-91 403,-91"/>
<text text-anchor="middle" x="503" y="-98" font-family="Helvetica,sans-Serif" font-size="10.00">memoryoracle.instance.Instance.track</text>
</a>
</g>
</g>
<!-- Node2&#45;&gt;Node3 -->
<g id="edge2" class="edge"><title>Node2&#45;&gt;Node3</title>
<path fill="none" stroke="midnightblue" d="M377.437,-102.165C385.881,-102.052 394.419,-101.938 402.857,-101.825"/>
<polygon fill="midnightblue" stroke="midnightblue" points="377.149,-98.668 367.196,-102.301 377.242,-105.667 377.149,-98.668"/>
</g>
<!-- Node8 -->
<g id="node8" class="node"><title>Node8</title>
<g id="a_node8"><a xlink:href="classmemoryoracle_1_1models_1_1Typed.html#aa1d5d8d5b7ebe5c2876f363e7eb669db" target="_top" xlink:title="memoryoracle.models.Typed.track">
<polygon fill="none" stroke="black" points="412,-50 412,-69 594,-69 594,-50 412,-50"/>
<text text-anchor="middle" x="503" y="-57" font-family="Helvetica,sans-Serif" font-size="10.00">memoryoracle.models.Typed.track</text>
</a>
</g>
</g>
<!-- Node2&#45;&gt;Node8 -->
<g id="edge7" class="edge"><title>Node2&#45;&gt;Node8</title>
<path fill="none" stroke="midnightblue" d="M364.283,-86.4912C394.552,-80.5589 427.428,-74.1155 453.465,-69.0124"/>
<polygon fill="midnightblue" stroke="midnightblue" points="363.272,-83.1227 354.132,-88.4808 364.619,-89.992 363.272,-83.1227"/>
</g>
<!-- Node4 -->
<g id="node4" class="node"><title>Node4</title>
<g id="a_node4"><a xlink:href="classmemoryoracle_1_1instance_1_1Instance.html#a286e015a030541a0704994172024f034" target="_top" xlink:title="memoryoracle.instance.Instance.update">
<polygon fill="none" stroke="black" points="639,-138 639,-157 849,-157 849,-138 639,-138"/>
<text text-anchor="middle" x="744" y="-145" font-family="Helvetica,sans-Serif" font-size="10.00">memoryoracle.instance.Instance.update</text>
</a>
</g>
</g>
<!-- Node3&#45;&gt;Node4 -->
<g id="edge3" class="edge"><title>Node3&#45;&gt;Node4</title>
<path fill="none" stroke="midnightblue" d="M558.499,-112.111C583.069,-117.267 612.466,-123.325 639,-128.5 655.394,-131.697 673.274,-135.022 689.512,-137.98"/>
<polygon fill="midnightblue" stroke="midnightblue" points="559.145,-108.671 548.639,-110.037 557.704,-115.521 559.145,-108.671"/>
</g>
<!-- Node5 -->
<g id="node5" class="node"><title>Node5</title>
<g id="a_node5"><a xlink:href="classmemoryoracle_1_1models_1_1Typed.html#a494dfbe205034b874ff9e8c7039f579b" target="_top" xlink:title="memoryoracle.models.Typed.\l__init__">
<polygon fill="none" stroke="black" points="665,-88.5 665,-118.5 823,-118.5 823,-88.5 665,-88.5"/>
<text text-anchor="start" x="673" y="-106.5" font-family="Helvetica,sans-Serif" font-size="10.00">memoryoracle.models.Typed.</text>
<text text-anchor="middle" x="744" y="-95.5" font-family="Helvetica,sans-Serif" font-size="10.00">__init__</text>
</a>
</g>
</g>
<!-- Node3&#45;&gt;Node5 -->
<g id="edge4" class="edge"><title>Node3&#45;&gt;Node5</title>
<path fill="none" stroke="midnightblue" d="M613.436,-101.874C630.758,-102.091 648.364,-102.312 664.784,-102.518"/>
<polygon fill="midnightblue" stroke="midnightblue" points="613.324,-98.3721 603.281,-101.746 613.236,-105.372 613.324,-98.3721"/>
</g>
<!-- Node6 -->
<g id="node6" class="node"><title>Node6</title>
<g id="a_node6"><a xlink:href="classmemoryoracle_1_1models_1_1Memory.html#a71d4a141abc3358afdf1a1325bfd4253" target="_top" xlink:title="memoryoracle.models.Memory.update">
<polygon fill="none" stroke="black" points="643,-50 643,-69 845,-69 845,-50 643,-50"/>
<text text-anchor="middle" x="744" y="-57" font-family="Helvetica,sans-Serif" font-size="10.00">memoryoracle.models.Memory.update</text>
</a>
</g>
</g>
<!-- Node3&#45;&gt;Node6 -->
<g id="edge5" class="edge"><title>Node3&#45;&gt;Node6</title>
<path fill="none" stroke="midnightblue" d="M569.614,-89.2441C606.587,-82.9014 652.266,-75.0653 687.455,-69.0286"/>
<polygon fill="midnightblue" stroke="midnightblue" points="568.696,-85.8502 559.432,-90.9907 569.88,-92.7495 568.696,-85.8502"/>
</g>
<!-- Node7 -->
<g id="node7" class="node"><title>Node7</title>
<g id="a_node7"><a xlink:href="classmemoryoracle_1_1models_1_1Memory.html#aed3af349dd80317ae9cca4b4e9cb7c26" target="_top" xlink:title="memoryoracle.models.Memory.\l__init__">
<polygon fill="none" stroke="black" points="660,-0.5 660,-30.5 828,-30.5 828,-0.5 660,-0.5"/>
<text text-anchor="start" x="668" y="-18.5" font-family="Helvetica,sans-Serif" font-size="10.00">memoryoracle.models.Memory.</text>
<text text-anchor="middle" x="744" y="-7.5" font-family="Helvetica,sans-Serif" font-size="10.00">__init__</text>
</a>
</g>
</g>
<!-- Node3&#45;&gt;Node7 -->
<g id="edge6" class="edge"><title>Node3&#45;&gt;Node7</title>
<path fill="none" stroke="midnightblue" d="M582.248,-87.7759C589.485,-85.2281 596.523,-82.1701 603,-78.5 623.241,-67.0304 618.859,-52.1436 639,-40.5 645.752,-36.5965 653.088,-33.3009 660.635,-30.5189"/>
<polygon fill="midnightblue" stroke="midnightblue" points="580.759,-84.5768 572.29,-90.9436 582.881,-91.2475 580.759,-84.5768"/>
</g>
<!-- Node8&#45;&gt;Node5 -->
<g id="edge8" class="edge"><title>Node8&#45;&gt;Node5</title>
<path fill="none" stroke="midnightblue" d="M565.844,-70.8855C596.064,-76.449 632.753,-83.2035 664.887,-89.1194"/>
<polygon fill="midnightblue" stroke="midnightblue" points="566.328,-67.4158 555.859,-69.0473 565.06,-74.3002 566.328,-67.4158"/>
</g>
<!-- Node8&#45;&gt;Node6 -->
<g id="edge9" class="edge"><title>Node8&#45;&gt;Node6</title>
<path fill="none" stroke="midnightblue" d="M604.151,-59.5C616.884,-59.5 629.918,-59.5 642.654,-59.5"/>
<polygon fill="midnightblue" stroke="midnightblue" points="604.015,-56.0001 594.015,-59.5 604.015,-63.0001 604.015,-56.0001"/>
</g>
<!-- Node8&#45;&gt;Node7 -->
<g id="edge10" class="edge"><title>Node8&#45;&gt;Node7</title>
<path fill="none" stroke="midnightblue" d="M565.871,-48.1095C594.926,-42.7606 629.956,-36.3114 661.168,-30.5654"/>
<polygon fill="midnightblue" stroke="midnightblue" points="565.06,-44.6998 555.859,-49.9527 566.328,-51.5842 565.06,-44.6998"/>
</g>
<!-- Node9&#45;&gt;Node3 -->
<g id="edge12" class="edge"><title>Node9&#45;&gt;Node3</title>
<path fill="none" stroke="midnightblue" d="M360.818,-71.5718C392.81,-78.127 428.168,-85.3718 455.496,-90.9714"/>
<polygon fill="midnightblue" stroke="midnightblue" points="361.509,-68.1407 351.01,-69.5621 360.104,-74.9983 361.509,-68.1407"/>
</g>
<!-- Node9&#45;&gt;Node8 -->
<g id="edge13" class="edge"><title>Node9&#45;&gt;Node8</title>
<path fill="none" stroke="midnightblue" d="M366.778,-56.4884C381.554,-56.8175 396.885,-57.1589 411.687,-57.4886"/>
<polygon fill="midnightblue" stroke="midnightblue" points="366.726,-52.9864 356.65,-56.2628 366.57,-59.9847 366.726,-52.9864"/>
</g>
</g>
</svg>
