<?xml version="1.0" encoding="UTF-8" standalone="no"?>
<!DOCTYPE svg PUBLIC "-//W3C//DTD SVG 1.1//EN"
 "http://www.w3.org/Graphics/SVG/1.1/DTD/svg11.dtd">
<!-- Generated by graphviz version 2.38.0 (20140413.2041)
 -->
<!-- Title: memoryoracle.models.Memory.update Pages: 1 -->
<svg width="1143pt" height="542pt"
 viewBox="0.00 0.00 1143.00 541.50" xmlns="http://www.w3.org/2000/svg" xmlns:xlink="http://www.w3.org/1999/xlink">
<g id="graph0" class="graph" transform="scale(1 1) rotate(0) translate(4 537.5)">
<title>memoryoracle.models.Memory.update</title>
<!-- Node1 -->
<g id="node1" class="node"><title>Node1</title>
<polygon fill="#bfbfbf" stroke="black" points="0,-221 0,-240 202,-240 202,-221 0,-221"/>
<text text-anchor="middle" x="101" y="-228" font-family="Helvetica,sans-Serif" font-size="10.00">memoryoracle.models.Memory.update</text>
</g>
<!-- Node2 -->
<g id="node2" class="node"><title>Node2</title>
<g id="a_node2"><a xlink:href="classmemoryoracle_1_1instance_1_1Memory.html#af30604c1bb14fe470d4086c10b08b45e" target="_top" xlink:title="memoryoracle.instance.Memory.\l_clear_updated">
<polygon fill="none" stroke="black" points="250,-278.5 250,-308.5 423,-308.5 423,-278.5 250,-278.5"/>
<text text-anchor="start" x="258" y="-296.5" font-family="Helvetica,sans-Serif" font-size="10.00">memoryoracle.instance.Memory.</text>
<text text-anchor="middle" x="336.5" y="-285.5" font-family="Helvetica,sans-Serif" font-size="10.00">_clear_updated</text>
</a>
</g>
</g>
<!-- Node1&#45;&gt;Node2 -->
<g id="edge1" class="edge"><title>Node1&#45;&gt;Node2</title>
<path fill="none" stroke="midnightblue" d="M137.464,-240.068C172.498,-249.521 226.92,-264.204 269.854,-275.788"/>
<polygon fill="midnightblue" stroke="midnightblue" points="269.097,-279.209 279.664,-278.435 270.921,-272.451 269.097,-279.209"/>
</g>
<!-- Node3 -->
<g id="node3" class="node"><title>Node3</title>
<g id="a_node3"><a xlink:href="classmemoryoracle_1_1models_1_1Memory.html#a253756ba0ddd58fc05a9463c0a181185" target="_top" xlink:title="memoryoracle.models.Memory.\l_clear_updated">
<polygon fill="none" stroke="black" points="477.5,-473.5 477.5,-503.5 645.5,-503.5 645.5,-473.5 477.5,-473.5"/>
<text text-anchor="start" x="485.5" y="-491.5" font-family="Helvetica,sans-Serif" font-size="10.00">memoryoracle.models.Memory.</text>
<text text-anchor="middle" x="561.5" y="-480.5" font-family="Helvetica,sans-Serif" font-size="10.00">_clear_updated</text>
</a>
</g>
</g>
<!-- Node1&#45;&gt;Node3 -->
<g id="edge2" class="edge"><title>Node1&#45;&gt;Node3</title>
<path fill="none" stroke="midnightblue" d="M202.35,-235.96C294.125,-241.91 418.125,-252.735 435,-268.5 499.721,-328.961 410.938,-399.408 471,-464.5 471.89,-465.464 472.814,-466.392 473.769,-467.283"/>
<polygon fill="midnightblue" stroke="midnightblue" points="471.614,-470.041 481.648,-473.442 475.925,-464.526 471.614,-470.041"/>
</g>
<!-- Node6 -->
<g id="node6" class="node"><title>Node6</title>
<g id="a_node6"><a xlink:href="classmemoryoracle_1_1instance_1_1Memory.html#a8951ac234fecbd6cd473133ae7e63662" target="_top" xlink:title="memoryoracle.instance.Memory.track">
<polygon fill="none" stroke="black" points="238,-202 238,-221 435,-221 435,-202 238,-202"/>
<text text-anchor="middle" x="336.5" y="-209" font-family="Helvetica,sans-Serif" font-size="10.00">memoryoracle.instance.Memory.track</text>
</a>
</g>
</g>
<!-- Node1&#45;&gt;Node6 -->
<g id="edge5" class="edge"><title>Node1&#45;&gt;Node6</title>
<path fill="none" stroke="midnightblue" d="M202.041,-222.36C210.582,-221.665 219.245,-220.96 227.841,-220.26"/>
<polygon fill="midnightblue" stroke="midnightblue" points="228.208,-223.742 237.891,-219.442 227.64,-216.765 228.208,-223.742"/>
</g>
<!-- Node23 -->
<g id="node23" class="node"><title>Node23</title>
<g id="a_node23"><a xlink:href="classmemoryoracle_1_1models_1_1Typed.html#aa1d5d8d5b7ebe5c2876f363e7eb669db" target="_top" xlink:title="memoryoracle.models.Typed.track">
<polygon fill="none" stroke="black" points="245.5,-158 245.5,-177 427.5,-177 427.5,-158 245.5,-158"/>
<text text-anchor="middle" x="336.5" y="-165" font-family="Helvetica,sans-Serif" font-size="10.00">memoryoracle.models.Typed.track</text>
</a>
</g>
</g>
<!-- Node1&#45;&gt;Node23 -->
<g id="edge29" class="edge"><title>Node1&#45;&gt;Node23</title>
<path fill="none" stroke="midnightblue" d="M135.479,-220.93C162.974,-213.122 202.953,-201.888 238,-192.5 254.062,-188.197 271.654,-183.639 287.42,-179.61"/>
<polygon fill="midnightblue" stroke="midnightblue" points="288.656,-182.907 297.482,-177.047 286.928,-176.124 288.656,-182.907"/>
</g>
<!-- Node4 -->
<g id="node4" class="node"><title>Node4</title>
<g id="a_node4"><a xlink:href="classmemoryoracle_1_1frame_1_1Frame.html#aba4a80563b93cf0069db8d64df6b19e5" target="_top" xlink:title="memoryoracle.frame.Frame.index">
<polygon fill="none" stroke="black" points="708.5,-476 708.5,-495 887.5,-495 887.5,-476 708.5,-476"/>
<text text-anchor="middle" x="798" y="-483" font-family="Helvetica,sans-Serif" font-size="10.00">memoryoracle.frame.Frame.index</text>
</a>
</g>
</g>
<!-- Node3&#45;&gt;Node4 -->
<g id="edge3" class="edge"><title>Node3&#45;&gt;Node4</title>
<path fill="none" stroke="midnightblue" d="M645.506,-487.438C662.467,-487.221 680.477,-486.991 697.935,-486.767"/>
<polygon fill="midnightblue" stroke="midnightblue" points="698.184,-490.265 708.138,-486.637 698.094,-483.265 698.184,-490.265"/>
</g>
<!-- Node5 -->
<g id="node5" class="node"><title>Node5</title>
<g id="a_node5"><a xlink:href="classmemoryoracle_1_1instance_1_1Memory.html#aba9e6136a3854e0ab59a74acd015be06" target="_top" xlink:title="memoryoracle.instance.Memory.index">
<polygon fill="none" stroke="black" points="698.5,-514 698.5,-533 897.5,-533 897.5,-514 698.5,-514"/>
<text text-anchor="middle" x="798" y="-521" font-family="Helvetica,sans-Serif" font-size="10.00">memoryoracle.instance.Memory.index</text>
</a>
</g>
</g>
<!-- Node3&#45;&gt;Node5 -->
<g id="edge4" class="edge"><title>Node3&#45;&gt;Node5</title>
<path fill="none" stroke="midnightblue" d="M645.506,-500.889C670.866,-504.674 698.569,-508.809 723.269,-512.495"/>
<polygon fill="midnightblue" stroke="midnightblue" points="722.887,-515.977 733.294,-513.992 723.92,-509.054 722.887,-515.977"/>
</g>
<!-- Node7 -->
<g id="node7" class="node"><title>Node7</title>
<g id="a_node7"><a xlink:href="classmemoryoracle_1_1instance_1_1Memory.html#ac50fd3bb7216dc0481b8c6f23831a998" target="_top" xlink:title="memoryoracle.instance.Memory.\l_basic_track">
<polygon fill="none" stroke="black" points="475,-424.5 475,-454.5 648,-454.5 648,-424.5 475,-424.5"/>
<text text-anchor="start" x="483" y="-442.5" font-family="Helvetica,sans-Serif" font-size="10.00">memoryoracle.instance.Memory.</text>
<text text-anchor="middle" x="561.5" y="-431.5" font-family="Helvetica,sans-Serif" font-size="10.00">_basic_track</text>
</a>
</g>
</g>
<!-- Node6&#45;&gt;Node7 -->
<g id="edge6" class="edge"><title>Node6&#45;&gt;Node7</title>
<path fill="none" stroke="midnightblue" d="M405.825,-221.068C416.213,-224.513 426.339,-229.181 435,-235.5 451.721,-247.7 518.349,-364.325 547.137,-415.56"/>
<polygon fill="midnightblue" stroke="midnightblue" points="544.109,-417.314 552.052,-424.325 550.215,-413.891 544.109,-417.314"/>
</g>
<!-- Node9 -->
<g id="node9" class="node"><title>Node9</title>
<g id="a_node9"><a xlink:href="classmemoryoracle_1_1instance_1_1Structure.html#a200a54be462e0199b7833cbd11f81a52" target="_top" xlink:title="memoryoracle.instance.Structure.\l_track">
<polygon fill="none" stroke="black" points="471,-147.5 471,-177.5 652,-177.5 652,-147.5 471,-147.5"/>
<text text-anchor="start" x="479" y="-165.5" font-family="Helvetica,sans-Serif" font-size="10.00">memoryoracle.instance.Structure.</text>
<text text-anchor="middle" x="561.5" y="-154.5" font-family="Helvetica,sans-Serif" font-size="10.00">_track</text>
</a>
</g>
</g>
<!-- Node6&#45;&gt;Node9 -->
<g id="edge10" class="edge"><title>Node6&#45;&gt;Node9</title>
<path fill="none" stroke="midnightblue" d="M380.761,-201.994C409.466,-195.687 447.974,-187.225 481.984,-179.752"/>
<polygon fill="midnightblue" stroke="midnightblue" points="482.894,-183.136 491.91,-177.571 481.392,-176.299 482.894,-183.136"/>
</g>
<!-- Node11 -->
<g id="node11" class="node"><title>Node11</title>
<g id="a_node11"><a xlink:href="classmemoryoracle_1_1instance_1_1Array.html#a1d8c3993d8a52bfbec8240d6f79b3ce1" target="_top" xlink:title="TODO: upgrade this to ref field. ">
<polygon fill="none" stroke="black" points="481.5,-98.5 481.5,-128.5 641.5,-128.5 641.5,-98.5 481.5,-98.5"/>
<text text-anchor="start" x="489.5" y="-116.5" font-family="Helvetica,sans-Serif" font-size="10.00">memoryoracle.instance.Array.</text>
<text text-anchor="middle" x="561.5" y="-105.5" font-family="Helvetica,sans-Serif" font-size="10.00">_track</text>
</a>
</g>
</g>
<!-- Node6&#45;&gt;Node11 -->
<g id="edge12" class="edge"><title>Node6&#45;&gt;Node11</title>
<path fill="none" stroke="midnightblue" d="M401.064,-201.929C412.981,-198.319 424.864,-193.347 435,-186.5 457.393,-171.374 448.69,-152.749 471,-137.5 473.287,-135.937 475.671,-134.475 478.129,-133.109"/>
<polygon fill="midnightblue" stroke="midnightblue" points="479.899,-136.138 487.31,-128.566 476.795,-129.864 479.899,-136.138"/>
</g>
<!-- Node14 -->
<g id="node14" class="node"><title>Node14</title>
<g id="a_node14"><a xlink:href="classmemoryoracle_1_1instance_1_1Primitive.html#a68562bda9732e33fe32188597e2f4b91" target="_top" xlink:title="memoryoracle.instance.Primitive.\l_track">
<polygon fill="none" stroke="black" points="473,-49.5 473,-79.5 650,-79.5 650,-49.5 473,-49.5"/>
<text text-anchor="start" x="481" y="-67.5" font-family="Helvetica,sans-Serif" font-size="10.00">memoryoracle.instance.Primitive.</text>
<text text-anchor="middle" x="561.5" y="-56.5" font-family="Helvetica,sans-Serif" font-size="10.00">_track</text>
</a>
</g>
</g>
<!-- Node6&#45;&gt;Node14 -->
<g id="edge15" class="edge"><title>Node6&#45;&gt;Node14</title>
<path fill="none" stroke="midnightblue" d="M408.759,-201.964C418.364,-198.295 427.48,-193.296 435,-186.5 469.426,-155.388 436.746,-119.801 471,-88.5 472.15,-87.4487 473.342,-86.4427 474.57,-85.4799"/>
<polygon fill="midnightblue" stroke="midnightblue" points="476.789,-88.2059 483.151,-79.7335 472.894,-82.3896 476.789,-88.2059"/>
</g>
<!-- Node15 -->
<g id="node15" class="node"><title>Node15</title>
<g id="a_node15"><a xlink:href="classmemoryoracle_1_1instance_1_1Pointer.html#a2cc9e298adaad8bed089d90186fcde8a" target="_top" xlink:title="memoryoracle.instance.Pointer.\l_track">
<polygon fill="none" stroke="black" points="477,-196.5 477,-226.5 646,-226.5 646,-196.5 477,-196.5"/>
<text text-anchor="start" x="485" y="-214.5" font-family="Helvetica,sans-Serif" font-size="10.00">memoryoracle.instance.Pointer.</text>
<text text-anchor="middle" x="561.5" y="-203.5" font-family="Helvetica,sans-Serif" font-size="10.00">_track</text>
</a>
</g>
</g>
<!-- Node6&#45;&gt;Node15 -->
<g id="edge16" class="edge"><title>Node6&#45;&gt;Node15</title>
<path fill="none" stroke="midnightblue" d="M435.311,-211.5C445.668,-211.5 456.185,-211.5 466.497,-211.5"/>
<polygon fill="midnightblue" stroke="midnightblue" points="466.727,-215 476.727,-211.5 466.727,-208 466.727,-215"/>
</g>
<!-- Node16 -->
<g id="node16" class="node"><title>Node16</title>
<g id="a_node16"><a xlink:href="classmemoryoracle_1_1instance_1_1Int.html#a38c9424341353f006771163d360594da" target="_top" xlink:title="memoryoracle.instance.Int.\l_track">
<polygon fill="none" stroke="black" points="487.5,-245.5 487.5,-275.5 635.5,-275.5 635.5,-245.5 487.5,-245.5"/>
<text text-anchor="start" x="495.5" y="-263.5" font-family="Helvetica,sans-Serif" font-size="10.00">memoryoracle.instance.Int.</text>
<text text-anchor="middle" x="561.5" y="-252.5" font-family="Helvetica,sans-Serif" font-size="10.00">_track</text>
</a>
</g>
</g>
<!-- Node6&#45;&gt;Node16 -->
<g id="edge18" class="edge"><title>Node6&#45;&gt;Node16</title>
<path fill="none" stroke="midnightblue" d="M409.902,-221.042C441.528,-227.347 477.96,-235.521 507.068,-242.899"/>
<polygon fill="midnightblue" stroke="midnightblue" points="506.481,-246.363 517.038,-245.472 508.23,-239.585 506.481,-246.363"/>
</g>
<!-- Node7&#45;&gt;Node4 -->
<g id="edge8" class="edge"><title>Node7&#45;&gt;Node4</title>
<path fill="none" stroke="midnightblue" d="M630.137,-454.561C648.85,-458.589 669.187,-462.838 688,-466.5 701.503,-469.128 715.982,-471.773 729.834,-474.219"/>
<polygon fill="midnightblue" stroke="midnightblue" points="729.332,-477.685 739.786,-475.963 730.54,-470.79 729.332,-477.685"/>
</g>
<!-- Node7&#45;&gt;Node5 -->
<g id="edge9" class="edge"><title>Node7&#45;&gt;Node5</title>
<path fill="none" stroke="midnightblue" d="M632.102,-454.655C639.065,-457.42 645.831,-460.673 652,-464.5 672.325,-477.107 667.071,-492.923 688,-504.5 692.033,-506.731 696.267,-508.71 700.63,-510.466"/>
<polygon fill="midnightblue" stroke="midnightblue" points="699.762,-513.874 710.356,-513.963 702.13,-507.286 699.762,-513.874"/>
</g>
<!-- Node8 -->
<g id="node8" class="node"><title>Node8</title>
<g id="a_node8"><a xlink:href="classmemoryoracle_1_1instance_1_1Memory.html#acde5472399a5335909aca575b634dde7" target="_top" xlink:title="memoryoracle.instance.Memory.extract\l_dynamic_type">
<polygon fill="none" stroke="black" points="694.5,-426.5 694.5,-456.5 901.5,-456.5 901.5,-426.5 694.5,-426.5"/>
<text text-anchor="start" x="702.5" y="-444.5" font-family="Helvetica,sans-Serif" font-size="10.00">memoryoracle.instance.Memory.extract</text>
<text text-anchor="middle" x="798" y="-433.5" font-family="Helvetica,sans-Serif" font-size="10.00">_dynamic_type</text>
</a>
</g>
</g>
<!-- Node7&#45;&gt;Node8 -->
<g id="edge7" class="edge"><title>Node7&#45;&gt;Node8</title>
<path fill="none" stroke="midnightblue" d="M648.155,-440.231C659.91,-440.331 672.123,-440.435 684.271,-440.539"/>
<polygon fill="midnightblue" stroke="midnightblue" points="684.419,-444.04 694.448,-440.625 684.478,-437.04 684.419,-444.04"/>
</g>
<!-- Node10 -->
<g id="node10" class="node"><title>Node10</title>
<g id="a_node10"><a xlink:href="namespacememoryoracle_1_1instance.html#ac651a8635b1ae2ee7e788bf9adb17a0b" target="_top" xlink:title="memoryoracle.instance.addressable\l_factory">
<polygon fill="none" stroke="black" points="702.5,-142.5 702.5,-172.5 893.5,-172.5 893.5,-142.5 702.5,-142.5"/>
<text text-anchor="start" x="710.5" y="-160.5" font-family="Helvetica,sans-Serif" font-size="10.00">memoryoracle.instance.addressable</text>
<text text-anchor="middle" x="798" y="-149.5" font-family="Helvetica,sans-Serif" font-size="10.00">_factory</text>
</a>
</g>
</g>
<!-- Node9&#45;&gt;Node10 -->
<g id="edge11" class="edge"><title>Node9&#45;&gt;Node10</title>
<path fill="none" stroke="midnightblue" d="M652.158,-160.588C665.243,-160.309 678.815,-160.02 692.169,-159.735"/>
<polygon fill="midnightblue" stroke="midnightblue" points="692.404,-163.231 702.327,-159.519 692.254,-156.233 692.404,-163.231"/>
</g>
<!-- Node12 -->
<g id="node12" class="node"><title>Node12</title>
<g id="a_node12"><a xlink:href="classmemoryoracle_1_1typed_1_1Typed.html#a0d1a3c7644d37da66f9ea5cb269115fe" target="_top" xlink:title="memoryoracle.typed.Typed.object">
<polygon fill="none" stroke="black" points="950,-122 950,-141 1129,-141 1129,-122 950,-122"/>
<text text-anchor="middle" x="1039.5" y="-129" font-family="Helvetica,sans-Serif" font-size="10.00">memoryoracle.typed.Typed.object</text>
</a>
</g>
</g>
<!-- Node11&#45;&gt;Node12 -->
<g id="edge13" class="edge"><title>Node11&#45;&gt;Node12</title>
<path fill="none" stroke="midnightblue" d="M641.689,-103.101C711.904,-95.5892 817.112,-88.5193 908,-99.5 938.974,-103.242 973.204,-111.809 998.833,-119.137"/>
<polygon fill="midnightblue" stroke="midnightblue" points="997.976,-122.533 1008.56,-121.976 999.938,-115.814 997.976,-122.533"/>
</g>
<!-- Node13 -->
<g id="node13" class="node"><title>Node13</title>
<g id="a_node13"><a xlink:href="classmemoryoracle_1_1descriptions_1_1MemoryDescription.html#a0fc58900317d1e723b6352005e163aef" target="_top" xlink:title="memoryoracle.descriptions.\lMemoryDescription.object">
<polygon fill="none" stroke="black" points="964.5,-272.5 964.5,-302.5 1114.5,-302.5 1114.5,-272.5 964.5,-272.5"/>
<text text-anchor="start" x="972.5" y="-290.5" font-family="Helvetica,sans-Serif" font-size="10.00">memoryoracle.descriptions.</text>
<text text-anchor="middle" x="1039.5" y="-279.5" font-family="Helvetica,sans-Serif" font-size="10.00">MemoryDescription.object</text>
</a>
</g>
</g>
<!-- Node11&#45;&gt;Node13 -->
<g id="edge14" class="edge"><title>Node11&#45;&gt;Node13</title>
<path fill="none" stroke="midnightblue" d="M641.685,-110.686C728.966,-108.831 862.985,-110.031 908,-132.5 965.207,-161.055 1006.96,-227.196 1026.37,-263.157"/>
<polygon fill="midnightblue" stroke="midnightblue" points="1023.28,-264.804 1031.04,-272.027 1029.48,-261.547 1023.28,-264.804"/>
</g>
<!-- Node15&#45;&gt;Node10 -->
<g id="edge17" class="edge"><title>Node15&#45;&gt;Node10</title>
<path fill="none" stroke="midnightblue" d="M624.367,-196.479C644.627,-191.621 667.258,-186.262 688,-181.5 697.632,-179.289 707.752,-177.006 717.783,-174.768"/>
<polygon fill="midnightblue" stroke="midnightblue" points="718.762,-178.136 727.764,-172.549 717.243,-171.303 718.762,-178.136"/>
</g>
<!-- Node16&#45;&gt;Node6 -->
<g id="edge28" class="edge"><title>Node16&#45;&gt;Node6</title>
<path fill="none" stroke="midnightblue" d="M487.462,-250.831C448.265,-243.002 401.841,-232.34 371.14,-223.889"/>
<polygon fill="midnightblue" stroke="midnightblue" points="371.941,-220.477 361.365,-221.114 370.029,-227.212 371.941,-220.477"/>
</g>
<!-- Node16&#45;&gt;Node10 -->
<g id="edge23" class="edge"><title>Node16&#45;&gt;Node10</title>
<path fill="none" stroke="midnightblue" d="M634.519,-245.437C640.711,-242.665 646.646,-239.384 652,-235.5 675.348,-218.563 664.19,-197.781 688,-181.5 690.283,-179.939 692.65,-178.477 695.085,-177.109"/>
<polygon fill="midnightblue" stroke="midnightblue" points="696.801,-180.164 704.169,-172.551 693.662,-173.907 696.801,-180.164"/>
</g>
<!-- Node17 -->
<g id="node17" class="node"><title>Node17</title>
<g id="a_node17"><a xlink:href="classmemoryoracle_1_1instance_1_1Int.html#a450a73bc8aaf1a7ac5f18c3ed1a933fc" target="_top" xlink:title="memoryoracle.instance.Int.\l_find_hidden_type">
<polygon fill="none" stroke="black" points="724,-377.5 724,-407.5 872,-407.5 872,-377.5 724,-377.5"/>
<text text-anchor="start" x="732" y="-395.5" font-family="Helvetica,sans-Serif" font-size="10.00">memoryoracle.instance.Int.</text>
<text text-anchor="middle" x="798" y="-384.5" font-family="Helvetica,sans-Serif" font-size="10.00">_find_hidden_type</text>
</a>
</g>
</g>
<!-- Node16&#45;&gt;Node17 -->
<g id="edge19" class="edge"><title>Node16&#45;&gt;Node17</title>
<path fill="none" stroke="midnightblue" d="M575.527,-275.516C596.688,-298.916 640.928,-343.841 688,-367.5 696.153,-371.598 704.987,-375.034 713.976,-377.912"/>
<polygon fill="midnightblue" stroke="midnightblue" points="713.183,-381.328 723.766,-380.822 715.178,-374.618 713.183,-381.328"/>
</g>
<!-- Node19 -->
<g id="node19" class="node"><title>Node19</title>
<g id="a_node19"><a xlink:href="classmemoryoracle_1_1tracked_1_1Tracked.html#abd8dc997fb5a226926f2044462dbd94b" target="_top" xlink:title="memoryoracle.tracked.Tracked.description">
<polygon fill="none" stroke="black" points="688,-339 688,-358 908,-358 908,-339 688,-339"/>
<text text-anchor="middle" x="798" y="-346" font-family="Helvetica,sans-Serif" font-size="10.00">memoryoracle.tracked.Tracked.description</text>
</a>
</g>
</g>
<!-- Node16&#45;&gt;Node19 -->
<g id="edge24" class="edge"><title>Node16&#45;&gt;Node19</title>
<path fill="none" stroke="midnightblue" d="M584.568,-275.596C608.841,-291.474 649.525,-315.992 688,-329.5 695.946,-332.29 704.368,-334.681 712.869,-336.729"/>
<polygon fill="midnightblue" stroke="midnightblue" points="712.337,-340.197 722.861,-338.979 713.874,-333.368 712.337,-340.197"/>
</g>
<!-- Node20 -->
<g id="node20" class="node"><title>Node20</title>
<g id="a_node20"><a xlink:href="classmemoryoracle_1_1descriptions_1_1BlackBoxDecorator.html#a558c1ce5d38dc4785d4ef36c0a053967" target="_top" xlink:title="memoryoracle.descriptions.\lBlackBoxDecorator.description">
<polygon fill="none" stroke="black" points="716.5,-289.5 716.5,-319.5 879.5,-319.5 879.5,-289.5 716.5,-289.5"/>
<text text-anchor="start" x="724.5" y="-307.5" font-family="Helvetica,sans-Serif" font-size="10.00">memoryoracle.descriptions.</text>
<text text-anchor="middle" x="798" y="-296.5" font-family="Helvetica,sans-Serif" font-size="10.00">BlackBoxDecorator.description</text>
</a>
</g>
</g>
<!-- Node16&#45;&gt;Node20 -->
<g id="edge25" class="edge"><title>Node16&#45;&gt;Node20</title>
<path fill="none" stroke="midnightblue" d="M635.733,-274.241C658.309,-278.477 683.433,-283.191 707.002,-287.613"/>
<polygon fill="midnightblue" stroke="midnightblue" points="706.521,-291.084 716.995,-289.488 707.812,-284.204 706.521,-291.084"/>
</g>
<!-- Node21 -->
<g id="node21" class="node"><title>Node21</title>
<g id="a_node21"><a xlink:href="classmemoryoracle_1_1descriptions_1_1ExternalDescriptionDecorator.html#ae5952e51de2c9473ce19875b55ccb625" target="_top" xlink:title="memoryoracle.descriptions.\lExternalDescriptionDecorator.description">
<polygon fill="none" stroke="black" points="692,-240.5 692,-270.5 904,-270.5 904,-240.5 692,-240.5"/>
<text text-anchor="start" x="700" y="-258.5" font-family="Helvetica,sans-Serif" font-size="10.00">memoryoracle.descriptions.</text>
<text text-anchor="middle" x="798" y="-247.5" font-family="Helvetica,sans-Serif" font-size="10.00">ExternalDescriptionDecorator.description</text>
</a>
</g>
</g>
<!-- Node16&#45;&gt;Node21 -->
<g id="edge26" class="edge"><title>Node16&#45;&gt;Node21</title>
<path fill="none" stroke="midnightblue" d="M635.733,-258.939C650.284,-258.628 665.893,-258.295 681.463,-257.963"/>
<polygon fill="midnightblue" stroke="midnightblue" points="681.753,-261.458 691.677,-257.746 681.604,-254.46 681.753,-261.458"/>
</g>
<!-- Node22 -->
<g id="node22" class="node"><title>Node22</title>
<g id="a_node22"><a xlink:href="classmemoryoracle_1_1descriptions_1_1StandardDescriptionDecorator.html#a50e064e8a858b8eafe2c603650dbbee8" target="_top" xlink:title="memoryoracle.descriptions.\lStandardDescriptionDecorator.description">
<polygon fill="none" stroke="black" points="689,-191.5 689,-221.5 907,-221.5 907,-191.5 689,-191.5"/>
<text text-anchor="start" x="697" y="-209.5" font-family="Helvetica,sans-Serif" font-size="10.00">memoryoracle.descriptions.</text>
<text text-anchor="middle" x="798" y="-198.5" font-family="Helvetica,sans-Serif" font-size="10.00">StandardDescriptionDecorator.description</text>
</a>
</g>
</g>
<!-- Node16&#45;&gt;Node22 -->
<g id="edge27" class="edge"><title>Node16&#45;&gt;Node22</title>
<path fill="none" stroke="midnightblue" d="M624.367,-245.479C644.627,-240.621 667.258,-235.262 688,-230.5 697.632,-228.289 707.752,-226.006 717.783,-223.768"/>
<polygon fill="midnightblue" stroke="midnightblue" points="718.762,-227.136 727.764,-221.549 717.243,-220.303 718.762,-227.136"/>
</g>
<!-- Node17&#45;&gt;Node12 -->
<g id="edge20" class="edge"><title>Node17&#45;&gt;Node12</title>
<path fill="none" stroke="midnightblue" d="M872.012,-386.486C885.173,-382.583 897.9,-376.593 908,-367.5 944.664,-334.492 921.323,-306.313 944,-262.5 966.731,-218.582 1002.99,-173.009 1023.35,-148.9"/>
<polygon fill="midnightblue" stroke="midnightblue" points="1026.24,-150.907 1030.08,-141.032 1020.92,-146.358 1026.24,-150.907"/>
</g>
<!-- Node17&#45;&gt;Node13 -->
<g id="edge21" class="edge"><title>Node17&#45;&gt;Node13</title>
<path fill="none" stroke="midnightblue" d="M872.137,-379.182C884.325,-375.987 896.676,-372.124 908,-367.5 945.413,-352.222 984.426,-326.866 1009.94,-308.796"/>
<polygon fill="midnightblue" stroke="midnightblue" points="1012.29,-311.413 1018.37,-302.737 1008.21,-305.728 1012.29,-311.413"/>
</g>
<!-- Node18 -->
<g id="node18" class="node"><title>Node18</title>
<g id="a_node18"><a xlink:href="classmemoryoracle_1_1instance_1_1Primitive.html#abc513cbf3d0938c0db133e9af0a6f5ea" target="_top" xlink:title="memoryoracle.instance.Primitive.val\l_string">
<polygon fill="none" stroke="black" points="944,-377.5 944,-407.5 1135,-407.5 1135,-377.5 944,-377.5"/>
<text text-anchor="start" x="952" y="-395.5" font-family="Helvetica,sans-Serif" font-size="10.00">memoryoracle.instance.Primitive.val</text>
<text text-anchor="middle" x="1039.5" y="-384.5" font-family="Helvetica,sans-Serif" font-size="10.00">_string</text>
</a>
</g>
</g>
<!-- Node17&#45;&gt;Node18 -->
<g id="edge22" class="edge"><title>Node17&#45;&gt;Node18</title>
<path fill="none" stroke="midnightblue" d="M872.159,-392.5C891.547,-392.5 912.865,-392.5 933.582,-392.5"/>
<polygon fill="midnightblue" stroke="midnightblue" points="933.693,-396 943.693,-392.5 933.693,-389 933.693,-396"/>
</g>
<!-- Node23&#45;&gt;Node7 -->
<g id="edge30" class="edge"><title>Node23&#45;&gt;Node7</title>
<path fill="none" stroke="midnightblue" d="M408.632,-177.178C418.254,-180.827 427.41,-185.783 435,-192.5 467.882,-221.597 451.968,-244.931 471,-284.5 494.07,-332.464 526.334,-385.631 545.162,-415.568"/>
<polygon fill="midnightblue" stroke="midnightblue" points="542.244,-417.503 550.549,-424.082 548.159,-413.76 542.244,-417.503"/>
</g>
<!-- Node23&#45;&gt;Node9 -->
<g id="edge32" class="edge"><title>Node23&#45;&gt;Node9</title>
<path fill="none" stroke="midnightblue" d="M427.56,-165.481C438.481,-165.236 449.687,-164.985 460.737,-164.737"/>
<polygon fill="midnightblue" stroke="midnightblue" points="460.91,-168.234 470.829,-164.511 460.753,-161.236 460.91,-168.234"/>
</g>
<!-- Node23&#45;&gt;Node11 -->
<g id="edge33" class="edge"><title>Node23&#45;&gt;Node11</title>
<path fill="none" stroke="midnightblue" d="M376.855,-157.97C407.73,-150.494 451.541,-139.885 488.628,-130.904"/>
<polygon fill="midnightblue" stroke="midnightblue" points="489.499,-134.294 498.395,-128.539 487.852,-127.491 489.499,-134.294"/>
</g>
<!-- Node23&#45;&gt;Node14 -->
<g id="edge34" class="edge"><title>Node23&#45;&gt;Node14</title>
<path fill="none" stroke="midnightblue" d="M350.875,-157.895C374.209,-141.534 424.33,-108.131 471,-88.5 475.789,-86.4855 480.795,-84.5973 485.885,-82.8356"/>
<polygon fill="midnightblue" stroke="midnightblue" points="487.333,-86.0443 495.746,-79.6037 485.153,-79.3925 487.333,-86.0443"/>
</g>
<!-- Node23&#45;&gt;Node15 -->
<g id="edge35" class="edge"><title>Node23&#45;&gt;Node15</title>
<path fill="none" stroke="midnightblue" d="M385.888,-177.047C411.667,-182.134 444.159,-188.545 474.102,-194.453"/>
<polygon fill="midnightblue" stroke="midnightblue" points="473.658,-197.933 484.146,-196.435 475.013,-191.065 473.658,-197.933"/>
</g>
<!-- Node23&#45;&gt;Node16 -->
<g id="edge36" class="edge"><title>Node23&#45;&gt;Node16</title>
<path fill="none" stroke="midnightblue" d="M398.937,-177.06C411.471,-180.675 424.134,-185.652 435,-192.5 456.086,-205.79 450.058,-221.985 471,-235.5 474.169,-237.545 477.505,-239.425 480.951,-241.152"/>
<polygon fill="midnightblue" stroke="midnightblue" points="479.74,-244.446 490.294,-245.38 482.627,-238.069 479.74,-244.446"/>
</g>
<!-- Node24 -->
<g id="node24" class="node"><title>Node24</title>
<g id="a_node24"><a xlink:href="classmemoryoracle_1_1models_1_1Typed.html#afa441c1fd6bdde840651a8ef1265a36a" target="_top" xlink:title="memoryoracle.models.Typed.\l_basic_track">
<polygon fill="none" stroke="black" points="482.5,-0.5 482.5,-30.5 640.5,-30.5 640.5,-0.5 482.5,-0.5"/>
<text text-anchor="start" x="490.5" y="-18.5" font-family="Helvetica,sans-Serif" font-size="10.00">memoryoracle.models.Typed.</text>
<text text-anchor="middle" x="561.5" y="-7.5" font-family="Helvetica,sans-Serif" font-size="10.00">_basic_track</text>
</a>
</g>
</g>
<!-- Node23&#45;&gt;Node24 -->
<g id="edge31" class="edge"><title>Node23&#45;&gt;Node24</title>
<path fill="none" stroke="midnightblue" d="M344.723,-157.782C363.043,-133.846 413.935,-71.6587 471,-39.5 474.202,-37.6958 477.544,-36.0225 480.978,-34.4711"/>
<polygon fill="midnightblue" stroke="midnightblue" points="482.337,-37.6964 490.243,-30.6429 479.664,-31.2269 482.337,-37.6964"/>
</g>
</g>
</svg>
