<?xml version="1.0" encoding="UTF-8" standalone="no"?>
<!DOCTYPE svg PUBLIC "-//W3C//DTD SVG 1.1//EN"
 "http://www.w3.org/Graphics/SVG/1.1/DTD/svg11.dtd">
<!-- Generated by graphviz version 2.38.0 (20140413.2041)
 -->
<!-- Title: memoryoracle.models.ProgramInstance Pages: 1 -->
<svg width="177pt" height="298pt"
 viewBox="0.00 0.00 177.00 298.00" xmlns="http://www.w3.org/2000/svg" xmlns:xlink="http://www.w3.org/1999/xlink">
<g id="graph0" class="graph" transform="scale(1 1) rotate(0) translate(4 294)">
<title>memoryoracle.models.ProgramInstance</title>
<!-- Node1 -->
<g id="node1" class="node"><title>Node1</title>
<polygon fill="#bfbfbf" stroke="black" points="-1.42109e-14,-0.5 -1.42109e-14,-68.5 169,-68.5 169,-0.5 -1.42109e-14,-0.5"/>
<text text-anchor="start" x="8" y="-56.5" font-family="Helvetica,sans-Serif" font-size="10.00">memoryoracle.models.Program</text>
<text text-anchor="middle" x="84.5" y="-45.5" font-family="Helvetica,sans-Serif" font-size="10.00">Instance</text>
<polyline fill="none" stroke="black" points="-1.42109e-14,-38.5 169,-38.5 "/>
<text text-anchor="start" x="8" y="-26.5" font-family="Helvetica,sans-Serif" font-size="10.00">+ id_commit</text>
<polyline fill="none" stroke="black" points="-1.42109e-14,-19.5 169,-19.5 "/>
<text text-anchor="middle" x="84.5" y="-7.5" font-family="Helvetica,sans-Serif" font-size="10.00"> </text>
</g>
<!-- Node2 -->
<g id="node2" class="node"><title>Node2</title>
<g id="a_node2"><a xlink:href="classmemoryoracle_1_1models_1_1Tracked.html" target="_top" xlink:title="{memoryoracle.models.Tracked\n|+ id\l+ name\l+ id\l+ name\l|+ __init__()\l}">
<polygon fill="none" stroke="black" points="2.5,-105.5 2.5,-195.5 166.5,-195.5 166.5,-105.5 2.5,-105.5"/>
<text text-anchor="middle" x="84.5" y="-183.5" font-family="Helvetica,sans-Serif" font-size="10.00">memoryoracle.models.Tracked</text>
<polyline fill="none" stroke="black" points="2.5,-176.5 166.5,-176.5 "/>
<text text-anchor="start" x="10.5" y="-164.5" font-family="Helvetica,sans-Serif" font-size="10.00">+ id</text>
<text text-anchor="start" x="10.5" y="-153.5" font-family="Helvetica,sans-Serif" font-size="10.00">+ name</text>
<text text-anchor="start" x="10.5" y="-142.5" font-family="Helvetica,sans-Serif" font-size="10.00">+ id</text>
<text text-anchor="start" x="10.5" y="-131.5" font-family="Helvetica,sans-Serif" font-size="10.00">+ name</text>
<polyline fill="none" stroke="black" points="2.5,-124.5 166.5,-124.5 "/>
<text text-anchor="start" x="10.5" y="-112.5" font-family="Helvetica,sans-Serif" font-size="10.00">+ __init__()</text>
</a>
</g>
</g>
<!-- Node2&#45;&gt;Node1 -->
<g id="edge1" class="edge"><title>Node2&#45;&gt;Node1</title>
<path fill="none" stroke="midnightblue" d="M84.5,-95.3164C84.5,-86.2849 84.5,-77.1589 84.5,-68.8483"/>
<polygon fill="none" stroke="midnightblue" points="81.0001,-95.4246 84.5,-105.425 88.0001,-95.4247 81.0001,-95.4246"/>
</g>
<!-- Node3 -->
<g id="node3" class="node"><title>Node3</title>
<polygon fill="none" stroke="#bfbfbf" points="62,-232.5 62,-289.5 107,-289.5 107,-232.5 62,-232.5"/>
<text text-anchor="middle" x="84.5" y="-277.5" font-family="Helvetica,sans-Serif" font-size="10.00">Model</text>
<polyline fill="none" stroke="#bfbfbf" points="62,-270.5 107,-270.5 "/>
<text text-anchor="middle" x="84.5" y="-258.5" font-family="Helvetica,sans-Serif" font-size="10.00"> </text>
<polyline fill="none" stroke="#bfbfbf" points="62,-251.5 107,-251.5 "/>
<text text-anchor="middle" x="84.5" y="-239.5" font-family="Helvetica,sans-Serif" font-size="10.00"> </text>
</g>
<!-- Node3&#45;&gt;Node2 -->
<g id="edge2" class="edge"><title>Node3&#45;&gt;Node2</title>
<path fill="none" stroke="midnightblue" d="M84.5,-222.214C84.5,-213.609 84.5,-204.394 84.5,-195.554"/>
<polygon fill="none" stroke="midnightblue" points="81.0001,-222.34 84.5,-232.34 88.0001,-222.34 81.0001,-222.34"/>
</g>
</g>
</svg>
