<?xml version="1.0" encoding="UTF-8" standalone="no"?>
<!DOCTYPE svg PUBLIC "-//W3C//DTD SVG 1.1//EN"
 "http://www.w3.org/Graphics/SVG/1.1/DTD/svg11.dtd">
<!-- Generated by graphviz version 2.38.0 (20140413.2041)
 -->
<!-- Title: memoryoracle.models.ObjectFile Pages: 1 -->
<svg width="192pt" height="370pt"
 viewBox="0.00 0.00 192.00 370.00" xmlns="http://www.w3.org/2000/svg" xmlns:xlink="http://www.w3.org/1999/xlink">
<g id="graph0" class="graph" transform="scale(1 1) rotate(0) translate(4 366)">
<title>memoryoracle.models.ObjectFile</title>
<!-- Node1 -->
<g id="node1" class="node"><title>Node1</title>
<polygon fill="#bfbfbf" stroke="black" points="5.5,-0.5 5.5,-57.5 178.5,-57.5 178.5,-0.5 5.5,-0.5"/>
<text text-anchor="middle" x="92" y="-45.5" font-family="Helvetica,sans-Serif" font-size="10.00">memoryoracle.models.ObjectFile</text>
<polyline fill="none" stroke="black" points="5.5,-38.5 178.5,-38.5 "/>
<text text-anchor="middle" x="92" y="-26.5" font-family="Helvetica,sans-Serif" font-size="10.00"> </text>
<polyline fill="none" stroke="black" points="5.5,-19.5 178.5,-19.5 "/>
<text text-anchor="middle" x="92" y="-7.5" font-family="Helvetica,sans-Serif" font-size="10.00"> </text>
</g>
<!-- Node2 -->
<g id="node2" class="node"><title>Node2</title>
<g id="a_node2"><a xlink:href="classmemoryoracle_1_1models_1_1ProgramFile.html" target="_top" xlink:title="{memoryoracle.models.ProgramFile\n|+ id_commit\l+ path\l+ size\l|}">
<polygon fill="none" stroke="black" points="0,-94.5 0,-173.5 184,-173.5 184,-94.5 0,-94.5"/>
<text text-anchor="middle" x="92" y="-161.5" font-family="Helvetica,sans-Serif" font-size="10.00">memoryoracle.models.ProgramFile</text>
<polyline fill="none" stroke="black" points="0,-154.5 184,-154.5 "/>
<text text-anchor="start" x="8" y="-142.5" font-family="Helvetica,sans-Serif" font-size="10.00">+ id_commit</text>
<text text-anchor="start" x="8" y="-131.5" font-family="Helvetica,sans-Serif" font-size="10.00">+ path</text>
<text text-anchor="start" x="8" y="-120.5" font-family="Helvetica,sans-Serif" font-size="10.00">+ size</text>
<polyline fill="none" stroke="black" points="0,-113.5 184,-113.5 "/>
<text text-anchor="middle" x="92" y="-101.5" font-family="Helvetica,sans-Serif" font-size="10.00"> </text>
</a>
</g>
</g>
<!-- Node2&#45;&gt;Node1 -->
<g id="edge1" class="edge"><title>Node2&#45;&gt;Node1</title>
<path fill="none" stroke="midnightblue" d="M92,-84.1628C92,-75.0404 92,-65.8063 92,-57.6095"/>
<polygon fill="none" stroke="midnightblue" points="88.5001,-84.3535 92,-94.3536 95.5001,-84.3536 88.5001,-84.3535"/>
</g>
<!-- Node3 -->
<g id="node3" class="node"><title>Node3</title>
<g id="a_node3"><a xlink:href="classmemoryoracle_1_1models_1_1Tracked.html" target="_top" xlink:title="{memoryoracle.models.Tracked\n|+ name\l|}">
<polygon fill="none" stroke="black" points="10,-210.5 10,-267.5 174,-267.5 174,-210.5 10,-210.5"/>
<text text-anchor="middle" x="92" y="-255.5" font-family="Helvetica,sans-Serif" font-size="10.00">memoryoracle.models.Tracked</text>
<polyline fill="none" stroke="black" points="10,-248.5 174,-248.5 "/>
<text text-anchor="start" x="18" y="-236.5" font-family="Helvetica,sans-Serif" font-size="10.00">+ name</text>
<polyline fill="none" stroke="black" points="10,-229.5 174,-229.5 "/>
<text text-anchor="middle" x="92" y="-217.5" font-family="Helvetica,sans-Serif" font-size="10.00"> </text>
</a>
</g>
</g>
<!-- Node3&#45;&gt;Node2 -->
<g id="edge2" class="edge"><title>Node3&#45;&gt;Node2</title>
<path fill="none" stroke="midnightblue" d="M92,-200.156C92,-191.473 92,-182.232 92,-173.52"/>
<polygon fill="none" stroke="midnightblue" points="88.5001,-200.398 92,-210.398 95.5001,-200.398 88.5001,-200.398"/>
</g>
<!-- Node4 -->
<g id="node4" class="node"><title>Node4</title>
<polygon fill="none" stroke="#bfbfbf" points="49,-304.5 49,-361.5 135,-361.5 135,-304.5 49,-304.5"/>
<text text-anchor="middle" x="92" y="-349.5" font-family="Helvetica,sans-Serif" font-size="10.00">models::Model</text>
<polyline fill="none" stroke="#bfbfbf" points="49,-342.5 135,-342.5 "/>
<text text-anchor="middle" x="92" y="-330.5" font-family="Helvetica,sans-Serif" font-size="10.00"> </text>
<polyline fill="none" stroke="#bfbfbf" points="49,-323.5 135,-323.5 "/>
<text text-anchor="middle" x="92" y="-311.5" font-family="Helvetica,sans-Serif" font-size="10.00"> </text>
</g>
<!-- Node4&#45;&gt;Node3 -->
<g id="edge3" class="edge"><title>Node4&#45;&gt;Node3</title>
<path fill="none" stroke="midnightblue" d="M92,-294.209C92,-285.293 92,-275.951 92,-267.584"/>
<polygon fill="none" stroke="midnightblue" points="88.5001,-294.397 92,-304.397 95.5001,-294.397 88.5001,-294.397"/>
</g>
</g>
</svg>
