<?xml version="1.0" encoding="UTF-8" standalone="no"?>
<!DOCTYPE svg PUBLIC "-//W3C//DTD SVG 1.1//EN"
 "http://www.w3.org/Graphics/SVG/1.1/DTD/svg11.dtd">
<!-- Generated by graphviz version 2.38.0 (20140413.2041)
 -->
<!-- Title: memoryoracle.instance.Instance._clear_updated Pages: 1 -->
<svg width="430pt" height="66pt"
 viewBox="0.00 0.00 430.00 66.00" xmlns="http://www.w3.org/2000/svg" xmlns:xlink="http://www.w3.org/1999/xlink">
<g id="graph0" class="graph" transform="scale(1 1) rotate(0) translate(4 62)">
<title>memoryoracle.instance.Instance._clear_updated</title>
<!-- Node1 -->
<g id="node1" class="node"><title>Node1</title>
<polygon fill="#bfbfbf" stroke="black" points="0,-14 0,-44 176,-44 176,-14 0,-14"/>
<text text-anchor="start" x="8" y="-32" font-family="Helvetica,sans-Serif" font-size="10.00">memoryoracle.instance.Instance.</text>
<text text-anchor="middle" x="88" y="-21" font-family="Helvetica,sans-Serif" font-size="10.00">_clear_updated</text>
</g>
<!-- Node2 -->
<g id="node2" class="node"><title>Node2</title>
<g id="a_node2"><a xlink:href="classmemoryoracle_1_1instance_1_1Instance.html#a286e015a030541a0704994172024f034" target="_top" xlink:title="memoryoracle.instance.Instance.update">
<polygon fill="none" stroke="black" points="212,-38.5 212,-57.5 422,-57.5 422,-38.5 212,-38.5"/>
<text text-anchor="middle" x="317" y="-45.5" font-family="Helvetica,sans-Serif" font-size="10.00">memoryoracle.instance.Instance.update</text>
</a>
</g>
</g>
<!-- Node1&#45;&gt;Node2 -->
<g id="edge1" class="edge"><title>Node1&#45;&gt;Node2</title>
<path fill="none" stroke="midnightblue" d="M186.284,-37.1427C194.68,-37.8455 203.197,-38.5583 211.646,-39.2655"/>
<polygon fill="midnightblue" stroke="midnightblue" points="186.372,-33.6379 176.115,-36.2916 185.788,-40.6135 186.372,-33.6379"/>
</g>
<!-- Node3 -->
<g id="node3" class="node"><title>Node3</title>
<g id="a_node3"><a xlink:href="classmemoryoracle_1_1models_1_1Memory.html#a71d4a141abc3358afdf1a1325bfd4253" target="_top" xlink:title="memoryoracle.models.Memory.update">
<polygon fill="none" stroke="black" points="216,-0.5 216,-19.5 418,-19.5 418,-0.5 216,-0.5"/>
<text text-anchor="middle" x="317" y="-7.5" font-family="Helvetica,sans-Serif" font-size="10.00">memoryoracle.models.Memory.update</text>
</a>
</g>
</g>
<!-- Node1&#45;&gt;Node3 -->
<g id="edge2" class="edge"><title>Node1&#45;&gt;Node3</title>
<path fill="none" stroke="midnightblue" d="M186.257,-20.8596C196.059,-20.0392 206.025,-19.2049 215.856,-18.3821"/>
<polygon fill="midnightblue" stroke="midnightblue" points="185.788,-17.3865 176.115,-21.7084 186.372,-24.3621 185.788,-17.3865"/>
</g>
</g>
</svg>
