<?xml version="1.0" encoding="UTF-8" standalone="no"?>
<!DOCTYPE svg PUBLIC "-//W3C//DTD SVG 1.1//EN"
 "http://www.w3.org/Graphics/SVG/1.1/DTD/svg11.dtd">
<!-- Generated by graphviz version 2.38.0 (20140413.2041)
 -->
<!-- Title: memoryoracle.descriptions.BlackBoxDecorator.description Pages: 1 -->
<svg width="831pt" height="166pt"
 viewBox="0.00 0.00 831.00 165.50" xmlns="http://www.w3.org/2000/svg" xmlns:xlink="http://www.w3.org/1999/xlink">
<g id="graph0" class="graph" transform="scale(1 1) rotate(0) translate(4 161.5)">
<title>memoryoracle.descriptions.BlackBoxDecorator.description</title>
<!-- Node1 -->
<g id="node1" class="node"><title>Node1</title>
<polygon fill="#bfbfbf" stroke="black" points="0,-82.5 0,-112.5 163,-112.5 163,-82.5 0,-82.5"/>
<text text-anchor="start" x="8" y="-100.5" font-family="Helvetica,sans-Serif" font-size="10.00">memoryoracle.descriptions.</text>
<text text-anchor="middle" x="81.5" y="-89.5" font-family="Helvetica,sans-Serif" font-size="10.00">BlackBoxDecorator.description</text>
</g>
<!-- Node2 -->
<g id="node2" class="node"><title>Node2</title>
<g id="a_node2"><a xlink:href="classmemoryoracle_1_1instance_1_1Int.html#a38c9424341353f006771163d360594da" target="_top" xlink:title="memoryoracle.instance.Int.\l_track">
<polygon fill="none" stroke="black" points="199,-82.5 199,-112.5 347,-112.5 347,-82.5 199,-82.5"/>
<text text-anchor="start" x="207" y="-100.5" font-family="Helvetica,sans-Serif" font-size="10.00">memoryoracle.instance.Int.</text>
<text text-anchor="middle" x="273" y="-89.5" font-family="Helvetica,sans-Serif" font-size="10.00">_track</text>
</a>
</g>
</g>
<!-- Node1&#45;&gt;Node2 -->
<g id="edge1" class="edge"><title>Node1&#45;&gt;Node2</title>
<path fill="none" stroke="midnightblue" d="M173.224,-97.5C181.847,-97.5 190.514,-97.5 198.939,-97.5"/>
<polygon fill="midnightblue" stroke="midnightblue" points="173.14,-94.0001 163.14,-97.5 173.14,-101 173.14,-94.0001"/>
</g>
<!-- Node3 -->
<g id="node3" class="node"><title>Node3</title>
<g id="a_node3"><a xlink:href="classmemoryoracle_1_1instance_1_1Memory.html#a8951ac234fecbd6cd473133ae7e63662" target="_top" xlink:title="memoryoracle.instance.Memory.track">
<polygon fill="none" stroke="black" points="383,-88 383,-107 580,-107 580,-88 383,-88"/>
<text text-anchor="middle" x="481.5" y="-95" font-family="Helvetica,sans-Serif" font-size="10.00">memoryoracle.instance.Memory.track</text>
</a>
</g>
</g>
<!-- Node2&#45;&gt;Node3 -->
<g id="edge2" class="edge"><title>Node2&#45;&gt;Node3</title>
<path fill="none" stroke="midnightblue" d="M357.28,-90.8635C365.718,-90.7665 374.341,-90.7317 382.912,-90.759"/>
<polygon fill="midnightblue" stroke="midnightblue" points="357.042,-87.3665 347.095,-91.0127 357.145,-94.3658 357.042,-87.3665"/>
</g>
<!-- Node8 -->
<g id="node8" class="node"><title>Node8</title>
<g id="a_node8"><a xlink:href="classmemoryoracle_1_1models_1_1Typed.html#aa1d5d8d5b7ebe5c2876f363e7eb669db" target="_top" xlink:title="memoryoracle.models.Typed.track">
<polygon fill="none" stroke="black" points="390.5,-50 390.5,-69 572.5,-69 572.5,-50 390.5,-50"/>
<text text-anchor="middle" x="481.5" y="-57" font-family="Helvetica,sans-Serif" font-size="10.00">memoryoracle.models.Typed.track</text>
</a>
</g>
</g>
<!-- Node2&#45;&gt;Node8 -->
<g id="edge8" class="edge"><title>Node2&#45;&gt;Node8</title>
<path fill="none" stroke="midnightblue" d="M356.991,-82.2281C381.18,-77.7768 406.914,-73.0413 428.595,-69.0514"/>
<polygon fill="midnightblue" stroke="midnightblue" points="356.296,-78.7971 347.095,-84.0491 357.563,-85.6815 356.296,-78.7971"/>
</g>
<!-- Node3&#45;&gt;Node2 -->
<g id="edge4" class="edge"><title>Node3&#45;&gt;Node2</title>
<path fill="none" stroke="midnightblue" d="M372.73,-104.244C364.061,-104.222 355.434,-104.137 347.095,-103.987"/>
<polygon fill="midnightblue" stroke="midnightblue" points="372.913,-107.744 382.912,-104.241 372.911,-100.744 372.913,-107.744"/>
</g>
<!-- Node4 -->
<g id="node4" class="node"><title>Node4</title>
<g id="a_node4"><a xlink:href="classmemoryoracle_1_1instance_1_1Memory.html#aa937ea1a82dcaa2fa1c868a387d59483" target="_top" xlink:title="memoryoracle.instance.Memory.update">
<polygon fill="none" stroke="black" points="616,-138 616,-157 823,-157 823,-138 616,-138"/>
<text text-anchor="middle" x="719.5" y="-145" font-family="Helvetica,sans-Serif" font-size="10.00">memoryoracle.instance.Memory.update</text>
</a>
</g>
</g>
<!-- Node3&#45;&gt;Node4 -->
<g id="edge3" class="edge"><title>Node3&#45;&gt;Node4</title>
<path fill="none" stroke="midnightblue" d="M531.577,-109.452C556.757,-115.442 587.954,-122.647 616,-128.5 631.768,-131.79 648.961,-135.089 664.682,-137.993"/>
<polygon fill="midnightblue" stroke="midnightblue" points="532.076,-105.972 521.536,-107.051 530.448,-112.78 532.076,-105.972"/>
</g>
<!-- Node5 -->
<g id="node5" class="node"><title>Node5</title>
<g id="a_node5"><a xlink:href="classmemoryoracle_1_1models_1_1Typed.html#a494dfbe205034b874ff9e8c7039f579b" target="_top" xlink:title="memoryoracle.models.Typed.\l__init__">
<polygon fill="none" stroke="black" points="640.5,-88.5 640.5,-118.5 798.5,-118.5 798.5,-88.5 640.5,-88.5"/>
<text text-anchor="start" x="648.5" y="-106.5" font-family="Helvetica,sans-Serif" font-size="10.00">memoryoracle.models.Typed.</text>
<text text-anchor="middle" x="719.5" y="-95.5" font-family="Helvetica,sans-Serif" font-size="10.00">__init__</text>
</a>
</g>
</g>
<!-- Node3&#45;&gt;Node5 -->
<g id="edge5" class="edge"><title>Node3&#45;&gt;Node5</title>
<path fill="none" stroke="midnightblue" d="M590.584,-100.248C607.346,-100.674 624.377,-101.107 640.311,-101.512"/>
<polygon fill="midnightblue" stroke="midnightblue" points="590.28,-96.7391 580.194,-99.9837 590.102,-103.737 590.28,-96.7391"/>
</g>
<!-- Node6 -->
<g id="node6" class="node"><title>Node6</title>
<g id="a_node6"><a xlink:href="classmemoryoracle_1_1models_1_1Memory.html#a71d4a141abc3358afdf1a1325bfd4253" target="_top" xlink:title="memoryoracle.models.Memory.update">
<polygon fill="none" stroke="black" points="618.5,-50 618.5,-69 820.5,-69 820.5,-50 618.5,-50"/>
<text text-anchor="middle" x="719.5" y="-57" font-family="Helvetica,sans-Serif" font-size="10.00">memoryoracle.models.Memory.update</text>
</a>
</g>
</g>
<!-- Node3&#45;&gt;Node6 -->
<g id="edge6" class="edge"><title>Node3&#45;&gt;Node6</title>
<path fill="none" stroke="midnightblue" d="M551.649,-86.3659C585.783,-80.8697 626.54,-74.3071 659.227,-69.0439"/>
<polygon fill="midnightblue" stroke="midnightblue" points="551.065,-82.9148 541.748,-87.96 552.177,-89.8258 551.065,-82.9148"/>
</g>
<!-- Node7 -->
<g id="node7" class="node"><title>Node7</title>
<g id="a_node7"><a xlink:href="classmemoryoracle_1_1models_1_1Memory.html#aed3af349dd80317ae9cca4b4e9cb7c26" target="_top" xlink:title="memoryoracle.models.Memory.\l__init__">
<polygon fill="none" stroke="black" points="635.5,-0.5 635.5,-30.5 803.5,-30.5 803.5,-0.5 635.5,-0.5"/>
<text text-anchor="start" x="643.5" y="-18.5" font-family="Helvetica,sans-Serif" font-size="10.00">memoryoracle.models.Memory.</text>
<text text-anchor="middle" x="719.5" y="-7.5" font-family="Helvetica,sans-Serif" font-size="10.00">__init__</text>
</a>
</g>
</g>
<!-- Node3&#45;&gt;Node7 -->
<g id="edge7" class="edge"><title>Node3&#45;&gt;Node7</title>
<path fill="none" stroke="midnightblue" d="M566.732,-84.6476C571.325,-82.8556 575.782,-80.8176 580,-78.5 600.389,-67.2967 595.878,-52.1771 616,-40.5 622.733,-36.5927 630.055,-33.2937 637.586,-30.5087"/>
<polygon fill="midnightblue" stroke="midnightblue" points="565.433,-81.3936 557.143,-87.9909 567.738,-88.0033 565.433,-81.3936"/>
</g>
<!-- Node8&#45;&gt;Node5 -->
<g id="edge9" class="edge"><title>Node8&#45;&gt;Node5</title>
<path fill="none" stroke="midnightblue" d="M543.866,-70.9412C573.363,-76.4406 609.048,-83.0938 640.453,-88.9489"/>
<polygon fill="midnightblue" stroke="midnightblue" points="544.181,-67.4395 533.708,-69.0473 542.898,-74.321 544.181,-67.4395"/>
</g>
<!-- Node8&#45;&gt;Node6 -->
<g id="edge10" class="edge"><title>Node8&#45;&gt;Node6</title>
<path fill="none" stroke="midnightblue" d="M582.988,-59.5C594.742,-59.5 606.733,-59.5 618.481,-59.5"/>
<polygon fill="midnightblue" stroke="midnightblue" points="582.732,-56.0001 572.732,-59.5 582.732,-63.0001 582.732,-56.0001"/>
</g>
<!-- Node8&#45;&gt;Node7 -->
<g id="edge11" class="edge"><title>Node8&#45;&gt;Node7</title>
<path fill="none" stroke="midnightblue" d="M543.594,-48.1095C572.284,-42.7606 606.875,-36.3114 637.695,-30.5654"/>
<polygon fill="midnightblue" stroke="midnightblue" points="542.898,-44.679 533.708,-49.9527 544.181,-51.5605 542.898,-44.679"/>
</g>
</g>
</svg>
