<?xml version="1.0" encoding="UTF-8" standalone="no"?>
<!DOCTYPE svg PUBLIC "-//W3C//DTD SVG 1.1//EN"
 "http://www.w3.org/Graphics/SVG/1.1/DTD/svg11.dtd">
<!-- Generated by graphviz version 2.38.0 (20140413.2041)
 -->
<!-- Title: memoryoracle.models.Program Pages: 1 -->
<svg width="177pt" height="254pt"
 viewBox="0.00 0.00 177.00 254.00" xmlns="http://www.w3.org/2000/svg" xmlns:xlink="http://www.w3.org/1999/xlink">
<g id="graph0" class="graph" transform="scale(1 1) rotate(0) translate(4 250)">
<title>memoryoracle.models.Program</title>
<!-- Node1 -->
<g id="node1" class="node"><title>Node1</title>
<polygon fill="#bfbfbf" stroke="black" points="-1.42109e-14,-0.5 -1.42109e-14,-57.5 169,-57.5 169,-0.5 -1.42109e-14,-0.5"/>
<text text-anchor="middle" x="84.5" y="-45.5" font-family="Helvetica,sans-Serif" font-size="10.00">memoryoracle.models.Program</text>
<polyline fill="none" stroke="black" points="-1.42109e-14,-38.5 169,-38.5 "/>
<text text-anchor="middle" x="84.5" y="-26.5" font-family="Helvetica,sans-Serif" font-size="10.00"> </text>
<polyline fill="none" stroke="black" points="-1.42109e-14,-19.5 169,-19.5 "/>
<text text-anchor="middle" x="84.5" y="-7.5" font-family="Helvetica,sans-Serif" font-size="10.00"> </text>
</g>
<!-- Node2 -->
<g id="node2" class="node"><title>Node2</title>
<g id="a_node2"><a xlink:href="classmemoryoracle_1_1models_1_1Tracked.html" target="_top" xlink:title="{memoryoracle.models.Tracked\n|+ name\l|}">
<polygon fill="none" stroke="black" points="2.5,-94.5 2.5,-151.5 166.5,-151.5 166.5,-94.5 2.5,-94.5"/>
<text text-anchor="middle" x="84.5" y="-139.5" font-family="Helvetica,sans-Serif" font-size="10.00">memoryoracle.models.Tracked</text>
<polyline fill="none" stroke="black" points="2.5,-132.5 166.5,-132.5 "/>
<text text-anchor="start" x="10.5" y="-120.5" font-family="Helvetica,sans-Serif" font-size="10.00">+ name</text>
<polyline fill="none" stroke="black" points="2.5,-113.5 166.5,-113.5 "/>
<text text-anchor="middle" x="84.5" y="-101.5" font-family="Helvetica,sans-Serif" font-size="10.00"> </text>
</a>
</g>
</g>
<!-- Node2&#45;&gt;Node1 -->
<g id="edge1" class="edge"><title>Node2&#45;&gt;Node1</title>
<path fill="none" stroke="midnightblue" d="M84.5,-84.2092C84.5,-75.2929 84.5,-65.9513 84.5,-57.5836"/>
<polygon fill="none" stroke="midnightblue" points="81.0001,-84.3969 84.5,-94.397 88.0001,-84.397 81.0001,-84.3969"/>
</g>
<!-- Node3 -->
<g id="node3" class="node"><title>Node3</title>
<polygon fill="none" stroke="#bfbfbf" points="41.5,-188.5 41.5,-245.5 127.5,-245.5 127.5,-188.5 41.5,-188.5"/>
<text text-anchor="middle" x="84.5" y="-233.5" font-family="Helvetica,sans-Serif" font-size="10.00">models::Model</text>
<polyline fill="none" stroke="#bfbfbf" points="41.5,-226.5 127.5,-226.5 "/>
<text text-anchor="middle" x="84.5" y="-214.5" font-family="Helvetica,sans-Serif" font-size="10.00"> </text>
<polyline fill="none" stroke="#bfbfbf" points="41.5,-207.5 127.5,-207.5 "/>
<text text-anchor="middle" x="84.5" y="-195.5" font-family="Helvetica,sans-Serif" font-size="10.00"> </text>
</g>
<!-- Node3&#45;&gt;Node2 -->
<g id="edge2" class="edge"><title>Node3&#45;&gt;Node2</title>
<path fill="none" stroke="midnightblue" d="M84.5,-178.209C84.5,-169.293 84.5,-159.951 84.5,-151.584"/>
<polygon fill="none" stroke="midnightblue" points="81.0001,-178.397 84.5,-188.397 88.0001,-178.397 81.0001,-178.397"/>
</g>
</g>
</svg>
