<?xml version="1.0" encoding="UTF-8" standalone="no"?>
<!DOCTYPE svg PUBLIC "-//W3C//DTD SVG 1.1//EN"
 "http://www.w3.org/Graphics/SVG/1.1/DTD/svg11.dtd">
<!-- Generated by graphviz version 2.38.0 (20140413.2041)
 -->
<!-- Title: memoryoracle.symbol.Namespace Pages: 1 -->
<svg width="193pt" height="475pt"
 viewBox="0.00 0.00 193.00 475.00" xmlns="http://www.w3.org/2000/svg" xmlns:xlink="http://www.w3.org/1999/xlink">
<g id="graph0" class="graph" transform="scale(1 1) rotate(0) translate(4 471)">
<title>memoryoracle.symbol.Namespace</title>
<!-- Node1 -->
<g id="node1" class="node"><title>Node1</title>
<polygon fill="#bfbfbf" stroke="black" points="-1.42109e-14,-0.5 -1.42109e-14,-57.5 185,-57.5 185,-0.5 -1.42109e-14,-0.5"/>
<text text-anchor="middle" x="92.5" y="-45.5" font-family="Helvetica,sans-Serif" font-size="10.00">memoryoracle.symbol.Namespace</text>
<polyline fill="none" stroke="black" points="-1.42109e-14,-38.5 185,-38.5 "/>
<text text-anchor="middle" x="92.5" y="-26.5" font-family="Helvetica,sans-Serif" font-size="10.00"> </text>
<polyline fill="none" stroke="black" points="-1.42109e-14,-19.5 185,-19.5 "/>
<text text-anchor="middle" x="92.5" y="-7.5" font-family="Helvetica,sans-Serif" font-size="10.00"> </text>
</g>
<!-- Node2 -->
<g id="node2" class="node"><title>Node2</title>
<g id="a_node2"><a xlink:href="classmemoryoracle_1_1symbol_1_1Symbol.html" target="_top" xlink:title="{memoryoracle.symbol.Symbol\n||}">
<polygon fill="none" stroke="black" points="11,-94.5 11,-151.5 174,-151.5 174,-94.5 11,-94.5"/>
<text text-anchor="middle" x="92.5" y="-139.5" font-family="Helvetica,sans-Serif" font-size="10.00">memoryoracle.symbol.Symbol</text>
<polyline fill="none" stroke="black" points="11,-132.5 174,-132.5 "/>
<text text-anchor="middle" x="92.5" y="-120.5" font-family="Helvetica,sans-Serif" font-size="10.00"> </text>
<polyline fill="none" stroke="black" points="11,-113.5 174,-113.5 "/>
<text text-anchor="middle" x="92.5" y="-101.5" font-family="Helvetica,sans-Serif" font-size="10.00"> </text>
</a>
</g>
</g>
<!-- Node2&#45;&gt;Node1 -->
<g id="edge1" class="edge"><title>Node2&#45;&gt;Node1</title>
<path fill="none" stroke="midnightblue" d="M92.5,-84.2092C92.5,-75.2929 92.5,-65.9513 92.5,-57.5836"/>
<polygon fill="none" stroke="midnightblue" points="89.0001,-84.3969 92.5,-94.397 96.0001,-84.397 89.0001,-84.3969"/>
</g>
<!-- Node3 -->
<g id="node3" class="node"><title>Node3</title>
<g id="a_node3"><a xlink:href="classmemoryoracle_1_1typed_1_1Typed.html" target="_top" xlink:title="{memoryoracle.typed.Typed\n||+ type_code()\l+ gdb_type()\l+ object()\l}">
<polygon fill="none" stroke="black" points="19.5,-188.5 19.5,-267.5 165.5,-267.5 165.5,-188.5 19.5,-188.5"/>
<text text-anchor="middle" x="92.5" y="-255.5" font-family="Helvetica,sans-Serif" font-size="10.00">memoryoracle.typed.Typed</text>
<polyline fill="none" stroke="black" points="19.5,-248.5 165.5,-248.5 "/>
<text text-anchor="middle" x="92.5" y="-236.5" font-family="Helvetica,sans-Serif" font-size="10.00"> </text>
<polyline fill="none" stroke="black" points="19.5,-229.5 165.5,-229.5 "/>
<text text-anchor="start" x="27.5" y="-217.5" font-family="Helvetica,sans-Serif" font-size="10.00">+ type_code()</text>
<text text-anchor="start" x="27.5" y="-206.5" font-family="Helvetica,sans-Serif" font-size="10.00">+ gdb_type()</text>
<text text-anchor="start" x="27.5" y="-195.5" font-family="Helvetica,sans-Serif" font-size="10.00">+ object()</text>
</a>
</g>
</g>
<!-- Node3&#45;&gt;Node2 -->
<g id="edge2" class="edge"><title>Node3&#45;&gt;Node2</title>
<path fill="none" stroke="midnightblue" d="M92.5,-178.163C92.5,-169.04 92.5,-159.806 92.5,-151.61"/>
<polygon fill="none" stroke="midnightblue" points="89.0001,-178.354 92.5,-188.354 96.0001,-178.354 89.0001,-178.354"/>
</g>
<!-- Node4 -->
<g id="node4" class="node"><title>Node4</title>
<g id="a_node4"><a xlink:href="classmemoryoracle_1_1tracked_1_1Tracked.html" target="_top" xlink:title="{memoryoracle.tracked.Tracked\n|+ meta\l|+ track()\l+ description()\l}">
<polygon fill="none" stroke="black" points="10.5,-304.5 10.5,-372.5 174.5,-372.5 174.5,-304.5 10.5,-304.5"/>
<text text-anchor="middle" x="92.5" y="-360.5" font-family="Helvetica,sans-Serif" font-size="10.00">memoryoracle.tracked.Tracked</text>
<polyline fill="none" stroke="black" points="10.5,-353.5 174.5,-353.5 "/>
<text text-anchor="start" x="18.5" y="-341.5" font-family="Helvetica,sans-Serif" font-size="10.00">+ meta</text>
<polyline fill="none" stroke="black" points="10.5,-334.5 174.5,-334.5 "/>
<text text-anchor="start" x="18.5" y="-322.5" font-family="Helvetica,sans-Serif" font-size="10.00">+ track()</text>
<text text-anchor="start" x="18.5" y="-311.5" font-family="Helvetica,sans-Serif" font-size="10.00">+ description()</text>
</a>
</g>
</g>
<!-- Node4&#45;&gt;Node3 -->
<g id="edge3" class="edge"><title>Node4&#45;&gt;Node3</title>
<path fill="none" stroke="midnightblue" d="M92.5,-294.274C92.5,-285.476 92.5,-276.275 92.5,-267.649"/>
<polygon fill="none" stroke="midnightblue" points="89.0001,-294.357 92.5,-304.357 96.0001,-294.357 89.0001,-294.357"/>
</g>
<!-- Node5 -->
<g id="node5" class="node"><title>Node5</title>
<polygon fill="none" stroke="#bfbfbf" points="59,-409.5 59,-466.5 126,-466.5 126,-409.5 59,-409.5"/>
<text text-anchor="middle" x="92.5" y="-454.5" font-family="Helvetica,sans-Serif" font-size="10.00">Document</text>
<polyline fill="none" stroke="#bfbfbf" points="59,-447.5 126,-447.5 "/>
<text text-anchor="middle" x="92.5" y="-435.5" font-family="Helvetica,sans-Serif" font-size="10.00"> </text>
<polyline fill="none" stroke="#bfbfbf" points="59,-428.5 126,-428.5 "/>
<text text-anchor="middle" x="92.5" y="-416.5" font-family="Helvetica,sans-Serif" font-size="10.00"> </text>
</g>
<!-- Node5&#45;&gt;Node4 -->
<g id="edge4" class="edge"><title>Node5&#45;&gt;Node4</title>
<path fill="none" stroke="midnightblue" d="M92.5,-399.063C92.5,-390.393 92.5,-381.243 92.5,-372.786"/>
<polygon fill="none" stroke="midnightblue" points="89.0001,-399.321 92.5,-409.321 96.0001,-399.321 89.0001,-399.321"/>
</g>
</g>
</svg>
