<?xml version="1.0" encoding="UTF-8" standalone="no"?>
<!DOCTYPE svg PUBLIC "-//W3C//DTD SVG 1.1//EN"
 "http://www.w3.org/Graphics/SVG/1.1/DTD/svg11.dtd">
<!-- Generated by graphviz version 2.38.0 (20140413.2041)
 -->
<!-- Title: memoryoracle.templatable.Structure Pages: 1 -->
<svg width="179pt" height="475pt"
 viewBox="0.00 0.00 179.00 475.00" xmlns="http://www.w3.org/2000/svg" xmlns:xlink="http://www.w3.org/1999/xlink">
<g id="graph0" class="graph" transform="scale(1 1) rotate(0) translate(4 471)">
<title>memoryoracle.templatable.Structure</title>
<!-- Node1 -->
<g id="node1" class="node"><title>Node1</title>
<polygon fill="#bfbfbf" stroke="black" points="10.5,-105.5 10.5,-173.5 160.5,-173.5 160.5,-105.5 10.5,-105.5"/>
<text text-anchor="start" x="18.5" y="-161.5" font-family="Helvetica,sans-Serif" font-size="10.00">memoryoracle.templatable.</text>
<text text-anchor="middle" x="85.5" y="-150.5" font-family="Helvetica,sans-Serif" font-size="10.00">Structure</text>
<polyline fill="none" stroke="black" points="10.5,-143.5 160.5,-143.5 "/>
<text text-anchor="middle" x="85.5" y="-131.5" font-family="Helvetica,sans-Serif" font-size="10.00"> </text>
<polyline fill="none" stroke="black" points="10.5,-124.5 160.5,-124.5 "/>
<text text-anchor="middle" x="85.5" y="-112.5" font-family="Helvetica,sans-Serif" font-size="10.00"> </text>
</g>
<!-- Node5 -->
<g id="node5" class="node"><title>Node5</title>
<g id="a_node5"><a xlink:href="classmemoryoracle_1_1templatable_1_1StronglyTypedEnum.html" target="_top" xlink:title="{memoryoracle.templatable.\lStronglyTypedEnum\n||}">
<polygon fill="none" stroke="black" points="10.5,-0.5 10.5,-68.5 160.5,-68.5 160.5,-0.5 10.5,-0.5"/>
<text text-anchor="start" x="18.5" y="-56.5" font-family="Helvetica,sans-Serif" font-size="10.00">memoryoracle.templatable.</text>
<text text-anchor="middle" x="85.5" y="-45.5" font-family="Helvetica,sans-Serif" font-size="10.00">StronglyTypedEnum</text>
<polyline fill="none" stroke="black" points="10.5,-38.5 160.5,-38.5 "/>
<text text-anchor="middle" x="85.5" y="-26.5" font-family="Helvetica,sans-Serif" font-size="10.00"> </text>
<polyline fill="none" stroke="black" points="10.5,-19.5 160.5,-19.5 "/>
<text text-anchor="middle" x="85.5" y="-7.5" font-family="Helvetica,sans-Serif" font-size="10.00"> </text>
</a>
</g>
</g>
<!-- Node1&#45;&gt;Node5 -->
<g id="edge4" class="edge"><title>Node1&#45;&gt;Node5</title>
<path fill="none" stroke="midnightblue" d="M85.5,-95.1362C85.5,-86.256 85.5,-77.0447 85.5,-68.5947"/>
<polygon fill="none" stroke="midnightblue" points="82.0001,-95.3432 85.5,-105.343 89.0001,-95.3432 82.0001,-95.3432"/>
</g>
<!-- Node2 -->
<g id="node2" class="node"><title>Node2</title>
<g id="a_node2"><a xlink:href="classmemoryoracle_1_1templatable_1_1Type.html" target="_top" xlink:title="{memoryoracle.templatable.Type\n||}">
<polygon fill="none" stroke="black" points="0,-210.5 0,-267.5 171,-267.5 171,-210.5 0,-210.5"/>
<text text-anchor="middle" x="85.5" y="-255.5" font-family="Helvetica,sans-Serif" font-size="10.00">memoryoracle.templatable.Type</text>
<polyline fill="none" stroke="black" points="0,-248.5 171,-248.5 "/>
<text text-anchor="middle" x="85.5" y="-236.5" font-family="Helvetica,sans-Serif" font-size="10.00"> </text>
<polyline fill="none" stroke="black" points="0,-229.5 171,-229.5 "/>
<text text-anchor="middle" x="85.5" y="-217.5" font-family="Helvetica,sans-Serif" font-size="10.00"> </text>
</a>
</g>
</g>
<!-- Node2&#45;&gt;Node1 -->
<g id="edge1" class="edge"><title>Node2&#45;&gt;Node1</title>
<path fill="none" stroke="midnightblue" d="M85.5,-200.063C85.5,-191.393 85.5,-182.243 85.5,-173.786"/>
<polygon fill="none" stroke="midnightblue" points="82.0001,-200.321 85.5,-210.321 89.0001,-200.321 82.0001,-200.321"/>
</g>
<!-- Node3 -->
<g id="node3" class="node"><title>Node3</title>
<g id="a_node3"><a xlink:href="classmemoryoracle_1_1templatable_1_1Templatable.html" target="_top" xlink:title="{memoryoracle.templatable.\lTemplatable\n||}">
<polygon fill="none" stroke="black" points="10.5,-304.5 10.5,-372.5 160.5,-372.5 160.5,-304.5 10.5,-304.5"/>
<text text-anchor="start" x="18.5" y="-360.5" font-family="Helvetica,sans-Serif" font-size="10.00">memoryoracle.templatable.</text>
<text text-anchor="middle" x="85.5" y="-349.5" font-family="Helvetica,sans-Serif" font-size="10.00">Templatable</text>
<polyline fill="none" stroke="black" points="10.5,-342.5 160.5,-342.5 "/>
<text text-anchor="middle" x="85.5" y="-330.5" font-family="Helvetica,sans-Serif" font-size="10.00"> </text>
<polyline fill="none" stroke="black" points="10.5,-323.5 160.5,-323.5 "/>
<text text-anchor="middle" x="85.5" y="-311.5" font-family="Helvetica,sans-Serif" font-size="10.00"> </text>
</a>
</g>
</g>
<!-- Node3&#45;&gt;Node2 -->
<g id="edge2" class="edge"><title>Node3&#45;&gt;Node2</title>
<path fill="none" stroke="midnightblue" d="M85.5,-294.454C85.5,-285.404 85.5,-276.088 85.5,-267.777"/>
<polygon fill="none" stroke="midnightblue" points="82.0001,-294.491 85.5,-304.491 89.0001,-294.491 82.0001,-294.491"/>
</g>
<!-- Node4 -->
<g id="node4" class="node"><title>Node4</title>
<polygon fill="none" stroke="#bfbfbf" points="38,-409.5 38,-466.5 133,-466.5 133,-409.5 38,-409.5"/>
<text text-anchor="middle" x="85.5" y="-454.5" font-family="Helvetica,sans-Serif" font-size="10.00">tracked::Symbol</text>
<polyline fill="none" stroke="#bfbfbf" points="38,-447.5 133,-447.5 "/>
<text text-anchor="middle" x="85.5" y="-435.5" font-family="Helvetica,sans-Serif" font-size="10.00"> </text>
<polyline fill="none" stroke="#bfbfbf" points="38,-428.5 133,-428.5 "/>
<text text-anchor="middle" x="85.5" y="-416.5" font-family="Helvetica,sans-Serif" font-size="10.00"> </text>
</g>
<!-- Node4&#45;&gt;Node3 -->
<g id="edge3" class="edge"><title>Node4&#45;&gt;Node3</title>
<path fill="none" stroke="midnightblue" d="M85.5,-399.063C85.5,-390.393 85.5,-381.243 85.5,-372.786"/>
<polygon fill="none" stroke="midnightblue" points="82.0001,-399.321 85.5,-409.321 89.0001,-399.321 82.0001,-399.321"/>
</g>
</g>
</svg>
