<?xml version="1.0" encoding="UTF-8" standalone="no"?>
<!DOCTYPE svg PUBLIC "-//W3C//DTD SVG 1.1//EN"
 "http://www.w3.org/Graphics/SVG/1.1/DTD/svg11.dtd">
<!-- Generated by graphviz version 2.38.0 (20140413.2041)
 -->
<!-- Title: memoryoracle.instance.MemoryWatcher Pages: 1 -->
<svg width="180pt" height="215pt"
 viewBox="0.00 0.00 180.00 215.00" xmlns="http://www.w3.org/2000/svg" xmlns:xlink="http://www.w3.org/1999/xlink">
<g id="graph0" class="graph" transform="scale(1 1) rotate(0) translate(4 211)">
<title>memoryoracle.instance.MemoryWatcher</title>
<!-- Node1 -->
<g id="node1" class="node"><title>Node1</title>
<polygon fill="#bfbfbf" stroke="black" points="0,-0.5 0,-112.5 172,-112.5 172,-0.5 0,-0.5"/>
<text text-anchor="start" x="8" y="-100.5" font-family="Helvetica,sans-Serif" font-size="10.00">memoryoracle.instance.Memory</text>
<text text-anchor="middle" x="86" y="-89.5" font-family="Helvetica,sans-Serif" font-size="10.00">Watcher</text>
<polyline fill="none" stroke="black" points="0,-82.5 172,-82.5 "/>
<text text-anchor="start" x="8" y="-70.5" font-family="Helvetica,sans-Serif" font-size="10.00">+ silent</text>
<text text-anchor="start" x="8" y="-59.5" font-family="Helvetica,sans-Serif" font-size="10.00">&#45; _memory</text>
<text text-anchor="start" x="8" y="-48.5" font-family="Helvetica,sans-Serif" font-size="10.00">&#45; _type_name</text>
<polyline fill="none" stroke="black" points="0,-41.5 172,-41.5 "/>
<text text-anchor="start" x="8" y="-29.5" font-family="Helvetica,sans-Serif" font-size="10.00">+ __init__()</text>
<text text-anchor="start" x="8" y="-18.5" font-family="Helvetica,sans-Serif" font-size="10.00">+ stop()</text>
<text text-anchor="start" x="8" y="-7.5" font-family="Helvetica,sans-Serif" font-size="10.00">+ memory()</text>
</g>
<!-- Node2 -->
<g id="node2" class="node"><title>Node2</title>
<polygon fill="none" stroke="#bfbfbf" points="52,-149.5 52,-206.5 120,-206.5 120,-149.5 52,-149.5"/>
<text text-anchor="middle" x="86" y="-194.5" font-family="Helvetica,sans-Serif" font-size="10.00">Breakpoint</text>
<polyline fill="none" stroke="#bfbfbf" points="52,-187.5 120,-187.5 "/>
<text text-anchor="middle" x="86" y="-175.5" font-family="Helvetica,sans-Serif" font-size="10.00"> </text>
<polyline fill="none" stroke="#bfbfbf" points="52,-168.5 120,-168.5 "/>
<text text-anchor="middle" x="86" y="-156.5" font-family="Helvetica,sans-Serif" font-size="10.00"> </text>
</g>
<!-- Node2&#45;&gt;Node1 -->
<g id="edge1" class="edge"><title>Node2&#45;&gt;Node1</title>
<path fill="none" stroke="midnightblue" d="M86,-139.108C86,-130.748 86,-121.725 86,-112.834"/>
<polygon fill="none" stroke="midnightblue" points="82.5001,-139.284 86,-149.284 89.5001,-139.284 82.5001,-139.284"/>
</g>
</g>
</svg>
