<?xml version="1.0" encoding="UTF-8" standalone="no"?>
<!DOCTYPE svg PUBLIC "-//W3C//DTD SVG 1.1//EN"
 "http://www.w3.org/Graphics/SVG/1.1/DTD/svg11.dtd">
<!-- Generated by graphviz version 2.38.0 (20140413.2041)
 -->
<!-- Title: memoryoracle.instance.Instance.name Pages: 1 -->
<svg width="1348pt" height="348pt"
 viewBox="0.00 0.00 1348.00 348.01" xmlns="http://www.w3.org/2000/svg" xmlns:xlink="http://www.w3.org/1999/xlink">
<g id="graph0" class="graph" transform="scale(1 1) rotate(0) translate(4 344.012)">
<title>memoryoracle.instance.Instance.name</title>
<!-- Node1 -->
<g id="node1" class="node"><title>Node1</title>
<polygon fill="#bfbfbf" stroke="black" points="0,-156.876 0,-175.876 204,-175.876 204,-156.876 0,-156.876"/>
<text text-anchor="middle" x="102" y="-163.876" font-family="Helvetica,sans-Serif" font-size="10.00">memoryoracle.instance.Instance.name</text>
</g>
<!-- Node2 -->
<g id="node2" class="node"><title>Node2</title>
<g id="a_node2"><a xlink:href="classmemoryoracle_1_1instance_1_1Instance.html#a254a208a64e4c7f32c514e2fb64edbbe" target="_top" xlink:title="memoryoracle.instance.Instance.\l_basic_track">
<polygon fill="none" stroke="black" points="681,-230.376 681,-260.376 857,-260.376 857,-230.376 681,-230.376"/>
<text text-anchor="start" x="689" y="-248.376" font-family="Helvetica,sans-Serif" font-size="10.00">memoryoracle.instance.Instance.</text>
<text text-anchor="middle" x="769" y="-237.376" font-family="Helvetica,sans-Serif" font-size="10.00">_basic_track</text>
</a>
</g>
</g>
<!-- Node1&#45;&gt;Node2 -->
<g id="edge1" class="edge"><title>Node1&#45;&gt;Node2</title>
<path fill="none" stroke="midnightblue" d="M142.828,-178.907C169.988,-187.084 206.895,-197.482 240,-204.376 339.747,-225.147 365.481,-227.729 467,-236.376 538.887,-242.499 620.737,-244.636 680.921,-245.305"/>
<polygon fill="midnightblue" stroke="midnightblue" points="143.511,-175.456 132.925,-175.893 141.473,-182.153 143.511,-175.456"/>
</g>
<!-- Node8 -->
<g id="node8" class="node"><title>Node8</title>
<g id="a_node8"><a xlink:href="classmemoryoracle_1_1instance_1_1StructureInstance.html#a972b88ba2dcdc0e5d362d92e740f446d" target="_top" xlink:title="memoryoracle.instance.Structure\lInstance._track">
<polygon fill="none" stroke="black" points="680,-17.3759 680,-47.3759 858,-47.3759 858,-17.3759 680,-17.3759"/>
<text text-anchor="start" x="688" y="-35.3759" font-family="Helvetica,sans-Serif" font-size="10.00">memoryoracle.instance.Structure</text>
<text text-anchor="middle" x="769" y="-24.3759" font-family="Helvetica,sans-Serif" font-size="10.00">Instance._track</text>
</a>
</g>
</g>
<!-- Node1&#45;&gt;Node8 -->
<g id="edge9" class="edge"><title>Node1&#45;&gt;Node8</title>
<path fill="none" stroke="midnightblue" d="M115.698,-148.387C137.334,-119.465 184.439,-63.621 240,-41.3759 391.074,19.1095 586.485,0.0454278 692.122,-17.3336"/>
<polygon fill="midnightblue" stroke="midnightblue" points="112.659,-146.614 109.59,-156.755 118.313,-150.741 112.659,-146.614"/>
</g>
<!-- Node9 -->
<g id="node9" class="node"><title>Node9</title>
<g id="a_node9"><a xlink:href="classmemoryoracle_1_1instance_1_1Array.html#a1d8c3993d8a52bfbec8240d6f79b3ce1" target="_top" xlink:title="memoryoracle.instance.Array.\l_track">
<polygon fill="none" stroke="black" points="689,-279.376 689,-309.376 849,-309.376 849,-279.376 689,-279.376"/>
<text text-anchor="start" x="697" y="-297.376" font-family="Helvetica,sans-Serif" font-size="10.00">memoryoracle.instance.Array.</text>
<text text-anchor="middle" x="769" y="-286.376" font-family="Helvetica,sans-Serif" font-size="10.00">_track</text>
</a>
</g>
</g>
<!-- Node1&#45;&gt;Node9 -->
<g id="edge12" class="edge"><title>Node1&#45;&gt;Node9</title>
<path fill="none" stroke="midnightblue" d="M126.93,-181.216C153.502,-196.932 198.178,-221.126 240,-233.376 394.751,-278.703 584.261,-290.572 688.967,-293.54"/>
<polygon fill="midnightblue" stroke="midnightblue" points="128.695,-178.194 118.32,-176.044 125.09,-184.194 128.695,-178.194"/>
</g>
<!-- Node10 -->
<g id="node10" class="node"><title>Node10</title>
<g id="a_node10"><a xlink:href="classmemoryoracle_1_1instance_1_1Primitive.html#a68562bda9732e33fe32188597e2f4b91" target="_top" xlink:title="memoryoracle.instance.Primitive.\l_track">
<polygon fill="none" stroke="black" points="467,-197.376 467,-227.376 644,-227.376 644,-197.376 467,-197.376"/>
<text text-anchor="start" x="475" y="-215.376" font-family="Helvetica,sans-Serif" font-size="10.00">memoryoracle.instance.Primitive.</text>
<text text-anchor="middle" x="555.5" y="-204.376" font-family="Helvetica,sans-Serif" font-size="10.00">_track</text>
</a>
</g>
</g>
<!-- Node1&#45;&gt;Node10 -->
<g id="edge15" class="edge"><title>Node1&#45;&gt;Node10</title>
<path fill="none" stroke="midnightblue" d="M206.695,-176.941C285.346,-184.954 392.261,-195.847 466.71,-203.432"/>
<polygon fill="midnightblue" stroke="midnightblue" points="206.581,-173.411 196.277,-175.879 205.871,-180.375 206.581,-173.411"/>
</g>
<!-- Node11 -->
<g id="node11" class="node"><title>Node11</title>
<g id="a_node11"><a xlink:href="classmemoryoracle_1_1instance_1_1Pointer.html#a2cc9e298adaad8bed089d90186fcde8a" target="_top" xlink:title="memoryoracle.instance.Pointer.\l_track">
<polygon fill="none" stroke="black" points="471,-148.376 471,-178.376 640,-178.376 640,-148.376 471,-148.376"/>
<text text-anchor="start" x="479" y="-166.376" font-family="Helvetica,sans-Serif" font-size="10.00">memoryoracle.instance.Pointer.</text>
<text text-anchor="middle" x="555.5" y="-155.376" font-family="Helvetica,sans-Serif" font-size="10.00">_track</text>
</a>
</g>
</g>
<!-- Node1&#45;&gt;Node11 -->
<g id="edge18" class="edge"><title>Node1&#45;&gt;Node11</title>
<path fill="none" stroke="midnightblue" d="M214.078,-165.638C293.415,-165.111 398.478,-164.413 470.792,-163.932"/>
<polygon fill="midnightblue" stroke="midnightblue" points="214.021,-162.138 204.044,-165.704 214.067,-169.138 214.021,-162.138"/>
</g>
<!-- Node12 -->
<g id="node12" class="node"><title>Node12</title>
<g id="a_node12"><a xlink:href="classmemoryoracle_1_1instance_1_1Int.html#a38c9424341353f006771163d360594da" target="_top" xlink:title="memoryoracle.instance.Int.\l_track">
<polygon fill="none" stroke="black" points="695,-66.3759 695,-96.3759 843,-96.3759 843,-66.3759 695,-66.3759"/>
<text text-anchor="start" x="703" y="-84.3759" font-family="Helvetica,sans-Serif" font-size="10.00">memoryoracle.instance.Int.</text>
<text text-anchor="middle" x="769" y="-73.3759" font-family="Helvetica,sans-Serif" font-size="10.00">_track</text>
</a>
</g>
</g>
<!-- Node1&#45;&gt;Node12 -->
<g id="edge21" class="edge"><title>Node1&#45;&gt;Node12</title>
<path fill="none" stroke="midnightblue" d="M127.532,-151.53C154.296,-135.936 198.834,-111.723 240,-97.3759 410.696,-37.8834 464.588,-28.2892 644,-50.3759 669.328,-53.4938 696.923,-60.0662 719.637,-66.3603"/>
<polygon fill="midnightblue" stroke="midnightblue" points="125.676,-148.561 118.841,-156.656 129.232,-154.591 125.676,-148.561"/>
</g>
<!-- Node13 -->
<g id="node13" class="node"><title>Node13</title>
<g id="a_node13"><a xlink:href="classmemoryoracle_1_1instance_1_1Primitive.html#abc513cbf3d0938c0db133e9af0a6f5ea" target="_top" xlink:title="memoryoracle.instance.Primitive.val\l_string">
<polygon fill="none" stroke="black" points="240,-107.376 240,-137.376 431,-137.376 431,-107.376 240,-107.376"/>
<text text-anchor="start" x="248" y="-125.376" font-family="Helvetica,sans-Serif" font-size="10.00">memoryoracle.instance.Primitive.val</text>
<text text-anchor="middle" x="335.5" y="-114.376" font-family="Helvetica,sans-Serif" font-size="10.00">_string</text>
</a>
</g>
</g>
<!-- Node1&#45;&gt;Node13 -->
<g id="edge24" class="edge"><title>Node1&#45;&gt;Node13</title>
<path fill="none" stroke="midnightblue" d="M163.299,-154.915C191.369,-149.58 225.135,-143.162 255.236,-137.441"/>
<polygon fill="midnightblue" stroke="midnightblue" points="162.403,-151.523 153.232,-156.829 163.71,-158.4 162.403,-151.523"/>
</g>
<!-- Node3 -->
<g id="node3" class="node"><title>Node3</title>
<g id="a_node3"><a xlink:href="classmemoryoracle_1_1instance_1_1Instance.html#a86649e01ee4f562debdba5421a334f78" target="_top" xlink:title="memoryoracle.instance.Instance.track">
<polygon fill="none" stroke="black" points="894,-194.876 894,-213.876 1094,-213.876 1094,-194.876 894,-194.876"/>
<text text-anchor="middle" x="994" y="-201.876" font-family="Helvetica,sans-Serif" font-size="10.00">memoryoracle.instance.Instance.track</text>
</a>
</g>
</g>
<!-- Node2&#45;&gt;Node3 -->
<g id="edge2" class="edge"><title>Node2&#45;&gt;Node3</title>
<path fill="none" stroke="midnightblue" d="M861.657,-228.524C888.724,-223.548 917.402,-218.275 941.033,-213.93"/>
<polygon fill="midnightblue" stroke="midnightblue" points="860.973,-225.091 851.771,-230.342 862.239,-231.976 860.973,-225.091"/>
</g>
<!-- Node7 -->
<g id="node7" class="node"><title>Node7</title>
<g id="a_node7"><a xlink:href="classmemoryoracle_1_1models_1_1Memory.html#a27f8d94aeb19f8101c29a673c7bae4a1" target="_top" xlink:title="memoryoracle.models.Memory.track">
<polygon fill="none" stroke="black" points="898,-153.876 898,-172.876 1090,-172.876 1090,-153.876 898,-153.876"/>
<text text-anchor="middle" x="994" y="-160.876" font-family="Helvetica,sans-Serif" font-size="10.00">memoryoracle.models.Memory.track</text>
</a>
</g>
</g>
<!-- Node2&#45;&gt;Node7 -->
<g id="edge6" class="edge"><title>Node2&#45;&gt;Node7</title>
<path fill="none" stroke="midnightblue" d="M833.819,-226.745C842.163,-223.412 850.433,-219.625 858,-215.376 876.16,-205.179 875.307,-194.561 894,-185.376 904.825,-180.057 916.944,-176.01 928.892,-172.934"/>
<polygon fill="midnightblue" stroke="midnightblue" points="832.511,-223.498 824.4,-230.314 834.991,-230.043 832.511,-223.498"/>
</g>
<!-- Node4 -->
<g id="node4" class="node"><title>Node4</title>
<g id="a_node4"><a xlink:href="classmemoryoracle_1_1instance_1_1Instance.html#a286e015a030541a0704994172024f034" target="_top" xlink:title="memoryoracle.instance.Instance.update">
<polygon fill="none" stroke="black" points="1130,-232.876 1130,-251.876 1340,-251.876 1340,-232.876 1130,-232.876"/>
<text text-anchor="middle" x="1235" y="-239.876" font-family="Helvetica,sans-Serif" font-size="10.00">memoryoracle.instance.Instance.update</text>
</a>
</g>
</g>
<!-- Node3&#45;&gt;Node4 -->
<g id="edge3" class="edge"><title>Node3&#45;&gt;Node4</title>
<path fill="none" stroke="midnightblue" d="M1065.03,-215.51C1099.6,-221.006 1140.87,-227.569 1173.97,-232.832"/>
<polygon fill="midnightblue" stroke="midnightblue" points="1065.43,-212.03 1055,-213.916 1064.33,-218.943 1065.43,-212.03"/>
</g>
<!-- Node5 -->
<g id="node5" class="node"><title>Node5</title>
<g id="a_node5"><a xlink:href="classmemoryoracle_1_1models_1_1Memory.html#a71d4a141abc3358afdf1a1325bfd4253" target="_top" xlink:title="memoryoracle.models.Memory.update">
<polygon fill="none" stroke="black" points="1134,-194.876 1134,-213.876 1336,-213.876 1336,-194.876 1134,-194.876"/>
<text text-anchor="middle" x="1235" y="-201.876" font-family="Helvetica,sans-Serif" font-size="10.00">memoryoracle.models.Memory.update</text>
</a>
</g>
</g>
<!-- Node3&#45;&gt;Node5 -->
<g id="edge4" class="edge"><title>Node3&#45;&gt;Node5</title>
<path fill="none" stroke="midnightblue" d="M1104.45,-204.376C1114.26,-204.376 1124.15,-204.376 1133.87,-204.376"/>
<polygon fill="midnightblue" stroke="midnightblue" points="1104.28,-200.876 1094.28,-204.376 1104.28,-207.876 1104.28,-200.876"/>
</g>
<!-- Node6 -->
<g id="node6" class="node"><title>Node6</title>
<g id="a_node6"><a xlink:href="classmemoryoracle_1_1models_1_1Memory.html#aed3af349dd80317ae9cca4b4e9cb7c26" target="_top" xlink:title="memoryoracle.models.Memory.\l__init__">
<polygon fill="none" stroke="black" points="1151,-145.376 1151,-175.376 1319,-175.376 1319,-145.376 1151,-145.376"/>
<text text-anchor="start" x="1159" y="-163.376" font-family="Helvetica,sans-Serif" font-size="10.00">memoryoracle.models.Memory.</text>
<text text-anchor="middle" x="1235" y="-152.376" font-family="Helvetica,sans-Serif" font-size="10.00">__init__</text>
</a>
</g>
</g>
<!-- Node3&#45;&gt;Node6 -->
<g id="edge5" class="edge"><title>Node3&#45;&gt;Node6</title>
<path fill="none" stroke="midnightblue" d="M1056.87,-192.985C1085.93,-187.636 1120.96,-181.187 1152.17,-175.441"/>
<polygon fill="midnightblue" stroke="midnightblue" points="1056.06,-189.576 1046.86,-194.829 1057.33,-196.46 1056.06,-189.576"/>
</g>
<!-- Node7&#45;&gt;Node5 -->
<g id="edge7" class="edge"><title>Node7&#45;&gt;Node5</title>
<path fill="none" stroke="midnightblue" d="M1060.61,-174.632C1097.59,-180.974 1143.27,-188.811 1178.46,-194.847"/>
<polygon fill="midnightblue" stroke="midnightblue" points="1060.88,-171.126 1050.43,-172.885 1059.7,-178.026 1060.88,-171.126"/>
</g>
<!-- Node7&#45;&gt;Node6 -->
<g id="edge8" class="edge"><title>Node7&#45;&gt;Node6</title>
<path fill="none" stroke="midnightblue" d="M1100.56,-162.051C1117.37,-161.84 1134.56,-161.624 1150.76,-161.421"/>
<polygon fill="midnightblue" stroke="midnightblue" points="1100.1,-158.556 1090.15,-162.182 1100.19,-165.556 1100.1,-158.556"/>
</g>
<!-- Node8&#45;&gt;Node3 -->
<g id="edge10" class="edge"><title>Node8&#45;&gt;Node3</title>
<path fill="none" stroke="midnightblue" d="M854.601,-53.2809C855.774,-54.2667 856.909,-55.2976 858,-56.3759 899.43,-97.3096 851.608,-142.439 894,-182.376 899.511,-187.567 905.963,-191.635 912.886,-194.811"/>
<polygon fill="midnightblue" stroke="midnightblue" points="856.526,-50.3551 846.349,-47.4095 852.468,-56.0587 856.526,-50.3551"/>
</g>
<!-- Node8&#45;&gt;Node7 -->
<g id="edge11" class="edge"><title>Node8&#45;&gt;Node7</title>
<path fill="none" stroke="midnightblue" d="M846.366,-51.1028C850.361,-52.7313 854.264,-54.4864 858,-56.3759 911.108,-83.2349 963.225,-132.993 983.801,-153.819"/>
<polygon fill="midnightblue" stroke="midnightblue" points="847.502,-47.7906 836.91,-47.5295 845.027,-54.3386 847.502,-47.7906"/>
</g>
<!-- Node9&#45;&gt;Node3 -->
<g id="edge13" class="edge"><title>Node9&#45;&gt;Node3</title>
<path fill="none" stroke="midnightblue" d="M838.125,-276.288C844.892,-274.114 851.615,-271.799 858,-269.376 901.532,-252.853 950.19,-227.657 975.522,-213.995"/>
<polygon fill="midnightblue" stroke="midnightblue" points="836.724,-273.058 828.213,-279.369 838.802,-279.743 836.724,-273.058"/>
</g>
<!-- Node9&#45;&gt;Node7 -->
<g id="edge14" class="edge"><title>Node9&#45;&gt;Node7</title>
<path fill="none" stroke="midnightblue" d="M851.907,-274.133C854.031,-272.657 856.069,-271.074 858,-269.376 888.5,-242.552 862.733,-211.302 894,-185.376 900.235,-180.206 907.425,-176.184 915.027,-173.064"/>
<polygon fill="midnightblue" stroke="midnightblue" points="850.08,-271.147 843.329,-279.312 853.698,-277.139 850.08,-271.147"/>
</g>
<!-- Node10&#45;&gt;Node3 -->
<g id="edge16" class="edge"><title>Node10&#45;&gt;Node3</title>
<path fill="none" stroke="midnightblue" d="M574.132,-235.367C595.768,-261.485 635.148,-302.649 680,-319.376 754.124,-347.02 783.761,-346.71 858,-319.376 916.94,-297.675 967.671,-237.534 985.848,-213.997"/>
<polygon fill="midnightblue" stroke="midnightblue" points="576.754,-233.043 567.746,-227.465 571.31,-237.443 576.754,-233.043"/>
</g>
<!-- Node10&#45;&gt;Node7 -->
<g id="edge17" class="edge"><title>Node10&#45;&gt;Node7</title>
<path fill="none" stroke="midnightblue" d="M654.143,-201.415C730.437,-192.85 835.395,-181.068 908.199,-172.895"/>
<polygon fill="midnightblue" stroke="midnightblue" points="653.592,-197.955 644.045,-202.548 654.373,-204.911 653.592,-197.955"/>
</g>
<!-- Node11&#45;&gt;Node3 -->
<g id="edge19" class="edge"><title>Node11&#45;&gt;Node3</title>
<path fill="none" stroke="midnightblue" d="M650.535,-172.208C722.32,-178.951 820.981,-188.218 893.973,-195.074"/>
<polygon fill="midnightblue" stroke="midnightblue" points="650.429,-168.683 640.145,-171.233 649.774,-175.652 650.429,-168.683"/>
</g>
<!-- Node11&#45;&gt;Node7 -->
<g id="edge20" class="edge"><title>Node11&#45;&gt;Node7</title>
<path fill="none" stroke="midnightblue" d="M650.135,-151.638C660.203,-150.711 670.305,-149.924 680,-149.376 758.985,-144.913 778.994,-145.29 858,-149.376 876.355,-150.325 896.057,-151.995 914.582,-153.86"/>
<polygon fill="midnightblue" stroke="midnightblue" points="649.714,-148.162 640.096,-152.607 650.386,-155.13 649.714,-148.162"/>
</g>
<!-- Node12&#45;&gt;Node3 -->
<g id="edge22" class="edge"><title>Node12&#45;&gt;Node3</title>
<path fill="none" stroke="midnightblue" d="M798.766,-102.64C816.193,-115.759 838.709,-133.13 858,-149.376 874.602,-163.357 874.751,-172.347 894,-182.376 904.228,-187.704 915.702,-191.746 927.117,-194.812"/>
<polygon fill="midnightblue" stroke="midnightblue" points="800.758,-99.7594 790.656,-96.5656 796.561,-105.362 800.758,-99.7594"/>
</g>
<!-- Node12&#45;&gt;Node7 -->
<g id="edge23" class="edge"><title>Node12&#45;&gt;Node7</title>
<path fill="none" stroke="midnightblue" d="M824.859,-99.7077C835.862,-103.488 847.321,-107.5 858,-111.376 896.956,-125.513 941.777,-143.028 968.72,-153.694"/>
<polygon fill="midnightblue" stroke="midnightblue" points="825.934,-96.3761 815.339,-96.4541 823.67,-103 825.934,-96.3761"/>
</g>
<!-- Node13&#45;&gt;Node10 -->
<g id="edge25" class="edge"><title>Node13&#45;&gt;Node10</title>
<path fill="none" stroke="midnightblue" d="M372.348,-142.473C398.121,-156.362 434.006,-174.571 467,-187.376 476.279,-190.977 486.29,-194.32 496.111,-197.313"/>
<polygon fill="midnightblue" stroke="midnightblue" points="373.791,-139.273 363.334,-137.569 370.445,-145.423 373.791,-139.273"/>
</g>
<!-- Node13&#45;&gt;Node11 -->
<g id="edge26" class="edge"><title>Node13&#45;&gt;Node11</title>
<path fill="none" stroke="midnightblue" d="M426.311,-139.267C442.308,-142.276 458.874,-145.391 474.572,-148.344"/>
<polygon fill="midnightblue" stroke="midnightblue" points="426.912,-135.819 416.437,-137.41 425.618,-142.698 426.912,-135.819"/>
</g>
<!-- Node13&#45;&gt;Node12 -->
<g id="edge29" class="edge"><title>Node13&#45;&gt;Node12</title>
<path fill="none" stroke="midnightblue" d="M441.366,-116.344C500.888,-112.467 576.718,-106.766 644,-99.3759 660.542,-97.5588 678.27,-95.2204 694.999,-92.8344"/>
<polygon fill="midnightblue" stroke="midnightblue" points="440.959,-112.863 431.204,-116.999 441.409,-119.849 440.959,-112.863"/>
</g>
<!-- Node14 -->
<g id="node14" class="node"><title>Node14</title>
<g id="a_node14"><a xlink:href="classmemoryoracle_1_1instance_1_1Int.html#a450a73bc8aaf1a7ac5f18c3ed1a933fc" target="_top" xlink:title="memoryoracle.instance.Int.\l_find_hidden_type">
<polygon fill="none" stroke="black" points="481.5,-60.3759 481.5,-90.3759 629.5,-90.3759 629.5,-60.3759 481.5,-60.3759"/>
<text text-anchor="start" x="489.5" y="-78.3759" font-family="Helvetica,sans-Serif" font-size="10.00">memoryoracle.instance.Int.</text>
<text text-anchor="middle" x="555.5" y="-67.3759" font-family="Helvetica,sans-Serif" font-size="10.00">_find_hidden_type</text>
</a>
</g>
</g>
<!-- Node13&#45;&gt;Node14 -->
<g id="edge27" class="edge"><title>Node13&#45;&gt;Node14</title>
<path fill="none" stroke="midnightblue" d="M415.958,-105.245C438.518,-100.381 462.905,-95.1235 484.837,-90.3949"/>
<polygon fill="midnightblue" stroke="midnightblue" points="415.114,-101.847 406.076,-107.376 416.589,-108.689 415.114,-101.847"/>
</g>
<!-- Node14&#45;&gt;Node12 -->
<g id="edge28" class="edge"><title>Node14&#45;&gt;Node12</title>
<path fill="none" stroke="midnightblue" d="M639.616,-77.7337C657.877,-78.2518 677.083,-78.7966 694.915,-79.3025"/>
<polygon fill="midnightblue" stroke="midnightblue" points="639.678,-74.2342 629.582,-77.4491 639.479,-81.2314 639.678,-74.2342"/>
</g>
</g>
</svg>
