<?xml version="1.0" encoding="UTF-8" standalone="no"?>
<!DOCTYPE svg PUBLIC "-//W3C//DTD SVG 1.1//EN"
 "http://www.w3.org/Graphics/SVG/1.1/DTD/svg11.dtd">
<!-- Generated by graphviz version 2.38.0 (20140413.2041)
 -->
<!-- Title: memoryoracle.descriptions.Description.id Pages: 1 -->
<svg width="857pt" height="186pt"
 viewBox="0.00 0.00 857.00 186.00" xmlns="http://www.w3.org/2000/svg" xmlns:xlink="http://www.w3.org/1999/xlink">
<g id="graph0" class="graph" transform="scale(1 1) rotate(0) translate(4 182)">
<title>memoryoracle.descriptions.Description.id</title>
<!-- Node1 -->
<g id="node1" class="node"><title>Node1</title>
<polygon fill="#bfbfbf" stroke="black" points="0,-73.5 0,-103.5 150,-103.5 150,-73.5 0,-73.5"/>
<text text-anchor="start" x="8" y="-91.5" font-family="Helvetica,sans-Serif" font-size="10.00">memoryoracle.descriptions.</text>
<text text-anchor="middle" x="75" y="-80.5" font-family="Helvetica,sans-Serif" font-size="10.00">Description.id</text>
</g>
<!-- Node2 -->
<g id="node2" class="node"><title>Node2</title>
<g id="a_node2"><a xlink:href="classmemoryoracle_1_1instance_1_1Instance.html#a254a208a64e4c7f32c514e2fb64edbbe" target="_top" xlink:title="memoryoracle.instance.Instance.\l_basic_track">
<polygon fill="none" stroke="black" points="188.5,-49.5 188.5,-79.5 364.5,-79.5 364.5,-49.5 188.5,-49.5"/>
<text text-anchor="start" x="196.5" y="-67.5" font-family="Helvetica,sans-Serif" font-size="10.00">memoryoracle.instance.Instance.</text>
<text text-anchor="middle" x="276.5" y="-56.5" font-family="Helvetica,sans-Serif" font-size="10.00">_basic_track</text>
</a>
</g>
</g>
<!-- Node1&#45;&gt;Node2 -->
<g id="edge1" class="edge"><title>Node1&#45;&gt;Node2</title>
<path fill="none" stroke="midnightblue" d="M160.095,-78.3833C169.479,-77.2544 179.053,-76.1026 188.473,-74.9694"/>
<polygon fill="midnightblue" stroke="midnightblue" points="159.513,-74.928 150.003,-79.5974 160.349,-81.8779 159.513,-74.928"/>
</g>
<!-- Node9 -->
<g id="node9" class="node"><title>Node9</title>
<g id="a_node9"><a xlink:href="classmemoryoracle_1_1instance_1_1Structure.html#a200a54be462e0199b7833cbd11f81a52" target="_top" xlink:title="memoryoracle.instance.Structure.\l_track">
<polygon fill="none" stroke="black" points="186,-0.5 186,-30.5 367,-30.5 367,-0.5 186,-0.5"/>
<text text-anchor="start" x="194" y="-18.5" font-family="Helvetica,sans-Serif" font-size="10.00">memoryoracle.instance.Structure.</text>
<text text-anchor="middle" x="276.5" y="-7.5" font-family="Helvetica,sans-Serif" font-size="10.00">_track</text>
</a>
</g>
</g>
<!-- Node1&#45;&gt;Node9 -->
<g id="edge11" class="edge"><title>Node1&#45;&gt;Node9</title>
<path fill="none" stroke="midnightblue" d="M115.407,-69.1383C136.104,-59.4342 162.076,-47.9771 186,-39.5 194.946,-36.33 204.523,-33.3464 213.964,-30.6316"/>
<polygon fill="midnightblue" stroke="midnightblue" points="113.833,-66.0111 106.295,-73.4565 116.83,-72.3367 113.833,-66.0111"/>
</g>
<!-- Node10 -->
<g id="node10" class="node"><title>Node10</title>
<g id="a_node10"><a xlink:href="classmemoryoracle_1_1instance_1_1Array.html#a1d8c3993d8a52bfbec8240d6f79b3ce1" target="_top" xlink:title="memoryoracle.instance.Array.\l_track">
<polygon fill="none" stroke="black" points="196.5,-147.5 196.5,-177.5 356.5,-177.5 356.5,-147.5 196.5,-147.5"/>
<text text-anchor="start" x="204.5" y="-165.5" font-family="Helvetica,sans-Serif" font-size="10.00">memoryoracle.instance.Array.</text>
<text text-anchor="middle" x="276.5" y="-154.5" font-family="Helvetica,sans-Serif" font-size="10.00">_track</text>
</a>
</g>
</g>
<!-- Node1&#45;&gt;Node10 -->
<g id="edge14" class="edge"><title>Node1&#45;&gt;Node10</title>
<path fill="none" stroke="midnightblue" d="M114.924,-108.089C135.681,-118.048 161.856,-129.842 186,-138.5 194.934,-141.704 204.504,-144.706 213.943,-147.428"/>
<polygon fill="midnightblue" stroke="midnightblue" points="116.319,-104.876 105.794,-103.66 113.264,-111.174 116.319,-104.876"/>
</g>
<!-- Node11 -->
<g id="node11" class="node"><title>Node11</title>
<g id="a_node11"><a xlink:href="classmemoryoracle_1_1instance_1_1Pointer.html#a2cc9e298adaad8bed089d90186fcde8a" target="_top" xlink:title="memoryoracle.instance.Pointer.\l_track">
<polygon fill="none" stroke="black" points="192,-98.5 192,-128.5 361,-128.5 361,-98.5 192,-98.5"/>
<text text-anchor="start" x="200" y="-116.5" font-family="Helvetica,sans-Serif" font-size="10.00">memoryoracle.instance.Pointer.</text>
<text text-anchor="middle" x="276.5" y="-105.5" font-family="Helvetica,sans-Serif" font-size="10.00">_track</text>
</a>
</g>
</g>
<!-- Node1&#45;&gt;Node11 -->
<g id="edge17" class="edge"><title>Node1&#45;&gt;Node11</title>
<path fill="none" stroke="midnightblue" d="M160.018,-99.0286C170.558,-100.349 181.338,-101.7 191.871,-103.02"/>
<polygon fill="midnightblue" stroke="midnightblue" points="160.361,-95.5442 150.003,-97.7736 159.49,-102.49 160.361,-95.5442"/>
</g>
<!-- Node3 -->
<g id="node3" class="node"><title>Node3</title>
<g id="a_node3"><a xlink:href="classmemoryoracle_1_1instance_1_1Instance.html#a86649e01ee4f562debdba5421a334f78" target="_top" xlink:title="memoryoracle.instance.Instance.track">
<polygon fill="none" stroke="black" points="403,-101 403,-120 603,-120 603,-101 403,-101"/>
<text text-anchor="middle" x="503" y="-108" font-family="Helvetica,sans-Serif" font-size="10.00">memoryoracle.instance.Instance.track</text>
</a>
</g>
</g>
<!-- Node2&#45;&gt;Node3 -->
<g id="edge2" class="edge"><title>Node2&#45;&gt;Node3</title>
<path fill="none" stroke="midnightblue" d="M360.818,-81.5718C392.81,-88.127 428.168,-95.3718 455.496,-100.971"/>
<polygon fill="midnightblue" stroke="midnightblue" points="361.509,-78.1407 351.01,-79.5621 360.104,-84.9983 361.509,-78.1407"/>
</g>
<!-- Node8 -->
<g id="node8" class="node"><title>Node8</title>
<g id="a_node8"><a xlink:href="classmemoryoracle_1_1models_1_1Typed.html#aa1d5d8d5b7ebe5c2876f363e7eb669db" target="_top" xlink:title="memoryoracle.models.Typed.track">
<polygon fill="none" stroke="black" points="412,-60 412,-79 594,-79 594,-60 412,-60"/>
<text text-anchor="middle" x="503" y="-67" font-family="Helvetica,sans-Serif" font-size="10.00">memoryoracle.models.Typed.track</text>
</a>
</g>
</g>
<!-- Node2&#45;&gt;Node8 -->
<g id="edge7" class="edge"><title>Node2&#45;&gt;Node8</title>
<path fill="none" stroke="midnightblue" d="M374.894,-66.6691C387.21,-66.9434 399.77,-67.2232 411.964,-67.4948"/>
<polygon fill="midnightblue" stroke="midnightblue" points="374.694,-63.1639 364.619,-66.4403 374.538,-70.1622 374.694,-63.1639"/>
</g>
<!-- Node4 -->
<g id="node4" class="node"><title>Node4</title>
<g id="a_node4"><a xlink:href="classmemoryoracle_1_1instance_1_1Instance.html#a286e015a030541a0704994172024f034" target="_top" xlink:title="memoryoracle.instance.Instance.update">
<polygon fill="none" stroke="black" points="639,-148 639,-167 849,-167 849,-148 639,-148"/>
<text text-anchor="middle" x="744" y="-155" font-family="Helvetica,sans-Serif" font-size="10.00">memoryoracle.instance.Instance.update</text>
</a>
</g>
</g>
<!-- Node3&#45;&gt;Node4 -->
<g id="edge3" class="edge"><title>Node3&#45;&gt;Node4</title>
<path fill="none" stroke="midnightblue" d="M558.499,-122.111C583.069,-127.267 612.466,-133.325 639,-138.5 655.394,-141.697 673.274,-145.022 689.512,-147.98"/>
<polygon fill="midnightblue" stroke="midnightblue" points="559.145,-118.671 548.639,-120.037 557.704,-125.521 559.145,-118.671"/>
</g>
<!-- Node5 -->
<g id="node5" class="node"><title>Node5</title>
<g id="a_node5"><a xlink:href="classmemoryoracle_1_1models_1_1Typed.html#a494dfbe205034b874ff9e8c7039f579b" target="_top" xlink:title="memoryoracle.models.Typed.\l__init__">
<polygon fill="none" stroke="black" points="665,-98.5 665,-128.5 823,-128.5 823,-98.5 665,-98.5"/>
<text text-anchor="start" x="673" y="-116.5" font-family="Helvetica,sans-Serif" font-size="10.00">memoryoracle.models.Typed.</text>
<text text-anchor="middle" x="744" y="-105.5" font-family="Helvetica,sans-Serif" font-size="10.00">__init__</text>
</a>
</g>
</g>
<!-- Node3&#45;&gt;Node5 -->
<g id="edge4" class="edge"><title>Node3&#45;&gt;Node5</title>
<path fill="none" stroke="midnightblue" d="M613.436,-111.874C630.758,-112.091 648.364,-112.312 664.784,-112.518"/>
<polygon fill="midnightblue" stroke="midnightblue" points="613.324,-108.372 603.281,-111.746 613.236,-115.372 613.324,-108.372"/>
</g>
<!-- Node6 -->
<g id="node6" class="node"><title>Node6</title>
<g id="a_node6"><a xlink:href="classmemoryoracle_1_1models_1_1Memory.html#a71d4a141abc3358afdf1a1325bfd4253" target="_top" xlink:title="memoryoracle.models.Memory.update">
<polygon fill="none" stroke="black" points="643,-60 643,-79 845,-79 845,-60 643,-60"/>
<text text-anchor="middle" x="744" y="-67" font-family="Helvetica,sans-Serif" font-size="10.00">memoryoracle.models.Memory.update</text>
</a>
</g>
</g>
<!-- Node3&#45;&gt;Node6 -->
<g id="edge5" class="edge"><title>Node3&#45;&gt;Node6</title>
<path fill="none" stroke="midnightblue" d="M569.614,-99.2441C606.587,-92.9014 652.266,-85.0653 687.455,-79.0286"/>
<polygon fill="midnightblue" stroke="midnightblue" points="568.696,-95.8502 559.432,-100.991 569.88,-102.749 568.696,-95.8502"/>
</g>
<!-- Node7 -->
<g id="node7" class="node"><title>Node7</title>
<g id="a_node7"><a xlink:href="classmemoryoracle_1_1models_1_1Memory.html#aed3af349dd80317ae9cca4b4e9cb7c26" target="_top" xlink:title="memoryoracle.models.Memory.\l__init__">
<polygon fill="none" stroke="black" points="660,-10.5 660,-40.5 828,-40.5 828,-10.5 660,-10.5"/>
<text text-anchor="start" x="668" y="-28.5" font-family="Helvetica,sans-Serif" font-size="10.00">memoryoracle.models.Memory.</text>
<text text-anchor="middle" x="744" y="-17.5" font-family="Helvetica,sans-Serif" font-size="10.00">__init__</text>
</a>
</g>
</g>
<!-- Node3&#45;&gt;Node7 -->
<g id="edge6" class="edge"><title>Node3&#45;&gt;Node7</title>
<path fill="none" stroke="midnightblue" d="M582.248,-97.7759C589.485,-95.2281 596.523,-92.1701 603,-88.5 623.241,-77.0304 618.859,-62.1436 639,-50.5 645.752,-46.5965 653.088,-43.3009 660.635,-40.5189"/>
<polygon fill="midnightblue" stroke="midnightblue" points="580.759,-94.5768 572.29,-100.944 582.881,-101.247 580.759,-94.5768"/>
</g>
<!-- Node8&#45;&gt;Node5 -->
<g id="edge8" class="edge"><title>Node8&#45;&gt;Node5</title>
<path fill="none" stroke="midnightblue" d="M565.844,-80.8855C596.064,-86.449 632.753,-93.2035 664.887,-99.1194"/>
<polygon fill="midnightblue" stroke="midnightblue" points="566.328,-77.4158 555.859,-79.0473 565.06,-84.3002 566.328,-77.4158"/>
</g>
<!-- Node8&#45;&gt;Node6 -->
<g id="edge9" class="edge"><title>Node8&#45;&gt;Node6</title>
<path fill="none" stroke="midnightblue" d="M604.151,-69.5C616.884,-69.5 629.918,-69.5 642.654,-69.5"/>
<polygon fill="midnightblue" stroke="midnightblue" points="604.015,-66.0001 594.015,-69.5 604.015,-73.0001 604.015,-66.0001"/>
</g>
<!-- Node8&#45;&gt;Node7 -->
<g id="edge10" class="edge"><title>Node8&#45;&gt;Node7</title>
<path fill="none" stroke="midnightblue" d="M565.871,-58.1095C594.926,-52.7606 629.956,-46.3114 661.168,-40.5654"/>
<polygon fill="midnightblue" stroke="midnightblue" points="565.06,-54.6998 555.859,-59.9527 566.328,-61.5842 565.06,-54.6998"/>
</g>
<!-- Node9&#45;&gt;Node3 -->
<g id="edge12" class="edge"><title>Node9&#45;&gt;Node3</title>
<path fill="none" stroke="midnightblue" d="M359.871,-35.1092C362.329,-36.4755 364.713,-37.9369 367,-39.5 389.31,-54.7492 380.365,-73.7376 403,-88.5 411.185,-93.8381 420.474,-97.8957 430.004,-100.977"/>
<polygon fill="midnightblue" stroke="midnightblue" points="361.205,-31.8643 350.69,-30.566 358.101,-38.1382 361.205,-31.8643"/>
</g>
<!-- Node9&#45;&gt;Node8 -->
<g id="edge13" class="edge"><title>Node9&#45;&gt;Node8</title>
<path fill="none" stroke="midnightblue" d="M349.869,-32.9071C387.204,-41.8875 431.305,-52.4953 462.385,-59.9712"/>
<polygon fill="midnightblue" stroke="midnightblue" points="350.577,-29.4778 340.036,-30.542 348.94,-36.2837 350.577,-29.4778"/>
</g>
<!-- Node10&#45;&gt;Node3 -->
<g id="edge15" class="edge"><title>Node10&#45;&gt;Node3</title>
<path fill="none" stroke="midnightblue" d="M352.467,-145.136C388.637,-136.758 430.634,-127.03 460.895,-120.021"/>
<polygon fill="midnightblue" stroke="midnightblue" points="351.387,-141.793 342.435,-147.459 352.967,-148.613 351.387,-141.793"/>
</g>
<!-- Node10&#45;&gt;Node8 -->
<g id="edge16" class="edge"><title>Node10&#45;&gt;Node8</title>
<path fill="none" stroke="midnightblue" d="M359.831,-142.831C362.3,-141.482 364.698,-140.04 367,-138.5 388.87,-123.87 380.818,-105.653 403,-91.5 411.386,-86.1493 420.893,-82.0888 430.617,-79.0097"/>
<polygon fill="midnightblue" stroke="midnightblue" points="358.07,-139.795 350.616,-147.324 361.138,-146.087 358.07,-139.795"/>
</g>
<!-- Node11&#45;&gt;Node3 -->
<g id="edge18" class="edge"><title>Node11&#45;&gt;Node3</title>
<path fill="none" stroke="midnightblue" d="M371.386,-112.245C381.762,-112.107 392.352,-111.965 402.791,-111.826"/>
<polygon fill="midnightblue" stroke="midnightblue" points="371.048,-108.75 361.096,-112.383 371.141,-115.749 371.048,-108.75"/>
</g>
<!-- Node11&#45;&gt;Node8 -->
<g id="edge19" class="edge"><title>Node11&#45;&gt;Node8</title>
<path fill="none" stroke="midnightblue" d="M364.283,-96.4912C394.552,-90.5589 427.428,-84.1155 453.465,-79.0124"/>
<polygon fill="midnightblue" stroke="midnightblue" points="363.272,-93.1227 354.132,-98.4808 364.619,-99.992 363.272,-93.1227"/>
</g>
</g>
</svg>
