<?xml version="1.0" encoding="UTF-8" standalone="no"?>
<!DOCTYPE svg PUBLIC "-//W3C//DTD SVG 1.1//EN"
 "http://www.w3.org/Graphics/SVG/1.1/DTD/svg11.dtd">
<!-- Generated by graphviz version 2.38.0 (20140413.2041)
 -->
<!-- Title: memoryoracle.descriptions.InstanceDescription.dict Pages: 1 -->
<svg width="362pt" height="186pt"
 viewBox="0.00 0.00 362.00 186.00" xmlns="http://www.w3.org/2000/svg" xmlns:xlink="http://www.w3.org/1999/xlink">
<g id="graph0" class="graph" transform="scale(1 1) rotate(0) translate(4 182)">
<title>memoryoracle.descriptions.InstanceDescription.dict</title>
<!-- Node1 -->
<g id="node1" class="node"><title>Node1</title>
<polygon fill="#bfbfbf" stroke="black" points="0,-73.5 0,-103.5 150,-103.5 150,-73.5 0,-73.5"/>
<text text-anchor="start" x="8" y="-91.5" font-family="Helvetica,sans-Serif" font-size="10.00">memoryoracle.descriptions.</text>
<text text-anchor="middle" x="75" y="-80.5" font-family="Helvetica,sans-Serif" font-size="10.00">InstanceDescription.dict</text>
</g>
<!-- Node2 -->
<g id="node2" class="node"><title>Node2</title>
<g id="a_node2"><a xlink:href="classmemoryoracle_1_1descriptions_1_1InstanceDescription.html#ac4d8f16a2b5761e93508cb4ff73b654c" target="_top" xlink:title="memoryoracle.descriptions.\lInstanceDescription.frame">
<polygon fill="none" stroke="black" points="195,-147.5 195,-177.5 345,-177.5 345,-147.5 195,-147.5"/>
<text text-anchor="start" x="203" y="-165.5" font-family="Helvetica,sans-Serif" font-size="10.00">memoryoracle.descriptions.</text>
<text text-anchor="middle" x="270" y="-154.5" font-family="Helvetica,sans-Serif" font-size="10.00">InstanceDescription.frame</text>
</a>
</g>
</g>
<!-- Node1&#45;&gt;Node2 -->
<g id="edge1" class="edge"><title>Node1&#45;&gt;Node2</title>
<path fill="none" stroke="midnightblue" d="M106.32,-103.723C128.138,-114.319 158.453,-128.318 186,-138.5 191.498,-140.532 197.252,-142.503 203.055,-144.385"/>
<polygon fill="midnightblue" stroke="midnightblue" points="202.241,-147.798 212.831,-147.461 204.342,-141.12 202.241,-147.798"/>
</g>
<!-- Node3 -->
<g id="node3" class="node"><title>Node3</title>
<g id="a_node3"><a xlink:href="classmemoryoracle_1_1descriptions_1_1Description.html#a4b27c3ae1ef0ab35ec0f990fa553b8b3" target="_top" xlink:title="memoryoracle.descriptions.\lDescription.name">
<polygon fill="none" stroke="black" points="195,-98.5 195,-128.5 345,-128.5 345,-98.5 195,-98.5"/>
<text text-anchor="start" x="203" y="-116.5" font-family="Helvetica,sans-Serif" font-size="10.00">memoryoracle.descriptions.</text>
<text text-anchor="middle" x="270" y="-105.5" font-family="Helvetica,sans-Serif" font-size="10.00">Description.name</text>
</a>
</g>
</g>
<!-- Node1&#45;&gt;Node3 -->
<g id="edge2" class="edge"><title>Node1&#45;&gt;Node3</title>
<path fill="none" stroke="midnightblue" d="M150.067,-98.0942C161.413,-99.5639 173.197,-101.09 184.744,-102.586"/>
<polygon fill="midnightblue" stroke="midnightblue" points="184.446,-106.077 194.812,-103.89 185.345,-99.1345 184.446,-106.077"/>
</g>
<!-- Node4 -->
<g id="node4" class="node"><title>Node4</title>
<g id="a_node4"><a xlink:href="classmemoryoracle_1_1descriptions_1_1InstanceDescription.html#ab2aa339c8bcd34607651813e63d90000" target="_top" xlink:title="memoryoracle.descriptions.\lInstanceDescription.parent">
<polygon fill="none" stroke="black" points="195,-49.5 195,-79.5 345,-79.5 345,-49.5 195,-49.5"/>
<text text-anchor="start" x="203" y="-67.5" font-family="Helvetica,sans-Serif" font-size="10.00">memoryoracle.descriptions.</text>
<text text-anchor="middle" x="270" y="-56.5" font-family="Helvetica,sans-Serif" font-size="10.00">InstanceDescription.parent</text>
</a>
</g>
</g>
<!-- Node1&#45;&gt;Node4 -->
<g id="edge3" class="edge"><title>Node1&#45;&gt;Node4</title>
<path fill="none" stroke="midnightblue" d="M150.067,-79.2896C161.413,-77.8787 173.197,-76.4133 184.744,-74.9775"/>
<polygon fill="midnightblue" stroke="midnightblue" points="185.321,-78.4327 194.812,-73.7254 184.457,-71.4863 185.321,-78.4327"/>
</g>
<!-- Node5 -->
<g id="node5" class="node"><title>Node5</title>
<g id="a_node5"><a xlink:href="classmemoryoracle_1_1descriptions_1_1InstanceDescription.html#a00ece7638600104272d5db98854b4ea8" target="_top" xlink:title="memoryoracle.descriptions.\lInstanceDescription.type_name">
<polygon fill="none" stroke="black" points="186,-0.5 186,-30.5 354,-30.5 354,-0.5 186,-0.5"/>
<text text-anchor="start" x="194" y="-18.5" font-family="Helvetica,sans-Serif" font-size="10.00">memoryoracle.descriptions.</text>
<text text-anchor="middle" x="270" y="-7.5" font-family="Helvetica,sans-Serif" font-size="10.00">InstanceDescription.type_name</text>
</a>
</g>
</g>
<!-- Node1&#45;&gt;Node5 -->
<g id="edge4" class="edge"><title>Node1&#45;&gt;Node5</title>
<path fill="none" stroke="midnightblue" d="M107.839,-73.4071C129.586,-63.3969 159.205,-50.3421 186,-40.5 192.359,-38.1643 199.048,-35.877 205.755,-33.6933"/>
<polygon fill="midnightblue" stroke="midnightblue" points="207.088,-36.9419 215.556,-30.5745 204.966,-30.2714 207.088,-36.9419"/>
</g>
</g>
</svg>
