<?xml version="1.0" encoding="UTF-8" standalone="no"?>
<!DOCTYPE svg PUBLIC "-//W3C//DTD SVG 1.1//EN"
 "http://www.w3.org/Graphics/SVG/1.1/DTD/svg11.dtd">
<!-- Generated by graphviz version 2.38.0 (20140413.2041)
 -->
<!-- Title: memoryoracle.instance.StructureInstance._track Pages: 1 -->
<svg width="426pt" height="401pt"
 viewBox="0.00 0.00 426.00 401.00" xmlns="http://www.w3.org/2000/svg" xmlns:xlink="http://www.w3.org/1999/xlink">
<g id="graph0" class="graph" transform="scale(1 1) rotate(0) translate(4 397)">
<title>memoryoracle.instance.StructureInstance._track</title>
<!-- Node1 -->
<g id="node1" class="node"><title>Node1</title>
<polygon fill="#bfbfbf" stroke="black" points="0,-181.5 0,-211.5 178,-211.5 178,-181.5 0,-181.5"/>
<text text-anchor="start" x="8" y="-199.5" font-family="Helvetica,sans-Serif" font-size="10.00">memoryoracle.instance.Structure</text>
<text text-anchor="middle" x="89" y="-188.5" font-family="Helvetica,sans-Serif" font-size="10.00">Instance._track</text>
</g>
<!-- Node2 -->
<g id="node2" class="node"><title>Node2</title>
<g id="a_node2"><a xlink:href="namespacememoryoracle_1_1instance.html#ac651a8635b1ae2ee7e788bf9adb17a0b" target="_top" xlink:title="memoryoracle.instance.addressable\l_factory">
<polygon fill="none" stroke="black" points="220.5,-362.5 220.5,-392.5 411.5,-392.5 411.5,-362.5 220.5,-362.5"/>
<text text-anchor="start" x="228.5" y="-380.5" font-family="Helvetica,sans-Serif" font-size="10.00">memoryoracle.instance.addressable</text>
<text text-anchor="middle" x="316" y="-369.5" font-family="Helvetica,sans-Serif" font-size="10.00">_factory</text>
</a>
</g>
</g>
<!-- Node1&#45;&gt;Node2 -->
<g id="edge1" class="edge"><title>Node1&#45;&gt;Node2</title>
<path fill="none" stroke="midnightblue" d="M97.5308,-211.81C113.98,-243.567 156.312,-316.703 214,-353.5 216.613,-355.167 219.33,-356.718 222.127,-358.161"/>
<polygon fill="midnightblue" stroke="midnightblue" points="220.749,-361.38 231.294,-362.415 223.696,-355.031 220.749,-361.38"/>
</g>
<!-- Node3 -->
<g id="node3" class="node"><title>Node3</title>
<g id="a_node3"><a xlink:href="classmemoryoracle_1_1descriptions_1_1Description.html#a793ffb6975ee167869a1f475b1748769" target="_top" xlink:title="memoryoracle.descriptions.\lDescription.id">
<polygon fill="none" stroke="black" points="241,-313.5 241,-343.5 391,-343.5 391,-313.5 241,-313.5"/>
<text text-anchor="start" x="249" y="-331.5" font-family="Helvetica,sans-Serif" font-size="10.00">memoryoracle.descriptions.</text>
<text text-anchor="middle" x="316" y="-320.5" font-family="Helvetica,sans-Serif" font-size="10.00">Description.id</text>
</a>
</g>
</g>
<!-- Node1&#45;&gt;Node3 -->
<g id="edge2" class="edge"><title>Node1&#45;&gt;Node3</title>
<path fill="none" stroke="midnightblue" d="M103.223,-211.809C124.276,-235.19 167.78,-279.596 214,-303.5 219.528,-306.359 225.397,-308.901 231.416,-311.16"/>
<polygon fill="midnightblue" stroke="midnightblue" points="230.375,-314.504 240.97,-314.482 232.674,-307.892 230.375,-314.504"/>
</g>
<!-- Node4 -->
<g id="node4" class="node"><title>Node4</title>
<g id="a_node4"><a xlink:href="classmemoryoracle_1_1instance_1_1Instance.html#a94bd2b9c1a7739801bc9938e86034652" target="_top" xlink:title="memoryoracle.instance.Instance.id">
<polygon fill="none" stroke="black" points="223.5,-275 223.5,-294 408.5,-294 408.5,-275 223.5,-275"/>
<text text-anchor="middle" x="316" y="-282" font-family="Helvetica,sans-Serif" font-size="10.00">memoryoracle.instance.Instance.id</text>
</a>
</g>
</g>
<!-- Node1&#45;&gt;Node4 -->
<g id="edge3" class="edge"><title>Node1&#45;&gt;Node4</title>
<path fill="none" stroke="midnightblue" d="M111.811,-211.507C135.8,-227.31 176.003,-251.765 214,-265.5 221.575,-268.238 229.619,-270.602 237.732,-272.637"/>
<polygon fill="midnightblue" stroke="midnightblue" points="237.099,-276.084 247.634,-274.961 238.698,-269.269 237.099,-276.084"/>
</g>
<!-- Node5 -->
<g id="node5" class="node"><title>Node5</title>
<g id="a_node5"><a xlink:href="classmemoryoracle_1_1descriptions_1_1Description.html#a4b27c3ae1ef0ab35ec0f990fa553b8b3" target="_top" xlink:title="memoryoracle.descriptions.\lDescription.name">
<polygon fill="none" stroke="black" points="241,-225.5 241,-255.5 391,-255.5 391,-225.5 241,-225.5"/>
<text text-anchor="start" x="249" y="-243.5" font-family="Helvetica,sans-Serif" font-size="10.00">memoryoracle.descriptions.</text>
<text text-anchor="middle" x="316" y="-232.5" font-family="Helvetica,sans-Serif" font-size="10.00">Description.name</text>
</a>
</g>
</g>
<!-- Node1&#45;&gt;Node5 -->
<g id="edge4" class="edge"><title>Node1&#45;&gt;Node5</title>
<path fill="none" stroke="midnightblue" d="M166.803,-211.519C187.464,-215.56 209.918,-219.951 230.951,-224.064"/>
<polygon fill="midnightblue" stroke="midnightblue" points="230.339,-227.51 240.825,-225.995 231.683,-220.64 230.339,-227.51"/>
</g>
<!-- Node6 -->
<g id="node6" class="node"><title>Node6</title>
<g id="a_node6"><a xlink:href="classmemoryoracle_1_1frame_1_1Frame.html#a34903b0f51d554e95b269e5e1d6f1b16" target="_top" xlink:title="memoryoracle.frame.Frame.name">
<polygon fill="none" stroke="black" points="225,-187 225,-206 407,-206 407,-187 225,-187"/>
<text text-anchor="middle" x="316" y="-194" font-family="Helvetica,sans-Serif" font-size="10.00">memoryoracle.frame.Frame.name</text>
</a>
</g>
</g>
<!-- Node1&#45;&gt;Node6 -->
<g id="edge5" class="edge"><title>Node1&#45;&gt;Node6</title>
<path fill="none" stroke="midnightblue" d="M178.28,-196.5C190.207,-196.5 202.515,-196.5 214.633,-196.5"/>
<polygon fill="midnightblue" stroke="midnightblue" points="214.755,-200 224.755,-196.5 214.755,-193 214.755,-200"/>
</g>
<!-- Node7 -->
<g id="node7" class="node"><title>Node7</title>
<g id="a_node7"><a xlink:href="classmemoryoracle_1_1descriptions_1_1BlackBoxDecorator.html#a30f3fcba004264fb8b1c4e625a348124" target="_top" xlink:title="memoryoracle.descriptions.\lBlackBoxDecorator.name">
<polygon fill="none" stroke="black" points="241,-137.5 241,-167.5 391,-167.5 391,-137.5 241,-137.5"/>
<text text-anchor="start" x="249" y="-155.5" font-family="Helvetica,sans-Serif" font-size="10.00">memoryoracle.descriptions.</text>
<text text-anchor="middle" x="316" y="-144.5" font-family="Helvetica,sans-Serif" font-size="10.00">BlackBoxDecorator.name</text>
</a>
</g>
</g>
<!-- Node1&#45;&gt;Node7 -->
<g id="edge6" class="edge"><title>Node1&#45;&gt;Node7</title>
<path fill="none" stroke="midnightblue" d="M166.803,-181.481C187.464,-177.44 209.918,-173.049 230.951,-168.936"/>
<polygon fill="midnightblue" stroke="midnightblue" points="231.683,-172.36 240.825,-167.005 230.339,-165.49 231.683,-172.36"/>
</g>
<!-- Node8 -->
<g id="node8" class="node"><title>Node8</title>
<g id="a_node8"><a xlink:href="classmemoryoracle_1_1instance_1_1Instance.html#a87024af86578f01672682bfaa5c82d8c" target="_top" xlink:title="memoryoracle.instance.Instance.name">
<polygon fill="none" stroke="black" points="214,-99 214,-118 418,-118 418,-99 214,-99"/>
<text text-anchor="middle" x="316" y="-106" font-family="Helvetica,sans-Serif" font-size="10.00">memoryoracle.instance.Instance.name</text>
</a>
</g>
</g>
<!-- Node1&#45;&gt;Node8 -->
<g id="edge7" class="edge"><title>Node1&#45;&gt;Node8</title>
<path fill="none" stroke="midnightblue" d="M112.757,-181.223C136.891,-165.707 176.617,-142.084 214,-128.5 222.791,-125.306 232.207,-122.582 241.627,-120.269"/>
<polygon fill="midnightblue" stroke="midnightblue" points="242.463,-123.668 251.417,-118.005 240.886,-116.848 242.463,-123.668"/>
</g>
<!-- Node9 -->
<g id="node9" class="node"><title>Node9</title>
<g id="a_node9"><a xlink:href="classmemoryoracle_1_1descriptions_1_1ExternalDescriptionDecorator.html#a3653b421084fc367f59e1b365270d4e1" target="_top" xlink:title="memoryoracle.descriptions.\lExternalDescriptionDecorator.name">
<polygon fill="none" stroke="black" points="222,-49.5 222,-79.5 410,-79.5 410,-49.5 222,-49.5"/>
<text text-anchor="start" x="230" y="-67.5" font-family="Helvetica,sans-Serif" font-size="10.00">memoryoracle.descriptions.</text>
<text text-anchor="middle" x="316" y="-56.5" font-family="Helvetica,sans-Serif" font-size="10.00">ExternalDescriptionDecorator.name</text>
</a>
</g>
</g>
<!-- Node1&#45;&gt;Node9 -->
<g id="edge8" class="edge"><title>Node1&#45;&gt;Node9</title>
<path fill="none" stroke="midnightblue" d="M103.223,-181.191C124.276,-157.81 167.78,-113.404 214,-89.5 218.547,-87.1486 223.324,-85.0115 228.226,-83.07"/>
<polygon fill="midnightblue" stroke="midnightblue" points="229.59,-86.2978 237.777,-79.5726 227.183,-79.7247 229.59,-86.2978"/>
</g>
<!-- Node10 -->
<g id="node10" class="node"><title>Node10</title>
<g id="a_node10"><a xlink:href="classmemoryoracle_1_1descriptions_1_1StandardDescriptionDecorator.html#a06d5c7b1716ece015737e1137f39f56d" target="_top" xlink:title="memoryoracle.descriptions.\lStandardDescriptionDecorator.name">
<polygon fill="none" stroke="black" points="219.5,-0.5 219.5,-30.5 412.5,-30.5 412.5,-0.5 219.5,-0.5"/>
<text text-anchor="start" x="227.5" y="-18.5" font-family="Helvetica,sans-Serif" font-size="10.00">memoryoracle.descriptions.</text>
<text text-anchor="middle" x="316" y="-7.5" font-family="Helvetica,sans-Serif" font-size="10.00">StandardDescriptionDecorator.name</text>
</a>
</g>
</g>
<!-- Node1&#45;&gt;Node10 -->
<g id="edge9" class="edge"><title>Node1&#45;&gt;Node10</title>
<path fill="none" stroke="midnightblue" d="M97.5851,-181.33C114.137,-149.857 156.653,-77.3319 214,-40.5 217.325,-38.3646 220.819,-36.4116 224.429,-34.6254"/>
<polygon fill="midnightblue" stroke="midnightblue" points="225.911,-37.7969 233.611,-30.5202 223.054,-31.4064 225.911,-37.7969"/>
</g>
</g>
</svg>
