<?xml version="1.0" encoding="UTF-8" standalone="no"?>
<!DOCTYPE svg PUBLIC "-//W3C//DTD SVG 1.1//EN"
 "http://www.w3.org/Graphics/SVG/1.1/DTD/svg11.dtd">
<!-- Generated by graphviz version 2.38.0 (20140413.2041)
 -->
<!-- Title: memoryoracle.instance.Memory._basic_track Pages: 1 -->
<svg width="424pt" height="116pt"
 viewBox="0.00 0.00 424.00 115.50" xmlns="http://www.w3.org/2000/svg" xmlns:xlink="http://www.w3.org/1999/xlink">
<g id="graph0" class="graph" transform="scale(1 1) rotate(0) translate(4 111.5)">
<title>memoryoracle.instance.Memory._basic_track</title>
<!-- Node1 -->
<g id="node1" class="node"><title>Node1</title>
<polygon fill="#bfbfbf" stroke="black" points="0,-33 0,-63 173,-63 173,-33 0,-33"/>
<text text-anchor="start" x="8" y="-51" font-family="Helvetica,sans-Serif" font-size="10.00">memoryoracle.instance.Memory.</text>
<text text-anchor="middle" x="86.5" y="-40" font-family="Helvetica,sans-Serif" font-size="10.00">_basic_track</text>
</g>
<!-- Node2 -->
<g id="node2" class="node"><title>Node2</title>
<g id="a_node2"><a xlink:href="classmemoryoracle_1_1instance_1_1Memory.html#acde5472399a5335909aca575b634dde7" target="_top" xlink:title="memoryoracle.instance.Memory.extract\l_dynamic_type">
<polygon fill="none" stroke="black" points="209,-77 209,-107 416,-107 416,-77 209,-77"/>
<text text-anchor="start" x="217" y="-95" font-family="Helvetica,sans-Serif" font-size="10.00">memoryoracle.instance.Memory.extract</text>
<text text-anchor="middle" x="312.5" y="-84" font-family="Helvetica,sans-Serif" font-size="10.00">_dynamic_type</text>
</a>
</g>
</g>
<!-- Node1&#45;&gt;Node2 -->
<g id="edge1" class="edge"><title>Node1&#45;&gt;Node2</title>
<path fill="none" stroke="midnightblue" d="M163.962,-63.0192C183.586,-66.874 204.834,-71.0478 224.93,-74.9951"/>
<polygon fill="midnightblue" stroke="midnightblue" points="224.516,-78.4806 235.003,-76.9738 225.865,-71.6119 224.516,-78.4806"/>
</g>
<!-- Node3 -->
<g id="node3" class="node"><title>Node3</title>
<g id="a_node3"><a xlink:href="classmemoryoracle_1_1frame_1_1Frame.html#aba4a80563b93cf0069db8d64df6b19e5" target="_top" xlink:title="memoryoracle.frame.Frame.index">
<polygon fill="none" stroke="black" points="223,-38.5 223,-57.5 402,-57.5 402,-38.5 223,-38.5"/>
<text text-anchor="middle" x="312.5" y="-45.5" font-family="Helvetica,sans-Serif" font-size="10.00">memoryoracle.frame.Frame.index</text>
</a>
</g>
</g>
<!-- Node1&#45;&gt;Node3 -->
<g id="edge2" class="edge"><title>Node1&#45;&gt;Node3</title>
<path fill="none" stroke="midnightblue" d="M173.144,-48C186.135,-48 199.628,-48 212.868,-48"/>
<polygon fill="midnightblue" stroke="midnightblue" points="212.932,-51.5001 222.932,-48 212.932,-44.5001 212.932,-51.5001"/>
</g>
<!-- Node4 -->
<g id="node4" class="node"><title>Node4</title>
<g id="a_node4"><a xlink:href="classmemoryoracle_1_1instance_1_1Memory.html#aba9e6136a3854e0ab59a74acd015be06" target="_top" xlink:title="memoryoracle.instance.Memory.index">
<polygon fill="none" stroke="black" points="213,-0.5 213,-19.5 412,-19.5 412,-0.5 213,-0.5"/>
<text text-anchor="middle" x="312.5" y="-7.5" font-family="Helvetica,sans-Serif" font-size="10.00">memoryoracle.instance.Memory.index</text>
</a>
</g>
</g>
<!-- Node1&#45;&gt;Node4 -->
<g id="edge3" class="edge"><title>Node1&#45;&gt;Node4</title>
<path fill="none" stroke="midnightblue" d="M173.144,-33.4712C197.028,-29.4194 222.608,-25.08 245.195,-21.2482"/>
<polygon fill="midnightblue" stroke="midnightblue" points="246.071,-24.6496 255.345,-19.5263 244.901,-17.7482 246.071,-24.6496"/>
</g>
</g>
</svg>
