<?xml version="1.0" encoding="UTF-8" standalone="no"?>
<!DOCTYPE svg PUBLIC "-//W3C//DTD SVG 1.1//EN"
 "http://www.w3.org/Graphics/SVG/1.1/DTD/svg11.dtd">
<!-- Generated by graphviz version 2.38.0 (20140413.2041)
 -->
<!-- Title: memoryoracle.instance.Instance._init Pages: 1 -->
<svg width="418pt" height="284pt"
 viewBox="0.00 0.00 418.00 284.00" xmlns="http://www.w3.org/2000/svg" xmlns:xlink="http://www.w3.org/1999/xlink">
<g id="graph0" class="graph" transform="scale(1 1) rotate(0) translate(4 280)">
<title>memoryoracle.instance.Instance._init</title>
<!-- Node1 -->
<g id="node1" class="node"><title>Node1</title>
<polygon fill="#bfbfbf" stroke="black" points="0,-128 0,-147 196,-147 196,-128 0,-128"/>
<text text-anchor="middle" x="98" y="-135" font-family="Helvetica,sans-Serif" font-size="10.00">memoryoracle.instance.Instance._init</text>
</g>
<!-- Node2 -->
<g id="node2" class="node"><title>Node2</title>
<g id="a_node2"><a xlink:href="classmemoryoracle_1_1instance_1_1Call.html#a137229871fdddd36ca6ddc4300901d58" target="_top" xlink:title="memoryoracle.instance.Call.\l__init__">
<polygon fill="none" stroke="black" points="244.5,-245.5 244.5,-275.5 397.5,-275.5 397.5,-245.5 244.5,-245.5"/>
<text text-anchor="start" x="252.5" y="-263.5" font-family="Helvetica,sans-Serif" font-size="10.00">memoryoracle.instance.Call.</text>
<text text-anchor="middle" x="321" y="-252.5" font-family="Helvetica,sans-Serif" font-size="10.00">__init__</text>
</a>
</g>
</g>
<!-- Node1&#45;&gt;Node2 -->
<g id="edge1" class="edge"><title>Node1&#45;&gt;Node2</title>
<path fill="none" stroke="midnightblue" d="M116.78,-154.216C141.017,-176.141 186.624,-214.409 232,-236.5 238.977,-239.897 246.507,-242.872 254.122,-245.463"/>
<polygon fill="midnightblue" stroke="midnightblue" points="118.867,-151.381 109.134,-147.196 114.133,-156.537 118.867,-151.381"/>
</g>
<!-- Node3 -->
<g id="node3" class="node"><title>Node3</title>
<g id="a_node3"><a xlink:href="classmemoryoracle_1_1instance_1_1StructureInstance.html#a57c0ed2139601ff071792d8415e0e02a" target="_top" xlink:title="memoryoracle.instance.Structure\lInstance.__init__">
<polygon fill="none" stroke="black" points="232,-196.5 232,-226.5 410,-226.5 410,-196.5 232,-196.5"/>
<text text-anchor="start" x="240" y="-214.5" font-family="Helvetica,sans-Serif" font-size="10.00">memoryoracle.instance.Structure</text>
<text text-anchor="middle" x="321" y="-203.5" font-family="Helvetica,sans-Serif" font-size="10.00">Instance.__init__</text>
</a>
</g>
</g>
<!-- Node1&#45;&gt;Node3 -->
<g id="edge2" class="edge"><title>Node1&#45;&gt;Node3</title>
<path fill="none" stroke="midnightblue" d="M131.932,-150.861C158.664,-161.468 197.453,-176.322 232,-187.5 241.492,-190.571 251.642,-193.584 261.55,-196.382"/>
<polygon fill="midnightblue" stroke="midnightblue" points="132.896,-147.477 122.311,-147.02 130.3,-153.978 132.896,-147.477"/>
</g>
<!-- Node4 -->
<g id="node4" class="node"><title>Node4</title>
<g id="a_node4"><a xlink:href="classmemoryoracle_1_1instance_1_1Array.html#a8277986d6c1f0c7993abb5b2125a9fbd" target="_top" xlink:title="memoryoracle.instance.Array.\l__init__">
<polygon fill="none" stroke="black" points="241,-147.5 241,-177.5 401,-177.5 401,-147.5 241,-147.5"/>
<text text-anchor="start" x="249" y="-165.5" font-family="Helvetica,sans-Serif" font-size="10.00">memoryoracle.instance.Array.</text>
<text text-anchor="middle" x="321" y="-154.5" font-family="Helvetica,sans-Serif" font-size="10.00">__init__</text>
</a>
</g>
</g>
<!-- Node1&#45;&gt;Node4 -->
<g id="edge3" class="edge"><title>Node1&#45;&gt;Node4</title>
<path fill="none" stroke="midnightblue" d="M193.465,-148.186C209.233,-149.97 225.446,-151.804 240.783,-153.539"/>
<polygon fill="midnightblue" stroke="midnightblue" points="193.511,-144.669 183.181,-147.023 192.724,-151.625 193.511,-144.669"/>
</g>
<!-- Node5 -->
<g id="node5" class="node"><title>Node5</title>
<g id="a_node5"><a xlink:href="classmemoryoracle_1_1instance_1_1Pointer.html#adab8c874f676b0cd3155091725e2dba2" target="_top" xlink:title="memoryoracle.instance.Pointer.\l__init__">
<polygon fill="none" stroke="black" points="236.5,-98.5 236.5,-128.5 405.5,-128.5 405.5,-98.5 236.5,-98.5"/>
<text text-anchor="start" x="244.5" y="-116.5" font-family="Helvetica,sans-Serif" font-size="10.00">memoryoracle.instance.Pointer.</text>
<text text-anchor="middle" x="321" y="-105.5" font-family="Helvetica,sans-Serif" font-size="10.00">__init__</text>
</a>
</g>
</g>
<!-- Node1&#45;&gt;Node5 -->
<g id="edge4" class="edge"><title>Node1&#45;&gt;Node5</title>
<path fill="none" stroke="midnightblue" d="M196.724,-126.887C209.961,-125.45 223.446,-123.986 236.405,-122.578"/>
<polygon fill="midnightblue" stroke="midnightblue" points="196.226,-123.421 186.662,-127.98 196.982,-130.38 196.226,-123.421"/>
</g>
<!-- Node6 -->
<g id="node6" class="node"><title>Node6</title>
<g id="a_node6"><a xlink:href="classmemoryoracle_1_1instance_1_1Int.html#a8d393e154c88186d0aaffd262b894b2f" target="_top" xlink:title="memoryoracle.instance.Int.\l__init__">
<polygon fill="none" stroke="black" points="247,-49.5 247,-79.5 395,-79.5 395,-49.5 247,-49.5"/>
<text text-anchor="start" x="255" y="-67.5" font-family="Helvetica,sans-Serif" font-size="10.00">memoryoracle.instance.Int.</text>
<text text-anchor="middle" x="321" y="-56.5" font-family="Helvetica,sans-Serif" font-size="10.00">__init__</text>
</a>
</g>
</g>
<!-- Node1&#45;&gt;Node6 -->
<g id="edge5" class="edge"><title>Node1&#45;&gt;Node6</title>
<path fill="none" stroke="midnightblue" d="M133.478,-124.311C160.195,-114.272 198.228,-100.377 232,-89.5 242.582,-86.0918 253.957,-82.6782 264.9,-79.5171"/>
<polygon fill="midnightblue" stroke="midnightblue" points="131.944,-121.149 123.825,-127.955 134.417,-127.697 131.944,-121.149"/>
</g>
<!-- Node7 -->
<g id="node7" class="node"><title>Node7</title>
<g id="a_node7"><a xlink:href="classmemoryoracle_1_1instance_1_1Float.html#a4eed46d4b53a21673c6fe52c26f7bd39" target="_top" xlink:title="memoryoracle.instance.Float.\l__init__">
<polygon fill="none" stroke="black" points="241.5,-0.5 241.5,-30.5 400.5,-30.5 400.5,-0.5 241.5,-0.5"/>
<text text-anchor="start" x="249.5" y="-18.5" font-family="Helvetica,sans-Serif" font-size="10.00">memoryoracle.instance.Float.</text>
<text text-anchor="middle" x="321" y="-7.5" font-family="Helvetica,sans-Serif" font-size="10.00">__init__</text>
</a>
</g>
</g>
<!-- Node1&#45;&gt;Node7 -->
<g id="edge6" class="edge"><title>Node1&#45;&gt;Node7</title>
<path fill="none" stroke="midnightblue" d="M117.254,-120.884C141.694,-99.4519 187.187,-62.3391 232,-40.5 239.71,-36.7428 248.082,-33.4583 256.495,-30.6142"/>
<polygon fill="midnightblue" stroke="midnightblue" points="114.669,-118.5 109.523,-127.761 119.321,-123.73 114.669,-118.5"/>
</g>
</g>
</svg>
