<?xml version="1.0" encoding="UTF-8" standalone="no"?>
<!DOCTYPE svg PUBLIC "-//W3C//DTD SVG 1.1//EN"
 "http://www.w3.org/Graphics/SVG/1.1/DTD/svg11.dtd">
<!-- Generated by graphviz version 2.38.0 (20140413.2041)
 -->
<!-- Title: memoryoracle.tracked.Symbol Pages: 1 -->
<svg width="933pt" height="674pt"
 viewBox="0.00 0.00 933.00 674.00" xmlns="http://www.w3.org/2000/svg" xmlns:xlink="http://www.w3.org/1999/xlink">
<g id="graph0" class="graph" transform="scale(1 1) rotate(0) translate(4 670)">
<title>memoryoracle.tracked.Symbol</title>
<!-- Node1 -->
<g id="node1" class="node"><title>Node1</title>
<polygon fill="#bfbfbf" stroke="black" points="422,-420.5 422,-477.5 586,-477.5 586,-420.5 422,-420.5"/>
<text text-anchor="middle" x="504" y="-465.5" font-family="Helvetica,sans-Serif" font-size="10.00">memoryoracle.tracked.Symbol</text>
<polyline fill="none" stroke="black" points="422,-458.5 586,-458.5 "/>
<text text-anchor="middle" x="504" y="-446.5" font-family="Helvetica,sans-Serif" font-size="10.00"> </text>
<polyline fill="none" stroke="black" points="422,-439.5 586,-439.5 "/>
<text text-anchor="middle" x="504" y="-427.5" font-family="Helvetica,sans-Serif" font-size="10.00"> </text>
</g>
<!-- Node4 -->
<g id="node4" class="node"><title>Node4</title>
<g id="a_node4"><a xlink:href="classmemoryoracle_1_1templatable_1_1Templatable.html" target="_top" xlink:title="{memoryoracle.templatable.\lTemplatable\n||}">
<polygon fill="none" stroke="black" points="252,-315.5 252,-383.5 402,-383.5 402,-315.5 252,-315.5"/>
<text text-anchor="start" x="260" y="-371.5" font-family="Helvetica,sans-Serif" font-size="10.00">memoryoracle.templatable.</text>
<text text-anchor="middle" x="327" y="-360.5" font-family="Helvetica,sans-Serif" font-size="10.00">Templatable</text>
<polyline fill="none" stroke="black" points="252,-353.5 402,-353.5 "/>
<text text-anchor="middle" x="327" y="-341.5" font-family="Helvetica,sans-Serif" font-size="10.00"> </text>
<polyline fill="none" stroke="black" points="252,-334.5 402,-334.5 "/>
<text text-anchor="middle" x="327" y="-322.5" font-family="Helvetica,sans-Serif" font-size="10.00"> </text>
</a>
</g>
</g>
<!-- Node1&#45;&gt;Node4 -->
<g id="edge3" class="edge"><title>Node1&#45;&gt;Node4</title>
<path fill="none" stroke="midnightblue" d="M444.81,-415.395C426.243,-405.168 405.735,-393.871 387.105,-383.609"/>
<polygon fill="none" stroke="midnightblue" points="443.305,-418.562 453.752,-420.321 446.682,-412.431 443.305,-418.562"/>
</g>
<!-- Node15 -->
<g id="node15" class="node"><title>Node15</title>
<g id="a_node15"><a xlink:href="classmemoryoracle_1_1tracked_1_1Function.html" target="_top" xlink:title="{memoryoracle.tracked.Function\n||}">
<polygon fill="none" stroke="black" points="420,-321 420,-378 588,-378 588,-321 420,-321"/>
<text text-anchor="middle" x="504" y="-366" font-family="Helvetica,sans-Serif" font-size="10.00">memoryoracle.tracked.Function</text>
<polyline fill="none" stroke="black" points="420,-359 588,-359 "/>
<text text-anchor="middle" x="504" y="-347" font-family="Helvetica,sans-Serif" font-size="10.00"> </text>
<polyline fill="none" stroke="black" points="420,-340 588,-340 "/>
<text text-anchor="middle" x="504" y="-328" font-family="Helvetica,sans-Serif" font-size="10.00"> </text>
</a>
</g>
</g>
<!-- Node1&#45;&gt;Node15 -->
<g id="edge14" class="edge"><title>Node1&#45;&gt;Node15</title>
<path fill="none" stroke="midnightblue" d="M504,-410.043C504,-399.447 504,-388.135 504,-378.248"/>
<polygon fill="none" stroke="midnightblue" points="500.5,-410.321 504,-420.321 507.5,-410.321 500.5,-410.321"/>
</g>
<!-- Node16 -->
<g id="node16" class="node"><title>Node16</title>
<g id="a_node16"><a xlink:href="classmemoryoracle_1_1tracked_1_1Variable.html" target="_top" xlink:title="{memoryoracle.tracked.Variable\n||}">
<polygon fill="none" stroke="black" points="605.5,-321 605.5,-378 772.5,-378 772.5,-321 605.5,-321"/>
<text text-anchor="middle" x="689" y="-366" font-family="Helvetica,sans-Serif" font-size="10.00">memoryoracle.tracked.Variable</text>
<polyline fill="none" stroke="black" points="605.5,-359 772.5,-359 "/>
<text text-anchor="middle" x="689" y="-347" font-family="Helvetica,sans-Serif" font-size="10.00"> </text>
<polyline fill="none" stroke="black" points="605.5,-340 772.5,-340 "/>
<text text-anchor="middle" x="689" y="-328" font-family="Helvetica,sans-Serif" font-size="10.00"> </text>
</a>
</g>
</g>
<!-- Node1&#45;&gt;Node16 -->
<g id="edge15" class="edge"><title>Node1&#45;&gt;Node16</title>
<path fill="none" stroke="midnightblue" d="M565.529,-415.573C588.579,-403.424 614.53,-389.748 636.67,-378.079"/>
<polygon fill="none" stroke="midnightblue" points="563.733,-412.562 556.519,-420.321 566.997,-418.755 563.733,-412.562"/>
</g>
<!-- Node2 -->
<g id="node2" class="node"><title>Node2</title>
<g id="a_node2"><a xlink:href="classmemoryoracle_1_1tracked_1_1Tracked.html" target="_top" xlink:title="{memoryoracle.tracked.Tracked\n||}">
<polygon fill="none" stroke="black" points="422,-514.5 422,-571.5 586,-571.5 586,-514.5 422,-514.5"/>
<text text-anchor="middle" x="504" y="-559.5" font-family="Helvetica,sans-Serif" font-size="10.00">memoryoracle.tracked.Tracked</text>
<polyline fill="none" stroke="black" points="422,-552.5 586,-552.5 "/>
<text text-anchor="middle" x="504" y="-540.5" font-family="Helvetica,sans-Serif" font-size="10.00"> </text>
<polyline fill="none" stroke="black" points="422,-533.5 586,-533.5 "/>
<text text-anchor="middle" x="504" y="-521.5" font-family="Helvetica,sans-Serif" font-size="10.00"> </text>
</a>
</g>
</g>
<!-- Node2&#45;&gt;Node1 -->
<g id="edge1" class="edge"><title>Node2&#45;&gt;Node1</title>
<path fill="none" stroke="midnightblue" d="M504,-504.209C504,-495.293 504,-485.951 504,-477.584"/>
<polygon fill="none" stroke="midnightblue" points="500.5,-504.397 504,-514.397 507.5,-504.397 500.5,-504.397"/>
</g>
<!-- Node3 -->
<g id="node3" class="node"><title>Node3</title>
<polygon fill="none" stroke="#bfbfbf" points="481,-608.5 481,-665.5 527,-665.5 527,-608.5 481,-608.5"/>
<text text-anchor="middle" x="504" y="-653.5" font-family="Helvetica,sans-Serif" font-size="10.00">object</text>
<polyline fill="none" stroke="#bfbfbf" points="481,-646.5 527,-646.5 "/>
<text text-anchor="middle" x="504" y="-634.5" font-family="Helvetica,sans-Serif" font-size="10.00"> </text>
<polyline fill="none" stroke="#bfbfbf" points="481,-627.5 527,-627.5 "/>
<text text-anchor="middle" x="504" y="-615.5" font-family="Helvetica,sans-Serif" font-size="10.00"> </text>
</g>
<!-- Node3&#45;&gt;Node2 -->
<g id="edge2" class="edge"><title>Node3&#45;&gt;Node2</title>
<path fill="none" stroke="midnightblue" d="M504,-598.209C504,-589.293 504,-579.951 504,-571.584"/>
<polygon fill="none" stroke="midnightblue" points="500.5,-598.397 504,-608.397 507.5,-598.397 500.5,-598.397"/>
</g>
<!-- Node5 -->
<g id="node5" class="node"><title>Node5</title>
<g id="a_node5"><a xlink:href="classmemoryoracle_1_1templatable_1_1Alias.html" target="_top" xlink:title="{memoryoracle.templatable.\lAlias\n||}">
<polygon fill="none" stroke="black" points="0,-210.5 0,-278.5 150,-278.5 150,-210.5 0,-210.5"/>
<text text-anchor="start" x="8" y="-266.5" font-family="Helvetica,sans-Serif" font-size="10.00">memoryoracle.templatable.</text>
<text text-anchor="middle" x="75" y="-255.5" font-family="Helvetica,sans-Serif" font-size="10.00">Alias</text>
<polyline fill="none" stroke="black" points="0,-248.5 150,-248.5 "/>
<text text-anchor="middle" x="75" y="-236.5" font-family="Helvetica,sans-Serif" font-size="10.00"> </text>
<polyline fill="none" stroke="black" points="0,-229.5 150,-229.5 "/>
<text text-anchor="middle" x="75" y="-217.5" font-family="Helvetica,sans-Serif" font-size="10.00"> </text>
</a>
</g>
</g>
<!-- Node4&#45;&gt;Node5 -->
<g id="edge4" class="edge"><title>Node4&#45;&gt;Node5</title>
<path fill="none" stroke="midnightblue" d="M242.202,-313.841C212.444,-301.678 179.241,-288.106 150.314,-276.283"/>
<polygon fill="none" stroke="midnightblue" points="241.152,-317.192 251.733,-317.736 243.801,-310.713 241.152,-317.192"/>
</g>
<!-- Node7 -->
<g id="node7" class="node"><title>Node7</title>
<g id="a_node7"><a xlink:href="classmemoryoracle_1_1templatable_1_1TemplatedDecorator.html" target="_top" xlink:title="{memoryoracle.templatable.\lTemplatedDecorator\n||}">
<polygon fill="none" stroke="black" points="168,-210.5 168,-278.5 318,-278.5 318,-210.5 168,-210.5"/>
<text text-anchor="start" x="176" y="-266.5" font-family="Helvetica,sans-Serif" font-size="10.00">memoryoracle.templatable.</text>
<text text-anchor="middle" x="243" y="-255.5" font-family="Helvetica,sans-Serif" font-size="10.00">TemplatedDecorator</text>
<polyline fill="none" stroke="black" points="168,-248.5 318,-248.5 "/>
<text text-anchor="middle" x="243" y="-236.5" font-family="Helvetica,sans-Serif" font-size="10.00"> </text>
<polyline fill="none" stroke="black" points="168,-229.5 318,-229.5 "/>
<text text-anchor="middle" x="243" y="-217.5" font-family="Helvetica,sans-Serif" font-size="10.00"> </text>
</a>
</g>
</g>
<!-- Node4&#45;&gt;Node7 -->
<g id="edge6" class="edge"><title>Node4&#45;&gt;Node7</title>
<path fill="none" stroke="midnightblue" d="M293.518,-307.445C285.704,-297.864 277.48,-287.78 269.99,-278.595"/>
<polygon fill="none" stroke="midnightblue" points="290.927,-309.806 299.959,-315.343 296.352,-305.382 290.927,-309.806"/>
</g>
<!-- Node8 -->
<g id="node8" class="node"><title>Node8</title>
<g id="a_node8"><a xlink:href="classmemoryoracle_1_1templatable_1_1TemplateDecorator.html" target="_top" xlink:title="{memoryoracle.templatable.\lTemplateDecorator\n||}">
<polygon fill="none" stroke="black" points="336,-210.5 336,-278.5 486,-278.5 486,-210.5 336,-210.5"/>
<text text-anchor="start" x="344" y="-266.5" font-family="Helvetica,sans-Serif" font-size="10.00">memoryoracle.templatable.</text>
<text text-anchor="middle" x="411" y="-255.5" font-family="Helvetica,sans-Serif" font-size="10.00">TemplateDecorator</text>
<polyline fill="none" stroke="black" points="336,-248.5 486,-248.5 "/>
<text text-anchor="middle" x="411" y="-236.5" font-family="Helvetica,sans-Serif" font-size="10.00"> </text>
<polyline fill="none" stroke="black" points="336,-229.5 486,-229.5 "/>
<text text-anchor="middle" x="411" y="-217.5" font-family="Helvetica,sans-Serif" font-size="10.00"> </text>
</a>
</g>
</g>
<!-- Node4&#45;&gt;Node8 -->
<g id="edge7" class="edge"><title>Node4&#45;&gt;Node8</title>
<path fill="none" stroke="midnightblue" d="M360.482,-307.445C368.296,-297.864 376.52,-287.78 384.01,-278.595"/>
<polygon fill="none" stroke="midnightblue" points="357.648,-305.382 354.041,-315.343 363.073,-309.806 357.648,-305.382"/>
</g>
<!-- Node9 -->
<g id="node9" class="node"><title>Node9</title>
<g id="a_node9"><a xlink:href="classmemoryoracle_1_1templatable_1_1Type.html" target="_top" xlink:title="{memoryoracle.templatable.Type\n||}">
<polygon fill="none" stroke="black" points="504.5,-216 504.5,-273 675.5,-273 675.5,-216 504.5,-216"/>
<text text-anchor="middle" x="590" y="-261" font-family="Helvetica,sans-Serif" font-size="10.00">memoryoracle.templatable.Type</text>
<polyline fill="none" stroke="black" points="504.5,-254 675.5,-254 "/>
<text text-anchor="middle" x="590" y="-242" font-family="Helvetica,sans-Serif" font-size="10.00"> </text>
<polyline fill="none" stroke="black" points="504.5,-235 675.5,-235 "/>
<text text-anchor="middle" x="590" y="-223" font-family="Helvetica,sans-Serif" font-size="10.00"> </text>
</a>
</g>
</g>
<!-- Node4&#45;&gt;Node9 -->
<g id="edge8" class="edge"><title>Node4&#45;&gt;Node9</title>
<path fill="none" stroke="midnightblue" d="M411.613,-314.768C452.019,-298.885 488.098,-284.862 518.517,-273.083"/>
<polygon fill="none" stroke="midnightblue" points="410.117,-311.595 402.092,-318.513 412.679,-318.109 410.117,-311.595"/>
</g>
<!-- Node6 -->
<g id="node6" class="node"><title>Node6</title>
<g id="a_node6"><a xlink:href="classmemoryoracle_1_1templatable_1_1Typedef.html" target="_top" xlink:title="{memoryoracle.templatable.\lTypedef\n||}">
<polygon fill="none" stroke="black" points="0,-105.5 0,-173.5 150,-173.5 150,-105.5 0,-105.5"/>
<text text-anchor="start" x="8" y="-161.5" font-family="Helvetica,sans-Serif" font-size="10.00">memoryoracle.templatable.</text>
<text text-anchor="middle" x="75" y="-150.5" font-family="Helvetica,sans-Serif" font-size="10.00">Typedef</text>
<polyline fill="none" stroke="black" points="0,-143.5 150,-143.5 "/>
<text text-anchor="middle" x="75" y="-131.5" font-family="Helvetica,sans-Serif" font-size="10.00"> </text>
<polyline fill="none" stroke="black" points="0,-124.5 150,-124.5 "/>
<text text-anchor="middle" x="75" y="-112.5" font-family="Helvetica,sans-Serif" font-size="10.00"> </text>
</a>
</g>
</g>
<!-- Node5&#45;&gt;Node6 -->
<g id="edge5" class="edge"><title>Node5&#45;&gt;Node6</title>
<path fill="none" stroke="midnightblue" d="M75,-200.136C75,-191.256 75,-182.045 75,-173.595"/>
<polygon fill="none" stroke="midnightblue" points="71.5001,-200.343 75,-210.343 78.5001,-200.343 71.5001,-200.343"/>
</g>
<!-- Node10 -->
<g id="node10" class="node"><title>Node10</title>
<g id="a_node10"><a xlink:href="classmemoryoracle_1_1templatable_1_1Enum.html" target="_top" xlink:title="{memoryoracle.templatable.Enum\n||}">
<polygon fill="none" stroke="black" points="243,-111 243,-168 421,-168 421,-111 243,-111"/>
<text text-anchor="middle" x="332" y="-156" font-family="Helvetica,sans-Serif" font-size="10.00">memoryoracle.templatable.Enum</text>
<polyline fill="none" stroke="black" points="243,-149 421,-149 "/>
<text text-anchor="middle" x="332" y="-137" font-family="Helvetica,sans-Serif" font-size="10.00"> </text>
<polyline fill="none" stroke="black" points="243,-130 421,-130 "/>
<text text-anchor="middle" x="332" y="-118" font-family="Helvetica,sans-Serif" font-size="10.00"> </text>
</a>
</g>
</g>
<!-- Node9&#45;&gt;Node10 -->
<g id="edge9" class="edge"><title>Node9&#45;&gt;Node10</title>
<path fill="none" stroke="midnightblue" d="M511.141,-212.017C476.091,-198.025 435.193,-181.697 401.33,-168.178"/>
<polygon fill="none" stroke="midnightblue" points="510.276,-215.441 520.861,-215.898 512.871,-208.94 510.276,-215.441"/>
</g>
<!-- Node11 -->
<g id="node11" class="node"><title>Node11</title>
<g id="a_node11"><a xlink:href="classmemoryoracle_1_1templatable_1_1SimpleType.html" target="_top" xlink:title="{memoryoracle.templatable.\lSimpleType\n||}">
<polygon fill="none" stroke="black" points="439,-105.5 439,-173.5 589,-173.5 589,-105.5 439,-105.5"/>
<text text-anchor="start" x="447" y="-161.5" font-family="Helvetica,sans-Serif" font-size="10.00">memoryoracle.templatable.</text>
<text text-anchor="middle" x="514" y="-150.5" font-family="Helvetica,sans-Serif" font-size="10.00">SimpleType</text>
<polyline fill="none" stroke="black" points="439,-143.5 589,-143.5 "/>
<text text-anchor="middle" x="514" y="-131.5" font-family="Helvetica,sans-Serif" font-size="10.00"> </text>
<polyline fill="none" stroke="black" points="439,-124.5 589,-124.5 "/>
<text text-anchor="middle" x="514" y="-112.5" font-family="Helvetica,sans-Serif" font-size="10.00"> </text>
</a>
</g>
</g>
<!-- Node9&#45;&gt;Node11 -->
<g id="edge10" class="edge"><title>Node9&#45;&gt;Node11</title>
<path fill="none" stroke="midnightblue" d="M563.583,-207.697C555.433,-196.652 546.497,-184.542 538.483,-173.681"/>
<polygon fill="none" stroke="midnightblue" points="560.88,-209.929 569.633,-215.898 566.512,-205.773 560.88,-209.929"/>
</g>
<!-- Node12 -->
<g id="node12" class="node"><title>Node12</title>
<g id="a_node12"><a xlink:href="classmemoryoracle_1_1templatable_1_1Structure.html" target="_top" xlink:title="{memoryoracle.templatable.\lStructure\n||}">
<polygon fill="none" stroke="black" points="607,-105.5 607,-173.5 757,-173.5 757,-105.5 607,-105.5"/>
<text text-anchor="start" x="615" y="-161.5" font-family="Helvetica,sans-Serif" font-size="10.00">memoryoracle.templatable.</text>
<text text-anchor="middle" x="682" y="-150.5" font-family="Helvetica,sans-Serif" font-size="10.00">Structure</text>
<polyline fill="none" stroke="black" points="607,-143.5 757,-143.5 "/>
<text text-anchor="middle" x="682" y="-131.5" font-family="Helvetica,sans-Serif" font-size="10.00"> </text>
<polyline fill="none" stroke="black" points="607,-124.5 757,-124.5 "/>
<text text-anchor="middle" x="682" y="-112.5" font-family="Helvetica,sans-Serif" font-size="10.00"> </text>
</a>
</g>
</g>
<!-- Node9&#45;&gt;Node12 -->
<g id="edge11" class="edge"><title>Node9&#45;&gt;Node12</title>
<path fill="none" stroke="midnightblue" d="M621.4,-208.346C631.42,-197.128 642.471,-184.755 652.362,-173.681"/>
<polygon fill="none" stroke="midnightblue" points="618.706,-206.108 614.654,-215.898 623.926,-210.771 618.706,-206.108"/>
</g>
<!-- Node14 -->
<g id="node14" class="node"><title>Node14</title>
<g id="a_node14"><a xlink:href="classmemoryoracle_1_1templatable_1_1Union.html" target="_top" xlink:title="{memoryoracle.templatable.\lUnion\n||}">
<polygon fill="none" stroke="black" points="775,-105.5 775,-173.5 925,-173.5 925,-105.5 775,-105.5"/>
<text text-anchor="start" x="783" y="-161.5" font-family="Helvetica,sans-Serif" font-size="10.00">memoryoracle.templatable.</text>
<text text-anchor="middle" x="850" y="-150.5" font-family="Helvetica,sans-Serif" font-size="10.00">Union</text>
<polyline fill="none" stroke="black" points="775,-143.5 925,-143.5 "/>
<text text-anchor="middle" x="850" y="-131.5" font-family="Helvetica,sans-Serif" font-size="10.00"> </text>
<polyline fill="none" stroke="black" points="775,-124.5 925,-124.5 "/>
<text text-anchor="middle" x="850" y="-112.5" font-family="Helvetica,sans-Serif" font-size="10.00"> </text>
</a>
</g>
</g>
<!-- Node9&#45;&gt;Node14 -->
<g id="edge13" class="edge"><title>Node9&#45;&gt;Node14</title>
<path fill="none" stroke="midnightblue" d="M669.471,-212.184C699.701,-200.254 734.452,-186.52 766,-174 768.919,-172.842 771.894,-171.66 774.899,-170.466"/>
<polygon fill="none" stroke="midnightblue" points="667.843,-209.064 659.825,-215.99 670.412,-215.575 667.843,-209.064"/>
</g>
<!-- Node13 -->
<g id="node13" class="node"><title>Node13</title>
<g id="a_node13"><a xlink:href="classmemoryoracle_1_1templatable_1_1StronglyTypedEnum.html" target="_top" xlink:title="{memoryoracle.templatable.\lStronglyTypedEnum\n||}">
<polygon fill="none" stroke="black" points="607,-0.5 607,-68.5 757,-68.5 757,-0.5 607,-0.5"/>
<text text-anchor="start" x="615" y="-56.5" font-family="Helvetica,sans-Serif" font-size="10.00">memoryoracle.templatable.</text>
<text text-anchor="middle" x="682" y="-45.5" font-family="Helvetica,sans-Serif" font-size="10.00">StronglyTypedEnum</text>
<polyline fill="none" stroke="black" points="607,-38.5 757,-38.5 "/>
<text text-anchor="middle" x="682" y="-26.5" font-family="Helvetica,sans-Serif" font-size="10.00"> </text>
<polyline fill="none" stroke="black" points="607,-19.5 757,-19.5 "/>
<text text-anchor="middle" x="682" y="-7.5" font-family="Helvetica,sans-Serif" font-size="10.00"> </text>
</a>
</g>
</g>
<!-- Node12&#45;&gt;Node13 -->
<g id="edge12" class="edge"><title>Node12&#45;&gt;Node13</title>
<path fill="none" stroke="midnightblue" d="M682,-95.1362C682,-86.256 682,-77.0447 682,-68.5947"/>
<polygon fill="none" stroke="midnightblue" points="678.5,-95.3432 682,-105.343 685.5,-95.3432 678.5,-95.3432"/>
</g>
</g>
</svg>
