<?xml version="1.0" encoding="UTF-8" standalone="no"?>
<!DOCTYPE svg PUBLIC "-//W3C//DTD SVG 1.1//EN"
 "http://www.w3.org/Graphics/SVG/1.1/DTD/svg11.dtd">
<!-- Generated by graphviz version 2.38.0 (20140413.2041)
 -->
<!-- Title: memoryoracle.symbol.Structure Pages: 1 -->
<svg width="180pt" height="674pt"
 viewBox="0.00 0.00 180.00 674.00" xmlns="http://www.w3.org/2000/svg" xmlns:xlink="http://www.w3.org/1999/xlink">
<g id="graph0" class="graph" transform="scale(1 1) rotate(0) translate(4 670)">
<title>memoryoracle.symbol.Structure</title>
<!-- Node1 -->
<g id="node1" class="node"><title>Node1</title>
<polygon fill="#bfbfbf" stroke="black" points="0,-105.5 0,-162.5 172,-162.5 172,-105.5 0,-105.5"/>
<text text-anchor="middle" x="86" y="-150.5" font-family="Helvetica,sans-Serif" font-size="10.00">memoryoracle.symbol.Structure</text>
<polyline fill="none" stroke="black" points="0,-143.5 172,-143.5 "/>
<text text-anchor="middle" x="86" y="-131.5" font-family="Helvetica,sans-Serif" font-size="10.00"> </text>
<polyline fill="none" stroke="black" points="0,-124.5 172,-124.5 "/>
<text text-anchor="middle" x="86" y="-112.5" font-family="Helvetica,sans-Serif" font-size="10.00"> </text>
</g>
<!-- Node7 -->
<g id="node7" class="node"><title>Node7</title>
<g id="a_node7"><a xlink:href="classmemoryoracle_1_1symbol_1_1StronglyTypedEnum.html" target="_top" xlink:title="{memoryoracle.symbol.Strongly\lTypedEnum\n||}">
<polygon fill="none" stroke="black" points="2.5,-0.5 2.5,-68.5 169.5,-68.5 169.5,-0.5 2.5,-0.5"/>
<text text-anchor="start" x="10.5" y="-56.5" font-family="Helvetica,sans-Serif" font-size="10.00">memoryoracle.symbol.Strongly</text>
<text text-anchor="middle" x="86" y="-45.5" font-family="Helvetica,sans-Serif" font-size="10.00">TypedEnum</text>
<polyline fill="none" stroke="black" points="2.5,-38.5 169.5,-38.5 "/>
<text text-anchor="middle" x="86" y="-26.5" font-family="Helvetica,sans-Serif" font-size="10.00"> </text>
<polyline fill="none" stroke="black" points="2.5,-19.5 169.5,-19.5 "/>
<text text-anchor="middle" x="86" y="-7.5" font-family="Helvetica,sans-Serif" font-size="10.00"> </text>
</a>
</g>
</g>
<!-- Node1&#45;&gt;Node7 -->
<g id="edge6" class="edge"><title>Node1&#45;&gt;Node7</title>
<path fill="none" stroke="midnightblue" d="M86,-95.0631C86,-86.3933 86,-77.2431 86,-68.7855"/>
<polygon fill="none" stroke="midnightblue" points="82.5001,-95.3212 86,-105.321 89.5001,-95.3212 82.5001,-95.3212"/>
</g>
<!-- Node2 -->
<g id="node2" class="node"><title>Node2</title>
<g id="a_node2"><a xlink:href="classmemoryoracle_1_1symbol_1_1Type.html" target="_top" xlink:title="{memoryoracle.symbol.Type\n||}">
<polygon fill="none" stroke="black" points="12,-199.5 12,-256.5 160,-256.5 160,-199.5 12,-199.5"/>
<text text-anchor="middle" x="86" y="-244.5" font-family="Helvetica,sans-Serif" font-size="10.00">memoryoracle.symbol.Type</text>
<polyline fill="none" stroke="black" points="12,-237.5 160,-237.5 "/>
<text text-anchor="middle" x="86" y="-225.5" font-family="Helvetica,sans-Serif" font-size="10.00"> </text>
<polyline fill="none" stroke="black" points="12,-218.5 160,-218.5 "/>
<text text-anchor="middle" x="86" y="-206.5" font-family="Helvetica,sans-Serif" font-size="10.00"> </text>
</a>
</g>
</g>
<!-- Node2&#45;&gt;Node1 -->
<g id="edge1" class="edge"><title>Node2&#45;&gt;Node1</title>
<path fill="none" stroke="midnightblue" d="M86,-189.209C86,-180.293 86,-170.951 86,-162.584"/>
<polygon fill="none" stroke="midnightblue" points="82.5001,-189.397 86,-199.397 89.5001,-189.397 82.5001,-189.397"/>
</g>
<!-- Node3 -->
<g id="node3" class="node"><title>Node3</title>
<g id="a_node3"><a xlink:href="classmemoryoracle_1_1symbol_1_1Symbol.html" target="_top" xlink:title="{memoryoracle.symbol.Symbol\n||}">
<polygon fill="none" stroke="black" points="4.5,-293.5 4.5,-350.5 167.5,-350.5 167.5,-293.5 4.5,-293.5"/>
<text text-anchor="middle" x="86" y="-338.5" font-family="Helvetica,sans-Serif" font-size="10.00">memoryoracle.symbol.Symbol</text>
<polyline fill="none" stroke="black" points="4.5,-331.5 167.5,-331.5 "/>
<text text-anchor="middle" x="86" y="-319.5" font-family="Helvetica,sans-Serif" font-size="10.00"> </text>
<polyline fill="none" stroke="black" points="4.5,-312.5 167.5,-312.5 "/>
<text text-anchor="middle" x="86" y="-300.5" font-family="Helvetica,sans-Serif" font-size="10.00"> </text>
</a>
</g>
</g>
<!-- Node3&#45;&gt;Node2 -->
<g id="edge2" class="edge"><title>Node3&#45;&gt;Node2</title>
<path fill="none" stroke="midnightblue" d="M86,-283.209C86,-274.293 86,-264.951 86,-256.584"/>
<polygon fill="none" stroke="midnightblue" points="82.5001,-283.397 86,-293.397 89.5001,-283.397 82.5001,-283.397"/>
</g>
<!-- Node4 -->
<g id="node4" class="node"><title>Node4</title>
<g id="a_node4"><a xlink:href="classmemoryoracle_1_1typed_1_1Typed.html" target="_top" xlink:title="{memoryoracle.typed.Typed\n||+ type_code()\l+ gdb_type()\l+ object()\l}">
<polygon fill="none" stroke="black" points="13,-387.5 13,-466.5 159,-466.5 159,-387.5 13,-387.5"/>
<text text-anchor="middle" x="86" y="-454.5" font-family="Helvetica,sans-Serif" font-size="10.00">memoryoracle.typed.Typed</text>
<polyline fill="none" stroke="black" points="13,-447.5 159,-447.5 "/>
<text text-anchor="middle" x="86" y="-435.5" font-family="Helvetica,sans-Serif" font-size="10.00"> </text>
<polyline fill="none" stroke="black" points="13,-428.5 159,-428.5 "/>
<text text-anchor="start" x="21" y="-416.5" font-family="Helvetica,sans-Serif" font-size="10.00">+ type_code()</text>
<text text-anchor="start" x="21" y="-405.5" font-family="Helvetica,sans-Serif" font-size="10.00">+ gdb_type()</text>
<text text-anchor="start" x="21" y="-394.5" font-family="Helvetica,sans-Serif" font-size="10.00">+ object()</text>
</a>
</g>
</g>
<!-- Node4&#45;&gt;Node3 -->
<g id="edge3" class="edge"><title>Node4&#45;&gt;Node3</title>
<path fill="none" stroke="midnightblue" d="M86,-377.163C86,-368.04 86,-358.806 86,-350.61"/>
<polygon fill="none" stroke="midnightblue" points="82.5001,-377.354 86,-387.354 89.5001,-377.354 82.5001,-377.354"/>
</g>
<!-- Node5 -->
<g id="node5" class="node"><title>Node5</title>
<g id="a_node5"><a xlink:href="classmemoryoracle_1_1tracked_1_1Tracked.html" target="_top" xlink:title="{memoryoracle.tracked.Tracked\n|+ meta\l|+ track()\l+ description()\l}">
<polygon fill="none" stroke="black" points="4,-503.5 4,-571.5 168,-571.5 168,-503.5 4,-503.5"/>
<text text-anchor="middle" x="86" y="-559.5" font-family="Helvetica,sans-Serif" font-size="10.00">memoryoracle.tracked.Tracked</text>
<polyline fill="none" stroke="black" points="4,-552.5 168,-552.5 "/>
<text text-anchor="start" x="12" y="-540.5" font-family="Helvetica,sans-Serif" font-size="10.00">+ meta</text>
<polyline fill="none" stroke="black" points="4,-533.5 168,-533.5 "/>
<text text-anchor="start" x="12" y="-521.5" font-family="Helvetica,sans-Serif" font-size="10.00">+ track()</text>
<text text-anchor="start" x="12" y="-510.5" font-family="Helvetica,sans-Serif" font-size="10.00">+ description()</text>
</a>
</g>
</g>
<!-- Node5&#45;&gt;Node4 -->
<g id="edge4" class="edge"><title>Node5&#45;&gt;Node4</title>
<path fill="none" stroke="midnightblue" d="M86,-493.274C86,-484.476 86,-475.275 86,-466.649"/>
<polygon fill="none" stroke="midnightblue" points="82.5001,-493.357 86,-503.357 89.5001,-493.357 82.5001,-493.357"/>
</g>
<!-- Node6 -->
<g id="node6" class="node"><title>Node6</title>
<polygon fill="none" stroke="#bfbfbf" points="52.5,-608.5 52.5,-665.5 119.5,-665.5 119.5,-608.5 52.5,-608.5"/>
<text text-anchor="middle" x="86" y="-653.5" font-family="Helvetica,sans-Serif" font-size="10.00">Document</text>
<polyline fill="none" stroke="#bfbfbf" points="52.5,-646.5 119.5,-646.5 "/>
<text text-anchor="middle" x="86" y="-634.5" font-family="Helvetica,sans-Serif" font-size="10.00"> </text>
<polyline fill="none" stroke="#bfbfbf" points="52.5,-627.5 119.5,-627.5 "/>
<text text-anchor="middle" x="86" y="-615.5" font-family="Helvetica,sans-Serif" font-size="10.00"> </text>
</g>
<!-- Node6&#45;&gt;Node5 -->
<g id="edge5" class="edge"><title>Node6&#45;&gt;Node5</title>
<path fill="none" stroke="midnightblue" d="M86,-598.063C86,-589.393 86,-580.243 86,-571.786"/>
<polygon fill="none" stroke="midnightblue" points="82.5001,-598.321 86,-608.321 89.5001,-598.321 82.5001,-598.321"/>
</g>
</g>
</svg>
