<?xml version="1.0" encoding="UTF-8" standalone="no"?>
<!DOCTYPE svg PUBLIC "-//W3C//DTD SVG 1.1//EN"
 "http://www.w3.org/Graphics/SVG/1.1/DTD/svg11.dtd">
<!-- Generated by graphviz version 2.38.0 (20140413.2041)
 -->
<!-- Title: memoryoracle.instance.Instance.description Pages: 1 -->
<svg width="903pt" height="116pt"
 viewBox="0.00 0.00 903.00 116.00" xmlns="http://www.w3.org/2000/svg" xmlns:xlink="http://www.w3.org/1999/xlink">
<g id="graph0" class="graph" transform="scale(1 1) rotate(0) translate(4 112)">
<title>memoryoracle.instance.Instance.description</title>
<!-- Node1 -->
<g id="node1" class="node"><title>Node1</title>
<polygon fill="#bfbfbf" stroke="black" points="0,-25.5 0,-44.5 229,-44.5 229,-25.5 0,-25.5"/>
<text text-anchor="middle" x="114.5" y="-32.5" font-family="Helvetica,sans-Serif" font-size="10.00">memoryoracle.instance.Instance.description</text>
</g>
<!-- Node2 -->
<g id="node2" class="node"><title>Node2</title>
<g id="a_node2"><a xlink:href="classmemoryoracle_1_1instance_1_1Int.html#a38c9424341353f006771163d360594da" target="_top" xlink:title="memoryoracle.instance.Int.\l_track">
<polygon fill="none" stroke="black" points="265,-20 265,-50 413,-50 413,-20 265,-20"/>
<text text-anchor="start" x="273" y="-38" font-family="Helvetica,sans-Serif" font-size="10.00">memoryoracle.instance.Int.</text>
<text text-anchor="middle" x="339" y="-27" font-family="Helvetica,sans-Serif" font-size="10.00">_track</text>
</a>
</g>
</g>
<!-- Node1&#45;&gt;Node2 -->
<g id="edge1" class="edge"><title>Node1&#45;&gt;Node2</title>
<path fill="none" stroke="midnightblue" d="M239.315,-35C248.045,-35 256.671,-35 264.973,-35"/>
<polygon fill="midnightblue" stroke="midnightblue" points="239.031,-31.5001 229.031,-35 239.031,-38.5001 239.031,-31.5001"/>
</g>
<!-- Node3 -->
<g id="node3" class="node"><title>Node3</title>
<g id="a_node3"><a xlink:href="classmemoryoracle_1_1instance_1_1Instance.html#a86649e01ee4f562debdba5421a334f78" target="_top" xlink:title="memoryoracle.instance.Instance.track">
<polygon fill="none" stroke="black" points="449,-44.5 449,-63.5 649,-63.5 649,-44.5 449,-44.5"/>
<text text-anchor="middle" x="549" y="-51.5" font-family="Helvetica,sans-Serif" font-size="10.00">memoryoracle.instance.Instance.track</text>
</a>
</g>
</g>
<!-- Node2&#45;&gt;Node3 -->
<g id="edge2" class="edge"><title>Node2&#45;&gt;Node3</title>
<path fill="none" stroke="midnightblue" d="M423.216,-42.6014C431.648,-43.3717 440.27,-44.1593 448.848,-44.9428"/>
<polygon fill="midnightblue" stroke="midnightblue" points="423.317,-39.0962 413.041,-41.672 422.681,-46.0672 423.317,-39.0962"/>
</g>
<!-- Node7 -->
<g id="node7" class="node"><title>Node7</title>
<g id="a_node7"><a xlink:href="classmemoryoracle_1_1models_1_1Memory.html#a27f8d94aeb19f8101c29a673c7bae4a1" target="_top" xlink:title="memoryoracle.models.Memory.track">
<polygon fill="none" stroke="black" points="453,-6.5 453,-25.5 645,-25.5 645,-6.5 453,-6.5"/>
<text text-anchor="middle" x="549" y="-13.5" font-family="Helvetica,sans-Serif" font-size="10.00">memoryoracle.models.Memory.track</text>
</a>
</g>
</g>
<!-- Node2&#45;&gt;Node7 -->
<g id="edge6" class="edge"><title>Node2&#45;&gt;Node7</title>
<path fill="none" stroke="midnightblue" d="M423.123,-27.407C432.902,-26.5137 442.938,-25.597 452.866,-24.6902"/>
<polygon fill="midnightblue" stroke="midnightblue" points="422.681,-23.9328 413.041,-28.328 423.317,-30.9038 422.681,-23.9328"/>
</g>
<!-- Node4 -->
<g id="node4" class="node"><title>Node4</title>
<g id="a_node4"><a xlink:href="classmemoryoracle_1_1instance_1_1Instance.html#a286e015a030541a0704994172024f034" target="_top" xlink:title="memoryoracle.instance.Instance.update">
<polygon fill="none" stroke="black" points="685,-88.5 685,-107.5 895,-107.5 895,-88.5 685,-88.5"/>
<text text-anchor="middle" x="790" y="-95.5" font-family="Helvetica,sans-Serif" font-size="10.00">memoryoracle.instance.Instance.update</text>
</a>
</g>
</g>
<!-- Node3&#45;&gt;Node4 -->
<g id="edge3" class="edge"><title>Node3&#45;&gt;Node4</title>
<path fill="none" stroke="midnightblue" d="M611.292,-65.3826C634.393,-69.6643 660.903,-74.5677 685,-79 701.788,-82.088 720.104,-85.4398 736.621,-88.4563"/>
<polygon fill="midnightblue" stroke="midnightblue" points="611.749,-61.9079 601.279,-63.5262 610.473,-68.7906 611.749,-61.9079"/>
</g>
<!-- Node5 -->
<g id="node5" class="node"><title>Node5</title>
<g id="a_node5"><a xlink:href="classmemoryoracle_1_1models_1_1Memory.html#a71d4a141abc3358afdf1a1325bfd4253" target="_top" xlink:title="memoryoracle.models.Memory.update">
<polygon fill="none" stroke="black" points="689,-0.5 689,-19.5 891,-19.5 891,-0.5 689,-0.5"/>
<text text-anchor="middle" x="790" y="-7.5" font-family="Helvetica,sans-Serif" font-size="10.00">memoryoracle.models.Memory.update</text>
</a>
</g>
</g>
<!-- Node3&#45;&gt;Node5 -->
<g id="edge4" class="edge"><title>Node3&#45;&gt;Node5</title>
<path fill="none" stroke="midnightblue" d="M611.292,-42.6174C634.393,-38.3357 660.903,-33.4323 685,-29 701.788,-25.912 720.104,-22.5602 736.621,-19.5437"/>
<polygon fill="midnightblue" stroke="midnightblue" points="610.473,-39.2094 601.279,-44.4738 611.749,-46.0921 610.473,-39.2094"/>
</g>
<!-- Node6 -->
<g id="node6" class="node"><title>Node6</title>
<g id="a_node6"><a xlink:href="classmemoryoracle_1_1models_1_1Memory.html#aed3af349dd80317ae9cca4b4e9cb7c26" target="_top" xlink:title="memoryoracle.models.Memory.\l__init__">
<polygon fill="none" stroke="black" points="706,-39 706,-69 874,-69 874,-39 706,-39"/>
<text text-anchor="start" x="714" y="-57" font-family="Helvetica,sans-Serif" font-size="10.00">memoryoracle.models.Memory.</text>
<text text-anchor="middle" x="790" y="-46" font-family="Helvetica,sans-Serif" font-size="10.00">__init__</text>
</a>
</g>
</g>
<!-- Node3&#45;&gt;Node6 -->
<g id="edge5" class="edge"><title>Node3&#45;&gt;Node6</title>
<path fill="none" stroke="midnightblue" d="M659.5,-54C675.117,-54 690.964,-54 705.964,-54"/>
<polygon fill="midnightblue" stroke="midnightblue" points="659.281,-50.5001 649.281,-54 659.281,-57.5001 659.281,-50.5001"/>
</g>
<!-- Node7&#45;&gt;Node5 -->
<g id="edge7" class="edge"><title>Node7&#45;&gt;Node5</title>
<path fill="none" stroke="midnightblue" d="M655.283,-13.3569C666.385,-13.0782 677.652,-12.7953 688.695,-12.5181"/>
<polygon fill="midnightblue" stroke="midnightblue" points="655.055,-9.86144 645.146,-13.6114 655.231,-16.8592 655.055,-9.86144"/>
</g>
<!-- Node7&#45;&gt;Node6 -->
<g id="edge8" class="edge"><title>Node7&#45;&gt;Node6</title>
<path fill="none" stroke="midnightblue" d="M620.097,-27.1452C646.995,-31.4218 677.946,-36.3429 705.945,-40.7947"/>
<polygon fill="midnightblue" stroke="midnightblue" points="620.427,-23.6537 610.001,-25.54 619.328,-30.5669 620.427,-23.6537"/>
</g>
</g>
</svg>
