<?xml version="1.0" encoding="UTF-8" standalone="no"?>
<!DOCTYPE svg PUBLIC "-//W3C//DTD SVG 1.1//EN"
 "http://www.w3.org/Graphics/SVG/1.1/DTD/svg11.dtd">
<!-- Generated by graphviz version 2.38.0 (20140413.2041)
 -->
<!-- Title: memoryoracle.models.Memory.__init__ Pages: 1 -->
<svg width="1109pt" height="476pt"
 viewBox="0.00 0.00 1109.00 476.00" xmlns="http://www.w3.org/2000/svg" xmlns:xlink="http://www.w3.org/1999/xlink">
<g id="graph0" class="graph" transform="scale(1 1) rotate(0) translate(4 472)">
<title>memoryoracle.models.Memory.__init__</title>
<!-- Node1 -->
<g id="node1" class="node"><title>Node1</title>
<polygon fill="#bfbfbf" stroke="black" points="0,-194 0,-224 168,-224 168,-194 0,-194"/>
<text text-anchor="start" x="8" y="-212" font-family="Helvetica,sans-Serif" font-size="10.00">memoryoracle.models.Memory.</text>
<text text-anchor="middle" x="84" y="-201" font-family="Helvetica,sans-Serif" font-size="10.00">__init__</text>
</g>
<!-- Node2 -->
<g id="node2" class="node"><title>Node2</title>
<g id="a_node2"><a xlink:href="classmemoryoracle_1_1instance_1_1Memory.html#a8951ac234fecbd6cd473133ae7e63662" target="_top" xlink:title="memoryoracle.instance.Memory.track">
<polygon fill="none" stroke="black" points="204,-221.5 204,-240.5 401,-240.5 401,-221.5 204,-221.5"/>
<text text-anchor="middle" x="302.5" y="-228.5" font-family="Helvetica,sans-Serif" font-size="10.00">memoryoracle.instance.Memory.track</text>
</a>
</g>
</g>
<!-- Node1&#45;&gt;Node2 -->
<g id="edge1" class="edge"><title>Node1&#45;&gt;Node2</title>
<path fill="none" stroke="midnightblue" d="M168.085,-217.443C177.834,-218.433 187.87,-219.453 197.855,-220.468"/>
<polygon fill="midnightblue" stroke="midnightblue" points="197.506,-223.95 207.809,-221.479 198.214,-216.986 197.506,-223.95"/>
</g>
<!-- Node21 -->
<g id="node21" class="node"><title>Node21</title>
<g id="a_node21"><a xlink:href="classmemoryoracle_1_1models_1_1Typed.html#aa1d5d8d5b7ebe5c2876f363e7eb669db" target="_top" xlink:title="memoryoracle.models.Typed.track">
<polygon fill="none" stroke="black" points="211.5,-178.5 211.5,-197.5 393.5,-197.5 393.5,-178.5 211.5,-178.5"/>
<text text-anchor="middle" x="302.5" y="-185.5" font-family="Helvetica,sans-Serif" font-size="10.00">memoryoracle.models.Typed.track</text>
</a>
</g>
</g>
<!-- Node1&#45;&gt;Node21 -->
<g id="edge25" class="edge"><title>Node1&#45;&gt;Node21</title>
<path fill="none" stroke="midnightblue" d="M168.085,-200.941C178.95,-199.887 190.172,-198.799 201.281,-197.721"/>
<polygon fill="midnightblue" stroke="midnightblue" points="201.823,-201.185 211.438,-196.736 201.147,-194.218 201.823,-201.185"/>
</g>
<!-- Node3 -->
<g id="node3" class="node"><title>Node3</title>
<g id="a_node3"><a xlink:href="classmemoryoracle_1_1instance_1_1Memory.html#ac50fd3bb7216dc0481b8c6f23831a998" target="_top" xlink:title="memoryoracle.instance.Memory.\l_basic_track">
<polygon fill="none" stroke="black" points="441,-72 441,-102 614,-102 614,-72 441,-72"/>
<text text-anchor="start" x="449" y="-90" font-family="Helvetica,sans-Serif" font-size="10.00">memoryoracle.instance.Memory.</text>
<text text-anchor="middle" x="527.5" y="-79" font-family="Helvetica,sans-Serif" font-size="10.00">_basic_track</text>
</a>
</g>
</g>
<!-- Node2&#45;&gt;Node3 -->
<g id="edge2" class="edge"><title>Node2&#45;&gt;Node3</title>
<path fill="none" stroke="midnightblue" d="M376.674,-221.435C385.559,-217.938 393.965,-213.254 401,-207 435.057,-176.725 403.258,-141.625 437,-111 438.31,-109.811 439.673,-108.679 441.082,-107.603"/>
<polygon fill="midnightblue" stroke="midnightblue" points="443.154,-110.43 449.601,-102.022 439.318,-104.574 443.154,-110.43"/>
</g>
<!-- Node7 -->
<g id="node7" class="node"><title>Node7</title>
<g id="a_node7"><a xlink:href="classmemoryoracle_1_1instance_1_1Structure.html#a200a54be462e0199b7833cbd11f81a52" target="_top" xlink:title="memoryoracle.instance.Structure.\l_track">
<polygon fill="none" stroke="black" points="437,-170 437,-200 618,-200 618,-170 437,-170"/>
<text text-anchor="start" x="445" y="-188" font-family="Helvetica,sans-Serif" font-size="10.00">memoryoracle.instance.Structure.</text>
<text text-anchor="middle" x="527.5" y="-177" font-family="Helvetica,sans-Serif" font-size="10.00">_track</text>
</a>
</g>
</g>
<!-- Node2&#45;&gt;Node7 -->
<g id="edge6" class="edge"><title>Node2&#45;&gt;Node7</title>
<path fill="none" stroke="midnightblue" d="M349.706,-221.469C376.758,-215.888 411.728,-208.675 443.416,-202.138"/>
<polygon fill="midnightblue" stroke="midnightblue" points="444.489,-205.491 453.576,-200.043 443.075,-198.635 444.489,-205.491"/>
</g>
<!-- Node9 -->
<g id="node9" class="node"><title>Node9</title>
<g id="a_node9"><a xlink:href="classmemoryoracle_1_1instance_1_1Array.html#a1d8c3993d8a52bfbec8240d6f79b3ce1" target="_top" xlink:title="TODO: upgrade this to ref field. ">
<polygon fill="none" stroke="black" points="447.5,-121 447.5,-151 607.5,-151 607.5,-121 447.5,-121"/>
<text text-anchor="start" x="455.5" y="-139" font-family="Helvetica,sans-Serif" font-size="10.00">memoryoracle.instance.Array.</text>
<text text-anchor="middle" x="527.5" y="-128" font-family="Helvetica,sans-Serif" font-size="10.00">_track</text>
</a>
</g>
</g>
<!-- Node2&#45;&gt;Node9 -->
<g id="edge8" class="edge"><title>Node2&#45;&gt;Node9</title>
<path fill="none" stroke="midnightblue" d="M368.733,-221.449C380.058,-218.014 391.299,-213.346 401,-207 423.02,-192.596 415.13,-174.63 437,-160 439.302,-158.46 441.7,-157.018 444.169,-155.669"/>
<polygon fill="midnightblue" stroke="midnightblue" points="445.93,-158.705 453.384,-151.176 442.862,-152.413 445.93,-158.705"/>
</g>
<!-- Node12 -->
<g id="node12" class="node"><title>Node12</title>
<g id="a_node12"><a xlink:href="classmemoryoracle_1_1instance_1_1Primitive.html#a68562bda9732e33fe32188597e2f4b91" target="_top" xlink:title="memoryoracle.instance.Primitive.\l_track">
<polygon fill="none" stroke="black" points="439,-219 439,-249 616,-249 616,-219 439,-219"/>
<text text-anchor="start" x="447" y="-237" font-family="Helvetica,sans-Serif" font-size="10.00">memoryoracle.instance.Primitive.</text>
<text text-anchor="middle" x="527.5" y="-226" font-family="Helvetica,sans-Serif" font-size="10.00">_track</text>
</a>
</g>
</g>
<!-- Node2&#45;&gt;Node12 -->
<g id="edge11" class="edge"><title>Node2&#45;&gt;Node12</title>
<path fill="none" stroke="midnightblue" d="M401.311,-232.316C410.409,-232.438 419.63,-232.562 428.728,-232.685"/>
<polygon fill="midnightblue" stroke="midnightblue" points="428.887,-236.187 438.933,-232.822 428.981,-229.188 428.887,-236.187"/>
</g>
<!-- Node13 -->
<g id="node13" class="node"><title>Node13</title>
<g id="a_node13"><a xlink:href="classmemoryoracle_1_1instance_1_1Pointer.html#a2cc9e298adaad8bed089d90186fcde8a" target="_top" xlink:title="memoryoracle.instance.Pointer.\l_track">
<polygon fill="none" stroke="black" points="443,-268 443,-298 612,-298 612,-268 443,-268"/>
<text text-anchor="start" x="451" y="-286" font-family="Helvetica,sans-Serif" font-size="10.00">memoryoracle.instance.Pointer.</text>
<text text-anchor="middle" x="527.5" y="-275" font-family="Helvetica,sans-Serif" font-size="10.00">_track</text>
</a>
</g>
</g>
<!-- Node2&#45;&gt;Node13 -->
<g id="edge12" class="edge"><title>Node2&#45;&gt;Node13</title>
<path fill="none" stroke="midnightblue" d="M344.402,-240.538C374.399,-247.533 415.978,-257.228 451.833,-265.589"/>
<polygon fill="midnightblue" stroke="midnightblue" points="451.246,-269.046 461.779,-267.908 452.835,-262.229 451.246,-269.046"/>
</g>
<!-- Node14 -->
<g id="node14" class="node"><title>Node14</title>
<g id="a_node14"><a xlink:href="classmemoryoracle_1_1instance_1_1Int.html#a38c9424341353f006771163d360594da" target="_top" xlink:title="memoryoracle.instance.Int.\l_track">
<polygon fill="none" stroke="black" points="453.5,-317 453.5,-347 601.5,-347 601.5,-317 453.5,-317"/>
<text text-anchor="start" x="461.5" y="-335" font-family="Helvetica,sans-Serif" font-size="10.00">memoryoracle.instance.Int.</text>
<text text-anchor="middle" x="527.5" y="-324" font-family="Helvetica,sans-Serif" font-size="10.00">_track</text>
</a>
</g>
</g>
<!-- Node2&#45;&gt;Node14 -->
<g id="edge14" class="edge"><title>Node2&#45;&gt;Node14</title>
<path fill="none" stroke="midnightblue" d="M327.124,-240.548C353.072,-255.333 396.458,-282.213 437,-299 451.371,-304.951 467.653,-309.83 482.353,-314.083"/>
<polygon fill="midnightblue" stroke="midnightblue" points="481.656,-317.525 492.235,-316.933 483.596,-310.799 481.656,-317.525"/>
</g>
<!-- Node4 -->
<g id="node4" class="node"><title>Node4</title>
<g id="a_node4"><a xlink:href="classmemoryoracle_1_1instance_1_1Memory.html#acde5472399a5335909aca575b634dde7" target="_top" xlink:title="memoryoracle.instance.Memory.extract\l_dynamic_type">
<polygon fill="none" stroke="black" points="660.5,-39 660.5,-69 867.5,-69 867.5,-39 660.5,-39"/>
<text text-anchor="start" x="668.5" y="-57" font-family="Helvetica,sans-Serif" font-size="10.00">memoryoracle.instance.Memory.extract</text>
<text text-anchor="middle" x="764" y="-46" font-family="Helvetica,sans-Serif" font-size="10.00">_dynamic_type</text>
</a>
</g>
</g>
<!-- Node3&#45;&gt;Node4 -->
<g id="edge3" class="edge"><title>Node3&#45;&gt;Node4</title>
<path fill="none" stroke="midnightblue" d="M614.155,-74.9462C625.91,-73.292 638.123,-71.5733 650.271,-69.8638"/>
<polygon fill="midnightblue" stroke="midnightblue" points="651.033,-73.2911 660.448,-68.4316 650.058,-66.3594 651.033,-73.2911"/>
</g>
<!-- Node5 -->
<g id="node5" class="node"><title>Node5</title>
<g id="a_node5"><a xlink:href="classmemoryoracle_1_1frame_1_1Frame.html#aba4a80563b93cf0069db8d64df6b19e5" target="_top" xlink:title="memoryoracle.frame.Frame.index">
<polygon fill="none" stroke="black" points="674.5,-0.5 674.5,-19.5 853.5,-19.5 853.5,-0.5 674.5,-0.5"/>
<text text-anchor="middle" x="764" y="-7.5" font-family="Helvetica,sans-Serif" font-size="10.00">memoryoracle.frame.Frame.index</text>
</a>
</g>
</g>
<!-- Node3&#45;&gt;Node5 -->
<g id="edge4" class="edge"><title>Node3&#45;&gt;Node5</title>
<path fill="none" stroke="midnightblue" d="M595.864,-71.9283C603.546,-69.1252 611.09,-65.8396 618,-62 636.973,-51.4578 634.525,-38.5827 654,-29 658.955,-26.5618 664.172,-24.4316 669.53,-22.571"/>
<polygon fill="midnightblue" stroke="midnightblue" points="670.806,-25.839 679.299,-19.5048 668.709,-19.1602 670.806,-25.839"/>
</g>
<!-- Node6 -->
<g id="node6" class="node"><title>Node6</title>
<g id="a_node6"><a xlink:href="classmemoryoracle_1_1instance_1_1Memory.html#aba9e6136a3854e0ab59a74acd015be06" target="_top" xlink:title="memoryoracle.instance.Memory.index">
<polygon fill="none" stroke="black" points="664.5,-88.5 664.5,-107.5 863.5,-107.5 863.5,-88.5 664.5,-88.5"/>
<text text-anchor="middle" x="764" y="-95.5" font-family="Helvetica,sans-Serif" font-size="10.00">memoryoracle.instance.Memory.index</text>
</a>
</g>
</g>
<!-- Node3&#45;&gt;Node6 -->
<g id="edge5" class="edge"><title>Node3&#45;&gt;Node6</title>
<path fill="none" stroke="midnightblue" d="M614.155,-91.0179C627.188,-91.6293 640.783,-92.267 654.229,-92.8977"/>
<polygon fill="midnightblue" stroke="midnightblue" points="654.317,-96.4056 664.47,-93.3781 654.645,-89.4133 654.317,-96.4056"/>
</g>
<!-- Node8 -->
<g id="node8" class="node"><title>Node8</title>
<g id="a_node8"><a xlink:href="namespacememoryoracle_1_1instance.html#ac651a8635b1ae2ee7e788bf9adb17a0b" target="_top" xlink:title="memoryoracle.instance.addressable\l_factory">
<polygon fill="none" stroke="black" points="668.5,-203 668.5,-233 859.5,-233 859.5,-203 668.5,-203"/>
<text text-anchor="start" x="676.5" y="-221" font-family="Helvetica,sans-Serif" font-size="10.00">memoryoracle.instance.addressable</text>
<text text-anchor="middle" x="764" y="-210" font-family="Helvetica,sans-Serif" font-size="10.00">_factory</text>
</a>
</g>
</g>
<!-- Node7&#45;&gt;Node8 -->
<g id="edge7" class="edge"><title>Node7&#45;&gt;Node8</title>
<path fill="none" stroke="midnightblue" d="M618.158,-197.617C631.243,-199.459 644.815,-201.368 658.169,-203.248"/>
<polygon fill="midnightblue" stroke="midnightblue" points="657.937,-206.749 668.327,-204.677 658.912,-199.818 657.937,-206.749"/>
</g>
<!-- Node10 -->
<g id="node10" class="node"><title>Node10</title>
<g id="a_node10"><a xlink:href="classmemoryoracle_1_1typed_1_1Typed.html#a0d1a3c7644d37da66f9ea5cb269115fe" target="_top" xlink:title="memoryoracle.typed.Typed.object">
<polygon fill="none" stroke="black" points="916,-239.5 916,-258.5 1095,-258.5 1095,-239.5 916,-239.5"/>
<text text-anchor="middle" x="1005.5" y="-246.5" font-family="Helvetica,sans-Serif" font-size="10.00">memoryoracle.typed.Typed.object</text>
</a>
</g>
</g>
<!-- Node9&#45;&gt;Node10 -->
<g id="edge9" class="edge"><title>Node9&#45;&gt;Node10</title>
<path fill="none" stroke="midnightblue" d="M604.743,-151.03C620.982,-154.106 638.043,-157.242 654,-160 751.493,-176.85 778.809,-167.029 874,-194 910.707,-204.4 950.862,-222.401 976.799,-234.966"/>
<polygon fill="midnightblue" stroke="midnightblue" points="975.487,-238.221 986.006,-239.488 978.574,-231.938 975.487,-238.221"/>
</g>
<!-- Node11 -->
<g id="node11" class="node"><title>Node11</title>
<g id="a_node11"><a xlink:href="classmemoryoracle_1_1descriptions_1_1MemoryDescription.html#a0fc58900317d1e723b6352005e163aef" target="_top" xlink:title="memoryoracle.descriptions.\lMemoryDescription.object">
<polygon fill="none" stroke="black" points="930.5,-144 930.5,-174 1080.5,-174 1080.5,-144 930.5,-144"/>
<text text-anchor="start" x="938.5" y="-162" font-family="Helvetica,sans-Serif" font-size="10.00">memoryoracle.descriptions.</text>
<text text-anchor="middle" x="1005.5" y="-151" font-family="Helvetica,sans-Serif" font-size="10.00">MemoryDescription.object</text>
</a>
</g>
</g>
<!-- Node9&#45;&gt;Node11 -->
<g id="edge10" class="edge"><title>Node9&#45;&gt;Node11</title>
<path fill="none" stroke="midnightblue" d="M607.636,-139.824C694.056,-144 831.905,-150.66 920.281,-154.931"/>
<polygon fill="midnightblue" stroke="midnightblue" points="920.115,-158.427 930.273,-155.413 920.453,-151.435 920.115,-158.427"/>
</g>
<!-- Node13&#45;&gt;Node8 -->
<g id="edge13" class="edge"><title>Node13&#45;&gt;Node8</title>
<path fill="none" stroke="midnightblue" d="M589.554,-267.999C599.15,-265.249 608.901,-262.22 618,-259 634.506,-253.159 637.39,-248.538 654,-243 661.943,-240.352 670.303,-237.886 678.714,-235.617"/>
<polygon fill="midnightblue" stroke="midnightblue" points="679.795,-238.952 688.589,-233.044 678.03,-232.178 679.795,-238.952"/>
</g>
<!-- Node14&#45;&gt;Node2 -->
<g id="edge24" class="edge"><title>Node14&#45;&gt;Node2</title>
<path fill="none" stroke="midnightblue" d="M453.192,-323.016C447.655,-321.168 442.202,-319.154 437,-317 391.646,-298.22 342.731,-266.809 318.655,-247.205"/>
<polygon fill="midnightblue" stroke="midnightblue" points="320.817,-244.448 310.961,-240.562 316.242,-249.746 320.817,-244.448"/>
</g>
<!-- Node14&#45;&gt;Node8 -->
<g id="edge19" class="edge"><title>Node14&#45;&gt;Node8</title>
<path fill="none" stroke="midnightblue" d="M601.747,-317.83C607.543,-315.108 613.057,-311.864 618,-308 644.018,-287.661 627.615,-262.86 654,-243 656.479,-241.134 659.074,-239.403 661.76,-237.798"/>
<polygon fill="midnightblue" stroke="midnightblue" points="663.432,-240.874 670.619,-233.09 660.147,-234.692 663.432,-240.874"/>
</g>
<!-- Node15 -->
<g id="node15" class="node"><title>Node15</title>
<g id="a_node15"><a xlink:href="classmemoryoracle_1_1instance_1_1Int.html#a450a73bc8aaf1a7ac5f18c3ed1a933fc" target="_top" xlink:title="memoryoracle.instance.Int.\l_find_hidden_type">
<polygon fill="none" stroke="black" points="690,-301 690,-331 838,-331 838,-301 690,-301"/>
<text text-anchor="start" x="698" y="-319" font-family="Helvetica,sans-Serif" font-size="10.00">memoryoracle.instance.Int.</text>
<text text-anchor="middle" x="764" y="-308" font-family="Helvetica,sans-Serif" font-size="10.00">_find_hidden_type</text>
</a>
</g>
</g>
<!-- Node14&#45;&gt;Node15 -->
<g id="edge15" class="edge"><title>Node14&#45;&gt;Node15</title>
<path fill="none" stroke="midnightblue" d="M601.733,-327.003C626.528,-325.312 654.395,-323.41 679.9,-321.67"/>
<polygon fill="midnightblue" stroke="midnightblue" points="680.181,-325.159 689.92,-320.986 679.705,-318.175 680.181,-325.159"/>
</g>
<!-- Node17 -->
<g id="node17" class="node"><title>Node17</title>
<g id="a_node17"><a xlink:href="classmemoryoracle_1_1tracked_1_1Tracked.html#abd8dc997fb5a226926f2044462dbd94b" target="_top" xlink:title="memoryoracle.tracked.Tracked.description">
<polygon fill="none" stroke="black" points="654,-448.5 654,-467.5 874,-467.5 874,-448.5 654,-448.5"/>
<text text-anchor="middle" x="764" y="-455.5" font-family="Helvetica,sans-Serif" font-size="10.00">memoryoracle.tracked.Tracked.description</text>
</a>
</g>
</g>
<!-- Node14&#45;&gt;Node17 -->
<g id="edge20" class="edge"><title>Node14&#45;&gt;Node17</title>
<path fill="none" stroke="midnightblue" d="M541.383,-347.314C562.346,-371.12 606.319,-416.594 654,-439 659.29,-441.486 664.863,-443.649 670.576,-445.532"/>
<polygon fill="midnightblue" stroke="midnightblue" points="669.715,-448.927 680.299,-448.442 671.722,-442.221 669.715,-448.927"/>
</g>
<!-- Node18 -->
<g id="node18" class="node"><title>Node18</title>
<g id="a_node18"><a xlink:href="classmemoryoracle_1_1descriptions_1_1BlackBoxDecorator.html#a558c1ce5d38dc4785d4ef36c0a053967" target="_top" xlink:title="memoryoracle.descriptions.\lBlackBoxDecorator.description">
<polygon fill="none" stroke="black" points="682.5,-399 682.5,-429 845.5,-429 845.5,-399 682.5,-399"/>
<text text-anchor="start" x="690.5" y="-417" font-family="Helvetica,sans-Serif" font-size="10.00">memoryoracle.descriptions.</text>
<text text-anchor="middle" x="764" y="-406" font-family="Helvetica,sans-Serif" font-size="10.00">BlackBoxDecorator.description</text>
</a>
</g>
</g>
<!-- Node14&#45;&gt;Node18 -->
<g id="edge21" class="edge"><title>Node14&#45;&gt;Node18</title>
<path fill="none" stroke="midnightblue" d="M556.689,-347.175C581.663,-360.093 619.424,-378.357 654,-390 660.818,-392.296 667.95,-394.43 675.163,-396.402"/>
<polygon fill="midnightblue" stroke="midnightblue" points="674.465,-399.838 685.026,-398.99 676.242,-393.067 674.465,-399.838"/>
</g>
<!-- Node19 -->
<g id="node19" class="node"><title>Node19</title>
<g id="a_node19"><a xlink:href="classmemoryoracle_1_1descriptions_1_1ExternalDescriptionDecorator.html#ae5952e51de2c9473ce19875b55ccb625" target="_top" xlink:title="memoryoracle.descriptions.\lExternalDescriptionDecorator.description">
<polygon fill="none" stroke="black" points="658,-350 658,-380 870,-380 870,-350 658,-350"/>
<text text-anchor="start" x="666" y="-368" font-family="Helvetica,sans-Serif" font-size="10.00">memoryoracle.descriptions.</text>
<text text-anchor="middle" x="764" y="-357" font-family="Helvetica,sans-Serif" font-size="10.00">ExternalDescriptionDecorator.description</text>
</a>
</g>
</g>
<!-- Node14&#45;&gt;Node19 -->
<g id="edge22" class="edge"><title>Node14&#45;&gt;Node19</title>
<path fill="none" stroke="midnightblue" d="M601.733,-342.306C616.284,-344.353 631.893,-346.55 647.463,-348.741"/>
<polygon fill="midnightblue" stroke="midnightblue" points="647.286,-352.251 657.677,-350.178 648.262,-345.319 647.286,-352.251"/>
</g>
<!-- Node20 -->
<g id="node20" class="node"><title>Node20</title>
<g id="a_node20"><a xlink:href="classmemoryoracle_1_1descriptions_1_1StandardDescriptionDecorator.html#a50e064e8a858b8eafe2c603650dbbee8" target="_top" xlink:title="memoryoracle.descriptions.\lStandardDescriptionDecorator.description">
<polygon fill="none" stroke="black" points="655,-252 655,-282 873,-282 873,-252 655,-252"/>
<text text-anchor="start" x="663" y="-270" font-family="Helvetica,sans-Serif" font-size="10.00">memoryoracle.descriptions.</text>
<text text-anchor="middle" x="764" y="-259" font-family="Helvetica,sans-Serif" font-size="10.00">StandardDescriptionDecorator.description</text>
</a>
</g>
</g>
<!-- Node14&#45;&gt;Node20 -->
<g id="edge23" class="edge"><title>Node14&#45;&gt;Node20</title>
<path fill="none" stroke="midnightblue" d="M589.554,-316.999C599.15,-314.249 608.901,-311.22 618,-308 634.506,-302.159 637.39,-297.538 654,-292 661.943,-289.352 670.303,-286.886 678.714,-284.617"/>
<polygon fill="midnightblue" stroke="midnightblue" points="679.795,-287.952 688.589,-282.044 678.03,-281.178 679.795,-287.952"/>
</g>
<!-- Node15&#45;&gt;Node10 -->
<g id="edge16" class="edge"><title>Node15&#45;&gt;Node10</title>
<path fill="none" stroke="midnightblue" d="M838.248,-300.945C850.245,-298.172 862.507,-295.15 874,-292 906.436,-283.11 942.726,-270.97 968.788,-261.856"/>
<polygon fill="midnightblue" stroke="midnightblue" points="969.977,-265.148 978.246,-258.524 967.651,-258.545 969.977,-265.148"/>
</g>
<!-- Node15&#45;&gt;Node11 -->
<g id="edge17" class="edge"><title>Node15&#45;&gt;Node11</title>
<path fill="none" stroke="midnightblue" d="M838.081,-308.672C850.866,-305.028 863.437,-299.713 874,-292 899.733,-273.209 888.84,-253.824 910,-230 927.49,-210.309 951.195,-192.516 970.487,-179.668"/>
<polygon fill="midnightblue" stroke="midnightblue" points="972.532,-182.513 979.003,-174.123 968.713,-176.647 972.532,-182.513"/>
</g>
<!-- Node16 -->
<g id="node16" class="node"><title>Node16</title>
<g id="a_node16"><a xlink:href="classmemoryoracle_1_1instance_1_1Primitive.html#abc513cbf3d0938c0db133e9af0a6f5ea" target="_top" xlink:title="memoryoracle.instance.Primitive.val\l_string">
<polygon fill="none" stroke="black" points="910,-301 910,-331 1101,-331 1101,-301 910,-301"/>
<text text-anchor="start" x="918" y="-319" font-family="Helvetica,sans-Serif" font-size="10.00">memoryoracle.instance.Primitive.val</text>
<text text-anchor="middle" x="1005.5" y="-308" font-family="Helvetica,sans-Serif" font-size="10.00">_string</text>
</a>
</g>
</g>
<!-- Node15&#45;&gt;Node16 -->
<g id="edge18" class="edge"><title>Node15&#45;&gt;Node16</title>
<path fill="none" stroke="midnightblue" d="M838.159,-316C857.547,-316 878.865,-316 899.582,-316"/>
<polygon fill="midnightblue" stroke="midnightblue" points="899.693,-319.5 909.693,-316 899.693,-312.5 899.693,-319.5"/>
</g>
<!-- Node21&#45;&gt;Node3 -->
<g id="edge26" class="edge"><title>Node21&#45;&gt;Node3</title>
<path fill="none" stroke="midnightblue" d="M317.292,-178.406C340.847,-162.405 390.773,-130.142 437,-111 442.016,-108.923 447.266,-106.976 452.599,-105.162"/>
<polygon fill="midnightblue" stroke="midnightblue" points="453.82,-108.446 462.259,-102.039 451.667,-101.785 453.82,-108.446"/>
</g>
<!-- Node21&#45;&gt;Node7 -->
<g id="edge28" class="edge"><title>Node21&#45;&gt;Node7</title>
<path fill="none" stroke="midnightblue" d="M393.56,-186.788C404.481,-186.642 415.687,-186.491 426.737,-186.342"/>
<polygon fill="midnightblue" stroke="midnightblue" points="426.877,-189.841 436.829,-186.206 426.783,-182.841 426.877,-189.841"/>
</g>
<!-- Node21&#45;&gt;Node9 -->
<g id="edge29" class="edge"><title>Node21&#45;&gt;Node9</title>
<path fill="none" stroke="midnightblue" d="M344.402,-178.462C374.399,-171.467 415.978,-161.772 451.833,-153.411"/>
<polygon fill="midnightblue" stroke="midnightblue" points="452.835,-156.771 461.779,-151.092 451.246,-149.954 452.835,-156.771"/>
</g>
<!-- Node21&#45;&gt;Node12 -->
<g id="edge30" class="edge"><title>Node21&#45;&gt;Node12</title>
<path fill="none" stroke="midnightblue" d="M349.706,-197.531C376.758,-203.112 411.728,-210.325 443.416,-216.862"/>
<polygon fill="midnightblue" stroke="midnightblue" points="443.075,-220.365 453.576,-218.957 444.489,-213.509 443.075,-220.365"/>
</g>
<!-- Node21&#45;&gt;Node13 -->
<g id="edge31" class="edge"><title>Node21&#45;&gt;Node13</title>
<path fill="none" stroke="midnightblue" d="M368.733,-197.551C380.058,-200.986 391.299,-205.654 401,-212 423.02,-226.404 415.13,-244.37 437,-259 439.302,-260.54 441.7,-261.982 444.169,-263.331"/>
<polygon fill="midnightblue" stroke="midnightblue" points="442.862,-266.587 453.384,-267.824 445.93,-260.295 442.862,-266.587"/>
</g>
<!-- Node21&#45;&gt;Node14 -->
<g id="edge32" class="edge"><title>Node21&#45;&gt;Node14</title>
<path fill="none" stroke="midnightblue" d="M376.674,-197.565C385.559,-201.062 393.965,-205.746 401,-212 435.057,-242.275 403.258,-277.375 437,-308 439.366,-310.147 441.903,-312.106 444.571,-313.892"/>
<polygon fill="midnightblue" stroke="midnightblue" points="443.074,-317.069 453.486,-319.03 446.57,-311.004 443.074,-317.069"/>
</g>
<!-- Node22 -->
<g id="node22" class="node"><title>Node22</title>
<g id="a_node22"><a xlink:href="classmemoryoracle_1_1models_1_1Typed.html#afa441c1fd6bdde840651a8ef1265a36a" target="_top" xlink:title="memoryoracle.models.Typed.\l_basic_track">
<polygon fill="none" stroke="black" points="448.5,-23 448.5,-53 606.5,-53 606.5,-23 448.5,-23"/>
<text text-anchor="start" x="456.5" y="-41" font-family="Helvetica,sans-Serif" font-size="10.00">memoryoracle.models.Typed.</text>
<text text-anchor="middle" x="527.5" y="-30" font-family="Helvetica,sans-Serif" font-size="10.00">_basic_track</text>
</a>
</g>
</g>
<!-- Node21&#45;&gt;Node22 -->
<g id="edge27" class="edge"><title>Node21&#45;&gt;Node22</title>
<path fill="none" stroke="midnightblue" d="M310.761,-178.439C329.165,-154.888 380.235,-93.696 437,-62 440.283,-60.1667 443.713,-58.4682 447.235,-56.895"/>
<polygon fill="midnightblue" stroke="midnightblue" points="448.802,-60.0361 456.738,-53.0171 446.157,-53.555 448.802,-60.0361"/>
</g>
</g>
</svg>
