<?xml version="1.0" encoding="UTF-8" standalone="no"?>
<!DOCTYPE svg PUBLIC "-//W3C//DTD SVG 1.1//EN"
 "http://www.w3.org/Graphics/SVG/1.1/DTD/svg11.dtd">
<!-- Generated by graphviz version 2.38.0 (20140413.2041)
 -->
<!-- Title: memoryoracle.models.Typed.track Pages: 1 -->
<svg width="1100pt" height="595pt"
 viewBox="0.00 0.00 1100.00 594.63" xmlns="http://www.w3.org/2000/svg" xmlns:xlink="http://www.w3.org/1999/xlink">
<g id="graph0" class="graph" transform="scale(1 1) rotate(0) translate(4 590.626)">
<title>memoryoracle.models.Typed.track</title>
<!-- Node1 -->
<g id="node1" class="node"><title>Node1</title>
<polygon fill="#bfbfbf" stroke="black" points="0,-283.626 0,-302.626 182,-302.626 182,-283.626 0,-283.626"/>
<text text-anchor="middle" x="91" y="-290.626" font-family="Helvetica,sans-Serif" font-size="10.00">memoryoracle.models.Typed.track</text>
</g>
<!-- Node2 -->
<g id="node2" class="node"><title>Node2</title>
<g id="a_node2"><a xlink:href="classmemoryoracle_1_1models_1_1Typed.html#afa441c1fd6bdde840651a8ef1265a36a" target="_top" xlink:title="memoryoracle.models.Typed.\l_basic_track">
<polygon fill="none" stroke="black" points="218,-493.126 218,-523.126 376,-523.126 376,-493.126 218,-493.126"/>
<text text-anchor="start" x="226" y="-511.126" font-family="Helvetica,sans-Serif" font-size="10.00">memoryoracle.models.Typed.</text>
<text text-anchor="middle" x="297" y="-500.126" font-family="Helvetica,sans-Serif" font-size="10.00">_basic_track</text>
</a>
</g>
</g>
<!-- Node1&#45;&gt;Node2 -->
<g id="edge1" class="edge"><title>Node1&#45;&gt;Node2</title>
<path fill="none" stroke="midnightblue" d="M95.9793,-302.681C108.979,-332.788 153.123,-426.725 218,-478.126 223,-482.088 228.584,-485.574 234.403,-488.63"/>
<polygon fill="midnightblue" stroke="midnightblue" points="233.16,-491.916 243.69,-493.087 236.189,-485.605 233.16,-491.916"/>
</g>
<!-- Node3 -->
<g id="node3" class="node"><title>Node3</title>
<g id="a_node3"><a xlink:href="classmemoryoracle_1_1instance_1_1Memory.html#ac50fd3bb7216dc0481b8c6f23831a998" target="_top" xlink:title="memoryoracle.instance.Memory.\l_basic_track">
<polygon fill="none" stroke="black" points="672,-477.126 672,-507.126 845,-507.126 845,-477.126 672,-477.126"/>
<text text-anchor="start" x="680" y="-495.126" font-family="Helvetica,sans-Serif" font-size="10.00">memoryoracle.instance.Memory.</text>
<text text-anchor="middle" x="758.5" y="-484.126" font-family="Helvetica,sans-Serif" font-size="10.00">_basic_track</text>
</a>
</g>
</g>
<!-- Node1&#45;&gt;Node3 -->
<g id="edge2" class="edge"><title>Node1&#45;&gt;Node3</title>
<path fill="none" stroke="midnightblue" d="M112.163,-302.827C136.754,-314.408 179.774,-333.871 218,-347.126 379.119,-402.996 573.416,-450.521 679.311,-474.809"/>
<polygon fill="midnightblue" stroke="midnightblue" points="678.75,-478.271 689.278,-477.086 680.309,-471.447 678.75,-478.271"/>
</g>
<!-- Node7 -->
<g id="node7" class="node"><title>Node7</title>
<g id="a_node7"><a xlink:href="classmemoryoracle_1_1instance_1_1Structure.html#a200a54be462e0199b7833cbd11f81a52" target="_top" xlink:title="memoryoracle.instance.Structure.\l_track">
<polygon fill="none" stroke="black" points="668,-291.126 668,-321.126 849,-321.126 849,-291.126 668,-291.126"/>
<text text-anchor="start" x="676" y="-309.126" font-family="Helvetica,sans-Serif" font-size="10.00">memoryoracle.instance.Structure.</text>
<text text-anchor="middle" x="758.5" y="-298.126" font-family="Helvetica,sans-Serif" font-size="10.00">_track</text>
</a>
</g>
</g>
<!-- Node1&#45;&gt;Node7 -->
<g id="edge6" class="edge"><title>Node1&#45;&gt;Node7</title>
<path fill="none" stroke="midnightblue" d="M103.18,-283.568C142.307,-250.83 277.983,-143.246 412,-107.126 506.409,-81.6818 556.179,-45.3871 632,-107.126 693.237,-156.991 614.1,-223.409 668,-281.126 669.249,-282.464 670.563,-283.732 671.934,-284.934"/>
<polygon fill="midnightblue" stroke="midnightblue" points="670.22,-288.018 680.35,-291.123 674.367,-282.379 670.22,-288.018"/>
</g>
<!-- Node9 -->
<g id="node9" class="node"><title>Node9</title>
<g id="a_node9"><a xlink:href="classmemoryoracle_1_1instance_1_1Array.html#a1d8c3993d8a52bfbec8240d6f79b3ce1" target="_top" xlink:title="TODO: upgrade this to ref field. ">
<polygon fill="none" stroke="black" points="678.5,-379.126 678.5,-409.126 838.5,-409.126 838.5,-379.126 678.5,-379.126"/>
<text text-anchor="start" x="686.5" y="-397.126" font-family="Helvetica,sans-Serif" font-size="10.00">memoryoracle.instance.Array.</text>
<text text-anchor="middle" x="758.5" y="-386.126" font-family="Helvetica,sans-Serif" font-size="10.00">_track</text>
</a>
</g>
</g>
<!-- Node1&#45;&gt;Node9 -->
<g id="edge8" class="edge"><title>Node1&#45;&gt;Node9</title>
<path fill="none" stroke="midnightblue" d="M139.241,-302.644C162.879,-307.369 191.937,-313.123 218,-318.126 304.121,-334.66 325.282,-341.076 412,-354.126 498.791,-367.188 598.406,-378.312 668.303,-385.488"/>
<polygon fill="midnightblue" stroke="midnightblue" points="668.091,-388.985 678.395,-386.518 668.802,-382.021 668.091,-388.985"/>
</g>
<!-- Node12 -->
<g id="node12" class="node"><title>Node12</title>
<g id="a_node12"><a xlink:href="classmemoryoracle_1_1instance_1_1Primitive.html#a68562bda9732e33fe32188597e2f4b91" target="_top" xlink:title="memoryoracle.instance.Primitive.\l_track">
<polygon fill="none" stroke="black" points="670,-95.1264 670,-125.126 847,-125.126 847,-95.1264 670,-95.1264"/>
<text text-anchor="start" x="678" y="-113.126" font-family="Helvetica,sans-Serif" font-size="10.00">memoryoracle.instance.Primitive.</text>
<text text-anchor="middle" x="758.5" y="-102.126" font-family="Helvetica,sans-Serif" font-size="10.00">_track</text>
</a>
</g>
</g>
<!-- Node1&#45;&gt;Node12 -->
<g id="edge11" class="edge"><title>Node1&#45;&gt;Node12</title>
<path fill="none" stroke="midnightblue" d="M94.2156,-283.462C102.876,-248.085 137.987,-124.856 218,-70.1264 370.217,33.9925 453.234,3.19174 632,-42.1264 667.728,-51.1836 704.303,-72.6701 728.681,-89.0859"/>
<polygon fill="midnightblue" stroke="midnightblue" points="726.865,-92.0847 737.087,-94.872 730.834,-86.3188 726.865,-92.0847"/>
</g>
<!-- Node13 -->
<g id="node13" class="node"><title>Node13</title>
<g id="a_node13"><a xlink:href="classmemoryoracle_1_1instance_1_1Pointer.html#a2cc9e298adaad8bed089d90186fcde8a" target="_top" xlink:title="memoryoracle.instance.Pointer.\l_track">
<polygon fill="none" stroke="black" points="674,-242.126 674,-272.126 843,-272.126 843,-242.126 674,-242.126"/>
<text text-anchor="start" x="682" y="-260.126" font-family="Helvetica,sans-Serif" font-size="10.00">memoryoracle.instance.Pointer.</text>
<text text-anchor="middle" x="758.5" y="-249.126" font-family="Helvetica,sans-Serif" font-size="10.00">_track</text>
</a>
</g>
</g>
<!-- Node1&#45;&gt;Node13 -->
<g id="edge12" class="edge"><title>Node1&#45;&gt;Node13</title>
<path fill="none" stroke="midnightblue" d="M96.0344,-283.265C108.889,-253.143 151.961,-161.687 218,-117.126 291.541,-67.5043 323.909,-80.645 412,-70.1264 509.088,-58.5334 547.597,-20.7637 632,-70.1264 660.171,-86.6024 650.369,-106.663 668,-134.126 691.1,-170.109 720.781,-209.777 739.478,-234.076"/>
<polygon fill="midnightblue" stroke="midnightblue" points="736.719,-236.229 745.605,-241.998 742.256,-231.947 736.719,-236.229"/>
</g>
<!-- Node14 -->
<g id="node14" class="node"><title>Node14</title>
<g id="a_node14"><a xlink:href="classmemoryoracle_1_1instance_1_1Int.html#a38c9424341353f006771163d360594da" target="_top" xlink:title="memoryoracle.instance.Int.\l_track">
<polygon fill="none" stroke="black" points="223,-278.126 223,-308.126 371,-308.126 371,-278.126 223,-278.126"/>
<text text-anchor="start" x="231" y="-296.126" font-family="Helvetica,sans-Serif" font-size="10.00">memoryoracle.instance.Int.</text>
<text text-anchor="middle" x="297" y="-285.126" font-family="Helvetica,sans-Serif" font-size="10.00">_track</text>
</a>
</g>
</g>
<!-- Node1&#45;&gt;Node14 -->
<g id="edge14" class="edge"><title>Node1&#45;&gt;Node14</title>
<path fill="none" stroke="midnightblue" d="M182.071,-293.126C192.318,-293.126 202.727,-293.126 212.878,-293.126"/>
<polygon fill="midnightblue" stroke="midnightblue" points="212.928,-296.626 222.928,-293.126 212.927,-289.626 212.928,-296.626"/>
</g>
<!-- Node4 -->
<g id="node4" class="node"><title>Node4</title>
<g id="a_node4"><a xlink:href="classmemoryoracle_1_1instance_1_1Memory.html#acde5472399a5335909aca575b634dde7" target="_top" xlink:title="memoryoracle.instance.Memory.extract\l_dynamic_type">
<polygon fill="none" stroke="black" points="885,-556.126 885,-586.126 1092,-586.126 1092,-556.126 885,-556.126"/>
<text text-anchor="start" x="893" y="-574.126" font-family="Helvetica,sans-Serif" font-size="10.00">memoryoracle.instance.Memory.extract</text>
<text text-anchor="middle" x="988.5" y="-563.126" font-family="Helvetica,sans-Serif" font-size="10.00">_dynamic_type</text>
</a>
</g>
</g>
<!-- Node3&#45;&gt;Node4 -->
<g id="edge3" class="edge"><title>Node3&#45;&gt;Node4</title>
<path fill="none" stroke="midnightblue" d="M790.397,-507.143C815.461,-518.903 851.933,-535.066 885,-546.126 892.803,-548.736 901.024,-551.2 909.276,-553.489"/>
<polygon fill="midnightblue" stroke="midnightblue" points="908.387,-556.874 918.953,-556.093 910.207,-550.115 908.387,-556.874"/>
</g>
<!-- Node5 -->
<g id="node5" class="node"><title>Node5</title>
<g id="a_node5"><a xlink:href="classmemoryoracle_1_1frame_1_1Frame.html#aba4a80563b93cf0069db8d64df6b19e5" target="_top" xlink:title="memoryoracle.frame.Frame.index">
<polygon fill="none" stroke="black" points="899,-517.626 899,-536.626 1078,-536.626 1078,-517.626 899,-517.626"/>
<text text-anchor="middle" x="988.5" y="-524.626" font-family="Helvetica,sans-Serif" font-size="10.00">memoryoracle.frame.Frame.index</text>
</a>
</g>
</g>
<!-- Node3&#45;&gt;Node5 -->
<g id="edge4" class="edge"><title>Node3&#45;&gt;Node5</title>
<path fill="none" stroke="midnightblue" d="M845.047,-505.259C868.168,-508.808 892.957,-512.613 915.269,-516.038"/>
<polygon fill="midnightblue" stroke="midnightblue" points="914.916,-519.525 925.331,-517.583 915.978,-512.606 914.916,-519.525"/>
</g>
<!-- Node6 -->
<g id="node6" class="node"><title>Node6</title>
<g id="a_node6"><a xlink:href="classmemoryoracle_1_1instance_1_1Memory.html#aba9e6136a3854e0ab59a74acd015be06" target="_top" xlink:title="memoryoracle.instance.Memory.index">
<polygon fill="none" stroke="black" points="889,-479.626 889,-498.626 1088,-498.626 1088,-479.626 889,-479.626"/>
<text text-anchor="middle" x="988.5" y="-486.626" font-family="Helvetica,sans-Serif" font-size="10.00">memoryoracle.instance.Memory.index</text>
</a>
</g>
</g>
<!-- Node3&#45;&gt;Node6 -->
<g id="edge5" class="edge"><title>Node3&#45;&gt;Node6</title>
<path fill="none" stroke="midnightblue" d="M845.047,-491.001C855.98,-490.857 867.284,-490.708 878.524,-490.56"/>
<polygon fill="midnightblue" stroke="midnightblue" points="878.862,-494.056 888.815,-490.425 878.77,-487.057 878.862,-494.056"/>
</g>
<!-- Node8 -->
<g id="node8" class="node"><title>Node8</title>
<g id="a_node8"><a xlink:href="namespacememoryoracle_1_1instance.html#ac651a8635b1ae2ee7e788bf9adb17a0b" target="_top" xlink:title="memoryoracle.instance.addressable\l_factory">
<polygon fill="none" stroke="black" points="893,-291.126 893,-321.126 1084,-321.126 1084,-291.126 893,-291.126"/>
<text text-anchor="start" x="901" y="-309.126" font-family="Helvetica,sans-Serif" font-size="10.00">memoryoracle.instance.addressable</text>
<text text-anchor="middle" x="988.5" y="-298.126" font-family="Helvetica,sans-Serif" font-size="10.00">_factory</text>
</a>
</g>
</g>
<!-- Node7&#45;&gt;Node8 -->
<g id="edge7" class="edge"><title>Node7&#45;&gt;Node8</title>
<path fill="none" stroke="midnightblue" d="M849.284,-306.126C860.256,-306.126 871.542,-306.126 882.709,-306.126"/>
<polygon fill="midnightblue" stroke="midnightblue" points="882.919,-309.626 892.919,-306.126 882.919,-302.626 882.919,-309.626"/>
</g>
<!-- Node10 -->
<g id="node10" class="node"><title>Node10</title>
<g id="a_node10"><a xlink:href="classmemoryoracle_1_1typed_1_1Typed.html#a0d1a3c7644d37da66f9ea5cb269115fe" target="_top" xlink:title="memoryoracle.typed.Typed.object">
<polygon fill="none" stroke="black" points="899,-391.626 899,-410.626 1078,-410.626 1078,-391.626 899,-391.626"/>
<text text-anchor="middle" x="988.5" y="-398.626" font-family="Helvetica,sans-Serif" font-size="10.00">memoryoracle.typed.Typed.object</text>
</a>
</g>
</g>
<!-- Node9&#45;&gt;Node10 -->
<g id="edge9" class="edge"><title>Node9&#45;&gt;Node10</title>
<path fill="none" stroke="midnightblue" d="M838.603,-396.555C854.687,-397.049 871.795,-397.574 888.469,-398.086"/>
<polygon fill="midnightblue" stroke="midnightblue" points="888.679,-401.594 898.782,-398.403 888.894,-394.597 888.679,-401.594"/>
</g>
<!-- Node11 -->
<g id="node11" class="node"><title>Node11</title>
<g id="a_node11"><a xlink:href="classmemoryoracle_1_1descriptions_1_1MemoryDescription.html#a0fc58900317d1e723b6352005e163aef" target="_top" xlink:title="memoryoracle.descriptions.\lMemoryDescription.object">
<polygon fill="none" stroke="black" points="913.5,-342.126 913.5,-372.126 1063.5,-372.126 1063.5,-342.126 913.5,-342.126"/>
<text text-anchor="start" x="921.5" y="-360.126" font-family="Helvetica,sans-Serif" font-size="10.00">memoryoracle.descriptions.</text>
<text text-anchor="middle" x="988.5" y="-349.126" font-family="Helvetica,sans-Serif" font-size="10.00">MemoryDescription.object</text>
</a>
</g>
</g>
<!-- Node9&#45;&gt;Node11 -->
<g id="edge10" class="edge"><title>Node9&#45;&gt;Node11</title>
<path fill="none" stroke="midnightblue" d="M838.603,-381.289C859.478,-377.902 882.079,-374.234 903.216,-370.804"/>
<polygon fill="midnightblue" stroke="midnightblue" points="903.825,-374.251 913.135,-369.194 902.704,-367.341 903.825,-374.251"/>
</g>
<!-- Node13&#45;&gt;Node8 -->
<g id="edge13" class="edge"><title>Node13&#45;&gt;Node8</title>
<path fill="none" stroke="midnightblue" d="M829.457,-272.161C854.187,-277.476 882.185,-283.493 907.672,-288.97"/>
<polygon fill="midnightblue" stroke="midnightblue" points="907.163,-292.441 917.675,-291.12 908.634,-285.597 907.163,-292.441"/>
</g>
<!-- Node14&#45;&gt;Node8 -->
<g id="edge19" class="edge"><title>Node14&#45;&gt;Node8</title>
<path fill="none" stroke="midnightblue" d="M333.196,-308.131C355.358,-316.75 384.817,-326.715 412,-331.126 603.714,-362.237 655.552,-348.446 849,-331.126 868.273,-329.401 888.877,-326.35 908.143,-322.96"/>
<polygon fill="midnightblue" stroke="midnightblue" points="908.865,-326.386 918.081,-321.161 907.618,-319.498 908.865,-326.386"/>
</g>
<!-- Node15 -->
<g id="node15" class="node"><title>Node15</title>
<g id="a_node15"><a xlink:href="classmemoryoracle_1_1instance_1_1Int.html#a450a73bc8aaf1a7ac5f18c3ed1a933fc" target="_top" xlink:title="memoryoracle.instance.Int.\l_find_hidden_type">
<polygon fill="none" stroke="black" points="684.5,-428.126 684.5,-458.126 832.5,-458.126 832.5,-428.126 684.5,-428.126"/>
<text text-anchor="start" x="692.5" y="-446.126" font-family="Helvetica,sans-Serif" font-size="10.00">memoryoracle.instance.Int.</text>
<text text-anchor="middle" x="758.5" y="-435.126" font-family="Helvetica,sans-Serif" font-size="10.00">_find_hidden_type</text>
</a>
</g>
</g>
<!-- Node14&#45;&gt;Node15 -->
<g id="edge15" class="edge"><title>Node14&#45;&gt;Node15</title>
<path fill="none" stroke="midnightblue" d="M317.889,-308.4C339.804,-324.516 376.646,-349.556 412,-364.126 497.807,-399.489 602.439,-420.605 673.925,-431.987"/>
<polygon fill="midnightblue" stroke="midnightblue" points="673.805,-435.511 684.226,-433.596 674.886,-428.594 673.805,-435.511"/>
</g>
<!-- Node17 -->
<g id="node17" class="node"><title>Node17</title>
<g id="a_node17"><a xlink:href="classmemoryoracle_1_1tracked_1_1Tracked.html#abd8dc997fb5a226926f2044462dbd94b" target="_top" xlink:title="memoryoracle.tracked.Tracked.description">
<polygon fill="none" stroke="black" points="412,-264.626 412,-283.626 632,-283.626 632,-264.626 412,-264.626"/>
<text text-anchor="middle" x="522" y="-271.626" font-family="Helvetica,sans-Serif" font-size="10.00">memoryoracle.tracked.Tracked.description</text>
</a>
</g>
</g>
<!-- Node14&#45;&gt;Node17 -->
<g id="edge20" class="edge"><title>Node14&#45;&gt;Node17</title>
<path fill="none" stroke="midnightblue" d="M371.019,-286.905C380.933,-286.06 391.311,-285.176 401.78,-284.284"/>
<polygon fill="midnightblue" stroke="midnightblue" points="402.166,-287.764 411.832,-283.428 401.571,-280.789 402.166,-287.764"/>
</g>
<!-- Node18 -->
<g id="node18" class="node"><title>Node18</title>
<g id="a_node18"><a xlink:href="classmemoryoracle_1_1descriptions_1_1BlackBoxDecorator.html#a558c1ce5d38dc4785d4ef36c0a053967" target="_top" xlink:title="memoryoracle.descriptions.\lBlackBoxDecorator.description">
<polygon fill="none" stroke="black" points="440.5,-215.126 440.5,-245.126 603.5,-245.126 603.5,-215.126 440.5,-215.126"/>
<text text-anchor="start" x="448.5" y="-233.126" font-family="Helvetica,sans-Serif" font-size="10.00">memoryoracle.descriptions.</text>
<text text-anchor="middle" x="522" y="-222.126" font-family="Helvetica,sans-Serif" font-size="10.00">BlackBoxDecorator.description</text>
</a>
</g>
</g>
<!-- Node14&#45;&gt;Node18 -->
<g id="edge21" class="edge"><title>Node14&#45;&gt;Node18</title>
<path fill="none" stroke="midnightblue" d="M339.929,-278.075C361.341,-270.663 387.897,-261.891 412,-255.126 421.393,-252.49 431.298,-249.926 441.153,-247.506"/>
<polygon fill="midnightblue" stroke="midnightblue" points="442.069,-250.886 450.97,-245.138 440.428,-244.081 442.069,-250.886"/>
</g>
<!-- Node19 -->
<g id="node19" class="node"><title>Node19</title>
<g id="a_node19"><a xlink:href="classmemoryoracle_1_1descriptions_1_1ExternalDescriptionDecorator.html#ae5952e51de2c9473ce19875b55ccb625" target="_top" xlink:title="memoryoracle.descriptions.\lExternalDescriptionDecorator.description">
<polygon fill="none" stroke="black" points="416,-166.126 416,-196.126 628,-196.126 628,-166.126 416,-166.126"/>
<text text-anchor="start" x="424" y="-184.126" font-family="Helvetica,sans-Serif" font-size="10.00">memoryoracle.descriptions.</text>
<text text-anchor="middle" x="522" y="-173.126" font-family="Helvetica,sans-Serif" font-size="10.00">ExternalDescriptionDecorator.description</text>
</a>
</g>
</g>
<!-- Node14&#45;&gt;Node19 -->
<g id="edge22" class="edge"><title>Node14&#45;&gt;Node19</title>
<path fill="none" stroke="midnightblue" d="M313.111,-277.834C333.642,-257.969 372.359,-223.646 412,-205.126 416.378,-203.081 420.937,-201.206 425.601,-199.489"/>
<polygon fill="midnightblue" stroke="midnightblue" points="426.963,-202.722 435.296,-196.179 424.702,-196.098 426.963,-202.722"/>
</g>
<!-- Node20 -->
<g id="node20" class="node"><title>Node20</title>
<g id="a_node20"><a xlink:href="classmemoryoracle_1_1descriptions_1_1StandardDescriptionDecorator.html#a50e064e8a858b8eafe2c603650dbbee8" target="_top" xlink:title="memoryoracle.descriptions.\lStandardDescriptionDecorator.description">
<polygon fill="none" stroke="black" points="413,-117.126 413,-147.126 631,-147.126 631,-117.126 413,-117.126"/>
<text text-anchor="start" x="421" y="-135.126" font-family="Helvetica,sans-Serif" font-size="10.00">memoryoracle.descriptions.</text>
<text text-anchor="middle" x="522" y="-124.126" font-family="Helvetica,sans-Serif" font-size="10.00">StandardDescriptionDecorator.description</text>
</a>
</g>
</g>
<!-- Node14&#45;&gt;Node20 -->
<g id="edge23" class="edge"><title>Node14&#45;&gt;Node20</title>
<path fill="none" stroke="midnightblue" d="M306.046,-277.96C322.097,-249.275 360.987,-187.175 412,-156.126 414.855,-154.389 417.821,-152.776 420.868,-151.28"/>
<polygon fill="midnightblue" stroke="midnightblue" points="422.506,-154.382 430.23,-147.13 419.67,-147.982 422.506,-154.382"/>
</g>
<!-- Node21 -->
<g id="node21" class="node"><title>Node21</title>
<g id="a_node21"><a xlink:href="classmemoryoracle_1_1instance_1_1Memory.html#a8951ac234fecbd6cd473133ae7e63662" target="_top" xlink:title="memoryoracle.instance.Memory.track">
<polygon fill="none" stroke="black" points="423.5,-302.626 423.5,-321.626 620.5,-321.626 620.5,-302.626 423.5,-302.626"/>
<text text-anchor="middle" x="522" y="-309.626" font-family="Helvetica,sans-Serif" font-size="10.00">memoryoracle.instance.Memory.track</text>
</a>
</g>
</g>
<!-- Node14&#45;&gt;Node21 -->
<g id="edge24" class="edge"><title>Node14&#45;&gt;Node21</title>
<path fill="none" stroke="midnightblue" d="M371.019,-292.968C401.451,-294.952 436.242,-298.058 464.65,-301.37"/>
<polygon fill="midnightblue" stroke="midnightblue" points="464.459,-304.873 474.807,-302.598 465.299,-297.923 464.459,-304.873"/>
</g>
<!-- Node15&#45;&gt;Node10 -->
<g id="edge16" class="edge"><title>Node15&#45;&gt;Node10</title>
<path fill="none" stroke="midnightblue" d="M832.581,-429.664C862.642,-424.127 897.08,-417.783 925.84,-412.485"/>
<polygon fill="midnightblue" stroke="midnightblue" points="926.559,-415.911 935.76,-410.657 925.291,-409.027 926.559,-415.911"/>
</g>
<!-- Node15&#45;&gt;Node11 -->
<g id="edge17" class="edge"><title>Node15&#45;&gt;Node11</title>
<path fill="none" stroke="midnightblue" d="M830.346,-428.02C836.848,-425.488 843.172,-422.545 849,-419.126 868.79,-407.517 865.079,-393.51 885,-382.126 890.877,-378.768 897.193,-375.858 903.698,-373.338"/>
<polygon fill="midnightblue" stroke="midnightblue" points="905.084,-376.56 913.337,-369.916 902.742,-369.963 905.084,-376.56"/>
</g>
<!-- Node16 -->
<g id="node16" class="node"><title>Node16</title>
<g id="a_node16"><a xlink:href="classmemoryoracle_1_1instance_1_1Primitive.html#abc513cbf3d0938c0db133e9af0a6f5ea" target="_top" xlink:title="memoryoracle.instance.Primitive.val\l_string">
<polygon fill="none" stroke="black" points="893,-430.126 893,-460.126 1084,-460.126 1084,-430.126 893,-430.126"/>
<text text-anchor="start" x="901" y="-448.126" font-family="Helvetica,sans-Serif" font-size="10.00">memoryoracle.instance.Primitive.val</text>
<text text-anchor="middle" x="988.5" y="-437.126" font-family="Helvetica,sans-Serif" font-size="10.00">_string</text>
</a>
</g>
</g>
<!-- Node15&#45;&gt;Node16 -->
<g id="edge18" class="edge"><title>Node15&#45;&gt;Node16</title>
<path fill="none" stroke="midnightblue" d="M832.581,-443.767C848.438,-443.907 865.511,-444.056 882.328,-444.204"/>
<polygon fill="midnightblue" stroke="midnightblue" points="882.721,-447.707 892.752,-444.295 882.783,-440.708 882.721,-447.707"/>
</g>
<!-- Node21&#45;&gt;Node3 -->
<g id="edge25" class="edge"><title>Node21&#45;&gt;Node3</title>
<path fill="none" stroke="midnightblue" d="M529.173,-321.939C547.045,-349.513 601.795,-428.264 668,-468.126 670.825,-469.827 673.772,-471.41 676.803,-472.882"/>
<polygon fill="midnightblue" stroke="midnightblue" points="675.545,-476.153 686.108,-476.975 678.364,-469.745 675.545,-476.153"/>
</g>
<!-- Node21&#45;&gt;Node7 -->
<g id="edge26" class="edge"><title>Node21&#45;&gt;Node7</title>
<path fill="none" stroke="midnightblue" d="M620.751,-309.625C632.926,-309.314 645.389,-308.995 657.595,-308.683"/>
<polygon fill="midnightblue" stroke="midnightblue" points="657.869,-312.177 667.776,-308.422 657.69,-305.179 657.869,-312.177"/>
</g>
<!-- Node21&#45;&gt;Node9 -->
<g id="edge27" class="edge"><title>Node21&#45;&gt;Node9</title>
<path fill="none" stroke="midnightblue" d="M550.359,-321.693C588.111,-334.894 656.936,-358.961 704.844,-375.714"/>
<polygon fill="midnightblue" stroke="midnightblue" points="703.837,-379.069 714.431,-379.066 706.147,-372.461 703.837,-379.069"/>
</g>
<!-- Node21&#45;&gt;Node12 -->
<g id="edge28" class="edge"><title>Node21&#45;&gt;Node12</title>
<path fill="none" stroke="midnightblue" d="M614.354,-302.535C620.589,-299.995 626.55,-296.896 632,-293.126 657.891,-275.219 650.668,-258.406 668,-232.126 691.314,-196.776 720.755,-157.57 739.362,-133.382"/>
<polygon fill="midnightblue" stroke="midnightblue" points="742.351,-135.238 745.696,-125.185 736.812,-130.958 742.351,-135.238"/>
</g>
<!-- Node21&#45;&gt;Node13 -->
<g id="edge29" class="edge"><title>Node21&#45;&gt;Node13</title>
<path fill="none" stroke="midnightblue" d="M585.526,-302.598C600.804,-299.893 617.054,-296.698 632,-293.126 648.272,-289.238 651.942,-286.822 668,-282.126 676.013,-279.783 684.444,-277.366 692.796,-275"/>
<polygon fill="midnightblue" stroke="midnightblue" points="693.86,-278.337 702.535,-272.254 691.961,-271.599 693.86,-278.337"/>
</g>
<!-- Node21&#45;&gt;Node14 -->
<g id="edge30" class="edge"><title>Node21&#45;&gt;Node14</title>
<path fill="none" stroke="midnightblue" d="M423.493,-310.521C409.317,-309.41 394.834,-308.125 380.981,-306.746"/>
<polygon fill="midnightblue" stroke="midnightblue" points="381.323,-303.263 371.019,-305.727 380.61,-310.227 381.323,-303.263"/>
</g>
</g>
</svg>
