<?xml version="1.0" encoding="UTF-8" standalone="no"?>
<!DOCTYPE svg PUBLIC "-//W3C//DTD SVG 1.1//EN"
 "http://www.w3.org/Graphics/SVG/1.1/DTD/svg11.dtd">
<!-- Generated by graphviz version 2.38.0 (20140413.2041)
 -->
<!-- Title: memoryoracle.instance.Owner Pages: 1 -->
<svg width="362pt" height="778pt"
 viewBox="0.00 0.00 362.00 778.00" xmlns="http://www.w3.org/2000/svg" xmlns:xlink="http://www.w3.org/1999/xlink">
<g id="graph0" class="graph" transform="scale(1 1) rotate(0) translate(4 774)">
<title>memoryoracle.instance.Owner</title>
<!-- Node1 -->
<g id="node1" class="node"><title>Node1</title>
<polygon fill="#bfbfbf" stroke="black" points="90.5,-138.5 90.5,-195.5 253.5,-195.5 253.5,-138.5 90.5,-138.5"/>
<text text-anchor="middle" x="172" y="-183.5" font-family="Helvetica,sans-Serif" font-size="10.00">memoryoracle.instance.Owner</text>
<polyline fill="none" stroke="black" points="90.5,-176.5 253.5,-176.5 "/>
<text text-anchor="start" x="98.5" y="-164.5" font-family="Helvetica,sans-Serif" font-size="10.00">+ children</text>
<polyline fill="none" stroke="black" points="90.5,-157.5 253.5,-157.5 "/>
<text text-anchor="middle" x="172" y="-145.5" font-family="Helvetica,sans-Serif" font-size="10.00"> </text>
</g>
<!-- Node6 -->
<g id="node6" class="node"><title>Node6</title>
<g id="a_node6"><a xlink:href="classmemoryoracle_1_1instance_1_1Array.html" target="_top" xlink:title="{memoryoracle.instance.Array\n|+ repository\l&#45; _updateTracker\l&#45; _watchers\l&#45; _typeHandlerCode\l|&#45; _track()\l}">
<polygon fill="none" stroke="black" points="0,-6 0,-96 158,-96 158,-6 0,-6"/>
<text text-anchor="middle" x="79" y="-84" font-family="Helvetica,sans-Serif" font-size="10.00">memoryoracle.instance.Array</text>
<polyline fill="none" stroke="black" points="0,-77 158,-77 "/>
<text text-anchor="start" x="8" y="-65" font-family="Helvetica,sans-Serif" font-size="10.00">+ repository</text>
<text text-anchor="start" x="8" y="-54" font-family="Helvetica,sans-Serif" font-size="10.00">&#45; _updateTracker</text>
<text text-anchor="start" x="8" y="-43" font-family="Helvetica,sans-Serif" font-size="10.00">&#45; _watchers</text>
<text text-anchor="start" x="8" y="-32" font-family="Helvetica,sans-Serif" font-size="10.00">&#45; _typeHandlerCode</text>
<polyline fill="none" stroke="black" points="0,-25 158,-25 "/>
<text text-anchor="start" x="8" y="-13" font-family="Helvetica,sans-Serif" font-size="10.00">&#45; _track()</text>
</a>
</g>
</g>
<!-- Node1&#45;&gt;Node6 -->
<g id="edge5" class="edge"><title>Node1&#45;&gt;Node6</title>
<path fill="none" stroke="midnightblue" d="M142.955,-130.396C134.128,-119.577 124.32,-107.554 115.089,-96.2385"/>
<polygon fill="none" stroke="midnightblue" points="140.454,-132.868 149.487,-138.404 145.878,-128.443 140.454,-132.868"/>
</g>
<!-- Node7 -->
<g id="node7" class="node"><title>Node7</title>
<g id="a_node7"><a xlink:href="classmemoryoracle_1_1instance_1_1Structure.html" target="_top" xlink:title="{memoryoracle.instance.Structure\n|+ children\l+ repository\l&#45; _typeHandlerCode\l&#45; _updateTracker\l&#45; _watchers\l|&#45; _track()\l}">
<polygon fill="none" stroke="black" points="176,-0.5 176,-101.5 354,-101.5 354,-0.5 176,-0.5"/>
<text text-anchor="middle" x="265" y="-89.5" font-family="Helvetica,sans-Serif" font-size="10.00">memoryoracle.instance.Structure</text>
<polyline fill="none" stroke="black" points="176,-82.5 354,-82.5 "/>
<text text-anchor="start" x="184" y="-70.5" font-family="Helvetica,sans-Serif" font-size="10.00">+ children</text>
<text text-anchor="start" x="184" y="-59.5" font-family="Helvetica,sans-Serif" font-size="10.00">+ repository</text>
<text text-anchor="start" x="184" y="-48.5" font-family="Helvetica,sans-Serif" font-size="10.00">&#45; _typeHandlerCode</text>
<text text-anchor="start" x="184" y="-37.5" font-family="Helvetica,sans-Serif" font-size="10.00">&#45; _updateTracker</text>
<text text-anchor="start" x="184" y="-26.5" font-family="Helvetica,sans-Serif" font-size="10.00">&#45; _watchers</text>
<polyline fill="none" stroke="black" points="176,-19.5 354,-19.5 "/>
<text text-anchor="start" x="184" y="-7.5" font-family="Helvetica,sans-Serif" font-size="10.00">&#45; _track()</text>
</a>
</g>
</g>
<!-- Node1&#45;&gt;Node7 -->
<g id="edge6" class="edge"><title>Node1&#45;&gt;Node7</title>
<path fill="none" stroke="midnightblue" d="M200.883,-130.595C208.369,-121.419 216.569,-111.367 224.53,-101.608"/>
<polygon fill="none" stroke="midnightblue" points="198.122,-128.443 194.513,-138.404 203.546,-132.868 198.122,-128.443"/>
</g>
<!-- Node2 -->
<g id="node2" class="node"><title>Node2</title>
<g id="a_node2"><a xlink:href="classmemoryoracle_1_1instance_1_1Instance.html" target="_top" xlink:title="{memoryoracle.instance.Instance\n|+ address\l+ name\l+ description\l+ type\l+ parent_class\l+ meta\l&#45; _addressFixer\l&#45; _updatedNames\l&#45; _watchers\l|+ index()\l+ track()\l+ update()\l+ watchers()\l&#45; _basic_track()\l&#45; _clear_updated()\l}">
<polygon fill="none" stroke="black" points="85.5,-232.5 85.5,-432.5 258.5,-432.5 258.5,-232.5 85.5,-232.5"/>
<text text-anchor="middle" x="172" y="-420.5" font-family="Helvetica,sans-Serif" font-size="10.00">memoryoracle.instance.Instance</text>
<polyline fill="none" stroke="black" points="85.5,-413.5 258.5,-413.5 "/>
<text text-anchor="start" x="93.5" y="-401.5" font-family="Helvetica,sans-Serif" font-size="10.00">+ address</text>
<text text-anchor="start" x="93.5" y="-390.5" font-family="Helvetica,sans-Serif" font-size="10.00">+ name</text>
<text text-anchor="start" x="93.5" y="-379.5" font-family="Helvetica,sans-Serif" font-size="10.00">+ description</text>
<text text-anchor="start" x="93.5" y="-368.5" font-family="Helvetica,sans-Serif" font-size="10.00">+ type</text>
<text text-anchor="start" x="93.5" y="-357.5" font-family="Helvetica,sans-Serif" font-size="10.00">+ parent_class</text>
<text text-anchor="start" x="93.5" y="-346.5" font-family="Helvetica,sans-Serif" font-size="10.00">+ meta</text>
<text text-anchor="start" x="93.5" y="-335.5" font-family="Helvetica,sans-Serif" font-size="10.00">&#45; _addressFixer</text>
<text text-anchor="start" x="93.5" y="-324.5" font-family="Helvetica,sans-Serif" font-size="10.00">&#45; _updatedNames</text>
<text text-anchor="start" x="93.5" y="-313.5" font-family="Helvetica,sans-Serif" font-size="10.00">&#45; _watchers</text>
<polyline fill="none" stroke="black" points="85.5,-306.5 258.5,-306.5 "/>
<text text-anchor="start" x="93.5" y="-294.5" font-family="Helvetica,sans-Serif" font-size="10.00">+ index()</text>
<text text-anchor="start" x="93.5" y="-283.5" font-family="Helvetica,sans-Serif" font-size="10.00">+ track()</text>
<text text-anchor="start" x="93.5" y="-272.5" font-family="Helvetica,sans-Serif" font-size="10.00">+ update()</text>
<text text-anchor="start" x="93.5" y="-261.5" font-family="Helvetica,sans-Serif" font-size="10.00">+ watchers()</text>
<text text-anchor="start" x="93.5" y="-250.5" font-family="Helvetica,sans-Serif" font-size="10.00">&#45; _basic_track()</text>
<text text-anchor="start" x="93.5" y="-239.5" font-family="Helvetica,sans-Serif" font-size="10.00">&#45; _clear_updated()</text>
</a>
</g>
</g>
<!-- Node2&#45;&gt;Node1 -->
<g id="edge1" class="edge"><title>Node2&#45;&gt;Node1</title>
<path fill="none" stroke="midnightblue" d="M172,-221.964C172,-212.366 172,-203.348 172,-195.533"/>
<polygon fill="none" stroke="midnightblue" points="168.5,-222.15 172,-232.15 175.5,-222.15 168.5,-222.15"/>
</g>
<!-- Node3 -->
<g id="node3" class="node"><title>Node3</title>
<g id="a_node3"><a xlink:href="classmemoryoracle_1_1typed_1_1Typed.html" target="_top" xlink:title="{memoryoracle.typed.Typed\n|&#45; _type\l&#45; _typeHandlerCode\l|+ type()\l+ type_code()\l}">
<polygon fill="none" stroke="black" points="99,-469.5 99,-548.5 245,-548.5 245,-469.5 99,-469.5"/>
<text text-anchor="middle" x="172" y="-536.5" font-family="Helvetica,sans-Serif" font-size="10.00">memoryoracle.typed.Typed</text>
<polyline fill="none" stroke="black" points="99,-529.5 245,-529.5 "/>
<text text-anchor="start" x="107" y="-517.5" font-family="Helvetica,sans-Serif" font-size="10.00">&#45; _type</text>
<text text-anchor="start" x="107" y="-506.5" font-family="Helvetica,sans-Serif" font-size="10.00">&#45; _typeHandlerCode</text>
<polyline fill="none" stroke="black" points="99,-499.5 245,-499.5 "/>
<text text-anchor="start" x="107" y="-487.5" font-family="Helvetica,sans-Serif" font-size="10.00">+ type()</text>
<text text-anchor="start" x="107" y="-476.5" font-family="Helvetica,sans-Serif" font-size="10.00">+ type_code()</text>
</a>
</g>
</g>
<!-- Node3&#45;&gt;Node2 -->
<g id="edge2" class="edge"><title>Node3&#45;&gt;Node2</title>
<path fill="none" stroke="midnightblue" d="M172,-459.064C172,-450.735 172,-441.825 172,-432.738"/>
<polygon fill="none" stroke="midnightblue" points="168.5,-459.273 172,-469.273 175.5,-459.273 168.5,-459.273"/>
</g>
<!-- Node4 -->
<g id="node4" class="node"><title>Node4</title>
<g id="a_node4"><a xlink:href="classmemoryoracle_1_1tracked_1_1Tracked.html" target="_top" xlink:title="{memoryoracle.tracked.Tracked\n|&#45; _description\l|+ description()\l+ name()\l+ track()\l&#45; _init()\l}">
<polygon fill="none" stroke="black" points="90,-585.5 90,-675.5 254,-675.5 254,-585.5 90,-585.5"/>
<text text-anchor="middle" x="172" y="-663.5" font-family="Helvetica,sans-Serif" font-size="10.00">memoryoracle.tracked.Tracked</text>
<polyline fill="none" stroke="black" points="90,-656.5 254,-656.5 "/>
<text text-anchor="start" x="98" y="-644.5" font-family="Helvetica,sans-Serif" font-size="10.00">&#45; _description</text>
<polyline fill="none" stroke="black" points="90,-637.5 254,-637.5 "/>
<text text-anchor="start" x="98" y="-625.5" font-family="Helvetica,sans-Serif" font-size="10.00">+ description()</text>
<text text-anchor="start" x="98" y="-614.5" font-family="Helvetica,sans-Serif" font-size="10.00">+ name()</text>
<text text-anchor="start" x="98" y="-603.5" font-family="Helvetica,sans-Serif" font-size="10.00">+ track()</text>
<text text-anchor="start" x="98" y="-592.5" font-family="Helvetica,sans-Serif" font-size="10.00">&#45; _init()</text>
</a>
</g>
</g>
<!-- Node4&#45;&gt;Node3 -->
<g id="edge3" class="edge"><title>Node4&#45;&gt;Node3</title>
<path fill="none" stroke="midnightblue" d="M172,-575.079C172,-566.234 172,-557.233 172,-548.858"/>
<polygon fill="none" stroke="midnightblue" points="168.5,-575.342 172,-585.342 175.5,-575.342 168.5,-575.342"/>
</g>
<!-- Node5 -->
<g id="node5" class="node"><title>Node5</title>
<polygon fill="none" stroke="#bfbfbf" points="76.5,-712.5 76.5,-769.5 267.5,-769.5 267.5,-712.5 76.5,-712.5"/>
<text text-anchor="middle" x="172" y="-757.5" font-family="Helvetica,sans-Serif" font-size="10.00">mongoengine::EmbeddedDocument</text>
<polyline fill="none" stroke="#bfbfbf" points="76.5,-750.5 267.5,-750.5 "/>
<text text-anchor="middle" x="172" y="-738.5" font-family="Helvetica,sans-Serif" font-size="10.00"> </text>
<polyline fill="none" stroke="#bfbfbf" points="76.5,-731.5 267.5,-731.5 "/>
<text text-anchor="middle" x="172" y="-719.5" font-family="Helvetica,sans-Serif" font-size="10.00"> </text>
</g>
<!-- Node5&#45;&gt;Node4 -->
<g id="edge4" class="edge"><title>Node5&#45;&gt;Node4</title>
<path fill="none" stroke="midnightblue" d="M172,-702.214C172,-693.609 172,-684.394 172,-675.554"/>
<polygon fill="none" stroke="midnightblue" points="168.5,-702.34 172,-712.34 175.5,-702.34 168.5,-702.34"/>
</g>
</g>
</svg>
