<?xml version="1.0" encoding="UTF-8" standalone="no"?>
<!DOCTYPE svg PUBLIC "-//W3C//DTD SVG 1.1//EN"
 "http://www.w3.org/Graphics/SVG/1.1/DTD/svg11.dtd">
<!-- Generated by graphviz version 2.38.0 (20140413.2041)
 -->
<!-- Title: memoryoracle.models.Typed.__init__ Pages: 1 -->
<svg width="1099pt" height="461pt"
 viewBox="0.00 0.00 1099.00 461.16" xmlns="http://www.w3.org/2000/svg" xmlns:xlink="http://www.w3.org/1999/xlink">
<g id="graph0" class="graph" transform="scale(1 1) rotate(0) translate(4 457.165)">
<title>memoryoracle.models.Typed.__init__</title>
<!-- Node1 -->
<g id="node1" class="node"><title>Node1</title>
<polygon fill="#bfbfbf" stroke="black" points="0,-289.165 0,-319.165 158,-319.165 158,-289.165 0,-289.165"/>
<text text-anchor="start" x="8" y="-307.165" font-family="Helvetica,sans-Serif" font-size="10.00">memoryoracle.models.Typed.</text>
<text text-anchor="middle" x="79" y="-296.165" font-family="Helvetica,sans-Serif" font-size="10.00">__init__</text>
</g>
<!-- Node2 -->
<g id="node2" class="node"><title>Node2</title>
<g id="a_node2"><a xlink:href="classmemoryoracle_1_1frame_1_1Frame.html#aba4a80563b93cf0069db8d64df6b19e5" target="_top" xlink:title="memoryoracle.frame.Frame.index">
<polygon fill="none" stroke="black" points="664.5,-433.665 664.5,-452.665 843.5,-452.665 843.5,-433.665 664.5,-433.665"/>
<text text-anchor="middle" x="754" y="-440.665" font-family="Helvetica,sans-Serif" font-size="10.00">memoryoracle.frame.Frame.index</text>
</a>
</g>
</g>
<!-- Node1&#45;&gt;Node2 -->
<g id="edge1" class="edge"><title>Node1&#45;&gt;Node2</title>
<path fill="none" stroke="midnightblue" d="M111.775,-319.174C134.288,-329.261 165.443,-342.132 194,-350.165 351.894,-394.577 541.215,-420.586 654.064,-433.326"/>
<polygon fill="midnightblue" stroke="midnightblue" points="653.743,-436.811 664.07,-434.443 654.52,-429.855 653.743,-436.811"/>
</g>
<!-- Node3 -->
<g id="node3" class="node"><title>Node3</title>
<g id="a_node3"><a xlink:href="classmemoryoracle_1_1instance_1_1Memory.html#aba9e6136a3854e0ab59a74acd015be06" target="_top" xlink:title="memoryoracle.instance.Memory.index">
<polygon fill="none" stroke="black" points="654.5,-395.665 654.5,-414.665 853.5,-414.665 853.5,-395.665 654.5,-395.665"/>
<text text-anchor="middle" x="754" y="-402.665" font-family="Helvetica,sans-Serif" font-size="10.00">memoryoracle.instance.Memory.index</text>
</a>
</g>
</g>
<!-- Node1&#45;&gt;Node3 -->
<g id="edge2" class="edge"><title>Node1&#45;&gt;Node3</title>
<path fill="none" stroke="midnightblue" d="M158.189,-315.899C289.206,-335.561 551.284,-374.893 679.263,-394.099"/>
<polygon fill="midnightblue" stroke="midnightblue" points="678.952,-397.591 689.361,-395.614 679.991,-390.669 678.952,-397.591"/>
</g>
<!-- Node4 -->
<g id="node4" class="node"><title>Node4</title>
<g id="a_node4"><a xlink:href="classmemoryoracle_1_1instance_1_1Memory.html#a8951ac234fecbd6cd473133ae7e63662" target="_top" xlink:title="memoryoracle.instance.Memory.track">
<polygon fill="none" stroke="black" points="194,-214.665 194,-233.665 391,-233.665 391,-214.665 194,-214.665"/>
<text text-anchor="middle" x="292.5" y="-221.665" font-family="Helvetica,sans-Serif" font-size="10.00">memoryoracle.instance.Memory.track</text>
</a>
</g>
</g>
<!-- Node1&#45;&gt;Node4 -->
<g id="edge3" class="edge"><title>Node1&#45;&gt;Node4</title>
<path fill="none" stroke="midnightblue" d="M119.782,-289.117C159.216,-274.201 219.027,-251.578 256.647,-237.348"/>
<polygon fill="midnightblue" stroke="midnightblue" points="258.055,-240.557 266.17,-233.746 255.579,-234.01 258.055,-240.557"/>
</g>
<!-- Node21 -->
<g id="node21" class="node"><title>Node21</title>
<g id="a_node21"><a xlink:href="classmemoryoracle_1_1models_1_1Typed.html#aa1d5d8d5b7ebe5c2876f363e7eb669db" target="_top" xlink:title="memoryoracle.models.Typed.track">
<polygon fill="none" stroke="black" points="201.5,-171.665 201.5,-190.665 383.5,-190.665 383.5,-171.665 201.5,-171.665"/>
<text text-anchor="middle" x="292.5" y="-178.665" font-family="Helvetica,sans-Serif" font-size="10.00">memoryoracle.models.Typed.track</text>
</a>
</g>
</g>
<!-- Node1&#45;&gt;Node21 -->
<g id="edge27" class="edge"><title>Node1&#45;&gt;Node21</title>
<path fill="none" stroke="midnightblue" d="M93.1006,-288.911C112.768,-267.002 152.11,-226.879 194,-205.165 203.207,-200.392 213.4,-196.542 223.623,-193.443"/>
<polygon fill="midnightblue" stroke="midnightblue" points="224.722,-196.77 233.403,-190.696 222.829,-190.031 224.722,-196.77"/>
</g>
<!-- Node5 -->
<g id="node5" class="node"><title>Node5</title>
<g id="a_node5"><a xlink:href="classmemoryoracle_1_1instance_1_1Memory.html#ac50fd3bb7216dc0481b8c6f23831a998" target="_top" xlink:title="memoryoracle.instance.Memory.\l_basic_track">
<polygon fill="none" stroke="black" points="431,-258.165 431,-288.165 604,-288.165 604,-258.165 431,-258.165"/>
<text text-anchor="start" x="439" y="-276.165" font-family="Helvetica,sans-Serif" font-size="10.00">memoryoracle.instance.Memory.</text>
<text text-anchor="middle" x="517.5" y="-265.165" font-family="Helvetica,sans-Serif" font-size="10.00">_basic_track</text>
</a>
</g>
</g>
<!-- Node4&#45;&gt;Node5 -->
<g id="edge4" class="edge"><title>Node4&#45;&gt;Node5</title>
<path fill="none" stroke="midnightblue" d="M336.761,-233.671C365.466,-239.978 403.974,-248.44 437.984,-255.912"/>
<polygon fill="midnightblue" stroke="midnightblue" points="437.392,-259.366 447.91,-258.094 438.894,-252.529 437.392,-259.366"/>
</g>
<!-- Node7 -->
<g id="node7" class="node"><title>Node7</title>
<g id="a_node7"><a xlink:href="classmemoryoracle_1_1instance_1_1Structure.html#a200a54be462e0199b7833cbd11f81a52" target="_top" xlink:title="memoryoracle.instance.Structure.\l_track">
<polygon fill="none" stroke="black" points="427,-111.165 427,-141.165 608,-141.165 608,-111.165 427,-111.165"/>
<text text-anchor="start" x="435" y="-129.165" font-family="Helvetica,sans-Serif" font-size="10.00">memoryoracle.instance.Structure.</text>
<text text-anchor="middle" x="517.5" y="-118.165" font-family="Helvetica,sans-Serif" font-size="10.00">_track</text>
</a>
</g>
</g>
<!-- Node4&#45;&gt;Node7 -->
<g id="edge8" class="edge"><title>Node4&#45;&gt;Node7</title>
<path fill="none" stroke="midnightblue" d="M359.654,-214.612C370.703,-211.176 381.61,-206.507 391,-200.165 413.692,-184.838 404.468,-165.725 427,-150.165 429.279,-148.591 431.657,-147.12 434.109,-145.745"/>
<polygon fill="midnightblue" stroke="midnightblue" points="435.885,-148.771 443.274,-141.178 432.762,-142.506 435.885,-148.771"/>
</g>
<!-- Node9 -->
<g id="node9" class="node"><title>Node9</title>
<g id="a_node9"><a xlink:href="classmemoryoracle_1_1instance_1_1Array.html#a1d8c3993d8a52bfbec8240d6f79b3ce1" target="_top" xlink:title="TODO: upgrade this to ref field. ">
<polygon fill="none" stroke="black" points="437.5,-62.1649 437.5,-92.1649 597.5,-92.1649 597.5,-62.1649 437.5,-62.1649"/>
<text text-anchor="start" x="445.5" y="-80.1649" font-family="Helvetica,sans-Serif" font-size="10.00">memoryoracle.instance.Array.</text>
<text text-anchor="middle" x="517.5" y="-69.1649" font-family="Helvetica,sans-Serif" font-size="10.00">_track</text>
</a>
</g>
</g>
<!-- Node4&#45;&gt;Node9 -->
<g id="edge10" class="edge"><title>Node4&#45;&gt;Node9</title>
<path fill="none" stroke="midnightblue" d="M367.225,-214.47C375.919,-210.983 384.126,-206.338 391,-200.165 425.835,-168.884 392.489,-132.804 427,-101.165 428.149,-100.112 429.339,-99.1039 430.565,-98.1395"/>
<polygon fill="midnightblue" stroke="midnightblue" points="432.786,-100.864 439.138,-92.3844 428.885,-95.0521 432.786,-100.864"/>
</g>
<!-- Node12 -->
<g id="node12" class="node"><title>Node12</title>
<g id="a_node12"><a xlink:href="classmemoryoracle_1_1instance_1_1Primitive.html#a68562bda9732e33fe32188597e2f4b91" target="_top" xlink:title="memoryoracle.instance.Primitive.\l_track">
<polygon fill="none" stroke="black" points="429,-307.165 429,-337.165 606,-337.165 606,-307.165 429,-307.165"/>
<text text-anchor="start" x="437" y="-325.165" font-family="Helvetica,sans-Serif" font-size="10.00">memoryoracle.instance.Primitive.</text>
<text text-anchor="middle" x="517.5" y="-314.165" font-family="Helvetica,sans-Serif" font-size="10.00">_track</text>
</a>
</g>
</g>
<!-- Node4&#45;&gt;Node12 -->
<g id="edge13" class="edge"><title>Node4&#45;&gt;Node12</title>
<path fill="none" stroke="midnightblue" d="M308.556,-233.893C332.709,-249.15 381.978,-278.848 427,-297.165 432.884,-299.559 439.075,-301.808 445.34,-303.9"/>
<polygon fill="midnightblue" stroke="midnightblue" points="444.621,-307.344 455.212,-307.056 446.753,-300.677 444.621,-307.344"/>
</g>
<!-- Node13 -->
<g id="node13" class="node"><title>Node13</title>
<g id="a_node13"><a xlink:href="classmemoryoracle_1_1instance_1_1Pointer.html#a2cc9e298adaad8bed089d90186fcde8a" target="_top" xlink:title="memoryoracle.instance.Pointer.\l_track">
<polygon fill="none" stroke="black" points="433,-160.165 433,-190.165 602,-190.165 602,-160.165 433,-160.165"/>
<text text-anchor="start" x="441" y="-178.165" font-family="Helvetica,sans-Serif" font-size="10.00">memoryoracle.instance.Pointer.</text>
<text text-anchor="middle" x="517.5" y="-167.165" font-family="Helvetica,sans-Serif" font-size="10.00">_track</text>
</a>
</g>
</g>
<!-- Node4&#45;&gt;Node13 -->
<g id="edge14" class="edge"><title>Node4&#45;&gt;Node13</title>
<path fill="none" stroke="midnightblue" d="M336.761,-214.659C365.466,-208.352 403.974,-199.89 437.984,-192.417"/>
<polygon fill="midnightblue" stroke="midnightblue" points="438.894,-195.801 447.91,-190.236 437.392,-188.964 438.894,-195.801"/>
</g>
<!-- Node14 -->
<g id="node14" class="node"><title>Node14</title>
<g id="a_node14"><a xlink:href="classmemoryoracle_1_1instance_1_1Int.html#a38c9424341353f006771163d360594da" target="_top" xlink:title="memoryoracle.instance.Int.\l_track">
<polygon fill="none" stroke="black" points="443.5,-209.165 443.5,-239.165 591.5,-239.165 591.5,-209.165 443.5,-209.165"/>
<text text-anchor="start" x="451.5" y="-227.165" font-family="Helvetica,sans-Serif" font-size="10.00">memoryoracle.instance.Int.</text>
<text text-anchor="middle" x="517.5" y="-216.165" font-family="Helvetica,sans-Serif" font-size="10.00">_track</text>
</a>
</g>
</g>
<!-- Node4&#45;&gt;Node14 -->
<g id="edge16" class="edge"><title>Node4&#45;&gt;Node14</title>
<path fill="none" stroke="midnightblue" d="M391.311,-217.46C405.206,-217.368 419.389,-217.417 432.979,-217.607"/>
<polygon fill="midnightblue" stroke="midnightblue" points="433.184,-221.111 443.241,-217.781 433.302,-214.112 433.184,-221.111"/>
</g>
<!-- Node5&#45;&gt;Node2 -->
<g id="edge6" class="edge"><title>Node5&#45;&gt;Node2</title>
<path fill="none" stroke="midnightblue" d="M594.907,-288.235C599.674,-291.017 604.11,-294.298 608,-298.165 649.304,-339.225 600.699,-385.216 644,-424.165 647.468,-427.284 651.258,-429.982 655.279,-432.312"/>
<polygon fill="midnightblue" stroke="midnightblue" points="653.9,-435.535 664.414,-436.842 657.01,-429.263 653.9,-435.535"/>
</g>
<!-- Node5&#45;&gt;Node3 -->
<g id="edge7" class="edge"><title>Node5&#45;&gt;Node3</title>
<path fill="none" stroke="midnightblue" d="M593.577,-288.264C598.774,-291.033 603.662,-294.303 608,-298.165 639.561,-326.264 611.076,-359.675 644,-386.165 646.03,-387.798 648.15,-389.311 650.347,-390.713"/>
<polygon fill="midnightblue" stroke="midnightblue" points="648.714,-393.81 659.16,-395.584 652.1,-387.683 648.714,-393.81"/>
</g>
<!-- Node6 -->
<g id="node6" class="node"><title>Node6</title>
<g id="a_node6"><a xlink:href="classmemoryoracle_1_1instance_1_1Memory.html#acde5472399a5335909aca575b634dde7" target="_top" xlink:title="memoryoracle.instance.Memory.extract\l_dynamic_type">
<polygon fill="none" stroke="black" points="650.5,-346.165 650.5,-376.165 857.5,-376.165 857.5,-346.165 650.5,-346.165"/>
<text text-anchor="start" x="658.5" y="-364.165" font-family="Helvetica,sans-Serif" font-size="10.00">memoryoracle.instance.Memory.extract</text>
<text text-anchor="middle" x="754" y="-353.165" font-family="Helvetica,sans-Serif" font-size="10.00">_dynamic_type</text>
</a>
</g>
</g>
<!-- Node5&#45;&gt;Node6 -->
<g id="edge5" class="edge"><title>Node5&#45;&gt;Node6</title>
<path fill="none" stroke="midnightblue" d="M587.589,-288.217C594.723,-291.005 601.669,-294.293 608,-298.165 628.124,-310.472 623.541,-325.422 644,-337.165 647.214,-339.01 650.556,-340.713 653.989,-342.285"/>
<polygon fill="midnightblue" stroke="midnightblue" points="652.688,-345.534 663.265,-346.149 655.379,-339.072 652.688,-345.534"/>
</g>
<!-- Node8 -->
<g id="node8" class="node"><title>Node8</title>
<g id="a_node8"><a xlink:href="namespacememoryoracle_1_1instance.html#ac651a8635b1ae2ee7e788bf9adb17a0b" target="_top" xlink:title="memoryoracle.instance.addressable\l_factory">
<polygon fill="none" stroke="black" points="658.5,-62.1649 658.5,-92.1649 849.5,-92.1649 849.5,-62.1649 658.5,-62.1649"/>
<text text-anchor="start" x="666.5" y="-80.1649" font-family="Helvetica,sans-Serif" font-size="10.00">memoryoracle.instance.addressable</text>
<text text-anchor="middle" x="754" y="-69.1649" font-family="Helvetica,sans-Serif" font-size="10.00">_factory</text>
</a>
</g>
</g>
<!-- Node7&#45;&gt;Node8 -->
<g id="edge9" class="edge"><title>Node7&#45;&gt;Node8</title>
<path fill="none" stroke="midnightblue" d="M590.451,-111.13C615.999,-105.792 644.937,-99.7451 671.244,-94.2482"/>
<polygon fill="midnightblue" stroke="midnightblue" points="672.112,-97.6425 681.185,-92.171 670.68,-90.7905 672.112,-97.6425"/>
</g>
<!-- Node10 -->
<g id="node10" class="node"><title>Node10</title>
<g id="a_node10"><a xlink:href="classmemoryoracle_1_1typed_1_1Typed.html#a0d1a3c7644d37da66f9ea5cb269115fe" target="_top" xlink:title="memoryoracle.typed.Typed.object">
<polygon fill="none" stroke="black" points="906,-41.6649 906,-60.6649 1085,-60.6649 1085,-41.6649 906,-41.6649"/>
<text text-anchor="middle" x="995.5" y="-48.6649" font-family="Helvetica,sans-Serif" font-size="10.00">memoryoracle.typed.Typed.object</text>
</a>
</g>
</g>
<!-- Node9&#45;&gt;Node10 -->
<g id="edge11" class="edge"><title>Node9&#45;&gt;Node10</title>
<path fill="none" stroke="midnightblue" d="M585.864,-62.0932C593.546,-59.2901 601.09,-56.0044 608,-52.1649 626.973,-41.6226 623.771,-27.0334 644,-19.1649 753.192,23.309 895.443,-15.7941 959.975,-38.1004"/>
<polygon fill="midnightblue" stroke="midnightblue" points="959.054,-41.4867 969.648,-41.5212 961.387,-34.8873 959.054,-41.4867"/>
</g>
<!-- Node11 -->
<g id="node11" class="node"><title>Node11</title>
<g id="a_node11"><a xlink:href="classmemoryoracle_1_1descriptions_1_1MemoryDescription.html#a0fc58900317d1e723b6352005e163aef" target="_top" xlink:title="memoryoracle.descriptions.\lMemoryDescription.object">
<polygon fill="none" stroke="black" points="920.5,-192.165 920.5,-222.165 1070.5,-222.165 1070.5,-192.165 920.5,-192.165"/>
<text text-anchor="start" x="928.5" y="-210.165" font-family="Helvetica,sans-Serif" font-size="10.00">memoryoracle.descriptions.</text>
<text text-anchor="middle" x="995.5" y="-199.165" font-family="Helvetica,sans-Serif" font-size="10.00">MemoryDescription.object</text>
</a>
</g>
</g>
<!-- Node9&#45;&gt;Node11 -->
<g id="edge12" class="edge"><title>Node9&#45;&gt;Node11</title>
<path fill="none" stroke="midnightblue" d="M581.338,-62.1322C601.254,-58.0467 623.439,-54.1929 644,-52.1649 741.306,-42.5673 775.349,-10.9158 864,-52.1649 922.262,-79.274 963.825,-146.619 982.854,-182.973"/>
<polygon fill="midnightblue" stroke="midnightblue" points="979.756,-184.602 987.412,-191.926 985.994,-181.427 979.756,-184.602"/>
</g>
<!-- Node13&#45;&gt;Node8 -->
<g id="edge15" class="edge"><title>Node13&#45;&gt;Node8</title>
<path fill="none" stroke="midnightblue" d="M589.878,-160.039C596.272,-157.279 602.426,-154.017 608,-150.165 630.23,-134.8 621.351,-115.905 644,-101.165 646.474,-99.5547 649.04,-98.0511 651.677,-96.6473"/>
<polygon fill="midnightblue" stroke="midnightblue" points="653.377,-99.7145 660.893,-92.2479 650.361,-93.3973 653.377,-99.7145"/>
</g>
<!-- Node14&#45;&gt;Node4 -->
<g id="edge26" class="edge"><title>Node14&#45;&gt;Node4</title>
<path fill="none" stroke="midnightblue" d="M443.241,-230.549C429.881,-230.814 415.687,-230.935 401.567,-230.912"/>
<polygon fill="midnightblue" stroke="midnightblue" points="401.326,-227.411 391.311,-230.869 401.296,-234.411 401.326,-227.411"/>
</g>
<!-- Node14&#45;&gt;Node8 -->
<g id="edge21" class="edge"><title>Node14&#45;&gt;Node8</title>
<path fill="none" stroke="midnightblue" d="M591.565,-210.378C597.542,-207.343 603.14,-203.652 608,-199.165 642.091,-167.687 609.046,-131.682 644,-101.165 645.779,-99.6117 647.636,-98.152 649.558,-96.7805"/>
<polygon fill="midnightblue" stroke="midnightblue" points="651.722,-99.5574 658.378,-91.3145 648.034,-93.6074 651.722,-99.5574"/>
</g>
<!-- Node15 -->
<g id="node15" class="node"><title>Node15</title>
<g id="a_node15"><a xlink:href="classmemoryoracle_1_1instance_1_1Int.html#a450a73bc8aaf1a7ac5f18c3ed1a933fc" target="_top" xlink:title="memoryoracle.instance.Int.\l_find_hidden_type">
<polygon fill="none" stroke="black" points="680,-297.165 680,-327.165 828,-327.165 828,-297.165 680,-297.165"/>
<text text-anchor="start" x="688" y="-315.165" font-family="Helvetica,sans-Serif" font-size="10.00">memoryoracle.instance.Int.</text>
<text text-anchor="middle" x="754" y="-304.165" font-family="Helvetica,sans-Serif" font-size="10.00">_find_hidden_type</text>
</a>
</g>
</g>
<!-- Node14&#45;&gt;Node15 -->
<g id="edge17" class="edge"><title>Node14&#45;&gt;Node15</title>
<path fill="none" stroke="midnightblue" d="M589.904,-239.296C596.223,-241.818 602.355,-244.753 608,-248.165 628.188,-260.367 623.593,-275.333 644,-287.165 652.103,-291.863 661.023,-295.678 670.164,-298.776"/>
<polygon fill="midnightblue" stroke="midnightblue" points="669.156,-302.128 679.745,-301.752 671.233,-295.443 669.156,-302.128"/>
</g>
<!-- Node17 -->
<g id="node17" class="node"><title>Node17</title>
<g id="a_node17"><a xlink:href="classmemoryoracle_1_1tracked_1_1Tracked.html#abd8dc997fb5a226926f2044462dbd94b" target="_top" xlink:title="memoryoracle.tracked.Tracked.description">
<polygon fill="none" stroke="black" points="644,-258.665 644,-277.665 864,-277.665 864,-258.665 644,-258.665"/>
<text text-anchor="middle" x="754" y="-265.665" font-family="Helvetica,sans-Serif" font-size="10.00">memoryoracle.tracked.Tracked.description</text>
</a>
</g>
</g>
<!-- Node14&#45;&gt;Node17 -->
<g id="edge22" class="edge"><title>Node14&#45;&gt;Node17</title>
<path fill="none" stroke="midnightblue" d="M591.812,-238.28C608.934,-241.55 627.102,-244.999 644,-248.165 659.125,-250.999 675.438,-254.014 690.721,-256.821"/>
<polygon fill="midnightblue" stroke="midnightblue" points="690.125,-260.27 700.593,-258.631 691.388,-253.384 690.125,-260.27"/>
</g>
<!-- Node18 -->
<g id="node18" class="node"><title>Node18</title>
<g id="a_node18"><a xlink:href="classmemoryoracle_1_1descriptions_1_1BlackBoxDecorator.html#a558c1ce5d38dc4785d4ef36c0a053967" target="_top" xlink:title="memoryoracle.descriptions.\lBlackBoxDecorator.description">
<polygon fill="none" stroke="black" points="672.5,-209.165 672.5,-239.165 835.5,-239.165 835.5,-209.165 672.5,-209.165"/>
<text text-anchor="start" x="680.5" y="-227.165" font-family="Helvetica,sans-Serif" font-size="10.00">memoryoracle.descriptions.</text>
<text text-anchor="middle" x="754" y="-216.165" font-family="Helvetica,sans-Serif" font-size="10.00">BlackBoxDecorator.description</text>
</a>
</g>
</g>
<!-- Node14&#45;&gt;Node18 -->
<g id="edge23" class="edge"><title>Node14&#45;&gt;Node18</title>
<path fill="none" stroke="midnightblue" d="M591.733,-224.165C613.974,-224.165 638.688,-224.165 661.952,-224.165"/>
<polygon fill="midnightblue" stroke="midnightblue" points="662.171,-227.665 672.171,-224.165 662.171,-220.665 662.171,-227.665"/>
</g>
<!-- Node19 -->
<g id="node19" class="node"><title>Node19</title>
<g id="a_node19"><a xlink:href="classmemoryoracle_1_1descriptions_1_1ExternalDescriptionDecorator.html#ae5952e51de2c9473ce19875b55ccb625" target="_top" xlink:title="memoryoracle.descriptions.\lExternalDescriptionDecorator.description">
<polygon fill="none" stroke="black" points="648,-160.165 648,-190.165 860,-190.165 860,-160.165 648,-160.165"/>
<text text-anchor="start" x="656" y="-178.165" font-family="Helvetica,sans-Serif" font-size="10.00">memoryoracle.descriptions.</text>
<text text-anchor="middle" x="754" y="-167.165" font-family="Helvetica,sans-Serif" font-size="10.00">ExternalDescriptionDecorator.description</text>
</a>
</g>
</g>
<!-- Node14&#45;&gt;Node19 -->
<g id="edge24" class="edge"><title>Node14&#45;&gt;Node19</title>
<path fill="none" stroke="midnightblue" d="M590.451,-209.13C615.999,-203.792 644.937,-197.745 671.244,-192.248"/>
<polygon fill="midnightblue" stroke="midnightblue" points="672.112,-195.643 681.185,-190.171 670.68,-188.79 672.112,-195.643"/>
</g>
<!-- Node20 -->
<g id="node20" class="node"><title>Node20</title>
<g id="a_node20"><a xlink:href="classmemoryoracle_1_1descriptions_1_1StandardDescriptionDecorator.html#a50e064e8a858b8eafe2c603650dbbee8" target="_top" xlink:title="memoryoracle.descriptions.\lStandardDescriptionDecorator.description">
<polygon fill="none" stroke="black" points="645,-111.165 645,-141.165 863,-141.165 863,-111.165 645,-111.165"/>
<text text-anchor="start" x="653" y="-129.165" font-family="Helvetica,sans-Serif" font-size="10.00">memoryoracle.descriptions.</text>
<text text-anchor="middle" x="754" y="-118.165" font-family="Helvetica,sans-Serif" font-size="10.00">StandardDescriptionDecorator.description</text>
</a>
</g>
</g>
<!-- Node14&#45;&gt;Node20 -->
<g id="edge25" class="edge"><title>Node14&#45;&gt;Node20</title>
<path fill="none" stroke="midnightblue" d="M589.878,-209.039C596.272,-206.279 602.426,-203.017 608,-199.165 630.23,-183.8 621.351,-164.905 644,-150.165 646.474,-148.555 649.04,-147.051 651.677,-145.647"/>
<polygon fill="midnightblue" stroke="midnightblue" points="653.377,-148.714 660.893,-141.248 650.361,-142.397 653.377,-148.714"/>
</g>
<!-- Node15&#45;&gt;Node10 -->
<g id="edge18" class="edge"><title>Node15&#45;&gt;Node10</title>
<path fill="none" stroke="midnightblue" d="M828.012,-306.151C841.173,-302.248 853.9,-296.258 864,-287.165 900.664,-254.157 877.323,-225.978 900,-182.165 922.731,-138.247 958.987,-92.6739 979.348,-68.5653"/>
<polygon fill="midnightblue" stroke="midnightblue" points="982.237,-70.5721 986.076,-60.6972 976.917,-66.0229 982.237,-70.5721"/>
</g>
<!-- Node15&#45;&gt;Node11 -->
<g id="edge19" class="edge"><title>Node15&#45;&gt;Node11</title>
<path fill="none" stroke="midnightblue" d="M828.137,-298.847C840.325,-295.651 852.676,-291.789 864,-287.165 901.413,-271.887 940.426,-246.53 965.937,-228.461"/>
<polygon fill="midnightblue" stroke="midnightblue" points="968.293,-231.078 974.373,-222.401 964.209,-225.393 968.293,-231.078"/>
</g>
<!-- Node16 -->
<g id="node16" class="node"><title>Node16</title>
<g id="a_node16"><a xlink:href="classmemoryoracle_1_1instance_1_1Primitive.html#abc513cbf3d0938c0db133e9af0a6f5ea" target="_top" xlink:title="memoryoracle.instance.Primitive.val\l_string">
<polygon fill="none" stroke="black" points="900,-297.165 900,-327.165 1091,-327.165 1091,-297.165 900,-297.165"/>
<text text-anchor="start" x="908" y="-315.165" font-family="Helvetica,sans-Serif" font-size="10.00">memoryoracle.instance.Primitive.val</text>
<text text-anchor="middle" x="995.5" y="-304.165" font-family="Helvetica,sans-Serif" font-size="10.00">_string</text>
</a>
</g>
</g>
<!-- Node15&#45;&gt;Node16 -->
<g id="edge20" class="edge"><title>Node15&#45;&gt;Node16</title>
<path fill="none" stroke="midnightblue" d="M828.159,-312.165C847.547,-312.165 868.865,-312.165 889.582,-312.165"/>
<polygon fill="midnightblue" stroke="midnightblue" points="889.693,-315.665 899.693,-312.165 889.693,-308.665 889.693,-315.665"/>
</g>
<!-- Node21&#45;&gt;Node5 -->
<g id="edge28" class="edge"><title>Node21&#45;&gt;Node5</title>
<path fill="none" stroke="midnightblue" d="M357.231,-190.686C369.006,-194.123 380.793,-198.8 391,-205.165 412.15,-218.353 406.058,-234.65 427,-248.165 430.169,-250.21 433.505,-252.089 436.951,-253.817"/>
<polygon fill="midnightblue" stroke="midnightblue" points="435.74,-257.111 446.294,-258.045 438.627,-250.734 435.74,-257.111"/>
</g>
<!-- Node21&#45;&gt;Node7 -->
<g id="edge30" class="edge"><title>Node21&#45;&gt;Node7</title>
<path fill="none" stroke="midnightblue" d="M332.089,-171.647C363.215,-163.971 407.84,-152.965 445.395,-143.702"/>
<polygon fill="midnightblue" stroke="midnightblue" points="446.408,-147.057 455.279,-141.264 444.731,-140.261 446.408,-147.057"/>
</g>
<!-- Node21&#45;&gt;Node9 -->
<g id="edge31" class="edge"><title>Node21&#45;&gt;Node9</title>
<path fill="none" stroke="midnightblue" d="M306.854,-171.426C330.156,-154.841 380.231,-120.99 427,-101.165 431.784,-99.1371 436.785,-97.239 441.872,-95.4702"/>
<polygon fill="midnightblue" stroke="midnightblue" points="443.323,-98.6775 451.728,-92.2276 441.135,-92.0281 443.323,-98.6775"/>
</g>
<!-- Node21&#45;&gt;Node12 -->
<g id="edge32" class="edge"><title>Node21&#45;&gt;Node12</title>
<path fill="none" stroke="midnightblue" d="M366.592,-190.823C375.489,-194.306 383.92,-198.961 391,-205.165 424.022,-234.103 394.431,-267.718 427,-297.165 428.75,-298.747 430.592,-300.23 432.511,-301.621"/>
<polygon fill="midnightblue" stroke="midnightblue" points="431.02,-304.816 441.357,-307.139 434.725,-298.877 431.02,-304.816"/>
</g>
<!-- Node21&#45;&gt;Node13 -->
<g id="edge33" class="edge"><title>Node21&#45;&gt;Node13</title>
<path fill="none" stroke="midnightblue" d="M383.56,-178.742C396.436,-178.395 409.709,-178.038 422.657,-177.69"/>
<polygon fill="midnightblue" stroke="midnightblue" points="423.054,-181.18 432.956,-177.413 422.866,-174.183 423.054,-181.18"/>
</g>
<!-- Node21&#45;&gt;Node14 -->
<g id="edge34" class="edge"><title>Node21&#45;&gt;Node14</title>
<path fill="none" stroke="midnightblue" d="M342.991,-190.708C369.506,-195.821 402.881,-202.256 433.26,-208.114"/>
<polygon fill="midnightblue" stroke="midnightblue" points="432.951,-211.619 443.433,-210.076 434.277,-204.746 432.951,-211.619"/>
</g>
<!-- Node22 -->
<g id="node22" class="node"><title>Node22</title>
<g id="a_node22"><a xlink:href="classmemoryoracle_1_1models_1_1Typed.html#afa441c1fd6bdde840651a8ef1265a36a" target="_top" xlink:title="memoryoracle.models.Typed.\l_basic_track">
<polygon fill="none" stroke="black" points="438.5,-13.1649 438.5,-43.1649 596.5,-43.1649 596.5,-13.1649 438.5,-13.1649"/>
<text text-anchor="start" x="446.5" y="-31.1649" font-family="Helvetica,sans-Serif" font-size="10.00">memoryoracle.models.Typed.</text>
<text text-anchor="middle" x="517.5" y="-20.1649" font-family="Helvetica,sans-Serif" font-size="10.00">_basic_track</text>
</a>
</g>
</g>
<!-- Node21&#45;&gt;Node22 -->
<g id="edge29" class="edge"><title>Node21&#45;&gt;Node22</title>
<path fill="none" stroke="midnightblue" d="M300.705,-171.369C318.982,-147.24 369.784,-84.5554 427,-52.1649 430.198,-50.3544 433.538,-48.676 436.969,-47.1204"/>
<polygon fill="midnightblue" stroke="midnightblue" points="438.331,-50.3449 446.229,-43.2834 435.651,-43.8781 438.331,-50.3449"/>
</g>
</g>
</svg>
