<?xml version="1.0" encoding="UTF-8" standalone="no"?>
<!DOCTYPE svg PUBLIC "-//W3C//DTD SVG 1.1//EN"
 "http://www.w3.org/Graphics/SVG/1.1/DTD/svg11.dtd">
<!-- Generated by graphviz version 2.38.0 (20140413.2041)
 -->
<!-- Title: memoryoracle.tracked.Tracked._init Pages: 1 -->
<svg width="400pt" height="137pt"
 viewBox="0.00 0.00 400.00 137.00" xmlns="http://www.w3.org/2000/svg" xmlns:xlink="http://www.w3.org/1999/xlink">
<g id="graph0" class="graph" transform="scale(1 1) rotate(0) translate(4 133)">
<title>memoryoracle.tracked.Tracked._init</title>
<!-- Node1 -->
<g id="node1" class="node"><title>Node1</title>
<polygon fill="#bfbfbf" stroke="black" points="0,-55 0,-74 187,-74 187,-55 0,-55"/>
<text text-anchor="middle" x="93.5" y="-62" font-family="Helvetica,sans-Serif" font-size="10.00">memoryoracle.tracked.Tracked._init</text>
</g>
<!-- Node2 -->
<g id="node2" class="node"><title>Node2</title>
<g id="a_node2"><a xlink:href="classmemoryoracle_1_1instance_1_1Pointer.html#adab8c874f676b0cd3155091725e2dba2" target="_top" xlink:title="memoryoracle.instance.Pointer.\l__init__">
<polygon fill="none" stroke="black" points="223,-98.5 223,-128.5 392,-128.5 392,-98.5 223,-98.5"/>
<text text-anchor="start" x="231" y="-116.5" font-family="Helvetica,sans-Serif" font-size="10.00">memoryoracle.instance.Pointer.</text>
<text text-anchor="middle" x="307.5" y="-105.5" font-family="Helvetica,sans-Serif" font-size="10.00">__init__</text>
</a>
</g>
</g>
<!-- Node1&#45;&gt;Node2 -->
<g id="edge1" class="edge"><title>Node1&#45;&gt;Node2</title>
<path fill="none" stroke="midnightblue" d="M145.468,-76.2804C174.232,-82.9286 210.477,-91.306 241.294,-98.4287"/>
<polygon fill="midnightblue" stroke="midnightblue" points="146.158,-72.8477 135.627,-74.0058 144.582,-79.6679 146.158,-72.8477"/>
</g>
<!-- Node3 -->
<g id="node3" class="node"><title>Node3</title>
<g id="a_node3"><a xlink:href="classmemoryoracle_1_1instance_1_1Int.html#a8d393e154c88186d0aaffd262b894b2f" target="_top" xlink:title="memoryoracle.instance.Int.\l__init__">
<polygon fill="none" stroke="black" points="233.5,-49.5 233.5,-79.5 381.5,-79.5 381.5,-49.5 233.5,-49.5"/>
<text text-anchor="start" x="241.5" y="-67.5" font-family="Helvetica,sans-Serif" font-size="10.00">memoryoracle.instance.Int.</text>
<text text-anchor="middle" x="307.5" y="-56.5" font-family="Helvetica,sans-Serif" font-size="10.00">__init__</text>
</a>
</g>
</g>
<!-- Node1&#45;&gt;Node3 -->
<g id="edge2" class="edge"><title>Node1&#45;&gt;Node3</title>
<path fill="none" stroke="midnightblue" d="M197.382,-64.5C209.563,-64.5 221.799,-64.5 233.445,-64.5"/>
<polygon fill="midnightblue" stroke="midnightblue" points="197.178,-61.0001 187.178,-64.5 197.178,-68.0001 197.178,-61.0001"/>
</g>
<!-- Node4 -->
<g id="node4" class="node"><title>Node4</title>
<g id="a_node4"><a xlink:href="classmemoryoracle_1_1instance_1_1Float.html#a4eed46d4b53a21673c6fe52c26f7bd39" target="_top" xlink:title="memoryoracle.instance.Float.\l__init__">
<polygon fill="none" stroke="black" points="228,-0.5 228,-30.5 387,-30.5 387,-0.5 228,-0.5"/>
<text text-anchor="start" x="236" y="-18.5" font-family="Helvetica,sans-Serif" font-size="10.00">memoryoracle.instance.Float.</text>
<text text-anchor="middle" x="307.5" y="-7.5" font-family="Helvetica,sans-Serif" font-size="10.00">__init__</text>
</a>
</g>
</g>
<!-- Node1&#45;&gt;Node4 -->
<g id="edge3" class="edge"><title>Node1&#45;&gt;Node4</title>
<path fill="none" stroke="midnightblue" d="M145.468,-52.7196C174.232,-46.0714 210.477,-37.694 241.294,-30.5713"/>
<polygon fill="midnightblue" stroke="midnightblue" points="144.582,-49.3321 135.627,-54.9942 146.158,-56.1523 144.582,-49.3321"/>
</g>
</g>
</svg>
