<?xml version="1.0" encoding="UTF-8" standalone="no"?>
<!DOCTYPE svg PUBLIC "-//W3C//DTD SVG 1.1//EN"
 "http://www.w3.org/Graphics/SVG/1.1/DTD/svg11.dtd">
<!-- Generated by graphviz version 2.38.0 (20140413.2041)
 -->
<!-- Title: memoryoracle.tracked.ProgramFile Pages: 1 -->
<svg width="378pt" height="359pt"
 viewBox="0.00 0.00 377.50 359.00" xmlns="http://www.w3.org/2000/svg" xmlns:xlink="http://www.w3.org/1999/xlink">
<g id="graph0" class="graph" transform="scale(1 1) rotate(0) translate(4 355)">
<title>memoryoracle.tracked.ProgramFile</title>
<!-- Node1 -->
<g id="node1" class="node"><title>Node1</title>
<polygon fill="#bfbfbf" stroke="black" points="91.5,-94.5 91.5,-151.5 276.5,-151.5 276.5,-94.5 91.5,-94.5"/>
<text text-anchor="middle" x="184" y="-139.5" font-family="Helvetica,sans-Serif" font-size="10.00">memoryoracle.tracked.ProgramFile</text>
<polyline fill="none" stroke="black" points="91.5,-132.5 276.5,-132.5 "/>
<text text-anchor="middle" x="184" y="-120.5" font-family="Helvetica,sans-Serif" font-size="10.00"> </text>
<polyline fill="none" stroke="black" points="91.5,-113.5 276.5,-113.5 "/>
<text text-anchor="middle" x="184" y="-101.5" font-family="Helvetica,sans-Serif" font-size="10.00"> </text>
</g>
<!-- Node4 -->
<g id="node4" class="node"><title>Node4</title>
<g id="a_node4"><a xlink:href="classmemoryoracle_1_1tracked_1_1ObjectFile.html" target="_top" xlink:title="{memoryoracle.tracked.ObjectFile\n|+ source_file\l|}">
<polygon fill="none" stroke="black" points="0,-0.5 0,-57.5 174,-57.5 174,-0.5 0,-0.5"/>
<text text-anchor="middle" x="87" y="-45.5" font-family="Helvetica,sans-Serif" font-size="10.00">memoryoracle.tracked.ObjectFile</text>
<polyline fill="none" stroke="black" points="0,-38.5 174,-38.5 "/>
<text text-anchor="start" x="8" y="-26.5" font-family="Helvetica,sans-Serif" font-size="10.00">+ source_file</text>
<polyline fill="none" stroke="black" points="0,-19.5 174,-19.5 "/>
<text text-anchor="middle" x="87" y="-7.5" font-family="Helvetica,sans-Serif" font-size="10.00"> </text>
</a>
</g>
</g>
<!-- Node1&#45;&gt;Node4 -->
<g id="edge3" class="edge"><title>Node1&#45;&gt;Node4</title>
<path fill="none" stroke="midnightblue" d="M147.506,-87.3868C137.124,-77.5407 125.96,-66.9518 116.083,-57.5836"/>
<polygon fill="none" stroke="midnightblue" points="145.233,-90.0548 154.897,-94.397 150.05,-84.9759 145.233,-90.0548"/>
</g>
<!-- Node5 -->
<g id="node5" class="node"><title>Node5</title>
<g id="a_node5"><a xlink:href="classmemoryoracle_1_1tracked_1_1SourceFile.html" target="_top" xlink:title="{memoryoracle.tracked.SourceFile\n|+ object_file\l|}">
<polygon fill="none" stroke="black" points="192.5,-0.5 192.5,-57.5 369.5,-57.5 369.5,-0.5 192.5,-0.5"/>
<text text-anchor="middle" x="281" y="-45.5" font-family="Helvetica,sans-Serif" font-size="10.00">memoryoracle.tracked.SourceFile</text>
<polyline fill="none" stroke="black" points="192.5,-38.5 369.5,-38.5 "/>
<text text-anchor="start" x="200.5" y="-26.5" font-family="Helvetica,sans-Serif" font-size="10.00">+ object_file</text>
<polyline fill="none" stroke="black" points="192.5,-19.5 369.5,-19.5 "/>
<text text-anchor="middle" x="281" y="-7.5" font-family="Helvetica,sans-Serif" font-size="10.00"> </text>
</a>
</g>
</g>
<!-- Node1&#45;&gt;Node5 -->
<g id="edge4" class="edge"><title>Node1&#45;&gt;Node5</title>
<path fill="none" stroke="midnightblue" d="M220.494,-87.3868C230.876,-77.5407 242.04,-66.9518 251.917,-57.5836"/>
<polygon fill="none" stroke="midnightblue" points="217.95,-84.9759 213.103,-94.397 222.767,-90.0548 217.95,-84.9759"/>
</g>
<!-- Node2 -->
<g id="node2" class="node"><title>Node2</title>
<g id="a_node2"><a xlink:href="classmemoryoracle_1_1tracked_1_1Tracked.html" target="_top" xlink:title="{memoryoracle.tracked.Tracked\n|+ meta\l|+ track()\l+ description()\l}">
<polygon fill="none" stroke="black" points="102,-188.5 102,-256.5 266,-256.5 266,-188.5 102,-188.5"/>
<text text-anchor="middle" x="184" y="-244.5" font-family="Helvetica,sans-Serif" font-size="10.00">memoryoracle.tracked.Tracked</text>
<polyline fill="none" stroke="black" points="102,-237.5 266,-237.5 "/>
<text text-anchor="start" x="110" y="-225.5" font-family="Helvetica,sans-Serif" font-size="10.00">+ meta</text>
<polyline fill="none" stroke="black" points="102,-218.5 266,-218.5 "/>
<text text-anchor="start" x="110" y="-206.5" font-family="Helvetica,sans-Serif" font-size="10.00">+ track()</text>
<text text-anchor="start" x="110" y="-195.5" font-family="Helvetica,sans-Serif" font-size="10.00">+ description()</text>
</a>
</g>
</g>
<!-- Node2&#45;&gt;Node1 -->
<g id="edge1" class="edge"><title>Node2&#45;&gt;Node1</title>
<path fill="none" stroke="midnightblue" d="M184,-178.454C184,-169.404 184,-160.088 184,-151.777"/>
<polygon fill="none" stroke="midnightblue" points="180.5,-178.491 184,-188.491 187.5,-178.491 180.5,-178.491"/>
</g>
<!-- Node3 -->
<g id="node3" class="node"><title>Node3</title>
<polygon fill="none" stroke="#bfbfbf" points="150.5,-293.5 150.5,-350.5 217.5,-350.5 217.5,-293.5 150.5,-293.5"/>
<text text-anchor="middle" x="184" y="-338.5" font-family="Helvetica,sans-Serif" font-size="10.00">Document</text>
<polyline fill="none" stroke="#bfbfbf" points="150.5,-331.5 217.5,-331.5 "/>
<text text-anchor="middle" x="184" y="-319.5" font-family="Helvetica,sans-Serif" font-size="10.00"> </text>
<polyline fill="none" stroke="#bfbfbf" points="150.5,-312.5 217.5,-312.5 "/>
<text text-anchor="middle" x="184" y="-300.5" font-family="Helvetica,sans-Serif" font-size="10.00"> </text>
</g>
<!-- Node3&#45;&gt;Node2 -->
<g id="edge2" class="edge"><title>Node3&#45;&gt;Node2</title>
<path fill="none" stroke="midnightblue" d="M184,-283.063C184,-274.393 184,-265.243 184,-256.786"/>
<polygon fill="none" stroke="midnightblue" points="180.5,-283.321 184,-293.321 187.5,-283.321 180.5,-283.321"/>
</g>
</g>
</svg>
