<?xml version="1.0" encoding="UTF-8" standalone="no"?>
<!DOCTYPE svg PUBLIC "-//W3C//DTD SVG 1.1//EN"
 "http://www.w3.org/Graphics/SVG/1.1/DTD/svg11.dtd">
<!-- Generated by graphviz version 2.38.0 (20140413.2041)
 -->
<!-- Title: memoryoracle.instance.Instance._basic_track Pages: 1 -->
<svg width="666pt" height="166pt"
 viewBox="0.00 0.00 666.00 165.50" xmlns="http://www.w3.org/2000/svg" xmlns:xlink="http://www.w3.org/1999/xlink">
<g id="graph0" class="graph" transform="scale(1 1) rotate(0) translate(4 161.5)">
<title>memoryoracle.instance.Instance._basic_track</title>
<!-- Node1 -->
<g id="node1" class="node"><title>Node1</title>
<polygon fill="#bfbfbf" stroke="black" points="0,-63.5 0,-93.5 176,-93.5 176,-63.5 0,-63.5"/>
<text text-anchor="start" x="8" y="-81.5" font-family="Helvetica,sans-Serif" font-size="10.00">memoryoracle.instance.Instance.</text>
<text text-anchor="middle" x="88" y="-70.5" font-family="Helvetica,sans-Serif" font-size="10.00">_basic_track</text>
</g>
<!-- Node2 -->
<g id="node2" class="node"><title>Node2</title>
<g id="a_node2"><a xlink:href="classmemoryoracle_1_1instance_1_1Instance.html#a86649e01ee4f562debdba5421a334f78" target="_top" xlink:title="memoryoracle.instance.Instance.track">
<polygon fill="none" stroke="black" points="212,-88 212,-107 412,-107 412,-88 212,-88"/>
<text text-anchor="middle" x="312" y="-95" font-family="Helvetica,sans-Serif" font-size="10.00">memoryoracle.instance.Instance.track</text>
</a>
</g>
</g>
<!-- Node1&#45;&gt;Node2 -->
<g id="edge1" class="edge"><title>Node1&#45;&gt;Node2</title>
<path fill="none" stroke="midnightblue" d="M186.295,-86.8271C194.705,-87.5468 203.221,-88.2757 211.647,-88.9968"/>
<polygon fill="midnightblue" stroke="midnightblue" points="186.365,-83.3203 176.103,-85.9548 185.768,-90.2949 186.365,-83.3203"/>
</g>
<!-- Node7 -->
<g id="node7" class="node"><title>Node7</title>
<g id="a_node7"><a xlink:href="classmemoryoracle_1_1models_1_1Typed.html#aa1d5d8d5b7ebe5c2876f363e7eb669db" target="_top" xlink:title="memoryoracle.models.Typed.track">
<polygon fill="none" stroke="black" points="221,-50 221,-69 403,-69 403,-50 221,-50"/>
<text text-anchor="middle" x="312" y="-57" font-family="Helvetica,sans-Serif" font-size="10.00">memoryoracle.models.Typed.track</text>
</a>
</g>
</g>
<!-- Node1&#45;&gt;Node7 -->
<g id="edge6" class="edge"><title>Node1&#45;&gt;Node7</title>
<path fill="none" stroke="midnightblue" d="M186.171,-70.1836C197.701,-69.1967 209.434,-68.1926 220.86,-67.2147"/>
<polygon fill="midnightblue" stroke="midnightblue" points="185.768,-66.7051 176.103,-71.0452 186.365,-73.6797 185.768,-66.7051"/>
</g>
<!-- Node3 -->
<g id="node3" class="node"><title>Node3</title>
<g id="a_node3"><a xlink:href="classmemoryoracle_1_1instance_1_1Instance.html#a286e015a030541a0704994172024f034" target="_top" xlink:title="memoryoracle.instance.Instance.update">
<polygon fill="none" stroke="black" points="448,-138 448,-157 658,-157 658,-138 448,-138"/>
<text text-anchor="middle" x="553" y="-145" font-family="Helvetica,sans-Serif" font-size="10.00">memoryoracle.instance.Instance.update</text>
</a>
</g>
</g>
<!-- Node2&#45;&gt;Node3 -->
<g id="edge2" class="edge"><title>Node2&#45;&gt;Node3</title>
<path fill="none" stroke="midnightblue" d="M362.29,-109.379C387.812,-115.388 419.514,-122.63 448,-128.5 463.909,-131.778 481.248,-135.06 497.126,-137.952"/>
<polygon fill="midnightblue" stroke="midnightblue" points="363.013,-105.954 352.476,-107.058 361.402,-112.766 363.013,-105.954"/>
</g>
<!-- Node4 -->
<g id="node4" class="node"><title>Node4</title>
<g id="a_node4"><a xlink:href="classmemoryoracle_1_1models_1_1Typed.html#a494dfbe205034b874ff9e8c7039f579b" target="_top" xlink:title="memoryoracle.models.Typed.\l__init__">
<polygon fill="none" stroke="black" points="474,-88.5 474,-118.5 632,-118.5 632,-88.5 474,-88.5"/>
<text text-anchor="start" x="482" y="-106.5" font-family="Helvetica,sans-Serif" font-size="10.00">memoryoracle.models.Typed.</text>
<text text-anchor="middle" x="553" y="-95.5" font-family="Helvetica,sans-Serif" font-size="10.00">__init__</text>
</a>
</g>
</g>
<!-- Node2&#45;&gt;Node4 -->
<g id="edge3" class="edge"><title>Node2&#45;&gt;Node4</title>
<path fill="none" stroke="midnightblue" d="M422.436,-100.247C439.758,-100.682 457.364,-101.124 473.784,-101.536"/>
<polygon fill="midnightblue" stroke="midnightblue" points="422.366,-96.7446 412.281,-99.9924 422.19,-103.742 422.366,-96.7446"/>
</g>
<!-- Node5 -->
<g id="node5" class="node"><title>Node5</title>
<g id="a_node5"><a xlink:href="classmemoryoracle_1_1models_1_1Memory.html#a71d4a141abc3358afdf1a1325bfd4253" target="_top" xlink:title="memoryoracle.models.Memory.update">
<polygon fill="none" stroke="black" points="452,-50 452,-69 654,-69 654,-50 452,-50"/>
<text text-anchor="middle" x="553" y="-57" font-family="Helvetica,sans-Serif" font-size="10.00">memoryoracle.models.Memory.update</text>
</a>
</g>
</g>
<!-- Node2&#45;&gt;Node5 -->
<g id="edge4" class="edge"><title>Node2&#45;&gt;Node5</title>
<path fill="none" stroke="midnightblue" d="M383.028,-86.3659C417.596,-80.8697 458.871,-74.3071 491.974,-69.0439"/>
<polygon fill="midnightblue" stroke="midnightblue" points="382.328,-82.9331 373.001,-87.96 383.427,-89.8463 382.328,-82.9331"/>
</g>
<!-- Node6 -->
<g id="node6" class="node"><title>Node6</title>
<g id="a_node6"><a xlink:href="classmemoryoracle_1_1models_1_1Memory.html#aed3af349dd80317ae9cca4b4e9cb7c26" target="_top" xlink:title="memoryoracle.models.Memory.\l__init__">
<polygon fill="none" stroke="black" points="469,-0.5 469,-30.5 637,-30.5 637,-0.5 469,-0.5"/>
<text text-anchor="start" x="477" y="-18.5" font-family="Helvetica,sans-Serif" font-size="10.00">memoryoracle.models.Memory.</text>
<text text-anchor="middle" x="553" y="-7.5" font-family="Helvetica,sans-Serif" font-size="10.00">__init__</text>
</a>
</g>
</g>
<!-- Node2&#45;&gt;Node6 -->
<g id="edge5" class="edge"><title>Node2&#45;&gt;Node6</title>
<path fill="none" stroke="midnightblue" d="M398.823,-84.5991C403.383,-82.8182 407.807,-80.7959 412,-78.5 432.405,-67.3257 427.859,-52.1436 448,-40.5 454.752,-36.5965 462.088,-33.3009 469.635,-30.5189"/>
<polygon fill="midnightblue" stroke="midnightblue" points="397.59,-81.3224 389.305,-87.926 399.9,-87.9303 397.59,-81.3224"/>
</g>
<!-- Node7&#45;&gt;Node4 -->
<g id="edge7" class="edge"><title>Node7&#45;&gt;Node4</title>
<path fill="none" stroke="midnightblue" d="M374.844,-70.8855C405.064,-76.449 441.753,-83.2035 473.887,-89.1194"/>
<polygon fill="midnightblue" stroke="midnightblue" points="375.328,-67.4158 364.859,-69.0473 374.06,-74.3002 375.328,-67.4158"/>
</g>
<!-- Node7&#45;&gt;Node5 -->
<g id="edge8" class="edge"><title>Node7&#45;&gt;Node5</title>
<path fill="none" stroke="midnightblue" d="M413.151,-59.5C425.884,-59.5 438.918,-59.5 451.654,-59.5"/>
<polygon fill="midnightblue" stroke="midnightblue" points="413.015,-56.0001 403.015,-59.5 413.015,-63.0001 413.015,-56.0001"/>
</g>
<!-- Node7&#45;&gt;Node6 -->
<g id="edge9" class="edge"><title>Node7&#45;&gt;Node6</title>
<path fill="none" stroke="midnightblue" d="M374.871,-48.1095C403.926,-42.7606 438.956,-36.3114 470.168,-30.5654"/>
<polygon fill="midnightblue" stroke="midnightblue" points="374.06,-44.6998 364.859,-49.9527 375.328,-51.5842 374.06,-44.6998"/>
</g>
</g>
</svg>
