<?xml version="1.0" encoding="UTF-8" standalone="no"?>
<!DOCTYPE svg PUBLIC "-//W3C//DTD SVG 1.1//EN"
 "http://www.w3.org/Graphics/SVG/1.1/DTD/svg11.dtd">
<!-- Generated by graphviz version 2.38.0 (20140413.2041)
 -->
<!-- Title: memoryoracle.instance.Int._find_hidden_type Pages: 1 -->
<svg width="816pt" height="166pt"
 viewBox="0.00 0.00 816.00 165.50" xmlns="http://www.w3.org/2000/svg" xmlns:xlink="http://www.w3.org/1999/xlink">
<g id="graph0" class="graph" transform="scale(1 1) rotate(0) translate(4 161.5)">
<title>memoryoracle.instance.Int._find_hidden_type</title>
<!-- Node1 -->
<g id="node1" class="node"><title>Node1</title>
<polygon fill="#bfbfbf" stroke="black" points="0,-82.5 0,-112.5 148,-112.5 148,-82.5 0,-82.5"/>
<text text-anchor="start" x="8" y="-100.5" font-family="Helvetica,sans-Serif" font-size="10.00">memoryoracle.instance.Int.</text>
<text text-anchor="middle" x="74" y="-89.5" font-family="Helvetica,sans-Serif" font-size="10.00">_find_hidden_type</text>
</g>
<!-- Node2 -->
<g id="node2" class="node"><title>Node2</title>
<g id="a_node2"><a xlink:href="classmemoryoracle_1_1instance_1_1Int.html#a38c9424341353f006771163d360594da" target="_top" xlink:title="memoryoracle.instance.Int.\l_track">
<polygon fill="none" stroke="black" points="184,-82.5 184,-112.5 332,-112.5 332,-82.5 184,-82.5"/>
<text text-anchor="start" x="192" y="-100.5" font-family="Helvetica,sans-Serif" font-size="10.00">memoryoracle.instance.Int.</text>
<text text-anchor="middle" x="258" y="-89.5" font-family="Helvetica,sans-Serif" font-size="10.00">_track</text>
</a>
</g>
</g>
<!-- Node1&#45;&gt;Node2 -->
<g id="edge1" class="edge"><title>Node1&#45;&gt;Node2</title>
<path fill="none" stroke="midnightblue" d="M158.516,-97.5C166.992,-97.5 175.556,-97.5 183.91,-97.5"/>
<polygon fill="midnightblue" stroke="midnightblue" points="158.24,-94.0001 148.24,-97.5 158.24,-101 158.24,-94.0001"/>
</g>
<!-- Node3 -->
<g id="node3" class="node"><title>Node3</title>
<g id="a_node3"><a xlink:href="classmemoryoracle_1_1instance_1_1Memory.html#a8951ac234fecbd6cd473133ae7e63662" target="_top" xlink:title="memoryoracle.instance.Memory.track">
<polygon fill="none" stroke="black" points="368,-88 368,-107 565,-107 565,-88 368,-88"/>
<text text-anchor="middle" x="466.5" y="-95" font-family="Helvetica,sans-Serif" font-size="10.00">memoryoracle.instance.Memory.track</text>
</a>
</g>
</g>
<!-- Node2&#45;&gt;Node3 -->
<g id="edge2" class="edge"><title>Node2&#45;&gt;Node3</title>
<path fill="none" stroke="midnightblue" d="M342.28,-90.8635C350.718,-90.7665 359.341,-90.7317 367.912,-90.759"/>
<polygon fill="midnightblue" stroke="midnightblue" points="342.042,-87.3665 332.095,-91.0127 342.145,-94.3658 342.042,-87.3665"/>
</g>
<!-- Node8 -->
<g id="node8" class="node"><title>Node8</title>
<g id="a_node8"><a xlink:href="classmemoryoracle_1_1models_1_1Typed.html#aa1d5d8d5b7ebe5c2876f363e7eb669db" target="_top" xlink:title="memoryoracle.models.Typed.track">
<polygon fill="none" stroke="black" points="375.5,-50 375.5,-69 557.5,-69 557.5,-50 375.5,-50"/>
<text text-anchor="middle" x="466.5" y="-57" font-family="Helvetica,sans-Serif" font-size="10.00">memoryoracle.models.Typed.track</text>
</a>
</g>
</g>
<!-- Node2&#45;&gt;Node8 -->
<g id="edge8" class="edge"><title>Node2&#45;&gt;Node8</title>
<path fill="none" stroke="midnightblue" d="M341.991,-82.2281C366.18,-77.7768 391.914,-73.0413 413.595,-69.0514"/>
<polygon fill="midnightblue" stroke="midnightblue" points="341.296,-78.7971 332.095,-84.0491 342.563,-85.6815 341.296,-78.7971"/>
</g>
<!-- Node3&#45;&gt;Node2 -->
<g id="edge4" class="edge"><title>Node3&#45;&gt;Node2</title>
<path fill="none" stroke="midnightblue" d="M357.73,-104.244C349.061,-104.222 340.434,-104.137 332.095,-103.987"/>
<polygon fill="midnightblue" stroke="midnightblue" points="357.913,-107.744 367.912,-104.241 357.911,-100.744 357.913,-107.744"/>
</g>
<!-- Node4 -->
<g id="node4" class="node"><title>Node4</title>
<g id="a_node4"><a xlink:href="classmemoryoracle_1_1instance_1_1Memory.html#aa937ea1a82dcaa2fa1c868a387d59483" target="_top" xlink:title="memoryoracle.instance.Memory.update">
<polygon fill="none" stroke="black" points="601,-138 601,-157 808,-157 808,-138 601,-138"/>
<text text-anchor="middle" x="704.5" y="-145" font-family="Helvetica,sans-Serif" font-size="10.00">memoryoracle.instance.Memory.update</text>
</a>
</g>
</g>
<!-- Node3&#45;&gt;Node4 -->
<g id="edge3" class="edge"><title>Node3&#45;&gt;Node4</title>
<path fill="none" stroke="midnightblue" d="M516.577,-109.452C541.757,-115.442 572.954,-122.647 601,-128.5 616.768,-131.79 633.961,-135.089 649.682,-137.993"/>
<polygon fill="midnightblue" stroke="midnightblue" points="517.076,-105.972 506.536,-107.051 515.448,-112.78 517.076,-105.972"/>
</g>
<!-- Node5 -->
<g id="node5" class="node"><title>Node5</title>
<g id="a_node5"><a xlink:href="classmemoryoracle_1_1models_1_1Typed.html#a494dfbe205034b874ff9e8c7039f579b" target="_top" xlink:title="memoryoracle.models.Typed.\l__init__">
<polygon fill="none" stroke="black" points="625.5,-88.5 625.5,-118.5 783.5,-118.5 783.5,-88.5 625.5,-88.5"/>
<text text-anchor="start" x="633.5" y="-106.5" font-family="Helvetica,sans-Serif" font-size="10.00">memoryoracle.models.Typed.</text>
<text text-anchor="middle" x="704.5" y="-95.5" font-family="Helvetica,sans-Serif" font-size="10.00">__init__</text>
</a>
</g>
</g>
<!-- Node3&#45;&gt;Node5 -->
<g id="edge5" class="edge"><title>Node3&#45;&gt;Node5</title>
<path fill="none" stroke="midnightblue" d="M575.584,-100.248C592.346,-100.674 609.377,-101.107 625.311,-101.512"/>
<polygon fill="midnightblue" stroke="midnightblue" points="575.28,-96.7391 565.194,-99.9837 575.102,-103.737 575.28,-96.7391"/>
</g>
<!-- Node6 -->
<g id="node6" class="node"><title>Node6</title>
<g id="a_node6"><a xlink:href="classmemoryoracle_1_1models_1_1Memory.html#a71d4a141abc3358afdf1a1325bfd4253" target="_top" xlink:title="memoryoracle.models.Memory.update">
<polygon fill="none" stroke="black" points="603.5,-50 603.5,-69 805.5,-69 805.5,-50 603.5,-50"/>
<text text-anchor="middle" x="704.5" y="-57" font-family="Helvetica,sans-Serif" font-size="10.00">memoryoracle.models.Memory.update</text>
</a>
</g>
</g>
<!-- Node3&#45;&gt;Node6 -->
<g id="edge6" class="edge"><title>Node3&#45;&gt;Node6</title>
<path fill="none" stroke="midnightblue" d="M536.649,-86.3659C570.783,-80.8697 611.54,-74.3071 644.227,-69.0439"/>
<polygon fill="midnightblue" stroke="midnightblue" points="536.065,-82.9148 526.748,-87.96 537.177,-89.8258 536.065,-82.9148"/>
</g>
<!-- Node7 -->
<g id="node7" class="node"><title>Node7</title>
<g id="a_node7"><a xlink:href="classmemoryoracle_1_1models_1_1Memory.html#aed3af349dd80317ae9cca4b4e9cb7c26" target="_top" xlink:title="memoryoracle.models.Memory.\l__init__">
<polygon fill="none" stroke="black" points="620.5,-0.5 620.5,-30.5 788.5,-30.5 788.5,-0.5 620.5,-0.5"/>
<text text-anchor="start" x="628.5" y="-18.5" font-family="Helvetica,sans-Serif" font-size="10.00">memoryoracle.models.Memory.</text>
<text text-anchor="middle" x="704.5" y="-7.5" font-family="Helvetica,sans-Serif" font-size="10.00">__init__</text>
</a>
</g>
</g>
<!-- Node3&#45;&gt;Node7 -->
<g id="edge7" class="edge"><title>Node3&#45;&gt;Node7</title>
<path fill="none" stroke="midnightblue" d="M551.732,-84.6476C556.325,-82.8556 560.782,-80.8176 565,-78.5 585.389,-67.2967 580.878,-52.1771 601,-40.5 607.733,-36.5927 615.055,-33.2937 622.586,-30.5087"/>
<polygon fill="midnightblue" stroke="midnightblue" points="550.433,-81.3936 542.143,-87.9909 552.738,-88.0033 550.433,-81.3936"/>
</g>
<!-- Node8&#45;&gt;Node5 -->
<g id="edge9" class="edge"><title>Node8&#45;&gt;Node5</title>
<path fill="none" stroke="midnightblue" d="M528.866,-70.9412C558.363,-76.4406 594.048,-83.0938 625.453,-88.9489"/>
<polygon fill="midnightblue" stroke="midnightblue" points="529.181,-67.4395 518.708,-69.0473 527.898,-74.321 529.181,-67.4395"/>
</g>
<!-- Node8&#45;&gt;Node6 -->
<g id="edge10" class="edge"><title>Node8&#45;&gt;Node6</title>
<path fill="none" stroke="midnightblue" d="M567.988,-59.5C579.742,-59.5 591.733,-59.5 603.481,-59.5"/>
<polygon fill="midnightblue" stroke="midnightblue" points="567.732,-56.0001 557.732,-59.5 567.732,-63.0001 567.732,-56.0001"/>
</g>
<!-- Node8&#45;&gt;Node7 -->
<g id="edge11" class="edge"><title>Node8&#45;&gt;Node7</title>
<path fill="none" stroke="midnightblue" d="M528.594,-48.1095C557.284,-42.7606 591.875,-36.3114 622.695,-30.5654"/>
<polygon fill="midnightblue" stroke="midnightblue" points="527.898,-44.679 518.708,-49.9527 529.181,-51.5605 527.898,-44.679"/>
</g>
</g>
</svg>
