<?xml version="1.0" encoding="UTF-8" standalone="no"?>
<!DOCTYPE svg PUBLIC "-//W3C//DTD SVG 1.1//EN"
 "http://www.w3.org/Graphics/SVG/1.1/DTD/svg11.dtd">
<!-- Generated by graphviz version 2.38.0 (20140413.2041)
 -->
<!-- Title: memoryoracle.models.Tracked Pages: 1 -->
<svg width="172pt" height="160pt"
 viewBox="0.00 0.00 172.00 160.00" xmlns="http://www.w3.org/2000/svg" xmlns:xlink="http://www.w3.org/1999/xlink">
<g id="graph0" class="graph" transform="scale(1 1) rotate(0) translate(4 156)">
<title>memoryoracle.models.Tracked</title>
<!-- Node1 -->
<g id="node1" class="node"><title>Node1</title>
<polygon fill="#bfbfbf" stroke="black" points="0,-0.5 0,-57.5 164,-57.5 164,-0.5 0,-0.5"/>
<text text-anchor="middle" x="82" y="-45.5" font-family="Helvetica,sans-Serif" font-size="10.00">memoryoracle.models.Tracked</text>
<polyline fill="none" stroke="black" points="0,-38.5 164,-38.5 "/>
<text text-anchor="start" x="8" y="-26.5" font-family="Helvetica,sans-Serif" font-size="10.00">+ name</text>
<polyline fill="none" stroke="black" points="0,-19.5 164,-19.5 "/>
<text text-anchor="middle" x="82" y="-7.5" font-family="Helvetica,sans-Serif" font-size="10.00"> </text>
</g>
<!-- Node2 -->
<g id="node2" class="node"><title>Node2</title>
<polygon fill="none" stroke="#bfbfbf" points="39,-94.5 39,-151.5 125,-151.5 125,-94.5 39,-94.5"/>
<text text-anchor="middle" x="82" y="-139.5" font-family="Helvetica,sans-Serif" font-size="10.00">models::Model</text>
<polyline fill="none" stroke="#bfbfbf" points="39,-132.5 125,-132.5 "/>
<text text-anchor="middle" x="82" y="-120.5" font-family="Helvetica,sans-Serif" font-size="10.00"> </text>
<polyline fill="none" stroke="#bfbfbf" points="39,-113.5 125,-113.5 "/>
<text text-anchor="middle" x="82" y="-101.5" font-family="Helvetica,sans-Serif" font-size="10.00"> </text>
</g>
<!-- Node2&#45;&gt;Node1 -->
<g id="edge1" class="edge"><title>Node2&#45;&gt;Node1</title>
<path fill="none" stroke="midnightblue" d="M82,-84.2092C82,-75.2929 82,-65.9513 82,-57.5836"/>
<polygon fill="none" stroke="midnightblue" points="78.5001,-84.3969 82,-94.397 85.5001,-84.397 78.5001,-84.3969"/>
</g>
</g>
</svg>
