<?xml version="1.0" encoding="UTF-8" standalone="no"?>
<!DOCTYPE svg PUBLIC "-//W3C//DTD SVG 1.1//EN"
 "http://www.w3.org/Graphics/SVG/1.1/DTD/svg11.dtd">
<!-- Generated by graphviz version 2.38.0 (20140413.2041)
 -->
<!-- Title: memoryoracle.instance.Memory.update Pages: 1 -->
<svg width="1148pt" height="449pt"
 viewBox="0.00 0.00 1148.00 449.00" xmlns="http://www.w3.org/2000/svg" xmlns:xlink="http://www.w3.org/1999/xlink">
<g id="graph0" class="graph" transform="scale(1 1) rotate(0) translate(4 445)">
<title>memoryoracle.instance.Memory.update</title>
<!-- Node1 -->
<g id="node1" class="node"><title>Node1</title>
<polygon fill="#bfbfbf" stroke="black" points="0,-232 0,-251 207,-251 207,-232 0,-232"/>
<text text-anchor="middle" x="103.5" y="-239" font-family="Helvetica,sans-Serif" font-size="10.00">memoryoracle.instance.Memory.update</text>
</g>
<!-- Node2 -->
<g id="node2" class="node"><title>Node2</title>
<g id="a_node2"><a xlink:href="classmemoryoracle_1_1instance_1_1Memory.html#af30604c1bb14fe470d4086c10b08b45e" target="_top" xlink:title="memoryoracle.instance.Memory.\l_clear_updated">
<polygon fill="none" stroke="black" points="255,-248.5 255,-278.5 428,-278.5 428,-248.5 255,-248.5"/>
<text text-anchor="start" x="263" y="-266.5" font-family="Helvetica,sans-Serif" font-size="10.00">memoryoracle.instance.Memory.</text>
<text text-anchor="middle" x="341.5" y="-255.5" font-family="Helvetica,sans-Serif" font-size="10.00">_clear_updated</text>
</a>
</g>
</g>
<!-- Node1&#45;&gt;Node2 -->
<g id="edge1" class="edge"><title>Node1&#45;&gt;Node2</title>
<path fill="none" stroke="midnightblue" d="M206.64,-251.022C219.321,-252.204 232.25,-253.409 244.828,-254.581"/>
<polygon fill="midnightblue" stroke="midnightblue" points="244.546,-258.07 254.828,-255.514 245.196,-251.1 244.546,-258.07"/>
</g>
<!-- Node3 -->
<g id="node3" class="node"><title>Node3</title>
<g id="a_node3"><a xlink:href="classmemoryoracle_1_1instance_1_1Memory.html#a8951ac234fecbd6cd473133ae7e63662" target="_top" xlink:title="memoryoracle.instance.Memory.track">
<polygon fill="none" stroke="black" points="243,-210 243,-229 440,-229 440,-210 243,-210"/>
<text text-anchor="middle" x="341.5" y="-217" font-family="Helvetica,sans-Serif" font-size="10.00">memoryoracle.instance.Memory.track</text>
</a>
</g>
</g>
<!-- Node1&#45;&gt;Node3 -->
<g id="edge2" class="edge"><title>Node1&#45;&gt;Node3</title>
<path fill="none" stroke="midnightblue" d="M206.64,-231.978C215.236,-231.177 223.946,-230.365 232.583,-229.56"/>
<polygon fill="midnightblue" stroke="midnightblue" points="233.046,-233.032 242.678,-228.619 232.397,-226.062 233.046,-233.032"/>
</g>
<!-- Node4 -->
<g id="node4" class="node"><title>Node4</title>
<g id="a_node4"><a xlink:href="classmemoryoracle_1_1instance_1_1Memory.html#ac50fd3bb7216dc0481b8c6f23831a998" target="_top" xlink:title="memoryoracle.instance.Memory.\l_basic_track">
<polygon fill="none" stroke="black" points="480,-357.5 480,-387.5 653,-387.5 653,-357.5 480,-357.5"/>
<text text-anchor="start" x="488" y="-375.5" font-family="Helvetica,sans-Serif" font-size="10.00">memoryoracle.instance.Memory.</text>
<text text-anchor="middle" x="566.5" y="-364.5" font-family="Helvetica,sans-Serif" font-size="10.00">_basic_track</text>
</a>
</g>
</g>
<!-- Node3&#45;&gt;Node4 -->
<g id="edge3" class="edge"><title>Node3&#45;&gt;Node4</title>
<path fill="none" stroke="midnightblue" d="M425.074,-229.189C430.421,-231.711 435.468,-234.779 440,-238.5 472.659,-265.316 447.439,-295.356 476,-326.5 486.074,-337.485 499.373,-346.256 512.629,-353.071"/>
<polygon fill="midnightblue" stroke="midnightblue" points="511.232,-356.283 521.759,-357.478 514.275,-349.979 511.232,-356.283"/>
</g>
<!-- Node8 -->
<g id="node8" class="node"><title>Node8</title>
<g id="a_node8"><a xlink:href="classmemoryoracle_1_1instance_1_1Structure.html#a200a54be462e0199b7833cbd11f81a52" target="_top" xlink:title="memoryoracle.instance.Structure.\l_track">
<polygon fill="none" stroke="black" points="476,-253.5 476,-283.5 657,-283.5 657,-253.5 476,-253.5"/>
<text text-anchor="start" x="484" y="-271.5" font-family="Helvetica,sans-Serif" font-size="10.00">memoryoracle.instance.Structure.</text>
<text text-anchor="middle" x="566.5" y="-260.5" font-family="Helvetica,sans-Serif" font-size="10.00">_track</text>
</a>
</g>
</g>
<!-- Node3&#45;&gt;Node8 -->
<g id="edge7" class="edge"><title>Node3&#45;&gt;Node8</title>
<path fill="none" stroke="midnightblue" d="M393.439,-229.006C408.462,-231.923 424.916,-235.229 440,-238.5 457.918,-242.386 477.207,-246.853 495.158,-251.133"/>
<polygon fill="midnightblue" stroke="midnightblue" points="494.436,-254.559 504.976,-253.487 496.068,-247.752 494.436,-254.559"/>
</g>
<!-- Node10 -->
<g id="node10" class="node"><title>Node10</title>
<g id="a_node10"><a xlink:href="classmemoryoracle_1_1instance_1_1Array.html#a1d8c3993d8a52bfbec8240d6f79b3ce1" target="_top" xlink:title="TODO: upgrade this to ref field. ">
<polygon fill="none" stroke="black" points="723,-284.5 723,-314.5 883,-314.5 883,-284.5 723,-284.5"/>
<text text-anchor="start" x="731" y="-302.5" font-family="Helvetica,sans-Serif" font-size="10.00">memoryoracle.instance.Array.</text>
<text text-anchor="middle" x="803" y="-291.5" font-family="Helvetica,sans-Serif" font-size="10.00">_track</text>
</a>
</g>
</g>
<!-- Node3&#45;&gt;Node10 -->
<g id="edge9" class="edge"><title>Node3&#45;&gt;Node10</title>
<path fill="none" stroke="midnightblue" d="M421.341,-229.086C427.932,-231.583 434.259,-234.676 440,-238.5 464.006,-254.491 450.716,-278.617 476,-292.5 554.039,-335.349 659.224,-328.194 728.753,-316.301"/>
<polygon fill="midnightblue" stroke="midnightblue" points="729.515,-319.72 738.745,-314.517 728.285,-312.829 729.515,-319.72"/>
</g>
<!-- Node13 -->
<g id="node13" class="node"><title>Node13</title>
<g id="a_node13"><a xlink:href="classmemoryoracle_1_1instance_1_1Primitive.html#a68562bda9732e33fe32188597e2f4b91" target="_top" xlink:title="memoryoracle.instance.Primitive.\l_track">
<polygon fill="none" stroke="black" points="478,-204.5 478,-234.5 655,-234.5 655,-204.5 478,-204.5"/>
<text text-anchor="start" x="486" y="-222.5" font-family="Helvetica,sans-Serif" font-size="10.00">memoryoracle.instance.Primitive.</text>
<text text-anchor="middle" x="566.5" y="-211.5" font-family="Helvetica,sans-Serif" font-size="10.00">_track</text>
</a>
</g>
</g>
<!-- Node3&#45;&gt;Node13 -->
<g id="edge12" class="edge"><title>Node3&#45;&gt;Node13</title>
<path fill="none" stroke="midnightblue" d="M440.311,-219.5C449.409,-219.5 458.63,-219.5 467.728,-219.5"/>
<polygon fill="midnightblue" stroke="midnightblue" points="467.933,-223 477.933,-219.5 467.933,-216 467.933,-223"/>
</g>
<!-- Node14 -->
<g id="node14" class="node"><title>Node14</title>
<g id="a_node14"><a xlink:href="classmemoryoracle_1_1instance_1_1Pointer.html#a2cc9e298adaad8bed089d90186fcde8a" target="_top" xlink:title="memoryoracle.instance.Pointer.\l_track">
<polygon fill="none" stroke="black" points="482,-155.5 482,-185.5 651,-185.5 651,-155.5 482,-155.5"/>
<text text-anchor="start" x="490" y="-173.5" font-family="Helvetica,sans-Serif" font-size="10.00">memoryoracle.instance.Pointer.</text>
<text text-anchor="middle" x="566.5" y="-162.5" font-family="Helvetica,sans-Serif" font-size="10.00">_track</text>
</a>
</g>
</g>
<!-- Node3&#45;&gt;Node14 -->
<g id="edge13" class="edge"><title>Node3&#45;&gt;Node14</title>
<path fill="none" stroke="midnightblue" d="M385.761,-209.994C414.466,-203.687 452.974,-195.225 486.984,-187.752"/>
<polygon fill="midnightblue" stroke="midnightblue" points="487.894,-191.136 496.91,-185.571 486.392,-184.299 487.894,-191.136"/>
</g>
<!-- Node15 -->
<g id="node15" class="node"><title>Node15</title>
<g id="a_node15"><a xlink:href="classmemoryoracle_1_1instance_1_1Int.html#a38c9424341353f006771163d360594da" target="_top" xlink:title="memoryoracle.instance.Int.\l_track">
<polygon fill="none" stroke="black" points="492.5,-106.5 492.5,-136.5 640.5,-136.5 640.5,-106.5 492.5,-106.5"/>
<text text-anchor="start" x="500.5" y="-124.5" font-family="Helvetica,sans-Serif" font-size="10.00">memoryoracle.instance.Int.</text>
<text text-anchor="middle" x="566.5" y="-113.5" font-family="Helvetica,sans-Serif" font-size="10.00">_track</text>
</a>
</g>
</g>
<!-- Node3&#45;&gt;Node15 -->
<g id="edge15" class="edge"><title>Node3&#45;&gt;Node15</title>
<path fill="none" stroke="midnightblue" d="M350.287,-209.904C370.325,-192.063 425.633,-156.855 476,-136.5 478.202,-135.61 480.448,-134.743 482.726,-133.9"/>
<polygon fill="midnightblue" stroke="midnightblue" points="483.944,-137.182 492.233,-130.583 481.638,-130.573 483.944,-137.182"/>
</g>
<!-- Node5 -->
<g id="node5" class="node"><title>Node5</title>
<g id="a_node5"><a xlink:href="classmemoryoracle_1_1instance_1_1Memory.html#acde5472399a5335909aca575b634dde7" target="_top" xlink:title="memoryoracle.instance.Memory.extract\l_dynamic_type">
<polygon fill="none" stroke="black" points="699.5,-410.5 699.5,-440.5 906.5,-440.5 906.5,-410.5 699.5,-410.5"/>
<text text-anchor="start" x="707.5" y="-428.5" font-family="Helvetica,sans-Serif" font-size="10.00">memoryoracle.instance.Memory.extract</text>
<text text-anchor="middle" x="803" y="-417.5" font-family="Helvetica,sans-Serif" font-size="10.00">_dynamic_type</text>
</a>
</g>
</g>
<!-- Node4&#45;&gt;Node5 -->
<g id="edge4" class="edge"><title>Node4&#45;&gt;Node5</title>
<path fill="none" stroke="midnightblue" d="M634.071,-387.546C662.538,-393.98 695.941,-401.529 725.426,-408.193"/>
<polygon fill="midnightblue" stroke="midnightblue" points="724.737,-411.626 735.263,-410.416 726.28,-404.798 724.737,-411.626"/>
</g>
<!-- Node6 -->
<g id="node6" class="node"><title>Node6</title>
<g id="a_node6"><a xlink:href="classmemoryoracle_1_1frame_1_1Frame.html#aba4a80563b93cf0069db8d64df6b19e5" target="_top" xlink:title="memoryoracle.frame.Frame.index">
<polygon fill="none" stroke="black" points="713.5,-372 713.5,-391 892.5,-391 892.5,-372 713.5,-372"/>
<text text-anchor="middle" x="803" y="-379" font-family="Helvetica,sans-Serif" font-size="10.00">memoryoracle.frame.Frame.index</text>
</a>
</g>
</g>
<!-- Node4&#45;&gt;Node6 -->
<g id="edge5" class="edge"><title>Node4&#45;&gt;Node6</title>
<path fill="none" stroke="midnightblue" d="M653.155,-375.787C669.408,-376.411 686.535,-377.069 703.156,-377.706"/>
<polygon fill="midnightblue" stroke="midnightblue" points="703.301,-381.214 713.428,-378.101 703.569,-374.22 703.301,-381.214"/>
</g>
<!-- Node7 -->
<g id="node7" class="node"><title>Node7</title>
<g id="a_node7"><a xlink:href="classmemoryoracle_1_1instance_1_1Memory.html#aba9e6136a3854e0ab59a74acd015be06" target="_top" xlink:title="memoryoracle.instance.Memory.index">
<polygon fill="none" stroke="black" points="703.5,-334 703.5,-353 902.5,-353 902.5,-334 703.5,-334"/>
<text text-anchor="middle" x="803" y="-341" font-family="Helvetica,sans-Serif" font-size="10.00">memoryoracle.instance.Memory.index</text>
</a>
</g>
</g>
<!-- Node4&#45;&gt;Node7 -->
<g id="edge6" class="edge"><title>Node4&#45;&gt;Node7</title>
<path fill="none" stroke="midnightblue" d="M653.155,-361.907C673.302,-359.416 694.794,-356.758 714.999,-354.259"/>
<polygon fill="midnightblue" stroke="midnightblue" points="715.622,-357.709 725.117,-353.008 714.763,-350.762 715.622,-357.709"/>
</g>
<!-- Node9 -->
<g id="node9" class="node"><title>Node9</title>
<g id="a_node9"><a xlink:href="namespacememoryoracle_1_1instance.html#ac651a8635b1ae2ee7e788bf9adb17a0b" target="_top" xlink:title="memoryoracle.instance.addressable\l_factory">
<polygon fill="none" stroke="black" points="707.5,-235.5 707.5,-265.5 898.5,-265.5 898.5,-235.5 707.5,-235.5"/>
<text text-anchor="start" x="715.5" y="-253.5" font-family="Helvetica,sans-Serif" font-size="10.00">memoryoracle.instance.addressable</text>
<text text-anchor="middle" x="803" y="-242.5" font-family="Helvetica,sans-Serif" font-size="10.00">_factory</text>
</a>
</g>
</g>
<!-- Node8&#45;&gt;Node9 -->
<g id="edge8" class="edge"><title>Node8&#45;&gt;Node9</title>
<path fill="none" stroke="midnightblue" d="M657.158,-261.618C670.243,-260.614 683.815,-259.572 697.169,-258.547"/>
<polygon fill="midnightblue" stroke="midnightblue" points="697.624,-262.022 707.327,-257.767 697.088,-255.043 697.624,-262.022"/>
</g>
<!-- Node11 -->
<g id="node11" class="node"><title>Node11</title>
<g id="a_node11"><a xlink:href="classmemoryoracle_1_1typed_1_1Typed.html#a0d1a3c7644d37da66f9ea5cb269115fe" target="_top" xlink:title="memoryoracle.typed.Typed.object">
<polygon fill="none" stroke="black" points="955,-238 955,-257 1134,-257 1134,-238 955,-238"/>
<text text-anchor="middle" x="1044.5" y="-245" font-family="Helvetica,sans-Serif" font-size="10.00">memoryoracle.typed.Typed.object</text>
</a>
</g>
</g>
<!-- Node10&#45;&gt;Node11 -->
<g id="edge10" class="edge"><title>Node10&#45;&gt;Node11</title>
<path fill="none" stroke="midnightblue" d="M873.273,-284.459C910.366,-276.406 955.368,-266.635 989.784,-259.163"/>
<polygon fill="midnightblue" stroke="midnightblue" points="990.619,-262.563 999.648,-257.021 989.133,-255.723 990.619,-262.563"/>
</g>
<!-- Node12 -->
<g id="node12" class="node"><title>Node12</title>
<g id="a_node12"><a xlink:href="classmemoryoracle_1_1descriptions_1_1MemoryDescription.html#a0fc58900317d1e723b6352005e163aef" target="_top" xlink:title="memoryoracle.descriptions.\lMemoryDescription.object">
<polygon fill="none" stroke="black" points="969.5,-281.5 969.5,-311.5 1119.5,-311.5 1119.5,-281.5 969.5,-281.5"/>
<text text-anchor="start" x="977.5" y="-299.5" font-family="Helvetica,sans-Serif" font-size="10.00">memoryoracle.descriptions.</text>
<text text-anchor="middle" x="1044.5" y="-288.5" font-family="Helvetica,sans-Serif" font-size="10.00">MemoryDescription.object</text>
</a>
</g>
</g>
<!-- Node10&#45;&gt;Node12 -->
<g id="edge11" class="edge"><title>Node10&#45;&gt;Node12</title>
<path fill="none" stroke="midnightblue" d="M883.085,-298.509C907.515,-298.203 934.506,-297.865 959.27,-297.555"/>
<polygon fill="midnightblue" stroke="midnightblue" points="959.411,-301.054 969.366,-297.429 959.323,-294.054 959.411,-301.054"/>
</g>
<!-- Node14&#45;&gt;Node9 -->
<g id="edge14" class="edge"><title>Node14&#45;&gt;Node9</title>
<path fill="none" stroke="midnightblue" d="M636.634,-185.639C643.685,-188.18 650.601,-191.116 657,-194.5 675.665,-204.371 674.158,-215.972 693,-225.5 697.819,-227.937 702.877,-230.139 708.066,-232.129"/>
<polygon fill="midnightblue" stroke="midnightblue" points="706.928,-235.439 717.523,-235.487 709.271,-228.843 706.928,-235.439"/>
</g>
<!-- Node15&#45;&gt;Node3 -->
<g id="edge25" class="edge"><title>Node15&#45;&gt;Node3</title>
<path fill="none" stroke="midnightblue" d="M531.714,-136.572C514.682,-141.541 493.898,-147.267 476,-154.5 440.616,-168.8 402.793,-190.431 376.473,-205.016"/>
<polygon fill="midnightblue" stroke="midnightblue" points="374.744,-201.973 367.667,-209.857 378.116,-208.107 374.744,-201.973"/>
</g>
<!-- Node15&#45;&gt;Node9 -->
<g id="edge20" class="edge"><title>Node15&#45;&gt;Node9</title>
<path fill="none" stroke="midnightblue" d="M640.66,-135.02C646.545,-137.877 652.099,-141.33 657,-145.5 686.696,-170.766 662.848,-200.781 693,-225.5 695.069,-227.196 697.231,-228.782 699.471,-230.265"/>
<polygon fill="midnightblue" stroke="midnightblue" points="698.052,-233.489 708.457,-235.488 701.569,-227.437 698.052,-233.489"/>
</g>
<!-- Node16 -->
<g id="node16" class="node"><title>Node16</title>
<g id="a_node16"><a xlink:href="classmemoryoracle_1_1instance_1_1Int.html#a450a73bc8aaf1a7ac5f18c3ed1a933fc" target="_top" xlink:title="memoryoracle.instance.Int.\l_find_hidden_type">
<polygon fill="none" stroke="black" points="729,-186.5 729,-216.5 877,-216.5 877,-186.5 729,-186.5"/>
<text text-anchor="start" x="737" y="-204.5" font-family="Helvetica,sans-Serif" font-size="10.00">memoryoracle.instance.Int.</text>
<text text-anchor="middle" x="803" y="-193.5" font-family="Helvetica,sans-Serif" font-size="10.00">_find_hidden_type</text>
</a>
</g>
</g>
<!-- Node15&#45;&gt;Node16 -->
<g id="edge16" class="edge"><title>Node15&#45;&gt;Node16</title>
<path fill="none" stroke="midnightblue" d="M636.634,-136.639C643.685,-139.18 650.601,-142.116 657,-145.5 675.665,-155.371 674.158,-166.972 693,-176.5 701.143,-180.618 709.97,-184.066 718.956,-186.952"/>
<polygon fill="midnightblue" stroke="midnightblue" points="718.16,-190.367 728.743,-189.868 720.159,-183.659 718.16,-190.367"/>
</g>
<!-- Node18 -->
<g id="node18" class="node"><title>Node18</title>
<g id="a_node18"><a xlink:href="classmemoryoracle_1_1tracked_1_1Tracked.html#abd8dc997fb5a226926f2044462dbd94b" target="_top" xlink:title="memoryoracle.tracked.Tracked.description">
<polygon fill="none" stroke="black" points="693,-148 693,-167 913,-167 913,-148 693,-148"/>
<text text-anchor="middle" x="803" y="-155" font-family="Helvetica,sans-Serif" font-size="10.00">memoryoracle.tracked.Tracked.description</text>
</a>
</g>
</g>
<!-- Node15&#45;&gt;Node18 -->
<g id="edge21" class="edge"><title>Node15&#45;&gt;Node18</title>
<path fill="none" stroke="midnightblue" d="M640.733,-132.743C669.098,-137.097 701.485,-142.069 729.756,-146.409"/>
<polygon fill="midnightblue" stroke="midnightblue" points="729.555,-149.919 739.97,-147.977 730.617,-143 729.555,-149.919"/>
</g>
<!-- Node19 -->
<g id="node19" class="node"><title>Node19</title>
<g id="a_node19"><a xlink:href="classmemoryoracle_1_1descriptions_1_1BlackBoxDecorator.html#a558c1ce5d38dc4785d4ef36c0a053967" target="_top" xlink:title="memoryoracle.descriptions.\lBlackBoxDecorator.description">
<polygon fill="none" stroke="black" points="721.5,-98.5 721.5,-128.5 884.5,-128.5 884.5,-98.5 721.5,-98.5"/>
<text text-anchor="start" x="729.5" y="-116.5" font-family="Helvetica,sans-Serif" font-size="10.00">memoryoracle.descriptions.</text>
<text text-anchor="middle" x="803" y="-105.5" font-family="Helvetica,sans-Serif" font-size="10.00">BlackBoxDecorator.description</text>
</a>
</g>
</g>
<!-- Node15&#45;&gt;Node19 -->
<g id="edge22" class="edge"><title>Node15&#45;&gt;Node19</title>
<path fill="none" stroke="midnightblue" d="M640.733,-119.002C662.974,-118.243 687.688,-117.4 710.952,-116.606"/>
<polygon fill="midnightblue" stroke="midnightblue" points="711.297,-120.096 721.171,-116.257 711.058,-113.101 711.297,-120.096"/>
</g>
<!-- Node20 -->
<g id="node20" class="node"><title>Node20</title>
<g id="a_node20"><a xlink:href="classmemoryoracle_1_1descriptions_1_1ExternalDescriptionDecorator.html#ae5952e51de2c9473ce19875b55ccb625" target="_top" xlink:title="memoryoracle.descriptions.\lExternalDescriptionDecorator.description">
<polygon fill="none" stroke="black" points="697,-49.5 697,-79.5 909,-79.5 909,-49.5 697,-49.5"/>
<text text-anchor="start" x="705" y="-67.5" font-family="Helvetica,sans-Serif" font-size="10.00">memoryoracle.descriptions.</text>
<text text-anchor="middle" x="803" y="-56.5" font-family="Helvetica,sans-Serif" font-size="10.00">ExternalDescriptionDecorator.description</text>
</a>
</g>
</g>
<!-- Node15&#45;&gt;Node20 -->
<g id="edge23" class="edge"><title>Node15&#45;&gt;Node20</title>
<path fill="none" stroke="midnightblue" d="M622.67,-106.478C644.521,-100.664 669.896,-94.0787 693,-88.5 702.394,-86.2317 712.265,-83.9362 722.071,-81.7103"/>
<polygon fill="midnightblue" stroke="midnightblue" points="722.848,-85.1231 731.834,-79.5112 721.31,-78.2941 722.848,-85.1231"/>
</g>
<!-- Node21 -->
<g id="node21" class="node"><title>Node21</title>
<g id="a_node21"><a xlink:href="classmemoryoracle_1_1descriptions_1_1StandardDescriptionDecorator.html#a50e064e8a858b8eafe2c603650dbbee8" target="_top" xlink:title="memoryoracle.descriptions.\lStandardDescriptionDecorator.description">
<polygon fill="none" stroke="black" points="694,-0.5 694,-30.5 912,-30.5 912,-0.5 694,-0.5"/>
<text text-anchor="start" x="702" y="-18.5" font-family="Helvetica,sans-Serif" font-size="10.00">memoryoracle.descriptions.</text>
<text text-anchor="middle" x="803" y="-7.5" font-family="Helvetica,sans-Serif" font-size="10.00">StandardDescriptionDecorator.description</text>
</a>
</g>
</g>
<!-- Node15&#45;&gt;Node21 -->
<g id="edge24" class="edge"><title>Node15&#45;&gt;Node21</title>
<path fill="none" stroke="midnightblue" d="M585.838,-106.409C609.263,-87.8951 651.728,-56.8394 693,-39.5 698.08,-37.3657 703.377,-35.4094 708.779,-33.6179"/>
<polygon fill="midnightblue" stroke="midnightblue" points="710.082,-36.8781 718.593,-30.5683 708.005,-30.1934 710.082,-36.8781"/>
</g>
<!-- Node16&#45;&gt;Node11 -->
<g id="edge17" class="edge"><title>Node16&#45;&gt;Node11</title>
<path fill="none" stroke="midnightblue" d="M877.159,-215.551C911.295,-222.108 951.415,-229.813 983.7,-236.014"/>
<polygon fill="midnightblue" stroke="midnightblue" points="983.408,-239.522 993.889,-237.971 984.729,-232.648 983.408,-239.522"/>
</g>
<!-- Node16&#45;&gt;Node12 -->
<g id="edge18" class="edge"><title>Node16&#45;&gt;Node12</title>
<path fill="none" stroke="midnightblue" d="M877.09,-210.869C889.6,-214.323 902.072,-219.046 913,-225.5 933.88,-237.832 928.7,-253.235 949,-266.5 955.484,-270.737 962.609,-274.412 969.948,-277.591"/>
<polygon fill="midnightblue" stroke="midnightblue" points="968.744,-280.879 979.328,-281.357 971.352,-274.383 968.744,-280.879"/>
</g>
<!-- Node17 -->
<g id="node17" class="node"><title>Node17</title>
<g id="a_node17"><a xlink:href="classmemoryoracle_1_1instance_1_1Primitive.html#abc513cbf3d0938c0db133e9af0a6f5ea" target="_top" xlink:title="memoryoracle.instance.Primitive.val\l_string">
<polygon fill="none" stroke="black" points="949,-186.5 949,-216.5 1140,-216.5 1140,-186.5 949,-186.5"/>
<text text-anchor="start" x="957" y="-204.5" font-family="Helvetica,sans-Serif" font-size="10.00">memoryoracle.instance.Primitive.val</text>
<text text-anchor="middle" x="1044.5" y="-193.5" font-family="Helvetica,sans-Serif" font-size="10.00">_string</text>
</a>
</g>
</g>
<!-- Node16&#45;&gt;Node17 -->
<g id="edge19" class="edge"><title>Node16&#45;&gt;Node17</title>
<path fill="none" stroke="midnightblue" d="M877.159,-201.5C896.547,-201.5 917.865,-201.5 938.582,-201.5"/>
<polygon fill="midnightblue" stroke="midnightblue" points="938.693,-205 948.693,-201.5 938.693,-198 938.693,-205"/>
</g>
</g>
</svg>
