<?xml version="1.0" encoding="UTF-8" standalone="no"?>
<!DOCTYPE svg PUBLIC "-//W3C//DTD SVG 1.1//EN"
 "http://www.w3.org/Graphics/SVG/1.1/DTD/svg11.dtd">
<!-- Generated by graphviz version 2.38.0 (20140413.2041)
 -->
<!-- Title: memoryoracle.models.ProgramFile Pages: 1 -->
<svg width="376pt" height="370pt"
 viewBox="0.00 0.00 375.50 370.00" xmlns="http://www.w3.org/2000/svg" xmlns:xlink="http://www.w3.org/1999/xlink">
<g id="graph0" class="graph" transform="scale(1 1) rotate(0) translate(4 366)">
<title>memoryoracle.models.ProgramFile</title>
<!-- Node1 -->
<g id="node1" class="node"><title>Node1</title>
<polygon fill="#bfbfbf" stroke="black" points="90.5,-94.5 90.5,-173.5 274.5,-173.5 274.5,-94.5 90.5,-94.5"/>
<text text-anchor="middle" x="182.5" y="-161.5" font-family="Helvetica,sans-Serif" font-size="10.00">memoryoracle.models.ProgramFile</text>
<polyline fill="none" stroke="black" points="90.5,-154.5 274.5,-154.5 "/>
<text text-anchor="start" x="98.5" y="-142.5" font-family="Helvetica,sans-Serif" font-size="10.00">+ id_commit</text>
<text text-anchor="start" x="98.5" y="-131.5" font-family="Helvetica,sans-Serif" font-size="10.00">+ path</text>
<text text-anchor="start" x="98.5" y="-120.5" font-family="Helvetica,sans-Serif" font-size="10.00">+ size</text>
<polyline fill="none" stroke="black" points="90.5,-113.5 274.5,-113.5 "/>
<text text-anchor="middle" x="182.5" y="-101.5" font-family="Helvetica,sans-Serif" font-size="10.00"> </text>
</g>
<!-- Node4 -->
<g id="node4" class="node"><title>Node4</title>
<g id="a_node4"><a xlink:href="classmemoryoracle_1_1models_1_1ObjectFile.html" target="_top" xlink:title="{memoryoracle.models.ObjectFile\n||}">
<polygon fill="none" stroke="black" points="0,-0.5 0,-57.5 173,-57.5 173,-0.5 0,-0.5"/>
<text text-anchor="middle" x="86.5" y="-45.5" font-family="Helvetica,sans-Serif" font-size="10.00">memoryoracle.models.ObjectFile</text>
<polyline fill="none" stroke="black" points="0,-38.5 173,-38.5 "/>
<text text-anchor="middle" x="86.5" y="-26.5" font-family="Helvetica,sans-Serif" font-size="10.00"> </text>
<polyline fill="none" stroke="black" points="0,-19.5 173,-19.5 "/>
<text text-anchor="middle" x="86.5" y="-7.5" font-family="Helvetica,sans-Serif" font-size="10.00"> </text>
</a>
</g>
</g>
<!-- Node1&#45;&gt;Node4 -->
<g id="edge3" class="edge"><title>Node1&#45;&gt;Node4</title>
<path fill="none" stroke="midnightblue" d="M139.446,-86.8071C130.154,-76.8374 120.612,-66.5996 112.233,-57.6095"/>
<polygon fill="none" stroke="midnightblue" points="137.102,-89.4246 146.48,-94.3536 142.222,-84.6519 137.102,-89.4246"/>
</g>
<!-- Node5 -->
<g id="node5" class="node"><title>Node5</title>
<g id="a_node5"><a xlink:href="classmemoryoracle_1_1models_1_1SourceFile.html" target="_top" xlink:title="{memoryoracle.models.SourceFile\n|+ lines\l|}">
<polygon fill="none" stroke="black" points="191.5,-0.5 191.5,-57.5 367.5,-57.5 367.5,-0.5 191.5,-0.5"/>
<text text-anchor="middle" x="279.5" y="-45.5" font-family="Helvetica,sans-Serif" font-size="10.00">memoryoracle.models.SourceFile</text>
<polyline fill="none" stroke="black" points="191.5,-38.5 367.5,-38.5 "/>
<text text-anchor="start" x="199.5" y="-26.5" font-family="Helvetica,sans-Serif" font-size="10.00">+ lines</text>
<polyline fill="none" stroke="black" points="191.5,-19.5 367.5,-19.5 "/>
<text text-anchor="middle" x="279.5" y="-7.5" font-family="Helvetica,sans-Serif" font-size="10.00"> </text>
</a>
</g>
</g>
<!-- Node1&#45;&gt;Node5 -->
<g id="edge4" class="edge"><title>Node1&#45;&gt;Node5</title>
<path fill="none" stroke="midnightblue" d="M226.002,-86.8071C235.391,-76.8374 245.032,-66.5996 253.499,-57.6095"/>
<polygon fill="none" stroke="midnightblue" points="223.203,-84.674 218.895,-94.3536 228.299,-89.4732 223.203,-84.674"/>
</g>
<!-- Node2 -->
<g id="node2" class="node"><title>Node2</title>
<g id="a_node2"><a xlink:href="classmemoryoracle_1_1models_1_1Tracked.html" target="_top" xlink:title="{memoryoracle.models.Tracked\n|+ name\l|}">
<polygon fill="none" stroke="black" points="100.5,-210.5 100.5,-267.5 264.5,-267.5 264.5,-210.5 100.5,-210.5"/>
<text text-anchor="middle" x="182.5" y="-255.5" font-family="Helvetica,sans-Serif" font-size="10.00">memoryoracle.models.Tracked</text>
<polyline fill="none" stroke="black" points="100.5,-248.5 264.5,-248.5 "/>
<text text-anchor="start" x="108.5" y="-236.5" font-family="Helvetica,sans-Serif" font-size="10.00">+ name</text>
<polyline fill="none" stroke="black" points="100.5,-229.5 264.5,-229.5 "/>
<text text-anchor="middle" x="182.5" y="-217.5" font-family="Helvetica,sans-Serif" font-size="10.00"> </text>
</a>
</g>
</g>
<!-- Node2&#45;&gt;Node1 -->
<g id="edge1" class="edge"><title>Node2&#45;&gt;Node1</title>
<path fill="none" stroke="midnightblue" d="M182.5,-200.156C182.5,-191.473 182.5,-182.232 182.5,-173.52"/>
<polygon fill="none" stroke="midnightblue" points="179,-200.398 182.5,-210.398 186,-200.398 179,-200.398"/>
</g>
<!-- Node3 -->
<g id="node3" class="node"><title>Node3</title>
<polygon fill="none" stroke="#bfbfbf" points="139.5,-304.5 139.5,-361.5 225.5,-361.5 225.5,-304.5 139.5,-304.5"/>
<text text-anchor="middle" x="182.5" y="-349.5" font-family="Helvetica,sans-Serif" font-size="10.00">models::Model</text>
<polyline fill="none" stroke="#bfbfbf" points="139.5,-342.5 225.5,-342.5 "/>
<text text-anchor="middle" x="182.5" y="-330.5" font-family="Helvetica,sans-Serif" font-size="10.00"> </text>
<polyline fill="none" stroke="#bfbfbf" points="139.5,-323.5 225.5,-323.5 "/>
<text text-anchor="middle" x="182.5" y="-311.5" font-family="Helvetica,sans-Serif" font-size="10.00"> </text>
</g>
<!-- Node3&#45;&gt;Node2 -->
<g id="edge2" class="edge"><title>Node3&#45;&gt;Node2</title>
<path fill="none" stroke="midnightblue" d="M182.5,-294.209C182.5,-285.293 182.5,-275.951 182.5,-267.584"/>
<polygon fill="none" stroke="midnightblue" points="179,-294.397 182.5,-304.397 186,-294.397 179,-294.397"/>
</g>
</g>
</svg>
