<?xml version="1.0" encoding="UTF-8" standalone="no"?>
<!DOCTYPE svg PUBLIC "-//W3C//DTD SVG 1.1//EN"
 "http://www.w3.org/Graphics/SVG/1.1/DTD/svg11.dtd">
<!-- Generated by graphviz version 2.38.0 (20140413.2041)
 -->
<!-- Title: memoryoracle.frame.Selector Pages: 1 -->
<svg width="169pt" height="204pt"
 viewBox="0.00 0.00 169.00 204.00" xmlns="http://www.w3.org/2000/svg" xmlns:xlink="http://www.w3.org/1999/xlink">
<g id="graph0" class="graph" transform="scale(1 1) rotate(0) translate(4 200)">
<title>memoryoracle.frame.Selector</title>
<!-- Node1 -->
<g id="node1" class="node"><title>Node1</title>
<polygon fill="#bfbfbf" stroke="black" points="0,-0.5 0,-101.5 161,-101.5 161,-0.5 0,-0.5"/>
<text text-anchor="middle" x="80.5" y="-89.5" font-family="Helvetica,sans-Serif" font-size="10.00">memoryoracle.frame.Selector</text>
<polyline fill="none" stroke="black" points="0,-82.5 161,-82.5 "/>
<text text-anchor="start" x="8" y="-70.5" font-family="Helvetica,sans-Serif" font-size="10.00">+ oldFrame</text>
<text text-anchor="start" x="8" y="-59.5" font-family="Helvetica,sans-Serif" font-size="10.00">&#45; _frame</text>
<polyline fill="none" stroke="black" points="0,-52.5 161,-52.5 "/>
<text text-anchor="start" x="8" y="-40.5" font-family="Helvetica,sans-Serif" font-size="10.00">+ __init__()</text>
<text text-anchor="start" x="8" y="-29.5" font-family="Helvetica,sans-Serif" font-size="10.00">+ __enter__()</text>
<text text-anchor="start" x="8" y="-18.5" font-family="Helvetica,sans-Serif" font-size="10.00">+ __exit__()</text>
<text text-anchor="start" x="8" y="-7.5" font-family="Helvetica,sans-Serif" font-size="10.00">+ frame()</text>
</g>
<!-- Node2 -->
<g id="node2" class="node"><title>Node2</title>
<polygon fill="none" stroke="#bfbfbf" points="57.5,-138.5 57.5,-195.5 103.5,-195.5 103.5,-138.5 57.5,-138.5"/>
<text text-anchor="middle" x="80.5" y="-183.5" font-family="Helvetica,sans-Serif" font-size="10.00">object</text>
<polyline fill="none" stroke="#bfbfbf" points="57.5,-176.5 103.5,-176.5 "/>
<text text-anchor="middle" x="80.5" y="-164.5" font-family="Helvetica,sans-Serif" font-size="10.00"> </text>
<polyline fill="none" stroke="#bfbfbf" points="57.5,-157.5 103.5,-157.5 "/>
<text text-anchor="middle" x="80.5" y="-145.5" font-family="Helvetica,sans-Serif" font-size="10.00"> </text>
</g>
<!-- Node2&#45;&gt;Node1 -->
<g id="edge1" class="edge"><title>Node2&#45;&gt;Node1</title>
<path fill="none" stroke="midnightblue" d="M80.5,-128.354C80.5,-119.796 80.5,-110.578 80.5,-101.608"/>
<polygon fill="none" stroke="midnightblue" points="77.0001,-128.404 80.5,-138.404 84.0001,-128.404 77.0001,-128.404"/>
</g>
</g>
</svg>
