<?xml version="1.0" encoding="UTF-8" standalone="no"?>
<!DOCTYPE svg PUBLIC "-//W3C//DTD SVG 1.1//EN"
 "http://www.w3.org/Graphics/SVG/1.1/DTD/svg11.dtd">
<!-- Generated by graphviz version 2.38.0 (20140413.2041)
 -->
<!-- Title: memoryoracle.instance.Memory.track Pages: 1 -->
<svg width="905pt" height="449pt"
 viewBox="0.00 0.00 905.00 449.00" xmlns="http://www.w3.org/2000/svg" xmlns:xlink="http://www.w3.org/1999/xlink">
<g id="graph0" class="graph" transform="scale(1 1) rotate(0) translate(4 445)">
<title>memoryoracle.instance.Memory.track</title>
<!-- Node1 -->
<g id="node1" class="node"><title>Node1</title>
<polygon fill="#bfbfbf" stroke="black" points="0,-210 0,-229 197,-229 197,-210 0,-210"/>
<text text-anchor="middle" x="98.5" y="-217" font-family="Helvetica,sans-Serif" font-size="10.00">memoryoracle.instance.Memory.track</text>
</g>
<!-- Node2 -->
<g id="node2" class="node"><title>Node2</title>
<g id="a_node2"><a xlink:href="classmemoryoracle_1_1instance_1_1Memory.html#ac50fd3bb7216dc0481b8c6f23831a998" target="_top" xlink:title="memoryoracle.instance.Memory.\l_basic_track">
<polygon fill="none" stroke="black" points="237,-357.5 237,-387.5 410,-387.5 410,-357.5 237,-357.5"/>
<text text-anchor="start" x="245" y="-375.5" font-family="Helvetica,sans-Serif" font-size="10.00">memoryoracle.instance.Memory.</text>
<text text-anchor="middle" x="323.5" y="-364.5" font-family="Helvetica,sans-Serif" font-size="10.00">_basic_track</text>
</a>
</g>
</g>
<!-- Node1&#45;&gt;Node2 -->
<g id="edge1" class="edge"><title>Node1&#45;&gt;Node2</title>
<path fill="none" stroke="midnightblue" d="M110.012,-229.159C131.847,-248.933 184.151,-294.829 233,-326.5 247.81,-336.102 264.87,-345.29 280.098,-352.894"/>
<polygon fill="midnightblue" stroke="midnightblue" points="278.787,-356.15 289.306,-357.415 281.871,-349.866 278.787,-356.15"/>
</g>
<!-- Node6 -->
<g id="node6" class="node"><title>Node6</title>
<g id="a_node6"><a xlink:href="classmemoryoracle_1_1instance_1_1Structure.html#a200a54be462e0199b7833cbd11f81a52" target="_top" xlink:title="memoryoracle.instance.Structure.\l_track">
<polygon fill="none" stroke="black" points="233,-253.5 233,-283.5 414,-283.5 414,-253.5 233,-253.5"/>
<text text-anchor="start" x="241" y="-271.5" font-family="Helvetica,sans-Serif" font-size="10.00">memoryoracle.instance.Structure.</text>
<text text-anchor="middle" x="323.5" y="-260.5" font-family="Helvetica,sans-Serif" font-size="10.00">_track</text>
</a>
</g>
</g>
<!-- Node1&#45;&gt;Node6 -->
<g id="edge5" class="edge"><title>Node1&#45;&gt;Node6</title>
<path fill="none" stroke="midnightblue" d="M142.761,-229.006C171.466,-235.313 209.974,-243.775 243.984,-251.248"/>
<polygon fill="midnightblue" stroke="midnightblue" points="243.392,-254.701 253.91,-253.429 244.894,-247.864 243.392,-254.701"/>
</g>
<!-- Node8 -->
<g id="node8" class="node"><title>Node8</title>
<g id="a_node8"><a xlink:href="classmemoryoracle_1_1instance_1_1Array.html#a1d8c3993d8a52bfbec8240d6f79b3ce1" target="_top" xlink:title="TODO: upgrade this to ref field. ">
<polygon fill="none" stroke="black" points="480,-284.5 480,-314.5 640,-314.5 640,-284.5 480,-284.5"/>
<text text-anchor="start" x="488" y="-302.5" font-family="Helvetica,sans-Serif" font-size="10.00">memoryoracle.instance.Array.</text>
<text text-anchor="middle" x="560" y="-291.5" font-family="Helvetica,sans-Serif" font-size="10.00">_track</text>
</a>
</g>
</g>
<!-- Node1&#45;&gt;Node8 -->
<g id="edge7" class="edge"><title>Node1&#45;&gt;Node8</title>
<path fill="none" stroke="midnightblue" d="M112.234,-229.237C134.986,-245.969 184.764,-279.62 233,-292.5 311.035,-313.337 403.348,-313.122 469.785,-308.849"/>
<polygon fill="midnightblue" stroke="midnightblue" points="470.07,-312.338 479.807,-308.161 469.591,-305.354 470.07,-312.338"/>
</g>
<!-- Node11 -->
<g id="node11" class="node"><title>Node11</title>
<g id="a_node11"><a xlink:href="classmemoryoracle_1_1instance_1_1Primitive.html#a68562bda9732e33fe32188597e2f4b91" target="_top" xlink:title="memoryoracle.instance.Primitive.\l_track">
<polygon fill="none" stroke="black" points="235,-204.5 235,-234.5 412,-234.5 412,-204.5 235,-204.5"/>
<text text-anchor="start" x="243" y="-222.5" font-family="Helvetica,sans-Serif" font-size="10.00">memoryoracle.instance.Primitive.</text>
<text text-anchor="middle" x="323.5" y="-211.5" font-family="Helvetica,sans-Serif" font-size="10.00">_track</text>
</a>
</g>
</g>
<!-- Node1&#45;&gt;Node11 -->
<g id="edge10" class="edge"><title>Node1&#45;&gt;Node11</title>
<path fill="none" stroke="midnightblue" d="M197.311,-219.5C206.409,-219.5 215.63,-219.5 224.728,-219.5"/>
<polygon fill="midnightblue" stroke="midnightblue" points="224.933,-223 234.933,-219.5 224.933,-216 224.933,-223"/>
</g>
<!-- Node12 -->
<g id="node12" class="node"><title>Node12</title>
<g id="a_node12"><a xlink:href="classmemoryoracle_1_1instance_1_1Pointer.html#a2cc9e298adaad8bed089d90186fcde8a" target="_top" xlink:title="memoryoracle.instance.Pointer.\l_track">
<polygon fill="none" stroke="black" points="239,-155.5 239,-185.5 408,-185.5 408,-155.5 239,-155.5"/>
<text text-anchor="start" x="247" y="-173.5" font-family="Helvetica,sans-Serif" font-size="10.00">memoryoracle.instance.Pointer.</text>
<text text-anchor="middle" x="323.5" y="-162.5" font-family="Helvetica,sans-Serif" font-size="10.00">_track</text>
</a>
</g>
</g>
<!-- Node1&#45;&gt;Node12 -->
<g id="edge11" class="edge"><title>Node1&#45;&gt;Node12</title>
<path fill="none" stroke="midnightblue" d="M142.761,-209.994C171.466,-203.687 209.974,-195.225 243.984,-187.752"/>
<polygon fill="midnightblue" stroke="midnightblue" points="244.894,-191.136 253.91,-185.571 243.392,-184.299 244.894,-191.136"/>
</g>
<!-- Node13 -->
<g id="node13" class="node"><title>Node13</title>
<g id="a_node13"><a xlink:href="classmemoryoracle_1_1instance_1_1Int.html#a38c9424341353f006771163d360594da" target="_top" xlink:title="memoryoracle.instance.Int.\l_track">
<polygon fill="none" stroke="black" points="249.5,-106.5 249.5,-136.5 397.5,-136.5 397.5,-106.5 249.5,-106.5"/>
<text text-anchor="start" x="257.5" y="-124.5" font-family="Helvetica,sans-Serif" font-size="10.00">memoryoracle.instance.Int.</text>
<text text-anchor="middle" x="323.5" y="-113.5" font-family="Helvetica,sans-Serif" font-size="10.00">_track</text>
</a>
</g>
</g>
<!-- Node1&#45;&gt;Node13 -->
<g id="edge13" class="edge"><title>Node1&#45;&gt;Node13</title>
<path fill="none" stroke="midnightblue" d="M107.287,-209.904C127.325,-192.063 182.633,-156.855 233,-136.5 235.202,-135.61 237.448,-134.743 239.726,-133.9"/>
<polygon fill="midnightblue" stroke="midnightblue" points="240.944,-137.182 249.233,-130.583 238.638,-130.573 240.944,-137.182"/>
</g>
<!-- Node3 -->
<g id="node3" class="node"><title>Node3</title>
<g id="a_node3"><a xlink:href="classmemoryoracle_1_1instance_1_1Memory.html#acde5472399a5335909aca575b634dde7" target="_top" xlink:title="memoryoracle.instance.Memory.extract\l_dynamic_type">
<polygon fill="none" stroke="black" points="456.5,-410.5 456.5,-440.5 663.5,-440.5 663.5,-410.5 456.5,-410.5"/>
<text text-anchor="start" x="464.5" y="-428.5" font-family="Helvetica,sans-Serif" font-size="10.00">memoryoracle.instance.Memory.extract</text>
<text text-anchor="middle" x="560" y="-417.5" font-family="Helvetica,sans-Serif" font-size="10.00">_dynamic_type</text>
</a>
</g>
</g>
<!-- Node2&#45;&gt;Node3 -->
<g id="edge2" class="edge"><title>Node2&#45;&gt;Node3</title>
<path fill="none" stroke="midnightblue" d="M391.071,-387.546C419.538,-393.98 452.941,-401.529 482.426,-408.193"/>
<polygon fill="midnightblue" stroke="midnightblue" points="481.737,-411.626 492.263,-410.416 483.28,-404.798 481.737,-411.626"/>
</g>
<!-- Node4 -->
<g id="node4" class="node"><title>Node4</title>
<g id="a_node4"><a xlink:href="classmemoryoracle_1_1frame_1_1Frame.html#aba4a80563b93cf0069db8d64df6b19e5" target="_top" xlink:title="memoryoracle.frame.Frame.index">
<polygon fill="none" stroke="black" points="470.5,-372 470.5,-391 649.5,-391 649.5,-372 470.5,-372"/>
<text text-anchor="middle" x="560" y="-379" font-family="Helvetica,sans-Serif" font-size="10.00">memoryoracle.frame.Frame.index</text>
</a>
</g>
</g>
<!-- Node2&#45;&gt;Node4 -->
<g id="edge3" class="edge"><title>Node2&#45;&gt;Node4</title>
<path fill="none" stroke="midnightblue" d="M410.155,-375.787C426.408,-376.411 443.535,-377.069 460.156,-377.706"/>
<polygon fill="midnightblue" stroke="midnightblue" points="460.301,-381.214 470.428,-378.101 460.569,-374.22 460.301,-381.214"/>
</g>
<!-- Node5 -->
<g id="node5" class="node"><title>Node5</title>
<g id="a_node5"><a xlink:href="classmemoryoracle_1_1instance_1_1Memory.html#aba9e6136a3854e0ab59a74acd015be06" target="_top" xlink:title="memoryoracle.instance.Memory.index">
<polygon fill="none" stroke="black" points="460.5,-334 460.5,-353 659.5,-353 659.5,-334 460.5,-334"/>
<text text-anchor="middle" x="560" y="-341" font-family="Helvetica,sans-Serif" font-size="10.00">memoryoracle.instance.Memory.index</text>
</a>
</g>
</g>
<!-- Node2&#45;&gt;Node5 -->
<g id="edge4" class="edge"><title>Node2&#45;&gt;Node5</title>
<path fill="none" stroke="midnightblue" d="M410.155,-361.907C430.302,-359.416 451.794,-356.758 471.999,-354.259"/>
<polygon fill="midnightblue" stroke="midnightblue" points="472.622,-357.709 482.117,-353.008 471.763,-350.762 472.622,-357.709"/>
</g>
<!-- Node7 -->
<g id="node7" class="node"><title>Node7</title>
<g id="a_node7"><a xlink:href="namespacememoryoracle_1_1instance.html#ac651a8635b1ae2ee7e788bf9adb17a0b" target="_top" xlink:title="memoryoracle.instance.addressable\l_factory">
<polygon fill="none" stroke="black" points="464.5,-235.5 464.5,-265.5 655.5,-265.5 655.5,-235.5 464.5,-235.5"/>
<text text-anchor="start" x="472.5" y="-253.5" font-family="Helvetica,sans-Serif" font-size="10.00">memoryoracle.instance.addressable</text>
<text text-anchor="middle" x="560" y="-242.5" font-family="Helvetica,sans-Serif" font-size="10.00">_factory</text>
</a>
</g>
</g>
<!-- Node6&#45;&gt;Node7 -->
<g id="edge6" class="edge"><title>Node6&#45;&gt;Node7</title>
<path fill="none" stroke="midnightblue" d="M414.158,-261.618C427.243,-260.614 440.815,-259.572 454.169,-258.547"/>
<polygon fill="midnightblue" stroke="midnightblue" points="454.624,-262.022 464.327,-257.767 454.088,-255.043 454.624,-262.022"/>
</g>
<!-- Node9 -->
<g id="node9" class="node"><title>Node9</title>
<g id="a_node9"><a xlink:href="classmemoryoracle_1_1typed_1_1Typed.html#a0d1a3c7644d37da66f9ea5cb269115fe" target="_top" xlink:title="memoryoracle.typed.Typed.object">
<polygon fill="none" stroke="black" points="712,-238 712,-257 891,-257 891,-238 712,-238"/>
<text text-anchor="middle" x="801.5" y="-245" font-family="Helvetica,sans-Serif" font-size="10.00">memoryoracle.typed.Typed.object</text>
</a>
</g>
</g>
<!-- Node8&#45;&gt;Node9 -->
<g id="edge8" class="edge"><title>Node8&#45;&gt;Node9</title>
<path fill="none" stroke="midnightblue" d="M630.273,-284.459C667.366,-276.406 712.368,-266.635 746.784,-259.163"/>
<polygon fill="midnightblue" stroke="midnightblue" points="747.619,-262.563 756.648,-257.021 746.133,-255.723 747.619,-262.563"/>
</g>
<!-- Node10 -->
<g id="node10" class="node"><title>Node10</title>
<g id="a_node10"><a xlink:href="classmemoryoracle_1_1descriptions_1_1MemoryDescription.html#a0fc58900317d1e723b6352005e163aef" target="_top" xlink:title="memoryoracle.descriptions.\lMemoryDescription.object">
<polygon fill="none" stroke="black" points="726.5,-281.5 726.5,-311.5 876.5,-311.5 876.5,-281.5 726.5,-281.5"/>
<text text-anchor="start" x="734.5" y="-299.5" font-family="Helvetica,sans-Serif" font-size="10.00">memoryoracle.descriptions.</text>
<text text-anchor="middle" x="801.5" y="-288.5" font-family="Helvetica,sans-Serif" font-size="10.00">MemoryDescription.object</text>
</a>
</g>
</g>
<!-- Node8&#45;&gt;Node10 -->
<g id="edge9" class="edge"><title>Node8&#45;&gt;Node10</title>
<path fill="none" stroke="midnightblue" d="M640.085,-298.509C664.515,-298.203 691.506,-297.865 716.27,-297.555"/>
<polygon fill="midnightblue" stroke="midnightblue" points="716.411,-301.054 726.366,-297.429 716.323,-294.054 716.411,-301.054"/>
</g>
<!-- Node12&#45;&gt;Node7 -->
<g id="edge12" class="edge"><title>Node12&#45;&gt;Node7</title>
<path fill="none" stroke="midnightblue" d="M393.634,-185.639C400.685,-188.18 407.601,-191.116 414,-194.5 432.665,-204.371 431.158,-215.972 450,-225.5 454.819,-227.937 459.877,-230.139 465.066,-232.129"/>
<polygon fill="midnightblue" stroke="midnightblue" points="463.928,-235.439 474.523,-235.487 466.271,-228.843 463.928,-235.439"/>
</g>
<!-- Node13&#45;&gt;Node1 -->
<g id="edge23" class="edge"><title>Node13&#45;&gt;Node1</title>
<path fill="none" stroke="midnightblue" d="M288.714,-136.572C271.682,-141.541 250.898,-147.267 233,-154.5 197.616,-168.8 159.793,-190.431 133.473,-205.016"/>
<polygon fill="midnightblue" stroke="midnightblue" points="131.744,-201.973 124.667,-209.857 135.116,-208.107 131.744,-201.973"/>
</g>
<!-- Node13&#45;&gt;Node7 -->
<g id="edge18" class="edge"><title>Node13&#45;&gt;Node7</title>
<path fill="none" stroke="midnightblue" d="M397.66,-135.02C403.545,-137.877 409.099,-141.33 414,-145.5 443.696,-170.766 419.848,-200.781 450,-225.5 452.069,-227.196 454.231,-228.782 456.471,-230.265"/>
<polygon fill="midnightblue" stroke="midnightblue" points="455.052,-233.489 465.457,-235.488 458.569,-227.437 455.052,-233.489"/>
</g>
<!-- Node14 -->
<g id="node14" class="node"><title>Node14</title>
<g id="a_node14"><a xlink:href="classmemoryoracle_1_1instance_1_1Int.html#a450a73bc8aaf1a7ac5f18c3ed1a933fc" target="_top" xlink:title="memoryoracle.instance.Int.\l_find_hidden_type">
<polygon fill="none" stroke="black" points="486,-186.5 486,-216.5 634,-216.5 634,-186.5 486,-186.5"/>
<text text-anchor="start" x="494" y="-204.5" font-family="Helvetica,sans-Serif" font-size="10.00">memoryoracle.instance.Int.</text>
<text text-anchor="middle" x="560" y="-193.5" font-family="Helvetica,sans-Serif" font-size="10.00">_find_hidden_type</text>
</a>
</g>
</g>
<!-- Node13&#45;&gt;Node14 -->
<g id="edge14" class="edge"><title>Node13&#45;&gt;Node14</title>
<path fill="none" stroke="midnightblue" d="M393.634,-136.639C400.685,-139.18 407.601,-142.116 414,-145.5 432.665,-155.371 431.158,-166.972 450,-176.5 458.143,-180.618 466.97,-184.066 475.956,-186.952"/>
<polygon fill="midnightblue" stroke="midnightblue" points="475.16,-190.367 485.743,-189.868 477.159,-183.659 475.16,-190.367"/>
</g>
<!-- Node16 -->
<g id="node16" class="node"><title>Node16</title>
<g id="a_node16"><a xlink:href="classmemoryoracle_1_1tracked_1_1Tracked.html#abd8dc997fb5a226926f2044462dbd94b" target="_top" xlink:title="memoryoracle.tracked.Tracked.description">
<polygon fill="none" stroke="black" points="450,-148 450,-167 670,-167 670,-148 450,-148"/>
<text text-anchor="middle" x="560" y="-155" font-family="Helvetica,sans-Serif" font-size="10.00">memoryoracle.tracked.Tracked.description</text>
</a>
</g>
</g>
<!-- Node13&#45;&gt;Node16 -->
<g id="edge19" class="edge"><title>Node13&#45;&gt;Node16</title>
<path fill="none" stroke="midnightblue" d="M397.733,-132.743C426.098,-137.097 458.485,-142.069 486.756,-146.409"/>
<polygon fill="midnightblue" stroke="midnightblue" points="486.555,-149.919 496.97,-147.977 487.617,-143 486.555,-149.919"/>
</g>
<!-- Node17 -->
<g id="node17" class="node"><title>Node17</title>
<g id="a_node17"><a xlink:href="classmemoryoracle_1_1descriptions_1_1BlackBoxDecorator.html#a558c1ce5d38dc4785d4ef36c0a053967" target="_top" xlink:title="memoryoracle.descriptions.\lBlackBoxDecorator.description">
<polygon fill="none" stroke="black" points="478.5,-98.5 478.5,-128.5 641.5,-128.5 641.5,-98.5 478.5,-98.5"/>
<text text-anchor="start" x="486.5" y="-116.5" font-family="Helvetica,sans-Serif" font-size="10.00">memoryoracle.descriptions.</text>
<text text-anchor="middle" x="560" y="-105.5" font-family="Helvetica,sans-Serif" font-size="10.00">BlackBoxDecorator.description</text>
</a>
</g>
</g>
<!-- Node13&#45;&gt;Node17 -->
<g id="edge20" class="edge"><title>Node13&#45;&gt;Node17</title>
<path fill="none" stroke="midnightblue" d="M397.733,-119.002C419.974,-118.243 444.688,-117.4 467.952,-116.606"/>
<polygon fill="midnightblue" stroke="midnightblue" points="468.297,-120.096 478.171,-116.257 468.058,-113.101 468.297,-120.096"/>
</g>
<!-- Node18 -->
<g id="node18" class="node"><title>Node18</title>
<g id="a_node18"><a xlink:href="classmemoryoracle_1_1descriptions_1_1ExternalDescriptionDecorator.html#ae5952e51de2c9473ce19875b55ccb625" target="_top" xlink:title="memoryoracle.descriptions.\lExternalDescriptionDecorator.description">
<polygon fill="none" stroke="black" points="454,-49.5 454,-79.5 666,-79.5 666,-49.5 454,-49.5"/>
<text text-anchor="start" x="462" y="-67.5" font-family="Helvetica,sans-Serif" font-size="10.00">memoryoracle.descriptions.</text>
<text text-anchor="middle" x="560" y="-56.5" font-family="Helvetica,sans-Serif" font-size="10.00">ExternalDescriptionDecorator.description</text>
</a>
</g>
</g>
<!-- Node13&#45;&gt;Node18 -->
<g id="edge21" class="edge"><title>Node13&#45;&gt;Node18</title>
<path fill="none" stroke="midnightblue" d="M379.67,-106.478C401.521,-100.664 426.896,-94.0787 450,-88.5 459.394,-86.2317 469.265,-83.9362 479.071,-81.7103"/>
<polygon fill="midnightblue" stroke="midnightblue" points="479.848,-85.1231 488.834,-79.5112 478.31,-78.2941 479.848,-85.1231"/>
</g>
<!-- Node19 -->
<g id="node19" class="node"><title>Node19</title>
<g id="a_node19"><a xlink:href="classmemoryoracle_1_1descriptions_1_1StandardDescriptionDecorator.html#a50e064e8a858b8eafe2c603650dbbee8" target="_top" xlink:title="memoryoracle.descriptions.\lStandardDescriptionDecorator.description">
<polygon fill="none" stroke="black" points="451,-0.5 451,-30.5 669,-30.5 669,-0.5 451,-0.5"/>
<text text-anchor="start" x="459" y="-18.5" font-family="Helvetica,sans-Serif" font-size="10.00">memoryoracle.descriptions.</text>
<text text-anchor="middle" x="560" y="-7.5" font-family="Helvetica,sans-Serif" font-size="10.00">StandardDescriptionDecorator.description</text>
</a>
</g>
</g>
<!-- Node13&#45;&gt;Node19 -->
<g id="edge22" class="edge"><title>Node13&#45;&gt;Node19</title>
<path fill="none" stroke="midnightblue" d="M342.838,-106.409C366.263,-87.8951 408.728,-56.8394 450,-39.5 455.08,-37.3657 460.377,-35.4094 465.779,-33.6179"/>
<polygon fill="midnightblue" stroke="midnightblue" points="467.082,-36.8781 475.593,-30.5683 465.005,-30.1934 467.082,-36.8781"/>
</g>
<!-- Node14&#45;&gt;Node9 -->
<g id="edge15" class="edge"><title>Node14&#45;&gt;Node9</title>
<path fill="none" stroke="midnightblue" d="M634.159,-215.551C668.295,-222.108 708.415,-229.813 740.7,-236.014"/>
<polygon fill="midnightblue" stroke="midnightblue" points="740.408,-239.522 750.889,-237.971 741.729,-232.648 740.408,-239.522"/>
</g>
<!-- Node14&#45;&gt;Node10 -->
<g id="edge16" class="edge"><title>Node14&#45;&gt;Node10</title>
<path fill="none" stroke="midnightblue" d="M634.09,-210.869C646.6,-214.323 659.072,-219.046 670,-225.5 690.88,-237.832 685.7,-253.235 706,-266.5 712.484,-270.737 719.609,-274.412 726.948,-277.591"/>
<polygon fill="midnightblue" stroke="midnightblue" points="725.744,-280.879 736.328,-281.357 728.352,-274.383 725.744,-280.879"/>
</g>
<!-- Node15 -->
<g id="node15" class="node"><title>Node15</title>
<g id="a_node15"><a xlink:href="classmemoryoracle_1_1instance_1_1Primitive.html#abc513cbf3d0938c0db133e9af0a6f5ea" target="_top" xlink:title="memoryoracle.instance.Primitive.val\l_string">
<polygon fill="none" stroke="black" points="706,-186.5 706,-216.5 897,-216.5 897,-186.5 706,-186.5"/>
<text text-anchor="start" x="714" y="-204.5" font-family="Helvetica,sans-Serif" font-size="10.00">memoryoracle.instance.Primitive.val</text>
<text text-anchor="middle" x="801.5" y="-193.5" font-family="Helvetica,sans-Serif" font-size="10.00">_string</text>
</a>
</g>
</g>
<!-- Node14&#45;&gt;Node15 -->
<g id="edge17" class="edge"><title>Node14&#45;&gt;Node15</title>
<path fill="none" stroke="midnightblue" d="M634.159,-201.5C653.547,-201.5 674.865,-201.5 695.582,-201.5"/>
<polygon fill="midnightblue" stroke="midnightblue" points="695.693,-205 705.693,-201.5 695.693,-198 695.693,-205"/>
</g>
</g>
</svg>
