<?xml version="1.0" encoding="UTF-8" standalone="no"?>
<!DOCTYPE svg PUBLIC "-//W3C//DTD SVG 1.1//EN"
 "http://www.w3.org/Graphics/SVG/1.1/DTD/svg11.dtd">
<!-- Generated by graphviz version 2.38.0 (20140413.2041)
 -->
<!-- Title: memoryoracle.symbol.TemplateDecorator Pages: 1 -->
<svg width="184pt" height="591pt"
 viewBox="0.00 0.00 184.00 591.00" xmlns="http://www.w3.org/2000/svg" xmlns:xlink="http://www.w3.org/1999/xlink">
<g id="graph0" class="graph" transform="scale(1 1) rotate(0) translate(4 587)">
<title>memoryoracle.symbol.TemplateDecorator</title>
<!-- Node1 -->
<g id="node1" class="node"><title>Node1</title>
<polygon fill="#bfbfbf" stroke="black" points="3,-105.5 3,-173.5 173,-173.5 173,-105.5 3,-105.5"/>
<text text-anchor="start" x="11" y="-161.5" font-family="Helvetica,sans-Serif" font-size="10.00">memoryoracle.symbol.Template</text>
<text text-anchor="middle" x="88" y="-150.5" font-family="Helvetica,sans-Serif" font-size="10.00">Decorator</text>
<polyline fill="none" stroke="black" points="3,-143.5 173,-143.5 "/>
<text text-anchor="middle" x="88" y="-131.5" font-family="Helvetica,sans-Serif" font-size="10.00"> </text>
<polyline fill="none" stroke="black" points="3,-124.5 173,-124.5 "/>
<text text-anchor="middle" x="88" y="-112.5" font-family="Helvetica,sans-Serif" font-size="10.00"> </text>
</g>
<!-- Node6 -->
<g id="node6" class="node"><title>Node6</title>
<g id="a_node6"><a xlink:href="classmemoryoracle_1_1symbol_1_1TemplatedDecorator.html" target="_top" xlink:title="{memoryoracle.symbol.Templated\lDecorator\n||}">
<polygon fill="none" stroke="black" points="-1.42109e-14,-0.5 -1.42109e-14,-68.5 176,-68.5 176,-0.5 -1.42109e-14,-0.5"/>
<text text-anchor="start" x="8" y="-56.5" font-family="Helvetica,sans-Serif" font-size="10.00">memoryoracle.symbol.Templated</text>
<text text-anchor="middle" x="88" y="-45.5" font-family="Helvetica,sans-Serif" font-size="10.00">Decorator</text>
<polyline fill="none" stroke="black" points="-1.42109e-14,-38.5 176,-38.5 "/>
<text text-anchor="middle" x="88" y="-26.5" font-family="Helvetica,sans-Serif" font-size="10.00"> </text>
<polyline fill="none" stroke="black" points="-1.42109e-14,-19.5 176,-19.5 "/>
<text text-anchor="middle" x="88" y="-7.5" font-family="Helvetica,sans-Serif" font-size="10.00"> </text>
</a>
</g>
</g>
<!-- Node1&#45;&gt;Node6 -->
<g id="edge5" class="edge"><title>Node1&#45;&gt;Node6</title>
<path fill="none" stroke="midnightblue" d="M88,-95.1362C88,-86.256 88,-77.0447 88,-68.5947"/>
<polygon fill="none" stroke="midnightblue" points="84.5001,-95.3432 88,-105.343 91.5001,-95.3432 84.5001,-95.3432"/>
</g>
<!-- Node2 -->
<g id="node2" class="node"><title>Node2</title>
<g id="a_node2"><a xlink:href="classmemoryoracle_1_1symbol_1_1Symbol.html" target="_top" xlink:title="{memoryoracle.symbol.Symbol\n||}">
<polygon fill="none" stroke="black" points="6.5,-210.5 6.5,-267.5 169.5,-267.5 169.5,-210.5 6.5,-210.5"/>
<text text-anchor="middle" x="88" y="-255.5" font-family="Helvetica,sans-Serif" font-size="10.00">memoryoracle.symbol.Symbol</text>
<polyline fill="none" stroke="black" points="6.5,-248.5 169.5,-248.5 "/>
<text text-anchor="middle" x="88" y="-236.5" font-family="Helvetica,sans-Serif" font-size="10.00"> </text>
<polyline fill="none" stroke="black" points="6.5,-229.5 169.5,-229.5 "/>
<text text-anchor="middle" x="88" y="-217.5" font-family="Helvetica,sans-Serif" font-size="10.00"> </text>
</a>
</g>
</g>
<!-- Node2&#45;&gt;Node1 -->
<g id="edge1" class="edge"><title>Node2&#45;&gt;Node1</title>
<path fill="none" stroke="midnightblue" d="M88,-200.063C88,-191.393 88,-182.243 88,-173.786"/>
<polygon fill="none" stroke="midnightblue" points="84.5001,-200.321 88,-210.321 91.5001,-200.321 84.5001,-200.321"/>
</g>
<!-- Node3 -->
<g id="node3" class="node"><title>Node3</title>
<g id="a_node3"><a xlink:href="classmemoryoracle_1_1typed_1_1Typed.html" target="_top" xlink:title="{memoryoracle.typed.Typed\n||+ type_code()\l+ gdb_type()\l+ object()\l}">
<polygon fill="none" stroke="black" points="15,-304.5 15,-383.5 161,-383.5 161,-304.5 15,-304.5"/>
<text text-anchor="middle" x="88" y="-371.5" font-family="Helvetica,sans-Serif" font-size="10.00">memoryoracle.typed.Typed</text>
<polyline fill="none" stroke="black" points="15,-364.5 161,-364.5 "/>
<text text-anchor="middle" x="88" y="-352.5" font-family="Helvetica,sans-Serif" font-size="10.00"> </text>
<polyline fill="none" stroke="black" points="15,-345.5 161,-345.5 "/>
<text text-anchor="start" x="23" y="-333.5" font-family="Helvetica,sans-Serif" font-size="10.00">+ type_code()</text>
<text text-anchor="start" x="23" y="-322.5" font-family="Helvetica,sans-Serif" font-size="10.00">+ gdb_type()</text>
<text text-anchor="start" x="23" y="-311.5" font-family="Helvetica,sans-Serif" font-size="10.00">+ object()</text>
</a>
</g>
</g>
<!-- Node3&#45;&gt;Node2 -->
<g id="edge2" class="edge"><title>Node3&#45;&gt;Node2</title>
<path fill="none" stroke="midnightblue" d="M88,-294.163C88,-285.04 88,-275.806 88,-267.61"/>
<polygon fill="none" stroke="midnightblue" points="84.5001,-294.354 88,-304.354 91.5001,-294.354 84.5001,-294.354"/>
</g>
<!-- Node4 -->
<g id="node4" class="node"><title>Node4</title>
<g id="a_node4"><a xlink:href="classmemoryoracle_1_1tracked_1_1Tracked.html" target="_top" xlink:title="{memoryoracle.tracked.Tracked\n|+ meta\l|+ track()\l+ description()\l}">
<polygon fill="none" stroke="black" points="6,-420.5 6,-488.5 170,-488.5 170,-420.5 6,-420.5"/>
<text text-anchor="middle" x="88" y="-476.5" font-family="Helvetica,sans-Serif" font-size="10.00">memoryoracle.tracked.Tracked</text>
<polyline fill="none" stroke="black" points="6,-469.5 170,-469.5 "/>
<text text-anchor="start" x="14" y="-457.5" font-family="Helvetica,sans-Serif" font-size="10.00">+ meta</text>
<polyline fill="none" stroke="black" points="6,-450.5 170,-450.5 "/>
<text text-anchor="start" x="14" y="-438.5" font-family="Helvetica,sans-Serif" font-size="10.00">+ track()</text>
<text text-anchor="start" x="14" y="-427.5" font-family="Helvetica,sans-Serif" font-size="10.00">+ description()</text>
</a>
</g>
</g>
<!-- Node4&#45;&gt;Node3 -->
<g id="edge3" class="edge"><title>Node4&#45;&gt;Node3</title>
<path fill="none" stroke="midnightblue" d="M88,-410.274C88,-401.476 88,-392.275 88,-383.649"/>
<polygon fill="none" stroke="midnightblue" points="84.5001,-410.357 88,-420.357 91.5001,-410.357 84.5001,-410.357"/>
</g>
<!-- Node5 -->
<g id="node5" class="node"><title>Node5</title>
<polygon fill="none" stroke="#bfbfbf" points="54.5,-525.5 54.5,-582.5 121.5,-582.5 121.5,-525.5 54.5,-525.5"/>
<text text-anchor="middle" x="88" y="-570.5" font-family="Helvetica,sans-Serif" font-size="10.00">Document</text>
<polyline fill="none" stroke="#bfbfbf" points="54.5,-563.5 121.5,-563.5 "/>
<text text-anchor="middle" x="88" y="-551.5" font-family="Helvetica,sans-Serif" font-size="10.00"> </text>
<polyline fill="none" stroke="#bfbfbf" points="54.5,-544.5 121.5,-544.5 "/>
<text text-anchor="middle" x="88" y="-532.5" font-family="Helvetica,sans-Serif" font-size="10.00"> </text>
</g>
<!-- Node5&#45;&gt;Node4 -->
<g id="edge4" class="edge"><title>Node5&#45;&gt;Node4</title>
<path fill="none" stroke="midnightblue" d="M88,-515.063C88,-506.393 88,-497.243 88,-488.786"/>
<polygon fill="none" stroke="midnightblue" points="84.5001,-515.321 88,-525.321 91.5001,-515.321 84.5001,-515.321"/>
</g>
</g>
</svg>
