<?xml version="1.0" encoding="UTF-8" standalone="no"?>
<!DOCTYPE svg PUBLIC "-//W3C//DTD SVG 1.1//EN"
 "http://www.w3.org/Graphics/SVG/1.1/DTD/svg11.dtd">
<!-- Generated by graphviz version 2.38.0 (20140413.2041)
 -->
<!-- Title: memoryoracle.instance.Memory Pages: 1 -->
<svg width="2002pt" height="1147pt"
 viewBox="0.00 0.00 2001.50 1147.00" xmlns="http://www.w3.org/2000/svg" xmlns:xlink="http://www.w3.org/1999/xlink">
<g id="graph0" class="graph" transform="scale(1 1) rotate(0) translate(4 1143)">
<title>memoryoracle.instance.Memory</title>
<!-- Node1 -->
<g id="node1" class="node"><title>Node1</title>
<polygon fill="#bfbfbf" stroke="black" points="899,-469.5 899,-823.5 1071,-823.5 1071,-469.5 899,-469.5"/>
<text text-anchor="middle" x="985" y="-811.5" font-family="Helvetica,sans-Serif" font-size="10.00">memoryoracle.instance.Memory</text>
<polyline fill="none" stroke="black" points="899,-804.5 1071,-804.5 "/>
<text text-anchor="start" x="907" y="-792.5" font-family="Helvetica,sans-Serif" font-size="10.00">+ unaliased_type</text>
<text text-anchor="start" x="907" y="-781.5" font-family="Helvetica,sans-Serif" font-size="10.00">+ dynamic_type</text>
<text text-anchor="start" x="907" y="-770.5" font-family="Helvetica,sans-Serif" font-size="10.00">+ address</text>
<text text-anchor="start" x="907" y="-759.5" font-family="Helvetica,sans-Serif" font-size="10.00">+ name</text>
<text text-anchor="start" x="907" y="-748.5" font-family="Helvetica,sans-Serif" font-size="10.00">+ frame</text>
<text text-anchor="start" x="907" y="-737.5" font-family="Helvetica,sans-Serif" font-size="10.00">+ execution</text>
<text text-anchor="start" x="907" y="-726.5" font-family="Helvetica,sans-Serif" font-size="10.00">+ type</text>
<text text-anchor="start" x="907" y="-715.5" font-family="Helvetica,sans-Serif" font-size="10.00">+ dynamic_type</text>
<text text-anchor="start" x="907" y="-704.5" font-family="Helvetica,sans-Serif" font-size="10.00">+ unaliased_type</text>
<text text-anchor="start" x="907" y="-693.5" font-family="Helvetica,sans-Serif" font-size="10.00">+ parent</text>
<text text-anchor="start" x="907" y="-682.5" font-family="Helvetica,sans-Serif" font-size="10.00">+ meta</text>
<text text-anchor="start" x="907" y="-671.5" font-family="Helvetica,sans-Serif" font-size="10.00">&#45; _description</text>
<text text-anchor="start" x="907" y="-660.5" font-family="Helvetica,sans-Serif" font-size="10.00">&#45; _object</text>
<text text-anchor="start" x="907" y="-649.5" font-family="Helvetica,sans-Serif" font-size="10.00">&#45; _addressFixer</text>
<text text-anchor="start" x="907" y="-638.5" font-family="Helvetica,sans-Serif" font-size="10.00">&#45; _updatedNames</text>
<text text-anchor="start" x="907" y="-627.5" font-family="Helvetica,sans-Serif" font-size="10.00">&#45; _watchers</text>
<text text-anchor="start" x="907" y="-616.5" font-family="Helvetica,sans-Serif" font-size="10.00">&#45; _execution</text>
<text text-anchor="start" x="907" y="-605.5" font-family="Helvetica,sans-Serif" font-size="10.00">&#45; _updateTracker</text>
<polyline fill="none" stroke="black" points="899,-598.5 1071,-598.5 "/>
<text text-anchor="start" x="907" y="-586.5" font-family="Helvetica,sans-Serif" font-size="10.00">+ __init__()</text>
<text text-anchor="start" x="907" y="-575.5" font-family="Helvetica,sans-Serif" font-size="10.00">+ index()</text>
<text text-anchor="start" x="907" y="-564.5" font-family="Helvetica,sans-Serif" font-size="10.00">+ factory()</text>
<text text-anchor="start" x="907" y="-553.5" font-family="Helvetica,sans-Serif" font-size="10.00">+ track()</text>
<text text-anchor="start" x="907" y="-542.5" font-family="Helvetica,sans-Serif" font-size="10.00">+ update()</text>
<text text-anchor="start" x="907" y="-531.5" font-family="Helvetica,sans-Serif" font-size="10.00">+ watchers()</text>
<text text-anchor="start" x="907" y="-520.5" font-family="Helvetica,sans-Serif" font-size="10.00">+ extract_dynamic_type()</text>
<text text-anchor="start" x="907" y="-509.5" font-family="Helvetica,sans-Serif" font-size="10.00">&#45; _fetch()</text>
<text text-anchor="start" x="907" y="-498.5" font-family="Helvetica,sans-Serif" font-size="10.00">&#45; _basic_track()</text>
<text text-anchor="start" x="907" y="-487.5" font-family="Helvetica,sans-Serif" font-size="10.00">&#45; _clear_updated()</text>
<text text-anchor="start" x="907" y="-476.5" font-family="Helvetica,sans-Serif" font-size="10.00">&#45; _set_execution()</text>
</g>
<!-- Node5 -->
<g id="node5" class="node"><title>Node5</title>
<g id="a_node5"><a xlink:href="classmemoryoracle_1_1instance_1_1Array.html" target="_top" xlink:title="{memoryoracle.instance.Array\n|+ range\l+ target_type\l+ repository\l+ range\l+ target_type\l&#45; _updateTracker\l&#45; _watchers\l&#45; _typeHandlerCode\l|&#45; _track()\l}">
<polygon fill="none" stroke="black" points="0,-298.5 0,-432.5 158,-432.5 158,-298.5 0,-298.5"/>
<text text-anchor="middle" x="79" y="-420.5" font-family="Helvetica,sans-Serif" font-size="10.00">memoryoracle.instance.Array</text>
<polyline fill="none" stroke="black" points="0,-413.5 158,-413.5 "/>
<text text-anchor="start" x="8" y="-401.5" font-family="Helvetica,sans-Serif" font-size="10.00">+ range</text>
<text text-anchor="start" x="8" y="-390.5" font-family="Helvetica,sans-Serif" font-size="10.00">+ target_type</text>
<text text-anchor="start" x="8" y="-379.5" font-family="Helvetica,sans-Serif" font-size="10.00">+ repository</text>
<text text-anchor="start" x="8" y="-368.5" font-family="Helvetica,sans-Serif" font-size="10.00">+ range</text>
<text text-anchor="start" x="8" y="-357.5" font-family="Helvetica,sans-Serif" font-size="10.00">+ target_type</text>
<text text-anchor="start" x="8" y="-346.5" font-family="Helvetica,sans-Serif" font-size="10.00">&#45; _updateTracker</text>
<text text-anchor="start" x="8" y="-335.5" font-family="Helvetica,sans-Serif" font-size="10.00">&#45; _watchers</text>
<text text-anchor="start" x="8" y="-324.5" font-family="Helvetica,sans-Serif" font-size="10.00">&#45; _typeHandlerCode</text>
<polyline fill="none" stroke="black" points="0,-317.5 158,-317.5 "/>
<text text-anchor="start" x="8" y="-305.5" font-family="Helvetica,sans-Serif" font-size="10.00">&#45; _track()</text>
</a>
</g>
</g>
<!-- Node1&#45;&gt;Node5 -->
<g id="edge4" class="edge"><title>Node1&#45;&gt;Node5</title>
<path fill="none" stroke="midnightblue" d="M888.62,-632.973C731.198,-609.823 411.913,-551.501 167,-433 164.07,-431.582 161.14,-430.059 158.225,-428.452"/>
<polygon fill="none" stroke="midnightblue" points="888.353,-636.471 898.753,-634.448 889.361,-629.544 888.353,-636.471"/>
</g>
<!-- Node6 -->
<g id="node6" class="node"><title>Node6</title>
<g id="a_node6"><a xlink:href="classmemoryoracle_1_1instance_1_1Call.html" target="_top" xlink:title="{memoryoracle.instance.Call\n|+ repository\l&#45; _typeHandlerCode\l&#45; _updateTracker\l&#45; _watchers\l|}">
<polygon fill="none" stroke="black" points="176,-320.5 176,-410.5 326,-410.5 326,-320.5 176,-320.5"/>
<text text-anchor="middle" x="251" y="-398.5" font-family="Helvetica,sans-Serif" font-size="10.00">memoryoracle.instance.Call</text>
<polyline fill="none" stroke="black" points="176,-391.5 326,-391.5 "/>
<text text-anchor="start" x="184" y="-379.5" font-family="Helvetica,sans-Serif" font-size="10.00">+ repository</text>
<text text-anchor="start" x="184" y="-368.5" font-family="Helvetica,sans-Serif" font-size="10.00">&#45; _typeHandlerCode</text>
<text text-anchor="start" x="184" y="-357.5" font-family="Helvetica,sans-Serif" font-size="10.00">&#45; _updateTracker</text>
<text text-anchor="start" x="184" y="-346.5" font-family="Helvetica,sans-Serif" font-size="10.00">&#45; _watchers</text>
<polyline fill="none" stroke="black" points="176,-339.5 326,-339.5 "/>
<text text-anchor="middle" x="251" y="-327.5" font-family="Helvetica,sans-Serif" font-size="10.00"> </text>
</a>
</g>
</g>
<!-- Node1&#45;&gt;Node6 -->
<g id="edge5" class="edge"><title>Node1&#45;&gt;Node6</title>
<path fill="none" stroke="midnightblue" d="M888.806,-625.32C758.049,-595.428 519.387,-532.015 335,-433 323.365,-426.752 311.723,-418.855 300.972,-410.703"/>
<polygon fill="none" stroke="midnightblue" points="888.276,-628.789 898.803,-627.588 889.825,-621.962 888.276,-628.789"/>
</g>
<!-- Node7 -->
<g id="node7" class="node"><title>Node7</title>
<g id="a_node7"><a xlink:href="classmemoryoracle_1_1instance_1_1ConstDecorator.html" target="_top" xlink:title="{memoryoracle.instance.Const\lDecorator\n||}">
<polygon fill="none" stroke="black" points="344.5,-331.5 344.5,-399.5 505.5,-399.5 505.5,-331.5 344.5,-331.5"/>
<text text-anchor="start" x="352.5" y="-387.5" font-family="Helvetica,sans-Serif" font-size="10.00">memoryoracle.instance.Const</text>
<text text-anchor="middle" x="425" y="-376.5" font-family="Helvetica,sans-Serif" font-size="10.00">Decorator</text>
<polyline fill="none" stroke="black" points="344.5,-369.5 505.5,-369.5 "/>
<text text-anchor="middle" x="425" y="-357.5" font-family="Helvetica,sans-Serif" font-size="10.00"> </text>
<polyline fill="none" stroke="black" points="344.5,-350.5 505.5,-350.5 "/>
<text text-anchor="middle" x="425" y="-338.5" font-family="Helvetica,sans-Serif" font-size="10.00"> </text>
</a>
</g>
</g>
<!-- Node1&#45;&gt;Node7 -->
<g id="edge6" class="edge"><title>Node1&#45;&gt;Node7</title>
<path fill="none" stroke="midnightblue" d="M889.17,-609.141C792.064,-570.709 638.903,-505.678 515,-433 498.243,-423.171 480.844,-410.873 465.862,-399.536"/>
<polygon fill="none" stroke="midnightblue" points="888.095,-612.479 898.682,-612.891 890.662,-605.967 888.095,-612.479"/>
</g>
<!-- Node8 -->
<g id="node8" class="node"><title>Node8</title>
<g id="a_node8"><a xlink:href="classmemoryoracle_1_1instance_1_1ExternDecorator.html" target="_top" xlink:title="{memoryoracle.instance.Extern\lDecorator\n||}">
<polygon fill="none" stroke="black" points="524,-331.5 524,-399.5 688,-399.5 688,-331.5 524,-331.5"/>
<text text-anchor="start" x="532" y="-387.5" font-family="Helvetica,sans-Serif" font-size="10.00">memoryoracle.instance.Extern</text>
<text text-anchor="middle" x="606" y="-376.5" font-family="Helvetica,sans-Serif" font-size="10.00">Decorator</text>
<polyline fill="none" stroke="black" points="524,-369.5 688,-369.5 "/>
<text text-anchor="middle" x="606" y="-357.5" font-family="Helvetica,sans-Serif" font-size="10.00"> </text>
<polyline fill="none" stroke="black" points="524,-350.5 688,-350.5 "/>
<text text-anchor="middle" x="606" y="-338.5" font-family="Helvetica,sans-Serif" font-size="10.00"> </text>
</a>
</g>
</g>
<!-- Node1&#45;&gt;Node8 -->
<g id="edge7" class="edge"><title>Node1&#45;&gt;Node8</title>
<path fill="none" stroke="midnightblue" d="M890.749,-576.117C814.226,-519.785 709.698,-442.837 650.915,-399.564"/>
<polygon fill="none" stroke="midnightblue" points="888.871,-579.081 898.999,-582.191 893.021,-573.444 888.871,-579.081"/>
</g>
<!-- Node9 -->
<g id="node9" class="node"><title>Node9</title>
<g id="a_node9"><a xlink:href="classmemoryoracle_1_1instance_1_1MemberDecorator.html" target="_top" xlink:title="{memoryoracle.instance.Member\lDecorator\n||}">
<polygon fill="none" stroke="black" points="706.5,-331.5 706.5,-399.5 879.5,-399.5 879.5,-331.5 706.5,-331.5"/>
<text text-anchor="start" x="714.5" y="-387.5" font-family="Helvetica,sans-Serif" font-size="10.00">memoryoracle.instance.Member</text>
<text text-anchor="middle" x="793" y="-376.5" font-family="Helvetica,sans-Serif" font-size="10.00">Decorator</text>
<polyline fill="none" stroke="black" points="706.5,-369.5 879.5,-369.5 "/>
<text text-anchor="middle" x="793" y="-357.5" font-family="Helvetica,sans-Serif" font-size="10.00"> </text>
<polyline fill="none" stroke="black" points="706.5,-350.5 879.5,-350.5 "/>
<text text-anchor="middle" x="793" y="-338.5" font-family="Helvetica,sans-Serif" font-size="10.00"> </text>
</a>
</g>
</g>
<!-- Node1&#45;&gt;Node9 -->
<g id="edge8" class="edge"><title>Node1&#45;&gt;Node9</title>
<path fill="none" stroke="midnightblue" d="M893.096,-511.952C864.386,-470.233 835.187,-427.803 815.794,-399.623"/>
<polygon fill="none" stroke="midnightblue" points="890.276,-514.028 898.828,-520.282 896.043,-510.06 890.276,-514.028"/>
</g>
<!-- Node10 -->
<g id="node10" class="node"><title>Node10</title>
<g id="a_node10"><a xlink:href="classmemoryoracle_1_1instance_1_1Primitive.html" target="_top" xlink:title="{memoryoracle.instance.Primitive\n|+ value\l+ value\l|+ val_string()\l&#45; _track()\l}">
<polygon fill="none" stroke="black" points="898,-326 898,-405 1072,-405 1072,-326 898,-326"/>
<text text-anchor="middle" x="985" y="-393" font-family="Helvetica,sans-Serif" font-size="10.00">memoryoracle.instance.Primitive</text>
<polyline fill="none" stroke="black" points="898,-386 1072,-386 "/>
<text text-anchor="start" x="906" y="-374" font-family="Helvetica,sans-Serif" font-size="10.00">+ value</text>
<text text-anchor="start" x="906" y="-363" font-family="Helvetica,sans-Serif" font-size="10.00">+ value</text>
<polyline fill="none" stroke="black" points="898,-356 1072,-356 "/>
<text text-anchor="start" x="906" y="-344" font-family="Helvetica,sans-Serif" font-size="10.00">+ val_string()</text>
<text text-anchor="start" x="906" y="-333" font-family="Helvetica,sans-Serif" font-size="10.00">&#45; _track()</text>
</a>
</g>
</g>
<!-- Node1&#45;&gt;Node10 -->
<g id="edge9" class="edge"><title>Node1&#45;&gt;Node10</title>
<path fill="none" stroke="midnightblue" d="M985,-458.959C985,-438.981 985,-420.46 985,-405.324"/>
<polygon fill="none" stroke="midnightblue" points="981.5,-459.201 985,-469.201 988.5,-459.201 981.5,-459.201"/>
</g>
<!-- Node15 -->
<g id="node15" class="node"><title>Node15</title>
<g id="a_node15"><a xlink:href="classmemoryoracle_1_1instance_1_1RegisterDecorator.html" target="_top" xlink:title="{memoryoracle.instance.Register\lDecorator\n||}">
<polygon fill="none" stroke="black" points="1090.5,-331.5 1090.5,-399.5 1261.5,-399.5 1261.5,-331.5 1090.5,-331.5"/>
<text text-anchor="start" x="1098.5" y="-387.5" font-family="Helvetica,sans-Serif" font-size="10.00">memoryoracle.instance.Register</text>
<text text-anchor="middle" x="1176" y="-376.5" font-family="Helvetica,sans-Serif" font-size="10.00">Decorator</text>
<polyline fill="none" stroke="black" points="1090.5,-369.5 1261.5,-369.5 "/>
<text text-anchor="middle" x="1176" y="-357.5" font-family="Helvetica,sans-Serif" font-size="10.00"> </text>
<polyline fill="none" stroke="black" points="1090.5,-350.5 1261.5,-350.5 "/>
<text text-anchor="middle" x="1176" y="-338.5" font-family="Helvetica,sans-Serif" font-size="10.00"> </text>
</a>
</g>
</g>
<!-- Node1&#45;&gt;Node15 -->
<g id="edge14" class="edge"><title>Node1&#45;&gt;Node15</title>
<path fill="none" stroke="midnightblue" d="M1076.69,-511.559C1105.21,-469.912 1134.17,-427.603 1153.4,-399.512"/>
<polygon fill="none" stroke="midnightblue" points="1073.76,-509.646 1071,-519.875 1079.54,-513.601 1073.76,-509.646"/>
</g>
<!-- Node16 -->
<g id="node16" class="node"><title>Node16</title>
<g id="a_node16"><a xlink:href="classmemoryoracle_1_1instance_1_1StaticDecorator.html" target="_top" xlink:title="{memoryoracle.instance.Static\lDecorator\n||}">
<polygon fill="none" stroke="black" points="1279.5,-331.5 1279.5,-399.5 1440.5,-399.5 1440.5,-331.5 1279.5,-331.5"/>
<text text-anchor="start" x="1287.5" y="-387.5" font-family="Helvetica,sans-Serif" font-size="10.00">memoryoracle.instance.Static</text>
<text text-anchor="middle" x="1360" y="-376.5" font-family="Helvetica,sans-Serif" font-size="10.00">Decorator</text>
<polyline fill="none" stroke="black" points="1279.5,-369.5 1440.5,-369.5 "/>
<text text-anchor="middle" x="1360" y="-357.5" font-family="Helvetica,sans-Serif" font-size="10.00"> </text>
<polyline fill="none" stroke="black" points="1279.5,-350.5 1440.5,-350.5 "/>
<text text-anchor="middle" x="1360" y="-338.5" font-family="Helvetica,sans-Serif" font-size="10.00"> </text>
</a>
</g>
</g>
<!-- Node1&#45;&gt;Node16 -->
<g id="edge15" class="edge"><title>Node1&#45;&gt;Node16</title>
<path fill="none" stroke="midnightblue" d="M1079.19,-575.425C1154.81,-519.164 1257.6,-442.682 1315.53,-399.583"/>
<polygon fill="none" stroke="midnightblue" points="1076.97,-572.715 1071.03,-581.492 1081.14,-578.331 1076.97,-572.715"/>
</g>
<!-- Node17 -->
<g id="node17" class="node"><title>Node17</title>
<g id="a_node17"><a xlink:href="classmemoryoracle_1_1instance_1_1Structure.html" target="_top" xlink:title="{memoryoracle.instance.Structure\n|+ children\l+ children\l+ repository\l&#45; _typeHandlerCode\l&#45; _updateTracker\l&#45; _watchers\l|&#45; _track()\l}">
<polygon fill="none" stroke="black" points="1459,-309.5 1459,-421.5 1637,-421.5 1637,-309.5 1459,-309.5"/>
<text text-anchor="middle" x="1548" y="-409.5" font-family="Helvetica,sans-Serif" font-size="10.00">memoryoracle.instance.Structure</text>
<polyline fill="none" stroke="black" points="1459,-402.5 1637,-402.5 "/>
<text text-anchor="start" x="1467" y="-390.5" font-family="Helvetica,sans-Serif" font-size="10.00">+ children</text>
<text text-anchor="start" x="1467" y="-379.5" font-family="Helvetica,sans-Serif" font-size="10.00">+ children</text>
<text text-anchor="start" x="1467" y="-368.5" font-family="Helvetica,sans-Serif" font-size="10.00">+ repository</text>
<text text-anchor="start" x="1467" y="-357.5" font-family="Helvetica,sans-Serif" font-size="10.00">&#45; _typeHandlerCode</text>
<text text-anchor="start" x="1467" y="-346.5" font-family="Helvetica,sans-Serif" font-size="10.00">&#45; _updateTracker</text>
<text text-anchor="start" x="1467" y="-335.5" font-family="Helvetica,sans-Serif" font-size="10.00">&#45; _watchers</text>
<polyline fill="none" stroke="black" points="1459,-328.5 1637,-328.5 "/>
<text text-anchor="start" x="1467" y="-316.5" font-family="Helvetica,sans-Serif" font-size="10.00">&#45; _track()</text>
</a>
</g>
</g>
<!-- Node1&#45;&gt;Node17 -->
<g id="edge16" class="edge"><title>Node1&#45;&gt;Node17</title>
<path fill="none" stroke="midnightblue" d="M1080.63,-607.069C1176.03,-567.497 1325.74,-502.022 1449,-433 1455.41,-429.409 1461.95,-425.535 1468.46,-421.525"/>
<polygon fill="none" stroke="midnightblue" points="1079.19,-603.879 1071.29,-610.935 1081.86,-610.347 1079.19,-603.879"/>
</g>
<!-- Node18 -->
<g id="node18" class="node"><title>Node18</title>
<g id="a_node18"><a xlink:href="classmemoryoracle_1_1instance_1_1Void.html" target="_top" xlink:title="{memoryoracle.instance.Void\n||}">
<polygon fill="none" stroke="black" points="1655.5,-337 1655.5,-394 1808.5,-394 1808.5,-337 1655.5,-337"/>
<text text-anchor="middle" x="1732" y="-382" font-family="Helvetica,sans-Serif" font-size="10.00">memoryoracle.instance.Void</text>
<polyline fill="none" stroke="black" points="1655.5,-375 1808.5,-375 "/>
<text text-anchor="middle" x="1732" y="-363" font-family="Helvetica,sans-Serif" font-size="10.00"> </text>
<polyline fill="none" stroke="black" points="1655.5,-356 1808.5,-356 "/>
<text text-anchor="middle" x="1732" y="-344" font-family="Helvetica,sans-Serif" font-size="10.00"> </text>
</a>
</g>
</g>
<!-- Node1&#45;&gt;Node18 -->
<g id="edge17" class="edge"><title>Node1&#45;&gt;Node18</title>
<path fill="none" stroke="midnightblue" d="M1081.3,-625.623C1213.79,-595.855 1457.33,-532.339 1646,-433 1665.87,-422.536 1685.85,-407.431 1701.55,-394.261"/>
<polygon fill="none" stroke="midnightblue" points="1080.17,-622.289 1071.17,-627.881 1081.7,-629.121 1080.17,-622.289"/>
</g>
<!-- Node19 -->
<g id="node19" class="node"><title>Node19</title>
<g id="a_node19"><a xlink:href="classmemoryoracle_1_1instance_1_1VolatileDecorator.html" target="_top" xlink:title="{memoryoracle.instance.Volatile\lDecorator\n||}">
<polygon fill="none" stroke="black" points="1826.5,-331.5 1826.5,-399.5 1993.5,-399.5 1993.5,-331.5 1826.5,-331.5"/>
<text text-anchor="start" x="1834.5" y="-387.5" font-family="Helvetica,sans-Serif" font-size="10.00">memoryoracle.instance.Volatile</text>
<text text-anchor="middle" x="1910" y="-376.5" font-family="Helvetica,sans-Serif" font-size="10.00">Decorator</text>
<polyline fill="none" stroke="black" points="1826.5,-369.5 1993.5,-369.5 "/>
<text text-anchor="middle" x="1910" y="-357.5" font-family="Helvetica,sans-Serif" font-size="10.00"> </text>
<polyline fill="none" stroke="black" points="1826.5,-350.5 1993.5,-350.5 "/>
<text text-anchor="middle" x="1910" y="-338.5" font-family="Helvetica,sans-Serif" font-size="10.00"> </text>
</a>
</g>
</g>
<!-- Node1&#45;&gt;Node19 -->
<g id="edge18" class="edge"><title>Node1&#45;&gt;Node19</title>
<path fill="none" stroke="midnightblue" d="M1081.42,-632.727C1240.59,-609.086 1565.69,-549.905 1817,-433 1835.72,-424.293 1854.57,-411.686 1870.37,-399.784"/>
<polygon fill="none" stroke="midnightblue" points="1080.56,-629.315 1071.18,-634.233 1081.58,-636.241 1080.56,-629.315"/>
</g>
<!-- Node2 -->
<g id="node2" class="node"><title>Node2</title>
<g id="a_node2"><a xlink:href="classmemoryoracle_1_1typed_1_1Typed.html" target="_top" xlink:title="{memoryoracle.typed.Typed\n||+ type_code()\l+ gdb_type()\l+ object()\l}">
<polygon fill="none" stroke="black" points="912,-860.5 912,-939.5 1058,-939.5 1058,-860.5 912,-860.5"/>
<text text-anchor="middle" x="985" y="-927.5" font-family="Helvetica,sans-Serif" font-size="10.00">memoryoracle.typed.Typed</text>
<polyline fill="none" stroke="black" points="912,-920.5 1058,-920.5 "/>
<text text-anchor="middle" x="985" y="-908.5" font-family="Helvetica,sans-Serif" font-size="10.00"> </text>
<polyline fill="none" stroke="black" points="912,-901.5 1058,-901.5 "/>
<text text-anchor="start" x="920" y="-889.5" font-family="Helvetica,sans-Serif" font-size="10.00">+ type_code()</text>
<text text-anchor="start" x="920" y="-878.5" font-family="Helvetica,sans-Serif" font-size="10.00">+ gdb_type()</text>
<text text-anchor="start" x="920" y="-867.5" font-family="Helvetica,sans-Serif" font-size="10.00">+ object()</text>
</a>
</g>
</g>
<!-- Node2&#45;&gt;Node1 -->
<g id="edge1" class="edge"><title>Node2&#45;&gt;Node1</title>
<path fill="none" stroke="midnightblue" d="M985,-850.196C985,-841.935 985,-832.955 985,-823.522"/>
<polygon fill="none" stroke="midnightblue" points="981.5,-850.254 985,-860.254 988.5,-850.254 981.5,-850.254"/>
</g>
<!-- Node3 -->
<g id="node3" class="node"><title>Node3</title>
<g id="a_node3"><a xlink:href="classmemoryoracle_1_1tracked_1_1Tracked.html" target="_top" xlink:title="{memoryoracle.tracked.Tracked\n|+ meta\l|+ track()\l+ description()\l}">
<polygon fill="none" stroke="black" points="903,-976.5 903,-1044.5 1067,-1044.5 1067,-976.5 903,-976.5"/>
<text text-anchor="middle" x="985" y="-1032.5" font-family="Helvetica,sans-Serif" font-size="10.00">memoryoracle.tracked.Tracked</text>
<polyline fill="none" stroke="black" points="903,-1025.5 1067,-1025.5 "/>
<text text-anchor="start" x="911" y="-1013.5" font-family="Helvetica,sans-Serif" font-size="10.00">+ meta</text>
<polyline fill="none" stroke="black" points="903,-1006.5 1067,-1006.5 "/>
<text text-anchor="start" x="911" y="-994.5" font-family="Helvetica,sans-Serif" font-size="10.00">+ track()</text>
<text text-anchor="start" x="911" y="-983.5" font-family="Helvetica,sans-Serif" font-size="10.00">+ description()</text>
</a>
</g>
</g>
<!-- Node3&#45;&gt;Node2 -->
<g id="edge2" class="edge"><title>Node3&#45;&gt;Node2</title>
<path fill="none" stroke="midnightblue" d="M985,-966.274C985,-957.476 985,-948.275 985,-939.649"/>
<polygon fill="none" stroke="midnightblue" points="981.5,-966.357 985,-976.357 988.5,-966.357 981.5,-966.357"/>
</g>
<!-- Node4 -->
<g id="node4" class="node"><title>Node4</title>
<polygon fill="none" stroke="#bfbfbf" points="951.5,-1081.5 951.5,-1138.5 1018.5,-1138.5 1018.5,-1081.5 951.5,-1081.5"/>
<text text-anchor="middle" x="985" y="-1126.5" font-family="Helvetica,sans-Serif" font-size="10.00">Document</text>
<polyline fill="none" stroke="#bfbfbf" points="951.5,-1119.5 1018.5,-1119.5 "/>
<text text-anchor="middle" x="985" y="-1107.5" font-family="Helvetica,sans-Serif" font-size="10.00"> </text>
<polyline fill="none" stroke="#bfbfbf" points="951.5,-1100.5 1018.5,-1100.5 "/>
<text text-anchor="middle" x="985" y="-1088.5" font-family="Helvetica,sans-Serif" font-size="10.00"> </text>
</g>
<!-- Node4&#45;&gt;Node3 -->
<g id="edge3" class="edge"><title>Node4&#45;&gt;Node3</title>
<path fill="none" stroke="midnightblue" d="M985,-1071.06C985,-1062.39 985,-1053.24 985,-1044.79"/>
<polygon fill="none" stroke="midnightblue" points="981.5,-1071.32 985,-1081.32 988.5,-1071.32 981.5,-1071.32"/>
</g>
<!-- Node11 -->
<g id="node11" class="node"><title>Node11</title>
<g id="a_node11"><a xlink:href="classmemoryoracle_1_1instance_1_1Float.html" target="_top" xlink:title="{memoryoracle.instance.Float\n|+ repository\l&#45; _updateTracker\l&#45; _watchers\l&#45; _typeHandlerCode\l|}">
<polygon fill="none" stroke="black" points="738,-138.5 738,-228.5 894,-228.5 894,-138.5 738,-138.5"/>
<text text-anchor="middle" x="816" y="-216.5" font-family="Helvetica,sans-Serif" font-size="10.00">memoryoracle.instance.Float</text>
<polyline fill="none" stroke="black" points="738,-209.5 894,-209.5 "/>
<text text-anchor="start" x="746" y="-197.5" font-family="Helvetica,sans-Serif" font-size="10.00">+ repository</text>
<text text-anchor="start" x="746" y="-186.5" font-family="Helvetica,sans-Serif" font-size="10.00">&#45; _updateTracker</text>
<text text-anchor="start" x="746" y="-175.5" font-family="Helvetica,sans-Serif" font-size="10.00">&#45; _watchers</text>
<text text-anchor="start" x="746" y="-164.5" font-family="Helvetica,sans-Serif" font-size="10.00">&#45; _typeHandlerCode</text>
<polyline fill="none" stroke="black" points="738,-157.5 894,-157.5 "/>
<text text-anchor="middle" x="816" y="-145.5" font-family="Helvetica,sans-Serif" font-size="10.00"> </text>
</a>
</g>
</g>
<!-- Node10&#45;&gt;Node11 -->
<g id="edge10" class="edge"><title>Node10&#45;&gt;Node11</title>
<path fill="none" stroke="midnightblue" d="M941.64,-318.318C915.769,-290.763 883.092,-255.959 857.548,-228.753"/>
<polygon fill="none" stroke="midnightblue" points="939.349,-320.991 948.745,-325.885 944.452,-316.199 939.349,-320.991"/>
</g>
<!-- Node12 -->
<g id="node12" class="node"><title>Node12</title>
<g id="a_node12"><a xlink:href="classmemoryoracle_1_1instance_1_1Int.html" target="_top" xlink:title="{memoryoracle.instance.Int\n|+ value\l+ type\l+ repository\l&#45; _updateTracker\l&#45; _watchers\l&#45; _arrayFinder\l&#45; _pointerFinder\l&#45; _spaceFixer\l&#45; _typeHandlerCode\l|&#45; _find_hidden_type()\l&#45; _track()\l}">
<polygon fill="none" stroke="black" points="912.5,-105.5 912.5,-261.5 1057.5,-261.5 1057.5,-105.5 912.5,-105.5"/>
<text text-anchor="middle" x="985" y="-249.5" font-family="Helvetica,sans-Serif" font-size="10.00">memoryoracle.instance.Int</text>
<polyline fill="none" stroke="black" points="912.5,-242.5 1057.5,-242.5 "/>
<text text-anchor="start" x="920.5" y="-230.5" font-family="Helvetica,sans-Serif" font-size="10.00">+ value</text>
<text text-anchor="start" x="920.5" y="-219.5" font-family="Helvetica,sans-Serif" font-size="10.00">+ type</text>
<text text-anchor="start" x="920.5" y="-208.5" font-family="Helvetica,sans-Serif" font-size="10.00">+ repository</text>
<text text-anchor="start" x="920.5" y="-197.5" font-family="Helvetica,sans-Serif" font-size="10.00">&#45; _updateTracker</text>
<text text-anchor="start" x="920.5" y="-186.5" font-family="Helvetica,sans-Serif" font-size="10.00">&#45; _watchers</text>
<text text-anchor="start" x="920.5" y="-175.5" font-family="Helvetica,sans-Serif" font-size="10.00">&#45; _arrayFinder</text>
<text text-anchor="start" x="920.5" y="-164.5" font-family="Helvetica,sans-Serif" font-size="10.00">&#45; _pointerFinder</text>
<text text-anchor="start" x="920.5" y="-153.5" font-family="Helvetica,sans-Serif" font-size="10.00">&#45; _spaceFixer</text>
<text text-anchor="start" x="920.5" y="-142.5" font-family="Helvetica,sans-Serif" font-size="10.00">&#45; _typeHandlerCode</text>
<polyline fill="none" stroke="black" points="912.5,-135.5 1057.5,-135.5 "/>
<text text-anchor="start" x="920.5" y="-123.5" font-family="Helvetica,sans-Serif" font-size="10.00">&#45; _find_hidden_type()</text>
<text text-anchor="start" x="920.5" y="-112.5" font-family="Helvetica,sans-Serif" font-size="10.00">&#45; _track()</text>
</a>
</g>
</g>
<!-- Node10&#45;&gt;Node12 -->
<g id="edge11" class="edge"><title>Node10&#45;&gt;Node12</title>
<path fill="none" stroke="midnightblue" d="M985,-315.821C985,-299.107 985,-279.965 985,-261.56"/>
<polygon fill="none" stroke="midnightblue" points="981.5,-315.885 985,-325.885 988.5,-315.886 981.5,-315.885"/>
</g>
<!-- Node13 -->
<g id="node13" class="node"><title>Node13</title>
<g id="a_node13"><a xlink:href="classmemoryoracle_1_1instance_1_1Pointer.html" target="_top" xlink:title="{memoryoracle.instance.Pointer\n|+ repository\l&#45; _updateTracker\l&#45; _watchers\l&#45; _typeHandlerCode\l|&#45; _track()\l}">
<polygon fill="none" stroke="black" points="1075.5,-138.5 1075.5,-228.5 1242.5,-228.5 1242.5,-138.5 1075.5,-138.5"/>
<text text-anchor="middle" x="1159" y="-216.5" font-family="Helvetica,sans-Serif" font-size="10.00">memoryoracle.instance.Pointer</text>
<polyline fill="none" stroke="black" points="1075.5,-209.5 1242.5,-209.5 "/>
<text text-anchor="start" x="1083.5" y="-197.5" font-family="Helvetica,sans-Serif" font-size="10.00">+ repository</text>
<text text-anchor="start" x="1083.5" y="-186.5" font-family="Helvetica,sans-Serif" font-size="10.00">&#45; _updateTracker</text>
<text text-anchor="start" x="1083.5" y="-175.5" font-family="Helvetica,sans-Serif" font-size="10.00">&#45; _watchers</text>
<text text-anchor="start" x="1083.5" y="-164.5" font-family="Helvetica,sans-Serif" font-size="10.00">&#45; _typeHandlerCode</text>
<polyline fill="none" stroke="black" points="1075.5,-157.5 1242.5,-157.5 "/>
<text text-anchor="start" x="1083.5" y="-145.5" font-family="Helvetica,sans-Serif" font-size="10.00">&#45; _track()</text>
</a>
</g>
</g>
<!-- Node10&#45;&gt;Node13 -->
<g id="edge12" class="edge"><title>Node10&#45;&gt;Node13</title>
<path fill="none" stroke="midnightblue" d="M1029.3,-318.671C1055.99,-291.061 1089.81,-256.075 1116.22,-228.753"/>
<polygon fill="none" stroke="midnightblue" points="1026.76,-316.263 1022.33,-325.885 1031.79,-321.128 1026.76,-316.263"/>
</g>
<!-- Node14 -->
<g id="node14" class="node"><title>Node14</title>
<g id="a_node14"><a xlink:href="classmemoryoracle_1_1instance_1_1CharString.html" target="_top" xlink:title="{memoryoracle.instance.Char\lString\n||}">
<polygon fill="none" stroke="black" points="1081.5,-0.5 1081.5,-68.5 1236.5,-68.5 1236.5,-0.5 1081.5,-0.5"/>
<text text-anchor="start" x="1089.5" y="-56.5" font-family="Helvetica,sans-Serif" font-size="10.00">memoryoracle.instance.Char</text>
<text text-anchor="middle" x="1159" y="-45.5" font-family="Helvetica,sans-Serif" font-size="10.00">String</text>
<polyline fill="none" stroke="black" points="1081.5,-38.5 1236.5,-38.5 "/>
<text text-anchor="middle" x="1159" y="-26.5" font-family="Helvetica,sans-Serif" font-size="10.00"> </text>
<polyline fill="none" stroke="black" points="1081.5,-19.5 1236.5,-19.5 "/>
<text text-anchor="middle" x="1159" y="-7.5" font-family="Helvetica,sans-Serif" font-size="10.00"> </text>
</a>
</g>
</g>
<!-- Node13&#45;&gt;Node14 -->
<g id="edge13" class="edge"><title>Node13&#45;&gt;Node14</title>
<path fill="none" stroke="midnightblue" d="M1159,-128.201C1159,-108.288 1159,-86.3538 1159,-68.8221"/>
<polygon fill="none" stroke="midnightblue" points="1155.5,-128.395 1159,-138.395 1162.5,-128.395 1155.5,-128.395"/>
</g>
</g>
</svg>
