<?xml version="1.0" encoding="UTF-8" standalone="no"?>
<!DOCTYPE svg PUBLIC "-//W3C//DTD SVG 1.1//EN"
 "http://www.w3.org/Graphics/SVG/1.1/DTD/svg11.dtd">
<!-- Generated by graphviz version 2.38.0 (20140413.2041)
 -->
<!-- Title: memoryoracle.templatable.Typedef Pages: 1 -->
<svg width="340pt" height="436pt"
 viewBox="0.00 0.00 340.00 436.00" xmlns="http://www.w3.org/2000/svg" xmlns:xlink="http://www.w3.org/1999/xlink">
<g id="graph0" class="graph" transform="scale(1 1) rotate(0) translate(4 432)">
<title>memoryoracle.templatable.Typedef</title>
<!-- Node1 -->
<g id="node1" class="node"><title>Node1</title>
<polygon fill="#bfbfbf" stroke="black" points="88,-0.5 88,-68.5 238,-68.5 238,-0.5 88,-0.5"/>
<text text-anchor="start" x="96" y="-56.5" font-family="Helvetica,sans-Serif" font-size="10.00">memoryoracle.templatable.</text>
<text text-anchor="middle" x="163" y="-45.5" font-family="Helvetica,sans-Serif" font-size="10.00">Typedef</text>
<polyline fill="none" stroke="black" points="88,-38.5 238,-38.5 "/>
<text text-anchor="middle" x="163" y="-26.5" font-family="Helvetica,sans-Serif" font-size="10.00"> </text>
<polyline fill="none" stroke="black" points="88,-19.5 238,-19.5 "/>
<text text-anchor="middle" x="163" y="-7.5" font-family="Helvetica,sans-Serif" font-size="10.00"> </text>
</g>
<!-- Node2 -->
<g id="node2" class="node"><title>Node2</title>
<g id="a_node2"><a xlink:href="classmemoryoracle_1_1templatable_1_1Alias.html" target="_top" xlink:title="{memoryoracle.templatable.\lAlias\n||}">
<polygon fill="none" stroke="black" points="4,-133 4,-201 154,-201 154,-133 4,-133"/>
<text text-anchor="start" x="12" y="-189" font-family="Helvetica,sans-Serif" font-size="10.00">memoryoracle.templatable.</text>
<text text-anchor="middle" x="79" y="-178" font-family="Helvetica,sans-Serif" font-size="10.00">Alias</text>
<polyline fill="none" stroke="black" points="4,-171 154,-171 "/>
<text text-anchor="middle" x="79" y="-159" font-family="Helvetica,sans-Serif" font-size="10.00"> </text>
<polyline fill="none" stroke="black" points="4,-152 154,-152 "/>
<text text-anchor="middle" x="79" y="-140" font-family="Helvetica,sans-Serif" font-size="10.00"> </text>
</a>
</g>
</g>
<!-- Node2&#45;&gt;Node1 -->
<g id="edge1" class="edge"><title>Node2&#45;&gt;Node1</title>
<path fill="none" stroke="midnightblue" d="M105.923,-124.173C117.47,-106.234 130.77,-85.5714 141.625,-68.7076"/>
<polygon fill="none" stroke="midnightblue" points="102.884,-122.429 100.414,-132.732 108.77,-126.217 102.884,-122.429"/>
</g>
<!-- Node3 -->
<g id="node3" class="node"><title>Node3</title>
<g id="a_node3"><a xlink:href="classmemoryoracle_1_1templatable_1_1Templatable.html" target="_top" xlink:title="{memoryoracle.templatable.\lTemplatable\n||}">
<polygon fill="none" stroke="black" points="0,-265.5 0,-333.5 150,-333.5 150,-265.5 0,-265.5"/>
<text text-anchor="start" x="8" y="-321.5" font-family="Helvetica,sans-Serif" font-size="10.00">memoryoracle.templatable.</text>
<text text-anchor="middle" x="75" y="-310.5" font-family="Helvetica,sans-Serif" font-size="10.00">Templatable</text>
<polyline fill="none" stroke="black" points="0,-303.5 150,-303.5 "/>
<text text-anchor="middle" x="75" y="-291.5" font-family="Helvetica,sans-Serif" font-size="10.00"> </text>
<polyline fill="none" stroke="black" points="0,-284.5 150,-284.5 "/>
<text text-anchor="middle" x="75" y="-272.5" font-family="Helvetica,sans-Serif" font-size="10.00"> </text>
</a>
</g>
</g>
<!-- Node3&#45;&gt;Node2 -->
<g id="edge2" class="edge"><title>Node3&#45;&gt;Node2</title>
<path fill="none" stroke="midnightblue" d="M76.3272,-255.199C76.8664,-237.61 77.4793,-217.612 77.9821,-201.208"/>
<polygon fill="none" stroke="midnightblue" points="72.8278,-255.129 76.0197,-265.232 79.8245,-255.344 72.8278,-255.129"/>
</g>
<!-- Node4 -->
<g id="node4" class="node"><title>Node4</title>
<polygon fill="none" stroke="#bfbfbf" points="27.5,-370.5 27.5,-427.5 122.5,-427.5 122.5,-370.5 27.5,-370.5"/>
<text text-anchor="middle" x="75" y="-415.5" font-family="Helvetica,sans-Serif" font-size="10.00">tracked::Symbol</text>
<polyline fill="none" stroke="#bfbfbf" points="27.5,-408.5 122.5,-408.5 "/>
<text text-anchor="middle" x="75" y="-396.5" font-family="Helvetica,sans-Serif" font-size="10.00"> </text>
<polyline fill="none" stroke="#bfbfbf" points="27.5,-389.5 122.5,-389.5 "/>
<text text-anchor="middle" x="75" y="-377.5" font-family="Helvetica,sans-Serif" font-size="10.00"> </text>
</g>
<!-- Node4&#45;&gt;Node3 -->
<g id="edge3" class="edge"><title>Node4&#45;&gt;Node3</title>
<path fill="none" stroke="midnightblue" d="M75,-360.063C75,-351.393 75,-342.243 75,-333.786"/>
<polygon fill="none" stroke="midnightblue" points="71.5001,-360.321 75,-370.321 78.5001,-360.321 71.5001,-360.321"/>
</g>
<!-- Node5 -->
<g id="node5" class="node"><title>Node5</title>
<g id="a_node5"><a xlink:href="classmemoryoracle_1_1typed_1_1Typed.html" target="_top" xlink:title="{memoryoracle.typed.Typed\n|+ lookup\l&#45; _type\l&#45; _typeCodeMap\l&#45; _typeHandlerCode\l|+ type()\l+ type_code()\l+ gdb_type()\l+ type_handler()\l}">
<polygon fill="none" stroke="black" points="174,-105.5 174,-228.5 320,-228.5 320,-105.5 174,-105.5"/>
<text text-anchor="middle" x="247" y="-216.5" font-family="Helvetica,sans-Serif" font-size="10.00">memoryoracle.typed.Typed</text>
<polyline fill="none" stroke="black" points="174,-209.5 320,-209.5 "/>
<text text-anchor="start" x="182" y="-197.5" font-family="Helvetica,sans-Serif" font-size="10.00">+ lookup</text>
<text text-anchor="start" x="182" y="-186.5" font-family="Helvetica,sans-Serif" font-size="10.00">&#45; _type</text>
<text text-anchor="start" x="182" y="-175.5" font-family="Helvetica,sans-Serif" font-size="10.00">&#45; _typeCodeMap</text>
<text text-anchor="start" x="182" y="-164.5" font-family="Helvetica,sans-Serif" font-size="10.00">&#45; _typeHandlerCode</text>
<polyline fill="none" stroke="black" points="174,-157.5 320,-157.5 "/>
<text text-anchor="start" x="182" y="-145.5" font-family="Helvetica,sans-Serif" font-size="10.00">+ type()</text>
<text text-anchor="start" x="182" y="-134.5" font-family="Helvetica,sans-Serif" font-size="10.00">+ type_code()</text>
<text text-anchor="start" x="182" y="-123.5" font-family="Helvetica,sans-Serif" font-size="10.00">+ gdb_type()</text>
<text text-anchor="start" x="182" y="-112.5" font-family="Helvetica,sans-Serif" font-size="10.00">+ type_handler()</text>
</a>
</g>
</g>
<!-- Node5&#45;&gt;Node1 -->
<g id="edge4" class="edge"><title>Node5&#45;&gt;Node1</title>
<path fill="none" stroke="midnightblue" d="M202.41,-96.7255C196.11,-86.9392 189.889,-77.2741 184.316,-68.6152"/>
<polygon fill="none" stroke="midnightblue" points="199.595,-98.8202 207.951,-105.335 205.481,-95.0315 199.595,-98.8202"/>
</g>
<!-- Node6 -->
<g id="node6" class="node"><title>Node6</title>
<g id="a_node6"><a xlink:href="classmemoryoracle_1_1tracked_1_1Tracked.html" target="_top" xlink:title="{memoryoracle.tracked.Tracked\n||}">
<polygon fill="none" stroke="black" points="168,-271 168,-328 332,-328 332,-271 168,-271"/>
<text text-anchor="middle" x="250" y="-316" font-family="Helvetica,sans-Serif" font-size="10.00">memoryoracle.tracked.Tracked</text>
<polyline fill="none" stroke="black" points="168,-309 332,-309 "/>
<text text-anchor="middle" x="250" y="-297" font-family="Helvetica,sans-Serif" font-size="10.00"> </text>
<polyline fill="none" stroke="black" points="168,-290 332,-290 "/>
<text text-anchor="middle" x="250" y="-278" font-family="Helvetica,sans-Serif" font-size="10.00"> </text>
</a>
</g>
</g>
<!-- Node6&#45;&gt;Node5 -->
<g id="edge5" class="edge"><title>Node6&#45;&gt;Node5</title>
<path fill="none" stroke="midnightblue" d="M249.133,-260.785C248.902,-250.731 248.646,-239.609 248.394,-228.66"/>
<polygon fill="none" stroke="midnightblue" points="245.635,-260.907 249.364,-270.824 252.633,-260.746 245.635,-260.907"/>
</g>
<!-- Node7 -->
<g id="node7" class="node"><title>Node7</title>
<polygon fill="none" stroke="#bfbfbf" points="227,-370.5 227,-427.5 273,-427.5 273,-370.5 227,-370.5"/>
<text text-anchor="middle" x="250" y="-415.5" font-family="Helvetica,sans-Serif" font-size="10.00">object</text>
<polyline fill="none" stroke="#bfbfbf" points="227,-408.5 273,-408.5 "/>
<text text-anchor="middle" x="250" y="-396.5" font-family="Helvetica,sans-Serif" font-size="10.00"> </text>
<polyline fill="none" stroke="#bfbfbf" points="227,-389.5 273,-389.5 "/>
<text text-anchor="middle" x="250" y="-377.5" font-family="Helvetica,sans-Serif" font-size="10.00"> </text>
</g>
<!-- Node7&#45;&gt;Node6 -->
<g id="edge6" class="edge"><title>Node7&#45;&gt;Node6</title>
<path fill="none" stroke="midnightblue" d="M250,-360.043C250,-349.447 250,-338.135 250,-328.248"/>
<polygon fill="none" stroke="midnightblue" points="246.5,-360.321 250,-370.321 253.5,-360.321 246.5,-360.321"/>
</g>
</g>
</svg>
