<?xml version="1.0" encoding="UTF-8" standalone="no"?>
<!DOCTYPE svg PUBLIC "-//W3C//DTD SVG 1.1//EN"
 "http://www.w3.org/Graphics/SVG/1.1/DTD/svg11.dtd">
<!-- Generated by graphviz version 2.38.0 (20140413.2041)
 -->
<!-- Title: memoryoracle.models.Typed Pages: 1 -->
<svg width="358pt" height="579pt"
 viewBox="0.00 0.00 357.50 579.00" xmlns="http://www.w3.org/2000/svg" xmlns:xlink="http://www.w3.org/1999/xlink">
<g id="graph0" class="graph" transform="scale(1 1) rotate(0) translate(4 575)">
<title>memoryoracle.models.Typed</title>
<!-- Node1 -->
<g id="node1" class="node"><title>Node1</title>
<polygon fill="#bfbfbf" stroke="black" points="98,-193.5 98,-382.5 253,-382.5 253,-193.5 98,-193.5"/>
<text text-anchor="middle" x="175.5" y="-370.5" font-family="Helvetica,sans-Serif" font-size="10.00">memoryoracle.models.Typed</text>
<polyline fill="none" stroke="black" points="98,-363.5 253,-363.5 "/>
<text text-anchor="start" x="106" y="-351.5" font-family="Helvetica,sans-Serif" font-size="10.00">+ args</text>
<text text-anchor="start" x="106" y="-340.5" font-family="Helvetica,sans-Serif" font-size="10.00">+ debugee_data</text>
<text text-anchor="start" x="106" y="-329.5" font-family="Helvetica,sans-Serif" font-size="10.00">+ id_execution</text>
<text text-anchor="start" x="106" y="-318.5" font-family="Helvetica,sans-Serif" font-size="10.00">+ type</text>
<text text-anchor="start" x="106" y="-307.5" font-family="Helvetica,sans-Serif" font-size="10.00">+ description</text>
<text text-anchor="start" x="106" y="-296.5" font-family="Helvetica,sans-Serif" font-size="10.00">+ data</text>
<text text-anchor="start" x="106" y="-285.5" font-family="Helvetica,sans-Serif" font-size="10.00">&#45; _updatedNames</text>
<text text-anchor="start" x="106" y="-274.5" font-family="Helvetica,sans-Serif" font-size="10.00">&#45; _typeHandlerCode</text>
<polyline fill="none" stroke="black" points="98,-267.5 253,-267.5 "/>
<text text-anchor="start" x="106" y="-255.5" font-family="Helvetica,sans-Serif" font-size="10.00">+ track()</text>
<text text-anchor="start" x="106" y="-244.5" font-family="Helvetica,sans-Serif" font-size="10.00">+ __init__()</text>
<text text-anchor="start" x="106" y="-233.5" font-family="Helvetica,sans-Serif" font-size="10.00">+ type_code()</text>
<text text-anchor="start" x="106" y="-222.5" font-family="Helvetica,sans-Serif" font-size="10.00">+ gdb_type()</text>
<text text-anchor="start" x="106" y="-211.5" font-family="Helvetica,sans-Serif" font-size="10.00">+ type_handler()</text>
<text text-anchor="start" x="106" y="-200.5" font-family="Helvetica,sans-Serif" font-size="10.00">&#45; _basic_track()</text>
</g>
<!-- Node4 -->
<g id="node4" class="node"><title>Node4</title>
<g id="a_node4"><a xlink:href="classmemoryoracle_1_1models_1_1Memory.html" target="_top" xlink:title="{memoryoracle.models.Memory\n|+ address\l+ has_symbol\l+ parent\l&#45; _updateTracker\l&#45; _watchers\l&#45; _addressFixer\l|+ update()\l+ watchers()\l+ __init__()\l&#45; _clear_updated()\l&#45; _compute_index()\l}">
<polygon fill="none" stroke="black" points="0,-0.5 0,-156.5 167,-156.5 167,-0.5 0,-0.5"/>
<text text-anchor="middle" x="83.5" y="-144.5" font-family="Helvetica,sans-Serif" font-size="10.00">memoryoracle.models.Memory</text>
<polyline fill="none" stroke="black" points="0,-137.5 167,-137.5 "/>
<text text-anchor="start" x="8" y="-125.5" font-family="Helvetica,sans-Serif" font-size="10.00">+ address</text>
<text text-anchor="start" x="8" y="-114.5" font-family="Helvetica,sans-Serif" font-size="10.00">+ has_symbol</text>
<text text-anchor="start" x="8" y="-103.5" font-family="Helvetica,sans-Serif" font-size="10.00">+ parent</text>
<text text-anchor="start" x="8" y="-92.5" font-family="Helvetica,sans-Serif" font-size="10.00">&#45; _updateTracker</text>
<text text-anchor="start" x="8" y="-81.5" font-family="Helvetica,sans-Serif" font-size="10.00">&#45; _watchers</text>
<text text-anchor="start" x="8" y="-70.5" font-family="Helvetica,sans-Serif" font-size="10.00">&#45; _addressFixer</text>
<polyline fill="none" stroke="black" points="0,-63.5 167,-63.5 "/>
<text text-anchor="start" x="8" y="-51.5" font-family="Helvetica,sans-Serif" font-size="10.00">+ update()</text>
<text text-anchor="start" x="8" y="-40.5" font-family="Helvetica,sans-Serif" font-size="10.00">+ watchers()</text>
<text text-anchor="start" x="8" y="-29.5" font-family="Helvetica,sans-Serif" font-size="10.00">+ __init__()</text>
<text text-anchor="start" x="8" y="-18.5" font-family="Helvetica,sans-Serif" font-size="10.00">&#45; _clear_updated()</text>
<text text-anchor="start" x="8" y="-7.5" font-family="Helvetica,sans-Serif" font-size="10.00">&#45; _compute_index()</text>
</a>
</g>
</g>
<!-- Node1&#45;&gt;Node4 -->
<g id="edge3" class="edge"><title>Node1&#45;&gt;Node4</title>
<path fill="none" stroke="midnightblue" d="M129.859,-184.059C125.771,-174.839 121.679,-165.609 117.712,-156.663"/>
<polygon fill="none" stroke="midnightblue" points="126.688,-185.544 133.941,-193.267 133.087,-182.706 126.688,-185.544"/>
</g>
<!-- Node5 -->
<g id="node5" class="node"><title>Node5</title>
<g id="a_node5"><a xlink:href="classmemoryoracle_1_1models_1_1Symbol.html" target="_top" xlink:title="{memoryoracle.models.Symbol\n||}">
<polygon fill="none" stroke="black" points="185.5,-50 185.5,-107 349.5,-107 349.5,-50 185.5,-50"/>
<text text-anchor="middle" x="267.5" y="-95" font-family="Helvetica,sans-Serif" font-size="10.00">memoryoracle.models.Symbol</text>
<polyline fill="none" stroke="black" points="185.5,-88 349.5,-88 "/>
<text text-anchor="middle" x="267.5" y="-76" font-family="Helvetica,sans-Serif" font-size="10.00"> </text>
<polyline fill="none" stroke="black" points="185.5,-69 349.5,-69 "/>
<text text-anchor="middle" x="267.5" y="-57" font-family="Helvetica,sans-Serif" font-size="10.00"> </text>
</a>
</g>
</g>
<!-- Node1&#45;&gt;Node5 -->
<g id="edge4" class="edge"><title>Node1&#45;&gt;Node5</title>
<path fill="none" stroke="midnightblue" d="M221.143,-184.054C233.742,-155.639 246.377,-127.143 255.266,-107.093"/>
<polygon fill="none" stroke="midnightblue" points="217.913,-182.706 217.059,-193.267 224.312,-185.544 217.913,-182.706"/>
</g>
<!-- Node2 -->
<g id="node2" class="node"><title>Node2</title>
<g id="a_node2"><a xlink:href="classmemoryoracle_1_1models_1_1Tracked.html" target="_top" xlink:title="{memoryoracle.models.Tracked\n|+ name\l|}">
<polygon fill="none" stroke="black" points="93.5,-419.5 93.5,-476.5 257.5,-476.5 257.5,-419.5 93.5,-419.5"/>
<text text-anchor="middle" x="175.5" y="-464.5" font-family="Helvetica,sans-Serif" font-size="10.00">memoryoracle.models.Tracked</text>
<polyline fill="none" stroke="black" points="93.5,-457.5 257.5,-457.5 "/>
<text text-anchor="start" x="101.5" y="-445.5" font-family="Helvetica,sans-Serif" font-size="10.00">+ name</text>
<polyline fill="none" stroke="black" points="93.5,-438.5 257.5,-438.5 "/>
<text text-anchor="middle" x="175.5" y="-426.5" font-family="Helvetica,sans-Serif" font-size="10.00"> </text>
</a>
</g>
</g>
<!-- Node2&#45;&gt;Node1 -->
<g id="edge1" class="edge"><title>Node2&#45;&gt;Node1</title>
<path fill="none" stroke="midnightblue" d="M175.5,-409.215C175.5,-401.012 175.5,-391.986 175.5,-382.678"/>
<polygon fill="none" stroke="midnightblue" points="172,-409.478 175.5,-419.479 179,-409.479 172,-409.478"/>
</g>
<!-- Node3 -->
<g id="node3" class="node"><title>Node3</title>
<polygon fill="none" stroke="#bfbfbf" points="132.5,-513.5 132.5,-570.5 218.5,-570.5 218.5,-513.5 132.5,-513.5"/>
<text text-anchor="middle" x="175.5" y="-558.5" font-family="Helvetica,sans-Serif" font-size="10.00">models::Model</text>
<polyline fill="none" stroke="#bfbfbf" points="132.5,-551.5 218.5,-551.5 "/>
<text text-anchor="middle" x="175.5" y="-539.5" font-family="Helvetica,sans-Serif" font-size="10.00"> </text>
<polyline fill="none" stroke="#bfbfbf" points="132.5,-532.5 218.5,-532.5 "/>
<text text-anchor="middle" x="175.5" y="-520.5" font-family="Helvetica,sans-Serif" font-size="10.00"> </text>
</g>
<!-- Node3&#45;&gt;Node2 -->
<g id="edge2" class="edge"><title>Node3&#45;&gt;Node2</title>
<path fill="none" stroke="midnightblue" d="M175.5,-503.209C175.5,-494.293 175.5,-484.951 175.5,-476.584"/>
<polygon fill="none" stroke="midnightblue" points="172,-503.397 175.5,-513.397 179,-503.397 172,-503.397"/>
</g>
</g>
</svg>
