<?xml version="1.0" encoding="UTF-8" standalone="no"?>
<!DOCTYPE svg PUBLIC "-//W3C//DTD SVG 1.1//EN"
 "http://www.w3.org/Graphics/SVG/1.1/DTD/svg11.dtd">
<!-- Generated by graphviz version 2.38.0 (20140413.2041)
 -->
<!-- Title: memoryoracle.symbol.TemplateDecorator Pages: 1 -->
<svg width="178pt" height="486pt"
 viewBox="0.00 0.00 178.00 486.00" xmlns="http://www.w3.org/2000/svg" xmlns:xlink="http://www.w3.org/1999/xlink">
<g id="graph0" class="graph" transform="scale(1 1) rotate(0) translate(4 482)">
<title>memoryoracle.symbol.TemplateDecorator</title>
<!-- Node1 -->
<g id="node1" class="node"><title>Node1</title>
<polygon fill="#bfbfbf" stroke="black" points="0,-0.5 0,-68.5 170,-68.5 170,-0.5 0,-0.5"/>
<text text-anchor="start" x="8" y="-56.5" font-family="Helvetica,sans-Serif" font-size="10.00">memoryoracle.symbol.Template</text>
<text text-anchor="middle" x="85" y="-45.5" font-family="Helvetica,sans-Serif" font-size="10.00">Decorator</text>
<polyline fill="none" stroke="black" points="0,-38.5 170,-38.5 "/>
<text text-anchor="middle" x="85" y="-26.5" font-family="Helvetica,sans-Serif" font-size="10.00"> </text>
<polyline fill="none" stroke="black" points="0,-19.5 170,-19.5 "/>
<text text-anchor="middle" x="85" y="-7.5" font-family="Helvetica,sans-Serif" font-size="10.00"> </text>
</g>
<!-- Node2 -->
<g id="node2" class="node"><title>Node2</title>
<g id="a_node2"><a xlink:href="classmemoryoracle_1_1symbol_1_1Symbol.html" target="_top" xlink:title="{memoryoracle.symbol.Symbol\n||}">
<polygon fill="none" stroke="black" points="3.5,-105.5 3.5,-162.5 166.5,-162.5 166.5,-105.5 3.5,-105.5"/>
<text text-anchor="middle" x="85" y="-150.5" font-family="Helvetica,sans-Serif" font-size="10.00">memoryoracle.symbol.Symbol</text>
<polyline fill="none" stroke="black" points="3.5,-143.5 166.5,-143.5 "/>
<text text-anchor="middle" x="85" y="-131.5" font-family="Helvetica,sans-Serif" font-size="10.00"> </text>
<polyline fill="none" stroke="black" points="3.5,-124.5 166.5,-124.5 "/>
<text text-anchor="middle" x="85" y="-112.5" font-family="Helvetica,sans-Serif" font-size="10.00"> </text>
</a>
</g>
</g>
<!-- Node2&#45;&gt;Node1 -->
<g id="edge1" class="edge"><title>Node2&#45;&gt;Node1</title>
<path fill="none" stroke="midnightblue" d="M85,-95.0631C85,-86.3933 85,-77.2431 85,-68.7855"/>
<polygon fill="none" stroke="midnightblue" points="81.5001,-95.3212 85,-105.321 88.5001,-95.3212 81.5001,-95.3212"/>
</g>
<!-- Node3 -->
<g id="node3" class="node"><title>Node3</title>
<g id="a_node3"><a xlink:href="classmemoryoracle_1_1typed_1_1Typed.html" target="_top" xlink:title="{memoryoracle.typed.Typed\n||+ type_code()\l+ gdb_type()\l+ object()\l}">
<polygon fill="none" stroke="black" points="12,-199.5 12,-278.5 158,-278.5 158,-199.5 12,-199.5"/>
<text text-anchor="middle" x="85" y="-266.5" font-family="Helvetica,sans-Serif" font-size="10.00">memoryoracle.typed.Typed</text>
<polyline fill="none" stroke="black" points="12,-259.5 158,-259.5 "/>
<text text-anchor="middle" x="85" y="-247.5" font-family="Helvetica,sans-Serif" font-size="10.00"> </text>
<polyline fill="none" stroke="black" points="12,-240.5 158,-240.5 "/>
<text text-anchor="start" x="20" y="-228.5" font-family="Helvetica,sans-Serif" font-size="10.00">+ type_code()</text>
<text text-anchor="start" x="20" y="-217.5" font-family="Helvetica,sans-Serif" font-size="10.00">+ gdb_type()</text>
<text text-anchor="start" x="20" y="-206.5" font-family="Helvetica,sans-Serif" font-size="10.00">+ object()</text>
</a>
</g>
</g>
<!-- Node3&#45;&gt;Node2 -->
<g id="edge2" class="edge"><title>Node3&#45;&gt;Node2</title>
<path fill="none" stroke="midnightblue" d="M85,-189.163C85,-180.04 85,-170.806 85,-162.61"/>
<polygon fill="none" stroke="midnightblue" points="81.5001,-189.354 85,-199.354 88.5001,-189.354 81.5001,-189.354"/>
</g>
<!-- Node4 -->
<g id="node4" class="node"><title>Node4</title>
<g id="a_node4"><a xlink:href="classmemoryoracle_1_1tracked_1_1Tracked.html" target="_top" xlink:title="{memoryoracle.tracked.Tracked\n|+ meta\l|+ track()\l+ description()\l}">
<polygon fill="none" stroke="black" points="3,-315.5 3,-383.5 167,-383.5 167,-315.5 3,-315.5"/>
<text text-anchor="middle" x="85" y="-371.5" font-family="Helvetica,sans-Serif" font-size="10.00">memoryoracle.tracked.Tracked</text>
<polyline fill="none" stroke="black" points="3,-364.5 167,-364.5 "/>
<text text-anchor="start" x="11" y="-352.5" font-family="Helvetica,sans-Serif" font-size="10.00">+ meta</text>
<polyline fill="none" stroke="black" points="3,-345.5 167,-345.5 "/>
<text text-anchor="start" x="11" y="-333.5" font-family="Helvetica,sans-Serif" font-size="10.00">+ track()</text>
<text text-anchor="start" x="11" y="-322.5" font-family="Helvetica,sans-Serif" font-size="10.00">+ description()</text>
</a>
</g>
</g>
<!-- Node4&#45;&gt;Node3 -->
<g id="edge3" class="edge"><title>Node4&#45;&gt;Node3</title>
<path fill="none" stroke="midnightblue" d="M85,-305.274C85,-296.476 85,-287.275 85,-278.649"/>
<polygon fill="none" stroke="midnightblue" points="81.5001,-305.357 85,-315.357 88.5001,-305.357 81.5001,-305.357"/>
</g>
<!-- Node5 -->
<g id="node5" class="node"><title>Node5</title>
<polygon fill="none" stroke="#bfbfbf" points="51.5,-420.5 51.5,-477.5 118.5,-477.5 118.5,-420.5 51.5,-420.5"/>
<text text-anchor="middle" x="85" y="-465.5" font-family="Helvetica,sans-Serif" font-size="10.00">Document</text>
<polyline fill="none" stroke="#bfbfbf" points="51.5,-458.5 118.5,-458.5 "/>
<text text-anchor="middle" x="85" y="-446.5" font-family="Helvetica,sans-Serif" font-size="10.00"> </text>
<polyline fill="none" stroke="#bfbfbf" points="51.5,-439.5 118.5,-439.5 "/>
<text text-anchor="middle" x="85" y="-427.5" font-family="Helvetica,sans-Serif" font-size="10.00"> </text>
</g>
<!-- Node5&#45;&gt;Node4 -->
<g id="edge4" class="edge"><title>Node5&#45;&gt;Node4</title>
<path fill="none" stroke="midnightblue" d="M85,-410.063C85,-401.393 85,-392.243 85,-383.786"/>
<polygon fill="none" stroke="midnightblue" points="81.5001,-410.321 85,-420.321 88.5001,-410.321 81.5001,-410.321"/>
</g>
</g>
</svg>
