<?xml version="1.0" encoding="UTF-8" standalone="no"?>
<!DOCTYPE svg PUBLIC "-//W3C//DTD SVG 1.1//EN"
 "http://www.w3.org/Graphics/SVG/1.1/DTD/svg11.dtd">
<!-- Generated by graphviz version 2.38.0 (20140413.2041)
 -->
<!-- Title: memoryoracle.descriptions.StandardDescriptionDecorator.name Pages: 1 -->
<svg width="900pt" height="166pt"
 viewBox="0.00 0.00 900.00 165.50" xmlns="http://www.w3.org/2000/svg" xmlns:xlink="http://www.w3.org/1999/xlink">
<g id="graph0" class="graph" transform="scale(1 1) rotate(0) translate(4 161.5)">
<title>memoryoracle.descriptions.StandardDescriptionDecorator.name</title>
<!-- Node1 -->
<g id="node1" class="node"><title>Node1</title>
<polygon fill="#bfbfbf" stroke="black" points="0,-63.5 0,-93.5 193,-93.5 193,-63.5 0,-63.5"/>
<text text-anchor="start" x="8" y="-81.5" font-family="Helvetica,sans-Serif" font-size="10.00">memoryoracle.descriptions.</text>
<text text-anchor="middle" x="96.5" y="-70.5" font-family="Helvetica,sans-Serif" font-size="10.00">StandardDescriptionDecorator.name</text>
</g>
<!-- Node2 -->
<g id="node2" class="node"><title>Node2</title>
<g id="a_node2"><a xlink:href="classmemoryoracle_1_1instance_1_1Structure.html#a200a54be462e0199b7833cbd11f81a52" target="_top" xlink:title="memoryoracle.instance.Structure.\l_track">
<polygon fill="none" stroke="black" points="229,-88.5 229,-118.5 410,-118.5 410,-88.5 229,-88.5"/>
<text text-anchor="start" x="237" y="-106.5" font-family="Helvetica,sans-Serif" font-size="10.00">memoryoracle.instance.Structure.</text>
<text text-anchor="middle" x="319.5" y="-95.5" font-family="Helvetica,sans-Serif" font-size="10.00">_track</text>
</a>
</g>
</g>
<!-- Node1&#45;&gt;Node2 -->
<g id="edge1" class="edge"><title>Node1&#45;&gt;Node2</title>
<path fill="none" stroke="midnightblue" d="M203.231,-90.4605C211.846,-91.4351 220.499,-92.414 228.982,-93.3735"/>
<polygon fill="midnightblue" stroke="midnightblue" points="203.479,-86.9663 193.148,-89.32 202.692,-93.9219 203.479,-86.9663"/>
</g>
<!-- Node9 -->
<g id="node9" class="node"><title>Node9</title>
<g id="a_node9"><a xlink:href="classmemoryoracle_1_1instance_1_1Array.html#a1d8c3993d8a52bfbec8240d6f79b3ce1" target="_top" xlink:title="memoryoracle.instance.Array.\l_track">
<polygon fill="none" stroke="black" points="239.5,-39.5 239.5,-69.5 399.5,-69.5 399.5,-39.5 239.5,-39.5"/>
<text text-anchor="start" x="247.5" y="-57.5" font-family="Helvetica,sans-Serif" font-size="10.00">memoryoracle.instance.Array.</text>
<text text-anchor="middle" x="319.5" y="-46.5" font-family="Helvetica,sans-Serif" font-size="10.00">_track</text>
</a>
</g>
</g>
<!-- Node1&#45;&gt;Node9 -->
<g id="edge11" class="edge"><title>Node1&#45;&gt;Node9</title>
<path fill="none" stroke="midnightblue" d="M203.297,-67.0107C215.415,-65.6947 227.609,-64.3705 239.294,-63.1015"/>
<polygon fill="midnightblue" stroke="midnightblue" points="202.712,-63.5536 193.148,-68.1128 203.468,-70.5127 202.712,-63.5536"/>
</g>
<!-- Node3 -->
<g id="node3" class="node"><title>Node3</title>
<g id="a_node3"><a xlink:href="classmemoryoracle_1_1instance_1_1Instance.html#a86649e01ee4f562debdba5421a334f78" target="_top" xlink:title="memoryoracle.instance.Instance.track">
<polygon fill="none" stroke="black" points="446,-91 446,-110 646,-110 646,-91 446,-91"/>
<text text-anchor="middle" x="546" y="-98" font-family="Helvetica,sans-Serif" font-size="10.00">memoryoracle.instance.Instance.track</text>
</a>
</g>
</g>
<!-- Node2&#45;&gt;Node3 -->
<g id="edge2" class="edge"><title>Node2&#45;&gt;Node3</title>
<path fill="none" stroke="midnightblue" d="M420.437,-102.165C428.881,-102.052 437.419,-101.938 445.857,-101.825"/>
<polygon fill="midnightblue" stroke="midnightblue" points="420.149,-98.668 410.196,-102.301 420.242,-105.667 420.149,-98.668"/>
</g>
<!-- Node8 -->
<g id="node8" class="node"><title>Node8</title>
<g id="a_node8"><a xlink:href="classmemoryoracle_1_1models_1_1Typed.html#aa1d5d8d5b7ebe5c2876f363e7eb669db" target="_top" xlink:title="memoryoracle.models.Typed.track">
<polygon fill="none" stroke="black" points="455,-50 455,-69 637,-69 637,-50 455,-50"/>
<text text-anchor="middle" x="546" y="-57" font-family="Helvetica,sans-Serif" font-size="10.00">memoryoracle.models.Typed.track</text>
</a>
</g>
</g>
<!-- Node2&#45;&gt;Node8 -->
<g id="edge7" class="edge"><title>Node2&#45;&gt;Node8</title>
<path fill="none" stroke="midnightblue" d="M407.283,-86.4912C437.552,-80.5589 470.428,-74.1155 496.465,-69.0124"/>
<polygon fill="midnightblue" stroke="midnightblue" points="406.272,-83.1227 397.132,-88.4808 407.619,-89.992 406.272,-83.1227"/>
</g>
<!-- Node4 -->
<g id="node4" class="node"><title>Node4</title>
<g id="a_node4"><a xlink:href="classmemoryoracle_1_1instance_1_1Instance.html#a286e015a030541a0704994172024f034" target="_top" xlink:title="memoryoracle.instance.Instance.update">
<polygon fill="none" stroke="black" points="682,-138 682,-157 892,-157 892,-138 682,-138"/>
<text text-anchor="middle" x="787" y="-145" font-family="Helvetica,sans-Serif" font-size="10.00">memoryoracle.instance.Instance.update</text>
</a>
</g>
</g>
<!-- Node3&#45;&gt;Node4 -->
<g id="edge3" class="edge"><title>Node3&#45;&gt;Node4</title>
<path fill="none" stroke="midnightblue" d="M601.499,-112.111C626.069,-117.267 655.466,-123.325 682,-128.5 698.394,-131.697 716.274,-135.022 732.512,-137.98"/>
<polygon fill="midnightblue" stroke="midnightblue" points="602.145,-108.671 591.639,-110.037 600.704,-115.521 602.145,-108.671"/>
</g>
<!-- Node5 -->
<g id="node5" class="node"><title>Node5</title>
<g id="a_node5"><a xlink:href="classmemoryoracle_1_1models_1_1Typed.html#a494dfbe205034b874ff9e8c7039f579b" target="_top" xlink:title="memoryoracle.models.Typed.\l__init__">
<polygon fill="none" stroke="black" points="708,-88.5 708,-118.5 866,-118.5 866,-88.5 708,-88.5"/>
<text text-anchor="start" x="716" y="-106.5" font-family="Helvetica,sans-Serif" font-size="10.00">memoryoracle.models.Typed.</text>
<text text-anchor="middle" x="787" y="-95.5" font-family="Helvetica,sans-Serif" font-size="10.00">__init__</text>
</a>
</g>
</g>
<!-- Node3&#45;&gt;Node5 -->
<g id="edge4" class="edge"><title>Node3&#45;&gt;Node5</title>
<path fill="none" stroke="midnightblue" d="M656.436,-101.874C673.758,-102.091 691.364,-102.312 707.784,-102.518"/>
<polygon fill="midnightblue" stroke="midnightblue" points="656.324,-98.3721 646.281,-101.746 656.236,-105.372 656.324,-98.3721"/>
</g>
<!-- Node6 -->
<g id="node6" class="node"><title>Node6</title>
<g id="a_node6"><a xlink:href="classmemoryoracle_1_1models_1_1Memory.html#a71d4a141abc3358afdf1a1325bfd4253" target="_top" xlink:title="memoryoracle.models.Memory.update">
<polygon fill="none" stroke="black" points="686,-50 686,-69 888,-69 888,-50 686,-50"/>
<text text-anchor="middle" x="787" y="-57" font-family="Helvetica,sans-Serif" font-size="10.00">memoryoracle.models.Memory.update</text>
</a>
</g>
</g>
<!-- Node3&#45;&gt;Node6 -->
<g id="edge5" class="edge"><title>Node3&#45;&gt;Node6</title>
<path fill="none" stroke="midnightblue" d="M612.614,-89.2441C649.587,-82.9014 695.266,-75.0653 730.455,-69.0286"/>
<polygon fill="midnightblue" stroke="midnightblue" points="611.696,-85.8502 602.432,-90.9907 612.88,-92.7495 611.696,-85.8502"/>
</g>
<!-- Node7 -->
<g id="node7" class="node"><title>Node7</title>
<g id="a_node7"><a xlink:href="classmemoryoracle_1_1models_1_1Memory.html#aed3af349dd80317ae9cca4b4e9cb7c26" target="_top" xlink:title="memoryoracle.models.Memory.\l__init__">
<polygon fill="none" stroke="black" points="703,-0.5 703,-30.5 871,-30.5 871,-0.5 703,-0.5"/>
<text text-anchor="start" x="711" y="-18.5" font-family="Helvetica,sans-Serif" font-size="10.00">memoryoracle.models.Memory.</text>
<text text-anchor="middle" x="787" y="-7.5" font-family="Helvetica,sans-Serif" font-size="10.00">__init__</text>
</a>
</g>
</g>
<!-- Node3&#45;&gt;Node7 -->
<g id="edge6" class="edge"><title>Node3&#45;&gt;Node7</title>
<path fill="none" stroke="midnightblue" d="M625.248,-87.7759C632.485,-85.2281 639.523,-82.1701 646,-78.5 666.241,-67.0304 661.859,-52.1436 682,-40.5 688.752,-36.5965 696.088,-33.3009 703.635,-30.5189"/>
<polygon fill="midnightblue" stroke="midnightblue" points="623.759,-84.5768 615.29,-90.9436 625.881,-91.2475 623.759,-84.5768"/>
</g>
<!-- Node8&#45;&gt;Node5 -->
<g id="edge8" class="edge"><title>Node8&#45;&gt;Node5</title>
<path fill="none" stroke="midnightblue" d="M608.844,-70.8855C639.064,-76.449 675.753,-83.2035 707.887,-89.1194"/>
<polygon fill="midnightblue" stroke="midnightblue" points="609.328,-67.4158 598.859,-69.0473 608.06,-74.3002 609.328,-67.4158"/>
</g>
<!-- Node8&#45;&gt;Node6 -->
<g id="edge9" class="edge"><title>Node8&#45;&gt;Node6</title>
<path fill="none" stroke="midnightblue" d="M647.151,-59.5C659.884,-59.5 672.918,-59.5 685.654,-59.5"/>
<polygon fill="midnightblue" stroke="midnightblue" points="647.015,-56.0001 637.015,-59.5 647.015,-63.0001 647.015,-56.0001"/>
</g>
<!-- Node8&#45;&gt;Node7 -->
<g id="edge10" class="edge"><title>Node8&#45;&gt;Node7</title>
<path fill="none" stroke="midnightblue" d="M608.871,-48.1095C637.926,-42.7606 672.956,-36.3114 704.168,-30.5654"/>
<polygon fill="midnightblue" stroke="midnightblue" points="608.06,-44.6998 598.859,-49.9527 609.328,-51.5842 608.06,-44.6998"/>
</g>
<!-- Node9&#45;&gt;Node3 -->
<g id="edge12" class="edge"><title>Node9&#45;&gt;Node3</title>
<path fill="none" stroke="midnightblue" d="M403.818,-71.5718C435.81,-78.127 471.168,-85.3718 498.496,-90.9714"/>
<polygon fill="midnightblue" stroke="midnightblue" points="404.509,-68.1407 394.01,-69.5621 403.104,-74.9983 404.509,-68.1407"/>
</g>
<!-- Node9&#45;&gt;Node8 -->
<g id="edge13" class="edge"><title>Node9&#45;&gt;Node8</title>
<path fill="none" stroke="midnightblue" d="M409.778,-56.4884C424.554,-56.8175 439.885,-57.1589 454.687,-57.4886"/>
<polygon fill="midnightblue" stroke="midnightblue" points="409.726,-52.9864 399.65,-56.2628 409.57,-59.9847 409.726,-52.9864"/>
</g>
</g>
</svg>
