<?xml version="1.0" encoding="UTF-8" standalone="no"?>
<!DOCTYPE svg PUBLIC "-//W3C//DTD SVG 1.1//EN"
 "http://www.w3.org/Graphics/SVG/1.1/DTD/svg11.dtd">
<!-- Generated by graphviz version 2.38.0 (20140413.2041)
 -->
<!-- Title: memoryoracle.instance.Memory.index Pages: 1 -->
<svg width="1348pt" height="286pt"
 viewBox="0.00 0.00 1348.00 285.88" xmlns="http://www.w3.org/2000/svg" xmlns:xlink="http://www.w3.org/1999/xlink">
<g id="graph0" class="graph" transform="scale(1 1) rotate(0) translate(4 281.883)">
<title>memoryoracle.instance.Memory.index</title>
<!-- Node1 -->
<g id="node1" class="node"><title>Node1</title>
<polygon fill="#bfbfbf" stroke="black" points="0,-91 0,-110 199,-110 199,-91 0,-91"/>
<text text-anchor="middle" x="99.5" y="-98" font-family="Helvetica,sans-Serif" font-size="10.00">memoryoracle.instance.Memory.index</text>
</g>
<!-- Node2 -->
<g id="node2" class="node"><title>Node2</title>
<g id="a_node2"><a xlink:href="classmemoryoracle_1_1models_1_1Typed.html#a494dfbe205034b874ff9e8c7039f579b" target="_top" xlink:title="memoryoracle.models.Typed.\l__init__">
<polygon fill="none" stroke="black" points="1160,-224.5 1160,-254.5 1318,-254.5 1318,-224.5 1160,-224.5"/>
<text text-anchor="start" x="1168" y="-242.5" font-family="Helvetica,sans-Serif" font-size="10.00">memoryoracle.models.Typed.</text>
<text text-anchor="middle" x="1239" y="-231.5" font-family="Helvetica,sans-Serif" font-size="10.00">__init__</text>
</a>
</g>
</g>
<!-- Node1&#45;&gt;Node2 -->
<g id="edge1" class="edge"><title>Node1&#45;&gt;Node2</title>
<path fill="none" stroke="midnightblue" d="M121.971,-116.048C183.797,-159.235 368.864,-277.5 541.5,-277.5 541.5,-277.5 541.5,-277.5 781.5,-277.5 924.08,-277.5 960.268,-279.034 1102,-263.5 1121.9,-261.319 1143.29,-258.007 1163.08,-254.535"/>
<polygon fill="midnightblue" stroke="midnightblue" points="123.628,-112.933 113.442,-110.016 119.586,-118.648 123.628,-112.933"/>
</g>
<!-- Node3 -->
<g id="node3" class="node"><title>Node3</title>
<g id="a_node3"><a xlink:href="classmemoryoracle_1_1instance_1_1Memory.html#ac50fd3bb7216dc0481b8c6f23831a998" target="_top" xlink:title="memoryoracle.instance.Memory.\l_basic_track">
<polygon fill="none" stroke="black" points="235,-85.5 235,-115.5 408,-115.5 408,-85.5 235,-85.5"/>
<text text-anchor="start" x="243" y="-103.5" font-family="Helvetica,sans-Serif" font-size="10.00">memoryoracle.instance.Memory.</text>
<text text-anchor="middle" x="321.5" y="-92.5" font-family="Helvetica,sans-Serif" font-size="10.00">_basic_track</text>
</a>
</g>
</g>
<!-- Node1&#45;&gt;Node3 -->
<g id="edge2" class="edge"><title>Node1&#45;&gt;Node3</title>
<path fill="none" stroke="midnightblue" d="M209.291,-100.5C217.87,-100.5 226.458,-100.5 234.847,-100.5"/>
<polygon fill="midnightblue" stroke="midnightblue" points="209.238,-97.0001 199.238,-100.5 209.238,-104 209.238,-97.0001"/>
</g>
<!-- Node10 -->
<g id="node10" class="node"><title>Node10</title>
<g id="a_node10"><a xlink:href="classmemoryoracle_1_1models_1_1Memory.html#a253756ba0ddd58fc05a9463c0a181185" target="_top" xlink:title="memoryoracle.models.Memory.\l_clear_updated">
<polygon fill="none" stroke="black" points="458.5,-0.5 458.5,-30.5 626.5,-30.5 626.5,-0.5 458.5,-0.5"/>
<text text-anchor="start" x="466.5" y="-18.5" font-family="Helvetica,sans-Serif" font-size="10.00">memoryoracle.models.Memory.</text>
<text text-anchor="middle" x="542.5" y="-7.5" font-family="Helvetica,sans-Serif" font-size="10.00">_clear_updated</text>
</a>
</g>
</g>
<!-- Node1&#45;&gt;Node10 -->
<g id="edge15" class="edge"><title>Node1&#45;&gt;Node10</title>
<path fill="none" stroke="midnightblue" d="M160.009,-89.0301C238.528,-73.8959 376.905,-47.2247 463.658,-30.5035"/>
<polygon fill="midnightblue" stroke="midnightblue" points="158.961,-85.6674 149.805,-90.9968 160.286,-92.5409 158.961,-85.6674"/>
</g>
<!-- Node4 -->
<g id="node4" class="node"><title>Node4</title>
<g id="a_node4"><a xlink:href="classmemoryoracle_1_1instance_1_1Memory.html#a8951ac234fecbd6cd473133ae7e63662" target="_top" xlink:title="memoryoracle.instance.Memory.track">
<polygon fill="none" stroke="black" points="444,-110 444,-129 641,-129 641,-110 444,-110"/>
<text text-anchor="middle" x="542.5" y="-117" font-family="Helvetica,sans-Serif" font-size="10.00">memoryoracle.instance.Memory.track</text>
</a>
</g>
</g>
<!-- Node3&#45;&gt;Node4 -->
<g id="edge3" class="edge"><title>Node3&#45;&gt;Node4</title>
<path fill="none" stroke="midnightblue" d="M418.111,-108.795C426.684,-109.539 435.373,-110.293 443.962,-111.038"/>
<polygon fill="midnightblue" stroke="midnightblue" points="418.377,-105.305 408.112,-107.928 417.772,-112.279 418.377,-105.305"/>
</g>
<!-- Node7 -->
<g id="node7" class="node"><title>Node7</title>
<g id="a_node7"><a xlink:href="classmemoryoracle_1_1models_1_1Typed.html#aa1d5d8d5b7ebe5c2876f363e7eb669db" target="_top" xlink:title="memoryoracle.models.Typed.track">
<polygon fill="none" stroke="black" points="920,-110 920,-129 1102,-129 1102,-110 920,-110"/>
<text text-anchor="middle" x="1011" y="-117" font-family="Helvetica,sans-Serif" font-size="10.00">memoryoracle.models.Typed.track</text>
</a>
</g>
</g>
<!-- Node3&#45;&gt;Node7 -->
<g id="edge14" class="edge"><title>Node3&#45;&gt;Node7</title>
<path fill="none" stroke="midnightblue" d="M418.627,-93.1535C530.662,-86.0529 721.235,-78.5085 884,-94.5 913.963,-97.4438 947.364,-104.235 972.244,-109.997"/>
<polygon fill="midnightblue" stroke="midnightblue" points="418.12,-89.6788 408.367,-93.8165 418.572,-96.6642 418.12,-89.6788"/>
</g>
<!-- Node4&#45;&gt;Node2 -->
<g id="edge11" class="edge"><title>Node4&#45;&gt;Node2</title>
<path fill="none" stroke="midnightblue" d="M558.895,-136.421C581.885,-160.335 627.781,-203.047 677,-220.5 840.949,-278.637 1049.01,-264.937 1159.96,-251.315"/>
<polygon fill="midnightblue" stroke="midnightblue" points="561.406,-133.982 552.005,-129.096 556.307,-138.778 561.406,-133.982"/>
</g>
<!-- Node5 -->
<g id="node5" class="node"><title>Node5</title>
<g id="a_node5"><a xlink:href="classmemoryoracle_1_1instance_1_1Memory.html#aa937ea1a82dcaa2fa1c868a387d59483" target="_top" xlink:title="memoryoracle.instance.Memory.update">
<polygon fill="none" stroke="black" points="677,-192 677,-211 884,-211 884,-192 677,-192"/>
<text text-anchor="middle" x="780.5" y="-199" font-family="Helvetica,sans-Serif" font-size="10.00">memoryoracle.instance.Memory.update</text>
</a>
</g>
</g>
<!-- Node4&#45;&gt;Node5 -->
<g id="edge4" class="edge"><title>Node4&#45;&gt;Node5</title>
<path fill="none" stroke="midnightblue" d="M571.639,-133.496C598.266,-146.31 639.613,-165.113 677,-177.5 694.262,-183.219 713.59,-188.118 730.77,-191.971"/>
<polygon fill="midnightblue" stroke="midnightblue" points="573.054,-130.292 562.53,-129.068 569.994,-136.587 573.054,-130.292"/>
</g>
<!-- Node6 -->
<g id="node6" class="node"><title>Node6</title>
<g id="a_node6"><a xlink:href="classmemoryoracle_1_1instance_1_1Int.html#a38c9424341353f006771163d360594da" target="_top" xlink:title="memoryoracle.instance.Int.\l_track">
<polygon fill="none" stroke="black" points="706.5,-104.5 706.5,-134.5 854.5,-134.5 854.5,-104.5 706.5,-104.5"/>
<text text-anchor="start" x="714.5" y="-122.5" font-family="Helvetica,sans-Serif" font-size="10.00">memoryoracle.instance.Int.</text>
<text text-anchor="middle" x="780.5" y="-111.5" font-family="Helvetica,sans-Serif" font-size="10.00">_track</text>
</a>
</g>
</g>
<!-- Node4&#45;&gt;Node6 -->
<g id="edge5" class="edge"><title>Node4&#45;&gt;Node6</title>
<path fill="none" stroke="midnightblue" d="M651.217,-112.773C669.891,-112.69 688.91,-112.834 706.386,-113.204"/>
<polygon fill="midnightblue" stroke="midnightblue" points="651.17,-109.273 641.194,-112.84 651.217,-116.273 651.17,-109.273"/>
</g>
<!-- Node8 -->
<g id="node8" class="node"><title>Node8</title>
<g id="a_node8"><a xlink:href="classmemoryoracle_1_1models_1_1Memory.html#a71d4a141abc3358afdf1a1325bfd4253" target="_top" xlink:title="memoryoracle.models.Memory.update">
<polygon fill="none" stroke="black" points="1138,-28 1138,-47 1340,-47 1340,-28 1138,-28"/>
<text text-anchor="middle" x="1239" y="-35" font-family="Helvetica,sans-Serif" font-size="10.00">memoryoracle.models.Memory.update</text>
</a>
</g>
</g>
<!-- Node4&#45;&gt;Node8 -->
<g id="edge12" class="edge"><title>Node4&#45;&gt;Node8</title>
<path fill="none" stroke="midnightblue" d="M599.024,-108.024C622.941,-103.361 651.269,-98.2098 677,-94.5 837.604,-71.3447 1025.41,-54.279 1137.87,-45.1242"/>
<polygon fill="midnightblue" stroke="midnightblue" points="598.199,-104.619 589.065,-109.987 599.553,-111.487 598.199,-104.619"/>
</g>
<!-- Node9 -->
<g id="node9" class="node"><title>Node9</title>
<g id="a_node9"><a xlink:href="classmemoryoracle_1_1models_1_1Memory.html#aed3af349dd80317ae9cca4b4e9cb7c26" target="_top" xlink:title="memoryoracle.models.Memory.\l__init__">
<polygon fill="none" stroke="black" points="1155,-126.5 1155,-156.5 1323,-156.5 1323,-126.5 1155,-126.5"/>
<text text-anchor="start" x="1163" y="-144.5" font-family="Helvetica,sans-Serif" font-size="10.00">memoryoracle.models.Memory.</text>
<text text-anchor="middle" x="1239" y="-133.5" font-family="Helvetica,sans-Serif" font-size="10.00">__init__</text>
</a>
</g>
</g>
<!-- Node4&#45;&gt;Node9 -->
<g id="edge13" class="edge"><title>Node4&#45;&gt;Node9</title>
<path fill="none" stroke="midnightblue" d="M595.468,-131.06C620.049,-135.956 649.891,-141.083 677,-143.5 846.043,-158.574 1044.88,-152.201 1154.63,-146.593"/>
<polygon fill="midnightblue" stroke="midnightblue" points="596.125,-127.622 585.628,-129.056 594.728,-134.481 596.125,-127.622"/>
</g>
<!-- Node6&#45;&gt;Node4 -->
<g id="edge6" class="edge"><title>Node6&#45;&gt;Node4</title>
<path fill="none" stroke="midnightblue" d="M696.079,-125.986C678.326,-126.264 659.426,-126.323 641.194,-126.16"/>
<polygon fill="midnightblue" stroke="midnightblue" points="696.453,-129.479 706.386,-125.796 696.324,-122.481 696.453,-129.479"/>
</g>
<!-- Node6&#45;&gt;Node7 -->
<g id="edge7" class="edge"><title>Node6&#45;&gt;Node7</title>
<path fill="none" stroke="midnightblue" d="M864.861,-119.5C882.781,-119.5 901.798,-119.5 919.959,-119.5"/>
<polygon fill="midnightblue" stroke="midnightblue" points="864.742,-116 854.742,-119.5 864.742,-123 864.742,-116"/>
</g>
<!-- Node7&#45;&gt;Node2 -->
<g id="edge8" class="edge"><title>Node7&#45;&gt;Node2</title>
<path fill="none" stroke="midnightblue" d="M1039.16,-133.923C1082.28,-156.816 1165.96,-201.251 1209.75,-224.5"/>
<polygon fill="midnightblue" stroke="midnightblue" points="1040.59,-130.716 1030.11,-129.117 1037.3,-136.898 1040.59,-130.716"/>
</g>
<!-- Node7&#45;&gt;Node8 -->
<g id="edge9" class="edge"><title>Node7&#45;&gt;Node8</title>
<path fill="none" stroke="midnightblue" d="M1047.87,-106.484C1093.53,-89.9171 1171.33,-61.689 1211.8,-47.006"/>
<polygon fill="midnightblue" stroke="midnightblue" points="1046.57,-103.232 1038.37,-109.933 1048.96,-109.812 1046.57,-103.232"/>
</g>
<!-- Node7&#45;&gt;Node9 -->
<g id="edge10" class="edge"><title>Node7&#45;&gt;Node9</title>
<path fill="none" stroke="midnightblue" d="M1112.53,-129.286C1126.66,-130.661 1141.05,-132.062 1154.81,-133.402"/>
<polygon fill="midnightblue" stroke="midnightblue" points="1112.59,-125.775 1102.3,-128.29 1111.91,-132.742 1112.59,-125.775"/>
</g>
<!-- Node10&#45;&gt;Node8 -->
<g id="edge16" class="edge"><title>Node10&#45;&gt;Node8</title>
<path fill="none" stroke="midnightblue" d="M637.01,-14.3229C748.008,-13.5078 938.657,-13.9415 1102,-23.5 1119.89,-24.5469 1139.06,-26.194 1157.19,-27.9962"/>
<polygon fill="midnightblue" stroke="midnightblue" points="636.823,-10.8241 626.851,-14.4026 636.878,-17.8239 636.823,-10.8241"/>
</g>
</g>
</svg>
