<?xml version="1.0" encoding="UTF-8" standalone="no"?>
<!DOCTYPE svg PUBLIC "-//W3C//DTD SVG 1.1//EN"
 "http://www.w3.org/Graphics/SVG/1.1/DTD/svg11.dtd">
<!-- Generated by graphviz version 2.38.0 (20140413.2041)
 -->
<!-- Title: memoryoracle.instance.Owner Pages: 1 -->
<svg width="199pt" height="640pt"
 viewBox="0.00 0.00 199.00 640.00" xmlns="http://www.w3.org/2000/svg" xmlns:xlink="http://www.w3.org/1999/xlink">
<g id="graph0" class="graph" transform="scale(1 1) rotate(0) translate(4 636)">
<title>memoryoracle.instance.Owner</title>
<!-- Node1 -->
<g id="node1" class="node"><title>Node1</title>
<polygon fill="#bfbfbf" stroke="black" points="14,-0.5 14,-57.5 177,-57.5 177,-0.5 14,-0.5"/>
<text text-anchor="middle" x="95.5" y="-45.5" font-family="Helvetica,sans-Serif" font-size="10.00">memoryoracle.instance.Owner</text>
<polyline fill="none" stroke="black" points="14,-38.5 177,-38.5 "/>
<text text-anchor="start" x="22" y="-26.5" font-family="Helvetica,sans-Serif" font-size="10.00">+ children</text>
<polyline fill="none" stroke="black" points="14,-19.5 177,-19.5 "/>
<text text-anchor="middle" x="95.5" y="-7.5" font-family="Helvetica,sans-Serif" font-size="10.00"> </text>
</g>
<!-- Node2 -->
<g id="node2" class="node"><title>Node2</title>
<g id="a_node2"><a xlink:href="classmemoryoracle_1_1instance_1_1Instance.html" target="_top" xlink:title="{memoryoracle.instance.Instance\n|+ address\l+ name\l+ description\l+ type\l+ parent_class\l+ meta\l&#45; _addressFixer\l&#45; _updatedNames\l&#45; _watchers\l|+ index()\l+ track()\l+ update()\l+ watchers()\l&#45; _basic_track()\l&#45; _clear_updated()\l}">
<polygon fill="none" stroke="black" points="9,-94.5 9,-294.5 182,-294.5 182,-94.5 9,-94.5"/>
<text text-anchor="middle" x="95.5" y="-282.5" font-family="Helvetica,sans-Serif" font-size="10.00">memoryoracle.instance.Instance</text>
<polyline fill="none" stroke="black" points="9,-275.5 182,-275.5 "/>
<text text-anchor="start" x="17" y="-263.5" font-family="Helvetica,sans-Serif" font-size="10.00">+ address</text>
<text text-anchor="start" x="17" y="-252.5" font-family="Helvetica,sans-Serif" font-size="10.00">+ name</text>
<text text-anchor="start" x="17" y="-241.5" font-family="Helvetica,sans-Serif" font-size="10.00">+ description</text>
<text text-anchor="start" x="17" y="-230.5" font-family="Helvetica,sans-Serif" font-size="10.00">+ type</text>
<text text-anchor="start" x="17" y="-219.5" font-family="Helvetica,sans-Serif" font-size="10.00">+ parent_class</text>
<text text-anchor="start" x="17" y="-208.5" font-family="Helvetica,sans-Serif" font-size="10.00">+ meta</text>
<text text-anchor="start" x="17" y="-197.5" font-family="Helvetica,sans-Serif" font-size="10.00">&#45; _addressFixer</text>
<text text-anchor="start" x="17" y="-186.5" font-family="Helvetica,sans-Serif" font-size="10.00">&#45; _updatedNames</text>
<text text-anchor="start" x="17" y="-175.5" font-family="Helvetica,sans-Serif" font-size="10.00">&#45; _watchers</text>
<polyline fill="none" stroke="black" points="9,-168.5 182,-168.5 "/>
<text text-anchor="start" x="17" y="-156.5" font-family="Helvetica,sans-Serif" font-size="10.00">+ index()</text>
<text text-anchor="start" x="17" y="-145.5" font-family="Helvetica,sans-Serif" font-size="10.00">+ track()</text>
<text text-anchor="start" x="17" y="-134.5" font-family="Helvetica,sans-Serif" font-size="10.00">+ update()</text>
<text text-anchor="start" x="17" y="-123.5" font-family="Helvetica,sans-Serif" font-size="10.00">+ watchers()</text>
<text text-anchor="start" x="17" y="-112.5" font-family="Helvetica,sans-Serif" font-size="10.00">&#45; _basic_track()</text>
<text text-anchor="start" x="17" y="-101.5" font-family="Helvetica,sans-Serif" font-size="10.00">&#45; _clear_updated()</text>
</a>
</g>
</g>
<!-- Node2&#45;&gt;Node1 -->
<g id="edge1" class="edge"><title>Node2&#45;&gt;Node1</title>
<path fill="none" stroke="midnightblue" d="M95.5,-83.9642C95.5,-74.366 95.5,-65.3479 95.5,-57.5334"/>
<polygon fill="none" stroke="midnightblue" points="92.0001,-84.1502 95.5,-94.1503 99.0001,-84.1503 92.0001,-84.1502"/>
</g>
<!-- Node3 -->
<g id="node3" class="node"><title>Node3</title>
<g id="a_node3"><a xlink:href="classmemoryoracle_1_1typed_1_1Typed.html" target="_top" xlink:title="{memoryoracle.typed.Typed\n|&#45; _type\l&#45; _typeHandlerCode\l|+ type()\l+ type_code()\l}">
<polygon fill="none" stroke="black" points="22.5,-331.5 22.5,-410.5 168.5,-410.5 168.5,-331.5 22.5,-331.5"/>
<text text-anchor="middle" x="95.5" y="-398.5" font-family="Helvetica,sans-Serif" font-size="10.00">memoryoracle.typed.Typed</text>
<polyline fill="none" stroke="black" points="22.5,-391.5 168.5,-391.5 "/>
<text text-anchor="start" x="30.5" y="-379.5" font-family="Helvetica,sans-Serif" font-size="10.00">&#45; _type</text>
<text text-anchor="start" x="30.5" y="-368.5" font-family="Helvetica,sans-Serif" font-size="10.00">&#45; _typeHandlerCode</text>
<polyline fill="none" stroke="black" points="22.5,-361.5 168.5,-361.5 "/>
<text text-anchor="start" x="30.5" y="-349.5" font-family="Helvetica,sans-Serif" font-size="10.00">+ type()</text>
<text text-anchor="start" x="30.5" y="-338.5" font-family="Helvetica,sans-Serif" font-size="10.00">+ type_code()</text>
</a>
</g>
</g>
<!-- Node3&#45;&gt;Node2 -->
<g id="edge2" class="edge"><title>Node3&#45;&gt;Node2</title>
<path fill="none" stroke="midnightblue" d="M95.5,-321.064C95.5,-312.735 95.5,-303.825 95.5,-294.738"/>
<polygon fill="none" stroke="midnightblue" points="92.0001,-321.273 95.5,-331.273 99.0001,-321.273 92.0001,-321.273"/>
</g>
<!-- Node4 -->
<g id="node4" class="node"><title>Node4</title>
<g id="a_node4"><a xlink:href="classmemoryoracle_1_1tracked_1_1Tracked.html" target="_top" xlink:title="{memoryoracle.tracked.Tracked\n|&#45; _description\l|+ description()\l+ name()\l+ track()\l&#45; _init()\l}">
<polygon fill="none" stroke="black" points="13.5,-447.5 13.5,-537.5 177.5,-537.5 177.5,-447.5 13.5,-447.5"/>
<text text-anchor="middle" x="95.5" y="-525.5" font-family="Helvetica,sans-Serif" font-size="10.00">memoryoracle.tracked.Tracked</text>
<polyline fill="none" stroke="black" points="13.5,-518.5 177.5,-518.5 "/>
<text text-anchor="start" x="21.5" y="-506.5" font-family="Helvetica,sans-Serif" font-size="10.00">&#45; _description</text>
<polyline fill="none" stroke="black" points="13.5,-499.5 177.5,-499.5 "/>
<text text-anchor="start" x="21.5" y="-487.5" font-family="Helvetica,sans-Serif" font-size="10.00">+ description()</text>
<text text-anchor="start" x="21.5" y="-476.5" font-family="Helvetica,sans-Serif" font-size="10.00">+ name()</text>
<text text-anchor="start" x="21.5" y="-465.5" font-family="Helvetica,sans-Serif" font-size="10.00">+ track()</text>
<text text-anchor="start" x="21.5" y="-454.5" font-family="Helvetica,sans-Serif" font-size="10.00">&#45; _init()</text>
</a>
</g>
</g>
<!-- Node4&#45;&gt;Node3 -->
<g id="edge3" class="edge"><title>Node4&#45;&gt;Node3</title>
<path fill="none" stroke="midnightblue" d="M95.5,-437.079C95.5,-428.234 95.5,-419.233 95.5,-410.858"/>
<polygon fill="none" stroke="midnightblue" points="92.0001,-437.342 95.5,-447.342 99.0001,-437.342 92.0001,-437.342"/>
</g>
<!-- Node5 -->
<g id="node5" class="node"><title>Node5</title>
<polygon fill="none" stroke="#bfbfbf" points="0,-574.5 0,-631.5 191,-631.5 191,-574.5 0,-574.5"/>
<text text-anchor="middle" x="95.5" y="-619.5" font-family="Helvetica,sans-Serif" font-size="10.00">mongoengine::EmbeddedDocument</text>
<polyline fill="none" stroke="#bfbfbf" points="0,-612.5 191,-612.5 "/>
<text text-anchor="middle" x="95.5" y="-600.5" font-family="Helvetica,sans-Serif" font-size="10.00"> </text>
<polyline fill="none" stroke="#bfbfbf" points="0,-593.5 191,-593.5 "/>
<text text-anchor="middle" x="95.5" y="-581.5" font-family="Helvetica,sans-Serif" font-size="10.00"> </text>
</g>
<!-- Node5&#45;&gt;Node4 -->
<g id="edge4" class="edge"><title>Node5&#45;&gt;Node4</title>
<path fill="none" stroke="midnightblue" d="M95.5,-564.214C95.5,-555.609 95.5,-546.394 95.5,-537.554"/>
<polygon fill="none" stroke="midnightblue" points="92.0001,-564.34 95.5,-574.34 99.0001,-564.34 92.0001,-564.34"/>
</g>
</g>
</svg>
