<?xml version="1.0" encoding="UTF-8" standalone="no"?>
<!DOCTYPE svg PUBLIC "-//W3C//DTD SVG 1.1//EN"
 "http://www.w3.org/Graphics/SVG/1.1/DTD/svg11.dtd">
<!-- Generated by graphviz version 2.38.0 (20140413.2041)
 -->
<!-- Title: memoryoracle.whip.SugarDecorator.name Pages: 1 -->
<svg width="927pt" height="165pt"
 viewBox="0.00 0.00 927.00 164.50" xmlns="http://www.w3.org/2000/svg" xmlns:xlink="http://www.w3.org/1999/xlink">
<g id="graph0" class="graph" transform="scale(1 1) rotate(0) translate(4 160.5)">
<title>memoryoracle.whip.SugarDecorator.name</title>
<!-- Node1 -->
<g id="node1" class="node"><title>Node1</title>
<polygon fill="#bfbfbf" stroke="black" points="0,-63.5 0,-82.5 220,-82.5 220,-63.5 0,-63.5"/>
<text text-anchor="middle" x="110" y="-70.5" font-family="Helvetica,sans-Serif" font-size="10.00">memoryoracle.whip.SugarDecorator.name</text>
</g>
<!-- Node2 -->
<g id="node2" class="node"><title>Node2</title>
<g id="a_node2"><a xlink:href="classmemoryoracle_1_1instance_1_1Structure.html#a200a54be462e0199b7833cbd11f81a52" target="_top" xlink:title="memoryoracle.instance.Structure.\l_track">
<polygon fill="none" stroke="black" points="256,-83 256,-113 437,-113 437,-83 256,-83"/>
<text text-anchor="start" x="264" y="-101" font-family="Helvetica,sans-Serif" font-size="10.00">memoryoracle.instance.Structure.</text>
<text text-anchor="middle" x="346.5" y="-90" font-family="Helvetica,sans-Serif" font-size="10.00">_track</text>
</a>
</g>
</g>
<!-- Node1&#45;&gt;Node2 -->
<g id="edge1" class="edge"><title>Node1&#45;&gt;Node2</title>
<path fill="none" stroke="midnightblue" d="M210.604,-83.6187C225.561,-85.2133 240.91,-86.8497 255.648,-88.4209"/>
<polygon fill="midnightblue" stroke="midnightblue" points="210.638,-80.1026 200.323,-82.5227 209.896,-87.0632 210.638,-80.1026"/>
</g>
<!-- Node9 -->
<g id="node9" class="node"><title>Node9</title>
<g id="a_node9"><a xlink:href="classmemoryoracle_1_1instance_1_1Array.html#a1d8c3993d8a52bfbec8240d6f79b3ce1" target="_top" xlink:title="memoryoracle.instance.Array.\l_track">
<polygon fill="none" stroke="black" points="266.5,-34 266.5,-64 426.5,-64 426.5,-34 266.5,-34"/>
<text text-anchor="start" x="274.5" y="-52" font-family="Helvetica,sans-Serif" font-size="10.00">memoryoracle.instance.Array.</text>
<text text-anchor="middle" x="346.5" y="-41" font-family="Helvetica,sans-Serif" font-size="10.00">_track</text>
</a>
</g>
</g>
<!-- Node1&#45;&gt;Node9 -->
<g id="edge11" class="edge"><title>Node1&#45;&gt;Node9</title>
<path fill="none" stroke="midnightblue" d="M214.223,-62.4356C231.658,-60.6512 249.513,-58.8238 266.216,-57.1144"/>
<polygon fill="midnightblue" stroke="midnightblue" points="213.609,-58.9801 204.017,-63.4801 214.322,-65.9437 213.609,-58.9801"/>
</g>
<!-- Node3 -->
<g id="node3" class="node"><title>Node3</title>
<g id="a_node3"><a xlink:href="classmemoryoracle_1_1instance_1_1Instance.html#a86649e01ee4f562debdba5421a334f78" target="_top" xlink:title="memoryoracle.instance.Instance.track">
<polygon fill="none" stroke="black" points="473,-41.5 473,-60.5 673,-60.5 673,-41.5 473,-41.5"/>
<text text-anchor="middle" x="573" y="-48.5" font-family="Helvetica,sans-Serif" font-size="10.00">memoryoracle.instance.Instance.track</text>
</a>
</g>
</g>
<!-- Node2&#45;&gt;Node3 -->
<g id="edge2" class="edge"><title>Node2&#45;&gt;Node3</title>
<path fill="none" stroke="midnightblue" d="M429.188,-80.8984C461.963,-74.0367 498.501,-66.3873 526.415,-60.5434"/>
<polygon fill="midnightblue" stroke="midnightblue" points="428.221,-77.5248 419.15,-82.9997 429.655,-84.3762 428.221,-77.5248"/>
</g>
<!-- Node8 -->
<g id="node8" class="node"><title>Node8</title>
<g id="a_node8"><a xlink:href="classmemoryoracle_1_1models_1_1Typed.html#aa1d5d8d5b7ebe5c2876f363e7eb669db" target="_top" xlink:title="memoryoracle.models.Typed.track">
<polygon fill="none" stroke="black" points="482,-82.5 482,-101.5 664,-101.5 664,-82.5 482,-82.5"/>
<text text-anchor="middle" x="573" y="-89.5" font-family="Helvetica,sans-Serif" font-size="10.00">memoryoracle.models.Typed.track</text>
</a>
</g>
</g>
<!-- Node2&#45;&gt;Node8 -->
<g id="edge7" class="edge"><title>Node2&#45;&gt;Node8</title>
<path fill="none" stroke="midnightblue" d="M447.228,-95.3347C458.709,-95.0278 470.367,-94.7163 481.713,-94.413"/>
<polygon fill="midnightblue" stroke="midnightblue" points="447.099,-91.8368 437.196,-95.6028 447.286,-98.8343 447.099,-91.8368"/>
</g>
<!-- Node4 -->
<g id="node4" class="node"><title>Node4</title>
<g id="a_node4"><a xlink:href="classmemoryoracle_1_1models_1_1Typed.html#a494dfbe205034b874ff9e8c7039f579b" target="_top" xlink:title="memoryoracle.models.Typed.\l__init__">
<polygon fill="none" stroke="black" points="735,-126 735,-156 893,-156 893,-126 735,-126"/>
<text text-anchor="start" x="743" y="-144" font-family="Helvetica,sans-Serif" font-size="10.00">memoryoracle.models.Typed.</text>
<text text-anchor="middle" x="814" y="-133" font-family="Helvetica,sans-Serif" font-size="10.00">__init__</text>
</a>
</g>
</g>
<!-- Node3&#45;&gt;Node4 -->
<g id="edge3" class="edge"><title>Node3&#45;&gt;Node4</title>
<path fill="none" stroke="midnightblue" d="M654.219,-63.8698C660.8,-66.3911 667.157,-69.4029 673,-73 694.516,-86.2469 687.538,-103.666 709,-117 716.949,-121.938 725.808,-125.862 734.91,-128.98"/>
<polygon fill="midnightblue" stroke="midnightblue" points="655.046,-60.4534 644.452,-60.5157 652.773,-67.0739 655.046,-60.4534"/>
</g>
<!-- Node5 -->
<g id="node5" class="node"><title>Node5</title>
<g id="a_node5"><a xlink:href="classmemoryoracle_1_1models_1_1Memory.html#aed3af349dd80317ae9cca4b4e9cb7c26" target="_top" xlink:title="memoryoracle.models.Memory.\l__init__">
<polygon fill="none" stroke="black" points="730,-77 730,-107 898,-107 898,-77 730,-77"/>
<text text-anchor="start" x="738" y="-95" font-family="Helvetica,sans-Serif" font-size="10.00">memoryoracle.models.Memory.</text>
<text text-anchor="middle" x="814" y="-84" font-family="Helvetica,sans-Serif" font-size="10.00">__init__</text>
</a>
</g>
</g>
<!-- Node3&#45;&gt;Node5 -->
<g id="edge4" class="edge"><title>Node3&#45;&gt;Node5</title>
<path fill="none" stroke="midnightblue" d="M639.461,-62.2297C667.333,-67.0112 700.174,-72.645 729.745,-77.7177"/>
<polygon fill="midnightblue" stroke="midnightblue" points="639.88,-58.7505 629.432,-60.5093 638.696,-65.6498 639.88,-58.7505"/>
</g>
<!-- Node6 -->
<g id="node6" class="node"><title>Node6</title>
<g id="a_node6"><a xlink:href="classmemoryoracle_1_1instance_1_1Instance.html#a286e015a030541a0704994172024f034" target="_top" xlink:title="memoryoracle.instance.Instance.update">
<polygon fill="none" stroke="black" points="709,-0.5 709,-19.5 919,-19.5 919,-0.5 709,-0.5"/>
<text text-anchor="middle" x="814" y="-7.5" font-family="Helvetica,sans-Serif" font-size="10.00">memoryoracle.instance.Instance.update</text>
</a>
</g>
</g>
<!-- Node3&#45;&gt;Node6 -->
<g id="edge5" class="edge"><title>Node3&#45;&gt;Node6</title>
<path fill="none" stroke="midnightblue" d="M639.614,-39.7441C676.587,-33.4014 722.266,-25.5653 757.455,-19.5286"/>
<polygon fill="midnightblue" stroke="midnightblue" points="638.696,-36.3502 629.432,-41.4907 639.88,-43.2495 638.696,-36.3502"/>
</g>
<!-- Node7 -->
<g id="node7" class="node"><title>Node7</title>
<g id="a_node7"><a xlink:href="classmemoryoracle_1_1models_1_1Memory.html#a71d4a141abc3358afdf1a1325bfd4253" target="_top" xlink:title="memoryoracle.models.Memory.update">
<polygon fill="none" stroke="black" points="713,-38.5 713,-57.5 915,-57.5 915,-38.5 713,-38.5"/>
<text text-anchor="middle" x="814" y="-45.5" font-family="Helvetica,sans-Serif" font-size="10.00">memoryoracle.models.Memory.update</text>
</a>
</g>
</g>
<!-- Node3&#45;&gt;Node7 -->
<g id="edge6" class="edge"><title>Node3&#45;&gt;Node7</title>
<path fill="none" stroke="midnightblue" d="M683.454,-49.6261C693.259,-49.503 703.154,-49.3788 712.873,-49.2568"/>
<polygon fill="midnightblue" stroke="midnightblue" points="683.236,-46.1285 673.281,-49.7538 683.324,-53.1279 683.236,-46.1285"/>
</g>
<!-- Node8&#45;&gt;Node4 -->
<g id="edge8" class="edge"><title>Node8&#45;&gt;Node4</title>
<path fill="none" stroke="midnightblue" d="M630.189,-103.52C662.815,-110.209 704.292,-118.713 739.489,-125.929"/>
<polygon fill="midnightblue" stroke="midnightblue" points="630.864,-100.086 620.365,-101.506 629.458,-106.943 630.864,-100.086"/>
</g>
<!-- Node8&#45;&gt;Node5 -->
<g id="edge9" class="edge"><title>Node8&#45;&gt;Node5</title>
<path fill="none" stroke="midnightblue" d="M674.214,-92C692.71,-92 711.839,-92 729.765,-92"/>
<polygon fill="midnightblue" stroke="midnightblue" points="674.015,-88.5001 664.015,-92 674.015,-95.5001 674.015,-88.5001"/>
</g>
<!-- Node8&#45;&gt;Node7 -->
<g id="edge10" class="edge"><title>Node8&#45;&gt;Node7</title>
<path fill="none" stroke="midnightblue" d="M635.292,-80.6174C658.393,-76.3357 684.903,-71.4323 709,-67 725.788,-63.912 744.104,-60.5602 760.621,-57.5437"/>
<polygon fill="midnightblue" stroke="midnightblue" points="634.473,-77.2094 625.279,-82.4738 635.749,-84.0921 634.473,-77.2094"/>
</g>
<!-- Node9&#45;&gt;Node3 -->
<g id="edge12" class="edge"><title>Node9&#45;&gt;Node3</title>
<path fill="none" stroke="midnightblue" d="M436.893,-49.7964C448.667,-49.9013 460.791,-50.0093 472.717,-50.1155"/>
<polygon fill="midnightblue" stroke="midnightblue" points="436.681,-46.2944 426.65,-49.7051 436.619,-53.2942 436.681,-46.2944"/>
</g>
<!-- Node9&#45;&gt;Node8 -->
<g id="edge13" class="edge"><title>Node9&#45;&gt;Node8</title>
<path fill="none" stroke="midnightblue" d="M435.879,-65.9277C465.246,-71.5527 496.899,-77.6154 522.285,-82.4777"/>
<polygon fill="midnightblue" stroke="midnightblue" points="436.499,-62.4831 426.019,-64.0393 435.182,-69.3581 436.499,-62.4831"/>
</g>
</g>
</svg>
