<?xml version="1.0" encoding="UTF-8" standalone="no"?>
<!DOCTYPE svg PUBLIC "-//W3C//DTD SVG 1.1//EN"
 "http://www.w3.org/Graphics/SVG/1.1/DTD/svg11.dtd">
<!-- Generated by graphviz version 2.38.0 (20140413.2041)
 -->
<!-- Title: memoryoracle.instance.Int._find_hidden_type Pages: 1 -->
<svg width="383pt" height="127pt"
 viewBox="0.00 0.00 383.00 126.50" xmlns="http://www.w3.org/2000/svg" xmlns:xlink="http://www.w3.org/1999/xlink">
<g id="graph0" class="graph" transform="scale(1 1) rotate(0) translate(4 122.5)">
<title>memoryoracle.instance.Int._find_hidden_type</title>
<!-- Node1 -->
<g id="node1" class="node"><title>Node1</title>
<polygon fill="#bfbfbf" stroke="black" points="0,-49.5 0,-79.5 148,-79.5 148,-49.5 0,-49.5"/>
<text text-anchor="start" x="8" y="-67.5" font-family="Helvetica,sans-Serif" font-size="10.00">memoryoracle.instance.Int.</text>
<text text-anchor="middle" x="74" y="-56.5" font-family="Helvetica,sans-Serif" font-size="10.00">_find_hidden_type</text>
</g>
<!-- Node2 -->
<g id="node2" class="node"><title>Node2</title>
<g id="a_node2"><a xlink:href="classmemoryoracle_1_1typed_1_1Typed.html#a0d1a3c7644d37da66f9ea5cb269115fe" target="_top" xlink:title="memoryoracle.typed.Typed.object">
<polygon fill="none" stroke="black" points="190,-99 190,-118 369,-118 369,-99 190,-99"/>
<text text-anchor="middle" x="279.5" y="-106" font-family="Helvetica,sans-Serif" font-size="10.00">memoryoracle.typed.Typed.object</text>
</a>
</g>
</g>
<!-- Node1&#45;&gt;Node2 -->
<g id="edge1" class="edge"><title>Node1&#45;&gt;Node2</title>
<path fill="none" stroke="midnightblue" d="M139.201,-79.5288C153.904,-82.8863 169.48,-86.3757 184,-89.5 195.631,-92.0026 208.09,-94.5806 220.02,-96.999"/>
<polygon fill="midnightblue" stroke="midnightblue" points="219.393,-100.443 229.887,-98.9878 220.776,-93.5809 219.393,-100.443"/>
</g>
<!-- Node3 -->
<g id="node3" class="node"><title>Node3</title>
<g id="a_node3"><a xlink:href="classmemoryoracle_1_1descriptions_1_1MemoryDescription.html#a0fc58900317d1e723b6352005e163aef" target="_top" xlink:title="memoryoracle.descriptions.\lMemoryDescription.object">
<polygon fill="none" stroke="black" points="204.5,-49.5 204.5,-79.5 354.5,-79.5 354.5,-49.5 204.5,-49.5"/>
<text text-anchor="start" x="212.5" y="-67.5" font-family="Helvetica,sans-Serif" font-size="10.00">memoryoracle.descriptions.</text>
<text text-anchor="middle" x="279.5" y="-56.5" font-family="Helvetica,sans-Serif" font-size="10.00">MemoryDescription.object</text>
</a>
</g>
</g>
<!-- Node1&#45;&gt;Node3 -->
<g id="edge2" class="edge"><title>Node1&#45;&gt;Node3</title>
<path fill="none" stroke="midnightblue" d="M148.181,-64.5C162.994,-64.5 178.686,-64.5 193.856,-64.5"/>
<polygon fill="midnightblue" stroke="midnightblue" points="194.258,-68.0001 204.258,-64.5 194.258,-61.0001 194.258,-68.0001"/>
</g>
<!-- Node4 -->
<g id="node4" class="node"><title>Node4</title>
<g id="a_node4"><a xlink:href="classmemoryoracle_1_1instance_1_1Primitive.html#abc513cbf3d0938c0db133e9af0a6f5ea" target="_top" xlink:title="memoryoracle.instance.Primitive.val\l_string">
<polygon fill="none" stroke="black" points="184,-0.5 184,-30.5 375,-30.5 375,-0.5 184,-0.5"/>
<text text-anchor="start" x="192" y="-18.5" font-family="Helvetica,sans-Serif" font-size="10.00">memoryoracle.instance.Primitive.val</text>
<text text-anchor="middle" x="279.5" y="-7.5" font-family="Helvetica,sans-Serif" font-size="10.00">_string</text>
</a>
</g>
</g>
<!-- Node1&#45;&gt;Node4 -->
<g id="edge3" class="edge"><title>Node1&#45;&gt;Node4</title>
<path fill="none" stroke="midnightblue" d="M137.44,-49.4654C159.219,-44.2211 183.839,-38.2931 206.343,-32.8745"/>
<polygon fill="midnightblue" stroke="midnightblue" points="207.276,-36.25 216.178,-30.5062 205.637,-29.4445 207.276,-36.25"/>
</g>
</g>
</svg>
