<?xml version="1.0" encoding="UTF-8" standalone="no"?>
<!DOCTYPE svg PUBLIC "-//W3C//DTD SVG 1.1//EN"
 "http://www.w3.org/Graphics/SVG/1.1/DTD/svg11.dtd">
<!-- Generated by graphviz version 2.38.0 (20140413.2041)
 -->
<!-- Title: memoryoracle.frame.FrameSelector Pages: 1 -->
<svg width="159pt" height="215pt"
 viewBox="0.00 0.00 159.00 215.00" xmlns="http://www.w3.org/2000/svg" xmlns:xlink="http://www.w3.org/1999/xlink">
<g id="graph0" class="graph" transform="scale(1 1) rotate(0) translate(4 211)">
<title>memoryoracle.frame.FrameSelector</title>
<!-- Node1 -->
<g id="node1" class="node"><title>Node1</title>
<polygon fill="#bfbfbf" stroke="black" points="0,-0.5 0,-112.5 151,-112.5 151,-0.5 0,-0.5"/>
<text text-anchor="start" x="8" y="-100.5" font-family="Helvetica,sans-Serif" font-size="10.00">memoryoracle.frame.Frame</text>
<text text-anchor="middle" x="75.5" y="-89.5" font-family="Helvetica,sans-Serif" font-size="10.00">Selector</text>
<polyline fill="none" stroke="black" points="0,-82.5 151,-82.5 "/>
<text text-anchor="start" x="8" y="-70.5" font-family="Helvetica,sans-Serif" font-size="10.00">+ oldFrame</text>
<text text-anchor="start" x="8" y="-59.5" font-family="Helvetica,sans-Serif" font-size="10.00">&#45; _frame</text>
<polyline fill="none" stroke="black" points="0,-52.5 151,-52.5 "/>
<text text-anchor="start" x="8" y="-40.5" font-family="Helvetica,sans-Serif" font-size="10.00">+ __init__()</text>
<text text-anchor="start" x="8" y="-29.5" font-family="Helvetica,sans-Serif" font-size="10.00">+ __enter__()</text>
<text text-anchor="start" x="8" y="-18.5" font-family="Helvetica,sans-Serif" font-size="10.00">+ __exit__()</text>
<text text-anchor="start" x="8" y="-7.5" font-family="Helvetica,sans-Serif" font-size="10.00">+ frame()</text>
</g>
<!-- Node2 -->
<g id="node2" class="node"><title>Node2</title>
<polygon fill="none" stroke="#bfbfbf" points="52.5,-149.5 52.5,-206.5 98.5,-206.5 98.5,-149.5 52.5,-149.5"/>
<text text-anchor="middle" x="75.5" y="-194.5" font-family="Helvetica,sans-Serif" font-size="10.00">object</text>
<polyline fill="none" stroke="#bfbfbf" points="52.5,-187.5 98.5,-187.5 "/>
<text text-anchor="middle" x="75.5" y="-175.5" font-family="Helvetica,sans-Serif" font-size="10.00"> </text>
<polyline fill="none" stroke="#bfbfbf" points="52.5,-168.5 98.5,-168.5 "/>
<text text-anchor="middle" x="75.5" y="-156.5" font-family="Helvetica,sans-Serif" font-size="10.00"> </text>
</g>
<!-- Node2&#45;&gt;Node1 -->
<g id="edge1" class="edge"><title>Node2&#45;&gt;Node1</title>
<path fill="none" stroke="midnightblue" d="M75.5,-139.108C75.5,-130.748 75.5,-121.725 75.5,-112.834"/>
<polygon fill="none" stroke="midnightblue" points="72.0001,-139.284 75.5,-149.284 79.0001,-139.284 72.0001,-139.284"/>
</g>
</g>
</svg>
