<?xml version="1.0" encoding="UTF-8" standalone="no"?>
<!DOCTYPE svg PUBLIC "-//W3C//DTD SVG 1.1//EN"
 "http://www.w3.org/Graphics/SVG/1.1/DTD/svg11.dtd">
<!-- Generated by graphviz version 2.38.0 (20140413.2041)
 -->
<!-- Title: memoryoracle.descriptions.AddressableDescription.address Pages: 1 -->
<svg width="1112pt" height="391pt"
 viewBox="0.00 0.00 1112.00 390.92" xmlns="http://www.w3.org/2000/svg" xmlns:xlink="http://www.w3.org/1999/xlink">
<g id="graph0" class="graph" transform="scale(1 1) rotate(0) translate(4 386.917)">
<title>memoryoracle.descriptions.AddressableDescription.address</title>
<!-- Node1 -->
<g id="node1" class="node"><title>Node1</title>
<polygon fill="#bfbfbf" stroke="black" points="0,-319.5 0,-349.5 171,-349.5 171,-319.5 0,-319.5"/>
<text text-anchor="start" x="8" y="-337.5" font-family="Helvetica,sans-Serif" font-size="10.00">memoryoracle.descriptions.</text>
<text text-anchor="middle" x="85.5" y="-326.5" font-family="Helvetica,sans-Serif" font-size="10.00">AddressableDescription.address</text>
</g>
<!-- Node2 -->
<g id="node2" class="node"><title>Node2</title>
<g id="a_node2"><a xlink:href="classmemoryoracle_1_1instance_1_1Instance.html#a8d6cede9602381d2f2163a0545dd9d8c" target="_top" xlink:title="memoryoracle.instance.Instance.\l_clear_updated">
<polygon fill="none" stroke="black" points="670,-322.5 670,-352.5 846,-352.5 846,-322.5 670,-322.5"/>
<text text-anchor="start" x="678" y="-340.5" font-family="Helvetica,sans-Serif" font-size="10.00">memoryoracle.instance.Instance.</text>
<text text-anchor="middle" x="758" y="-329.5" font-family="Helvetica,sans-Serif" font-size="10.00">_clear_updated</text>
</a>
</g>
</g>
<!-- Node1&#45;&gt;Node2 -->
<g id="edge1" class="edge"><title>Node1&#45;&gt;Node2</title>
<path fill="none" stroke="midnightblue" d="M169.494,-351.356C275.024,-370.347 462.676,-395.938 622,-374.5 653.31,-370.287 687.634,-360.812 713.836,-352.505"/>
<polygon fill="midnightblue" stroke="midnightblue" points="170.007,-347.892 159.541,-349.54 168.751,-354.778 170.007,-347.892"/>
</g>
<!-- Node5 -->
<g id="node5" class="node"><title>Node5</title>
<g id="a_node5"><a xlink:href="classmemoryoracle_1_1instance_1_1Instance.html#a67d649391bded2256ff9a72e2a61143f" target="_top" xlink:title="memoryoracle.instance.Instance.index">
<polygon fill="none" stroke="black" points="207,-216 207,-235 409,-235 409,-216 207,-216"/>
<text text-anchor="middle" x="308" y="-223" font-family="Helvetica,sans-Serif" font-size="10.00">memoryoracle.instance.Instance.index</text>
</a>
</g>
</g>
<!-- Node1&#45;&gt;Node5 -->
<g id="edge4" class="edge"><title>Node1&#45;&gt;Node5</title>
<path fill="none" stroke="midnightblue" d="M126.258,-314.846C173.873,-291.309 251.699,-252.837 287.661,-235.06"/>
<polygon fill="midnightblue" stroke="midnightblue" points="124.573,-311.775 117.16,-319.344 127.675,-318.05 124.573,-311.775"/>
</g>
<!-- Node3 -->
<g id="node3" class="node"><title>Node3</title>
<g id="a_node3"><a xlink:href="classmemoryoracle_1_1instance_1_1Instance.html#a286e015a030541a0704994172024f034" target="_top" xlink:title="memoryoracle.instance.Instance.update">
<polygon fill="none" stroke="black" points="894,-316 894,-335 1104,-335 1104,-316 894,-316"/>
<text text-anchor="middle" x="999" y="-323" font-family="Helvetica,sans-Serif" font-size="10.00">memoryoracle.instance.Instance.update</text>
</a>
</g>
</g>
<!-- Node2&#45;&gt;Node3 -->
<g id="edge2" class="edge"><title>Node2&#45;&gt;Node3</title>
<path fill="none" stroke="midnightblue" d="M856.55,-332.602C868.857,-331.984 881.487,-331.35 893.891,-330.727"/>
<polygon fill="midnightblue" stroke="midnightblue" points="856.111,-329.12 846.299,-333.117 856.462,-336.111 856.111,-329.12"/>
</g>
<!-- Node4 -->
<g id="node4" class="node"><title>Node4</title>
<g id="a_node4"><a xlink:href="classmemoryoracle_1_1models_1_1Memory.html#a71d4a141abc3358afdf1a1325bfd4253" target="_top" xlink:title="memoryoracle.models.Memory.update">
<polygon fill="none" stroke="black" points="898,-254 898,-273 1100,-273 1100,-254 898,-254"/>
<text text-anchor="middle" x="999" y="-261" font-family="Helvetica,sans-Serif" font-size="10.00">memoryoracle.models.Memory.update</text>
</a>
</g>
</g>
<!-- Node2&#45;&gt;Node4 -->
<g id="edge3" class="edge"><title>Node2&#45;&gt;Node4</title>
<path fill="none" stroke="midnightblue" d="M831.974,-319.86C840.775,-317.501 849.613,-315.021 858,-312.5 898.691,-300.268 945.088,-283.448 972.931,-273.036"/>
<polygon fill="midnightblue" stroke="midnightblue" points="830.855,-316.535 822.078,-322.469 832.64,-323.304 830.855,-316.535"/>
</g>
<!-- Node6 -->
<g id="node6" class="node"><title>Node6</title>
<g id="a_node6"><a xlink:href="classmemoryoracle_1_1instance_1_1Instance.html#a254a208a64e4c7f32c514e2fb64edbbe" target="_top" xlink:title="memoryoracle.instance.Instance.\l_basic_track">
<polygon fill="none" stroke="black" points="445.5,-235.5 445.5,-265.5 621.5,-265.5 621.5,-235.5 445.5,-235.5"/>
<text text-anchor="start" x="453.5" y="-253.5" font-family="Helvetica,sans-Serif" font-size="10.00">memoryoracle.instance.Instance.</text>
<text text-anchor="middle" x="533.5" y="-242.5" font-family="Helvetica,sans-Serif" font-size="10.00">_basic_track</text>
</a>
</g>
</g>
<!-- Node5&#45;&gt;Node6 -->
<g id="edge5" class="edge"><title>Node5&#45;&gt;Node6</title>
<path fill="none" stroke="midnightblue" d="M404.448,-236.177C418.039,-237.697 431.958,-239.254 445.379,-240.755"/>
<polygon fill="midnightblue" stroke="midnightblue" points="404.46,-232.656 394.133,-235.023 403.682,-239.613 404.46,-232.656"/>
</g>
<!-- Node7 -->
<g id="node7" class="node"><title>Node7</title>
<g id="a_node7"><a xlink:href="classmemoryoracle_1_1instance_1_1Instance.html#a86649e01ee4f562debdba5421a334f78" target="_top" xlink:title="memoryoracle.instance.Instance.track">
<polygon fill="none" stroke="black" points="658,-235 658,-254 858,-254 858,-235 658,-235"/>
<text text-anchor="middle" x="758" y="-242" font-family="Helvetica,sans-Serif" font-size="10.00">memoryoracle.instance.Instance.track</text>
</a>
</g>
</g>
<!-- Node5&#45;&gt;Node7 -->
<g id="edge13" class="edge"><title>Node5&#45;&gt;Node7</title>
<path fill="none" stroke="midnightblue" d="M325.138,-242.505C348.796,-266.059 395.483,-307.518 445,-323.5 519.864,-347.663 553.544,-362.259 622,-323.5 649.062,-308.178 632.51,-281.315 658,-263.5 663.451,-259.69 669.465,-256.593 675.755,-254.08"/>
<polygon fill="midnightblue" stroke="midnightblue" points="327.532,-239.947 318.027,-235.266 322.538,-244.853 327.532,-239.947"/>
</g>
<!-- Node9 -->
<g id="node9" class="node"><title>Node9</title>
<g id="a_node9"><a xlink:href="classmemoryoracle_1_1models_1_1Memory.html#a27f8d94aeb19f8101c29a673c7bae4a1" target="_top" xlink:title="memoryoracle.models.Memory.track">
<polygon fill="none" stroke="black" points="662,-192 662,-211 854,-211 854,-192 662,-192"/>
<text text-anchor="middle" x="758" y="-199" font-family="Helvetica,sans-Serif" font-size="10.00">memoryoracle.models.Memory.track</text>
</a>
</g>
</g>
<!-- Node5&#45;&gt;Node9 -->
<g id="edge28" class="edge"><title>Node5&#45;&gt;Node9</title>
<path fill="none" stroke="midnightblue" d="M319.043,-207.096C338.333,-173.932 384.111,-105.118 445,-78.5 517.08,-46.9896 548.642,-50.0925 622,-78.5 682.909,-102.086 733.208,-167.359 750.533,-191.956"/>
<polygon fill="midnightblue" stroke="midnightblue" points="315.996,-205.373 314.115,-215.8 322.087,-208.821 315.996,-205.373"/>
</g>
<!-- Node10 -->
<g id="node10" class="node"><title>Node10</title>
<g id="a_node10"><a xlink:href="classmemoryoracle_1_1instance_1_1Array.html#a1d8c3993d8a52bfbec8240d6f79b3ce1" target="_top" xlink:title="memoryoracle.instance.Array.\l_track">
<polygon fill="none" stroke="black" points="453.5,-186.5 453.5,-216.5 613.5,-216.5 613.5,-186.5 453.5,-186.5"/>
<text text-anchor="start" x="461.5" y="-204.5" font-family="Helvetica,sans-Serif" font-size="10.00">memoryoracle.instance.Array.</text>
<text text-anchor="middle" x="533.5" y="-193.5" font-family="Helvetica,sans-Serif" font-size="10.00">_track</text>
</a>
</g>
</g>
<!-- Node5&#45;&gt;Node10 -->
<g id="edge14" class="edge"><title>Node5&#45;&gt;Node10</title>
<path fill="none" stroke="midnightblue" d="M407.647,-214.907C422.945,-213.264 438.575,-211.586 453.369,-209.997"/>
<polygon fill="midnightblue" stroke="midnightblue" points="407.223,-211.432 397.654,-215.98 407.971,-218.392 407.223,-211.432"/>
</g>
<!-- Node11 -->
<g id="node11" class="node"><title>Node11</title>
<g id="a_node11"><a xlink:href="classmemoryoracle_1_1instance_1_1Primitive.html#a68562bda9732e33fe32188597e2f4b91" target="_top" xlink:title="memoryoracle.instance.Primitive.\l_track">
<polygon fill="none" stroke="black" points="445,-137.5 445,-167.5 622,-167.5 622,-137.5 445,-137.5"/>
<text text-anchor="start" x="453" y="-155.5" font-family="Helvetica,sans-Serif" font-size="10.00">memoryoracle.instance.Primitive.</text>
<text text-anchor="middle" x="533.5" y="-144.5" font-family="Helvetica,sans-Serif" font-size="10.00">_track</text>
</a>
</g>
</g>
<!-- Node5&#45;&gt;Node11 -->
<g id="edge17" class="edge"><title>Node5&#45;&gt;Node11</title>
<path fill="none" stroke="midnightblue" d="M343.368,-212.276C370.713,-201.959 410.054,-187.569 445,-176.5 454.611,-173.456 464.885,-170.434 474.89,-167.613"/>
<polygon fill="midnightblue" stroke="midnightblue" points="341.975,-209.06 333.866,-215.879 344.458,-215.606 341.975,-209.06"/>
</g>
<!-- Node12 -->
<g id="node12" class="node"><title>Node12</title>
<g id="a_node12"><a xlink:href="classmemoryoracle_1_1instance_1_1Pointer.html#a2cc9e298adaad8bed089d90186fcde8a" target="_top" xlink:title="memoryoracle.instance.Pointer.\l_track">
<polygon fill="none" stroke="black" points="449,-88.5 449,-118.5 618,-118.5 618,-88.5 449,-88.5"/>
<text text-anchor="start" x="457" y="-106.5" font-family="Helvetica,sans-Serif" font-size="10.00">memoryoracle.instance.Pointer.</text>
<text text-anchor="middle" x="533.5" y="-95.5" font-family="Helvetica,sans-Serif" font-size="10.00">_track</text>
</a>
</g>
</g>
<!-- Node5&#45;&gt;Node12 -->
<g id="edge20" class="edge"><title>Node5&#45;&gt;Node12</title>
<path fill="none" stroke="midnightblue" d="M326.966,-209.279C351.788,-187.671 398.767,-149.609 445,-127.5 452.105,-124.102 459.773,-121.116 467.512,-118.511"/>
<polygon fill="midnightblue" stroke="midnightblue" points="324.612,-206.688 319.43,-215.929 329.244,-211.936 324.612,-206.688"/>
</g>
<!-- Node13 -->
<g id="node13" class="node"><title>Node13</title>
<g id="a_node13"><a xlink:href="classmemoryoracle_1_1instance_1_1Int.html#a38c9424341353f006771163d360594da" target="_top" xlink:title="memoryoracle.instance.Int.\l_track">
<polygon fill="none" stroke="black" points="459.5,-284.5 459.5,-314.5 607.5,-314.5 607.5,-284.5 459.5,-284.5"/>
<text text-anchor="start" x="467.5" y="-302.5" font-family="Helvetica,sans-Serif" font-size="10.00">memoryoracle.instance.Int.</text>
<text text-anchor="middle" x="533.5" y="-291.5" font-family="Helvetica,sans-Serif" font-size="10.00">_track</text>
</a>
</g>
</g>
<!-- Node5&#45;&gt;Node13 -->
<g id="edge23" class="edge"><title>Node5&#45;&gt;Node13</title>
<path fill="none" stroke="midnightblue" d="M343.4,-238.622C370.764,-248.883 410.113,-263.246 445,-274.5 455.525,-277.895 466.836,-281.303 477.717,-284.463"/>
<polygon fill="midnightblue" stroke="midnightblue" points="344.484,-235.29 333.892,-235.041 342.017,-241.841 344.484,-235.29"/>
</g>
<!-- Node14 -->
<g id="node14" class="node"><title>Node14</title>
<g id="a_node14"><a xlink:href="classmemoryoracle_1_1models_1_1Memory.html#a2291f5ce2097dda4e9216313df9e626c" target="_top" xlink:title="memoryoracle.models.Memory.\l_basic_track">
<polygon fill="none" stroke="black" points="449.5,-0.5 449.5,-30.5 617.5,-30.5 617.5,-0.5 449.5,-0.5"/>
<text text-anchor="start" x="457.5" y="-18.5" font-family="Helvetica,sans-Serif" font-size="10.00">memoryoracle.models.Memory.</text>
<text text-anchor="middle" x="533.5" y="-7.5" font-family="Helvetica,sans-Serif" font-size="10.00">_basic_track</text>
</a>
</g>
</g>
<!-- Node5&#45;&gt;Node14 -->
<g id="edge26" class="edge"><title>Node5&#45;&gt;Node14</title>
<path fill="none" stroke="midnightblue" d="M318.304,-206.662C337.199,-170.284 383.539,-90.0322 445,-45.5 453.323,-39.4696 462.953,-34.5795 472.716,-30.6363"/>
<polygon fill="midnightblue" stroke="midnightblue" points="315.125,-205.193 313.713,-215.693 321.365,-208.365 315.125,-205.193"/>
</g>
<!-- Node15 -->
<g id="node15" class="node"><title>Node15</title>
<g id="a_node15"><a xlink:href="classmemoryoracle_1_1models_1_1Memory.html#a253756ba0ddd58fc05a9463c0a181185" target="_top" xlink:title="memoryoracle.models.Memory.\l_clear_updated">
<polygon fill="none" stroke="black" points="674,-273.5 674,-303.5 842,-303.5 842,-273.5 674,-273.5"/>
<text text-anchor="start" x="682" y="-291.5" font-family="Helvetica,sans-Serif" font-size="10.00">memoryoracle.models.Memory.</text>
<text text-anchor="middle" x="758" y="-280.5" font-family="Helvetica,sans-Serif" font-size="10.00">_clear_updated</text>
</a>
</g>
</g>
<!-- Node5&#45;&gt;Node15 -->
<g id="edge29" class="edge"><title>Node5&#45;&gt;Node15</title>
<path fill="none" stroke="midnightblue" d="M321.555,-243.482C342.959,-272.37 389.618,-328.042 445,-349.5 518.353,-377.921 549.529,-380.101 622,-349.5 643.137,-340.575 638.071,-323.87 658,-312.5 664.068,-309.038 670.62,-306.073 677.362,-303.534"/>
<polygon fill="midnightblue" stroke="midnightblue" points="324.207,-241.177 315.514,-235.122 318.534,-245.277 324.207,-241.177"/>
</g>
<!-- Node6&#45;&gt;Node7 -->
<g id="edge6" class="edge"><title>Node6&#45;&gt;Node7</title>
<path fill="none" stroke="midnightblue" d="M631.841,-247.875C640.449,-247.643 649.171,-247.408 657.795,-247.175"/>
<polygon fill="midnightblue" stroke="midnightblue" points="631.701,-244.377 621.799,-248.146 631.89,-251.375 631.701,-244.377"/>
</g>
<!-- Node6&#45;&gt;Node9 -->
<g id="edge10" class="edge"><title>Node6&#45;&gt;Node9</title>
<path fill="none" stroke="midnightblue" d="M612.673,-233.284C646.607,-225.811 685.059,-217.343 713.735,-211.028"/>
<polygon fill="midnightblue" stroke="midnightblue" points="611.783,-229.897 602.769,-235.465 613.288,-236.733 611.783,-229.897"/>
</g>
<!-- Node7&#45;&gt;Node3 -->
<g id="edge7" class="edge"><title>Node7&#45;&gt;Node3</title>
<path fill="none" stroke="midnightblue" d="M833.464,-256.309C841.837,-258.367 850.167,-260.75 858,-263.5 875.07,-269.493 877.623,-274.813 894,-282.5 920.53,-294.952 951.676,-307.575 972.92,-315.893"/>
<polygon fill="midnightblue" stroke="midnightblue" points="834.173,-252.881 823.642,-254.04 832.597,-259.701 834.173,-252.881"/>
</g>
<!-- Node7&#45;&gt;Node4 -->
<g id="edge8" class="edge"><title>Node7&#45;&gt;Node4</title>
<path fill="none" stroke="midnightblue" d="M868.454,-253.201C878.259,-253.981 888.154,-254.767 897.873,-255.54"/>
<polygon fill="midnightblue" stroke="midnightblue" points="868.527,-249.696 858.281,-252.393 867.972,-256.674 868.527,-249.696"/>
</g>
<!-- Node8 -->
<g id="node8" class="node"><title>Node8</title>
<g id="a_node8"><a xlink:href="classmemoryoracle_1_1models_1_1Memory.html#aed3af349dd80317ae9cca4b4e9cb7c26" target="_top" xlink:title="memoryoracle.models.Memory.\l__init__">
<polygon fill="none" stroke="black" points="915,-192.5 915,-222.5 1083,-222.5 1083,-192.5 915,-192.5"/>
<text text-anchor="start" x="923" y="-210.5" font-family="Helvetica,sans-Serif" font-size="10.00">memoryoracle.models.Memory.</text>
<text text-anchor="middle" x="999" y="-199.5" font-family="Helvetica,sans-Serif" font-size="10.00">__init__</text>
</a>
</g>
</g>
<!-- Node7&#45;&gt;Node8 -->
<g id="edge9" class="edge"><title>Node7&#45;&gt;Node8</title>
<path fill="none" stroke="midnightblue" d="M830.49,-233.433C856.946,-229.337 887.167,-224.658 914.59,-220.413"/>
<polygon fill="midnightblue" stroke="midnightblue" points="829.895,-229.983 820.548,-234.972 830.966,-236.9 829.895,-229.983"/>
</g>
<!-- Node9&#45;&gt;Node4 -->
<g id="edge11" class="edge"><title>Node9&#45;&gt;Node4</title>
<path fill="none" stroke="midnightblue" d="M809.493,-213.46C825.07,-217.225 842.263,-221.457 858,-225.5 894.224,-234.805 935.531,-246.101 963.835,-253.948"/>
<polygon fill="midnightblue" stroke="midnightblue" points="810.064,-209.998 799.522,-211.06 808.426,-216.803 810.064,-209.998"/>
</g>
<!-- Node9&#45;&gt;Node8 -->
<g id="edge12" class="edge"><title>Node9&#45;&gt;Node8</title>
<path fill="none" stroke="midnightblue" d="M864.555,-204.15C881.37,-204.572 898.558,-205.004 914.763,-205.41"/>
<polygon fill="midnightblue" stroke="midnightblue" points="864.231,-200.641 854.146,-203.889 864.055,-207.639 864.231,-200.641"/>
</g>
<!-- Node10&#45;&gt;Node7 -->
<g id="edge15" class="edge"><title>Node10&#45;&gt;Node7</title>
<path fill="none" stroke="midnightblue" d="M622.471,-218.501C651.47,-224.105 682.677,-230.137 707.728,-234.978"/>
<polygon fill="midnightblue" stroke="midnightblue" points="622.802,-215 612.32,-216.539 621.474,-221.873 622.802,-215"/>
</g>
<!-- Node10&#45;&gt;Node9 -->
<g id="edge16" class="edge"><title>Node10&#45;&gt;Node9</title>
<path fill="none" stroke="midnightblue" d="M623.936,-201.5C636.399,-201.5 649.242,-201.5 661.805,-201.5"/>
<polygon fill="midnightblue" stroke="midnightblue" points="623.572,-198 613.572,-201.5 623.572,-205 623.572,-198"/>
</g>
<!-- Node11&#45;&gt;Node7 -->
<g id="edge18" class="edge"><title>Node11&#45;&gt;Node7</title>
<path fill="none" stroke="midnightblue" d="M614.28,-171.985C616.941,-173.388 619.524,-174.89 622,-176.5 643.185,-190.27 636.612,-207.047 658,-220.5 668.105,-226.856 679.764,-231.528 691.455,-234.964"/>
<polygon fill="midnightblue" stroke="midnightblue" points="615.513,-168.697 604.976,-167.591 612.524,-175.027 615.513,-168.697"/>
</g>
<!-- Node11&#45;&gt;Node9 -->
<g id="edge19" class="edge"><title>Node11&#45;&gt;Node9</title>
<path fill="none" stroke="midnightblue" d="M612.673,-169.716C646.607,-177.189 685.059,-185.657 713.735,-191.972"/>
<polygon fill="midnightblue" stroke="midnightblue" points="613.288,-166.267 602.769,-167.535 611.783,-173.103 613.288,-166.267"/>
</g>
<!-- Node12&#45;&gt;Node7 -->
<g id="edge21" class="edge"><title>Node12&#45;&gt;Node7</title>
<path fill="none" stroke="midnightblue" d="M618.372,-124.468C619.62,-125.434 620.831,-126.444 622,-127.5 654.892,-157.208 624.668,-191.286 658,-220.5 665.116,-226.736 673.581,-231.414 682.521,-234.913"/>
<polygon fill="midnightblue" stroke="midnightblue" points="619.922,-121.298 609.648,-118.708 616.065,-127.139 619.922,-121.298"/>
</g>
<!-- Node12&#45;&gt;Node9 -->
<g id="edge22" class="edge"><title>Node12&#45;&gt;Node9</title>
<path fill="none" stroke="midnightblue" d="M606.405,-121.751C611.732,-123.55 616.981,-125.469 622,-127.5 667.835,-146.05 717.925,-176.435 742.184,-191.862"/>
<polygon fill="midnightblue" stroke="midnightblue" points="607.358,-118.381 596.767,-118.642 605.209,-125.043 607.358,-118.381"/>
</g>
<!-- Node13&#45;&gt;Node7 -->
<g id="edge24" class="edge"><title>Node13&#45;&gt;Node7</title>
<path fill="none" stroke="midnightblue" d="M597.406,-281.676C605.684,-279.287 614.051,-276.85 622,-274.5 638.044,-269.757 641.762,-267.527 658,-263.5 672.099,-260.004 687.462,-256.777 701.788,-254.013"/>
<polygon fill="midnightblue" stroke="midnightblue" points="596.401,-278.323 587.758,-284.451 598.336,-285.05 596.401,-278.323"/>
</g>
<!-- Node13&#45;&gt;Node9 -->
<g id="edge25" class="edge"><title>Node13&#45;&gt;Node9</title>
<path fill="none" stroke="midnightblue" d="M612.947,-280.036C616.09,-278.341 619.124,-276.5 622,-274.5 644.185,-259.069 635.508,-240.479 658,-225.5 667.568,-219.128 678.66,-214.445 689.884,-211.003"/>
<polygon fill="midnightblue" stroke="midnightblue" points="611.323,-276.934 603.841,-284.435 614.367,-283.237 611.323,-276.934"/>
</g>
<!-- Node14&#45;&gt;Node9 -->
<g id="edge27" class="edge"><title>Node14&#45;&gt;Node9</title>
<path fill="none" stroke="midnightblue" d="M602.152,-34.5846C609.112,-37.7398 615.869,-41.3607 622,-45.5 684.04,-87.3875 734.76,-164.858 751.293,-191.892"/>
<polygon fill="midnightblue" stroke="midnightblue" points="603.151,-31.2081 592.575,-30.5659 600.442,-37.6628 603.151,-31.2081"/>
</g>
<!-- Node15&#45;&gt;Node4 -->
<g id="edge30" class="edge"><title>Node15&#45;&gt;Node4</title>
<path fill="none" stroke="midnightblue" d="M852.401,-278.73C870.315,-276.856 889.05,-274.896 906.89,-273.03"/>
<polygon fill="midnightblue" stroke="midnightblue" points="851.837,-275.27 842.255,-279.791 852.565,-282.232 851.837,-275.27"/>
</g>
</g>
</svg>
