<?xml version="1.0" encoding="UTF-8" standalone="no"?>
<!DOCTYPE svg PUBLIC "-//W3C//DTD SVG 1.1//EN"
 "http://www.w3.org/Graphics/SVG/1.1/DTD/svg11.dtd">
<!-- Generated by graphviz version 2.38.0 (20140413.2041)
 -->
<!-- Title: memoryoracle.symbol.Type Pages: 1 -->
<svg width="726pt" height="674pt"
 viewBox="0.00 0.00 726.00 674.00" xmlns="http://www.w3.org/2000/svg" xmlns:xlink="http://www.w3.org/1999/xlink">
<g id="graph0" class="graph" transform="scale(1 1) rotate(0) translate(4 670)">
<title>memoryoracle.symbol.Type</title>
<!-- Node1 -->
<g id="node1" class="node"><title>Node1</title>
<polygon fill="#bfbfbf" stroke="black" points="286.5,-199.5 286.5,-256.5 434.5,-256.5 434.5,-199.5 286.5,-199.5"/>
<text text-anchor="middle" x="360.5" y="-244.5" font-family="Helvetica,sans-Serif" font-size="10.00">memoryoracle.symbol.Type</text>
<polyline fill="none" stroke="black" points="286.5,-237.5 434.5,-237.5 "/>
<text text-anchor="middle" x="360.5" y="-225.5" font-family="Helvetica,sans-Serif" font-size="10.00"> </text>
<polyline fill="none" stroke="black" points="286.5,-218.5 434.5,-218.5 "/>
<text text-anchor="middle" x="360.5" y="-206.5" font-family="Helvetica,sans-Serif" font-size="10.00"> </text>
</g>
<!-- Node6 -->
<g id="node6" class="node"><title>Node6</title>
<g id="a_node6"><a xlink:href="classmemoryoracle_1_1symbol_1_1Enum.html" target="_top" xlink:title="{memoryoracle.symbol.Enum\n||}">
<polygon fill="none" stroke="black" points="0,-105.5 0,-162.5 155,-162.5 155,-105.5 0,-105.5"/>
<text text-anchor="middle" x="77.5" y="-150.5" font-family="Helvetica,sans-Serif" font-size="10.00">memoryoracle.symbol.Enum</text>
<polyline fill="none" stroke="black" points="0,-143.5 155,-143.5 "/>
<text text-anchor="middle" x="77.5" y="-131.5" font-family="Helvetica,sans-Serif" font-size="10.00"> </text>
<polyline fill="none" stroke="black" points="0,-124.5 155,-124.5 "/>
<text text-anchor="middle" x="77.5" y="-112.5" font-family="Helvetica,sans-Serif" font-size="10.00"> </text>
</a>
</g>
</g>
<!-- Node1&#45;&gt;Node6 -->
<g id="edge5" class="edge"><title>Node1&#45;&gt;Node6</title>
<path fill="none" stroke="midnightblue" d="M276.441,-199.705C241.506,-188.357 200.542,-175.047 163.5,-163 160.812,-162.126 158.077,-161.236 155.315,-160.338"/>
<polygon fill="none" stroke="midnightblue" points="275.534,-203.09 286.127,-202.85 277.697,-196.432 275.534,-203.09"/>
</g>
<!-- Node7 -->
<g id="node7" class="node"><title>Node7</title>
<g id="a_node7"><a xlink:href="classmemoryoracle_1_1symbol_1_1SimpleType.html" target="_top" xlink:title="{memoryoracle.symbol.SimpleType\n||}">
<polygon fill="none" stroke="black" points="173,-105.5 173,-162.5 354,-162.5 354,-105.5 173,-105.5"/>
<text text-anchor="middle" x="263.5" y="-150.5" font-family="Helvetica,sans-Serif" font-size="10.00">memoryoracle.symbol.SimpleType</text>
<polyline fill="none" stroke="black" points="173,-143.5 354,-143.5 "/>
<text text-anchor="middle" x="263.5" y="-131.5" font-family="Helvetica,sans-Serif" font-size="10.00"> </text>
<polyline fill="none" stroke="black" points="173,-124.5 354,-124.5 "/>
<text text-anchor="middle" x="263.5" y="-112.5" font-family="Helvetica,sans-Serif" font-size="10.00"> </text>
</a>
</g>
</g>
<!-- Node1&#45;&gt;Node7 -->
<g id="edge6" class="edge"><title>Node1&#45;&gt;Node7</title>
<path fill="none" stroke="midnightblue" d="M324.006,-192.387C313.624,-182.541 302.46,-171.952 292.583,-162.584"/>
<polygon fill="none" stroke="midnightblue" points="321.733,-195.055 331.397,-199.397 326.55,-189.976 321.733,-195.055"/>
</g>
<!-- Node8 -->
<g id="node8" class="node"><title>Node8</title>
<g id="a_node8"><a xlink:href="classmemoryoracle_1_1symbol_1_1Structure.html" target="_top" xlink:title="{memoryoracle.symbol.Structure\n||}">
<polygon fill="none" stroke="black" points="372.5,-105.5 372.5,-162.5 544.5,-162.5 544.5,-105.5 372.5,-105.5"/>
<text text-anchor="middle" x="458.5" y="-150.5" font-family="Helvetica,sans-Serif" font-size="10.00">memoryoracle.symbol.Structure</text>
<polyline fill="none" stroke="black" points="372.5,-143.5 544.5,-143.5 "/>
<text text-anchor="middle" x="458.5" y="-131.5" font-family="Helvetica,sans-Serif" font-size="10.00"> </text>
<polyline fill="none" stroke="black" points="372.5,-124.5 544.5,-124.5 "/>
<text text-anchor="middle" x="458.5" y="-112.5" font-family="Helvetica,sans-Serif" font-size="10.00"> </text>
</a>
</g>
</g>
<!-- Node1&#45;&gt;Node8 -->
<g id="edge7" class="edge"><title>Node1&#45;&gt;Node8</title>
<path fill="none" stroke="midnightblue" d="M397.371,-192.387C407.859,-182.541 419.138,-171.952 429.118,-162.584"/>
<polygon fill="none" stroke="midnightblue" points="394.798,-190.001 389.903,-199.397 399.59,-195.104 394.798,-190.001"/>
</g>
<!-- Node10 -->
<g id="node10" class="node"><title>Node10</title>
<g id="a_node10"><a xlink:href="classmemoryoracle_1_1symbol_1_1Union.html" target="_top" xlink:title="{memoryoracle.symbol.Union\n||}">
<polygon fill="none" stroke="black" points="563,-105.5 563,-162.5 718,-162.5 718,-105.5 563,-105.5"/>
<text text-anchor="middle" x="640.5" y="-150.5" font-family="Helvetica,sans-Serif" font-size="10.00">memoryoracle.symbol.Union</text>
<polyline fill="none" stroke="black" points="563,-143.5 718,-143.5 "/>
<text text-anchor="middle" x="640.5" y="-131.5" font-family="Helvetica,sans-Serif" font-size="10.00"> </text>
<polyline fill="none" stroke="black" points="563,-124.5 718,-124.5 "/>
<text text-anchor="middle" x="640.5" y="-112.5" font-family="Helvetica,sans-Serif" font-size="10.00"> </text>
</a>
</g>
</g>
<!-- Node1&#45;&gt;Node10 -->
<g id="edge9" class="edge"><title>Node1&#45;&gt;Node10</title>
<path fill="none" stroke="midnightblue" d="M444.701,-199.334C482.242,-186.999 526.184,-172.561 562.917,-160.492"/>
<polygon fill="none" stroke="midnightblue" points="443.208,-196.141 434.8,-202.587 445.393,-202.791 443.208,-196.141"/>
</g>
<!-- Node2 -->
<g id="node2" class="node"><title>Node2</title>
<g id="a_node2"><a xlink:href="classmemoryoracle_1_1symbol_1_1Symbol.html" target="_top" xlink:title="{memoryoracle.symbol.Symbol\n||}">
<polygon fill="none" stroke="black" points="279,-293.5 279,-350.5 442,-350.5 442,-293.5 279,-293.5"/>
<text text-anchor="middle" x="360.5" y="-338.5" font-family="Helvetica,sans-Serif" font-size="10.00">memoryoracle.symbol.Symbol</text>
<polyline fill="none" stroke="black" points="279,-331.5 442,-331.5 "/>
<text text-anchor="middle" x="360.5" y="-319.5" font-family="Helvetica,sans-Serif" font-size="10.00"> </text>
<polyline fill="none" stroke="black" points="279,-312.5 442,-312.5 "/>
<text text-anchor="middle" x="360.5" y="-300.5" font-family="Helvetica,sans-Serif" font-size="10.00"> </text>
</a>
</g>
</g>
<!-- Node2&#45;&gt;Node1 -->
<g id="edge1" class="edge"><title>Node2&#45;&gt;Node1</title>
<path fill="none" stroke="midnightblue" d="M360.5,-283.209C360.5,-274.293 360.5,-264.951 360.5,-256.584"/>
<polygon fill="none" stroke="midnightblue" points="357,-283.397 360.5,-293.397 364,-283.397 357,-283.397"/>
</g>
<!-- Node3 -->
<g id="node3" class="node"><title>Node3</title>
<g id="a_node3"><a xlink:href="classmemoryoracle_1_1typed_1_1Typed.html" target="_top" xlink:title="{memoryoracle.typed.Typed\n||+ type_code()\l+ gdb_type()\l+ object()\l}">
<polygon fill="none" stroke="black" points="287.5,-387.5 287.5,-466.5 433.5,-466.5 433.5,-387.5 287.5,-387.5"/>
<text text-anchor="middle" x="360.5" y="-454.5" font-family="Helvetica,sans-Serif" font-size="10.00">memoryoracle.typed.Typed</text>
<polyline fill="none" stroke="black" points="287.5,-447.5 433.5,-447.5 "/>
<text text-anchor="middle" x="360.5" y="-435.5" font-family="Helvetica,sans-Serif" font-size="10.00"> </text>
<polyline fill="none" stroke="black" points="287.5,-428.5 433.5,-428.5 "/>
<text text-anchor="start" x="295.5" y="-416.5" font-family="Helvetica,sans-Serif" font-size="10.00">+ type_code()</text>
<text text-anchor="start" x="295.5" y="-405.5" font-family="Helvetica,sans-Serif" font-size="10.00">+ gdb_type()</text>
<text text-anchor="start" x="295.5" y="-394.5" font-family="Helvetica,sans-Serif" font-size="10.00">+ object()</text>
</a>
</g>
</g>
<!-- Node3&#45;&gt;Node2 -->
<g id="edge2" class="edge"><title>Node3&#45;&gt;Node2</title>
<path fill="none" stroke="midnightblue" d="M360.5,-377.163C360.5,-368.04 360.5,-358.806 360.5,-350.61"/>
<polygon fill="none" stroke="midnightblue" points="357,-377.354 360.5,-387.354 364,-377.354 357,-377.354"/>
</g>
<!-- Node4 -->
<g id="node4" class="node"><title>Node4</title>
<g id="a_node4"><a xlink:href="classmemoryoracle_1_1tracked_1_1Tracked.html" target="_top" xlink:title="{memoryoracle.tracked.Tracked\n|+ meta\l|+ track()\l+ description()\l}">
<polygon fill="none" stroke="black" points="278.5,-503.5 278.5,-571.5 442.5,-571.5 442.5,-503.5 278.5,-503.5"/>
<text text-anchor="middle" x="360.5" y="-559.5" font-family="Helvetica,sans-Serif" font-size="10.00">memoryoracle.tracked.Tracked</text>
<polyline fill="none" stroke="black" points="278.5,-552.5 442.5,-552.5 "/>
<text text-anchor="start" x="286.5" y="-540.5" font-family="Helvetica,sans-Serif" font-size="10.00">+ meta</text>
<polyline fill="none" stroke="black" points="278.5,-533.5 442.5,-533.5 "/>
<text text-anchor="start" x="286.5" y="-521.5" font-family="Helvetica,sans-Serif" font-size="10.00">+ track()</text>
<text text-anchor="start" x="286.5" y="-510.5" font-family="Helvetica,sans-Serif" font-size="10.00">+ description()</text>
</a>
</g>
</g>
<!-- Node4&#45;&gt;Node3 -->
<g id="edge3" class="edge"><title>Node4&#45;&gt;Node3</title>
<path fill="none" stroke="midnightblue" d="M360.5,-493.274C360.5,-484.476 360.5,-475.275 360.5,-466.649"/>
<polygon fill="none" stroke="midnightblue" points="357,-493.357 360.5,-503.357 364,-493.357 357,-493.357"/>
</g>
<!-- Node5 -->
<g id="node5" class="node"><title>Node5</title>
<polygon fill="none" stroke="#bfbfbf" points="327,-608.5 327,-665.5 394,-665.5 394,-608.5 327,-608.5"/>
<text text-anchor="middle" x="360.5" y="-653.5" font-family="Helvetica,sans-Serif" font-size="10.00">Document</text>
<polyline fill="none" stroke="#bfbfbf" points="327,-646.5 394,-646.5 "/>
<text text-anchor="middle" x="360.5" y="-634.5" font-family="Helvetica,sans-Serif" font-size="10.00"> </text>
<polyline fill="none" stroke="#bfbfbf" points="327,-627.5 394,-627.5 "/>
<text text-anchor="middle" x="360.5" y="-615.5" font-family="Helvetica,sans-Serif" font-size="10.00"> </text>
</g>
<!-- Node5&#45;&gt;Node4 -->
<g id="edge4" class="edge"><title>Node5&#45;&gt;Node4</title>
<path fill="none" stroke="midnightblue" d="M360.5,-598.063C360.5,-589.393 360.5,-580.243 360.5,-571.786"/>
<polygon fill="none" stroke="midnightblue" points="357,-598.321 360.5,-608.321 364,-598.321 357,-598.321"/>
</g>
<!-- Node9 -->
<g id="node9" class="node"><title>Node9</title>
<g id="a_node9"><a xlink:href="classmemoryoracle_1_1symbol_1_1StronglyTypedEnum.html" target="_top" xlink:title="{memoryoracle.symbol.Strongly\lTypedEnum\n||}">
<polygon fill="none" stroke="black" points="375,-0.5 375,-68.5 542,-68.5 542,-0.5 375,-0.5"/>
<text text-anchor="start" x="383" y="-56.5" font-family="Helvetica,sans-Serif" font-size="10.00">memoryoracle.symbol.Strongly</text>
<text text-anchor="middle" x="458.5" y="-45.5" font-family="Helvetica,sans-Serif" font-size="10.00">TypedEnum</text>
<polyline fill="none" stroke="black" points="375,-38.5 542,-38.5 "/>
<text text-anchor="middle" x="458.5" y="-26.5" font-family="Helvetica,sans-Serif" font-size="10.00"> </text>
<polyline fill="none" stroke="black" points="375,-19.5 542,-19.5 "/>
<text text-anchor="middle" x="458.5" y="-7.5" font-family="Helvetica,sans-Serif" font-size="10.00"> </text>
</a>
</g>
</g>
<!-- Node8&#45;&gt;Node9 -->
<g id="edge8" class="edge"><title>Node8&#45;&gt;Node9</title>
<path fill="none" stroke="midnightblue" d="M458.5,-95.0631C458.5,-86.3933 458.5,-77.2431 458.5,-68.7855"/>
<polygon fill="none" stroke="midnightblue" points="455,-95.3212 458.5,-105.321 462,-95.3212 455,-95.3212"/>
</g>
</g>
</svg>
