<?xml version="1.0" encoding="UTF-8" standalone="no"?>
<!DOCTYPE svg PUBLIC "-//W3C//DTD SVG 1.1//EN"
 "http://www.w3.org/Graphics/SVG/1.1/DTD/svg11.dtd">
<!-- Generated by graphviz version 2.38.0 (20140413.2041)
 -->
<!-- Title: memoryoracle.models.ObjectFile.Meta Pages: 1 -->
<svg width="166pt" height="182pt"
 viewBox="0.00 0.00 166.00 182.00" xmlns="http://www.w3.org/2000/svg" xmlns:xlink="http://www.w3.org/1999/xlink">
<g id="graph0" class="graph" transform="scale(1 1) rotate(0) translate(4 178)">
<title>memoryoracle.models.ObjectFile.Meta</title>
<!-- Node1 -->
<g id="node1" class="node"><title>Node1</title>
<polygon fill="#bfbfbf" stroke="black" points="-1.42109e-14,-0.5 -1.42109e-14,-68.5 158,-68.5 158,-0.5 -1.42109e-14,-0.5"/>
<text text-anchor="start" x="8" y="-56.5" font-family="Helvetica,sans-Serif" font-size="10.00">memoryoracle.models.Object</text>
<text text-anchor="middle" x="79" y="-45.5" font-family="Helvetica,sans-Serif" font-size="10.00">File.Meta</text>
<polyline fill="none" stroke="black" points="-1.42109e-14,-38.5 158,-38.5 "/>
<text text-anchor="middle" x="79" y="-26.5" font-family="Helvetica,sans-Serif" font-size="10.00"> </text>
<polyline fill="none" stroke="black" points="-1.42109e-14,-19.5 158,-19.5 "/>
<text text-anchor="middle" x="79" y="-7.5" font-family="Helvetica,sans-Serif" font-size="10.00"> </text>
</g>
<!-- Node2 -->
<g id="node2" class="node"><title>Node2</title>
<polygon fill="none" stroke="#bfbfbf" points="57,-116.5 57,-173.5 101,-173.5 101,-116.5 57,-116.5"/>
<text text-anchor="middle" x="79" y="-161.5" font-family="Helvetica,sans-Serif" font-size="10.00">string</text>
<polyline fill="none" stroke="#bfbfbf" points="57,-154.5 101,-154.5 "/>
<text text-anchor="middle" x="79" y="-142.5" font-family="Helvetica,sans-Serif" font-size="10.00"> </text>
<polyline fill="none" stroke="#bfbfbf" points="57,-135.5 101,-135.5 "/>
<text text-anchor="middle" x="79" y="-123.5" font-family="Helvetica,sans-Serif" font-size="10.00"> </text>
</g>
<!-- Node2&#45;&gt;Node1 -->
<g id="edge1" class="edge"><title>Node2&#45;&gt;Node1</title>
<path fill="none" stroke="#404040" d="M79,-116.34C79,-105.529 79,-92.847 79,-80.7745"/>
<polygon fill="none" stroke="#404040" points="79.0001,-80.5186 75,-74.5186 79,-68.5186 83,-74.5185 79.0001,-80.5186"/>
<text text-anchor="middle" x="105.5" y="-90" font-family="Helvetica,sans-Serif" font-size="10.00"> +db_table</text>
</g>
</g>
</svg>
