<?xml version="1.0" encoding="UTF-8" standalone="no"?>
<!DOCTYPE svg PUBLIC "-//W3C//DTD SVG 1.1//EN"
 "http://www.w3.org/Graphics/SVG/1.1/DTD/svg11.dtd">
<!-- Generated by graphviz version 2.38.0 (20140413.2041)
 -->
<!-- Title: memoryoracle.descriptions.Description Pages: 1 -->
<svg width="852pt" height="645pt"
 viewBox="0.00 0.00 851.50 645.00" xmlns="http://www.w3.org/2000/svg" xmlns:xlink="http://www.w3.org/1999/xlink">
<g id="graph0" class="graph" transform="scale(1 1) rotate(0) translate(4 641)">
<title>memoryoracle.descriptions.Description</title>
<!-- Node1 -->
<g id="node1" class="node"><title>Node1</title>
<polygon fill="#bfbfbf" stroke="black" points="344,-430.5 344,-542.5 494,-542.5 494,-430.5 344,-430.5"/>
<text text-anchor="start" x="352" y="-530.5" font-family="Helvetica,sans-Serif" font-size="10.00">memoryoracle.descriptions.</text>
<text text-anchor="middle" x="419" y="-519.5" font-family="Helvetica,sans-Serif" font-size="10.00">Description</text>
<polyline fill="none" stroke="black" points="344,-512.5 494,-512.5 "/>
<text text-anchor="start" x="352" y="-500.5" font-family="Helvetica,sans-Serif" font-size="10.00">&#45; _id</text>
<polyline fill="none" stroke="black" points="344,-493.5 494,-493.5 "/>
<text text-anchor="start" x="352" y="-481.5" font-family="Helvetica,sans-Serif" font-size="10.00">+ __init__()</text>
<text text-anchor="start" x="352" y="-470.5" font-family="Helvetica,sans-Serif" font-size="10.00">+ id()</text>
<text text-anchor="start" x="352" y="-459.5" font-family="Helvetica,sans-Serif" font-size="10.00">+ name()</text>
<text text-anchor="start" x="352" y="-448.5" font-family="Helvetica,sans-Serif" font-size="10.00">+ dict()</text>
<text text-anchor="start" x="352" y="-437.5" font-family="Helvetica,sans-Serif" font-size="10.00">&#45; _init()</text>
</g>
<!-- Node3 -->
<g id="node3" class="node"><title>Node3</title>
<g id="a_node3"><a xlink:href="classmemoryoracle_1_1descriptions_1_1BlackBoxDecorator.html" target="_top" xlink:title="{memoryoracle.descriptions.\lBlackBoxDecorator\n|&#45; _description\l|+ __init__()\l+ description()\l+ name()\l}">
<polygon fill="none" stroke="black" points="0,-204.5 0,-294.5 150,-294.5 150,-204.5 0,-204.5"/>
<text text-anchor="start" x="8" y="-282.5" font-family="Helvetica,sans-Serif" font-size="10.00">memoryoracle.descriptions.</text>
<text text-anchor="middle" x="75" y="-271.5" font-family="Helvetica,sans-Serif" font-size="10.00">BlackBoxDecorator</text>
<polyline fill="none" stroke="black" points="0,-264.5 150,-264.5 "/>
<text text-anchor="start" x="8" y="-252.5" font-family="Helvetica,sans-Serif" font-size="10.00">&#45; _description</text>
<polyline fill="none" stroke="black" points="0,-245.5 150,-245.5 "/>
<text text-anchor="start" x="8" y="-233.5" font-family="Helvetica,sans-Serif" font-size="10.00">+ __init__()</text>
<text text-anchor="start" x="8" y="-222.5" font-family="Helvetica,sans-Serif" font-size="10.00">+ description()</text>
<text text-anchor="start" x="8" y="-211.5" font-family="Helvetica,sans-Serif" font-size="10.00">+ name()</text>
</a>
</g>
</g>
<!-- Node1&#45;&gt;Node3 -->
<g id="edge2" class="edge"><title>Node1&#45;&gt;Node3</title>
<path fill="none" stroke="midnightblue" d="M333.733,-471.211C278.99,-458.501 209.039,-435.282 159,-394 127.268,-367.822 104.836,-326.324 91.1816,-294.673"/>
<polygon fill="none" stroke="midnightblue" points="333.246,-474.689 343.77,-473.464 334.779,-467.858 333.246,-474.689"/>
</g>
<!-- Node4 -->
<g id="node4" class="node"><title>Node4</title>
<g id="a_node4"><a xlink:href="classmemoryoracle_1_1descriptions_1_1ExternalDescriptionDecorator.html" target="_top" xlink:title="{memoryoracle.descriptions.\lExternalDescriptionDecorator\n|&#45; _description\l|+ __init__()\l+ description()\l+ name()\l}">
<polygon fill="none" stroke="black" points="168,-204.5 168,-294.5 326,-294.5 326,-204.5 168,-204.5"/>
<text text-anchor="start" x="176" y="-282.5" font-family="Helvetica,sans-Serif" font-size="10.00">memoryoracle.descriptions.</text>
<text text-anchor="middle" x="247" y="-271.5" font-family="Helvetica,sans-Serif" font-size="10.00">ExternalDescriptionDecorator</text>
<polyline fill="none" stroke="black" points="168,-264.5 326,-264.5 "/>
<text text-anchor="start" x="176" y="-252.5" font-family="Helvetica,sans-Serif" font-size="10.00">&#45; _description</text>
<polyline fill="none" stroke="black" points="168,-245.5 326,-245.5 "/>
<text text-anchor="start" x="176" y="-233.5" font-family="Helvetica,sans-Serif" font-size="10.00">+ __init__()</text>
<text text-anchor="start" x="176" y="-222.5" font-family="Helvetica,sans-Serif" font-size="10.00">+ description()</text>
<text text-anchor="start" x="176" y="-211.5" font-family="Helvetica,sans-Serif" font-size="10.00">+ name()</text>
</a>
</g>
</g>
<!-- Node1&#45;&gt;Node4 -->
<g id="edge3" class="edge"><title>Node1&#45;&gt;Node4</title>
<path fill="none" stroke="midnightblue" d="M358.384,-422.602C350.231,-413.255 342.205,-403.548 335,-394 311.061,-362.273 287.721,-323.756 271.1,-294.618"/>
<polygon fill="none" stroke="midnightblue" points="355.999,-425.189 365.248,-430.358 361.242,-420.55 355.999,-425.189"/>
</g>
<!-- Node5 -->
<g id="node5" class="node"><title>Node5</title>
<g id="a_node5"><a xlink:href="classmemoryoracle_1_1descriptions_1_1FileDescription.html" target="_top" xlink:title="{memoryoracle.descriptions.\lFileDescription\n||}">
<polygon fill="none" stroke="black" points="344,-215.5 344,-283.5 494,-283.5 494,-215.5 344,-215.5"/>
<text text-anchor="start" x="352" y="-271.5" font-family="Helvetica,sans-Serif" font-size="10.00">memoryoracle.descriptions.</text>
<text text-anchor="middle" x="419" y="-260.5" font-family="Helvetica,sans-Serif" font-size="10.00">FileDescription</text>
<polyline fill="none" stroke="black" points="344,-253.5 494,-253.5 "/>
<text text-anchor="middle" x="419" y="-241.5" font-family="Helvetica,sans-Serif" font-size="10.00"> </text>
<polyline fill="none" stroke="black" points="344,-234.5 494,-234.5 "/>
<text text-anchor="middle" x="419" y="-222.5" font-family="Helvetica,sans-Serif" font-size="10.00"> </text>
</a>
</g>
</g>
<!-- Node1&#45;&gt;Node5 -->
<g id="edge4" class="edge"><title>Node1&#45;&gt;Node5</title>
<path fill="none" stroke="midnightblue" d="M419,-420.26C419,-375.813 419,-318.835 419,-283.501"/>
<polygon fill="none" stroke="midnightblue" points="415.5,-420.403 419,-430.403 422.5,-420.403 415.5,-420.403"/>
</g>
<!-- Node8 -->
<g id="node8" class="node"><title>Node8</title>
<g id="a_node8"><a xlink:href="classmemoryoracle_1_1descriptions_1_1MemoryDescription.html" target="_top" xlink:title="{memoryoracle.descriptions.\lMemoryDescription\n|&#45; _name\l&#45; _address\l&#45; _parent\l&#45; _symbol\l&#45; _execution\l&#45; _relativeName\l&#45; _parentClass\l&#45; _frame\l&#45; _object\l&#45; _type_name\l&#45; _parent_classifications\l|+ __init__()\l+ dict()\l+ relative_name()\l+ type_name()\l+ address()\l+ parent()\l+ parent_class()\l+ object()\l+ frame()\l+ execution()\l+ find_true_type_name()\l}">
<polygon fill="none" stroke="black" points="512,-105.5 512,-393.5 662,-393.5 662,-105.5 512,-105.5"/>
<text text-anchor="start" x="520" y="-381.5" font-family="Helvetica,sans-Serif" font-size="10.00">memoryoracle.descriptions.</text>
<text text-anchor="middle" x="587" y="-370.5" font-family="Helvetica,sans-Serif" font-size="10.00">MemoryDescription</text>
<polyline fill="none" stroke="black" points="512,-363.5 662,-363.5 "/>
<text text-anchor="start" x="520" y="-351.5" font-family="Helvetica,sans-Serif" font-size="10.00">&#45; _name</text>
<text text-anchor="start" x="520" y="-340.5" font-family="Helvetica,sans-Serif" font-size="10.00">&#45; _address</text>
<text text-anchor="start" x="520" y="-329.5" font-family="Helvetica,sans-Serif" font-size="10.00">&#45; _parent</text>
<text text-anchor="start" x="520" y="-318.5" font-family="Helvetica,sans-Serif" font-size="10.00">&#45; _symbol</text>
<text text-anchor="start" x="520" y="-307.5" font-family="Helvetica,sans-Serif" font-size="10.00">&#45; _execution</text>
<text text-anchor="start" x="520" y="-296.5" font-family="Helvetica,sans-Serif" font-size="10.00">&#45; _relativeName</text>
<text text-anchor="start" x="520" y="-285.5" font-family="Helvetica,sans-Serif" font-size="10.00">&#45; _parentClass</text>
<text text-anchor="start" x="520" y="-274.5" font-family="Helvetica,sans-Serif" font-size="10.00">&#45; _frame</text>
<text text-anchor="start" x="520" y="-263.5" font-family="Helvetica,sans-Serif" font-size="10.00">&#45; _object</text>
<text text-anchor="start" x="520" y="-252.5" font-family="Helvetica,sans-Serif" font-size="10.00">&#45; _type_name</text>
<text text-anchor="start" x="520" y="-241.5" font-family="Helvetica,sans-Serif" font-size="10.00">&#45; _parent_classifications</text>
<polyline fill="none" stroke="black" points="512,-234.5 662,-234.5 "/>
<text text-anchor="start" x="520" y="-222.5" font-family="Helvetica,sans-Serif" font-size="10.00">+ __init__()</text>
<text text-anchor="start" x="520" y="-211.5" font-family="Helvetica,sans-Serif" font-size="10.00">+ dict()</text>
<text text-anchor="start" x="520" y="-200.5" font-family="Helvetica,sans-Serif" font-size="10.00">+ relative_name()</text>
<text text-anchor="start" x="520" y="-189.5" font-family="Helvetica,sans-Serif" font-size="10.00">+ type_name()</text>
<text text-anchor="start" x="520" y="-178.5" font-family="Helvetica,sans-Serif" font-size="10.00">+ address()</text>
<text text-anchor="start" x="520" y="-167.5" font-family="Helvetica,sans-Serif" font-size="10.00">+ parent()</text>
<text text-anchor="start" x="520" y="-156.5" font-family="Helvetica,sans-Serif" font-size="10.00">+ parent_class()</text>
<text text-anchor="start" x="520" y="-145.5" font-family="Helvetica,sans-Serif" font-size="10.00">+ object()</text>
<text text-anchor="start" x="520" y="-134.5" font-family="Helvetica,sans-Serif" font-size="10.00">+ frame()</text>
<text text-anchor="start" x="520" y="-123.5" font-family="Helvetica,sans-Serif" font-size="10.00">+ execution()</text>
<text text-anchor="start" x="520" y="-112.5" font-family="Helvetica,sans-Serif" font-size="10.00">+ find_true_type_name()</text>
</a>
</g>
</g>
<!-- Node1&#45;&gt;Node8 -->
<g id="edge7" class="edge"><title>Node1&#45;&gt;Node8</title>
<path fill="none" stroke="midnightblue" d="M480.14,-422.341C488.148,-413.095 495.994,-403.486 503,-394 506.001,-389.936 508.985,-385.758 511.939,-381.499"/>
<polygon fill="none" stroke="midnightblue" points="477.369,-420.192 473.391,-430.012 482.624,-424.817 477.369,-420.192"/>
</g>
<!-- Node9 -->
<g id="node9" class="node"><title>Node9</title>
<g id="a_node9"><a xlink:href="classmemoryoracle_1_1descriptions_1_1StandardDescriptionDecorator.html" target="_top" xlink:title="{memoryoracle.descriptions.\lStandardDescriptionDecorator\n|&#45; _description\l|+ __init__()\l+ description()\l+ name()\l}">
<polygon fill="none" stroke="black" points="680.5,-204.5 680.5,-294.5 843.5,-294.5 843.5,-204.5 680.5,-204.5"/>
<text text-anchor="start" x="688.5" y="-282.5" font-family="Helvetica,sans-Serif" font-size="10.00">memoryoracle.descriptions.</text>
<text text-anchor="middle" x="762" y="-271.5" font-family="Helvetica,sans-Serif" font-size="10.00">StandardDescriptionDecorator</text>
<polyline fill="none" stroke="black" points="680.5,-264.5 843.5,-264.5 "/>
<text text-anchor="start" x="688.5" y="-252.5" font-family="Helvetica,sans-Serif" font-size="10.00">&#45; _description</text>
<polyline fill="none" stroke="black" points="680.5,-245.5 843.5,-245.5 "/>
<text text-anchor="start" x="688.5" y="-233.5" font-family="Helvetica,sans-Serif" font-size="10.00">+ __init__()</text>
<text text-anchor="start" x="688.5" y="-222.5" font-family="Helvetica,sans-Serif" font-size="10.00">+ description()</text>
<text text-anchor="start" x="688.5" y="-211.5" font-family="Helvetica,sans-Serif" font-size="10.00">+ name()</text>
</a>
</g>
</g>
<!-- Node1&#45;&gt;Node9 -->
<g id="edge8" class="edge"><title>Node1&#45;&gt;Node9</title>
<path fill="none" stroke="midnightblue" d="M504.005,-469.336C556.447,-456.02 622.686,-432.828 671,-394 703.767,-367.666 728.252,-326.186 743.521,-294.581"/>
<polygon fill="none" stroke="midnightblue" points="502.919,-465.999 494.046,-471.789 504.593,-472.796 502.919,-465.999"/>
</g>
<!-- Node2 -->
<g id="node2" class="node"><title>Node2</title>
<polygon fill="none" stroke="#bfbfbf" points="396,-579.5 396,-636.5 442,-636.5 442,-579.5 396,-579.5"/>
<text text-anchor="middle" x="419" y="-624.5" font-family="Helvetica,sans-Serif" font-size="10.00">object</text>
<polyline fill="none" stroke="#bfbfbf" points="396,-617.5 442,-617.5 "/>
<text text-anchor="middle" x="419" y="-605.5" font-family="Helvetica,sans-Serif" font-size="10.00"> </text>
<polyline fill="none" stroke="#bfbfbf" points="396,-598.5 442,-598.5 "/>
<text text-anchor="middle" x="419" y="-586.5" font-family="Helvetica,sans-Serif" font-size="10.00"> </text>
</g>
<!-- Node2&#45;&gt;Node1 -->
<g id="edge1" class="edge"><title>Node2&#45;&gt;Node1</title>
<path fill="none" stroke="midnightblue" d="M419,-569.108C419,-560.748 419,-551.725 419,-542.834"/>
<polygon fill="none" stroke="midnightblue" points="415.5,-569.284 419,-579.284 422.5,-569.284 415.5,-569.284"/>
</g>
<!-- Node6 -->
<g id="node6" class="node"><title>Node6</title>
<g id="a_node6"><a xlink:href="classmemoryoracle_1_1descriptions_1_1ObjectFileDescription.html" target="_top" xlink:title="{memoryoracle.descriptions.\lObjectFileDescription\n||}">
<polygon fill="none" stroke="black" points="260,-0.5 260,-68.5 410,-68.5 410,-0.5 260,-0.5"/>
<text text-anchor="start" x="268" y="-56.5" font-family="Helvetica,sans-Serif" font-size="10.00">memoryoracle.descriptions.</text>
<text text-anchor="middle" x="335" y="-45.5" font-family="Helvetica,sans-Serif" font-size="10.00">ObjectFileDescription</text>
<polyline fill="none" stroke="black" points="260,-38.5 410,-38.5 "/>
<text text-anchor="middle" x="335" y="-26.5" font-family="Helvetica,sans-Serif" font-size="10.00"> </text>
<polyline fill="none" stroke="black" points="260,-19.5 410,-19.5 "/>
<text text-anchor="middle" x="335" y="-7.5" font-family="Helvetica,sans-Serif" font-size="10.00"> </text>
</a>
</g>
</g>
<!-- Node5&#45;&gt;Node6 -->
<g id="edge5" class="edge"><title>Node5&#45;&gt;Node6</title>
<path fill="none" stroke="midnightblue" d="M402.196,-205.889C386.245,-165.444 362.604,-105.496 348.033,-68.5475"/>
<polygon fill="none" stroke="midnightblue" points="398.95,-207.2 405.875,-215.219 405.462,-204.632 398.95,-207.2"/>
</g>
<!-- Node7 -->
<g id="node7" class="node"><title>Node7</title>
<g id="a_node7"><a xlink:href="classmemoryoracle_1_1descriptions_1_1SourceFileDescription.html" target="_top" xlink:title="{memoryoracle.descriptions.\lSourceFileDescription\n||}">
<polygon fill="none" stroke="black" points="428,-0.5 428,-68.5 578,-68.5 578,-0.5 428,-0.5"/>
<text text-anchor="start" x="436" y="-56.5" font-family="Helvetica,sans-Serif" font-size="10.00">memoryoracle.descriptions.</text>
<text text-anchor="middle" x="503" y="-45.5" font-family="Helvetica,sans-Serif" font-size="10.00">SourceFileDescription</text>
<polyline fill="none" stroke="black" points="428,-38.5 578,-38.5 "/>
<text text-anchor="middle" x="503" y="-26.5" font-family="Helvetica,sans-Serif" font-size="10.00"> </text>
<polyline fill="none" stroke="black" points="428,-19.5 578,-19.5 "/>
<text text-anchor="middle" x="503" y="-7.5" font-family="Helvetica,sans-Serif" font-size="10.00"> </text>
</a>
</g>
</g>
<!-- Node5&#45;&gt;Node7 -->
<g id="edge6" class="edge"><title>Node5&#45;&gt;Node7</title>
<path fill="none" stroke="midnightblue" d="M435.804,-205.889C451.755,-165.444 475.396,-105.496 489.967,-68.5475"/>
<polygon fill="none" stroke="midnightblue" points="432.538,-204.632 432.125,-215.219 439.05,-207.2 432.538,-204.632"/>
</g>
</g>
</svg>
