<?xml version="1.0" encoding="UTF-8" standalone="no"?>
<!DOCTYPE svg PUBLIC "-//W3C//DTD SVG 1.1//EN"
 "http://www.w3.org/Graphics/SVG/1.1/DTD/svg11.dtd">
<!-- Generated by graphviz version 2.38.0 (20140413.2041)
 -->
<!-- Title: memoryoracle.descriptions.InstanceDescription.frame Pages: 1 -->
<svg width="1264pt" height="182pt"
 viewBox="0.00 0.00 1264.00 181.50" xmlns="http://www.w3.org/2000/svg" xmlns:xlink="http://www.w3.org/1999/xlink">
<g id="graph0" class="graph" transform="scale(1 1) rotate(0) translate(4 177.5)">
<title>memoryoracle.descriptions.InstanceDescription.frame</title>
<!-- Node1 -->
<g id="node1" class="node"><title>Node1</title>
<polygon fill="#bfbfbf" stroke="black" points="0,-87.5 0,-117.5 150,-117.5 150,-87.5 0,-87.5"/>
<text text-anchor="start" x="8" y="-105.5" font-family="Helvetica,sans-Serif" font-size="10.00">memoryoracle.descriptions.</text>
<text text-anchor="middle" x="75" y="-94.5" font-family="Helvetica,sans-Serif" font-size="10.00">InstanceDescription.frame</text>
</g>
<!-- Node2 -->
<g id="node2" class="node"><title>Node2</title>
<g id="a_node2"><a xlink:href="classmemoryoracle_1_1descriptions_1_1InstanceDescription.html#a0ba4007e81ba87422e62d3e12605b0e3" target="_top" xlink:title="memoryoracle.descriptions.\lInstanceDescription.dict">
<polygon fill="none" stroke="black" points="206.5,-112.5 206.5,-142.5 356.5,-142.5 356.5,-112.5 206.5,-112.5"/>
<text text-anchor="start" x="214.5" y="-130.5" font-family="Helvetica,sans-Serif" font-size="10.00">memoryoracle.descriptions.</text>
<text text-anchor="middle" x="281.5" y="-119.5" font-family="Helvetica,sans-Serif" font-size="10.00">InstanceDescription.dict</text>
</a>
</g>
</g>
<!-- Node1&#45;&gt;Node2 -->
<g id="edge1" class="edge"><title>Node1&#45;&gt;Node2</title>
<path fill="none" stroke="midnightblue" d="M160.088,-112.78C175.406,-114.652 191.285,-116.594 206.291,-118.428"/>
<polygon fill="midnightblue" stroke="midnightblue" points="160.469,-109.3 150.118,-111.561 159.62,-116.249 160.469,-109.3"/>
</g>
<!-- Node3 -->
<g id="node3" class="node"><title>Node3</title>
<g id="a_node3"><a xlink:href="classmemoryoracle_1_1instance_1_1Primitive.html#abc513cbf3d0938c0db133e9af0a6f5ea" target="_top" xlink:title="memoryoracle.instance.Primitive.val\l_string">
<polygon fill="none" stroke="black" points="186,-63.5 186,-93.5 377,-93.5 377,-63.5 186,-63.5"/>
<text text-anchor="start" x="194" y="-81.5" font-family="Helvetica,sans-Serif" font-size="10.00">memoryoracle.instance.Primitive.val</text>
<text text-anchor="middle" x="281.5" y="-70.5" font-family="Helvetica,sans-Serif" font-size="10.00">_string</text>
</a>
</g>
</g>
<!-- Node1&#45;&gt;Node3 -->
<g id="edge2" class="edge"><title>Node1&#45;&gt;Node3</title>
<path fill="none" stroke="midnightblue" d="M160.244,-92.6132C168.626,-91.6294 177.175,-90.6262 185.655,-89.6309"/>
<polygon fill="midnightblue" stroke="midnightblue" points="159.642,-89.1597 150.118,-93.8015 160.458,-96.112 159.642,-89.1597"/>
</g>
<!-- Node4 -->
<g id="node4" class="node"><title>Node4</title>
<g id="a_node4"><a xlink:href="classmemoryoracle_1_1instance_1_1Primitive.html#a68562bda9732e33fe32188597e2f4b91" target="_top" xlink:title="memoryoracle.instance.Primitive.\l_track">
<polygon fill="none" stroke="black" points="597,-128.5 597,-158.5 774,-158.5 774,-128.5 597,-128.5"/>
<text text-anchor="start" x="605" y="-146.5" font-family="Helvetica,sans-Serif" font-size="10.00">memoryoracle.instance.Primitive.</text>
<text text-anchor="middle" x="685.5" y="-135.5" font-family="Helvetica,sans-Serif" font-size="10.00">_track</text>
</a>
</g>
</g>
<!-- Node3&#45;&gt;Node4 -->
<g id="edge3" class="edge"><title>Node3&#45;&gt;Node4</title>
<path fill="none" stroke="midnightblue" d="M376.216,-95.2608C388.58,-97.4005 401.09,-99.5295 413,-101.5 474.291,-111.641 543.496,-122.335 596.695,-130.394"/>
<polygon fill="midnightblue" stroke="midnightblue" points="376.798,-91.8095 366.346,-93.5453 375.599,-98.7061 376.798,-91.8095"/>
</g>
<!-- Node11 -->
<g id="node11" class="node"><title>Node11</title>
<g id="a_node11"><a xlink:href="classmemoryoracle_1_1instance_1_1Pointer.html#a2cc9e298adaad8bed089d90186fcde8a" target="_top" xlink:title="memoryoracle.instance.Pointer.\l_track">
<polygon fill="none" stroke="black" points="601,-79.5 601,-109.5 770,-109.5 770,-79.5 601,-79.5"/>
<text text-anchor="start" x="609" y="-97.5" font-family="Helvetica,sans-Serif" font-size="10.00">memoryoracle.instance.Pointer.</text>
<text text-anchor="middle" x="685.5" y="-86.5" font-family="Helvetica,sans-Serif" font-size="10.00">_track</text>
</a>
</g>
</g>
<!-- Node3&#45;&gt;Node11 -->
<g id="edge13" class="edge"><title>Node3&#45;&gt;Node11</title>
<path fill="none" stroke="midnightblue" d="M387.107,-82.6635C453.688,-85.3135 538.759,-88.6994 600.844,-91.1704"/>
<polygon fill="midnightblue" stroke="midnightblue" points="387.136,-79.162 377.005,-82.2614 386.858,-86.1564 387.136,-79.162"/>
</g>
<!-- Node12 -->
<g id="node12" class="node"><title>Node12</title>
<g id="a_node12"><a xlink:href="classmemoryoracle_1_1instance_1_1Int.html#a450a73bc8aaf1a7ac5f18c3ed1a933fc" target="_top" xlink:title="memoryoracle.instance.Int.\l_find_hidden_type">
<polygon fill="none" stroke="black" points="413,-0.5 413,-30.5 561,-30.5 561,-0.5 413,-0.5"/>
<text text-anchor="start" x="421" y="-18.5" font-family="Helvetica,sans-Serif" font-size="10.00">memoryoracle.instance.Int.</text>
<text text-anchor="middle" x="487" y="-7.5" font-family="Helvetica,sans-Serif" font-size="10.00">_find_hidden_type</text>
</a>
</g>
</g>
<!-- Node3&#45;&gt;Node12 -->
<g id="edge16" class="edge"><title>Node3&#45;&gt;Node12</title>
<path fill="none" stroke="midnightblue" d="M340.687,-60.4863C371.33,-50.9997 408.472,-39.5013 437.534,-30.5041"/>
<polygon fill="midnightblue" stroke="midnightblue" points="339.502,-57.1891 330.985,-63.49 341.573,-63.876 339.502,-57.1891"/>
</g>
<!-- Node13 -->
<g id="node13" class="node"><title>Node13</title>
<g id="a_node13"><a xlink:href="classmemoryoracle_1_1instance_1_1Int.html#a38c9424341353f006771163d360594da" target="_top" xlink:title="memoryoracle.instance.Int.\l_track">
<polygon fill="none" stroke="black" points="611.5,-30.5 611.5,-60.5 759.5,-60.5 759.5,-30.5 611.5,-30.5"/>
<text text-anchor="start" x="619.5" y="-48.5" font-family="Helvetica,sans-Serif" font-size="10.00">memoryoracle.instance.Int.</text>
<text text-anchor="middle" x="685.5" y="-37.5" font-family="Helvetica,sans-Serif" font-size="10.00">_track</text>
</a>
</g>
</g>
<!-- Node3&#45;&gt;Node13 -->
<g id="edge20" class="edge"><title>Node3&#45;&gt;Node13</title>
<path fill="none" stroke="midnightblue" d="M387.235,-69.9023C457.628,-64.1238 548.643,-56.6525 611.319,-51.5074"/>
<polygon fill="midnightblue" stroke="midnightblue" points="386.685,-66.4356 377.005,-70.7421 387.258,-73.4121 386.685,-66.4356"/>
</g>
<!-- Node5 -->
<g id="node5" class="node"><title>Node5</title>
<g id="a_node5"><a xlink:href="classmemoryoracle_1_1instance_1_1Instance.html#a86649e01ee4f562debdba5421a334f78" target="_top" xlink:title="memoryoracle.instance.Instance.track">
<polygon fill="none" stroke="black" points="810,-104 810,-123 1010,-123 1010,-104 810,-104"/>
<text text-anchor="middle" x="910" y="-111" font-family="Helvetica,sans-Serif" font-size="10.00">memoryoracle.instance.Instance.track</text>
</a>
</g>
</g>
<!-- Node4&#45;&gt;Node5 -->
<g id="edge4" class="edge"><title>Node4&#45;&gt;Node5</title>
<path fill="none" stroke="midnightblue" d="M784.17,-130.331C802.377,-127.876 821.077,-125.355 838.279,-123.035"/>
<polygon fill="midnightblue" stroke="midnightblue" points="783.561,-126.881 774.118,-131.686 784.497,-133.819 783.561,-126.881"/>
</g>
<!-- Node10 -->
<g id="node10" class="node"><title>Node10</title>
<g id="a_node10"><a xlink:href="classmemoryoracle_1_1models_1_1Typed.html#aa1d5d8d5b7ebe5c2876f363e7eb669db" target="_top" xlink:title="memoryoracle.models.Typed.track">
<polygon fill="none" stroke="black" points="819,-66 819,-85 1001,-85 1001,-66 819,-66"/>
<text text-anchor="middle" x="910" y="-73" font-family="Helvetica,sans-Serif" font-size="10.00">memoryoracle.models.Typed.track</text>
</a>
</g>
</g>
<!-- Node4&#45;&gt;Node10 -->
<g id="edge9" class="edge"><title>Node4&#45;&gt;Node10</title>
<path fill="none" stroke="midnightblue" d="M758.319,-124.963C763.699,-122.975 768.981,-120.821 774,-118.5 791.454,-110.429 792.206,-101.79 810,-94.5 819.474,-90.6188 829.788,-87.5193 840.063,-85.0469"/>
<polygon fill="midnightblue" stroke="midnightblue" points="756.856,-121.767 748.567,-128.365 759.162,-128.376 756.856,-121.767"/>
</g>
<!-- Node6 -->
<g id="node6" class="node"><title>Node6</title>
<g id="a_node6"><a xlink:href="classmemoryoracle_1_1instance_1_1Instance.html#a286e015a030541a0704994172024f034" target="_top" xlink:title="memoryoracle.instance.Instance.update">
<polygon fill="none" stroke="black" points="1046,-154 1046,-173 1256,-173 1256,-154 1046,-154"/>
<text text-anchor="middle" x="1151" y="-161" font-family="Helvetica,sans-Serif" font-size="10.00">memoryoracle.instance.Instance.update</text>
</a>
</g>
</g>
<!-- Node5&#45;&gt;Node6 -->
<g id="edge5" class="edge"><title>Node5&#45;&gt;Node6</title>
<path fill="none" stroke="midnightblue" d="M960.29,-125.379C985.812,-131.388 1017.51,-138.63 1046,-144.5 1061.91,-147.778 1079.25,-151.06 1095.13,-153.952"/>
<polygon fill="midnightblue" stroke="midnightblue" points="961.013,-121.954 950.476,-123.058 959.402,-128.766 961.013,-121.954"/>
</g>
<!-- Node7 -->
<g id="node7" class="node"><title>Node7</title>
<g id="a_node7"><a xlink:href="classmemoryoracle_1_1models_1_1Typed.html#a494dfbe205034b874ff9e8c7039f579b" target="_top" xlink:title="memoryoracle.models.Typed.\l__init__">
<polygon fill="none" stroke="black" points="1072,-104.5 1072,-134.5 1230,-134.5 1230,-104.5 1072,-104.5"/>
<text text-anchor="start" x="1080" y="-122.5" font-family="Helvetica,sans-Serif" font-size="10.00">memoryoracle.models.Typed.</text>
<text text-anchor="middle" x="1151" y="-111.5" font-family="Helvetica,sans-Serif" font-size="10.00">__init__</text>
</a>
</g>
</g>
<!-- Node5&#45;&gt;Node7 -->
<g id="edge6" class="edge"><title>Node5&#45;&gt;Node7</title>
<path fill="none" stroke="midnightblue" d="M1020.44,-116.247C1037.76,-116.682 1055.36,-117.124 1071.78,-117.536"/>
<polygon fill="midnightblue" stroke="midnightblue" points="1020.37,-112.745 1010.28,-115.992 1020.19,-119.742 1020.37,-112.745"/>
</g>
<!-- Node8 -->
<g id="node8" class="node"><title>Node8</title>
<g id="a_node8"><a xlink:href="classmemoryoracle_1_1models_1_1Memory.html#a71d4a141abc3358afdf1a1325bfd4253" target="_top" xlink:title="memoryoracle.models.Memory.update">
<polygon fill="none" stroke="black" points="1050,-66 1050,-85 1252,-85 1252,-66 1050,-66"/>
<text text-anchor="middle" x="1151" y="-73" font-family="Helvetica,sans-Serif" font-size="10.00">memoryoracle.models.Memory.update</text>
</a>
</g>
</g>
<!-- Node5&#45;&gt;Node8 -->
<g id="edge7" class="edge"><title>Node5&#45;&gt;Node8</title>
<path fill="none" stroke="midnightblue" d="M981.028,-102.366C1015.6,-96.8697 1056.87,-90.3071 1089.97,-85.0439"/>
<polygon fill="midnightblue" stroke="midnightblue" points="980.328,-98.9331 971.001,-103.96 981.427,-105.846 980.328,-98.9331"/>
</g>
<!-- Node9 -->
<g id="node9" class="node"><title>Node9</title>
<g id="a_node9"><a xlink:href="classmemoryoracle_1_1models_1_1Memory.html#aed3af349dd80317ae9cca4b4e9cb7c26" target="_top" xlink:title="memoryoracle.models.Memory.\l__init__">
<polygon fill="none" stroke="black" points="1067,-16.5 1067,-46.5 1235,-46.5 1235,-16.5 1067,-16.5"/>
<text text-anchor="start" x="1075" y="-34.5" font-family="Helvetica,sans-Serif" font-size="10.00">memoryoracle.models.Memory.</text>
<text text-anchor="middle" x="1151" y="-23.5" font-family="Helvetica,sans-Serif" font-size="10.00">__init__</text>
</a>
</g>
</g>
<!-- Node5&#45;&gt;Node9 -->
<g id="edge8" class="edge"><title>Node5&#45;&gt;Node9</title>
<path fill="none" stroke="midnightblue" d="M996.823,-100.599C1001.38,-98.8182 1005.81,-96.7959 1010,-94.5 1030.41,-83.3257 1025.86,-68.1436 1046,-56.5 1052.75,-52.5965 1060.09,-49.3009 1067.63,-46.5189"/>
<polygon fill="midnightblue" stroke="midnightblue" points="995.59,-97.3224 987.305,-103.926 997.9,-103.93 995.59,-97.3224"/>
</g>
<!-- Node10&#45;&gt;Node7 -->
<g id="edge10" class="edge"><title>Node10&#45;&gt;Node7</title>
<path fill="none" stroke="midnightblue" d="M972.844,-86.8855C1003.06,-92.449 1039.75,-99.2035 1071.89,-105.119"/>
<polygon fill="midnightblue" stroke="midnightblue" points="973.328,-83.4158 962.859,-85.0473 972.06,-90.3002 973.328,-83.4158"/>
</g>
<!-- Node10&#45;&gt;Node8 -->
<g id="edge11" class="edge"><title>Node10&#45;&gt;Node8</title>
<path fill="none" stroke="midnightblue" d="M1011.15,-75.5C1023.88,-75.5 1036.92,-75.5 1049.65,-75.5"/>
<polygon fill="midnightblue" stroke="midnightblue" points="1011.02,-72.0001 1001.02,-75.5 1011.02,-79.0001 1011.02,-72.0001"/>
</g>
<!-- Node10&#45;&gt;Node9 -->
<g id="edge12" class="edge"><title>Node10&#45;&gt;Node9</title>
<path fill="none" stroke="midnightblue" d="M972.871,-64.1095C1001.93,-58.7606 1036.96,-52.3114 1068.17,-46.5654"/>
<polygon fill="midnightblue" stroke="midnightblue" points="972.06,-60.6998 962.859,-65.9527 973.328,-67.5842 972.06,-60.6998"/>
</g>
<!-- Node11&#45;&gt;Node5 -->
<g id="edge14" class="edge"><title>Node11&#45;&gt;Node5</title>
<path fill="none" stroke="midnightblue" d="M780.397,-102.518C790.162,-103.352 800.109,-104.201 809.928,-105.04"/>
<polygon fill="midnightblue" stroke="midnightblue" points="780.562,-99.0196 770.301,-101.656 779.967,-105.994 780.562,-99.0196"/>
</g>
<!-- Node11&#45;&gt;Node10 -->
<g id="edge15" class="edge"><title>Node11&#45;&gt;Node10</title>
<path fill="none" stroke="midnightblue" d="M780.45,-86.4773C793.205,-85.3881 806.271,-84.2724 818.955,-83.1892"/>
<polygon fill="midnightblue" stroke="midnightblue" points="779.967,-83.0058 770.301,-87.344 780.562,-89.9804 779.967,-83.0058"/>
</g>
<!-- Node12&#45;&gt;Node13 -->
<g id="edge17" class="edge"><title>Node12&#45;&gt;Node13</title>
<path fill="none" stroke="midnightblue" d="M571.25,-28.2099C584.549,-30.2404 598.225,-32.3282 611.27,-34.3198"/>
<polygon fill="midnightblue" stroke="midnightblue" points="571.583,-24.7203 561.169,-26.6709 570.527,-31.6401 571.583,-24.7203"/>
</g>
<!-- Node13&#45;&gt;Node5 -->
<g id="edge18" class="edge"><title>Node13&#45;&gt;Node5</title>
<path fill="none" stroke="midnightblue" d="M761.168,-64.0984C765.566,-65.7725 769.875,-67.5715 774,-69.5 791.646,-77.7503 792.045,-86.9448 810,-94.5 819.275,-98.403 829.379,-101.511 839.47,-103.985"/>
<polygon fill="midnightblue" stroke="midnightblue" points="762.025,-60.6886 751.431,-60.6311 759.677,-67.283 762.025,-60.6886"/>
</g>
<!-- Node13&#45;&gt;Node10 -->
<g id="edge19" class="edge"><title>Node13&#45;&gt;Node10</title>
<path fill="none" stroke="midnightblue" d="M769.595,-56.7039C792.245,-59.7578 816.561,-63.0364 838.442,-65.9866"/>
<polygon fill="midnightblue" stroke="midnightblue" points="770.041,-53.2324 759.663,-55.3647 769.106,-60.1696 770.041,-53.2324"/>
</g>
</g>
</svg>
