<?xml version="1.0" encoding="UTF-8" standalone="no"?>
<!DOCTYPE svg PUBLIC "-//W3C//DTD SVG 1.1//EN"
 "http://www.w3.org/Graphics/SVG/1.1/DTD/svg11.dtd">
<!-- Generated by graphviz version 2.38.0 (20140413.2041)
 -->
<!-- Title: memoryoracle.instance.Primitive.val_string Pages: 1 -->
<svg width="386pt" height="88pt"
 viewBox="0.00 0.00 386.00 88.00" xmlns="http://www.w3.org/2000/svg" xmlns:xlink="http://www.w3.org/1999/xlink">
<g id="graph0" class="graph" transform="scale(1 1) rotate(0) translate(4 84)">
<title>memoryoracle.instance.Primitive.val_string</title>
<!-- Node1 -->
<g id="node1" class="node"><title>Node1</title>
<polygon fill="#bfbfbf" stroke="black" points="0,-24.5 0,-54.5 191,-54.5 191,-24.5 0,-24.5"/>
<text text-anchor="start" x="8" y="-42.5" font-family="Helvetica,sans-Serif" font-size="10.00">memoryoracle.instance.Primitive.val</text>
<text text-anchor="middle" x="95.5" y="-31.5" font-family="Helvetica,sans-Serif" font-size="10.00">_string</text>
</g>
<!-- Node2 -->
<g id="node2" class="node"><title>Node2</title>
<g id="a_node2"><a xlink:href="classmemoryoracle_1_1frame_1_1FrameSelector.html#a20efcc94b4e8fcff6836bf82f3557af9" target="_top" xlink:title="memoryoracle.frame.Frame\lSelector.frame">
<polygon fill="none" stroke="black" points="227,-49.5 227,-79.5 378,-79.5 378,-49.5 227,-49.5"/>
<text text-anchor="start" x="235" y="-67.5" font-family="Helvetica,sans-Serif" font-size="10.00">memoryoracle.frame.Frame</text>
<text text-anchor="middle" x="302.5" y="-56.5" font-family="Helvetica,sans-Serif" font-size="10.00">Selector.frame</text>
</a>
</g>
</g>
<!-- Node1&#45;&gt;Node2 -->
<g id="edge1" class="edge"><title>Node1&#45;&gt;Node2</title>
<path fill="none" stroke="midnightblue" d="M191.199,-51.0487C199.702,-52.0856 208.276,-53.1313 216.687,-54.157"/>
<polygon fill="midnightblue" stroke="midnightblue" points="216.499,-57.6599 226.849,-55.3962 217.346,-50.7114 216.499,-57.6599"/>
</g>
<!-- Node3 -->
<g id="node3" class="node"><title>Node3</title>
<g id="a_node3"><a xlink:href="classmemoryoracle_1_1descriptions_1_1InstanceDescription.html#ac4d8f16a2b5761e93508cb4ff73b654c" target="_top" xlink:title="memoryoracle.descriptions.\lInstanceDescription.frame">
<polygon fill="none" stroke="black" points="227.5,-0.5 227.5,-30.5 377.5,-30.5 377.5,-0.5 227.5,-0.5"/>
<text text-anchor="start" x="235.5" y="-18.5" font-family="Helvetica,sans-Serif" font-size="10.00">memoryoracle.descriptions.</text>
<text text-anchor="middle" x="302.5" y="-7.5" font-family="Helvetica,sans-Serif" font-size="10.00">InstanceDescription.frame</text>
</a>
</g>
</g>
<!-- Node1&#45;&gt;Node3 -->
<g id="edge2" class="edge"><title>Node1&#45;&gt;Node3</title>
<path fill="none" stroke="midnightblue" d="M191.199,-28.4133C199.946,-27.3893 208.769,-26.3563 217.411,-25.3445"/>
<polygon fill="midnightblue" stroke="midnightblue" points="217.933,-28.8074 227.459,-24.1683 217.119,-21.8549 217.933,-28.8074"/>
</g>
</g>
</svg>
