<?xml version="1.0" encoding="UTF-8" standalone="no"?>
<!DOCTYPE svg PUBLIC "-//W3C//DTD SVG 1.1//EN"
 "http://www.w3.org/Graphics/SVG/1.1/DTD/svg11.dtd">
<!-- Generated by graphviz version 2.38.0 (20140413.2041)
 -->
<!-- Title: memoryoracle.instance.Instance.update Pages: 1 -->
<svg width="1341pt" height="857pt"
 viewBox="0.00 0.00 1341.00 857.18" xmlns="http://www.w3.org/2000/svg" xmlns:xlink="http://www.w3.org/1999/xlink">
<g id="graph0" class="graph" transform="scale(1 1) rotate(0) translate(4 853.179)">
<title>memoryoracle.instance.Instance.update</title>
<!-- Node1 -->
<g id="node1" class="node"><title>Node1</title>
<polygon fill="#bfbfbf" stroke="black" points="0,-650.5 0,-669.5 210,-669.5 210,-650.5 0,-650.5"/>
<text text-anchor="middle" x="105" y="-657.5" font-family="Helvetica,sans-Serif" font-size="10.00">memoryoracle.instance.Instance.update</text>
</g>
<!-- Node2 -->
<g id="node2" class="node"><title>Node2</title>
<g id="a_node2"><a xlink:href="classmemoryoracle_1_1instance_1_1Instance.html#a8d6cede9602381d2f2163a0545dd9d8c" target="_top" xlink:title="memoryoracle.instance.Instance.\l_clear_updated">
<polygon fill="none" stroke="black" points="258,-667 258,-697 434,-697 434,-667 258,-667"/>
<text text-anchor="start" x="266" y="-685" font-family="Helvetica,sans-Serif" font-size="10.00">memoryoracle.instance.Instance.</text>
<text text-anchor="middle" x="346" y="-674" font-family="Helvetica,sans-Serif" font-size="10.00">_clear_updated</text>
</a>
</g>
</g>
<!-- Node1&#45;&gt;Node2 -->
<g id="edge1" class="edge"><title>Node1&#45;&gt;Node2</title>
<path fill="none" stroke="midnightblue" d="M209.439,-669.522C222.181,-670.694 235.171,-671.89 247.815,-673.054"/>
<polygon fill="midnightblue" stroke="midnightblue" points="247.591,-676.548 257.87,-673.98 248.233,-669.578 247.591,-676.548"/>
</g>
<!-- Node3 -->
<g id="node3" class="node"><title>Node3</title>
<g id="a_node3"><a xlink:href="classmemoryoracle_1_1instance_1_1Instance.html#a86649e01ee4f562debdba5421a334f78" target="_top" xlink:title="memoryoracle.instance.Instance.track">
<polygon fill="none" stroke="black" points="246,-628.5 246,-647.5 446,-647.5 446,-628.5 246,-628.5"/>
<text text-anchor="middle" x="346" y="-635.5" font-family="Helvetica,sans-Serif" font-size="10.00">memoryoracle.instance.Instance.track</text>
</a>
</g>
</g>
<!-- Node1&#45;&gt;Node3 -->
<g id="edge2" class="edge"><title>Node1&#45;&gt;Node3</title>
<path fill="none" stroke="midnightblue" d="M209.439,-650.478C218.144,-649.677 226.964,-648.865 235.711,-648.06"/>
<polygon fill="midnightblue" stroke="midnightblue" points="236.298,-651.521 245.935,-647.119 235.656,-644.55 236.298,-651.521"/>
</g>
<!-- Node4 -->
<g id="node4" class="node"><title>Node4</title>
<g id="a_node4"><a xlink:href="classmemoryoracle_1_1instance_1_1Instance.html#a254a208a64e4c7f32c514e2fb64edbbe" target="_top" xlink:title="memoryoracle.instance.Instance.\l_basic_track">
<polygon fill="none" stroke="black" points="484.5,-601 484.5,-631 660.5,-631 660.5,-601 484.5,-601"/>
<text text-anchor="start" x="492.5" y="-619" font-family="Helvetica,sans-Serif" font-size="10.00">memoryoracle.instance.Instance.</text>
<text text-anchor="middle" x="572.5" y="-608" font-family="Helvetica,sans-Serif" font-size="10.00">_basic_track</text>
</a>
</g>
</g>
<!-- Node3&#45;&gt;Node4 -->
<g id="edge3" class="edge"><title>Node3&#45;&gt;Node4</title>
<path fill="none" stroke="midnightblue" d="M444.163,-628.478C454.206,-627.494 464.414,-626.494 474.456,-625.51"/>
<polygon fill="midnightblue" stroke="midnightblue" points="474.819,-628.991 484.43,-624.532 474.136,-622.025 474.819,-628.991"/>
</g>
<!-- Node6 -->
<g id="node6" class="node"><title>Node6</title>
<g id="a_node6"><a xlink:href="classmemoryoracle_1_1frame_1_1Frame.html#aba4a80563b93cf0069db8d64df6b19e5" target="_top" xlink:title="memoryoracle.frame.Frame.index">
<polygon fill="none" stroke="black" points="719.5,-650.5 719.5,-669.5 898.5,-669.5 898.5,-650.5 719.5,-650.5"/>
<text text-anchor="middle" x="809" y="-657.5" font-family="Helvetica,sans-Serif" font-size="10.00">memoryoracle.frame.Frame.index</text>
</a>
</g>
</g>
<!-- Node3&#45;&gt;Node6 -->
<g id="edge56" class="edge"><title>Node3&#45;&gt;Node6</title>
<path fill="none" stroke="midnightblue" d="M446.179,-642.733C523.802,-646.437 631.242,-651.565 708.857,-655.269"/>
<polygon fill="midnightblue" stroke="midnightblue" points="708.969,-658.778 719.125,-655.759 709.303,-651.786 708.969,-658.778"/>
</g>
<!-- Node7 -->
<g id="node7" class="node"><title>Node7</title>
<g id="a_node7"><a xlink:href="classmemoryoracle_1_1instance_1_1Instance.html#a67d649391bded2256ff9a72e2a61143f" target="_top" xlink:title="memoryoracle.instance.Instance.index">
<polygon fill="none" stroke="black" points="708,-688.5 708,-707.5 910,-707.5 910,-688.5 708,-688.5"/>
<text text-anchor="middle" x="809" y="-695.5" font-family="Helvetica,sans-Serif" font-size="10.00">memoryoracle.instance.Instance.index</text>
</a>
</g>
</g>
<!-- Node3&#45;&gt;Node7 -->
<g id="edge57" class="edge"><title>Node3&#45;&gt;Node7</title>
<path fill="none" stroke="midnightblue" d="M396.233,-647.523C427.768,-653.544 465.726,-660.623 482,-663 553.643,-673.464 634.571,-682.17 697.873,-688.282"/>
<polygon fill="midnightblue" stroke="midnightblue" points="697.588,-691.771 707.877,-689.24 698.256,-684.803 697.588,-691.771"/>
</g>
<!-- Node8 -->
<g id="node8" class="node"><title>Node8</title>
<g id="a_node8"><a xlink:href="classmemoryoracle_1_1instance_1_1Structure.html#a200a54be462e0199b7833cbd11f81a52" target="_top" xlink:title="memoryoracle.instance.Structure.\l_track">
<polygon fill="none" stroke="black" points="482,-388 482,-418 663,-418 663,-388 482,-388"/>
<text text-anchor="start" x="490" y="-406" font-family="Helvetica,sans-Serif" font-size="10.00">memoryoracle.instance.Structure.</text>
<text text-anchor="middle" x="572.5" y="-395" font-family="Helvetica,sans-Serif" font-size="10.00">_track</text>
</a>
</g>
</g>
<!-- Node3&#45;&gt;Node8 -->
<g id="edge7" class="edge"><title>Node3&#45;&gt;Node8</title>
<path fill="none" stroke="midnightblue" d="M356.079,-628.497C388.938,-594.1 502.239,-475.5 550,-425.506"/>
<polygon fill="midnightblue" stroke="midnightblue" points="552.703,-427.743 557.08,-418.094 547.642,-422.907 552.703,-427.743"/>
</g>
<!-- Node18 -->
<g id="node18" class="node"><title>Node18</title>
<g id="a_node18"><a xlink:href="classmemoryoracle_1_1instance_1_1Array.html#a1d8c3993d8a52bfbec8240d6f79b3ce1" target="_top" xlink:title="memoryoracle.instance.Array.\l_track">
<polygon fill="none" stroke="black" points="492.5,-339 492.5,-369 652.5,-369 652.5,-339 492.5,-339"/>
<text text-anchor="start" x="500.5" y="-357" font-family="Helvetica,sans-Serif" font-size="10.00">memoryoracle.instance.Array.</text>
<text text-anchor="middle" x="572.5" y="-346" font-family="Helvetica,sans-Serif" font-size="10.00">_track</text>
</a>
</g>
</g>
<!-- Node3&#45;&gt;Node18 -->
<g id="edge18" class="edge"><title>Node3&#45;&gt;Node18</title>
<path fill="none" stroke="midnightblue" d="M349.025,-628.44C357.6,-590.374 394.581,-448.251 482,-378 483.599,-376.715 485.26,-375.499 486.975,-374.347"/>
<polygon fill="midnightblue" stroke="midnightblue" points="489.066,-377.179 495.936,-369.113 485.535,-371.135 489.066,-377.179"/>
</g>
<!-- Node23 -->
<g id="node23" class="node"><title>Node23</title>
<g id="a_node23"><a xlink:href="classmemoryoracle_1_1instance_1_1Primitive.html#a68562bda9732e33fe32188597e2f4b91" target="_top" xlink:title="memoryoracle.instance.Primitive.\l_track">
<polygon fill="none" stroke="black" points="484,-776 484,-806 661,-806 661,-776 484,-776"/>
<text text-anchor="start" x="492" y="-794" font-family="Helvetica,sans-Serif" font-size="10.00">memoryoracle.instance.Primitive.</text>
<text text-anchor="middle" x="572.5" y="-783" font-family="Helvetica,sans-Serif" font-size="10.00">_track</text>
</a>
</g>
</g>
<!-- Node3&#45;&gt;Node23 -->
<g id="edge35" class="edge"><title>Node3&#45;&gt;Node23</title>
<path fill="none" stroke="midnightblue" d="M432.081,-647.695C437.09,-650.236 441.792,-653.304 446,-657 484.332,-690.668 445.094,-730.775 482,-766 483.659,-767.584 485.411,-769.069 487.238,-770.461"/>
<polygon fill="midnightblue" stroke="midnightblue" points="485.409,-773.447 495.694,-775.99 489.24,-767.588 485.409,-773.447"/>
</g>
<!-- Node27 -->
<g id="node27" class="node"><title>Node27</title>
<g id="a_node27"><a xlink:href="classmemoryoracle_1_1instance_1_1Pointer.html#a2cc9e298adaad8bed089d90186fcde8a" target="_top" xlink:title="memoryoracle.instance.Pointer.\l_track">
<polygon fill="none" stroke="black" points="488,-552 488,-582 657,-582 657,-552 488,-552"/>
<text text-anchor="start" x="496" y="-570" font-family="Helvetica,sans-Serif" font-size="10.00">memoryoracle.instance.Pointer.</text>
<text text-anchor="middle" x="572.5" y="-559" font-family="Helvetica,sans-Serif" font-size="10.00">_track</text>
</a>
</g>
</g>
<!-- Node3&#45;&gt;Node27 -->
<g id="edge42" class="edge"><title>Node3&#45;&gt;Node27</title>
<path fill="none" stroke="midnightblue" d="M372.695,-628.426C399.72,-618.504 443.574,-602.824 482,-591 488.871,-588.886 496.07,-586.778 503.274,-584.74"/>
<polygon fill="midnightblue" stroke="midnightblue" points="504.377,-588.066 513.07,-582.008 502.497,-581.323 504.377,-588.066"/>
</g>
<!-- Node28 -->
<g id="node28" class="node"><title>Node28</title>
<g id="a_node28"><a xlink:href="classmemoryoracle_1_1instance_1_1Int.html#a38c9424341353f006771163d360594da" target="_top" xlink:title="memoryoracle.instance.Int.\l_track">
<polygon fill="none" stroke="black" points="498.5,-727 498.5,-757 646.5,-757 646.5,-727 498.5,-727"/>
<text text-anchor="start" x="506.5" y="-745" font-family="Helvetica,sans-Serif" font-size="10.00">memoryoracle.instance.Int.</text>
<text text-anchor="middle" x="572.5" y="-734" font-family="Helvetica,sans-Serif" font-size="10.00">_track</text>
</a>
</g>
</g>
<!-- Node3&#45;&gt;Node28 -->
<g id="edge48" class="edge"><title>Node3&#45;&gt;Node28</title>
<path fill="none" stroke="midnightblue" d="M427.585,-647.621C434.09,-650.117 440.33,-653.2 446,-657 470.269,-673.264 458.872,-694.149 482,-712 487.317,-716.104 493.225,-719.663 499.4,-722.745"/>
<polygon fill="midnightblue" stroke="midnightblue" points="498.046,-725.975 508.598,-726.93 500.945,-719.603 498.046,-725.975"/>
</g>
<!-- Node5 -->
<g id="node5" class="node"><title>Node5</title>
<g id="a_node5"><a xlink:href="classmemoryoracle_1_1descriptions_1_1Description.html#a793ffb6975ee167869a1f475b1748769" target="_top" xlink:title="memoryoracle.descriptions.\lDescription.id">
<polygon fill="none" stroke="black" points="734,-514 734,-544 884,-544 884,-514 734,-514"/>
<text text-anchor="start" x="742" y="-532" font-family="Helvetica,sans-Serif" font-size="10.00">memoryoracle.descriptions.</text>
<text text-anchor="middle" x="809" y="-521" font-family="Helvetica,sans-Serif" font-size="10.00">Description.id</text>
</a>
</g>
</g>
<!-- Node4&#45;&gt;Node5 -->
<g id="edge4" class="edge"><title>Node4&#45;&gt;Node5</title>
<path fill="none" stroke="midnightblue" d="M642.538,-600.865C649.682,-598.092 656.644,-594.831 663,-591 682.925,-578.991 678.748,-564.45 699,-553 706.866,-548.553 715.483,-544.929 724.316,-541.977"/>
<polygon fill="midnightblue" stroke="midnightblue" points="725.421,-545.3 733.961,-539.03 723.375,-538.605 725.421,-545.3"/>
</g>
<!-- Node4&#45;&gt;Node6 -->
<g id="edge5" class="edge"><title>Node4&#45;&gt;Node6</title>
<path fill="none" stroke="midnightblue" d="M653.546,-631.019C684.286,-636.787 718.832,-643.269 747.446,-648.638"/>
<polygon fill="midnightblue" stroke="midnightblue" points="746.829,-652.083 757.303,-650.488 748.12,-645.203 746.829,-652.083"/>
</g>
<!-- Node4&#45;&gt;Node7 -->
<g id="edge6" class="edge"><title>Node4&#45;&gt;Node7</title>
<path fill="none" stroke="midnightblue" d="M598.046,-631.046C622.693,-645.487 662.191,-666.847 699,-679 707.573,-681.831 716.672,-684.262 725.815,-686.346"/>
<polygon fill="midnightblue" stroke="midnightblue" points="725.219,-689.798 735.731,-688.473 726.687,-682.954 725.219,-689.798"/>
</g>
<!-- Node8&#45;&gt;Node5 -->
<g id="edge16" class="edge"><title>Node8&#45;&gt;Node5</title>
<path fill="none" stroke="midnightblue" d="M587.776,-418.239C609.575,-440.568 653.452,-481.911 699,-504 706.869,-507.816 715.344,-511.064 723.968,-513.824"/>
<polygon fill="midnightblue" stroke="midnightblue" points="723.16,-517.235 733.743,-516.738 725.16,-510.527 723.16,-517.235"/>
</g>
<!-- Node9 -->
<g id="node9" class="node"><title>Node9</title>
<g id="a_node9"><a xlink:href="classmemoryoracle_1_1descriptions_1_1Description.html#a4b27c3ae1ef0ab35ec0f990fa553b8b3" target="_top" xlink:title="memoryoracle.descriptions.\lDescription.name">
<polygon fill="none" stroke="black" points="734,-388 734,-418 884,-418 884,-388 734,-388"/>
<text text-anchor="start" x="742" y="-406" font-family="Helvetica,sans-Serif" font-size="10.00">memoryoracle.descriptions.</text>
<text text-anchor="middle" x="809" y="-395" font-family="Helvetica,sans-Serif" font-size="10.00">Description.name</text>
</a>
</g>
</g>
<!-- Node8&#45;&gt;Node9 -->
<g id="edge8" class="edge"><title>Node8&#45;&gt;Node9</title>
<path fill="none" stroke="midnightblue" d="M663.158,-403C682.977,-403 703.911,-403 723.516,-403"/>
<polygon fill="midnightblue" stroke="midnightblue" points="723.634,-406.5 733.634,-403 723.634,-399.5 723.634,-406.5"/>
</g>
<!-- Node10 -->
<g id="node10" class="node"><title>Node10</title>
<g id="a_node10"><a xlink:href="classmemoryoracle_1_1descriptions_1_1BlackBoxDecorator.html#a30f3fcba004264fb8b1c4e625a348124" target="_top" xlink:title="memoryoracle.descriptions.\lBlackBoxDecorator.name">
<polygon fill="none" stroke="black" points="734,-339 734,-369 884,-369 884,-339 734,-339"/>
<text text-anchor="start" x="742" y="-357" font-family="Helvetica,sans-Serif" font-size="10.00">memoryoracle.descriptions.</text>
<text text-anchor="middle" x="809" y="-346" font-family="Helvetica,sans-Serif" font-size="10.00">BlackBoxDecorator.name</text>
</a>
</g>
</g>
<!-- Node8&#45;&gt;Node10 -->
<g id="edge9" class="edge"><title>Node8&#45;&gt;Node10</title>
<path fill="none" stroke="midnightblue" d="M645.451,-387.965C670.999,-382.627 699.937,-376.58 726.244,-371.083"/>
<polygon fill="midnightblue" stroke="midnightblue" points="727.112,-374.478 736.185,-369.006 725.68,-367.626 727.112,-374.478"/>
</g>
<!-- Node11 -->
<g id="node11" class="node"><title>Node11</title>
<g id="a_node11"><a xlink:href="classmemoryoracle_1_1descriptions_1_1ExternalDescriptionDecorator.html#a3653b421084fc367f59e1b365270d4e1" target="_top" xlink:title="memoryoracle.descriptions.\lExternalDescriptionDecorator.name">
<polygon fill="none" stroke="black" points="715,-290 715,-320 903,-320 903,-290 715,-290"/>
<text text-anchor="start" x="723" y="-308" font-family="Helvetica,sans-Serif" font-size="10.00">memoryoracle.descriptions.</text>
<text text-anchor="middle" x="809" y="-297" font-family="Helvetica,sans-Serif" font-size="10.00">ExternalDescriptionDecorator.name</text>
</a>
</g>
</g>
<!-- Node8&#45;&gt;Node11 -->
<g id="edge10" class="edge"><title>Node8&#45;&gt;Node11</title>
<path fill="none" stroke="midnightblue" d="M644.878,-387.874C651.272,-385.114 657.426,-381.853 663,-378 685.23,-362.635 676.351,-343.74 699,-329 701.474,-327.39 704.04,-325.886 706.677,-324.482"/>
<polygon fill="midnightblue" stroke="midnightblue" points="708.377,-327.55 715.893,-320.083 705.361,-321.232 708.377,-327.55"/>
</g>
<!-- Node12 -->
<g id="node12" class="node"><title>Node12</title>
<g id="a_node12"><a xlink:href="classmemoryoracle_1_1descriptions_1_1StandardDescriptionDecorator.html#a06d5c7b1716ece015737e1137f39f56d" target="_top" xlink:title="memoryoracle.descriptions.\lStandardDescriptionDecorator.name">
<polygon fill="none" stroke="black" points="712.5,-241 712.5,-271 905.5,-271 905.5,-241 712.5,-241"/>
<text text-anchor="start" x="720.5" y="-259" font-family="Helvetica,sans-Serif" font-size="10.00">memoryoracle.descriptions.</text>
<text text-anchor="middle" x="809" y="-248" font-family="Helvetica,sans-Serif" font-size="10.00">StandardDescriptionDecorator.name</text>
</a>
</g>
</g>
<!-- Node8&#45;&gt;Node12 -->
<g id="edge11" class="edge"><title>Node8&#45;&gt;Node12</title>
<path fill="none" stroke="midnightblue" d="M649.164,-387.838C654.164,-385.081 658.851,-381.831 663,-378 697.091,-346.522 664.046,-310.517 699,-280 700.533,-278.662 702.123,-277.393 703.764,-276.19"/>
<polygon fill="midnightblue" stroke="midnightblue" points="705.805,-279.04 712.352,-270.71 702.039,-273.139 705.805,-279.04"/>
</g>
<!-- Node13 -->
<g id="node13" class="node"><title>Node13</title>
<g id="a_node13"><a xlink:href="classmemoryoracle_1_1frame_1_1Frame.html#a34903b0f51d554e95b269e5e1d6f1b16" target="_top" xlink:title="memoryoracle.frame.Frame.name">
<polygon fill="none" stroke="black" points="718,-202.5 718,-221.5 900,-221.5 900,-202.5 718,-202.5"/>
<text text-anchor="middle" x="809" y="-209.5" font-family="Helvetica,sans-Serif" font-size="10.00">memoryoracle.frame.Frame.name</text>
</a>
</g>
</g>
<!-- Node8&#45;&gt;Node13 -->
<g id="edge12" class="edge"><title>Node8&#45;&gt;Node13</title>
<path fill="none" stroke="midnightblue" d="M650.491,-387.846C655.061,-385.079 659.297,-381.825 663,-378 709.791,-329.677 649.857,-276.929 699,-231 702.032,-228.167 705.328,-225.676 708.822,-223.491"/>
<polygon fill="midnightblue" stroke="midnightblue" points="710.698,-226.457 717.878,-218.666 707.407,-220.279 710.698,-226.457"/>
</g>
<!-- Node14 -->
<g id="node14" class="node"><title>Node14</title>
<g id="a_node14"><a xlink:href="classmemoryoracle_1_1whip_1_1Coffee.html#a0d8c38135ee9a8cf701ffb580edf66e3" target="_top" xlink:title="memoryoracle.whip.Coffee.name">
<polygon fill="none" stroke="black" points="721.5,-164.5 721.5,-183.5 896.5,-183.5 896.5,-164.5 721.5,-164.5"/>
<text text-anchor="middle" x="809" y="-171.5" font-family="Helvetica,sans-Serif" font-size="10.00">memoryoracle.whip.Coffee.name</text>
</a>
</g>
</g>
<!-- Node8&#45;&gt;Node14 -->
<g id="edge13" class="edge"><title>Node8&#45;&gt;Node14</title>
<path fill="none" stroke="midnightblue" d="M651.112,-387.788C655.474,-385.03 659.499,-381.794 663,-378 719.809,-316.443 639.192,-251.647 699,-193 702.886,-189.189 707.248,-185.989 711.932,-183.311"/>
<polygon fill="midnightblue" stroke="midnightblue" points="713.817,-186.287 721.296,-178.782 710.77,-179.986 713.817,-186.287"/>
</g>
<!-- Node15 -->
<g id="node15" class="node"><title>Node15</title>
<g id="a_node15"><a xlink:href="classmemoryoracle_1_1whip_1_1WhipDecorator.html#a1896ad782902459bf19b6c852dd82eed" target="_top" xlink:title="memoryoracle.whip.WhipDecorator.name">
<polygon fill="none" stroke="black" points="702,-475.5 702,-494.5 916,-494.5 916,-475.5 702,-475.5"/>
<text text-anchor="middle" x="809" y="-482.5" font-family="Helvetica,sans-Serif" font-size="10.00">memoryoracle.whip.WhipDecorator.name</text>
</a>
</g>
</g>
<!-- Node8&#45;&gt;Node15 -->
<g id="edge14" class="edge"><title>Node8&#45;&gt;Node15</title>
<path fill="none" stroke="midnightblue" d="M598.046,-418.046C622.693,-432.487 662.191,-453.847 699,-466 707.573,-468.831 716.672,-471.262 725.815,-473.346"/>
<polygon fill="midnightblue" stroke="midnightblue" points="725.219,-476.798 735.731,-475.473 726.687,-469.954 725.219,-476.798"/>
</g>
<!-- Node16 -->
<g id="node16" class="node"><title>Node16</title>
<g id="a_node16"><a xlink:href="classmemoryoracle_1_1whip_1_1SugarDecorator.html#a03f5ae1d7fc30514bedc3997dbfb577c" target="_top" xlink:title="memoryoracle.whip.SugarDecorator.name">
<polygon fill="none" stroke="black" points="699,-437.5 699,-456.5 919,-456.5 919,-437.5 699,-437.5"/>
<text text-anchor="middle" x="809" y="-444.5" font-family="Helvetica,sans-Serif" font-size="10.00">memoryoracle.whip.SugarDecorator.name</text>
</a>
</g>
</g>
<!-- Node8&#45;&gt;Node16 -->
<g id="edge15" class="edge"><title>Node8&#45;&gt;Node16</title>
<path fill="none" stroke="midnightblue" d="M651.476,-418.006C667.205,-421.006 683.628,-424.12 699,-427 714.125,-429.834 730.438,-432.849 745.721,-435.656"/>
<polygon fill="midnightblue" stroke="midnightblue" points="745.125,-439.105 755.593,-437.466 746.388,-432.22 745.125,-439.105"/>
</g>
<!-- Node17 -->
<g id="node17" class="node"><title>Node17</title>
<g id="a_node17"><a xlink:href="namespacememoryoracle_1_1instance.html#ac651a8635b1ae2ee7e788bf9adb17a0b" target="_top" xlink:title="memoryoracle.instance.addressable\l_factory">
<polygon fill="none" stroke="black" points="713.5,-563 713.5,-593 904.5,-593 904.5,-563 713.5,-563"/>
<text text-anchor="start" x="721.5" y="-581" font-family="Helvetica,sans-Serif" font-size="10.00">memoryoracle.instance.addressable</text>
<text text-anchor="middle" x="809" y="-570" font-family="Helvetica,sans-Serif" font-size="10.00">_factory</text>
</a>
</g>
</g>
<!-- Node8&#45;&gt;Node17 -->
<g id="edge17" class="edge"><title>Node8&#45;&gt;Node17</title>
<path fill="none" stroke="midnightblue" d="M581.599,-418.127C598.836,-448.773 642.256,-518.228 699,-553 702.585,-555.197 706.343,-557.201 710.22,-559.029"/>
<polygon fill="midnightblue" stroke="midnightblue" points="708.885,-562.265 719.456,-562.984 711.641,-555.83 708.885,-562.265"/>
</g>
<!-- Node18&#45;&gt;Node5 -->
<g id="edge20" class="edge"><title>Node18&#45;&gt;Node5</title>
<path fill="none" stroke="midnightblue" d="M651.557,-369.175C655.697,-371.694 659.56,-374.615 663,-378 704.517,-418.845 656.744,-463.92 699,-504 706.237,-510.864 714.959,-515.98 724.279,-519.773"/>
<polygon fill="midnightblue" stroke="midnightblue" points="723.17,-523.094 733.765,-523.141 725.512,-516.497 723.17,-523.094"/>
</g>
<!-- Node18&#45;&gt;Node6 -->
<g id="edge21" class="edge"><title>Node18&#45;&gt;Node6</title>
<path fill="none" stroke="midnightblue" d="M652.842,-369.243C656.554,-371.756 659.982,-374.656 663,-378 730.548,-452.863 640.366,-519.968 699,-602 714.488,-623.668 740.618,-637.966 763.412,-646.943"/>
<polygon fill="midnightblue" stroke="midnightblue" points="762.343,-650.279 772.936,-650.471 764.774,-643.715 762.343,-650.279"/>
</g>
<!-- Node18&#45;&gt;Node7 -->
<g id="edge22" class="edge"><title>Node18&#45;&gt;Node7</title>
<path fill="none" stroke="midnightblue" d="M652.609,-368.829C656.434,-371.439 659.945,-374.474 663,-378 751.222,-479.83 606.315,-581.215 699,-679 700.074,-680.133 701.189,-681.213 702.342,-682.242"/>
<polygon fill="midnightblue" stroke="midnightblue" points="700.362,-685.132 710.464,-688.326 704.559,-679.53 700.362,-685.132"/>
</g>
<!-- Node18&#45;&gt;Node9 -->
<g id="edge25" class="edge"><title>Node18&#45;&gt;Node9</title>
<path fill="none" stroke="midnightblue" d="M645.451,-369.035C670.999,-374.373 699.937,-380.42 726.244,-385.917"/>
<polygon fill="midnightblue" stroke="midnightblue" points="725.68,-389.374 736.185,-387.994 727.112,-382.522 725.68,-389.374"/>
</g>
<!-- Node18&#45;&gt;Node10 -->
<g id="edge28" class="edge"><title>Node18&#45;&gt;Node10</title>
<path fill="none" stroke="midnightblue" d="M652.564,-354C675.382,-354 700.365,-354 723.499,-354"/>
<polygon fill="midnightblue" stroke="midnightblue" points="723.635,-357.5 733.635,-354 723.635,-350.5 723.635,-357.5"/>
</g>
<!-- Node18&#45;&gt;Node11 -->
<g id="edge29" class="edge"><title>Node18&#45;&gt;Node11</title>
<path fill="none" stroke="midnightblue" d="M645.451,-338.965C670.999,-333.627 699.937,-327.58 726.244,-322.083"/>
<polygon fill="midnightblue" stroke="midnightblue" points="727.112,-325.478 736.185,-320.006 725.68,-318.626 727.112,-325.478"/>
</g>
<!-- Node18&#45;&gt;Node12 -->
<g id="edge30" class="edge"><title>Node18&#45;&gt;Node12</title>
<path fill="none" stroke="midnightblue" d="M594.205,-338.993C618.261,-322.242 659.691,-295.462 699,-280 704.545,-277.819 710.33,-275.816 716.219,-273.979"/>
<polygon fill="midnightblue" stroke="midnightblue" points="717.595,-277.222 726.201,-271.043 715.62,-270.507 717.595,-277.222"/>
</g>
<!-- Node18&#45;&gt;Node13 -->
<g id="edge26" class="edge"><title>Node18&#45;&gt;Node13</title>
<path fill="none" stroke="midnightblue" d="M583.94,-338.964C603.276,-312.395 647.425,-257.456 699,-231 703.583,-228.649 708.401,-226.583 713.356,-224.766"/>
<polygon fill="midnightblue" stroke="midnightblue" points="714.627,-228.032 723.025,-221.573 712.432,-221.385 714.627,-228.032"/>
</g>
<!-- Node18&#45;&gt;Node14 -->
<g id="edge23" class="edge"><title>Node18&#45;&gt;Node14</title>
<path fill="none" stroke="midnightblue" d="M580.642,-338.514C596.663,-305.676 638.836,-229.116 699,-193 703.107,-190.535 707.448,-188.369 711.939,-186.469"/>
<polygon fill="midnightblue" stroke="midnightblue" points="713.215,-189.728 721.34,-182.929 710.748,-183.177 713.215,-189.728"/>
</g>
<!-- Node18&#45;&gt;Node15 -->
<g id="edge24" class="edge"><title>Node18&#45;&gt;Node15</title>
<path fill="none" stroke="midnightblue" d="M650.282,-369.152C654.842,-371.67 659.137,-374.597 663,-378 694.707,-405.935 666.076,-439.51 699,-466 701.03,-467.633 703.15,-469.147 705.347,-470.548"/>
<polygon fill="midnightblue" stroke="midnightblue" points="703.714,-473.645 714.16,-475.419 707.1,-467.519 703.714,-473.645"/>
</g>
<!-- Node18&#45;&gt;Node16 -->
<g id="edge27" class="edge"><title>Node18&#45;&gt;Node16</title>
<path fill="none" stroke="midnightblue" d="M646.69,-369.066C652.433,-371.596 657.953,-374.55 663,-378 685.31,-393.249 676.094,-412.661 699,-427 703.067,-429.546 707.376,-431.785 711.841,-433.754"/>
<polygon fill="midnightblue" stroke="midnightblue" points="710.61,-437.031 721.198,-437.427 713.168,-430.515 710.61,-437.031"/>
</g>
<!-- Node18&#45;&gt;Node17 -->
<g id="edge19" class="edge"><title>Node18&#45;&gt;Node17</title>
<path fill="none" stroke="midnightblue" d="M652.267,-369.138C656.177,-371.671 659.8,-374.605 663,-378 717.465,-435.784 643.488,-496.221 699,-553 700.841,-554.883 702.792,-556.636 704.838,-558.269"/>
<polygon fill="midnightblue" stroke="midnightblue" points="702.934,-561.207 713.159,-563.984 706.898,-555.437 702.934,-561.207"/>
</g>
<!-- Node19 -->
<g id="node19" class="node"><title>Node19</title>
<g id="a_node19"><a xlink:href="classmemoryoracle_1_1descriptions_1_1InstanceDescription.html#a1f771d354e77a6725cc27559c8bfb52d" target="_top" xlink:title="memoryoracle.descriptions.\lInstanceDescription.object">
<polygon fill="none" stroke="black" points="975.5,-727 975.5,-757 1125.5,-757 1125.5,-727 975.5,-727"/>
<text text-anchor="start" x="983.5" y="-745" font-family="Helvetica,sans-Serif" font-size="10.00">memoryoracle.descriptions.</text>
<text text-anchor="middle" x="1050.5" y="-734" font-family="Helvetica,sans-Serif" font-size="10.00">InstanceDescription.object</text>
</a>
</g>
</g>
<!-- Node18&#45;&gt;Node19 -->
<g id="edge31" class="edge"><title>Node18&#45;&gt;Node19</title>
<path fill="none" stroke="midnightblue" d="M574.629,-338.853C579.242,-289.195 601.382,-130.857 699,-67 739.913,-40.237 881.292,-35.8838 919,-67 1022.02,-152.006 1044.65,-604.249 1048.71,-716.68"/>
<polygon fill="midnightblue" stroke="midnightblue" points="1045.22,-716.882 1049.06,-726.755 1052.22,-716.641 1045.22,-716.882"/>
</g>
<!-- Node20 -->
<g id="node20" class="node"><title>Node20</title>
<g id="a_node20"><a xlink:href="namespacememoryoracle_1_1instance.html#a4b8eb263a612b709be51201fc0fa7b6c" target="_top" xlink:title="memoryoracle.instance.target\l_type_name">
<polygon fill="none" stroke="black" points="728,-115 728,-145 890,-145 890,-115 728,-115"/>
<text text-anchor="start" x="736" y="-133" font-family="Helvetica,sans-Serif" font-size="10.00">memoryoracle.instance.target</text>
<text text-anchor="middle" x="809" y="-122" font-family="Helvetica,sans-Serif" font-size="10.00">_type_name</text>
</a>
</g>
</g>
<!-- Node18&#45;&gt;Node20 -->
<g id="edge32" class="edge"><title>Node18&#45;&gt;Node20</title>
<path fill="none" stroke="midnightblue" d="M578.421,-338.946C591.501,-301.426 630.863,-203.315 699,-155 704.934,-150.792 711.466,-147.281 718.294,-144.351"/>
<polygon fill="midnightblue" stroke="midnightblue" points="719.685,-147.567 727.76,-140.708 717.17,-141.034 719.685,-147.567"/>
</g>
<!-- Node21 -->
<g id="node21" class="node"><title>Node21</title>
<g id="a_node21"><a xlink:href="classmemoryoracle_1_1typed_1_1Typed.html#a6443347ad281d74f97dd6880d2267ee3" target="_top" xlink:title="memoryoracle.typed.Typed.type">
<polygon fill="none" stroke="black" points="724,-76.5 724,-95.5 894,-95.5 894,-76.5 724,-76.5"/>
<text text-anchor="middle" x="809" y="-83.5" font-family="Helvetica,sans-Serif" font-size="10.00">memoryoracle.typed.Typed.type</text>
</a>
</g>
</g>
<!-- Node18&#45;&gt;Node21 -->
<g id="edge33" class="edge"><title>Node18&#45;&gt;Node21</title>
<path fill="none" stroke="midnightblue" d="M576.228,-338.952C585.055,-294.936 617.159,-165.713 699,-105 703.744,-101.481 708.921,-98.5328 714.358,-96.0697"/>
<polygon fill="midnightblue" stroke="midnightblue" points="715.712,-99.2983 723.725,-92.367 713.138,-92.7885 715.712,-99.2983"/>
</g>
<!-- Node22 -->
<g id="node22" class="node"><title>Node22</title>
<g id="a_node22"><a xlink:href="classmemoryoracle_1_1frame_1_1Frame.html#ad9f0207e267a432373b45b1d62e542ef" target="_top" xlink:title="memoryoracle.frame.Frame.type">
<polygon fill="none" stroke="black" points="721.5,-0.5 721.5,-19.5 896.5,-19.5 896.5,-0.5 721.5,-0.5"/>
<text text-anchor="middle" x="809" y="-7.5" font-family="Helvetica,sans-Serif" font-size="10.00">memoryoracle.frame.Frame.type</text>
</a>
</g>
</g>
<!-- Node18&#45;&gt;Node22 -->
<g id="edge34" class="edge"><title>Node18&#45;&gt;Node22</title>
<path fill="none" stroke="midnightblue" d="M574.587,-338.778C579.128,-287.186 601.214,-117.522 699,-34 703.625,-30.0496 708.755,-26.7071 714.196,-23.8829"/>
<polygon fill="midnightblue" stroke="midnightblue" points="715.957,-26.9272 723.613,-19.6034 713.06,-20.5545 715.957,-26.9272"/>
</g>
<!-- Node23&#45;&gt;Node6 -->
<g id="edge37" class="edge"><title>Node23&#45;&gt;Node6</title>
<path fill="none" stroke="midnightblue" d="M648.56,-775.881C653.761,-773.117 658.654,-769.853 663,-766 694.31,-738.237 666.344,-705.167 699,-679 702.553,-676.153 706.383,-673.67 710.407,-671.509"/>
<polygon fill="midnightblue" stroke="midnightblue" points="711.911,-674.669 719.497,-667.273 708.955,-668.324 711.911,-674.669"/>
</g>
<!-- Node23&#45;&gt;Node7 -->
<g id="edge38" class="edge"><title>Node23&#45;&gt;Node7</title>
<path fill="none" stroke="midnightblue" d="M644.878,-775.874C651.272,-773.114 657.426,-769.853 663,-766 685.23,-750.635 676.031,-731.237 699,-717 702.393,-714.897 705.953,-713.01 709.632,-711.318"/>
<polygon fill="midnightblue" stroke="midnightblue" points="711.051,-714.519 718.989,-707.502 708.408,-708.038 711.051,-714.519"/>
</g>
<!-- Node23&#45;&gt;Node19 -->
<g id="edge36" class="edge"><title>Node23&#45;&gt;Node19</title>
<path fill="none" stroke="midnightblue" d="M661.091,-787.319C731.09,-783.738 831.606,-777.164 919,-766 934.089,-764.072 950.077,-761.542 965.496,-758.849"/>
<polygon fill="midnightblue" stroke="midnightblue" points="966.301,-762.261 975.532,-757.06 965.072,-755.369 966.301,-762.261"/>
</g>
<!-- Node24 -->
<g id="node24" class="node"><title>Node24</title>
<g id="a_node24"><a xlink:href="classmemoryoracle_1_1instance_1_1Primitive.html#abc513cbf3d0938c0db133e9af0a6f5ea" target="_top" xlink:title="memoryoracle.instance.Primitive.val\l_string">
<polygon fill="none" stroke="black" points="955,-792 955,-822 1146,-822 1146,-792 955,-792"/>
<text text-anchor="start" x="963" y="-810" font-family="Helvetica,sans-Serif" font-size="10.00">memoryoracle.instance.Primitive.val</text>
<text text-anchor="middle" x="1050.5" y="-799" font-family="Helvetica,sans-Serif" font-size="10.00">_string</text>
</a>
</g>
</g>
<!-- Node23&#45;&gt;Node24 -->
<g id="edge39" class="edge"><title>Node23&#45;&gt;Node24</title>
<path fill="none" stroke="midnightblue" d="M604.332,-806.107C629.209,-817.412 665.461,-831.926 699,-838 795.213,-855.425 821.886,-849.376 919,-838 942.065,-835.298 966.964,-829.997 988.768,-824.531"/>
<polygon fill="midnightblue" stroke="midnightblue" points="989.736,-827.896 998.55,-822.018 987.993,-821.117 989.736,-827.896"/>
</g>
<!-- Node25 -->
<g id="node25" class="node"><title>Node25</title>
<g id="a_node25"><a xlink:href="classmemoryoracle_1_1descriptions_1_1InstanceDescription.html#ac4d8f16a2b5761e93508cb4ff73b654c" target="_top" xlink:title="memoryoracle.descriptions.\lInstanceDescription.frame">
<polygon fill="none" stroke="black" points="1182.5,-817 1182.5,-847 1332.5,-847 1332.5,-817 1182.5,-817"/>
<text text-anchor="start" x="1190.5" y="-835" font-family="Helvetica,sans-Serif" font-size="10.00">memoryoracle.descriptions.</text>
<text text-anchor="middle" x="1257.5" y="-824" font-family="Helvetica,sans-Serif" font-size="10.00">InstanceDescription.frame</text>
</a>
</g>
</g>
<!-- Node24&#45;&gt;Node25 -->
<g id="edge40" class="edge"><title>Node24&#45;&gt;Node25</title>
<path fill="none" stroke="midnightblue" d="M1146.2,-818.549C1154.95,-819.615 1163.77,-820.691 1172.41,-821.745"/>
<polygon fill="midnightblue" stroke="midnightblue" points="1172.11,-825.234 1182.46,-822.971 1172.96,-818.286 1172.11,-825.234"/>
</g>
<!-- Node26 -->
<g id="node26" class="node"><title>Node26</title>
<g id="a_node26"><a xlink:href="classmemoryoracle_1_1frame_1_1FrameSelector.html#a20efcc94b4e8fcff6836bf82f3557af9" target="_top" xlink:title="memoryoracle.frame.Frame\lSelector.frame">
<polygon fill="none" stroke="black" points="1182,-768 1182,-798 1333,-798 1333,-768 1182,-768"/>
<text text-anchor="start" x="1190" y="-786" font-family="Helvetica,sans-Serif" font-size="10.00">memoryoracle.frame.Frame</text>
<text text-anchor="middle" x="1257.5" y="-775" font-family="Helvetica,sans-Serif" font-size="10.00">Selector.frame</text>
</a>
</g>
</g>
<!-- Node24&#45;&gt;Node26 -->
<g id="edge41" class="edge"><title>Node24&#45;&gt;Node26</title>
<path fill="none" stroke="midnightblue" d="M1146.2,-795.913C1154.7,-794.918 1163.28,-793.914 1171.69,-792.929"/>
<polygon fill="midnightblue" stroke="midnightblue" points="1172.32,-796.379 1181.85,-791.74 1171.51,-789.426 1172.32,-796.379"/>
</g>
<!-- Node27&#45;&gt;Node5 -->
<g id="edge46" class="edge"><title>Node27&#45;&gt;Node5</title>
<path fill="none" stroke="midnightblue" d="M657.167,-553.442C678.741,-549.946 701.973,-546.181 723.585,-542.679"/>
<polygon fill="midnightblue" stroke="midnightblue" points="724.407,-546.092 733.718,-541.037 723.287,-539.182 724.407,-546.092"/>
</g>
<!-- Node27&#45;&gt;Node6 -->
<g id="edge44" class="edge"><title>Node27&#45;&gt;Node6</title>
<path fill="none" stroke="midnightblue" d="M646.082,-582.098C652.02,-584.623 657.749,-587.567 663,-591 684.438,-605.015 677.251,-622.473 699,-636 706.412,-640.61 714.591,-644.34 723.037,-647.359"/>
<polygon fill="midnightblue" stroke="midnightblue" points="722.067,-650.724 732.659,-650.472 724.222,-644.063 722.067,-650.724"/>
</g>
<!-- Node27&#45;&gt;Node7 -->
<g id="edge45" class="edge"><title>Node27&#45;&gt;Node7</title>
<path fill="none" stroke="midnightblue" d="M650.282,-582.152C654.842,-584.67 659.137,-587.597 663,-591 694.707,-618.935 666.076,-652.51 699,-679 701.03,-680.633 703.15,-682.147 705.347,-683.548"/>
<polygon fill="midnightblue" stroke="midnightblue" points="703.714,-686.645 714.16,-688.419 707.1,-680.519 703.714,-686.645"/>
</g>
<!-- Node27&#45;&gt;Node17 -->
<g id="edge47" class="edge"><title>Node27&#45;&gt;Node17</title>
<path fill="none" stroke="midnightblue" d="M657.167,-570.925C672.057,-571.623 687.736,-572.359 703.127,-573.081"/>
<polygon fill="midnightblue" stroke="midnightblue" points="703.036,-576.58 713.189,-573.553 703.364,-569.588 703.036,-576.58"/>
</g>
<!-- Node27&#45;&gt;Node24 -->
<g id="edge43" class="edge"><title>Node27&#45;&gt;Node24</title>
<path fill="none" stroke="midnightblue" d="M630.876,-582.07C641.571,-584.969 652.639,-588.029 663,-591 679.082,-595.612 682.733,-598.088 699,-602 795.55,-625.218 845.196,-574.563 919,-641 961.969,-679.68 916.838,-722.571 955,-766 962.839,-774.921 972.97,-781.973 983.676,-787.525"/>
<polygon fill="midnightblue" stroke="midnightblue" points="982.233,-790.714 992.767,-791.844 985.237,-784.391 982.233,-790.714"/>
</g>
<!-- Node28&#45;&gt;Node6 -->
<g id="edge53" class="edge"><title>Node28&#45;&gt;Node6</title>
<path fill="none" stroke="midnightblue" d="M598.046,-726.954C622.693,-712.513 662.191,-691.153 699,-679 707.573,-676.169 716.672,-673.738 725.815,-671.654"/>
<polygon fill="midnightblue" stroke="midnightblue" points="726.687,-675.046 735.731,-669.527 725.219,-668.202 726.687,-675.046"/>
</g>
<!-- Node28&#45;&gt;Node7 -->
<g id="edge54" class="edge"><title>Node28&#45;&gt;Node7</title>
<path fill="none" stroke="midnightblue" d="M646.773,-727.096C663.896,-723.698 682.075,-720.16 699,-717 712.827,-714.418 727.662,-711.759 741.797,-709.277"/>
<polygon fill="midnightblue" stroke="midnightblue" points="742.693,-712.674 751.942,-707.506 741.489,-705.778 742.693,-712.674"/>
</g>
<!-- Node28&#45;&gt;Node17 -->
<g id="edge52" class="edge"><title>Node28&#45;&gt;Node17</title>
<path fill="none" stroke="midnightblue" d="M590.713,-726.728C614.306,-706.131 658.398,-668.828 699,-641 721.874,-625.322 748.848,-609.71 770.24,-597.949"/>
<polygon fill="midnightblue" stroke="midnightblue" points="771.931,-601.014 779.038,-593.156 768.582,-594.867 771.931,-601.014"/>
</g>
<!-- Node28&#45;&gt;Node24 -->
<g id="edge55" class="edge"><title>Node28&#45;&gt;Node24</title>
<path fill="none" stroke="midnightblue" d="M646.675,-756.919C663.803,-760.154 682.008,-763.385 699,-766 781.243,-778.657 874.877,-789.424 944.666,-796.745"/>
<polygon fill="midnightblue" stroke="midnightblue" points="944.476,-800.244 954.785,-797.799 945.202,-793.281 944.476,-800.244"/>
</g>
<!-- Node29 -->
<g id="node29" class="node"><title>Node29</title>
<g id="a_node29"><a xlink:href="classmemoryoracle_1_1instance_1_1Int.html#a450a73bc8aaf1a7ac5f18c3ed1a933fc" target="_top" xlink:title="memoryoracle.instance.Int.\l_find_hidden_type">
<polygon fill="none" stroke="black" points="735,-727 735,-757 883,-757 883,-727 735,-727"/>
<text text-anchor="start" x="743" y="-745" font-family="Helvetica,sans-Serif" font-size="10.00">memoryoracle.instance.Int.</text>
<text text-anchor="middle" x="809" y="-734" font-family="Helvetica,sans-Serif" font-size="10.00">_find_hidden_type</text>
</a>
</g>
</g>
<!-- Node28&#45;&gt;Node29 -->
<g id="edge49" class="edge"><title>Node28&#45;&gt;Node29</title>
<path fill="none" stroke="midnightblue" d="M646.733,-742C671.528,-742 699.395,-742 724.9,-742"/>
<polygon fill="midnightblue" stroke="midnightblue" points="724.92,-745.5 734.92,-742 724.92,-738.5 724.92,-745.5"/>
</g>
<!-- Node29&#45;&gt;Node19 -->
<g id="edge50" class="edge"><title>Node29&#45;&gt;Node19</title>
<path fill="none" stroke="midnightblue" d="M883.159,-742C909.019,-742 938.313,-742 965.034,-742"/>
<polygon fill="midnightblue" stroke="midnightblue" points="965.136,-745.5 975.136,-742 965.136,-738.5 965.136,-745.5"/>
</g>
<!-- Node29&#45;&gt;Node24 -->
<g id="edge51" class="edge"><title>Node29&#45;&gt;Node24</title>
<path fill="none" stroke="midnightblue" d="M865.548,-757.076C900.939,-766.681 946.952,-779.169 984.105,-789.252"/>
<polygon fill="midnightblue" stroke="midnightblue" points="983.271,-792.652 993.839,-791.894 985.105,-785.896 983.271,-792.652"/>
</g>
</g>
</svg>
