<?xml version="1.0" encoding="UTF-8" standalone="no"?>
<!DOCTYPE svg PUBLIC "-//W3C//DTD SVG 1.1//EN"
 "http://www.w3.org/Graphics/SVG/1.1/DTD/svg11.dtd">
<!-- Generated by graphviz version 2.38.0 (20140413.2041)
 -->
<!-- Title: memoryoracle.descriptions.ExternalDescriptionDecorator.name Pages: 1 -->
<svg width="895pt" height="166pt"
 viewBox="0.00 0.00 895.00 165.50" xmlns="http://www.w3.org/2000/svg" xmlns:xlink="http://www.w3.org/1999/xlink">
<g id="graph0" class="graph" transform="scale(1 1) rotate(0) translate(4 161.5)">
<title>memoryoracle.descriptions.ExternalDescriptionDecorator.name</title>
<!-- Node1 -->
<g id="node1" class="node"><title>Node1</title>
<polygon fill="#bfbfbf" stroke="black" points="0,-63.5 0,-93.5 188,-93.5 188,-63.5 0,-63.5"/>
<text text-anchor="start" x="8" y="-81.5" font-family="Helvetica,sans-Serif" font-size="10.00">memoryoracle.descriptions.</text>
<text text-anchor="middle" x="94" y="-70.5" font-family="Helvetica,sans-Serif" font-size="10.00">ExternalDescriptionDecorator.name</text>
</g>
<!-- Node2 -->
<g id="node2" class="node"><title>Node2</title>
<g id="a_node2"><a xlink:href="classmemoryoracle_1_1instance_1_1Structure.html#a200a54be462e0199b7833cbd11f81a52" target="_top" xlink:title="memoryoracle.instance.Structure.\l_track">
<polygon fill="none" stroke="black" points="224,-88.5 224,-118.5 405,-118.5 405,-88.5 224,-88.5"/>
<text text-anchor="start" x="232" y="-106.5" font-family="Helvetica,sans-Serif" font-size="10.00">memoryoracle.instance.Structure.</text>
<text text-anchor="middle" x="314.5" y="-95.5" font-family="Helvetica,sans-Serif" font-size="10.00">_track</text>
</a>
</g>
</g>
<!-- Node1&#45;&gt;Node2 -->
<g id="edge1" class="edge"><title>Node1&#45;&gt;Node2</title>
<path fill="none" stroke="midnightblue" d="M198.328,-90.3224C206.902,-91.3034 215.525,-92.2901 223.985,-93.258"/>
<polygon fill="midnightblue" stroke="midnightblue" points="198.631,-86.8343 188.297,-89.1748 197.835,-93.7889 198.631,-86.8343"/>
</g>
<!-- Node9 -->
<g id="node9" class="node"><title>Node9</title>
<g id="a_node9"><a xlink:href="classmemoryoracle_1_1instance_1_1Array.html#a1d8c3993d8a52bfbec8240d6f79b3ce1" target="_top" xlink:title="memoryoracle.instance.Array.\l_track">
<polygon fill="none" stroke="black" points="234.5,-39.5 234.5,-69.5 394.5,-69.5 394.5,-39.5 234.5,-39.5"/>
<text text-anchor="start" x="242.5" y="-57.5" font-family="Helvetica,sans-Serif" font-size="10.00">memoryoracle.instance.Array.</text>
<text text-anchor="middle" x="314.5" y="-46.5" font-family="Helvetica,sans-Serif" font-size="10.00">_track</text>
</a>
</g>
</g>
<!-- Node1&#45;&gt;Node9 -->
<g id="edge11" class="edge"><title>Node1&#45;&gt;Node9</title>
<path fill="none" stroke="midnightblue" d="M198.394,-67.1433C210.455,-65.8184 222.612,-64.4831 234.274,-63.2022"/>
<polygon fill="midnightblue" stroke="midnightblue" points="197.856,-63.6812 188.297,-68.2522 198.62,-70.6394 197.856,-63.6812"/>
</g>
<!-- Node3 -->
<g id="node3" class="node"><title>Node3</title>
<g id="a_node3"><a xlink:href="classmemoryoracle_1_1instance_1_1Instance.html#a86649e01ee4f562debdba5421a334f78" target="_top" xlink:title="memoryoracle.instance.Instance.track">
<polygon fill="none" stroke="black" points="441,-91 441,-110 641,-110 641,-91 441,-91"/>
<text text-anchor="middle" x="541" y="-98" font-family="Helvetica,sans-Serif" font-size="10.00">memoryoracle.instance.Instance.track</text>
</a>
</g>
</g>
<!-- Node2&#45;&gt;Node3 -->
<g id="edge2" class="edge"><title>Node2&#45;&gt;Node3</title>
<path fill="none" stroke="midnightblue" d="M415.437,-102.165C423.881,-102.052 432.419,-101.938 440.857,-101.825"/>
<polygon fill="midnightblue" stroke="midnightblue" points="415.149,-98.668 405.196,-102.301 415.242,-105.667 415.149,-98.668"/>
</g>
<!-- Node8 -->
<g id="node8" class="node"><title>Node8</title>
<g id="a_node8"><a xlink:href="classmemoryoracle_1_1models_1_1Typed.html#aa1d5d8d5b7ebe5c2876f363e7eb669db" target="_top" xlink:title="memoryoracle.models.Typed.track">
<polygon fill="none" stroke="black" points="450,-50 450,-69 632,-69 632,-50 450,-50"/>
<text text-anchor="middle" x="541" y="-57" font-family="Helvetica,sans-Serif" font-size="10.00">memoryoracle.models.Typed.track</text>
</a>
</g>
</g>
<!-- Node2&#45;&gt;Node8 -->
<g id="edge7" class="edge"><title>Node2&#45;&gt;Node8</title>
<path fill="none" stroke="midnightblue" d="M402.283,-86.4912C432.552,-80.5589 465.428,-74.1155 491.465,-69.0124"/>
<polygon fill="midnightblue" stroke="midnightblue" points="401.272,-83.1227 392.132,-88.4808 402.619,-89.992 401.272,-83.1227"/>
</g>
<!-- Node4 -->
<g id="node4" class="node"><title>Node4</title>
<g id="a_node4"><a xlink:href="classmemoryoracle_1_1instance_1_1Instance.html#a286e015a030541a0704994172024f034" target="_top" xlink:title="memoryoracle.instance.Instance.update">
<polygon fill="none" stroke="black" points="677,-138 677,-157 887,-157 887,-138 677,-138"/>
<text text-anchor="middle" x="782" y="-145" font-family="Helvetica,sans-Serif" font-size="10.00">memoryoracle.instance.Instance.update</text>
</a>
</g>
</g>
<!-- Node3&#45;&gt;Node4 -->
<g id="edge3" class="edge"><title>Node3&#45;&gt;Node4</title>
<path fill="none" stroke="midnightblue" d="M596.499,-112.111C621.069,-117.267 650.466,-123.325 677,-128.5 693.394,-131.697 711.274,-135.022 727.512,-137.98"/>
<polygon fill="midnightblue" stroke="midnightblue" points="597.145,-108.671 586.639,-110.037 595.704,-115.521 597.145,-108.671"/>
</g>
<!-- Node5 -->
<g id="node5" class="node"><title>Node5</title>
<g id="a_node5"><a xlink:href="classmemoryoracle_1_1models_1_1Typed.html#a494dfbe205034b874ff9e8c7039f579b" target="_top" xlink:title="memoryoracle.models.Typed.\l__init__">
<polygon fill="none" stroke="black" points="703,-88.5 703,-118.5 861,-118.5 861,-88.5 703,-88.5"/>
<text text-anchor="start" x="711" y="-106.5" font-family="Helvetica,sans-Serif" font-size="10.00">memoryoracle.models.Typed.</text>
<text text-anchor="middle" x="782" y="-95.5" font-family="Helvetica,sans-Serif" font-size="10.00">__init__</text>
</a>
</g>
</g>
<!-- Node3&#45;&gt;Node5 -->
<g id="edge4" class="edge"><title>Node3&#45;&gt;Node5</title>
<path fill="none" stroke="midnightblue" d="M651.436,-101.874C668.758,-102.091 686.364,-102.312 702.784,-102.518"/>
<polygon fill="midnightblue" stroke="midnightblue" points="651.324,-98.3721 641.281,-101.746 651.236,-105.372 651.324,-98.3721"/>
</g>
<!-- Node6 -->
<g id="node6" class="node"><title>Node6</title>
<g id="a_node6"><a xlink:href="classmemoryoracle_1_1models_1_1Memory.html#a71d4a141abc3358afdf1a1325bfd4253" target="_top" xlink:title="memoryoracle.models.Memory.update">
<polygon fill="none" stroke="black" points="681,-50 681,-69 883,-69 883,-50 681,-50"/>
<text text-anchor="middle" x="782" y="-57" font-family="Helvetica,sans-Serif" font-size="10.00">memoryoracle.models.Memory.update</text>
</a>
</g>
</g>
<!-- Node3&#45;&gt;Node6 -->
<g id="edge5" class="edge"><title>Node3&#45;&gt;Node6</title>
<path fill="none" stroke="midnightblue" d="M607.614,-89.2441C644.587,-82.9014 690.266,-75.0653 725.455,-69.0286"/>
<polygon fill="midnightblue" stroke="midnightblue" points="606.696,-85.8502 597.432,-90.9907 607.88,-92.7495 606.696,-85.8502"/>
</g>
<!-- Node7 -->
<g id="node7" class="node"><title>Node7</title>
<g id="a_node7"><a xlink:href="classmemoryoracle_1_1models_1_1Memory.html#aed3af349dd80317ae9cca4b4e9cb7c26" target="_top" xlink:title="memoryoracle.models.Memory.\l__init__">
<polygon fill="none" stroke="black" points="698,-0.5 698,-30.5 866,-30.5 866,-0.5 698,-0.5"/>
<text text-anchor="start" x="706" y="-18.5" font-family="Helvetica,sans-Serif" font-size="10.00">memoryoracle.models.Memory.</text>
<text text-anchor="middle" x="782" y="-7.5" font-family="Helvetica,sans-Serif" font-size="10.00">__init__</text>
</a>
</g>
</g>
<!-- Node3&#45;&gt;Node7 -->
<g id="edge6" class="edge"><title>Node3&#45;&gt;Node7</title>
<path fill="none" stroke="midnightblue" d="M620.248,-87.7759C627.485,-85.2281 634.523,-82.1701 641,-78.5 661.241,-67.0304 656.859,-52.1436 677,-40.5 683.752,-36.5965 691.088,-33.3009 698.635,-30.5189"/>
<polygon fill="midnightblue" stroke="midnightblue" points="618.759,-84.5768 610.29,-90.9436 620.881,-91.2475 618.759,-84.5768"/>
</g>
<!-- Node8&#45;&gt;Node5 -->
<g id="edge8" class="edge"><title>Node8&#45;&gt;Node5</title>
<path fill="none" stroke="midnightblue" d="M603.844,-70.8855C634.064,-76.449 670.753,-83.2035 702.887,-89.1194"/>
<polygon fill="midnightblue" stroke="midnightblue" points="604.328,-67.4158 593.859,-69.0473 603.06,-74.3002 604.328,-67.4158"/>
</g>
<!-- Node8&#45;&gt;Node6 -->
<g id="edge9" class="edge"><title>Node8&#45;&gt;Node6</title>
<path fill="none" stroke="midnightblue" d="M642.151,-59.5C654.884,-59.5 667.918,-59.5 680.654,-59.5"/>
<polygon fill="midnightblue" stroke="midnightblue" points="642.015,-56.0001 632.015,-59.5 642.015,-63.0001 642.015,-56.0001"/>
</g>
<!-- Node8&#45;&gt;Node7 -->
<g id="edge10" class="edge"><title>Node8&#45;&gt;Node7</title>
<path fill="none" stroke="midnightblue" d="M603.871,-48.1095C632.926,-42.7606 667.956,-36.3114 699.168,-30.5654"/>
<polygon fill="midnightblue" stroke="midnightblue" points="603.06,-44.6998 593.859,-49.9527 604.328,-51.5842 603.06,-44.6998"/>
</g>
<!-- Node9&#45;&gt;Node3 -->
<g id="edge12" class="edge"><title>Node9&#45;&gt;Node3</title>
<path fill="none" stroke="midnightblue" d="M398.818,-71.5718C430.81,-78.127 466.168,-85.3718 493.496,-90.9714"/>
<polygon fill="midnightblue" stroke="midnightblue" points="399.509,-68.1407 389.01,-69.5621 398.104,-74.9983 399.509,-68.1407"/>
</g>
<!-- Node9&#45;&gt;Node8 -->
<g id="edge13" class="edge"><title>Node9&#45;&gt;Node8</title>
<path fill="none" stroke="midnightblue" d="M404.778,-56.4884C419.554,-56.8175 434.885,-57.1589 449.687,-57.4886"/>
<polygon fill="midnightblue" stroke="midnightblue" points="404.726,-52.9864 394.65,-56.2628 404.57,-59.9847 404.726,-52.9864"/>
</g>
</g>
</svg>
