<?xml version="1.0" encoding="UTF-8" standalone="no"?>
<!DOCTYPE svg PUBLIC "-//W3C//DTD SVG 1.1//EN"
 "http://www.w3.org/Graphics/SVG/1.1/DTD/svg11.dtd">
<!-- Generated by graphviz version 2.38.0 (20140413.2041)
 -->
<!-- Title: memoryoracle.instance.Instance.object Pages: 1 -->
<svg width="1093pt" height="146pt"
 viewBox="0.00 0.00 1093.00 145.50" xmlns="http://www.w3.org/2000/svg" xmlns:xlink="http://www.w3.org/1999/xlink">
<g id="graph0" class="graph" transform="scale(1 1) rotate(0) translate(4 141.5)">
<title>memoryoracle.instance.Instance.object</title>
<!-- Node1 -->
<g id="node1" class="node"><title>Node1</title>
<polygon fill="#bfbfbf" stroke="black" points="0,-55 0,-74 206,-74 206,-55 0,-55"/>
<text text-anchor="middle" x="103" y="-62" font-family="Helvetica,sans-Serif" font-size="10.00">memoryoracle.instance.Instance.object</text>
</g>
<!-- Node2 -->
<g id="node2" class="node"><title>Node2</title>
<g id="a_node2"><a xlink:href="classmemoryoracle_1_1instance_1_1Int.html#a450a73bc8aaf1a7ac5f18c3ed1a933fc" target="_top" xlink:title="memoryoracle.instance.Int.\l_find_hidden_type">
<polygon fill="none" stroke="black" points="242,-95.5 242,-125.5 390,-125.5 390,-95.5 242,-95.5"/>
<text text-anchor="start" x="250" y="-113.5" font-family="Helvetica,sans-Serif" font-size="10.00">memoryoracle.instance.Int.</text>
<text text-anchor="middle" x="316" y="-102.5" font-family="Helvetica,sans-Serif" font-size="10.00">_find_hidden_type</text>
</a>
</g>
</g>
<!-- Node1&#45;&gt;Node2 -->
<g id="edge1" class="edge"><title>Node1&#45;&gt;Node2</title>
<path fill="none" stroke="midnightblue" d="M157.693,-76.2055C184.53,-82.0564 217.318,-89.2043 246,-95.4573"/>
<polygon fill="midnightblue" stroke="midnightblue" points="158.235,-72.7417 147.719,-74.0312 156.744,-79.581 158.235,-72.7417"/>
</g>
<!-- Node9 -->
<g id="node9" class="node"><title>Node9</title>
<g id="a_node9"><a xlink:href="classmemoryoracle_1_1instance_1_1Array.html#a1d8c3993d8a52bfbec8240d6f79b3ce1" target="_top" xlink:title="memoryoracle.instance.Array.\l_track">
<polygon fill="none" stroke="black" points="434.5,-49.5 434.5,-79.5 594.5,-79.5 594.5,-49.5 434.5,-49.5"/>
<text text-anchor="start" x="442.5" y="-67.5" font-family="Helvetica,sans-Serif" font-size="10.00">memoryoracle.instance.Array.</text>
<text text-anchor="middle" x="514.5" y="-56.5" font-family="Helvetica,sans-Serif" font-size="10.00">_track</text>
</a>
</g>
</g>
<!-- Node1&#45;&gt;Node9 -->
<g id="edge10" class="edge"><title>Node1&#45;&gt;Node9</title>
<path fill="none" stroke="midnightblue" d="M216.081,-64.5C285.225,-64.5 372.238,-64.5 434.249,-64.5"/>
<polygon fill="midnightblue" stroke="midnightblue" points="216.014,-61.0001 206.014,-64.5 216.014,-68.0001 216.014,-61.0001"/>
</g>
<!-- Node10 -->
<g id="node10" class="node"><title>Node10</title>
<g id="a_node10"><a xlink:href="classmemoryoracle_1_1instance_1_1Primitive.html#a68562bda9732e33fe32188597e2f4b91" target="_top" xlink:title="memoryoracle.instance.Primitive.\l_track">
<polygon fill="none" stroke="black" points="426,-0.5 426,-30.5 603,-30.5 603,-0.5 426,-0.5"/>
<text text-anchor="start" x="434" y="-18.5" font-family="Helvetica,sans-Serif" font-size="10.00">memoryoracle.instance.Primitive.</text>
<text text-anchor="middle" x="514.5" y="-7.5" font-family="Helvetica,sans-Serif" font-size="10.00">_track</text>
</a>
</g>
</g>
<!-- Node1&#45;&gt;Node10 -->
<g id="edge13" class="edge"><title>Node1&#45;&gt;Node10</title>
<path fill="none" stroke="midnightblue" d="M193.421,-53.8C262.379,-45.5487 357.237,-34.1982 425.767,-25.998"/>
<polygon fill="midnightblue" stroke="midnightblue" points="192.955,-50.3308 183.441,-54.9942 193.786,-57.2812 192.955,-50.3308"/>
</g>
<!-- Node3 -->
<g id="node3" class="node"><title>Node3</title>
<g id="a_node3"><a xlink:href="classmemoryoracle_1_1instance_1_1Int.html#a38c9424341353f006771163d360594da" target="_top" xlink:title="memoryoracle.instance.Int.\l_track">
<polygon fill="none" stroke="black" points="440.5,-98.5 440.5,-128.5 588.5,-128.5 588.5,-98.5 440.5,-98.5"/>
<text text-anchor="start" x="448.5" y="-116.5" font-family="Helvetica,sans-Serif" font-size="10.00">memoryoracle.instance.Int.</text>
<text text-anchor="middle" x="514.5" y="-105.5" font-family="Helvetica,sans-Serif" font-size="10.00">_track</text>
</a>
</g>
</g>
<!-- Node2&#45;&gt;Node3 -->
<g id="edge2" class="edge"><title>Node2&#45;&gt;Node3</title>
<path fill="none" stroke="midnightblue" d="M400.25,-111.771C413.549,-111.974 427.225,-112.183 440.27,-112.382"/>
<polygon fill="midnightblue" stroke="midnightblue" points="400.222,-108.27 390.169,-111.617 400.115,-115.269 400.222,-108.27"/>
</g>
<!-- Node4 -->
<g id="node4" class="node"><title>Node4</title>
<g id="a_node4"><a xlink:href="classmemoryoracle_1_1instance_1_1Instance.html#a86649e01ee4f562debdba5421a334f78" target="_top" xlink:title="memoryoracle.instance.Instance.track">
<polygon fill="none" stroke="black" points="639,-74 639,-93 839,-93 839,-74 639,-74"/>
<text text-anchor="middle" x="739" y="-81" font-family="Helvetica,sans-Serif" font-size="10.00">memoryoracle.instance.Instance.track</text>
</a>
</g>
</g>
<!-- Node3&#45;&gt;Node4 -->
<g id="edge3" class="edge"><title>Node3&#45;&gt;Node4</title>
<path fill="none" stroke="midnightblue" d="M598.595,-102.296C621.245,-99.2422 645.561,-95.9636 667.442,-93.0134"/>
<polygon fill="midnightblue" stroke="midnightblue" points="598.106,-98.8304 588.663,-103.635 599.041,-105.768 598.106,-98.8304"/>
</g>
<!-- Node8 -->
<g id="node8" class="node"><title>Node8</title>
<g id="a_node8"><a xlink:href="classmemoryoracle_1_1models_1_1Memory.html#a27f8d94aeb19f8101c29a673c7bae4a1" target="_top" xlink:title="memoryoracle.models.Memory.track">
<polygon fill="none" stroke="black" points="643,-36 643,-55 835,-55 835,-36 643,-36"/>
<text text-anchor="middle" x="739" y="-43" font-family="Helvetica,sans-Serif" font-size="10.00">memoryoracle.models.Memory.track</text>
</a>
</g>
</g>
<!-- Node3&#45;&gt;Node8 -->
<g id="edge7" class="edge"><title>Node3&#45;&gt;Node8</title>
<path fill="none" stroke="midnightblue" d="M587.319,-94.9632C592.699,-92.9746 597.981,-90.821 603,-88.5 620.454,-80.4287 621.206,-71.7897 639,-64.5 648.474,-60.6188 658.788,-57.5193 669.063,-55.0469"/>
<polygon fill="midnightblue" stroke="midnightblue" points="585.856,-91.7668 577.567,-98.3652 588.162,-98.3762 585.856,-91.7668"/>
</g>
<!-- Node5 -->
<g id="node5" class="node"><title>Node5</title>
<g id="a_node5"><a xlink:href="classmemoryoracle_1_1instance_1_1Instance.html#a286e015a030541a0704994172024f034" target="_top" xlink:title="memoryoracle.instance.Instance.update">
<polygon fill="none" stroke="black" points="875,-118 875,-137 1085,-137 1085,-118 875,-118"/>
<text text-anchor="middle" x="980" y="-125" font-family="Helvetica,sans-Serif" font-size="10.00">memoryoracle.instance.Instance.update</text>
</a>
</g>
</g>
<!-- Node4&#45;&gt;Node5 -->
<g id="edge4" class="edge"><title>Node4&#45;&gt;Node5</title>
<path fill="none" stroke="midnightblue" d="M802.014,-94.9168C840.907,-102.077 890.465,-111.201 927.242,-117.971"/>
<polygon fill="midnightblue" stroke="midnightblue" points="802.328,-91.4158 791.859,-93.0473 801.06,-98.3002 802.328,-91.4158"/>
</g>
<!-- Node6 -->
<g id="node6" class="node"><title>Node6</title>
<g id="a_node6"><a xlink:href="classmemoryoracle_1_1models_1_1Memory.html#a71d4a141abc3358afdf1a1325bfd4253" target="_top" xlink:title="memoryoracle.models.Memory.update">
<polygon fill="none" stroke="black" points="879,-30 879,-49 1081,-49 1081,-30 879,-30"/>
<text text-anchor="middle" x="980" y="-37" font-family="Helvetica,sans-Serif" font-size="10.00">memoryoracle.models.Memory.update</text>
</a>
</g>
</g>
<!-- Node4&#45;&gt;Node6 -->
<g id="edge5" class="edge"><title>Node4&#45;&gt;Node6</title>
<path fill="none" stroke="midnightblue" d="M801.292,-72.1174C824.393,-67.8357 850.903,-62.9323 875,-58.5 891.788,-55.412 910.104,-52.0602 926.621,-49.0437"/>
<polygon fill="midnightblue" stroke="midnightblue" points="800.473,-68.7094 791.279,-73.9738 801.749,-75.5921 800.473,-68.7094"/>
</g>
<!-- Node7 -->
<g id="node7" class="node"><title>Node7</title>
<g id="a_node7"><a xlink:href="classmemoryoracle_1_1models_1_1Memory.html#aed3af349dd80317ae9cca4b4e9cb7c26" target="_top" xlink:title="memoryoracle.models.Memory.\l__init__">
<polygon fill="none" stroke="black" points="896,-68.5 896,-98.5 1064,-98.5 1064,-68.5 896,-68.5"/>
<text text-anchor="start" x="904" y="-86.5" font-family="Helvetica,sans-Serif" font-size="10.00">memoryoracle.models.Memory.</text>
<text text-anchor="middle" x="980" y="-75.5" font-family="Helvetica,sans-Serif" font-size="10.00">__init__</text>
</a>
</g>
</g>
<!-- Node4&#45;&gt;Node7 -->
<g id="edge6" class="edge"><title>Node4&#45;&gt;Node7</title>
<path fill="none" stroke="midnightblue" d="M849.5,-83.5C865.117,-83.5 880.964,-83.5 895.964,-83.5"/>
<polygon fill="midnightblue" stroke="midnightblue" points="849.281,-80.0001 839.281,-83.5 849.281,-87.0001 849.281,-80.0001"/>
</g>
<!-- Node8&#45;&gt;Node6 -->
<g id="edge8" class="edge"><title>Node8&#45;&gt;Node6</title>
<path fill="none" stroke="midnightblue" d="M845.283,-42.8569C856.385,-42.5782 867.652,-42.2953 878.695,-42.0181"/>
<polygon fill="midnightblue" stroke="midnightblue" points="845.055,-39.3614 835.146,-43.1114 845.231,-46.3592 845.055,-39.3614"/>
</g>
<!-- Node8&#45;&gt;Node7 -->
<g id="edge9" class="edge"><title>Node8&#45;&gt;Node7</title>
<path fill="none" stroke="midnightblue" d="M810.097,-56.6452C836.995,-60.9218 867.946,-65.8429 895.945,-70.2947"/>
<polygon fill="midnightblue" stroke="midnightblue" points="810.427,-53.1537 800.001,-55.04 809.328,-60.0669 810.427,-53.1537"/>
</g>
<!-- Node9&#45;&gt;Node4 -->
<g id="edge11" class="edge"><title>Node9&#45;&gt;Node4</title>
<path fill="none" stroke="midnightblue" d="M604.787,-72.1245C616.02,-73.0838 627.565,-74.0696 638.938,-75.0408"/>
<polygon fill="midnightblue" stroke="midnightblue" points="604.833,-68.6158 594.572,-71.2522 604.238,-75.5904 604.833,-68.6158"/>
</g>
<!-- Node9&#45;&gt;Node8 -->
<g id="edge12" class="edge"><title>Node9&#45;&gt;Node8</title>
<path fill="none" stroke="midnightblue" d="M604.563,-56.8947C617.142,-55.8205 630.116,-54.7126 642.805,-53.629"/>
<polygon fill="midnightblue" stroke="midnightblue" points="604.238,-53.4096 594.572,-57.7478 604.833,-60.3842 604.238,-53.4096"/>
</g>
<!-- Node10&#45;&gt;Node4 -->
<g id="edge14" class="edge"><title>Node10&#45;&gt;Node4</title>
<path fill="none" stroke="midnightblue" d="M590.168,-34.0984C594.566,-35.7725 598.875,-37.5715 603,-39.5 620.646,-47.7503 621.045,-56.9448 639,-64.5 648.275,-68.403 658.379,-71.5113 668.47,-73.9849"/>
<polygon fill="midnightblue" stroke="midnightblue" points="591.025,-30.6886 580.431,-30.6311 588.677,-37.283 591.025,-30.6886"/>
</g>
<!-- Node10&#45;&gt;Node8 -->
<g id="edge15" class="edge"><title>Node10&#45;&gt;Node8</title>
<path fill="none" stroke="midnightblue" d="M613.17,-28.669C631.377,-31.1239 650.077,-33.6452 667.279,-35.9646"/>
<polygon fill="midnightblue" stroke="midnightblue" points="613.497,-25.1814 603.118,-27.3137 612.561,-32.1187 613.497,-25.1814"/>
</g>
</g>
</svg>
