<?xml version="1.0" encoding="UTF-8" standalone="no"?>
<!DOCTYPE svg PUBLIC "-//W3C//DTD SVG 1.1//EN"
 "http://www.w3.org/Graphics/SVG/1.1/DTD/svg11.dtd">
<!-- Generated by graphviz version 2.38.0 (20140413.2041)
 -->
<!-- Title: memoryoracle.container.Container Pages: 1 -->
<svg width="191pt" height="160pt"
 viewBox="0.00 0.00 191.00 160.00" xmlns="http://www.w3.org/2000/svg" xmlns:xlink="http://www.w3.org/1999/xlink">
<g id="graph0" class="graph" transform="scale(1 1) rotate(0) translate(4 156)">
<title>memoryoracle.container.Container</title>
<!-- Node1 -->
<g id="node1" class="node"><title>Node1</title>
<polygon fill="#bfbfbf" stroke="black" points="0,-0.5 0,-57.5 183,-57.5 183,-0.5 0,-0.5"/>
<text text-anchor="middle" x="91.5" y="-45.5" font-family="Helvetica,sans-Serif" font-size="10.00">memoryoracle.container.Container</text>
<polyline fill="none" stroke="black" points="0,-38.5 183,-38.5 "/>
<text text-anchor="middle" x="91.5" y="-26.5" font-family="Helvetica,sans-Serif" font-size="10.00"> </text>
<polyline fill="none" stroke="black" points="0,-19.5 183,-19.5 "/>
<text text-anchor="middle" x="91.5" y="-7.5" font-family="Helvetica,sans-Serif" font-size="10.00"> </text>
</g>
<!-- Node2 -->
<g id="node2" class="node"><title>Node2</title>
<polygon fill="none" stroke="#bfbfbf" points="28.5,-94.5 28.5,-151.5 154.5,-151.5 154.5,-94.5 28.5,-94.5"/>
<text text-anchor="middle" x="91.5" y="-139.5" font-family="Helvetica,sans-Serif" font-size="10.00">addressable::Structure</text>
<polyline fill="none" stroke="#bfbfbf" points="28.5,-132.5 154.5,-132.5 "/>
<text text-anchor="middle" x="91.5" y="-120.5" font-family="Helvetica,sans-Serif" font-size="10.00"> </text>
<polyline fill="none" stroke="#bfbfbf" points="28.5,-113.5 154.5,-113.5 "/>
<text text-anchor="middle" x="91.5" y="-101.5" font-family="Helvetica,sans-Serif" font-size="10.00"> </text>
</g>
<!-- Node2&#45;&gt;Node1 -->
<g id="edge1" class="edge"><title>Node2&#45;&gt;Node1</title>
<path fill="none" stroke="midnightblue" d="M91.5,-84.2092C91.5,-75.2929 91.5,-65.9513 91.5,-57.5836"/>
<polygon fill="none" stroke="midnightblue" points="88.0001,-84.3969 91.5,-94.397 95.0001,-84.397 88.0001,-84.3969"/>
</g>
</g>
</svg>
