<?xml version="1.0" encoding="UTF-8" standalone="no"?>
<!DOCTYPE svg PUBLIC "-//W3C//DTD SVG 1.1//EN"
 "http://www.w3.org/Graphics/SVG/1.1/DTD/svg11.dtd">
<!-- Generated by graphviz version 2.38.0 (20140413.2041)
 -->
<!-- Title: memoryoracle.templatable.Templatable Pages: 1 -->
<svg width="933pt" height="486pt"
 viewBox="0.00 0.00 933.00 486.00" xmlns="http://www.w3.org/2000/svg" xmlns:xlink="http://www.w3.org/1999/xlink">
<g id="graph0" class="graph" transform="scale(1 1) rotate(0) translate(4 482)">
<title>memoryoracle.templatable.Templatable</title>
<!-- Node1 -->
<g id="node1" class="node"><title>Node1</title>
<polygon fill="#bfbfbf" stroke="black" points="252,-315.5 252,-383.5 402,-383.5 402,-315.5 252,-315.5"/>
<text text-anchor="start" x="260" y="-371.5" font-family="Helvetica,sans-Serif" font-size="10.00">memoryoracle.templatable.</text>
<text text-anchor="middle" x="327" y="-360.5" font-family="Helvetica,sans-Serif" font-size="10.00">Templatable</text>
<polyline fill="none" stroke="black" points="252,-353.5 402,-353.5 "/>
<text text-anchor="middle" x="327" y="-341.5" font-family="Helvetica,sans-Serif" font-size="10.00"> </text>
<polyline fill="none" stroke="black" points="252,-334.5 402,-334.5 "/>
<text text-anchor="middle" x="327" y="-322.5" font-family="Helvetica,sans-Serif" font-size="10.00"> </text>
</g>
<!-- Node3 -->
<g id="node3" class="node"><title>Node3</title>
<g id="a_node3"><a xlink:href="classmemoryoracle_1_1templatable_1_1Alias.html" target="_top" xlink:title="{memoryoracle.templatable.\lAlias\n||}">
<polygon fill="none" stroke="black" points="0,-210.5 0,-278.5 150,-278.5 150,-210.5 0,-210.5"/>
<text text-anchor="start" x="8" y="-266.5" font-family="Helvetica,sans-Serif" font-size="10.00">memoryoracle.templatable.</text>
<text text-anchor="middle" x="75" y="-255.5" font-family="Helvetica,sans-Serif" font-size="10.00">Alias</text>
<polyline fill="none" stroke="black" points="0,-248.5 150,-248.5 "/>
<text text-anchor="middle" x="75" y="-236.5" font-family="Helvetica,sans-Serif" font-size="10.00"> </text>
<polyline fill="none" stroke="black" points="0,-229.5 150,-229.5 "/>
<text text-anchor="middle" x="75" y="-217.5" font-family="Helvetica,sans-Serif" font-size="10.00"> </text>
</a>
</g>
</g>
<!-- Node1&#45;&gt;Node3 -->
<g id="edge2" class="edge"><title>Node1&#45;&gt;Node3</title>
<path fill="none" stroke="midnightblue" d="M242.202,-313.841C212.444,-301.678 179.241,-288.106 150.314,-276.283"/>
<polygon fill="none" stroke="midnightblue" points="241.152,-317.192 251.733,-317.736 243.801,-310.713 241.152,-317.192"/>
</g>
<!-- Node5 -->
<g id="node5" class="node"><title>Node5</title>
<g id="a_node5"><a xlink:href="classmemoryoracle_1_1templatable_1_1TemplatedDecorator.html" target="_top" xlink:title="{memoryoracle.templatable.\lTemplatedDecorator\n||}">
<polygon fill="none" stroke="black" points="168,-210.5 168,-278.5 318,-278.5 318,-210.5 168,-210.5"/>
<text text-anchor="start" x="176" y="-266.5" font-family="Helvetica,sans-Serif" font-size="10.00">memoryoracle.templatable.</text>
<text text-anchor="middle" x="243" y="-255.5" font-family="Helvetica,sans-Serif" font-size="10.00">TemplatedDecorator</text>
<polyline fill="none" stroke="black" points="168,-248.5 318,-248.5 "/>
<text text-anchor="middle" x="243" y="-236.5" font-family="Helvetica,sans-Serif" font-size="10.00"> </text>
<polyline fill="none" stroke="black" points="168,-229.5 318,-229.5 "/>
<text text-anchor="middle" x="243" y="-217.5" font-family="Helvetica,sans-Serif" font-size="10.00"> </text>
</a>
</g>
</g>
<!-- Node1&#45;&gt;Node5 -->
<g id="edge4" class="edge"><title>Node1&#45;&gt;Node5</title>
<path fill="none" stroke="midnightblue" d="M293.518,-307.445C285.704,-297.864 277.48,-287.78 269.99,-278.595"/>
<polygon fill="none" stroke="midnightblue" points="290.927,-309.806 299.959,-315.343 296.352,-305.382 290.927,-309.806"/>
</g>
<!-- Node6 -->
<g id="node6" class="node"><title>Node6</title>
<g id="a_node6"><a xlink:href="classmemoryoracle_1_1templatable_1_1TemplateDecorator.html" target="_top" xlink:title="{memoryoracle.templatable.\lTemplateDecorator\n||}">
<polygon fill="none" stroke="black" points="336,-210.5 336,-278.5 486,-278.5 486,-210.5 336,-210.5"/>
<text text-anchor="start" x="344" y="-266.5" font-family="Helvetica,sans-Serif" font-size="10.00">memoryoracle.templatable.</text>
<text text-anchor="middle" x="411" y="-255.5" font-family="Helvetica,sans-Serif" font-size="10.00">TemplateDecorator</text>
<polyline fill="none" stroke="black" points="336,-248.5 486,-248.5 "/>
<text text-anchor="middle" x="411" y="-236.5" font-family="Helvetica,sans-Serif" font-size="10.00"> </text>
<polyline fill="none" stroke="black" points="336,-229.5 486,-229.5 "/>
<text text-anchor="middle" x="411" y="-217.5" font-family="Helvetica,sans-Serif" font-size="10.00"> </text>
</a>
</g>
</g>
<!-- Node1&#45;&gt;Node6 -->
<g id="edge5" class="edge"><title>Node1&#45;&gt;Node6</title>
<path fill="none" stroke="midnightblue" d="M360.482,-307.445C368.296,-297.864 376.52,-287.78 384.01,-278.595"/>
<polygon fill="none" stroke="midnightblue" points="357.648,-305.382 354.041,-315.343 363.073,-309.806 357.648,-305.382"/>
</g>
<!-- Node7 -->
<g id="node7" class="node"><title>Node7</title>
<g id="a_node7"><a xlink:href="classmemoryoracle_1_1templatable_1_1Type.html" target="_top" xlink:title="{memoryoracle.templatable.Type\n||}">
<polygon fill="none" stroke="black" points="504.5,-216 504.5,-273 675.5,-273 675.5,-216 504.5,-216"/>
<text text-anchor="middle" x="590" y="-261" font-family="Helvetica,sans-Serif" font-size="10.00">memoryoracle.templatable.Type</text>
<polyline fill="none" stroke="black" points="504.5,-254 675.5,-254 "/>
<text text-anchor="middle" x="590" y="-242" font-family="Helvetica,sans-Serif" font-size="10.00"> </text>
<polyline fill="none" stroke="black" points="504.5,-235 675.5,-235 "/>
<text text-anchor="middle" x="590" y="-223" font-family="Helvetica,sans-Serif" font-size="10.00"> </text>
</a>
</g>
</g>
<!-- Node1&#45;&gt;Node7 -->
<g id="edge6" class="edge"><title>Node1&#45;&gt;Node7</title>
<path fill="none" stroke="midnightblue" d="M411.678,-315.337C446.449,-301.72 486.243,-286.135 519.405,-273.147"/>
<polygon fill="none" stroke="midnightblue" points="410.048,-312.216 402.013,-319.122 412.601,-318.734 410.048,-312.216"/>
</g>
<!-- Node2 -->
<g id="node2" class="node"><title>Node2</title>
<polygon fill="none" stroke="#bfbfbf" points="279.5,-420.5 279.5,-477.5 374.5,-477.5 374.5,-420.5 279.5,-420.5"/>
<text text-anchor="middle" x="327" y="-465.5" font-family="Helvetica,sans-Serif" font-size="10.00">tracked::Symbol</text>
<polyline fill="none" stroke="#bfbfbf" points="279.5,-458.5 374.5,-458.5 "/>
<text text-anchor="middle" x="327" y="-446.5" font-family="Helvetica,sans-Serif" font-size="10.00"> </text>
<polyline fill="none" stroke="#bfbfbf" points="279.5,-439.5 374.5,-439.5 "/>
<text text-anchor="middle" x="327" y="-427.5" font-family="Helvetica,sans-Serif" font-size="10.00"> </text>
</g>
<!-- Node2&#45;&gt;Node1 -->
<g id="edge1" class="edge"><title>Node2&#45;&gt;Node1</title>
<path fill="none" stroke="midnightblue" d="M327,-410.063C327,-401.393 327,-392.243 327,-383.786"/>
<polygon fill="none" stroke="midnightblue" points="323.5,-410.321 327,-420.321 330.5,-410.321 323.5,-410.321"/>
</g>
<!-- Node4 -->
<g id="node4" class="node"><title>Node4</title>
<g id="a_node4"><a xlink:href="classmemoryoracle_1_1templatable_1_1Typedef.html" target="_top" xlink:title="{memoryoracle.templatable.\lTypedef\n||}">
<polygon fill="none" stroke="black" points="0,-105.5 0,-173.5 150,-173.5 150,-105.5 0,-105.5"/>
<text text-anchor="start" x="8" y="-161.5" font-family="Helvetica,sans-Serif" font-size="10.00">memoryoracle.templatable.</text>
<text text-anchor="middle" x="75" y="-150.5" font-family="Helvetica,sans-Serif" font-size="10.00">Typedef</text>
<polyline fill="none" stroke="black" points="0,-143.5 150,-143.5 "/>
<text text-anchor="middle" x="75" y="-131.5" font-family="Helvetica,sans-Serif" font-size="10.00"> </text>
<polyline fill="none" stroke="black" points="0,-124.5 150,-124.5 "/>
<text text-anchor="middle" x="75" y="-112.5" font-family="Helvetica,sans-Serif" font-size="10.00"> </text>
</a>
</g>
</g>
<!-- Node3&#45;&gt;Node4 -->
<g id="edge3" class="edge"><title>Node3&#45;&gt;Node4</title>
<path fill="none" stroke="midnightblue" d="M75,-200.136C75,-191.256 75,-182.045 75,-173.595"/>
<polygon fill="none" stroke="midnightblue" points="71.5001,-200.343 75,-210.343 78.5001,-200.343 71.5001,-200.343"/>
</g>
<!-- Node8 -->
<g id="node8" class="node"><title>Node8</title>
<g id="a_node8"><a xlink:href="classmemoryoracle_1_1templatable_1_1Enum.html" target="_top" xlink:title="{memoryoracle.templatable.Enum\n||}">
<polygon fill="none" stroke="black" points="243,-111 243,-168 421,-168 421,-111 243,-111"/>
<text text-anchor="middle" x="332" y="-156" font-family="Helvetica,sans-Serif" font-size="10.00">memoryoracle.templatable.Enum</text>
<polyline fill="none" stroke="black" points="243,-149 421,-149 "/>
<text text-anchor="middle" x="332" y="-137" font-family="Helvetica,sans-Serif" font-size="10.00"> </text>
<polyline fill="none" stroke="black" points="243,-130 421,-130 "/>
<text text-anchor="middle" x="332" y="-118" font-family="Helvetica,sans-Serif" font-size="10.00"> </text>
</a>
</g>
</g>
<!-- Node7&#45;&gt;Node8 -->
<g id="edge7" class="edge"><title>Node7&#45;&gt;Node8</title>
<path fill="none" stroke="midnightblue" d="M511.141,-212.017C476.091,-198.025 435.193,-181.697 401.33,-168.178"/>
<polygon fill="none" stroke="midnightblue" points="510.276,-215.441 520.861,-215.898 512.871,-208.94 510.276,-215.441"/>
</g>
<!-- Node9 -->
<g id="node9" class="node"><title>Node9</title>
<g id="a_node9"><a xlink:href="classmemoryoracle_1_1templatable_1_1SimpleType.html" target="_top" xlink:title="{memoryoracle.templatable.\lSimpleType\n||}">
<polygon fill="none" stroke="black" points="439,-105.5 439,-173.5 589,-173.5 589,-105.5 439,-105.5"/>
<text text-anchor="start" x="447" y="-161.5" font-family="Helvetica,sans-Serif" font-size="10.00">memoryoracle.templatable.</text>
<text text-anchor="middle" x="514" y="-150.5" font-family="Helvetica,sans-Serif" font-size="10.00">SimpleType</text>
<polyline fill="none" stroke="black" points="439,-143.5 589,-143.5 "/>
<text text-anchor="middle" x="514" y="-131.5" font-family="Helvetica,sans-Serif" font-size="10.00"> </text>
<polyline fill="none" stroke="black" points="439,-124.5 589,-124.5 "/>
<text text-anchor="middle" x="514" y="-112.5" font-family="Helvetica,sans-Serif" font-size="10.00"> </text>
</a>
</g>
</g>
<!-- Node7&#45;&gt;Node9 -->
<g id="edge8" class="edge"><title>Node7&#45;&gt;Node9</title>
<path fill="none" stroke="midnightblue" d="M563.583,-207.697C555.433,-196.652 546.497,-184.542 538.483,-173.681"/>
<polygon fill="none" stroke="midnightblue" points="560.88,-209.929 569.633,-215.898 566.512,-205.773 560.88,-209.929"/>
</g>
<!-- Node10 -->
<g id="node10" class="node"><title>Node10</title>
<g id="a_node10"><a xlink:href="classmemoryoracle_1_1templatable_1_1Structure.html" target="_top" xlink:title="{memoryoracle.templatable.\lStructure\n||}">
<polygon fill="none" stroke="black" points="607,-105.5 607,-173.5 757,-173.5 757,-105.5 607,-105.5"/>
<text text-anchor="start" x="615" y="-161.5" font-family="Helvetica,sans-Serif" font-size="10.00">memoryoracle.templatable.</text>
<text text-anchor="middle" x="682" y="-150.5" font-family="Helvetica,sans-Serif" font-size="10.00">Structure</text>
<polyline fill="none" stroke="black" points="607,-143.5 757,-143.5 "/>
<text text-anchor="middle" x="682" y="-131.5" font-family="Helvetica,sans-Serif" font-size="10.00"> </text>
<polyline fill="none" stroke="black" points="607,-124.5 757,-124.5 "/>
<text text-anchor="middle" x="682" y="-112.5" font-family="Helvetica,sans-Serif" font-size="10.00"> </text>
</a>
</g>
</g>
<!-- Node7&#45;&gt;Node10 -->
<g id="edge9" class="edge"><title>Node7&#45;&gt;Node10</title>
<path fill="none" stroke="midnightblue" d="M621.4,-208.346C631.42,-197.128 642.471,-184.755 652.362,-173.681"/>
<polygon fill="none" stroke="midnightblue" points="618.706,-206.108 614.654,-215.898 623.926,-210.771 618.706,-206.108"/>
</g>
<!-- Node12 -->
<g id="node12" class="node"><title>Node12</title>
<g id="a_node12"><a xlink:href="classmemoryoracle_1_1templatable_1_1Union.html" target="_top" xlink:title="{memoryoracle.templatable.\lUnion\n||}">
<polygon fill="none" stroke="black" points="775,-105.5 775,-173.5 925,-173.5 925,-105.5 775,-105.5"/>
<text text-anchor="start" x="783" y="-161.5" font-family="Helvetica,sans-Serif" font-size="10.00">memoryoracle.templatable.</text>
<text text-anchor="middle" x="850" y="-150.5" font-family="Helvetica,sans-Serif" font-size="10.00">Union</text>
<polyline fill="none" stroke="black" points="775,-143.5 925,-143.5 "/>
<text text-anchor="middle" x="850" y="-131.5" font-family="Helvetica,sans-Serif" font-size="10.00"> </text>
<polyline fill="none" stroke="black" points="775,-124.5 925,-124.5 "/>
<text text-anchor="middle" x="850" y="-112.5" font-family="Helvetica,sans-Serif" font-size="10.00"> </text>
</a>
</g>
</g>
<!-- Node7&#45;&gt;Node12 -->
<g id="edge11" class="edge"><title>Node7&#45;&gt;Node12</title>
<path fill="none" stroke="midnightblue" d="M669.471,-212.184C699.701,-200.254 734.452,-186.52 766,-174 768.919,-172.842 771.894,-171.66 774.899,-170.466"/>
<polygon fill="none" stroke="midnightblue" points="667.843,-209.064 659.825,-215.99 670.412,-215.575 667.843,-209.064"/>
</g>
<!-- Node11 -->
<g id="node11" class="node"><title>Node11</title>
<g id="a_node11"><a xlink:href="classmemoryoracle_1_1templatable_1_1StronglyTypedEnum.html" target="_top" xlink:title="{memoryoracle.templatable.\lStronglyTypedEnum\n||}">
<polygon fill="none" stroke="black" points="607,-0.5 607,-68.5 757,-68.5 757,-0.5 607,-0.5"/>
<text text-anchor="start" x="615" y="-56.5" font-family="Helvetica,sans-Serif" font-size="10.00">memoryoracle.templatable.</text>
<text text-anchor="middle" x="682" y="-45.5" font-family="Helvetica,sans-Serif" font-size="10.00">StronglyTypedEnum</text>
<polyline fill="none" stroke="black" points="607,-38.5 757,-38.5 "/>
<text text-anchor="middle" x="682" y="-26.5" font-family="Helvetica,sans-Serif" font-size="10.00"> </text>
<polyline fill="none" stroke="black" points="607,-19.5 757,-19.5 "/>
<text text-anchor="middle" x="682" y="-7.5" font-family="Helvetica,sans-Serif" font-size="10.00"> </text>
</a>
</g>
</g>
<!-- Node10&#45;&gt;Node11 -->
<g id="edge10" class="edge"><title>Node10&#45;&gt;Node11</title>
<path fill="none" stroke="midnightblue" d="M682,-95.1362C682,-86.256 682,-77.0447 682,-68.5947"/>
<polygon fill="none" stroke="midnightblue" points="678.5,-95.3432 682,-105.343 685.5,-95.3432 678.5,-95.3432"/>
</g>
</g>
</svg>
