<?xml version="1.0" encoding="UTF-8" standalone="no"?>
<!DOCTYPE svg PUBLIC "-//W3C//DTD SVG 1.1//EN"
 "http://www.w3.org/Graphics/SVG/1.1/DTD/svg11.dtd">
<!-- Generated by graphviz version 2.38.0 (20140413.2041)
 -->
<!-- Title: memoryoracle.instance.Memory.extract_dynamic_type Pages: 1 -->
<svg width="1356pt" height="183pt"
 viewBox="0.00 0.00 1356.00 183.29" xmlns="http://www.w3.org/2000/svg" xmlns:xlink="http://www.w3.org/1999/xlink">
<g id="graph0" class="graph" transform="scale(1 1) rotate(0) translate(4 179.29)">
<title>memoryoracle.instance.Memory.extract_dynamic_type</title>
<!-- Node1 -->
<g id="node1" class="node"><title>Node1</title>
<polygon fill="#bfbfbf" stroke="black" points="0,-12.7902 0,-42.7902 207,-42.7902 207,-12.7902 0,-12.7902"/>
<text text-anchor="start" x="8" y="-30.7902" font-family="Helvetica,sans-Serif" font-size="10.00">memoryoracle.instance.Memory.extract</text>
<text text-anchor="middle" x="103.5" y="-19.7902" font-family="Helvetica,sans-Serif" font-size="10.00">_dynamic_type</text>
</g>
<!-- Node2 -->
<g id="node2" class="node"><title>Node2</title>
<g id="a_node2"><a xlink:href="classmemoryoracle_1_1instance_1_1Memory.html#ac50fd3bb7216dc0481b8c6f23831a998" target="_top" xlink:title="memoryoracle.instance.Memory.\l_basic_track">
<polygon fill="none" stroke="black" points="243,-12.7902 243,-42.7902 416,-42.7902 416,-12.7902 243,-12.7902"/>
<text text-anchor="start" x="251" y="-30.7902" font-family="Helvetica,sans-Serif" font-size="10.00">memoryoracle.instance.Memory.</text>
<text text-anchor="middle" x="329.5" y="-19.7902" font-family="Helvetica,sans-Serif" font-size="10.00">_basic_track</text>
</a>
</g>
</g>
<!-- Node1&#45;&gt;Node2 -->
<g id="edge1" class="edge"><title>Node1&#45;&gt;Node2</title>
<path fill="none" stroke="midnightblue" d="M217.338,-27.7902C225.877,-27.7902 234.411,-27.7902 242.739,-27.7902"/>
<polygon fill="midnightblue" stroke="midnightblue" points="217.322,-24.2903 207.322,-27.7902 217.322,-31.2903 217.322,-24.2903"/>
</g>
<!-- Node3 -->
<g id="node3" class="node"><title>Node3</title>
<g id="a_node3"><a xlink:href="classmemoryoracle_1_1instance_1_1Memory.html#a8951ac234fecbd6cd473133ae7e63662" target="_top" xlink:title="memoryoracle.instance.Memory.track">
<polygon fill="none" stroke="black" points="452,-78.2902 452,-97.2902 649,-97.2902 649,-78.2902 452,-78.2902"/>
<text text-anchor="middle" x="550.5" y="-85.2902" font-family="Helvetica,sans-Serif" font-size="10.00">memoryoracle.instance.Memory.track</text>
</a>
</g>
</g>
<!-- Node2&#45;&gt;Node3 -->
<g id="edge2" class="edge"><title>Node2&#45;&gt;Node3</title>
<path fill="none" stroke="midnightblue" d="M395.213,-45.5197C434.335,-56.2382 482.674,-69.4817 514.708,-78.2582"/>
<polygon fill="midnightblue" stroke="midnightblue" points="396.05,-42.1201 385.48,-42.8533 394.2,-48.8713 396.05,-42.1201"/>
</g>
<!-- Node6 -->
<g id="node6" class="node"><title>Node6</title>
<g id="a_node6"><a xlink:href="classmemoryoracle_1_1models_1_1Typed.html#aa1d5d8d5b7ebe5c2876f363e7eb669db" target="_top" xlink:title="memoryoracle.models.Typed.track">
<polygon fill="none" stroke="black" points="928,-78.2902 928,-97.2902 1110,-97.2902 1110,-78.2902 928,-78.2902"/>
<text text-anchor="middle" x="1019" y="-85.2902" font-family="Helvetica,sans-Serif" font-size="10.00">memoryoracle.models.Typed.track</text>
</a>
</g>
</g>
<!-- Node2&#45;&gt;Node6 -->
<g id="edge13" class="edge"><title>Node2&#45;&gt;Node6</title>
<path fill="none" stroke="midnightblue" d="M426.1,-13.7899C539.092,-0.316648 731.982,12.9849 892,-24.7902 935.797,-35.1293 981.728,-63.1518 1004.1,-78.0967"/>
<polygon fill="midnightblue" stroke="midnightblue" points="425.594,-10.3255 416.09,-15.0089 426.44,-17.2742 425.594,-10.3255"/>
</g>
<!-- Node4 -->
<g id="node4" class="node"><title>Node4</title>
<g id="a_node4"><a xlink:href="classmemoryoracle_1_1instance_1_1Memory.html#aa937ea1a82dcaa2fa1c868a387d59483" target="_top" xlink:title="memoryoracle.instance.Memory.update">
<polygon fill="none" stroke="black" points="685,-34.2902 685,-53.2902 892,-53.2902 892,-34.2902 685,-34.2902"/>
<text text-anchor="middle" x="788.5" y="-41.2902" font-family="Helvetica,sans-Serif" font-size="10.00">memoryoracle.instance.Memory.update</text>
</a>
</g>
</g>
<!-- Node3&#45;&gt;Node4 -->
<g id="edge3" class="edge"><title>Node3&#45;&gt;Node4</title>
<path fill="none" stroke="midnightblue" d="M612.735,-76.3734C651.14,-69.2132 700.077,-60.0895 736.391,-53.3189"/>
<polygon fill="midnightblue" stroke="midnightblue" points="611.898,-72.9692 602.708,-78.2429 613.181,-79.8507 611.898,-72.9692"/>
</g>
<!-- Node5 -->
<g id="node5" class="node"><title>Node5</title>
<g id="a_node5"><a xlink:href="classmemoryoracle_1_1instance_1_1Int.html#a38c9424341353f006771163d360594da" target="_top" xlink:title="memoryoracle.instance.Int.\l_track">
<polygon fill="none" stroke="black" points="714.5,-72.7902 714.5,-102.79 862.5,-102.79 862.5,-72.7902 714.5,-72.7902"/>
<text text-anchor="start" x="722.5" y="-90.7902" font-family="Helvetica,sans-Serif" font-size="10.00">memoryoracle.instance.Int.</text>
<text text-anchor="middle" x="788.5" y="-79.7902" font-family="Helvetica,sans-Serif" font-size="10.00">_track</text>
</a>
</g>
</g>
<!-- Node3&#45;&gt;Node5 -->
<g id="edge4" class="edge"><title>Node3&#45;&gt;Node5</title>
<path fill="none" stroke="midnightblue" d="M659.217,-81.063C677.891,-80.9799 696.91,-81.1237 714.386,-81.4944"/>
<polygon fill="midnightblue" stroke="midnightblue" points="659.17,-77.5632 649.194,-81.1298 659.217,-84.563 659.17,-77.5632"/>
</g>
<!-- Node7 -->
<g id="node7" class="node"><title>Node7</title>
<g id="a_node7"><a xlink:href="classmemoryoracle_1_1models_1_1Typed.html#a494dfbe205034b874ff9e8c7039f579b" target="_top" xlink:title="memoryoracle.models.Typed.\l__init__">
<polygon fill="none" stroke="black" points="1168,-19.7902 1168,-49.7902 1326,-49.7902 1326,-19.7902 1168,-19.7902"/>
<text text-anchor="start" x="1176" y="-37.7902" font-family="Helvetica,sans-Serif" font-size="10.00">memoryoracle.models.Typed.</text>
<text text-anchor="middle" x="1247" y="-26.7902" font-family="Helvetica,sans-Serif" font-size="10.00">__init__</text>
</a>
</g>
</g>
<!-- Node3&#45;&gt;Node7 -->
<g id="edge10" class="edge"><title>Node3&#45;&gt;Node7</title>
<path fill="none" stroke="midnightblue" d="M575.001,-72.7545C600.799,-57.2161 644.018,-33.9744 685,-24.7902 853.72,13.0208 1058.17,-6.40891 1167.69,-21.8801"/>
<polygon fill="midnightblue" stroke="midnightblue" points="573.007,-69.8717 566.321,-78.0903 576.673,-75.8351 573.007,-69.8717"/>
</g>
<!-- Node8 -->
<g id="node8" class="node"><title>Node8</title>
<g id="a_node8"><a xlink:href="classmemoryoracle_1_1models_1_1Memory.html#a71d4a141abc3358afdf1a1325bfd4253" target="_top" xlink:title="memoryoracle.models.Memory.update">
<polygon fill="none" stroke="black" points="1146,-97.2902 1146,-116.29 1348,-116.29 1348,-97.2902 1146,-97.2902"/>
<text text-anchor="middle" x="1247" y="-104.29" font-family="Helvetica,sans-Serif" font-size="10.00">memoryoracle.models.Memory.update</text>
</a>
</g>
</g>
<!-- Node3&#45;&gt;Node8 -->
<g id="edge11" class="edge"><title>Node3&#45;&gt;Node8</title>
<path fill="none" stroke="midnightblue" d="M601.492,-99.4239C626.429,-104.645 657.142,-110.204 685,-112.79 845.752,-127.712 1033.52,-120.796 1145.93,-114.065"/>
<polygon fill="midnightblue" stroke="midnightblue" points="602.047,-95.9636 591.536,-97.2939 600.583,-102.809 602.047,-95.9636"/>
</g>
<!-- Node9 -->
<g id="node9" class="node"><title>Node9</title>
<g id="a_node9"><a xlink:href="classmemoryoracle_1_1models_1_1Memory.html#aed3af349dd80317ae9cca4b4e9cb7c26" target="_top" xlink:title="memoryoracle.models.Memory.\l__init__">
<polygon fill="none" stroke="black" points="1163,-144.79 1163,-174.79 1331,-174.79 1331,-144.79 1163,-144.79"/>
<text text-anchor="start" x="1171" y="-162.79" font-family="Helvetica,sans-Serif" font-size="10.00">memoryoracle.models.Memory.</text>
<text text-anchor="middle" x="1247" y="-151.79" font-family="Helvetica,sans-Serif" font-size="10.00">__init__</text>
</a>
</g>
</g>
<!-- Node3&#45;&gt;Node9 -->
<g id="edge12" class="edge"><title>Node3&#45;&gt;Node9</title>
<path fill="none" stroke="midnightblue" d="M584.727,-101.164C611.367,-111.23 649.96,-124.355 685,-130.79 852.623,-161.574 1052.81,-163.844 1162.99,-162.184"/>
<polygon fill="midnightblue" stroke="midnightblue" points="585.724,-97.7982 575.134,-97.4766 583.212,-104.332 585.724,-97.7982"/>
</g>
<!-- Node5&#45;&gt;Node3 -->
<g id="edge5" class="edge"><title>Node5&#45;&gt;Node3</title>
<path fill="none" stroke="midnightblue" d="M704.079,-94.2757C686.326,-94.5547 667.426,-94.613 649.194,-94.4506"/>
<polygon fill="midnightblue" stroke="midnightblue" points="704.453,-97.7695 714.386,-94.086 704.324,-90.7707 704.453,-97.7695"/>
</g>
<!-- Node5&#45;&gt;Node6 -->
<g id="edge6" class="edge"><title>Node5&#45;&gt;Node6</title>
<path fill="none" stroke="midnightblue" d="M872.861,-87.7902C890.781,-87.7902 909.798,-87.7902 927.959,-87.7902"/>
<polygon fill="midnightblue" stroke="midnightblue" points="872.742,-84.2903 862.742,-87.7902 872.742,-91.2903 872.742,-84.2903"/>
</g>
<!-- Node6&#45;&gt;Node7 -->
<g id="edge7" class="edge"><title>Node6&#45;&gt;Node7</title>
<path fill="none" stroke="midnightblue" d="M1070.51,-75.9457C1103.35,-68.2445 1146.46,-58.1345 1181.73,-49.8622"/>
<polygon fill="midnightblue" stroke="midnightblue" points="1069.6,-72.5628 1060.67,-78.2537 1071.2,-79.3779 1069.6,-72.5628"/>
</g>
<!-- Node6&#45;&gt;Node8 -->
<g id="edge8" class="edge"><title>Node6&#45;&gt;Node8</title>
<path fill="none" stroke="midnightblue" d="M1120.5,-96.239C1128.91,-96.9461 1137.41,-97.6611 1145.82,-98.3681"/>
<polygon fill="midnightblue" stroke="midnightblue" points="1120.55,-92.7316 1110.3,-95.3814 1119.97,-99.707 1120.55,-92.7316"/>
</g>
<!-- Node6&#45;&gt;Node9 -->
<g id="edge9" class="edge"><title>Node6&#45;&gt;Node9</title>
<path fill="none" stroke="midnightblue" d="M1059.88,-100.496C1098.6,-112.831 1157.39,-131.561 1198.51,-144.66"/>
<polygon fill="midnightblue" stroke="midnightblue" points="1060.6,-97.052 1050.01,-97.3512 1058.48,-103.722 1060.6,-97.052"/>
</g>
</g>
</svg>
