<?xml version="1.0" encoding="UTF-8" standalone="no"?>
<!DOCTYPE svg PUBLIC "-//W3C//DTD SVG 1.1//EN"
 "http://www.w3.org/Graphics/SVG/1.1/DTD/svg11.dtd">
<!-- Generated by graphviz version 2.38.0 (20140413.2041)
 -->
<!-- Title: memoryoracle.symbol.Symbol Pages: 1 -->
<svg width="1287pt" height="696pt"
 viewBox="0.00 0.00 1287.00 696.00" xmlns="http://www.w3.org/2000/svg" xmlns:xlink="http://www.w3.org/1999/xlink">
<g id="graph0" class="graph" transform="scale(1 1) rotate(0) translate(4 692)">
<title>memoryoracle.symbol.Symbol</title>
<!-- Node1 -->
<g id="node1" class="node"><title>Node1</title>
<polygon fill="#bfbfbf" stroke="black" points="468,-315.5 468,-372.5 631,-372.5 631,-315.5 468,-315.5"/>
<text text-anchor="middle" x="549.5" y="-360.5" font-family="Helvetica,sans-Serif" font-size="10.00">memoryoracle.symbol.Symbol</text>
<polyline fill="none" stroke="black" points="468,-353.5 631,-353.5 "/>
<text text-anchor="middle" x="549.5" y="-341.5" font-family="Helvetica,sans-Serif" font-size="10.00"> </text>
<polyline fill="none" stroke="black" points="468,-334.5 631,-334.5 "/>
<text text-anchor="middle" x="549.5" y="-322.5" font-family="Helvetica,sans-Serif" font-size="10.00"> </text>
</g>
<!-- Node5 -->
<g id="node5" class="node"><title>Node5</title>
<g id="a_node5"><a xlink:href="classmemoryoracle_1_1symbol_1_1Alias.html" target="_top" xlink:title="{memoryoracle.symbol.Alias\n||}">
<polygon fill="none" stroke="black" points="7,-216 7,-273 156,-273 156,-216 7,-216"/>
<text text-anchor="middle" x="81.5" y="-261" font-family="Helvetica,sans-Serif" font-size="10.00">memoryoracle.symbol.Alias</text>
<polyline fill="none" stroke="black" points="7,-254 156,-254 "/>
<text text-anchor="middle" x="81.5" y="-242" font-family="Helvetica,sans-Serif" font-size="10.00"> </text>
<polyline fill="none" stroke="black" points="7,-235 156,-235 "/>
<text text-anchor="middle" x="81.5" y="-223" font-family="Helvetica,sans-Serif" font-size="10.00"> </text>
</a>
</g>
</g>
<!-- Node1&#45;&gt;Node5 -->
<g id="edge4" class="edge"><title>Node1&#45;&gt;Node5</title>
<path fill="none" stroke="midnightblue" d="M457.615,-333.462C378.83,-323.929 262.818,-306.652 164.5,-279 158.367,-277.275 152.069,-275.243 145.817,-273.047"/>
<polygon fill="none" stroke="midnightblue" points="457.652,-336.991 467.996,-334.699 458.481,-330.04 457.652,-336.991"/>
</g>
<!-- Node7 -->
<g id="node7" class="node"><title>Node7</title>
<g id="a_node7"><a xlink:href="classmemoryoracle_1_1symbol_1_1Function.html" target="_top" xlink:title="{memoryoracle.symbol.Function\n||}">
<polygon fill="none" stroke="black" points="174,-216 174,-273 341,-273 341,-216 174,-216"/>
<text text-anchor="middle" x="257.5" y="-261" font-family="Helvetica,sans-Serif" font-size="10.00">memoryoracle.symbol.Function</text>
<polyline fill="none" stroke="black" points="174,-254 341,-254 "/>
<text text-anchor="middle" x="257.5" y="-242" font-family="Helvetica,sans-Serif" font-size="10.00"> </text>
<polyline fill="none" stroke="black" points="174,-235 341,-235 "/>
<text text-anchor="middle" x="257.5" y="-223" font-family="Helvetica,sans-Serif" font-size="10.00"> </text>
</a>
</g>
</g>
<!-- Node1&#45;&gt;Node7 -->
<g id="edge6" class="edge"><title>Node1&#45;&gt;Node7</title>
<path fill="none" stroke="midnightblue" d="M457.587,-314.425C423.536,-303.619 384.664,-291.023 349.5,-279 343.951,-277.103 338.227,-275.108 332.475,-273.078"/>
<polygon fill="none" stroke="midnightblue" points="456.931,-317.889 467.521,-317.571 459.044,-311.215 456.931,-317.889"/>
</g>
<!-- Node8 -->
<g id="node8" class="node"><title>Node8</title>
<g id="a_node8"><a xlink:href="classmemoryoracle_1_1symbol_1_1Namespace.html" target="_top" xlink:title="{memoryoracle.symbol.Namespace\n||}">
<polygon fill="none" stroke="black" points="359,-216 359,-273 544,-273 544,-216 359,-216"/>
<text text-anchor="middle" x="451.5" y="-261" font-family="Helvetica,sans-Serif" font-size="10.00">memoryoracle.symbol.Namespace</text>
<polyline fill="none" stroke="black" points="359,-254 544,-254 "/>
<text text-anchor="middle" x="451.5" y="-242" font-family="Helvetica,sans-Serif" font-size="10.00"> </text>
<polyline fill="none" stroke="black" points="359,-235 544,-235 "/>
<text text-anchor="middle" x="451.5" y="-223" font-family="Helvetica,sans-Serif" font-size="10.00"> </text>
</a>
</g>
</g>
<!-- Node1&#45;&gt;Node8 -->
<g id="edge7" class="edge"><title>Node1&#45;&gt;Node8</title>
<path fill="none" stroke="midnightblue" d="M514.323,-308.003C502.843,-296.581 490.26,-284.062 479.39,-273.248"/>
<polygon fill="none" stroke="midnightblue" points="512.122,-310.749 521.679,-315.321 517.059,-305.787 512.122,-310.749"/>
</g>
<!-- Node9 -->
<g id="node9" class="node"><title>Node9</title>
<g id="a_node9"><a xlink:href="classmemoryoracle_1_1symbol_1_1TemplateDecorator.html" target="_top" xlink:title="{memoryoracle.symbol.Template\lDecorator\n||}">
<polygon fill="none" stroke="black" points="562.5,-210.5 562.5,-278.5 732.5,-278.5 732.5,-210.5 562.5,-210.5"/>
<text text-anchor="start" x="570.5" y="-266.5" font-family="Helvetica,sans-Serif" font-size="10.00">memoryoracle.symbol.Template</text>
<text text-anchor="middle" x="647.5" y="-255.5" font-family="Helvetica,sans-Serif" font-size="10.00">Decorator</text>
<polyline fill="none" stroke="black" points="562.5,-248.5 732.5,-248.5 "/>
<text text-anchor="middle" x="647.5" y="-236.5" font-family="Helvetica,sans-Serif" font-size="10.00"> </text>
<polyline fill="none" stroke="black" points="562.5,-229.5 732.5,-229.5 "/>
<text text-anchor="middle" x="647.5" y="-217.5" font-family="Helvetica,sans-Serif" font-size="10.00"> </text>
</a>
</g>
</g>
<!-- Node1&#45;&gt;Node9 -->
<g id="edge8" class="edge"><title>Node1&#45;&gt;Node9</title>
<path fill="none" stroke="midnightblue" d="M584.495,-308.184C594.112,-298.616 604.515,-288.265 614.044,-278.786"/>
<polygon fill="none" stroke="midnightblue" points="581.941,-305.787 577.321,-315.321 586.878,-310.749 581.941,-305.787"/>
</g>
<!-- Node11 -->
<g id="node11" class="node"><title>Node11</title>
<g id="a_node11"><a xlink:href="classmemoryoracle_1_1symbol_1_1Type.html" target="_top" xlink:title="{memoryoracle.symbol.Type\n||}">
<polygon fill="none" stroke="black" points="750.5,-216 750.5,-273 898.5,-273 898.5,-216 750.5,-216"/>
<text text-anchor="middle" x="824.5" y="-261" font-family="Helvetica,sans-Serif" font-size="10.00">memoryoracle.symbol.Type</text>
<polyline fill="none" stroke="black" points="750.5,-254 898.5,-254 "/>
<text text-anchor="middle" x="824.5" y="-242" font-family="Helvetica,sans-Serif" font-size="10.00"> </text>
<polyline fill="none" stroke="black" points="750.5,-235 898.5,-235 "/>
<text text-anchor="middle" x="824.5" y="-223" font-family="Helvetica,sans-Serif" font-size="10.00"> </text>
</a>
</g>
</g>
<!-- Node1&#45;&gt;Node11 -->
<g id="edge10" class="edge"><title>Node1&#45;&gt;Node11</title>
<path fill="none" stroke="midnightblue" d="M640.945,-313.799C672.906,-303.255 708.928,-290.989 741.5,-279 746.604,-277.121 751.864,-275.13 757.141,-273.093"/>
<polygon fill="none" stroke="midnightblue" points="639.572,-310.566 631.165,-317.013 641.758,-317.215 639.572,-310.566"/>
</g>
<!-- Node17 -->
<g id="node17" class="node"><title>Node17</title>
<g id="a_node17"><a xlink:href="classmemoryoracle_1_1symbol_1_1Variable.html" target="_top" xlink:title="{memoryoracle.symbol.Variable\n||}">
<polygon fill="none" stroke="black" points="917,-216 917,-273 1082,-273 1082,-216 917,-216"/>
<text text-anchor="middle" x="999.5" y="-261" font-family="Helvetica,sans-Serif" font-size="10.00">memoryoracle.symbol.Variable</text>
<polyline fill="none" stroke="black" points="917,-254 1082,-254 "/>
<text text-anchor="middle" x="999.5" y="-242" font-family="Helvetica,sans-Serif" font-size="10.00"> </text>
<polyline fill="none" stroke="black" points="917,-235 1082,-235 "/>
<text text-anchor="middle" x="999.5" y="-223" font-family="Helvetica,sans-Serif" font-size="10.00"> </text>
</a>
</g>
</g>
<!-- Node1&#45;&gt;Node17 -->
<g id="edge16" class="edge"><title>Node1&#45;&gt;Node17</title>
<path fill="none" stroke="midnightblue" d="M641.142,-331.062C714.044,-320.503 818.266,-303.03 907.5,-279 914.065,-277.232 920.825,-275.199 927.558,-273.026"/>
<polygon fill="none" stroke="midnightblue" points="640.47,-327.622 631.067,-332.506 641.463,-334.551 640.47,-327.622"/>
</g>
<!-- Node2 -->
<g id="node2" class="node"><title>Node2</title>
<g id="a_node2"><a xlink:href="classmemoryoracle_1_1typed_1_1Typed.html" target="_top" xlink:title="{memoryoracle.typed.Typed\n||+ type_code()\l+ gdb_type()\l+ object()\l}">
<polygon fill="none" stroke="black" points="476.5,-409.5 476.5,-488.5 622.5,-488.5 622.5,-409.5 476.5,-409.5"/>
<text text-anchor="middle" x="549.5" y="-476.5" font-family="Helvetica,sans-Serif" font-size="10.00">memoryoracle.typed.Typed</text>
<polyline fill="none" stroke="black" points="476.5,-469.5 622.5,-469.5 "/>
<text text-anchor="middle" x="549.5" y="-457.5" font-family="Helvetica,sans-Serif" font-size="10.00"> </text>
<polyline fill="none" stroke="black" points="476.5,-450.5 622.5,-450.5 "/>
<text text-anchor="start" x="484.5" y="-438.5" font-family="Helvetica,sans-Serif" font-size="10.00">+ type_code()</text>
<text text-anchor="start" x="484.5" y="-427.5" font-family="Helvetica,sans-Serif" font-size="10.00">+ gdb_type()</text>
<text text-anchor="start" x="484.5" y="-416.5" font-family="Helvetica,sans-Serif" font-size="10.00">+ object()</text>
</a>
</g>
</g>
<!-- Node2&#45;&gt;Node1 -->
<g id="edge1" class="edge"><title>Node2&#45;&gt;Node1</title>
<path fill="none" stroke="midnightblue" d="M549.5,-399.163C549.5,-390.04 549.5,-380.806 549.5,-372.61"/>
<polygon fill="none" stroke="midnightblue" points="546,-399.354 549.5,-409.354 553,-399.354 546,-399.354"/>
</g>
<!-- Node3 -->
<g id="node3" class="node"><title>Node3</title>
<g id="a_node3"><a xlink:href="classmemoryoracle_1_1tracked_1_1Tracked.html" target="_top" xlink:title="{memoryoracle.tracked.Tracked\n|+ meta\l|+ track()\l+ description()\l}">
<polygon fill="none" stroke="black" points="467.5,-525.5 467.5,-593.5 631.5,-593.5 631.5,-525.5 467.5,-525.5"/>
<text text-anchor="middle" x="549.5" y="-581.5" font-family="Helvetica,sans-Serif" font-size="10.00">memoryoracle.tracked.Tracked</text>
<polyline fill="none" stroke="black" points="467.5,-574.5 631.5,-574.5 "/>
<text text-anchor="start" x="475.5" y="-562.5" font-family="Helvetica,sans-Serif" font-size="10.00">+ meta</text>
<polyline fill="none" stroke="black" points="467.5,-555.5 631.5,-555.5 "/>
<text text-anchor="start" x="475.5" y="-543.5" font-family="Helvetica,sans-Serif" font-size="10.00">+ track()</text>
<text text-anchor="start" x="475.5" y="-532.5" font-family="Helvetica,sans-Serif" font-size="10.00">+ description()</text>
</a>
</g>
</g>
<!-- Node3&#45;&gt;Node2 -->
<g id="edge2" class="edge"><title>Node3&#45;&gt;Node2</title>
<path fill="none" stroke="midnightblue" d="M549.5,-515.274C549.5,-506.476 549.5,-497.275 549.5,-488.649"/>
<polygon fill="none" stroke="midnightblue" points="546,-515.357 549.5,-525.357 553,-515.357 546,-515.357"/>
</g>
<!-- Node4 -->
<g id="node4" class="node"><title>Node4</title>
<polygon fill="none" stroke="#bfbfbf" points="516,-630.5 516,-687.5 583,-687.5 583,-630.5 516,-630.5"/>
<text text-anchor="middle" x="549.5" y="-675.5" font-family="Helvetica,sans-Serif" font-size="10.00">Document</text>
<polyline fill="none" stroke="#bfbfbf" points="516,-668.5 583,-668.5 "/>
<text text-anchor="middle" x="549.5" y="-656.5" font-family="Helvetica,sans-Serif" font-size="10.00"> </text>
<polyline fill="none" stroke="#bfbfbf" points="516,-649.5 583,-649.5 "/>
<text text-anchor="middle" x="549.5" y="-637.5" font-family="Helvetica,sans-Serif" font-size="10.00"> </text>
</g>
<!-- Node4&#45;&gt;Node3 -->
<g id="edge3" class="edge"><title>Node4&#45;&gt;Node3</title>
<path fill="none" stroke="midnightblue" d="M549.5,-620.063C549.5,-611.393 549.5,-602.243 549.5,-593.786"/>
<polygon fill="none" stroke="midnightblue" points="546,-620.321 549.5,-630.321 553,-620.321 546,-620.321"/>
</g>
<!-- Node6 -->
<g id="node6" class="node"><title>Node6</title>
<g id="a_node6"><a xlink:href="classmemoryoracle_1_1symbol_1_1Typedef.html" target="_top" xlink:title="{memoryoracle.symbol.Typedef\n||}">
<polygon fill="none" stroke="black" points="0,-111 0,-168 163,-168 163,-111 0,-111"/>
<text text-anchor="middle" x="81.5" y="-156" font-family="Helvetica,sans-Serif" font-size="10.00">memoryoracle.symbol.Typedef</text>
<polyline fill="none" stroke="black" points="0,-149 163,-149 "/>
<text text-anchor="middle" x="81.5" y="-137" font-family="Helvetica,sans-Serif" font-size="10.00"> </text>
<polyline fill="none" stroke="black" points="0,-130 163,-130 "/>
<text text-anchor="middle" x="81.5" y="-118" font-family="Helvetica,sans-Serif" font-size="10.00"> </text>
</a>
</g>
</g>
<!-- Node5&#45;&gt;Node6 -->
<g id="edge5" class="edge"><title>Node5&#45;&gt;Node6</title>
<path fill="none" stroke="midnightblue" d="M81.5,-205.786C81.5,-193.339 81.5,-179.733 81.5,-168.178"/>
<polygon fill="none" stroke="midnightblue" points="78.0001,-205.898 81.5,-215.898 85.0001,-205.898 78.0001,-205.898"/>
</g>
<!-- Node10 -->
<g id="node10" class="node"><title>Node10</title>
<g id="a_node10"><a xlink:href="classmemoryoracle_1_1symbol_1_1TemplatedDecorator.html" target="_top" xlink:title="{memoryoracle.symbol.Templated\lDecorator\n||}">
<polygon fill="none" stroke="black" points="366.5,-105.5 366.5,-173.5 542.5,-173.5 542.5,-105.5 366.5,-105.5"/>
<text text-anchor="start" x="374.5" y="-161.5" font-family="Helvetica,sans-Serif" font-size="10.00">memoryoracle.symbol.Templated</text>
<text text-anchor="middle" x="454.5" y="-150.5" font-family="Helvetica,sans-Serif" font-size="10.00">Decorator</text>
<polyline fill="none" stroke="black" points="366.5,-143.5 542.5,-143.5 "/>
<text text-anchor="middle" x="454.5" y="-131.5" font-family="Helvetica,sans-Serif" font-size="10.00"> </text>
<polyline fill="none" stroke="black" points="366.5,-124.5 542.5,-124.5 "/>
<text text-anchor="middle" x="454.5" y="-112.5" font-family="Helvetica,sans-Serif" font-size="10.00"> </text>
</a>
</g>
</g>
<!-- Node9&#45;&gt;Node10 -->
<g id="edge9" class="edge"><title>Node9&#45;&gt;Node10</title>
<path fill="none" stroke="midnightblue" d="M576.672,-205.7C556.892,-195.144 535.561,-183.76 516.344,-173.505"/>
<polygon fill="none" stroke="midnightblue" points="575.167,-208.865 585.637,-210.485 578.463,-202.689 575.167,-208.865"/>
</g>
<!-- Node12 -->
<g id="node12" class="node"><title>Node12</title>
<g id="a_node12"><a xlink:href="classmemoryoracle_1_1symbol_1_1Enum.html" target="_top" xlink:title="{memoryoracle.symbol.Enum\n||}">
<polygon fill="none" stroke="black" points="561,-111 561,-168 716,-168 716,-111 561,-111"/>
<text text-anchor="middle" x="638.5" y="-156" font-family="Helvetica,sans-Serif" font-size="10.00">memoryoracle.symbol.Enum</text>
<polyline fill="none" stroke="black" points="561,-149 716,-149 "/>
<text text-anchor="middle" x="638.5" y="-137" font-family="Helvetica,sans-Serif" font-size="10.00"> </text>
<polyline fill="none" stroke="black" points="561,-130 716,-130 "/>
<text text-anchor="middle" x="638.5" y="-118" font-family="Helvetica,sans-Serif" font-size="10.00"> </text>
</a>
</g>
</g>
<!-- Node11&#45;&gt;Node12 -->
<g id="edge11" class="edge"><title>Node11&#45;&gt;Node12</title>
<path fill="none" stroke="midnightblue" d="M765.696,-210.937C740.871,-197.189 712.269,-181.35 688.482,-168.178"/>
<polygon fill="none" stroke="midnightblue" points="764.212,-214.115 774.655,-215.898 767.603,-207.992 764.212,-214.115"/>
</g>
<!-- Node13 -->
<g id="node13" class="node"><title>Node13</title>
<g id="a_node13"><a xlink:href="classmemoryoracle_1_1symbol_1_1SimpleType.html" target="_top" xlink:title="{memoryoracle.symbol.SimpleType\n||}">
<polygon fill="none" stroke="black" points="734,-111 734,-168 915,-168 915,-111 734,-111"/>
<text text-anchor="middle" x="824.5" y="-156" font-family="Helvetica,sans-Serif" font-size="10.00">memoryoracle.symbol.SimpleType</text>
<polyline fill="none" stroke="black" points="734,-149 915,-149 "/>
<text text-anchor="middle" x="824.5" y="-137" font-family="Helvetica,sans-Serif" font-size="10.00"> </text>
<polyline fill="none" stroke="black" points="734,-130 915,-130 "/>
<text text-anchor="middle" x="824.5" y="-118" font-family="Helvetica,sans-Serif" font-size="10.00"> </text>
</a>
</g>
</g>
<!-- Node11&#45;&gt;Node13 -->
<g id="edge12" class="edge"><title>Node11&#45;&gt;Node13</title>
<path fill="none" stroke="midnightblue" d="M824.5,-205.786C824.5,-193.339 824.5,-179.733 824.5,-168.178"/>
<polygon fill="none" stroke="midnightblue" points="821,-205.898 824.5,-215.898 828,-205.898 821,-205.898"/>
</g>
<!-- Node14 -->
<g id="node14" class="node"><title>Node14</title>
<g id="a_node14"><a xlink:href="classmemoryoracle_1_1symbol_1_1Structure.html" target="_top" xlink:title="{memoryoracle.symbol.Structure\n||}">
<polygon fill="none" stroke="black" points="933.5,-111 933.5,-168 1105.5,-168 1105.5,-111 933.5,-111"/>
<text text-anchor="middle" x="1019.5" y="-156" font-family="Helvetica,sans-Serif" font-size="10.00">memoryoracle.symbol.Structure</text>
<polyline fill="none" stroke="black" points="933.5,-149 1105.5,-149 "/>
<text text-anchor="middle" x="1019.5" y="-137" font-family="Helvetica,sans-Serif" font-size="10.00"> </text>
<polyline fill="none" stroke="black" points="933.5,-130 1105.5,-130 "/>
<text text-anchor="middle" x="1019.5" y="-118" font-family="Helvetica,sans-Serif" font-size="10.00"> </text>
</a>
</g>
</g>
<!-- Node11&#45;&gt;Node14 -->
<g id="edge13" class="edge"><title>Node11&#45;&gt;Node14</title>
<path fill="none" stroke="midnightblue" d="M885.807,-211.117C911.913,-197.328 942.052,-181.408 967.099,-168.178"/>
<polygon fill="none" stroke="midnightblue" points="883.964,-208.132 876.756,-215.898 887.233,-214.322 883.964,-208.132"/>
</g>
<!-- Node16 -->
<g id="node16" class="node"><title>Node16</title>
<g id="a_node16"><a xlink:href="classmemoryoracle_1_1symbol_1_1Union.html" target="_top" xlink:title="{memoryoracle.symbol.Union\n||}">
<polygon fill="none" stroke="black" points="1124,-111 1124,-168 1279,-168 1279,-111 1124,-111"/>
<text text-anchor="middle" x="1201.5" y="-156" font-family="Helvetica,sans-Serif" font-size="10.00">memoryoracle.symbol.Union</text>
<polyline fill="none" stroke="black" points="1124,-149 1279,-149 "/>
<text text-anchor="middle" x="1201.5" y="-137" font-family="Helvetica,sans-Serif" font-size="10.00"> </text>
<polyline fill="none" stroke="black" points="1124,-130 1279,-130 "/>
<text text-anchor="middle" x="1201.5" y="-118" font-family="Helvetica,sans-Serif" font-size="10.00"> </text>
</a>
</g>
</g>
<!-- Node11&#45;&gt;Node16 -->
<g id="edge15" class="edge"><title>Node11&#45;&gt;Node16</title>
<path fill="none" stroke="midnightblue" d="M899.01,-212.572C901.862,-211.661 904.698,-210.799 907.5,-210 997.298,-184.382 1024.5,-198.896 1114.5,-174 1120.74,-172.274 1127.15,-170.269 1133.53,-168.116"/>
<polygon fill="none" stroke="midnightblue" points="897.652,-209.336 889.288,-215.84 899.882,-215.972 897.652,-209.336"/>
</g>
<!-- Node15 -->
<g id="node15" class="node"><title>Node15</title>
<g id="a_node15"><a xlink:href="classmemoryoracle_1_1symbol_1_1StronglyTypedEnum.html" target="_top" xlink:title="{memoryoracle.symbol.Strongly\lTypedEnum\n||}">
<polygon fill="none" stroke="black" points="936,-0.5 936,-68.5 1103,-68.5 1103,-0.5 936,-0.5"/>
<text text-anchor="start" x="944" y="-56.5" font-family="Helvetica,sans-Serif" font-size="10.00">memoryoracle.symbol.Strongly</text>
<text text-anchor="middle" x="1019.5" y="-45.5" font-family="Helvetica,sans-Serif" font-size="10.00">TypedEnum</text>
<polyline fill="none" stroke="black" points="936,-38.5 1103,-38.5 "/>
<text text-anchor="middle" x="1019.5" y="-26.5" font-family="Helvetica,sans-Serif" font-size="10.00"> </text>
<polyline fill="none" stroke="black" points="936,-19.5 1103,-19.5 "/>
<text text-anchor="middle" x="1019.5" y="-7.5" font-family="Helvetica,sans-Serif" font-size="10.00"> </text>
</a>
</g>
</g>
<!-- Node14&#45;&gt;Node15 -->
<g id="edge14" class="edge"><title>Node14&#45;&gt;Node15</title>
<path fill="none" stroke="midnightblue" d="M1019.5,-100.738C1019.5,-90.2318 1019.5,-78.903 1019.5,-68.6812"/>
<polygon fill="none" stroke="midnightblue" points="1016,-100.898 1019.5,-110.898 1023,-100.898 1016,-100.898"/>
</g>
</g>
</svg>
