<?xml version="1.0" encoding="UTF-8" standalone="no"?>
<!DOCTYPE svg PUBLIC "-//W3C//DTD SVG 1.1//EN"
 "http://www.w3.org/Graphics/SVG/1.1/DTD/svg11.dtd">
<!-- Generated by graphviz version 2.38.0 (20140413.2041)
 -->
<!-- Title: memoryoracle.tracked.Function Pages: 1 -->
<svg width="176pt" height="348pt"
 viewBox="0.00 0.00 176.00 348.00" xmlns="http://www.w3.org/2000/svg" xmlns:xlink="http://www.w3.org/1999/xlink">
<g id="graph0" class="graph" transform="scale(1 1) rotate(0) translate(4 344)">
<title>memoryoracle.tracked.Function</title>
<!-- Node1 -->
<g id="node1" class="node"><title>Node1</title>
<polygon fill="#bfbfbf" stroke="black" points="-1.42109e-14,-0.5 -1.42109e-14,-57.5 168,-57.5 168,-0.5 -1.42109e-14,-0.5"/>
<text text-anchor="middle" x="84" y="-45.5" font-family="Helvetica,sans-Serif" font-size="10.00">memoryoracle.tracked.Function</text>
<polyline fill="none" stroke="black" points="-1.42109e-14,-38.5 168,-38.5 "/>
<text text-anchor="middle" x="84" y="-26.5" font-family="Helvetica,sans-Serif" font-size="10.00"> </text>
<polyline fill="none" stroke="black" points="-1.42109e-14,-19.5 168,-19.5 "/>
<text text-anchor="middle" x="84" y="-7.5" font-family="Helvetica,sans-Serif" font-size="10.00"> </text>
</g>
<!-- Node2 -->
<g id="node2" class="node"><title>Node2</title>
<g id="a_node2"><a xlink:href="classmemoryoracle_1_1tracked_1_1Symbol.html" target="_top" xlink:title="{memoryoracle.tracked.Symbol\n||}">
<polygon fill="none" stroke="black" points="2,-94.5 2,-151.5 166,-151.5 166,-94.5 2,-94.5"/>
<text text-anchor="middle" x="84" y="-139.5" font-family="Helvetica,sans-Serif" font-size="10.00">memoryoracle.tracked.Symbol</text>
<polyline fill="none" stroke="black" points="2,-132.5 166,-132.5 "/>
<text text-anchor="middle" x="84" y="-120.5" font-family="Helvetica,sans-Serif" font-size="10.00"> </text>
<polyline fill="none" stroke="black" points="2,-113.5 166,-113.5 "/>
<text text-anchor="middle" x="84" y="-101.5" font-family="Helvetica,sans-Serif" font-size="10.00"> </text>
</a>
</g>
</g>
<!-- Node2&#45;&gt;Node1 -->
<g id="edge1" class="edge"><title>Node2&#45;&gt;Node1</title>
<path fill="none" stroke="midnightblue" d="M84,-84.2092C84,-75.2929 84,-65.9513 84,-57.5836"/>
<polygon fill="none" stroke="midnightblue" points="80.5001,-84.3969 84,-94.397 87.5001,-84.397 80.5001,-84.3969"/>
</g>
<!-- Node3 -->
<g id="node3" class="node"><title>Node3</title>
<g id="a_node3"><a xlink:href="classmemoryoracle_1_1tracked_1_1Tracked.html" target="_top" xlink:title="{memoryoracle.tracked.Tracked\n||}">
<polygon fill="none" stroke="black" points="2,-188.5 2,-245.5 166,-245.5 166,-188.5 2,-188.5"/>
<text text-anchor="middle" x="84" y="-233.5" font-family="Helvetica,sans-Serif" font-size="10.00">memoryoracle.tracked.Tracked</text>
<polyline fill="none" stroke="black" points="2,-226.5 166,-226.5 "/>
<text text-anchor="middle" x="84" y="-214.5" font-family="Helvetica,sans-Serif" font-size="10.00"> </text>
<polyline fill="none" stroke="black" points="2,-207.5 166,-207.5 "/>
<text text-anchor="middle" x="84" y="-195.5" font-family="Helvetica,sans-Serif" font-size="10.00"> </text>
</a>
</g>
</g>
<!-- Node3&#45;&gt;Node2 -->
<g id="edge2" class="edge"><title>Node3&#45;&gt;Node2</title>
<path fill="none" stroke="midnightblue" d="M84,-178.209C84,-169.293 84,-159.951 84,-151.584"/>
<polygon fill="none" stroke="midnightblue" points="80.5001,-178.397 84,-188.397 87.5001,-178.397 80.5001,-178.397"/>
</g>
<!-- Node4 -->
<g id="node4" class="node"><title>Node4</title>
<polygon fill="none" stroke="#bfbfbf" points="61,-282.5 61,-339.5 107,-339.5 107,-282.5 61,-282.5"/>
<text text-anchor="middle" x="84" y="-327.5" font-family="Helvetica,sans-Serif" font-size="10.00">object</text>
<polyline fill="none" stroke="#bfbfbf" points="61,-320.5 107,-320.5 "/>
<text text-anchor="middle" x="84" y="-308.5" font-family="Helvetica,sans-Serif" font-size="10.00"> </text>
<polyline fill="none" stroke="#bfbfbf" points="61,-301.5 107,-301.5 "/>
<text text-anchor="middle" x="84" y="-289.5" font-family="Helvetica,sans-Serif" font-size="10.00"> </text>
</g>
<!-- Node4&#45;&gt;Node3 -->
<g id="edge3" class="edge"><title>Node4&#45;&gt;Node3</title>
<path fill="none" stroke="midnightblue" d="M84,-272.209C84,-263.293 84,-253.951 84,-245.584"/>
<polygon fill="none" stroke="midnightblue" points="80.5001,-272.397 84,-282.397 87.5001,-272.397 80.5001,-272.397"/>
</g>
</g>
</svg>
