<?xml version="1.0" encoding="UTF-8" standalone="no"?>
<!DOCTYPE svg PUBLIC "-//W3C//DTD SVG 1.1//EN"
 "http://www.w3.org/Graphics/SVG/1.1/DTD/svg11.dtd">
<!-- Generated by graphviz version 2.38.0 (20140413.2041)
 -->
<!-- Title: memoryoracle.descriptions.BlackBoxDecorator Pages: 1 -->
<svg width="158pt" height="342pt"
 viewBox="0.00 0.00 158.00 342.00" xmlns="http://www.w3.org/2000/svg" xmlns:xlink="http://www.w3.org/1999/xlink">
<g id="graph0" class="graph" transform="scale(1 1) rotate(0) translate(4 338)">
<title>memoryoracle.descriptions.BlackBoxDecorator</title>
<!-- Node1 -->
<g id="node1" class="node"><title>Node1</title>
<polygon fill="#bfbfbf" stroke="black" points="-1.42109e-14,-0.5 -1.42109e-14,-90.5 150,-90.5 150,-0.5 -1.42109e-14,-0.5"/>
<text text-anchor="start" x="8" y="-78.5" font-family="Helvetica,sans-Serif" font-size="10.00">memoryoracle.descriptions.</text>
<text text-anchor="middle" x="75" y="-67.5" font-family="Helvetica,sans-Serif" font-size="10.00">BlackBoxDecorator</text>
<polyline fill="none" stroke="black" points="-1.42109e-14,-60.5 150,-60.5 "/>
<text text-anchor="start" x="8" y="-48.5" font-family="Helvetica,sans-Serif" font-size="10.00">&#45; _description</text>
<polyline fill="none" stroke="black" points="-1.42109e-14,-41.5 150,-41.5 "/>
<text text-anchor="start" x="8" y="-29.5" font-family="Helvetica,sans-Serif" font-size="10.00">+ __init__()</text>
<text text-anchor="start" x="8" y="-18.5" font-family="Helvetica,sans-Serif" font-size="10.00">+ description()</text>
<text text-anchor="start" x="8" y="-7.5" font-family="Helvetica,sans-Serif" font-size="10.00">+ name()</text>
</g>
<!-- Node2 -->
<g id="node2" class="node"><title>Node2</title>
<g id="a_node2"><a xlink:href="classmemoryoracle_1_1descriptions_1_1Description.html" target="_top" xlink:title="{memoryoracle.descriptions.\lDescription\n|&#45; _id\l|+ __init__()\l+ id()\l+ name()\l+ dict()\l&#45; _init()\l}">
<polygon fill="none" stroke="black" points="-1.42109e-14,-127.5 -1.42109e-14,-239.5 150,-239.5 150,-127.5 -1.42109e-14,-127.5"/>
<text text-anchor="start" x="8" y="-227.5" font-family="Helvetica,sans-Serif" font-size="10.00">memoryoracle.descriptions.</text>
<text text-anchor="middle" x="75" y="-216.5" font-family="Helvetica,sans-Serif" font-size="10.00">Description</text>
<polyline fill="none" stroke="black" points="-1.42109e-14,-209.5 150,-209.5 "/>
<text text-anchor="start" x="8" y="-197.5" font-family="Helvetica,sans-Serif" font-size="10.00">&#45; _id</text>
<polyline fill="none" stroke="black" points="-1.42109e-14,-190.5 150,-190.5 "/>
<text text-anchor="start" x="8" y="-178.5" font-family="Helvetica,sans-Serif" font-size="10.00">+ __init__()</text>
<text text-anchor="start" x="8" y="-167.5" font-family="Helvetica,sans-Serif" font-size="10.00">+ id()</text>
<text text-anchor="start" x="8" y="-156.5" font-family="Helvetica,sans-Serif" font-size="10.00">+ name()</text>
<text text-anchor="start" x="8" y="-145.5" font-family="Helvetica,sans-Serif" font-size="10.00">+ dict()</text>
<text text-anchor="start" x="8" y="-134.5" font-family="Helvetica,sans-Serif" font-size="10.00">&#45; _init()</text>
</a>
</g>
</g>
<!-- Node2&#45;&gt;Node1 -->
<g id="edge1" class="edge"><title>Node2&#45;&gt;Node1</title>
<path fill="none" stroke="midnightblue" d="M75,-117.076C75,-108.072 75,-99.0069 75,-90.5144"/>
<polygon fill="none" stroke="midnightblue" points="71.5001,-117.184 75,-127.184 78.5001,-117.184 71.5001,-117.184"/>
</g>
<!-- Node3 -->
<g id="node3" class="node"><title>Node3</title>
<polygon fill="none" stroke="#bfbfbf" points="52,-276.5 52,-333.5 98,-333.5 98,-276.5 52,-276.5"/>
<text text-anchor="middle" x="75" y="-321.5" font-family="Helvetica,sans-Serif" font-size="10.00">object</text>
<polyline fill="none" stroke="#bfbfbf" points="52,-314.5 98,-314.5 "/>
<text text-anchor="middle" x="75" y="-302.5" font-family="Helvetica,sans-Serif" font-size="10.00"> </text>
<polyline fill="none" stroke="#bfbfbf" points="52,-295.5 98,-295.5 "/>
<text text-anchor="middle" x="75" y="-283.5" font-family="Helvetica,sans-Serif" font-size="10.00"> </text>
</g>
<!-- Node3&#45;&gt;Node2 -->
<g id="edge2" class="edge"><title>Node3&#45;&gt;Node2</title>
<path fill="none" stroke="midnightblue" d="M75,-266.108C75,-257.748 75,-248.725 75,-239.834"/>
<polygon fill="none" stroke="midnightblue" points="71.5001,-266.284 75,-276.284 78.5001,-266.284 71.5001,-266.284"/>
</g>
</g>
</svg>
