<?xml version="1.0" encoding="UTF-8" standalone="no"?>
<!DOCTYPE svg PUBLIC "-//W3C//DTD SVG 1.1//EN"
 "http://www.w3.org/Graphics/SVG/1.1/DTD/svg11.dtd">
<!-- Generated by graphviz version 2.38.0 (20140413.2041)
 -->
<!-- Title: memoryoracle.models.Memory Pages: 1 -->
<svg width="175pt" height="579pt"
 viewBox="0.00 0.00 175.00 579.00" xmlns="http://www.w3.org/2000/svg" xmlns:xlink="http://www.w3.org/1999/xlink">
<g id="graph0" class="graph" transform="scale(1 1) rotate(0) translate(4 575)">
<title>memoryoracle.models.Memory</title>
<!-- Node1 -->
<g id="node1" class="node"><title>Node1</title>
<polygon fill="#bfbfbf" stroke="black" points="-1.42109e-14,-0.5 -1.42109e-14,-156.5 167,-156.5 167,-0.5 -1.42109e-14,-0.5"/>
<text text-anchor="middle" x="83.5" y="-144.5" font-family="Helvetica,sans-Serif" font-size="10.00">memoryoracle.models.Memory</text>
<polyline fill="none" stroke="black" points="-1.42109e-14,-137.5 167,-137.5 "/>
<text text-anchor="start" x="8" y="-125.5" font-family="Helvetica,sans-Serif" font-size="10.00">+ address</text>
<text text-anchor="start" x="8" y="-114.5" font-family="Helvetica,sans-Serif" font-size="10.00">+ has_symbol</text>
<text text-anchor="start" x="8" y="-103.5" font-family="Helvetica,sans-Serif" font-size="10.00">+ parent</text>
<text text-anchor="start" x="8" y="-92.5" font-family="Helvetica,sans-Serif" font-size="10.00">&#45; _updateTracker</text>
<text text-anchor="start" x="8" y="-81.5" font-family="Helvetica,sans-Serif" font-size="10.00">&#45; _watchers</text>
<text text-anchor="start" x="8" y="-70.5" font-family="Helvetica,sans-Serif" font-size="10.00">&#45; _addressFixer</text>
<polyline fill="none" stroke="black" points="-1.42109e-14,-63.5 167,-63.5 "/>
<text text-anchor="start" x="8" y="-51.5" font-family="Helvetica,sans-Serif" font-size="10.00">+ update()</text>
<text text-anchor="start" x="8" y="-40.5" font-family="Helvetica,sans-Serif" font-size="10.00">+ watchers()</text>
<text text-anchor="start" x="8" y="-29.5" font-family="Helvetica,sans-Serif" font-size="10.00">+ __init__()</text>
<text text-anchor="start" x="8" y="-18.5" font-family="Helvetica,sans-Serif" font-size="10.00">&#45; _clear_updated()</text>
<text text-anchor="start" x="8" y="-7.5" font-family="Helvetica,sans-Serif" font-size="10.00">&#45; _compute_index()</text>
</g>
<!-- Node2 -->
<g id="node2" class="node"><title>Node2</title>
<g id="a_node2"><a xlink:href="classmemoryoracle_1_1models_1_1Typed.html" target="_top" xlink:title="{memoryoracle.models.Typed\n|+ args\l+ debugee_data\l+ id_execution\l+ type\l+ description\l+ data\l&#45; _updatedNames\l&#45; _typeHandlerCode\l|+ track()\l+ __init__()\l+ type_code()\l+ gdb_type()\l+ type_handler()\l&#45; _basic_track()\l}">
<polygon fill="none" stroke="black" points="6,-193.5 6,-382.5 161,-382.5 161,-193.5 6,-193.5"/>
<text text-anchor="middle" x="83.5" y="-370.5" font-family="Helvetica,sans-Serif" font-size="10.00">memoryoracle.models.Typed</text>
<polyline fill="none" stroke="black" points="6,-363.5 161,-363.5 "/>
<text text-anchor="start" x="14" y="-351.5" font-family="Helvetica,sans-Serif" font-size="10.00">+ args</text>
<text text-anchor="start" x="14" y="-340.5" font-family="Helvetica,sans-Serif" font-size="10.00">+ debugee_data</text>
<text text-anchor="start" x="14" y="-329.5" font-family="Helvetica,sans-Serif" font-size="10.00">+ id_execution</text>
<text text-anchor="start" x="14" y="-318.5" font-family="Helvetica,sans-Serif" font-size="10.00">+ type</text>
<text text-anchor="start" x="14" y="-307.5" font-family="Helvetica,sans-Serif" font-size="10.00">+ description</text>
<text text-anchor="start" x="14" y="-296.5" font-family="Helvetica,sans-Serif" font-size="10.00">+ data</text>
<text text-anchor="start" x="14" y="-285.5" font-family="Helvetica,sans-Serif" font-size="10.00">&#45; _updatedNames</text>
<text text-anchor="start" x="14" y="-274.5" font-family="Helvetica,sans-Serif" font-size="10.00">&#45; _typeHandlerCode</text>
<polyline fill="none" stroke="black" points="6,-267.5 161,-267.5 "/>
<text text-anchor="start" x="14" y="-255.5" font-family="Helvetica,sans-Serif" font-size="10.00">+ track()</text>
<text text-anchor="start" x="14" y="-244.5" font-family="Helvetica,sans-Serif" font-size="10.00">+ __init__()</text>
<text text-anchor="start" x="14" y="-233.5" font-family="Helvetica,sans-Serif" font-size="10.00">+ type_code()</text>
<text text-anchor="start" x="14" y="-222.5" font-family="Helvetica,sans-Serif" font-size="10.00">+ gdb_type()</text>
<text text-anchor="start" x="14" y="-211.5" font-family="Helvetica,sans-Serif" font-size="10.00">+ type_handler()</text>
<text text-anchor="start" x="14" y="-200.5" font-family="Helvetica,sans-Serif" font-size="10.00">&#45; _basic_track()</text>
</a>
</g>
</g>
<!-- Node2&#45;&gt;Node1 -->
<g id="edge1" class="edge"><title>Node2&#45;&gt;Node1</title>
<path fill="none" stroke="midnightblue" d="M83.5,-183.195C83.5,-174.262 83.5,-165.33 83.5,-156.663"/>
<polygon fill="none" stroke="midnightblue" points="80.0001,-183.267 83.5,-193.267 87.0001,-183.267 80.0001,-183.267"/>
</g>
<!-- Node3 -->
<g id="node3" class="node"><title>Node3</title>
<g id="a_node3"><a xlink:href="classmemoryoracle_1_1models_1_1Tracked.html" target="_top" xlink:title="{memoryoracle.models.Tracked\n|+ name\l|}">
<polygon fill="none" stroke="black" points="1.5,-419.5 1.5,-476.5 165.5,-476.5 165.5,-419.5 1.5,-419.5"/>
<text text-anchor="middle" x="83.5" y="-464.5" font-family="Helvetica,sans-Serif" font-size="10.00">memoryoracle.models.Tracked</text>
<polyline fill="none" stroke="black" points="1.5,-457.5 165.5,-457.5 "/>
<text text-anchor="start" x="9.5" y="-445.5" font-family="Helvetica,sans-Serif" font-size="10.00">+ name</text>
<polyline fill="none" stroke="black" points="1.5,-438.5 165.5,-438.5 "/>
<text text-anchor="middle" x="83.5" y="-426.5" font-family="Helvetica,sans-Serif" font-size="10.00"> </text>
</a>
</g>
</g>
<!-- Node3&#45;&gt;Node2 -->
<g id="edge2" class="edge"><title>Node3&#45;&gt;Node2</title>
<path fill="none" stroke="midnightblue" d="M83.5,-409.215C83.5,-401.012 83.5,-391.986 83.5,-382.678"/>
<polygon fill="none" stroke="midnightblue" points="80.0001,-409.478 83.5,-419.479 87.0001,-409.479 80.0001,-409.478"/>
</g>
<!-- Node4 -->
<g id="node4" class="node"><title>Node4</title>
<polygon fill="none" stroke="#bfbfbf" points="40.5,-513.5 40.5,-570.5 126.5,-570.5 126.5,-513.5 40.5,-513.5"/>
<text text-anchor="middle" x="83.5" y="-558.5" font-family="Helvetica,sans-Serif" font-size="10.00">models::Model</text>
<polyline fill="none" stroke="#bfbfbf" points="40.5,-551.5 126.5,-551.5 "/>
<text text-anchor="middle" x="83.5" y="-539.5" font-family="Helvetica,sans-Serif" font-size="10.00"> </text>
<polyline fill="none" stroke="#bfbfbf" points="40.5,-532.5 126.5,-532.5 "/>
<text text-anchor="middle" x="83.5" y="-520.5" font-family="Helvetica,sans-Serif" font-size="10.00"> </text>
</g>
<!-- Node4&#45;&gt;Node3 -->
<g id="edge3" class="edge"><title>Node4&#45;&gt;Node3</title>
<path fill="none" stroke="midnightblue" d="M83.5,-503.209C83.5,-494.293 83.5,-484.951 83.5,-476.584"/>
<polygon fill="none" stroke="midnightblue" points="80.0001,-503.397 83.5,-513.397 87.0001,-503.397 80.0001,-503.397"/>
</g>
</g>
</svg>
