<?xml version="1.0" encoding="UTF-8" standalone="no"?>
<!DOCTYPE svg PUBLIC "-//W3C//DTD SVG 1.1//EN"
 "http://www.w3.org/Graphics/SVG/1.1/DTD/svg11.dtd">
<!-- Generated by graphviz version 2.38.0 (20140413.2041)
 -->
<!-- Title: memoryoracle.frame.Frame.index Pages: 1 -->
<svg width="1328pt" height="286pt"
 viewBox="0.00 0.00 1328.00 285.88" xmlns="http://www.w3.org/2000/svg" xmlns:xlink="http://www.w3.org/1999/xlink">
<g id="graph0" class="graph" transform="scale(1 1) rotate(0) translate(4 281.883)">
<title>memoryoracle.frame.Frame.index</title>
<!-- Node1 -->
<g id="node1" class="node"><title>Node1</title>
<polygon fill="#bfbfbf" stroke="black" points="0,-91 0,-110 179,-110 179,-91 0,-91"/>
<text text-anchor="middle" x="89.5" y="-98" font-family="Helvetica,sans-Serif" font-size="10.00">memoryoracle.frame.Frame.index</text>
</g>
<!-- Node2 -->
<g id="node2" class="node"><title>Node2</title>
<g id="a_node2"><a xlink:href="classmemoryoracle_1_1models_1_1Typed.html#a494dfbe205034b874ff9e8c7039f579b" target="_top" xlink:title="memoryoracle.models.Typed.\l__init__">
<polygon fill="none" stroke="black" points="1140,-224.5 1140,-254.5 1298,-254.5 1298,-224.5 1140,-224.5"/>
<text text-anchor="start" x="1148" y="-242.5" font-family="Helvetica,sans-Serif" font-size="10.00">memoryoracle.models.Typed.</text>
<text text-anchor="middle" x="1219" y="-231.5" font-family="Helvetica,sans-Serif" font-size="10.00">__init__</text>
</a>
</g>
</g>
<!-- Node1&#45;&gt;Node2 -->
<g id="edge1" class="edge"><title>Node1&#45;&gt;Node2</title>
<path fill="none" stroke="midnightblue" d="M111.43,-116.048C171.708,-159.235 352.23,-277.5 521.5,-277.5 521.5,-277.5 521.5,-277.5 761.5,-277.5 904.08,-277.5 940.268,-279.034 1082,-263.5 1101.9,-261.319 1123.29,-258.007 1143.08,-254.535"/>
<polygon fill="midnightblue" stroke="midnightblue" points="113.265,-113.055 103.115,-110.016 109.154,-118.721 113.265,-113.055"/>
</g>
<!-- Node3 -->
<g id="node3" class="node"><title>Node3</title>
<g id="a_node3"><a xlink:href="classmemoryoracle_1_1instance_1_1Memory.html#ac50fd3bb7216dc0481b8c6f23831a998" target="_top" xlink:title="memoryoracle.instance.Memory.\l_basic_track">
<polygon fill="none" stroke="black" points="215,-85.5 215,-115.5 388,-115.5 388,-85.5 215,-85.5"/>
<text text-anchor="start" x="223" y="-103.5" font-family="Helvetica,sans-Serif" font-size="10.00">memoryoracle.instance.Memory.</text>
<text text-anchor="middle" x="301.5" y="-92.5" font-family="Helvetica,sans-Serif" font-size="10.00">_basic_track</text>
</a>
</g>
</g>
<!-- Node1&#45;&gt;Node3 -->
<g id="edge2" class="edge"><title>Node1&#45;&gt;Node3</title>
<path fill="none" stroke="midnightblue" d="M189.502,-100.5C197.937,-100.5 206.423,-100.5 214.742,-100.5"/>
<polygon fill="midnightblue" stroke="midnightblue" points="189.255,-97.0001 179.255,-100.5 189.254,-104 189.255,-97.0001"/>
</g>
<!-- Node10 -->
<g id="node10" class="node"><title>Node10</title>
<g id="a_node10"><a xlink:href="classmemoryoracle_1_1models_1_1Memory.html#a253756ba0ddd58fc05a9463c0a181185" target="_top" xlink:title="memoryoracle.models.Memory.\l_clear_updated">
<polygon fill="none" stroke="black" points="438.5,-0.5 438.5,-30.5 606.5,-30.5 606.5,-0.5 438.5,-0.5"/>
<text text-anchor="start" x="446.5" y="-18.5" font-family="Helvetica,sans-Serif" font-size="10.00">memoryoracle.models.Memory.</text>
<text text-anchor="middle" x="522.5" y="-7.5" font-family="Helvetica,sans-Serif" font-size="10.00">_clear_updated</text>
</a>
</g>
</g>
<!-- Node1&#45;&gt;Node10 -->
<g id="edge15" class="edge"><title>Node1&#45;&gt;Node10</title>
<path fill="none" stroke="midnightblue" d="M147.592,-88.9752C168.76,-84.7181 192.971,-79.8679 215,-75.5 292.918,-60.0504 382.031,-42.6341 444.01,-30.5616"/>
<polygon fill="midnightblue" stroke="midnightblue" points="146.898,-85.5448 137.785,-90.9489 148.279,-92.4072 146.898,-85.5448"/>
</g>
<!-- Node4 -->
<g id="node4" class="node"><title>Node4</title>
<g id="a_node4"><a xlink:href="classmemoryoracle_1_1instance_1_1Memory.html#a8951ac234fecbd6cd473133ae7e63662" target="_top" xlink:title="memoryoracle.instance.Memory.track">
<polygon fill="none" stroke="black" points="424,-110 424,-129 621,-129 621,-110 424,-110"/>
<text text-anchor="middle" x="522.5" y="-117" font-family="Helvetica,sans-Serif" font-size="10.00">memoryoracle.instance.Memory.track</text>
</a>
</g>
</g>
<!-- Node3&#45;&gt;Node4 -->
<g id="edge3" class="edge"><title>Node3&#45;&gt;Node4</title>
<path fill="none" stroke="midnightblue" d="M398.111,-108.795C406.684,-109.539 415.373,-110.293 423.962,-111.038"/>
<polygon fill="midnightblue" stroke="midnightblue" points="398.377,-105.305 388.112,-107.928 397.772,-112.279 398.377,-105.305"/>
</g>
<!-- Node7 -->
<g id="node7" class="node"><title>Node7</title>
<g id="a_node7"><a xlink:href="classmemoryoracle_1_1models_1_1Typed.html#aa1d5d8d5b7ebe5c2876f363e7eb669db" target="_top" xlink:title="memoryoracle.models.Typed.track">
<polygon fill="none" stroke="black" points="900,-110 900,-129 1082,-129 1082,-110 900,-110"/>
<text text-anchor="middle" x="991" y="-117" font-family="Helvetica,sans-Serif" font-size="10.00">memoryoracle.models.Typed.track</text>
</a>
</g>
</g>
<!-- Node3&#45;&gt;Node7 -->
<g id="edge14" class="edge"><title>Node3&#45;&gt;Node7</title>
<path fill="none" stroke="midnightblue" d="M398.627,-93.1535C510.662,-86.0529 701.235,-78.5085 864,-94.5 893.963,-97.4438 927.364,-104.235 952.244,-109.997"/>
<polygon fill="midnightblue" stroke="midnightblue" points="398.12,-89.6788 388.367,-93.8165 398.572,-96.6642 398.12,-89.6788"/>
</g>
<!-- Node4&#45;&gt;Node2 -->
<g id="edge11" class="edge"><title>Node4&#45;&gt;Node2</title>
<path fill="none" stroke="midnightblue" d="M538.895,-136.421C561.885,-160.335 607.781,-203.047 657,-220.5 820.949,-278.637 1029.01,-264.937 1139.96,-251.315"/>
<polygon fill="midnightblue" stroke="midnightblue" points="541.406,-133.982 532.005,-129.096 536.307,-138.778 541.406,-133.982"/>
</g>
<!-- Node5 -->
<g id="node5" class="node"><title>Node5</title>
<g id="a_node5"><a xlink:href="classmemoryoracle_1_1instance_1_1Memory.html#aa937ea1a82dcaa2fa1c868a387d59483" target="_top" xlink:title="memoryoracle.instance.Memory.update">
<polygon fill="none" stroke="black" points="657,-192 657,-211 864,-211 864,-192 657,-192"/>
<text text-anchor="middle" x="760.5" y="-199" font-family="Helvetica,sans-Serif" font-size="10.00">memoryoracle.instance.Memory.update</text>
</a>
</g>
</g>
<!-- Node4&#45;&gt;Node5 -->
<g id="edge4" class="edge"><title>Node4&#45;&gt;Node5</title>
<path fill="none" stroke="midnightblue" d="M551.639,-133.496C578.266,-146.31 619.613,-165.113 657,-177.5 674.262,-183.219 693.59,-188.118 710.77,-191.971"/>
<polygon fill="midnightblue" stroke="midnightblue" points="553.054,-130.292 542.53,-129.068 549.994,-136.587 553.054,-130.292"/>
</g>
<!-- Node6 -->
<g id="node6" class="node"><title>Node6</title>
<g id="a_node6"><a xlink:href="classmemoryoracle_1_1instance_1_1Int.html#a38c9424341353f006771163d360594da" target="_top" xlink:title="memoryoracle.instance.Int.\l_track">
<polygon fill="none" stroke="black" points="686.5,-104.5 686.5,-134.5 834.5,-134.5 834.5,-104.5 686.5,-104.5"/>
<text text-anchor="start" x="694.5" y="-122.5" font-family="Helvetica,sans-Serif" font-size="10.00">memoryoracle.instance.Int.</text>
<text text-anchor="middle" x="760.5" y="-111.5" font-family="Helvetica,sans-Serif" font-size="10.00">_track</text>
</a>
</g>
</g>
<!-- Node4&#45;&gt;Node6 -->
<g id="edge5" class="edge"><title>Node4&#45;&gt;Node6</title>
<path fill="none" stroke="midnightblue" d="M631.217,-112.773C649.891,-112.69 668.91,-112.834 686.386,-113.204"/>
<polygon fill="midnightblue" stroke="midnightblue" points="631.17,-109.273 621.194,-112.84 631.217,-116.273 631.17,-109.273"/>
</g>
<!-- Node8 -->
<g id="node8" class="node"><title>Node8</title>
<g id="a_node8"><a xlink:href="classmemoryoracle_1_1models_1_1Memory.html#a71d4a141abc3358afdf1a1325bfd4253" target="_top" xlink:title="memoryoracle.models.Memory.update">
<polygon fill="none" stroke="black" points="1118,-28 1118,-47 1320,-47 1320,-28 1118,-28"/>
<text text-anchor="middle" x="1219" y="-35" font-family="Helvetica,sans-Serif" font-size="10.00">memoryoracle.models.Memory.update</text>
</a>
</g>
</g>
<!-- Node4&#45;&gt;Node8 -->
<g id="edge12" class="edge"><title>Node4&#45;&gt;Node8</title>
<path fill="none" stroke="midnightblue" d="M579.024,-108.024C602.941,-103.361 631.269,-98.2098 657,-94.5 817.604,-71.3447 1005.41,-54.279 1117.87,-45.1242"/>
<polygon fill="midnightblue" stroke="midnightblue" points="578.199,-104.619 569.065,-109.987 579.553,-111.487 578.199,-104.619"/>
</g>
<!-- Node9 -->
<g id="node9" class="node"><title>Node9</title>
<g id="a_node9"><a xlink:href="classmemoryoracle_1_1models_1_1Memory.html#aed3af349dd80317ae9cca4b4e9cb7c26" target="_top" xlink:title="memoryoracle.models.Memory.\l__init__">
<polygon fill="none" stroke="black" points="1135,-126.5 1135,-156.5 1303,-156.5 1303,-126.5 1135,-126.5"/>
<text text-anchor="start" x="1143" y="-144.5" font-family="Helvetica,sans-Serif" font-size="10.00">memoryoracle.models.Memory.</text>
<text text-anchor="middle" x="1219" y="-133.5" font-family="Helvetica,sans-Serif" font-size="10.00">__init__</text>
</a>
</g>
</g>
<!-- Node4&#45;&gt;Node9 -->
<g id="edge13" class="edge"><title>Node4&#45;&gt;Node9</title>
<path fill="none" stroke="midnightblue" d="M575.468,-131.06C600.049,-135.956 629.891,-141.083 657,-143.5 826.043,-158.574 1024.88,-152.201 1134.63,-146.593"/>
<polygon fill="midnightblue" stroke="midnightblue" points="576.125,-127.622 565.628,-129.056 574.728,-134.481 576.125,-127.622"/>
</g>
<!-- Node6&#45;&gt;Node4 -->
<g id="edge6" class="edge"><title>Node6&#45;&gt;Node4</title>
<path fill="none" stroke="midnightblue" d="M676.079,-125.986C658.326,-126.264 639.426,-126.323 621.194,-126.16"/>
<polygon fill="midnightblue" stroke="midnightblue" points="676.453,-129.479 686.386,-125.796 676.324,-122.481 676.453,-129.479"/>
</g>
<!-- Node6&#45;&gt;Node7 -->
<g id="edge7" class="edge"><title>Node6&#45;&gt;Node7</title>
<path fill="none" stroke="midnightblue" d="M844.861,-119.5C862.781,-119.5 881.798,-119.5 899.959,-119.5"/>
<polygon fill="midnightblue" stroke="midnightblue" points="844.742,-116 834.742,-119.5 844.742,-123 844.742,-116"/>
</g>
<!-- Node7&#45;&gt;Node2 -->
<g id="edge8" class="edge"><title>Node7&#45;&gt;Node2</title>
<path fill="none" stroke="midnightblue" d="M1019.16,-133.923C1062.28,-156.816 1145.96,-201.251 1189.75,-224.5"/>
<polygon fill="midnightblue" stroke="midnightblue" points="1020.59,-130.716 1010.11,-129.117 1017.3,-136.898 1020.59,-130.716"/>
</g>
<!-- Node7&#45;&gt;Node8 -->
<g id="edge9" class="edge"><title>Node7&#45;&gt;Node8</title>
<path fill="none" stroke="midnightblue" d="M1027.87,-106.484C1073.53,-89.9171 1151.33,-61.689 1191.8,-47.006"/>
<polygon fill="midnightblue" stroke="midnightblue" points="1026.57,-103.232 1018.37,-109.933 1028.96,-109.812 1026.57,-103.232"/>
</g>
<!-- Node7&#45;&gt;Node9 -->
<g id="edge10" class="edge"><title>Node7&#45;&gt;Node9</title>
<path fill="none" stroke="midnightblue" d="M1092.53,-129.286C1106.66,-130.661 1121.05,-132.062 1134.81,-133.402"/>
<polygon fill="midnightblue" stroke="midnightblue" points="1092.59,-125.775 1082.3,-128.29 1091.91,-132.742 1092.59,-125.775"/>
</g>
<!-- Node10&#45;&gt;Node8 -->
<g id="edge16" class="edge"><title>Node10&#45;&gt;Node8</title>
<path fill="none" stroke="midnightblue" d="M617.01,-14.3229C728.008,-13.5078 918.657,-13.9415 1082,-23.5 1099.89,-24.5469 1119.06,-26.194 1137.19,-27.9962"/>
<polygon fill="midnightblue" stroke="midnightblue" points="616.823,-10.8241 606.851,-14.4026 616.878,-17.8239 616.823,-10.8241"/>
</g>
</g>
</svg>
