<?xml version="1.0" encoding="UTF-8" standalone="no"?>
<!DOCTYPE svg PUBLIC "-//W3C//DTD SVG 1.1//EN"
 "http://www.w3.org/Graphics/SVG/1.1/DTD/svg11.dtd">
<!-- Generated by graphviz version 2.38.0 (20140413.2041)
 -->
<!-- Title: memoryoracle.instance.Int._track Pages: 1 -->
<svg width="632pt" height="166pt"
 viewBox="0.00 0.00 632.00 165.50" xmlns="http://www.w3.org/2000/svg" xmlns:xlink="http://www.w3.org/1999/xlink">
<g id="graph0" class="graph" transform="scale(1 1) rotate(0) translate(4 161.5)">
<title>memoryoracle.instance.Int._track</title>
<!-- Node1 -->
<g id="node1" class="node"><title>Node1</title>
<polygon fill="#bfbfbf" stroke="black" points="0,-82.5 0,-112.5 148,-112.5 148,-82.5 0,-82.5"/>
<text text-anchor="start" x="8" y="-100.5" font-family="Helvetica,sans-Serif" font-size="10.00">memoryoracle.instance.Int.</text>
<text text-anchor="middle" x="74" y="-89.5" font-family="Helvetica,sans-Serif" font-size="10.00">_track</text>
</g>
<!-- Node2 -->
<g id="node2" class="node"><title>Node2</title>
<g id="a_node2"><a xlink:href="classmemoryoracle_1_1instance_1_1Memory.html#a8951ac234fecbd6cd473133ae7e63662" target="_top" xlink:title="memoryoracle.instance.Memory.track">
<polygon fill="none" stroke="black" points="184,-88 184,-107 381,-107 381,-88 184,-88"/>
<text text-anchor="middle" x="282.5" y="-95" font-family="Helvetica,sans-Serif" font-size="10.00">memoryoracle.instance.Memory.track</text>
</a>
</g>
</g>
<!-- Node1&#45;&gt;Node2 -->
<g id="edge1" class="edge"><title>Node1&#45;&gt;Node2</title>
<path fill="none" stroke="midnightblue" d="M158.28,-90.8635C166.718,-90.7665 175.341,-90.7317 183.912,-90.759"/>
<polygon fill="midnightblue" stroke="midnightblue" points="158.042,-87.3665 148.095,-91.0127 158.145,-94.3658 158.042,-87.3665"/>
</g>
<!-- Node7 -->
<g id="node7" class="node"><title>Node7</title>
<g id="a_node7"><a xlink:href="classmemoryoracle_1_1models_1_1Typed.html#aa1d5d8d5b7ebe5c2876f363e7eb669db" target="_top" xlink:title="memoryoracle.models.Typed.track">
<polygon fill="none" stroke="black" points="191.5,-50 191.5,-69 373.5,-69 373.5,-50 191.5,-50"/>
<text text-anchor="middle" x="282.5" y="-57" font-family="Helvetica,sans-Serif" font-size="10.00">memoryoracle.models.Typed.track</text>
</a>
</g>
</g>
<!-- Node1&#45;&gt;Node7 -->
<g id="edge7" class="edge"><title>Node1&#45;&gt;Node7</title>
<path fill="none" stroke="midnightblue" d="M157.991,-82.2281C182.18,-77.7768 207.914,-73.0413 229.595,-69.0514"/>
<polygon fill="midnightblue" stroke="midnightblue" points="157.296,-78.7971 148.095,-84.0491 158.563,-85.6815 157.296,-78.7971"/>
</g>
<!-- Node2&#45;&gt;Node1 -->
<g id="edge3" class="edge"><title>Node2&#45;&gt;Node1</title>
<path fill="none" stroke="midnightblue" d="M173.73,-104.244C165.061,-104.222 156.434,-104.137 148.095,-103.987"/>
<polygon fill="midnightblue" stroke="midnightblue" points="173.913,-107.744 183.912,-104.241 173.911,-100.744 173.913,-107.744"/>
</g>
<!-- Node3 -->
<g id="node3" class="node"><title>Node3</title>
<g id="a_node3"><a xlink:href="classmemoryoracle_1_1instance_1_1Memory.html#aa937ea1a82dcaa2fa1c868a387d59483" target="_top" xlink:title="memoryoracle.instance.Memory.update">
<polygon fill="none" stroke="black" points="417,-138 417,-157 624,-157 624,-138 417,-138"/>
<text text-anchor="middle" x="520.5" y="-145" font-family="Helvetica,sans-Serif" font-size="10.00">memoryoracle.instance.Memory.update</text>
</a>
</g>
</g>
<!-- Node2&#45;&gt;Node3 -->
<g id="edge2" class="edge"><title>Node2&#45;&gt;Node3</title>
<path fill="none" stroke="midnightblue" d="M332.577,-109.452C357.757,-115.442 388.954,-122.647 417,-128.5 432.768,-131.79 449.961,-135.089 465.682,-137.993"/>
<polygon fill="midnightblue" stroke="midnightblue" points="333.076,-105.972 322.536,-107.051 331.448,-112.78 333.076,-105.972"/>
</g>
<!-- Node4 -->
<g id="node4" class="node"><title>Node4</title>
<g id="a_node4"><a xlink:href="classmemoryoracle_1_1models_1_1Typed.html#a494dfbe205034b874ff9e8c7039f579b" target="_top" xlink:title="memoryoracle.models.Typed.\l__init__">
<polygon fill="none" stroke="black" points="441.5,-88.5 441.5,-118.5 599.5,-118.5 599.5,-88.5 441.5,-88.5"/>
<text text-anchor="start" x="449.5" y="-106.5" font-family="Helvetica,sans-Serif" font-size="10.00">memoryoracle.models.Typed.</text>
<text text-anchor="middle" x="520.5" y="-95.5" font-family="Helvetica,sans-Serif" font-size="10.00">__init__</text>
</a>
</g>
</g>
<!-- Node2&#45;&gt;Node4 -->
<g id="edge4" class="edge"><title>Node2&#45;&gt;Node4</title>
<path fill="none" stroke="midnightblue" d="M391.584,-100.248C408.346,-100.674 425.377,-101.107 441.311,-101.512"/>
<polygon fill="midnightblue" stroke="midnightblue" points="391.28,-96.7391 381.194,-99.9837 391.102,-103.737 391.28,-96.7391"/>
</g>
<!-- Node5 -->
<g id="node5" class="node"><title>Node5</title>
<g id="a_node5"><a xlink:href="classmemoryoracle_1_1models_1_1Memory.html#a71d4a141abc3358afdf1a1325bfd4253" target="_top" xlink:title="memoryoracle.models.Memory.update">
<polygon fill="none" stroke="black" points="419.5,-50 419.5,-69 621.5,-69 621.5,-50 419.5,-50"/>
<text text-anchor="middle" x="520.5" y="-57" font-family="Helvetica,sans-Serif" font-size="10.00">memoryoracle.models.Memory.update</text>
</a>
</g>
</g>
<!-- Node2&#45;&gt;Node5 -->
<g id="edge5" class="edge"><title>Node2&#45;&gt;Node5</title>
<path fill="none" stroke="midnightblue" d="M352.649,-86.3659C386.783,-80.8697 427.54,-74.3071 460.227,-69.0439"/>
<polygon fill="midnightblue" stroke="midnightblue" points="352.065,-82.9148 342.748,-87.96 353.177,-89.8258 352.065,-82.9148"/>
</g>
<!-- Node6 -->
<g id="node6" class="node"><title>Node6</title>
<g id="a_node6"><a xlink:href="classmemoryoracle_1_1models_1_1Memory.html#aed3af349dd80317ae9cca4b4e9cb7c26" target="_top" xlink:title="memoryoracle.models.Memory.\l__init__">
<polygon fill="none" stroke="black" points="436.5,-0.5 436.5,-30.5 604.5,-30.5 604.5,-0.5 436.5,-0.5"/>
<text text-anchor="start" x="444.5" y="-18.5" font-family="Helvetica,sans-Serif" font-size="10.00">memoryoracle.models.Memory.</text>
<text text-anchor="middle" x="520.5" y="-7.5" font-family="Helvetica,sans-Serif" font-size="10.00">__init__</text>
</a>
</g>
</g>
<!-- Node2&#45;&gt;Node6 -->
<g id="edge6" class="edge"><title>Node2&#45;&gt;Node6</title>
<path fill="none" stroke="midnightblue" d="M367.732,-84.6476C372.325,-82.8556 376.782,-80.8176 381,-78.5 401.389,-67.2967 396.878,-52.1771 417,-40.5 423.733,-36.5927 431.055,-33.2937 438.586,-30.5087"/>
<polygon fill="midnightblue" stroke="midnightblue" points="366.433,-81.3936 358.143,-87.9909 368.738,-88.0033 366.433,-81.3936"/>
</g>
<!-- Node7&#45;&gt;Node4 -->
<g id="edge8" class="edge"><title>Node7&#45;&gt;Node4</title>
<path fill="none" stroke="midnightblue" d="M344.866,-70.9412C374.363,-76.4406 410.048,-83.0938 441.453,-88.9489"/>
<polygon fill="midnightblue" stroke="midnightblue" points="345.181,-67.4395 334.708,-69.0473 343.898,-74.321 345.181,-67.4395"/>
</g>
<!-- Node7&#45;&gt;Node5 -->
<g id="edge9" class="edge"><title>Node7&#45;&gt;Node5</title>
<path fill="none" stroke="midnightblue" d="M383.988,-59.5C395.742,-59.5 407.733,-59.5 419.481,-59.5"/>
<polygon fill="midnightblue" stroke="midnightblue" points="383.732,-56.0001 373.732,-59.5 383.732,-63.0001 383.732,-56.0001"/>
</g>
<!-- Node7&#45;&gt;Node6 -->
<g id="edge10" class="edge"><title>Node7&#45;&gt;Node6</title>
<path fill="none" stroke="midnightblue" d="M344.594,-48.1095C373.284,-42.7606 407.875,-36.3114 438.695,-30.5654"/>
<polygon fill="midnightblue" stroke="midnightblue" points="343.898,-44.679 334.708,-49.9527 345.181,-51.5605 343.898,-44.679"/>
</g>
</g>
</svg>
