<?xml version="1.0" encoding="UTF-8" standalone="no"?>
<!DOCTYPE svg PUBLIC "-//W3C//DTD SVG 1.1//EN"
 "http://www.w3.org/Graphics/SVG/1.1/DTD/svg11.dtd">
<!-- Generated by graphviz version 2.38.0 (20140413.2041)
 -->
<!-- Title: memoryoracle.typed.Typed.object Pages: 1 -->
<svg width="1043pt" height="165pt"
 viewBox="0.00 0.00 1043.00 164.50" xmlns="http://www.w3.org/2000/svg" xmlns:xlink="http://www.w3.org/1999/xlink">
<g id="graph0" class="graph" transform="scale(1 1) rotate(0) translate(4 160.5)">
<title>memoryoracle.typed.Typed.object</title>
<!-- Node1 -->
<g id="node1" class="node"><title>Node1</title>
<polygon fill="#bfbfbf" stroke="black" points="0,-65.5 0,-84.5 179,-84.5 179,-65.5 0,-65.5"/>
<text text-anchor="middle" x="89.5" y="-72.5" font-family="Helvetica,sans-Serif" font-size="10.00">memoryoracle.typed.Typed.object</text>
</g>
<!-- Node2 -->
<g id="node2" class="node"><title>Node2</title>
<g id="a_node2"><a xlink:href="classmemoryoracle_1_1instance_1_1Int.html#a450a73bc8aaf1a7ac5f18c3ed1a933fc" target="_top" xlink:title="memoryoracle.instance.Int.\l_find_hidden_type">
<polygon fill="none" stroke="black" points="215,-37 215,-67 363,-67 363,-37 215,-37"/>
<text text-anchor="start" x="223" y="-55" font-family="Helvetica,sans-Serif" font-size="10.00">memoryoracle.instance.Int.</text>
<text text-anchor="middle" x="289" y="-44" font-family="Helvetica,sans-Serif" font-size="10.00">_find_hidden_type</text>
</a>
</g>
</g>
<!-- Node1&#45;&gt;Node2 -->
<g id="edge1" class="edge"><title>Node1&#45;&gt;Node2</title>
<path fill="none" stroke="midnightblue" d="M182.244,-64.3159C193.17,-63.0434 204.212,-61.7575 214.83,-60.521"/>
<polygon fill="midnightblue" stroke="midnightblue" points="181.784,-60.8457 172.256,-65.479 182.594,-67.7987 181.784,-60.8457"/>
</g>
<!-- Node10 -->
<g id="node10" class="node"><title>Node10</title>
<g id="a_node10"><a xlink:href="classmemoryoracle_1_1instance_1_1Array.html#a1d8c3993d8a52bfbec8240d6f79b3ce1" target="_top" xlink:title="TODO: upgrade this to ref field. ">
<polygon fill="none" stroke="black" points="399,-85 399,-115 559,-115 559,-85 399,-85"/>
<text text-anchor="start" x="407" y="-103" font-family="Helvetica,sans-Serif" font-size="10.00">memoryoracle.instance.Array.</text>
<text text-anchor="middle" x="479" y="-92" font-family="Helvetica,sans-Serif" font-size="10.00">_track</text>
</a>
</g>
</g>
<!-- Node1&#45;&gt;Node10 -->
<g id="edge13" class="edge"><title>Node1&#45;&gt;Node10</title>
<path fill="none" stroke="midnightblue" d="M189.65,-81.3968C254.56,-85.5845 338.242,-90.9833 398.722,-94.8853"/>
<polygon fill="midnightblue" stroke="midnightblue" points="189.605,-77.8867 179.4,-80.7355 189.154,-84.8722 189.605,-77.8867"/>
</g>
<!-- Node3 -->
<g id="node3" class="node"><title>Node3</title>
<g id="a_node3"><a xlink:href="classmemoryoracle_1_1instance_1_1Int.html#a38c9424341353f006771163d360594da" target="_top" xlink:title="memoryoracle.instance.Int.\l_track">
<polygon fill="none" stroke="black" points="405,-36 405,-66 553,-66 553,-36 405,-36"/>
<text text-anchor="start" x="413" y="-54" font-family="Helvetica,sans-Serif" font-size="10.00">memoryoracle.instance.Int.</text>
<text text-anchor="middle" x="479" y="-43" font-family="Helvetica,sans-Serif" font-size="10.00">_track</text>
</a>
</g>
</g>
<!-- Node2&#45;&gt;Node3 -->
<g id="edge2" class="edge"><title>Node2&#45;&gt;Node3</title>
<path fill="none" stroke="midnightblue" d="M373.278,-51.557C383.842,-51.5008 394.589,-51.4437 404.976,-51.3884"/>
<polygon fill="midnightblue" stroke="midnightblue" points="373.205,-48.0573 363.224,-51.6105 373.243,-55.0572 373.205,-48.0573"/>
</g>
<!-- Node4 -->
<g id="node4" class="node"><title>Node4</title>
<g id="a_node4"><a xlink:href="classmemoryoracle_1_1instance_1_1Memory.html#a8951ac234fecbd6cd473133ae7e63662" target="_top" xlink:title="memoryoracle.instance.Memory.track">
<polygon fill="none" stroke="black" points="595,-41.5 595,-60.5 792,-60.5 792,-41.5 595,-41.5"/>
<text text-anchor="middle" x="693.5" y="-48.5" font-family="Helvetica,sans-Serif" font-size="10.00">memoryoracle.instance.Memory.track</text>
</a>
</g>
</g>
<!-- Node3&#45;&gt;Node4 -->
<g id="edge3" class="edge"><title>Node3&#45;&gt;Node4</title>
<path fill="none" stroke="midnightblue" d="M563.347,-44.3914C573.68,-44.262 584.317,-44.2214 594.841,-44.2697"/>
<polygon fill="midnightblue" stroke="midnightblue" points="563.075,-40.8951 553.13,-44.5503 563.184,-47.8942 563.075,-40.8951"/>
</g>
<!-- Node9 -->
<g id="node9" class="node"><title>Node9</title>
<g id="a_node9"><a xlink:href="classmemoryoracle_1_1models_1_1Typed.html#aa1d5d8d5b7ebe5c2876f363e7eb669db" target="_top" xlink:title="memoryoracle.models.Typed.track">
<polygon fill="none" stroke="black" points="602.5,-82.5 602.5,-101.5 784.5,-101.5 784.5,-82.5 602.5,-82.5"/>
<text text-anchor="middle" x="693.5" y="-89.5" font-family="Helvetica,sans-Serif" font-size="10.00">memoryoracle.models.Typed.track</text>
</a>
</g>
</g>
<!-- Node3&#45;&gt;Node9 -->
<g id="edge9" class="edge"><title>Node3&#45;&gt;Node9</title>
<path fill="none" stroke="midnightblue" d="M562.984,-67.011C590.027,-72.2287 619.184,-77.8543 642.974,-82.4443"/>
<polygon fill="midnightblue" stroke="midnightblue" points="563.612,-63.5678 553.13,-65.1099 562.286,-70.441 563.612,-63.5678"/>
</g>
<!-- Node4&#45;&gt;Node3 -->
<g id="edge6" class="edge"><title>Node4&#45;&gt;Node3</title>
<path fill="none" stroke="midnightblue" d="M584.625,-57.7493C573.962,-57.7401 563.32,-57.6402 553.13,-57.4497"/>
<polygon fill="midnightblue" stroke="midnightblue" points="584.847,-61.249 594.841,-57.7303 584.834,-54.249 584.847,-61.249"/>
</g>
<!-- Node5 -->
<g id="node5" class="node"><title>Node5</title>
<g id="a_node5"><a xlink:href="classmemoryoracle_1_1models_1_1Typed.html#a494dfbe205034b874ff9e8c7039f579b" target="_top" xlink:title="memoryoracle.models.Typed.\l__init__">
<polygon fill="none" stroke="black" points="852.5,-126 852.5,-156 1010.5,-156 1010.5,-126 852.5,-126"/>
<text text-anchor="start" x="860.5" y="-144" font-family="Helvetica,sans-Serif" font-size="10.00">memoryoracle.models.Typed.</text>
<text text-anchor="middle" x="931.5" y="-133" font-family="Helvetica,sans-Serif" font-size="10.00">__init__</text>
</a>
</g>
</g>
<!-- Node4&#45;&gt;Node5 -->
<g id="edge4" class="edge"><title>Node4&#45;&gt;Node5</title>
<path fill="none" stroke="midnightblue" d="M773.339,-63.8969C779.879,-66.4118 786.198,-69.4148 792,-73 813.494,-86.2819 806.559,-103.631 828,-117 835.522,-121.69 843.872,-125.464 852.468,-128.502"/>
<polygon fill="midnightblue" stroke="midnightblue" points="774.228,-60.5013 763.633,-60.5505 771.946,-67.119 774.228,-60.5013"/>
</g>
<!-- Node6 -->
<g id="node6" class="node"><title>Node6</title>
<g id="a_node6"><a xlink:href="classmemoryoracle_1_1models_1_1Memory.html#aed3af349dd80317ae9cca4b4e9cb7c26" target="_top" xlink:title="memoryoracle.models.Memory.\l__init__">
<polygon fill="none" stroke="black" points="847.5,-77 847.5,-107 1015.5,-107 1015.5,-77 847.5,-77"/>
<text text-anchor="start" x="855.5" y="-95" font-family="Helvetica,sans-Serif" font-size="10.00">memoryoracle.models.Memory.</text>
<text text-anchor="middle" x="931.5" y="-84" font-family="Helvetica,sans-Serif" font-size="10.00">__init__</text>
</a>
</g>
</g>
<!-- Node4&#45;&gt;Node6 -->
<g id="edge5" class="edge"><title>Node4&#45;&gt;Node6</title>
<path fill="none" stroke="midnightblue" d="M759.404,-62.2757C786.583,-66.9975 818.511,-72.5442 847.378,-77.5594"/>
<polygon fill="midnightblue" stroke="midnightblue" points="759.688,-58.7727 749.236,-60.5093 758.49,-65.6694 759.688,-58.7727"/>
</g>
<!-- Node7 -->
<g id="node7" class="node"><title>Node7</title>
<g id="a_node7"><a xlink:href="classmemoryoracle_1_1instance_1_1Memory.html#aa937ea1a82dcaa2fa1c868a387d59483" target="_top" xlink:title="memoryoracle.instance.Memory.update">
<polygon fill="none" stroke="black" points="828,-0.5 828,-19.5 1035,-19.5 1035,-0.5 828,-0.5"/>
<text text-anchor="middle" x="931.5" y="-7.5" font-family="Helvetica,sans-Serif" font-size="10.00">memoryoracle.instance.Memory.update</text>
</a>
</g>
</g>
<!-- Node4&#45;&gt;Node7 -->
<g id="edge7" class="edge"><title>Node4&#45;&gt;Node7</title>
<path fill="none" stroke="midnightblue" d="M759.29,-39.7441C795.799,-33.4014 840.905,-25.5653 875.652,-19.5286"/>
<polygon fill="midnightblue" stroke="midnightblue" points="758.49,-36.3306 749.236,-41.4907 759.688,-43.2273 758.49,-36.3306"/>
</g>
<!-- Node8 -->
<g id="node8" class="node"><title>Node8</title>
<g id="a_node8"><a xlink:href="classmemoryoracle_1_1models_1_1Memory.html#a71d4a141abc3358afdf1a1325bfd4253" target="_top" xlink:title="memoryoracle.models.Memory.update">
<polygon fill="none" stroke="black" points="830.5,-38.5 830.5,-57.5 1032.5,-57.5 1032.5,-38.5 830.5,-38.5"/>
<text text-anchor="middle" x="931.5" y="-45.5" font-family="Helvetica,sans-Serif" font-size="10.00">memoryoracle.models.Memory.update</text>
</a>
</g>
</g>
<!-- Node4&#45;&gt;Node8 -->
<g id="edge8" class="edge"><title>Node4&#45;&gt;Node8</title>
<path fill="none" stroke="midnightblue" d="M802.253,-49.6303C811.565,-49.5119 820.963,-49.3924 830.212,-49.2748"/>
<polygon fill="midnightblue" stroke="midnightblue" points="802.148,-46.1312 792.194,-49.7581 802.238,-53.1306 802.148,-46.1312"/>
</g>
<!-- Node9&#45;&gt;Node5 -->
<g id="edge10" class="edge"><title>Node9&#45;&gt;Node5</title>
<path fill="none" stroke="midnightblue" d="M750.401,-103.607C782.553,-110.282 823.307,-118.744 857.912,-125.929"/>
<polygon fill="midnightblue" stroke="midnightblue" points="750.786,-100.112 740.283,-101.506 749.363,-106.966 750.786,-100.112"/>
</g>
<!-- Node9&#45;&gt;Node6 -->
<g id="edge11" class="edge"><title>Node9&#45;&gt;Node6</title>
<path fill="none" stroke="midnightblue" d="M794.935,-92C812.388,-92 830.366,-92 847.294,-92"/>
<polygon fill="midnightblue" stroke="midnightblue" points="794.732,-88.5001 784.732,-92 794.732,-95.5001 794.732,-88.5001"/>
</g>
<!-- Node9&#45;&gt;Node8 -->
<g id="edge12" class="edge"><title>Node9&#45;&gt;Node8</title>
<path fill="none" stroke="midnightblue" d="M755.112,-80.6251C777.957,-76.3443 804.172,-71.4395 828,-67 844.636,-63.9005 862.793,-60.5306 879.14,-57.5012"/>
<polygon fill="midnightblue" stroke="midnightblue" points="754.394,-77.1986 745.21,-82.481 755.684,-84.0788 754.394,-77.1986"/>
</g>
<!-- Node10&#45;&gt;Node4 -->
<g id="edge14" class="edge"><title>Node10&#45;&gt;Node4</title>
<path fill="none" stroke="midnightblue" d="M553.479,-82.6483C567.27,-79.4199 581.572,-76.0913 595,-73 612.925,-68.8735 632.722,-64.3925 649.768,-60.5579"/>
<polygon fill="midnightblue" stroke="midnightblue" points="552.484,-79.2865 543.546,-84.9764 554.081,-86.1018 552.484,-79.2865"/>
</g>
<!-- Node10&#45;&gt;Node9 -->
<g id="edge15" class="edge"><title>Node10&#45;&gt;Node9</title>
<path fill="none" stroke="midnightblue" d="M569.434,-96.6331C580.276,-96.2249 591.358,-95.8077 602.212,-95.3991"/>
<polygon fill="midnightblue" stroke="midnightblue" points="568.988,-93.1473 559.127,-97.0211 569.252,-100.142 568.988,-93.1473"/>
</g>
</g>
</svg>
