<?xml version="1.0" encoding="UTF-8" standalone="no"?>
<!DOCTYPE svg PUBLIC "-//W3C//DTD SVG 1.1//EN"
 "http://www.w3.org/Graphics/SVG/1.1/DTD/svg11.dtd">
<!-- Generated by graphviz version 2.38.0 (20140413.2041)
 -->
<!-- Title: memoryoracle.instance.Array.__init__ Pages: 1 -->
<svg width="400pt" height="78pt"
 viewBox="0.00 0.00 400.00 77.50" xmlns="http://www.w3.org/2000/svg" xmlns:xlink="http://www.w3.org/1999/xlink">
<g id="graph0" class="graph" transform="scale(1 1) rotate(0) translate(4 73.5)">
<title>memoryoracle.instance.Array.__init__</title>
<!-- Node1 -->
<g id="node1" class="node"><title>Node1</title>
<polygon fill="#bfbfbf" stroke="black" points="0,-17 0,-47 160,-47 160,-17 0,-17"/>
<text text-anchor="start" x="8" y="-35" font-family="Helvetica,sans-Serif" font-size="10.00">memoryoracle.instance.Array.</text>
<text text-anchor="middle" x="80" y="-24" font-family="Helvetica,sans-Serif" font-size="10.00">__init__</text>
</g>
<!-- Node2 -->
<g id="node2" class="node"><title>Node2</title>
<g id="a_node2"><a xlink:href="classmemoryoracle_1_1descriptions_1_1Description.html#a61b082efab73e7121ad7321bd5d21b84" target="_top" xlink:title="memoryoracle.descriptions.\lDescription._init">
<polygon fill="none" stroke="black" points="219,-39 219,-69 369,-69 369,-39 219,-39"/>
<text text-anchor="start" x="227" y="-57" font-family="Helvetica,sans-Serif" font-size="10.00">memoryoracle.descriptions.</text>
<text text-anchor="middle" x="294" y="-46" font-family="Helvetica,sans-Serif" font-size="10.00">Description._init</text>
</a>
</g>
</g>
<!-- Node1&#45;&gt;Node2 -->
<g id="edge1" class="edge"><title>Node1&#45;&gt;Node2</title>
<path fill="none" stroke="midnightblue" d="M160.242,-40.2233C175.968,-41.8552 192.534,-43.5743 208.43,-45.2238"/>
<polygon fill="midnightblue" stroke="midnightblue" points="208.455,-48.7451 218.763,-46.2961 209.177,-41.7825 208.455,-48.7451"/>
</g>
<!-- Node3 -->
<g id="node3" class="node"><title>Node3</title>
<g id="a_node3"><a xlink:href="classmemoryoracle_1_1instance_1_1Instance.html#a83d51f791768e20061edf6e1c40297cb" target="_top" xlink:title="memoryoracle.instance.Instance._init">
<polygon fill="none" stroke="black" points="196,-0.5 196,-19.5 392,-19.5 392,-0.5 196,-0.5"/>
<text text-anchor="middle" x="294" y="-7.5" font-family="Helvetica,sans-Serif" font-size="10.00">memoryoracle.instance.Instance._init</text>
</a>
</g>
</g>
<!-- Node1&#45;&gt;Node3 -->
<g id="edge2" class="edge"><title>Node1&#45;&gt;Node3</title>
<path fill="none" stroke="midnightblue" d="M160.242,-23.7767C170.403,-22.7224 180.914,-21.6316 191.368,-20.5467"/>
<polygon fill="midnightblue" stroke="midnightblue" points="191.776,-24.0233 201.361,-19.5097 191.053,-17.0607 191.776,-24.0233"/>
</g>
</g>
</svg>
