<?xml version="1.0" encoding="UTF-8" standalone="no"?>
<!DOCTYPE svg PUBLIC "-//W3C//DTD SVG 1.1//EN"
 "http://www.w3.org/Graphics/SVG/1.1/DTD/svg11.dtd">
<!-- Generated by graphviz version 2.38.0 (20140413.2041)
 -->
<!-- Title: memoryoracle.instance.Array._track Pages: 1 -->
<svg width="1100pt" height="183pt"
 viewBox="0.00 0.00 1100.00 183.03" xmlns="http://www.w3.org/2000/svg" xmlns:xlink="http://www.w3.org/1999/xlink">
<g id="graph0" class="graph" transform="scale(1 1) rotate(0) translate(4 179.027)">
<title>memoryoracle.instance.Array._track</title>
<!-- Node1 -->
<g id="node1" class="node"><title>Node1</title>
<polygon fill="#bfbfbf" stroke="black" points="0,-12.527 0,-42.527 160,-42.527 160,-12.527 0,-12.527"/>
<text text-anchor="start" x="8" y="-30.527" font-family="Helvetica,sans-Serif" font-size="10.00">memoryoracle.instance.Array.</text>
<text text-anchor="middle" x="80" y="-19.527" font-family="Helvetica,sans-Serif" font-size="10.00">_track</text>
</g>
<!-- Node2 -->
<g id="node2" class="node"><title>Node2</title>
<g id="a_node2"><a xlink:href="classmemoryoracle_1_1instance_1_1Memory.html#a8951ac234fecbd6cd473133ae7e63662" target="_top" xlink:title="memoryoracle.instance.Memory.track">
<polygon fill="none" stroke="black" points="196,-78.027 196,-97.027 393,-97.027 393,-78.027 196,-78.027"/>
<text text-anchor="middle" x="294.5" y="-85.027" font-family="Helvetica,sans-Serif" font-size="10.00">memoryoracle.instance.Memory.track</text>
</a>
</g>
</g>
<!-- Node1&#45;&gt;Node2 -->
<g id="edge1" class="edge"><title>Node1&#45;&gt;Node2</title>
<path fill="none" stroke="midnightblue" d="M144.275,-45.3929C182.151,-56.0872 228.789,-69.2557 259.741,-77.9949"/>
<polygon fill="midnightblue" stroke="midnightblue" points="144.923,-41.9391 134.348,-42.5901 143.021,-48.6757 144.923,-41.9391"/>
</g>
<!-- Node5 -->
<g id="node5" class="node"><title>Node5</title>
<g id="a_node5"><a xlink:href="classmemoryoracle_1_1models_1_1Typed.html#aa1d5d8d5b7ebe5c2876f363e7eb669db" target="_top" xlink:title="memoryoracle.models.Typed.track">
<polygon fill="none" stroke="black" points="672,-78.027 672,-97.027 854,-97.027 854,-78.027 672,-78.027"/>
<text text-anchor="middle" x="763" y="-85.027" font-family="Helvetica,sans-Serif" font-size="10.00">memoryoracle.models.Typed.track</text>
</a>
</g>
</g>
<!-- Node1&#45;&gt;Node5 -->
<g id="edge12" class="edge"><title>Node1&#45;&gt;Node5</title>
<path fill="none" stroke="midnightblue" d="M170.585,-14.2713C281.524,-0.752624 475.493,13.3637 636,-24.527 679.797,-34.8661 725.728,-62.8886 748.099,-77.8335"/>
<polygon fill="midnightblue" stroke="midnightblue" points="169.932,-10.8254 160.441,-15.534 170.797,-17.7718 169.932,-10.8254"/>
</g>
<!-- Node3 -->
<g id="node3" class="node"><title>Node3</title>
<g id="a_node3"><a xlink:href="classmemoryoracle_1_1instance_1_1Memory.html#aa937ea1a82dcaa2fa1c868a387d59483" target="_top" xlink:title="memoryoracle.instance.Memory.update">
<polygon fill="none" stroke="black" points="429,-34.027 429,-53.027 636,-53.027 636,-34.027 429,-34.027"/>
<text text-anchor="middle" x="532.5" y="-41.027" font-family="Helvetica,sans-Serif" font-size="10.00">memoryoracle.instance.Memory.update</text>
</a>
</g>
</g>
<!-- Node2&#45;&gt;Node3 -->
<g id="edge2" class="edge"><title>Node2&#45;&gt;Node3</title>
<path fill="none" stroke="midnightblue" d="M356.735,-76.1102C395.14,-68.9499 444.077,-59.8262 480.391,-53.0557"/>
<polygon fill="midnightblue" stroke="midnightblue" points="355.898,-72.706 346.708,-77.9796 357.181,-79.5874 355.898,-72.706"/>
</g>
<!-- Node4 -->
<g id="node4" class="node"><title>Node4</title>
<g id="a_node4"><a xlink:href="classmemoryoracle_1_1instance_1_1Int.html#a38c9424341353f006771163d360594da" target="_top" xlink:title="memoryoracle.instance.Int.\l_track">
<polygon fill="none" stroke="black" points="458.5,-72.527 458.5,-102.527 606.5,-102.527 606.5,-72.527 458.5,-72.527"/>
<text text-anchor="start" x="466.5" y="-90.527" font-family="Helvetica,sans-Serif" font-size="10.00">memoryoracle.instance.Int.</text>
<text text-anchor="middle" x="532.5" y="-79.527" font-family="Helvetica,sans-Serif" font-size="10.00">_track</text>
</a>
</g>
</g>
<!-- Node2&#45;&gt;Node4 -->
<g id="edge3" class="edge"><title>Node2&#45;&gt;Node4</title>
<path fill="none" stroke="midnightblue" d="M403.217,-80.7998C421.891,-80.7167 440.91,-80.8605 458.386,-81.2312"/>
<polygon fill="midnightblue" stroke="midnightblue" points="403.17,-77.2999 393.194,-80.8666 403.217,-84.2998 403.17,-77.2999"/>
</g>
<!-- Node6 -->
<g id="node6" class="node"><title>Node6</title>
<g id="a_node6"><a xlink:href="classmemoryoracle_1_1models_1_1Typed.html#a494dfbe205034b874ff9e8c7039f579b" target="_top" xlink:title="memoryoracle.models.Typed.\l__init__">
<polygon fill="none" stroke="black" points="912,-19.527 912,-49.527 1070,-49.527 1070,-19.527 912,-19.527"/>
<text text-anchor="start" x="920" y="-37.527" font-family="Helvetica,sans-Serif" font-size="10.00">memoryoracle.models.Typed.</text>
<text text-anchor="middle" x="991" y="-26.527" font-family="Helvetica,sans-Serif" font-size="10.00">__init__</text>
</a>
</g>
</g>
<!-- Node2&#45;&gt;Node6 -->
<g id="edge9" class="edge"><title>Node2&#45;&gt;Node6</title>
<path fill="none" stroke="midnightblue" d="M319.001,-72.4912C344.799,-56.9529 388.018,-33.7112 429,-24.527 597.72,13.284 802.172,-6.14568 911.694,-21.6169"/>
<polygon fill="midnightblue" stroke="midnightblue" points="317.007,-69.6085 310.321,-77.827 320.673,-75.5719 317.007,-69.6085"/>
</g>
<!-- Node7 -->
<g id="node7" class="node"><title>Node7</title>
<g id="a_node7"><a xlink:href="classmemoryoracle_1_1models_1_1Memory.html#a71d4a141abc3358afdf1a1325bfd4253" target="_top" xlink:title="memoryoracle.models.Memory.update">
<polygon fill="none" stroke="black" points="890,-97.027 890,-116.027 1092,-116.027 1092,-97.027 890,-97.027"/>
<text text-anchor="middle" x="991" y="-104.027" font-family="Helvetica,sans-Serif" font-size="10.00">memoryoracle.models.Memory.update</text>
</a>
</g>
</g>
<!-- Node2&#45;&gt;Node7 -->
<g id="edge10" class="edge"><title>Node2&#45;&gt;Node7</title>
<path fill="none" stroke="midnightblue" d="M345.492,-99.1607C370.429,-104.382 401.142,-109.941 429,-112.527 589.752,-127.449 777.517,-120.533 889.927,-113.802"/>
<polygon fill="midnightblue" stroke="midnightblue" points="346.047,-95.7004 335.536,-97.0307 344.583,-102.545 346.047,-95.7004"/>
</g>
<!-- Node8 -->
<g id="node8" class="node"><title>Node8</title>
<g id="a_node8"><a xlink:href="classmemoryoracle_1_1models_1_1Memory.html#aed3af349dd80317ae9cca4b4e9cb7c26" target="_top" xlink:title="memoryoracle.models.Memory.\l__init__">
<polygon fill="none" stroke="black" points="907,-144.527 907,-174.527 1075,-174.527 1075,-144.527 907,-144.527"/>
<text text-anchor="start" x="915" y="-162.527" font-family="Helvetica,sans-Serif" font-size="10.00">memoryoracle.models.Memory.</text>
<text text-anchor="middle" x="991" y="-151.527" font-family="Helvetica,sans-Serif" font-size="10.00">__init__</text>
</a>
</g>
</g>
<!-- Node2&#45;&gt;Node8 -->
<g id="edge11" class="edge"><title>Node2&#45;&gt;Node8</title>
<path fill="none" stroke="midnightblue" d="M328.727,-100.901C355.367,-110.967 393.96,-124.092 429,-130.527 596.623,-161.311 796.808,-163.581 906.994,-161.92"/>
<polygon fill="midnightblue" stroke="midnightblue" points="329.724,-97.535 319.134,-97.2134 327.212,-104.069 329.724,-97.535"/>
</g>
<!-- Node4&#45;&gt;Node2 -->
<g id="edge4" class="edge"><title>Node4&#45;&gt;Node2</title>
<path fill="none" stroke="midnightblue" d="M448.079,-94.0125C430.326,-94.2915 411.426,-94.3497 393.194,-94.1873"/>
<polygon fill="midnightblue" stroke="midnightblue" points="448.453,-97.5063 458.386,-93.8227 448.324,-90.5075 448.453,-97.5063"/>
</g>
<!-- Node4&#45;&gt;Node5 -->
<g id="edge5" class="edge"><title>Node4&#45;&gt;Node5</title>
<path fill="none" stroke="midnightblue" d="M616.861,-87.527C634.781,-87.527 653.798,-87.527 671.959,-87.527"/>
<polygon fill="midnightblue" stroke="midnightblue" points="616.742,-84.0271 606.742,-87.527 616.742,-91.0271 616.742,-84.0271"/>
</g>
<!-- Node5&#45;&gt;Node6 -->
<g id="edge6" class="edge"><title>Node5&#45;&gt;Node6</title>
<path fill="none" stroke="midnightblue" d="M814.507,-75.6824C847.346,-67.9813 890.456,-57.8713 925.731,-49.599"/>
<polygon fill="midnightblue" stroke="midnightblue" points="813.602,-72.2996 804.665,-77.9904 815.2,-79.1147 813.602,-72.2996"/>
</g>
<!-- Node5&#45;&gt;Node7 -->
<g id="edge7" class="edge"><title>Node5&#45;&gt;Node7</title>
<path fill="none" stroke="midnightblue" d="M864.496,-95.9758C872.908,-96.6829 881.412,-97.3979 889.821,-98.1049"/>
<polygon fill="midnightblue" stroke="midnightblue" points="864.554,-92.4683 854.296,-95.1182 863.967,-99.4437 864.554,-92.4683"/>
</g>
<!-- Node5&#45;&gt;Node8 -->
<g id="edge8" class="edge"><title>Node5&#45;&gt;Node8</title>
<path fill="none" stroke="midnightblue" d="M803.883,-100.233C842.602,-112.568 901.391,-131.298 942.507,-144.396"/>
<polygon fill="midnightblue" stroke="midnightblue" points="804.602,-96.7887 794.011,-97.088 802.477,-103.458 804.602,-96.7887"/>
</g>
</g>
</svg>
