<?xml version="1.0" encoding="UTF-8" standalone="no"?>
<!DOCTYPE svg PUBLIC "-//W3C//DTD SVG 1.1//EN"
 "http://www.w3.org/Graphics/SVG/1.1/DTD/svg11.dtd">
<!-- Generated by graphviz version 2.38.0 (20140413.2041)
 -->
<!-- Title: memoryoracle.container.SLUnorderedSet Pages: 1 -->
<svg width="223pt" height="348pt"
 viewBox="0.00 0.00 223.00 348.00" xmlns="http://www.w3.org/2000/svg" xmlns:xlink="http://www.w3.org/1999/xlink">
<g id="graph0" class="graph" transform="scale(1 1) rotate(0) translate(4 344)">
<title>memoryoracle.container.SLUnorderedSet</title>
<!-- Node1 -->
<g id="node1" class="node"><title>Node1</title>
<polygon fill="#bfbfbf" stroke="black" points="0,-0.5 0,-57.5 215,-57.5 215,-0.5 0,-0.5"/>
<text text-anchor="middle" x="107.5" y="-45.5" font-family="Helvetica,sans-Serif" font-size="10.00">memoryoracle.container.SLUnorderedSet</text>
<polyline fill="none" stroke="black" points="0,-38.5 215,-38.5 "/>
<text text-anchor="middle" x="107.5" y="-26.5" font-family="Helvetica,sans-Serif" font-size="10.00"> </text>
<polyline fill="none" stroke="black" points="0,-19.5 215,-19.5 "/>
<text text-anchor="middle" x="107.5" y="-7.5" font-family="Helvetica,sans-Serif" font-size="10.00"> </text>
</g>
<!-- Node2 -->
<g id="node2" class="node"><title>Node2</title>
<g id="a_node2"><a xlink:href="classmemoryoracle_1_1container_1_1SLContainer.html" target="_top" xlink:title="{memoryoracle.container.SLContainer\n||}">
<polygon fill="none" stroke="black" points="10,-94.5 10,-151.5 205,-151.5 205,-94.5 10,-94.5"/>
<text text-anchor="middle" x="107.5" y="-139.5" font-family="Helvetica,sans-Serif" font-size="10.00">memoryoracle.container.SLContainer</text>
<polyline fill="none" stroke="black" points="10,-132.5 205,-132.5 "/>
<text text-anchor="middle" x="107.5" y="-120.5" font-family="Helvetica,sans-Serif" font-size="10.00"> </text>
<polyline fill="none" stroke="black" points="10,-113.5 205,-113.5 "/>
<text text-anchor="middle" x="107.5" y="-101.5" font-family="Helvetica,sans-Serif" font-size="10.00"> </text>
</a>
</g>
</g>
<!-- Node2&#45;&gt;Node1 -->
<g id="edge1" class="edge"><title>Node2&#45;&gt;Node1</title>
<path fill="none" stroke="midnightblue" d="M107.5,-84.2092C107.5,-75.2929 107.5,-65.9513 107.5,-57.5836"/>
<polygon fill="none" stroke="midnightblue" points="104,-84.3969 107.5,-94.397 111,-84.397 104,-84.3969"/>
</g>
<!-- Node3 -->
<g id="node3" class="node"><title>Node3</title>
<g id="a_node3"><a xlink:href="classmemoryoracle_1_1container_1_1Container.html" target="_top" xlink:title="{memoryoracle.container.Container\n||}">
<polygon fill="none" stroke="black" points="16,-188.5 16,-245.5 199,-245.5 199,-188.5 16,-188.5"/>
<text text-anchor="middle" x="107.5" y="-233.5" font-family="Helvetica,sans-Serif" font-size="10.00">memoryoracle.container.Container</text>
<polyline fill="none" stroke="black" points="16,-226.5 199,-226.5 "/>
<text text-anchor="middle" x="107.5" y="-214.5" font-family="Helvetica,sans-Serif" font-size="10.00"> </text>
<polyline fill="none" stroke="black" points="16,-207.5 199,-207.5 "/>
<text text-anchor="middle" x="107.5" y="-195.5" font-family="Helvetica,sans-Serif" font-size="10.00"> </text>
</a>
</g>
</g>
<!-- Node3&#45;&gt;Node2 -->
<g id="edge2" class="edge"><title>Node3&#45;&gt;Node2</title>
<path fill="none" stroke="midnightblue" d="M107.5,-178.209C107.5,-169.293 107.5,-159.951 107.5,-151.584"/>
<polygon fill="none" stroke="midnightblue" points="104,-178.397 107.5,-188.397 111,-178.397 104,-178.397"/>
</g>
<!-- Node4 -->
<g id="node4" class="node"><title>Node4</title>
<polygon fill="none" stroke="#bfbfbf" points="44.5,-282.5 44.5,-339.5 170.5,-339.5 170.5,-282.5 44.5,-282.5"/>
<text text-anchor="middle" x="107.5" y="-327.5" font-family="Helvetica,sans-Serif" font-size="10.00">addressable::Structure</text>
<polyline fill="none" stroke="#bfbfbf" points="44.5,-320.5 170.5,-320.5 "/>
<text text-anchor="middle" x="107.5" y="-308.5" font-family="Helvetica,sans-Serif" font-size="10.00"> </text>
<polyline fill="none" stroke="#bfbfbf" points="44.5,-301.5 170.5,-301.5 "/>
<text text-anchor="middle" x="107.5" y="-289.5" font-family="Helvetica,sans-Serif" font-size="10.00"> </text>
</g>
<!-- Node4&#45;&gt;Node3 -->
<g id="edge3" class="edge"><title>Node4&#45;&gt;Node3</title>
<path fill="none" stroke="midnightblue" d="M107.5,-272.209C107.5,-263.293 107.5,-253.951 107.5,-245.584"/>
<polygon fill="none" stroke="midnightblue" points="104,-272.397 107.5,-282.397 111,-272.397 104,-272.397"/>
</g>
</g>
</svg>
