<?xml version="1.0" encoding="UTF-8" standalone="no"?>
<!DOCTYPE svg PUBLIC "-//W3C//DTD SVG 1.1//EN"
 "http://www.w3.org/Graphics/SVG/1.1/DTD/svg11.dtd">
<!-- Generated by graphviz version 2.38.0 (20140413.2041)
 -->
<!-- Title: memoryoracle.models.Memory._basic_track Pages: 1 -->
<svg width="877pt" height="94pt"
 viewBox="0.00 0.00 877.00 93.50" xmlns="http://www.w3.org/2000/svg" xmlns:xlink="http://www.w3.org/1999/xlink">
<g id="graph0" class="graph" transform="scale(1 1) rotate(0) translate(4 89.5)">
<title>memoryoracle.models.Memory._basic_track</title>
<!-- Node1 -->
<g id="node1" class="node"><title>Node1</title>
<polygon fill="#bfbfbf" stroke="black" points="0,-41.5 0,-71.5 168,-71.5 168,-41.5 0,-41.5"/>
<text text-anchor="start" x="8" y="-59.5" font-family="Helvetica,sans-Serif" font-size="10.00">memoryoracle.models.Memory.</text>
<text text-anchor="middle" x="84" y="-48.5" font-family="Helvetica,sans-Serif" font-size="10.00">_basic_track</text>
</g>
<!-- Node2 -->
<g id="node2" class="node"><title>Node2</title>
<g id="a_node2"><a xlink:href="classmemoryoracle_1_1frame_1_1Frame.html#aba4a80563b93cf0069db8d64df6b19e5" target="_top" xlink:title="memoryoracle.frame.Frame.index">
<polygon fill="none" stroke="black" points="215.5,-66 215.5,-85 394.5,-85 394.5,-66 215.5,-66"/>
<text text-anchor="middle" x="305" y="-73" font-family="Helvetica,sans-Serif" font-size="10.00">memoryoracle.frame.Frame.index</text>
</a>
</g>
</g>
<!-- Node1&#45;&gt;Node2 -->
<g id="edge1" class="edge"><title>Node1&#45;&gt;Node2</title>
<path fill="none" stroke="midnightblue" d="M168.107,-63.7102C180.328,-64.7705 193.016,-65.8712 205.51,-66.9552"/>
<polygon fill="midnightblue" stroke="midnightblue" points="205.212,-70.4424 215.477,-67.8199 205.817,-63.4686 205.212,-70.4424"/>
</g>
<!-- Node3 -->
<g id="node3" class="node"><title>Node3</title>
<g id="a_node3"><a xlink:href="classmemoryoracle_1_1instance_1_1Instance.html#a67d649391bded2256ff9a72e2a61143f" target="_top" xlink:title="memoryoracle.instance.Instance.index">
<polygon fill="none" stroke="black" points="204,-28 204,-47 406,-47 406,-28 204,-28"/>
<text text-anchor="middle" x="305" y="-35" font-family="Helvetica,sans-Serif" font-size="10.00">memoryoracle.instance.Instance.index</text>
</a>
</g>
</g>
<!-- Node1&#45;&gt;Node3 -->
<g id="edge2" class="edge"><title>Node1&#45;&gt;Node3</title>
<path fill="none" stroke="midnightblue" d="M168.107,-49.2898C176.456,-48.5655 185.023,-47.8222 193.597,-47.0783"/>
<polygon fill="midnightblue" stroke="midnightblue" points="193.993,-50.5572 203.653,-46.2059 193.388,-43.5834 193.993,-50.5572"/>
</g>
<!-- Node4 -->
<g id="node4" class="node"><title>Node4</title>
<g id="a_node4"><a xlink:href="classmemoryoracle_1_1instance_1_1Instance.html#a89a31e14446908e7ea052f8f842606b7" target="_top" xlink:title="memoryoracle.instance.Instance.address">
<polygon fill="none" stroke="black" points="442,-50 442,-69 657,-69 657,-50 442,-50"/>
<text text-anchor="middle" x="549.5" y="-57" font-family="Helvetica,sans-Serif" font-size="10.00">memoryoracle.instance.Instance.address</text>
</a>
</g>
</g>
<!-- Node3&#45;&gt;Node4 -->
<g id="edge3" class="edge"><title>Node3&#45;&gt;Node4</title>
<path fill="none" stroke="midnightblue" d="M406.034,-46.5753C415.136,-47.401 424.403,-48.2417 433.621,-49.0779"/>
<polygon fill="midnightblue" stroke="midnightblue" points="433.318,-52.5648 443.593,-49.9827 433.95,-45.5934 433.318,-52.5648"/>
</g>
<!-- Node6 -->
<g id="node6" class="node"><title>Node6</title>
<g id="a_node6"><a xlink:href="classmemoryoracle_1_1descriptions_1_1AddressableDescription.html#a3977bdc75bbd263aa2de64b76c7fd4e0" target="_top" xlink:title="memoryoracle.descriptions.\lAddressableDescription.address">
<polygon fill="none" stroke="black" points="464,-0.5 464,-30.5 635,-30.5 635,-0.5 464,-0.5"/>
<text text-anchor="start" x="472" y="-18.5" font-family="Helvetica,sans-Serif" font-size="10.00">memoryoracle.descriptions.</text>
<text text-anchor="middle" x="549.5" y="-7.5" font-family="Helvetica,sans-Serif" font-size="10.00">AddressableDescription.address</text>
</a>
</g>
</g>
<!-- Node3&#45;&gt;Node6 -->
<g id="edge5" class="edge"><title>Node3&#45;&gt;Node6</title>
<path fill="none" stroke="midnightblue" d="M406.034,-28.4247C421.767,-26.9975 437.991,-25.5256 453.603,-24.1092"/>
<polygon fill="midnightblue" stroke="midnightblue" points="454.12,-27.5768 463.762,-23.1875 453.487,-20.6054 454.12,-27.5768"/>
</g>
<!-- Node5 -->
<g id="node5" class="node"><title>Node5</title>
<g id="a_node5"><a xlink:href="classmemoryoracle_1_1instance_1_1Instance.html#a6136f99839061049b5942e655d1d97fb" target="_top" xlink:title="memoryoracle.instance.Instance.\l_compute_address">
<polygon fill="none" stroke="black" points="693,-44.5 693,-74.5 869,-74.5 869,-44.5 693,-44.5"/>
<text text-anchor="start" x="701" y="-62.5" font-family="Helvetica,sans-Serif" font-size="10.00">memoryoracle.instance.Instance.</text>
<text text-anchor="middle" x="781" y="-51.5" font-family="Helvetica,sans-Serif" font-size="10.00">_compute_address</text>
</a>
</g>
</g>
<!-- Node4&#45;&gt;Node5 -->
<g id="edge4" class="edge"><title>Node4&#45;&gt;Node5</title>
<path fill="none" stroke="midnightblue" d="M657.188,-59.5C665.676,-59.5 674.223,-59.5 682.643,-59.5"/>
<polygon fill="midnightblue" stroke="midnightblue" points="682.837,-63.0001 692.837,-59.5 682.837,-56.0001 682.837,-63.0001"/>
</g>
</g>
</svg>
