<?xml version="1.0" encoding="UTF-8" standalone="no"?>
<!DOCTYPE svg PUBLIC "-//W3C//DTD SVG 1.1//EN"
 "http://www.w3.org/Graphics/SVG/1.1/DTD/svg11.dtd">
<!-- Generated by graphviz version 2.38.0 (20140413.2041)
 -->
<!-- Title: memoryoracle.models.ProgramFile Pages: 1 -->
<svg width="192pt" height="276pt"
 viewBox="0.00 0.00 192.00 276.00" xmlns="http://www.w3.org/2000/svg" xmlns:xlink="http://www.w3.org/1999/xlink">
<g id="graph0" class="graph" transform="scale(1 1) rotate(0) translate(4 272)">
<title>memoryoracle.models.ProgramFile</title>
<!-- Node1 -->
<g id="node1" class="node"><title>Node1</title>
<polygon fill="#bfbfbf" stroke="black" points="0,-0.5 0,-79.5 184,-79.5 184,-0.5 0,-0.5"/>
<text text-anchor="middle" x="92" y="-67.5" font-family="Helvetica,sans-Serif" font-size="10.00">memoryoracle.models.ProgramFile</text>
<polyline fill="none" stroke="black" points="0,-60.5 184,-60.5 "/>
<text text-anchor="start" x="8" y="-48.5" font-family="Helvetica,sans-Serif" font-size="10.00">+ id_commit</text>
<text text-anchor="start" x="8" y="-37.5" font-family="Helvetica,sans-Serif" font-size="10.00">+ path</text>
<text text-anchor="start" x="8" y="-26.5" font-family="Helvetica,sans-Serif" font-size="10.00">+ size</text>
<polyline fill="none" stroke="black" points="0,-19.5 184,-19.5 "/>
<text text-anchor="middle" x="92" y="-7.5" font-family="Helvetica,sans-Serif" font-size="10.00"> </text>
</g>
<!-- Node2 -->
<g id="node2" class="node"><title>Node2</title>
<g id="a_node2"><a xlink:href="classmemoryoracle_1_1models_1_1Tracked.html" target="_top" xlink:title="{memoryoracle.models.Tracked\n|+ name\l|}">
<polygon fill="none" stroke="black" points="10,-116.5 10,-173.5 174,-173.5 174,-116.5 10,-116.5"/>
<text text-anchor="middle" x="92" y="-161.5" font-family="Helvetica,sans-Serif" font-size="10.00">memoryoracle.models.Tracked</text>
<polyline fill="none" stroke="black" points="10,-154.5 174,-154.5 "/>
<text text-anchor="start" x="18" y="-142.5" font-family="Helvetica,sans-Serif" font-size="10.00">+ name</text>
<polyline fill="none" stroke="black" points="10,-135.5 174,-135.5 "/>
<text text-anchor="middle" x="92" y="-123.5" font-family="Helvetica,sans-Serif" font-size="10.00"> </text>
</a>
</g>
</g>
<!-- Node2&#45;&gt;Node1 -->
<g id="edge1" class="edge"><title>Node2&#45;&gt;Node1</title>
<path fill="none" stroke="midnightblue" d="M92,-106.156C92,-97.4733 92,-88.2318 92,-79.5205"/>
<polygon fill="none" stroke="midnightblue" points="88.5001,-106.398 92,-116.398 95.5001,-106.398 88.5001,-106.398"/>
</g>
<!-- Node3 -->
<g id="node3" class="node"><title>Node3</title>
<polygon fill="none" stroke="#bfbfbf" points="49,-210.5 49,-267.5 135,-267.5 135,-210.5 49,-210.5"/>
<text text-anchor="middle" x="92" y="-255.5" font-family="Helvetica,sans-Serif" font-size="10.00">models::Model</text>
<polyline fill="none" stroke="#bfbfbf" points="49,-248.5 135,-248.5 "/>
<text text-anchor="middle" x="92" y="-236.5" font-family="Helvetica,sans-Serif" font-size="10.00"> </text>
<polyline fill="none" stroke="#bfbfbf" points="49,-229.5 135,-229.5 "/>
<text text-anchor="middle" x="92" y="-217.5" font-family="Helvetica,sans-Serif" font-size="10.00"> </text>
</g>
<!-- Node3&#45;&gt;Node2 -->
<g id="edge2" class="edge"><title>Node3&#45;&gt;Node2</title>
<path fill="none" stroke="midnightblue" d="M92,-200.209C92,-191.293 92,-181.951 92,-173.584"/>
<polygon fill="none" stroke="midnightblue" points="88.5001,-200.397 92,-210.397 95.5001,-200.397 88.5001,-200.397"/>
</g>
</g>
</svg>
