<?xml version="1.0" encoding="UTF-8" standalone="no"?>
<!DOCTYPE svg PUBLIC "-//W3C//DTD SVG 1.1//EN"
 "http://www.w3.org/Graphics/SVG/1.1/DTD/svg11.dtd">
<!-- Generated by graphviz version 2.38.0 (20140413.2041)
 -->
<!-- Title: memoryoracle.container.SLContainer Pages: 1 -->
<svg width="2410pt" height="348pt"
 viewBox="0.00 0.00 2409.50 348.00" xmlns="http://www.w3.org/2000/svg" xmlns:xlink="http://www.w3.org/1999/xlink">
<g id="graph0" class="graph" transform="scale(1 1) rotate(0) translate(4 344)">
<title>memoryoracle.container.SLContainer</title>
<!-- Node1 -->
<g id="node1" class="node"><title>Node1</title>
<polygon fill="#bfbfbf" stroke="black" points="1071.5,-94.5 1071.5,-151.5 1266.5,-151.5 1266.5,-94.5 1071.5,-94.5"/>
<text text-anchor="middle" x="1169" y="-139.5" font-family="Helvetica,sans-Serif" font-size="10.00">memoryoracle.container.SLContainer</text>
<polyline fill="none" stroke="black" points="1071.5,-132.5 1266.5,-132.5 "/>
<text text-anchor="middle" x="1169" y="-120.5" font-family="Helvetica,sans-Serif" font-size="10.00"> </text>
<polyline fill="none" stroke="black" points="1071.5,-113.5 1266.5,-113.5 "/>
<text text-anchor="middle" x="1169" y="-101.5" font-family="Helvetica,sans-Serif" font-size="10.00"> </text>
</g>
<!-- Node4 -->
<g id="node4" class="node"><title>Node4</title>
<g id="a_node4"><a xlink:href="classmemoryoracle_1_1container_1_1SLArray.html" target="_top" xlink:title="{memoryoracle.container.SLArray\n||}">
<polygon fill="none" stroke="black" points="0,-0.5 0,-57.5 174,-57.5 174,-0.5 0,-0.5"/>
<text text-anchor="middle" x="87" y="-45.5" font-family="Helvetica,sans-Serif" font-size="10.00">memoryoracle.container.SLArray</text>
<polyline fill="none" stroke="black" points="0,-38.5 174,-38.5 "/>
<text text-anchor="middle" x="87" y="-26.5" font-family="Helvetica,sans-Serif" font-size="10.00"> </text>
<polyline fill="none" stroke="black" points="0,-19.5 174,-19.5 "/>
<text text-anchor="middle" x="87" y="-7.5" font-family="Helvetica,sans-Serif" font-size="10.00"> </text>
</a>
</g>
</g>
<!-- Node1&#45;&gt;Node4 -->
<g id="edge3" class="edge"><title>Node1&#45;&gt;Node4</title>
<path fill="none" stroke="midnightblue" d="M1061.11,-122.681C878.775,-122.124 498.655,-113.585 183,-58 180.093,-57.4882 177.149,-56.9208 174.186,-56.3076"/>
<polygon fill="none" stroke="midnightblue" points="1061.23,-126.181 1071.24,-122.704 1061.25,-119.181 1061.23,-126.181"/>
</g>
<!-- Node5 -->
<g id="node5" class="node"><title>Node5</title>
<g id="a_node5"><a xlink:href="classmemoryoracle_1_1container_1_1SLBitset.html" target="_top" xlink:title="{memoryoracle.container.SLBitset\n||}">
<polygon fill="none" stroke="black" points="192,-0.5 192,-57.5 368,-57.5 368,-0.5 192,-0.5"/>
<text text-anchor="middle" x="280" y="-45.5" font-family="Helvetica,sans-Serif" font-size="10.00">memoryoracle.container.SLBitset</text>
<polyline fill="none" stroke="black" points="192,-38.5 368,-38.5 "/>
<text text-anchor="middle" x="280" y="-26.5" font-family="Helvetica,sans-Serif" font-size="10.00"> </text>
<polyline fill="none" stroke="black" points="192,-19.5 368,-19.5 "/>
<text text-anchor="middle" x="280" y="-7.5" font-family="Helvetica,sans-Serif" font-size="10.00"> </text>
</a>
</g>
</g>
<!-- Node1&#45;&gt;Node5 -->
<g id="edge4" class="edge"><title>Node1&#45;&gt;Node5</title>
<path fill="none" stroke="midnightblue" d="M1060.9,-120.106C907.598,-115.875 618.757,-102.199 377,-58 374.069,-57.4641 371.099,-56.8759 368.109,-56.2448"/>
<polygon fill="none" stroke="midnightblue" points="1061.17,-123.614 1071.26,-120.383 1061.35,-116.617 1061.17,-123.614"/>
</g>
<!-- Node6 -->
<g id="node6" class="node"><title>Node6</title>
<g id="a_node6"><a xlink:href="classmemoryoracle_1_1container_1_1SLDeque.html" target="_top" xlink:title="{memoryoracle.container.SLDeque\n||}">
<polygon fill="none" stroke="black" points="386,-0.5 386,-57.5 566,-57.5 566,-0.5 386,-0.5"/>
<text text-anchor="middle" x="476" y="-45.5" font-family="Helvetica,sans-Serif" font-size="10.00">memoryoracle.container.SLDeque</text>
<polyline fill="none" stroke="black" points="386,-38.5 566,-38.5 "/>
<text text-anchor="middle" x="476" y="-26.5" font-family="Helvetica,sans-Serif" font-size="10.00"> </text>
<polyline fill="none" stroke="black" points="386,-19.5 566,-19.5 "/>
<text text-anchor="middle" x="476" y="-7.5" font-family="Helvetica,sans-Serif" font-size="10.00"> </text>
</a>
</g>
</g>
<!-- Node1&#45;&gt;Node6 -->
<g id="edge5" class="edge"><title>Node1&#45;&gt;Node6</title>
<path fill="none" stroke="midnightblue" d="M1061.02,-115.844C941.361,-107.756 743.078,-90.5828 575,-58 572.107,-57.4391 569.175,-56.8342 566.222,-56.1933"/>
<polygon fill="none" stroke="midnightblue" points="1061.07,-119.355 1071.28,-116.529 1061.53,-112.371 1061.07,-119.355"/>
</g>
<!-- Node7 -->
<g id="node7" class="node"><title>Node7</title>
<g id="a_node7"><a xlink:href="classmemoryoracle_1_1container_1_1SLForwardList.html" target="_top" xlink:title="{memoryoracle.container.SLForwardList\n||}">
<polygon fill="none" stroke="black" points="584.5,-0.5 584.5,-57.5 787.5,-57.5 787.5,-0.5 584.5,-0.5"/>
<text text-anchor="middle" x="686" y="-45.5" font-family="Helvetica,sans-Serif" font-size="10.00">memoryoracle.container.SLForwardList</text>
<polyline fill="none" stroke="black" points="584.5,-38.5 787.5,-38.5 "/>
<text text-anchor="middle" x="686" y="-26.5" font-family="Helvetica,sans-Serif" font-size="10.00"> </text>
<polyline fill="none" stroke="black" points="584.5,-19.5 787.5,-19.5 "/>
<text text-anchor="middle" x="686" y="-7.5" font-family="Helvetica,sans-Serif" font-size="10.00"> </text>
</a>
</g>
</g>
<!-- Node1&#45;&gt;Node7 -->
<g id="edge6" class="edge"><title>Node1&#45;&gt;Node7</title>
<path fill="none" stroke="midnightblue" d="M1061.31,-105.841C986.575,-94.0608 884.873,-76.9046 796,-58 793.205,-57.4055 790.374,-56.7885 787.52,-56.1535"/>
<polygon fill="none" stroke="midnightblue" points="1060.79,-109.302 1071.21,-107.395 1061.87,-102.387 1060.79,-109.302"/>
</g>
<!-- Node8 -->
<g id="node8" class="node"><title>Node8</title>
<g id="a_node8"><a xlink:href="classmemoryoracle_1_1container_1_1SLList.html" target="_top" xlink:title="{memoryoracle.container.SLList\n||}">
<polygon fill="none" stroke="black" points="805.5,-0.5 805.5,-57.5 970.5,-57.5 970.5,-0.5 805.5,-0.5"/>
<text text-anchor="middle" x="888" y="-45.5" font-family="Helvetica,sans-Serif" font-size="10.00">memoryoracle.container.SLList</text>
<polyline fill="none" stroke="black" points="805.5,-38.5 970.5,-38.5 "/>
<text text-anchor="middle" x="888" y="-26.5" font-family="Helvetica,sans-Serif" font-size="10.00"> </text>
<polyline fill="none" stroke="black" points="805.5,-19.5 970.5,-19.5 "/>
<text text-anchor="middle" x="888" y="-7.5" font-family="Helvetica,sans-Serif" font-size="10.00"> </text>
</a>
</g>
</g>
<!-- Node1&#45;&gt;Node8 -->
<g id="edge7" class="edge"><title>Node1&#45;&gt;Node8</title>
<path fill="none" stroke="midnightblue" d="M1074.84,-91.1717C1041.15,-80.1416 1003.46,-67.8009 970.798,-57.1083"/>
<polygon fill="none" stroke="midnightblue" points="1074.1,-94.6117 1084.69,-94.397 1076.28,-87.9591 1074.1,-94.6117"/>
</g>
<!-- Node9 -->
<g id="node9" class="node"><title>Node9</title>
<g id="a_node9"><a xlink:href="classmemoryoracle_1_1container_1_1SLMap.html" target="_top" xlink:title="{memoryoracle.container.SLMap\n||}">
<polygon fill="none" stroke="black" points="988.5,-0.5 988.5,-57.5 1157.5,-57.5 1157.5,-0.5 988.5,-0.5"/>
<text text-anchor="middle" x="1073" y="-45.5" font-family="Helvetica,sans-Serif" font-size="10.00">memoryoracle.container.SLMap</text>
<polyline fill="none" stroke="black" points="988.5,-38.5 1157.5,-38.5 "/>
<text text-anchor="middle" x="1073" y="-26.5" font-family="Helvetica,sans-Serif" font-size="10.00"> </text>
<polyline fill="none" stroke="black" points="988.5,-19.5 1157.5,-19.5 "/>
<text text-anchor="middle" x="1073" y="-7.5" font-family="Helvetica,sans-Serif" font-size="10.00"> </text>
</a>
</g>
</g>
<!-- Node1&#45;&gt;Node9 -->
<g id="edge8" class="edge"><title>Node1&#45;&gt;Node9</title>
<path fill="none" stroke="midnightblue" d="M1132.88,-87.3868C1122.61,-77.5407 1111.56,-66.9518 1101.78,-57.5836"/>
<polygon fill="none" stroke="midnightblue" points="1130.56,-90.0049 1140.2,-94.397 1135.4,-84.9509 1130.56,-90.0049"/>
</g>
<!-- Node10 -->
<g id="node10" class="node"><title>Node10</title>
<g id="a_node10"><a xlink:href="classmemoryoracle_1_1container_1_1SLQueue.html" target="_top" xlink:title="{memoryoracle.container.SLQueue\n||}">
<polygon fill="none" stroke="black" points="1176,-0.5 1176,-57.5 1356,-57.5 1356,-0.5 1176,-0.5"/>
<text text-anchor="middle" x="1266" y="-45.5" font-family="Helvetica,sans-Serif" font-size="10.00">memoryoracle.container.SLQueue</text>
<polyline fill="none" stroke="black" points="1176,-38.5 1356,-38.5 "/>
<text text-anchor="middle" x="1266" y="-26.5" font-family="Helvetica,sans-Serif" font-size="10.00"> </text>
<polyline fill="none" stroke="black" points="1176,-19.5 1356,-19.5 "/>
<text text-anchor="middle" x="1266" y="-7.5" font-family="Helvetica,sans-Serif" font-size="10.00"> </text>
</a>
</g>
</g>
<!-- Node1&#45;&gt;Node10 -->
<g id="edge9" class="edge"><title>Node1&#45;&gt;Node10</title>
<path fill="none" stroke="midnightblue" d="M1205.49,-87.3868C1215.88,-77.5407 1227.04,-66.9518 1236.92,-57.5836"/>
<polygon fill="none" stroke="midnightblue" points="1202.95,-84.9759 1198.1,-94.397 1207.77,-90.0548 1202.95,-84.9759"/>
</g>
<!-- Node11 -->
<g id="node11" class="node"><title>Node11</title>
<g id="a_node11"><a xlink:href="classmemoryoracle_1_1container_1_1SLSet.html" target="_top" xlink:title="{memoryoracle.container.SLSet\n||}">
<polygon fill="none" stroke="black" points="1374.5,-0.5 1374.5,-57.5 1539.5,-57.5 1539.5,-0.5 1374.5,-0.5"/>
<text text-anchor="middle" x="1457" y="-45.5" font-family="Helvetica,sans-Serif" font-size="10.00">memoryoracle.container.SLSet</text>
<polyline fill="none" stroke="black" points="1374.5,-38.5 1539.5,-38.5 "/>
<text text-anchor="middle" x="1457" y="-26.5" font-family="Helvetica,sans-Serif" font-size="10.00"> </text>
<polyline fill="none" stroke="black" points="1374.5,-19.5 1539.5,-19.5 "/>
<text text-anchor="middle" x="1457" y="-7.5" font-family="Helvetica,sans-Serif" font-size="10.00"> </text>
</a>
</g>
</g>
<!-- Node1&#45;&gt;Node11 -->
<g id="edge10" class="edge"><title>Node1&#45;&gt;Node11</title>
<path fill="none" stroke="midnightblue" d="M1265.24,-91.2576C1300.51,-79.9885 1340.1,-67.3416 1374.11,-56.4781"/>
<polygon fill="none" stroke="midnightblue" points="1263.87,-88.0199 1255.41,-94.397 1266,-94.688 1263.87,-88.0199"/>
</g>
<!-- Node12 -->
<g id="node12" class="node"><title>Node12</title>
<g id="a_node12"><a xlink:href="classmemoryoracle_1_1container_1_1SLStack.html" target="_top" xlink:title="{memoryoracle.container.SLStack\n||}">
<polygon fill="none" stroke="black" points="1558,-0.5 1558,-57.5 1734,-57.5 1734,-0.5 1558,-0.5"/>
<text text-anchor="middle" x="1646" y="-45.5" font-family="Helvetica,sans-Serif" font-size="10.00">memoryoracle.container.SLStack</text>
<polyline fill="none" stroke="black" points="1558,-38.5 1734,-38.5 "/>
<text text-anchor="middle" x="1646" y="-26.5" font-family="Helvetica,sans-Serif" font-size="10.00"> </text>
<polyline fill="none" stroke="black" points="1558,-19.5 1734,-19.5 "/>
<text text-anchor="middle" x="1646" y="-7.5" font-family="Helvetica,sans-Serif" font-size="10.00"> </text>
</a>
</g>
</g>
<!-- Node1&#45;&gt;Node12 -->
<g id="edge11" class="edge"><title>Node1&#45;&gt;Node12</title>
<path fill="none" stroke="midnightblue" d="M1276.95,-107.174C1353.36,-95.8643 1458.01,-78.7234 1549,-58 1551.91,-57.3383 1554.85,-56.641 1557.82,-55.9157"/>
<polygon fill="none" stroke="midnightblue" points="1276.22,-103.744 1266.83,-108.662 1277.23,-110.67 1276.22,-103.744"/>
</g>
<!-- Node13 -->
<g id="node13" class="node"><title>Node13</title>
<g id="a_node13"><a xlink:href="classmemoryoracle_1_1container_1_1SLUnorderedMap.html" target="_top" xlink:title="{memoryoracle.container.SLUnorderedMap\n||}">
<polygon fill="none" stroke="black" points="1752.5,-0.5 1752.5,-57.5 1971.5,-57.5 1971.5,-0.5 1752.5,-0.5"/>
<text text-anchor="middle" x="1862" y="-45.5" font-family="Helvetica,sans-Serif" font-size="10.00">memoryoracle.container.SLUnorderedMap</text>
<polyline fill="none" stroke="black" points="1752.5,-38.5 1971.5,-38.5 "/>
<text text-anchor="middle" x="1862" y="-26.5" font-family="Helvetica,sans-Serif" font-size="10.00"> </text>
<polyline fill="none" stroke="black" points="1752.5,-19.5 1971.5,-19.5 "/>
<text text-anchor="middle" x="1862" y="-7.5" font-family="Helvetica,sans-Serif" font-size="10.00"> </text>
</a>
</g>
</g>
<!-- Node1&#45;&gt;Node13 -->
<g id="edge12" class="edge"><title>Node1&#45;&gt;Node13</title>
<path fill="none" stroke="midnightblue" d="M1277.03,-113.849C1392.82,-104.206 1581.75,-85.8569 1743,-58 1746.03,-57.4761 1749.1,-56.9218 1752.2,-56.342"/>
<polygon fill="none" stroke="midnightblue" points="1276.43,-110.387 1266.75,-114.698 1277,-117.363 1276.43,-110.387"/>
</g>
<!-- Node14 -->
<g id="node14" class="node"><title>Node14</title>
<g id="a_node14"><a xlink:href="classmemoryoracle_1_1container_1_1SLUnorderedSet.html" target="_top" xlink:title="{memoryoracle.container.SLUnorderedSet\n||}">
<polygon fill="none" stroke="black" points="1989.5,-0.5 1989.5,-57.5 2204.5,-57.5 2204.5,-0.5 1989.5,-0.5"/>
<text text-anchor="middle" x="2097" y="-45.5" font-family="Helvetica,sans-Serif" font-size="10.00">memoryoracle.container.SLUnorderedSet</text>
<polyline fill="none" stroke="black" points="1989.5,-38.5 2204.5,-38.5 "/>
<text text-anchor="middle" x="2097" y="-26.5" font-family="Helvetica,sans-Serif" font-size="10.00"> </text>
<polyline fill="none" stroke="black" points="1989.5,-19.5 2204.5,-19.5 "/>
<text text-anchor="middle" x="2097" y="-7.5" font-family="Helvetica,sans-Serif" font-size="10.00"> </text>
</a>
</g>
</g>
<!-- Node1&#45;&gt;Node14 -->
<g id="edge13" class="edge"><title>Node1&#45;&gt;Node14</title>
<path fill="none" stroke="midnightblue" d="M1276.85,-118.924C1433,-113.244 1730.75,-97.8076 1981,-58 1983.76,-57.5606 1986.56,-57.0897 1989.37,-56.5918"/>
<polygon fill="none" stroke="midnightblue" points="1276.64,-115.429 1266.77,-119.284 1276.89,-122.424 1276.64,-115.429"/>
</g>
<!-- Node15 -->
<g id="node15" class="node"><title>Node15</title>
<g id="a_node15"><a xlink:href="classmemoryoracle_1_1container_1_1SLVector.html" target="_top" xlink:title="{memoryoracle.container.SLVector\n||}">
<polygon fill="none" stroke="black" points="2222.5,-0.5 2222.5,-57.5 2401.5,-57.5 2401.5,-0.5 2222.5,-0.5"/>
<text text-anchor="middle" x="2312" y="-45.5" font-family="Helvetica,sans-Serif" font-size="10.00">memoryoracle.container.SLVector</text>
<polyline fill="none" stroke="black" points="2222.5,-38.5 2401.5,-38.5 "/>
<text text-anchor="middle" x="2312" y="-26.5" font-family="Helvetica,sans-Serif" font-size="10.00"> </text>
<polyline fill="none" stroke="black" points="2222.5,-19.5 2401.5,-19.5 "/>
<text text-anchor="middle" x="2312" y="-7.5" font-family="Helvetica,sans-Serif" font-size="10.00"> </text>
</a>
</g>
</g>
<!-- Node1&#45;&gt;Node15 -->
<g id="edge14" class="edge"><title>Node1&#45;&gt;Node15</title>
<path fill="none" stroke="midnightblue" d="M1276.82,-118.367C1506.24,-110.152 2036.26,-88.4617 2214,-58 2216.79,-57.5218 2219.61,-56.9939 2222.46,-56.4246"/>
<polygon fill="none" stroke="midnightblue" points="1276.66,-114.87 1266.79,-118.724 1276.91,-121.866 1276.66,-114.87"/>
</g>
<!-- Node2 -->
<g id="node2" class="node"><title>Node2</title>
<g id="a_node2"><a xlink:href="classmemoryoracle_1_1container_1_1Container.html" target="_top" xlink:title="{memoryoracle.container.Container\n||}">
<polygon fill="none" stroke="black" points="1077.5,-188.5 1077.5,-245.5 1260.5,-245.5 1260.5,-188.5 1077.5,-188.5"/>
<text text-anchor="middle" x="1169" y="-233.5" font-family="Helvetica,sans-Serif" font-size="10.00">memoryoracle.container.Container</text>
<polyline fill="none" stroke="black" points="1077.5,-226.5 1260.5,-226.5 "/>
<text text-anchor="middle" x="1169" y="-214.5" font-family="Helvetica,sans-Serif" font-size="10.00"> </text>
<polyline fill="none" stroke="black" points="1077.5,-207.5 1260.5,-207.5 "/>
<text text-anchor="middle" x="1169" y="-195.5" font-family="Helvetica,sans-Serif" font-size="10.00"> </text>
</a>
</g>
</g>
<!-- Node2&#45;&gt;Node1 -->
<g id="edge1" class="edge"><title>Node2&#45;&gt;Node1</title>
<path fill="none" stroke="midnightblue" d="M1169,-178.209C1169,-169.293 1169,-159.951 1169,-151.584"/>
<polygon fill="none" stroke="midnightblue" points="1165.5,-178.397 1169,-188.397 1172.5,-178.397 1165.5,-178.397"/>
</g>
<!-- Node3 -->
<g id="node3" class="node"><title>Node3</title>
<polygon fill="none" stroke="#bfbfbf" points="1106,-282.5 1106,-339.5 1232,-339.5 1232,-282.5 1106,-282.5"/>
<text text-anchor="middle" x="1169" y="-327.5" font-family="Helvetica,sans-Serif" font-size="10.00">addressable::Structure</text>
<polyline fill="none" stroke="#bfbfbf" points="1106,-320.5 1232,-320.5 "/>
<text text-anchor="middle" x="1169" y="-308.5" font-family="Helvetica,sans-Serif" font-size="10.00"> </text>
<polyline fill="none" stroke="#bfbfbf" points="1106,-301.5 1232,-301.5 "/>
<text text-anchor="middle" x="1169" y="-289.5" font-family="Helvetica,sans-Serif" font-size="10.00"> </text>
</g>
<!-- Node3&#45;&gt;Node2 -->
<g id="edge2" class="edge"><title>Node3&#45;&gt;Node2</title>
<path fill="none" stroke="midnightblue" d="M1169,-272.209C1169,-263.293 1169,-253.951 1169,-245.584"/>
<polygon fill="none" stroke="midnightblue" points="1165.5,-272.397 1169,-282.397 1172.5,-272.397 1165.5,-272.397"/>
</g>
</g>
</svg>
