<?xml version="1.0" encoding="UTF-8" standalone="no"?>
<!DOCTYPE svg PUBLIC "-//W3C//DTD SVG 1.1//EN"
 "http://www.w3.org/Graphics/SVG/1.1/DTD/svg11.dtd">
<!-- Generated by graphviz version 2.38.0 (20140413.2041)
 -->
<!-- Title: memoryoracle.descriptions.Description._init Pages: 1 -->
<svg width="363pt" height="137pt"
 viewBox="0.00 0.00 363.00 137.00" xmlns="http://www.w3.org/2000/svg" xmlns:xlink="http://www.w3.org/1999/xlink">
<g id="graph0" class="graph" transform="scale(1 1) rotate(0) translate(4 133)">
<title>memoryoracle.descriptions.Description._init</title>
<!-- Node1 -->
<g id="node1" class="node"><title>Node1</title>
<polygon fill="#bfbfbf" stroke="black" points="0,-49.5 0,-79.5 150,-79.5 150,-49.5 0,-49.5"/>
<text text-anchor="start" x="8" y="-67.5" font-family="Helvetica,sans-Serif" font-size="10.00">memoryoracle.descriptions.</text>
<text text-anchor="middle" x="75" y="-56.5" font-family="Helvetica,sans-Serif" font-size="10.00">Description._init</text>
</g>
<!-- Node2 -->
<g id="node2" class="node"><title>Node2</title>
<g id="a_node2"><a xlink:href="classmemoryoracle_1_1instance_1_1Pointer.html#adab8c874f676b0cd3155091725e2dba2" target="_top" xlink:title="memoryoracle.instance.Pointer.\l__init__">
<polygon fill="none" stroke="black" points="186,-98.5 186,-128.5 355,-128.5 355,-98.5 186,-98.5"/>
<text text-anchor="start" x="194" y="-116.5" font-family="Helvetica,sans-Serif" font-size="10.00">memoryoracle.instance.Pointer.</text>
<text text-anchor="middle" x="270.5" y="-105.5" font-family="Helvetica,sans-Serif" font-size="10.00">__init__</text>
</a>
</g>
</g>
<!-- Node1&#45;&gt;Node2 -->
<g id="edge1" class="edge"><title>Node1&#45;&gt;Node2</title>
<path fill="none" stroke="midnightblue" d="M145.304,-82.0498C166.553,-87.4306 189.727,-93.299 210.241,-98.4938"/>
<polygon fill="midnightblue" stroke="midnightblue" points="145.925,-78.5966 135.371,-79.5346 144.206,-85.3824 145.925,-78.5966"/>
</g>
<!-- Node3 -->
<g id="node3" class="node"><title>Node3</title>
<g id="a_node3"><a xlink:href="classmemoryoracle_1_1instance_1_1Int.html#a8d393e154c88186d0aaffd262b894b2f" target="_top" xlink:title="memoryoracle.instance.Int.\l__init__">
<polygon fill="none" stroke="black" points="196.5,-49.5 196.5,-79.5 344.5,-79.5 344.5,-49.5 196.5,-49.5"/>
<text text-anchor="start" x="204.5" y="-67.5" font-family="Helvetica,sans-Serif" font-size="10.00">memoryoracle.instance.Int.</text>
<text text-anchor="middle" x="270.5" y="-56.5" font-family="Helvetica,sans-Serif" font-size="10.00">__init__</text>
</a>
</g>
</g>
<!-- Node1&#45;&gt;Node3 -->
<g id="edge2" class="edge"><title>Node1&#45;&gt;Node3</title>
<path fill="none" stroke="midnightblue" d="M160.285,-64.5C172.315,-64.5 184.606,-64.5 196.398,-64.5"/>
<polygon fill="midnightblue" stroke="midnightblue" points="160.259,-61.0001 150.259,-64.5 160.259,-68.0001 160.259,-61.0001"/>
</g>
<!-- Node4 -->
<g id="node4" class="node"><title>Node4</title>
<g id="a_node4"><a xlink:href="classmemoryoracle_1_1instance_1_1Float.html#a4eed46d4b53a21673c6fe52c26f7bd39" target="_top" xlink:title="memoryoracle.instance.Float.\l__init__">
<polygon fill="none" stroke="black" points="191,-0.5 191,-30.5 350,-30.5 350,-0.5 191,-0.5"/>
<text text-anchor="start" x="199" y="-18.5" font-family="Helvetica,sans-Serif" font-size="10.00">memoryoracle.instance.Float.</text>
<text text-anchor="middle" x="270.5" y="-7.5" font-family="Helvetica,sans-Serif" font-size="10.00">__init__</text>
</a>
</g>
</g>
<!-- Node1&#45;&gt;Node4 -->
<g id="edge3" class="edge"><title>Node1&#45;&gt;Node4</title>
<path fill="none" stroke="midnightblue" d="M145.304,-46.9502C166.553,-41.5694 189.727,-35.701 210.241,-30.5062"/>
<polygon fill="midnightblue" stroke="midnightblue" points="144.206,-43.6176 135.371,-49.4654 145.925,-50.4034 144.206,-43.6176"/>
</g>
</g>
</svg>
