<?xml version="1.0" encoding="UTF-8" standalone="no"?>
<!DOCTYPE svg PUBLIC "-//W3C//DTD SVG 1.1//EN"
 "http://www.w3.org/Graphics/SVG/1.1/DTD/svg11.dtd">
<!-- Generated by graphviz version 2.38.0 (20140413.2041)
 -->
<!-- Title: memoryoracle.instance.Instance.index Pages: 1 -->
<svg width="673pt" height="83pt"
 viewBox="0.00 0.00 673.00 83.00" xmlns="http://www.w3.org/2000/svg" xmlns:xlink="http://www.w3.org/1999/xlink">
<g id="graph0" class="graph" transform="scale(1 1) rotate(0) translate(4 79)">
<title>memoryoracle.instance.Instance.index</title>
<!-- Node1 -->
<g id="node1" class="node"><title>Node1</title>
<polygon fill="#bfbfbf" stroke="black" points="0,-28 0,-47 202,-47 202,-28 0,-28"/>
<text text-anchor="middle" x="101" y="-35" font-family="Helvetica,sans-Serif" font-size="10.00">memoryoracle.instance.Instance.index</text>
</g>
<!-- Node2 -->
<g id="node2" class="node"><title>Node2</title>
<g id="a_node2"><a xlink:href="classmemoryoracle_1_1instance_1_1Instance.html#a89a31e14446908e7ea052f8f842606b7" target="_top" xlink:title="memoryoracle.instance.Instance.address">
<polygon fill="none" stroke="black" points="238,-50 238,-69 453,-69 453,-50 238,-50"/>
<text text-anchor="middle" x="345.5" y="-57" font-family="Helvetica,sans-Serif" font-size="10.00">memoryoracle.instance.Instance.address</text>
</a>
</g>
</g>
<!-- Node1&#45;&gt;Node2 -->
<g id="edge1" class="edge"><title>Node1&#45;&gt;Node2</title>
<path fill="none" stroke="midnightblue" d="M202.034,-46.5753C211.136,-47.401 220.403,-48.2417 229.621,-49.0779"/>
<polygon fill="midnightblue" stroke="midnightblue" points="229.318,-52.5648 239.593,-49.9827 229.95,-45.5934 229.318,-52.5648"/>
</g>
<!-- Node4 -->
<g id="node4" class="node"><title>Node4</title>
<g id="a_node4"><a xlink:href="classmemoryoracle_1_1descriptions_1_1AddressableDescription.html#a3977bdc75bbd263aa2de64b76c7fd4e0" target="_top" xlink:title="memoryoracle.descriptions.\lAddressableDescription.address">
<polygon fill="none" stroke="black" points="260,-0.5 260,-30.5 431,-30.5 431,-0.5 260,-0.5"/>
<text text-anchor="start" x="268" y="-18.5" font-family="Helvetica,sans-Serif" font-size="10.00">memoryoracle.descriptions.</text>
<text text-anchor="middle" x="345.5" y="-7.5" font-family="Helvetica,sans-Serif" font-size="10.00">AddressableDescription.address</text>
</a>
</g>
</g>
<!-- Node1&#45;&gt;Node4 -->
<g id="edge3" class="edge"><title>Node1&#45;&gt;Node4</title>
<path fill="none" stroke="midnightblue" d="M202.034,-28.4247C217.767,-26.9975 233.991,-25.5256 249.603,-24.1092"/>
<polygon fill="midnightblue" stroke="midnightblue" points="250.12,-27.5768 259.762,-23.1875 249.487,-20.6054 250.12,-27.5768"/>
</g>
<!-- Node3 -->
<g id="node3" class="node"><title>Node3</title>
<g id="a_node3"><a xlink:href="classmemoryoracle_1_1instance_1_1Instance.html#a6136f99839061049b5942e655d1d97fb" target="_top" xlink:title="memoryoracle.instance.Instance.\l_compute_address">
<polygon fill="none" stroke="black" points="489,-44.5 489,-74.5 665,-74.5 665,-44.5 489,-44.5"/>
<text text-anchor="start" x="497" y="-62.5" font-family="Helvetica,sans-Serif" font-size="10.00">memoryoracle.instance.Instance.</text>
<text text-anchor="middle" x="577" y="-51.5" font-family="Helvetica,sans-Serif" font-size="10.00">_compute_address</text>
</a>
</g>
</g>
<!-- Node2&#45;&gt;Node3 -->
<g id="edge2" class="edge"><title>Node2&#45;&gt;Node3</title>
<path fill="none" stroke="midnightblue" d="M453.188,-59.5C461.676,-59.5 470.223,-59.5 478.643,-59.5"/>
<polygon fill="midnightblue" stroke="midnightblue" points="478.837,-63.0001 488.837,-59.5 478.837,-56.0001 478.837,-63.0001"/>
</g>
</g>
</svg>
