<?xml version="1.0" encoding="UTF-8" standalone="no"?>
<!DOCTYPE svg PUBLIC "-//W3C//DTD SVG 1.1//EN"
 "http://www.w3.org/Graphics/SVG/1.1/DTD/svg11.dtd">
<!-- Generated by graphviz version 2.38.0 (20140413.2041)
 -->
<!-- Title: memoryoracle.whip.Coffee.name Pages: 1 -->
<svg width="882pt" height="165pt"
 viewBox="0.00 0.00 882.00 164.50" xmlns="http://www.w3.org/2000/svg" xmlns:xlink="http://www.w3.org/1999/xlink">
<g id="graph0" class="graph" transform="scale(1 1) rotate(0) translate(4 160.5)">
<title>memoryoracle.whip.Coffee.name</title>
<!-- Node1 -->
<g id="node1" class="node"><title>Node1</title>
<polygon fill="#bfbfbf" stroke="black" points="0,-63.5 0,-82.5 175,-82.5 175,-63.5 0,-63.5"/>
<text text-anchor="middle" x="87.5" y="-70.5" font-family="Helvetica,sans-Serif" font-size="10.00">memoryoracle.whip.Coffee.name</text>
</g>
<!-- Node2 -->
<g id="node2" class="node"><title>Node2</title>
<g id="a_node2"><a xlink:href="classmemoryoracle_1_1instance_1_1Structure.html#a200a54be462e0199b7833cbd11f81a52" target="_top" xlink:title="memoryoracle.instance.Structure.\l_track">
<polygon fill="none" stroke="black" points="211,-83 211,-113 392,-113 392,-83 211,-83"/>
<text text-anchor="start" x="219" y="-101" font-family="Helvetica,sans-Serif" font-size="10.00">memoryoracle.instance.Structure.</text>
<text text-anchor="middle" x="301.5" y="-90" font-family="Helvetica,sans-Serif" font-size="10.00">_track</text>
</a>
</g>
</g>
<!-- Node1&#45;&gt;Node2 -->
<g id="edge1" class="edge"><title>Node1&#45;&gt;Node2</title>
<path fill="none" stroke="midnightblue" d="M179.204,-83.6963C189.663,-84.9296 200.325,-86.1869 210.771,-87.4187"/>
<polygon fill="midnightblue" stroke="midnightblue" points="179.594,-80.218 169.253,-82.5227 178.774,-87.1699 179.594,-80.218"/>
</g>
<!-- Node9 -->
<g id="node9" class="node"><title>Node9</title>
<g id="a_node9"><a xlink:href="classmemoryoracle_1_1instance_1_1Array.html#a1d8c3993d8a52bfbec8240d6f79b3ce1" target="_top" xlink:title="memoryoracle.instance.Array.\l_track">
<polygon fill="none" stroke="black" points="221.5,-34 221.5,-64 381.5,-64 381.5,-34 221.5,-34"/>
<text text-anchor="start" x="229.5" y="-52" font-family="Helvetica,sans-Serif" font-size="10.00">memoryoracle.instance.Array.</text>
<text text-anchor="middle" x="301.5" y="-41" font-family="Helvetica,sans-Serif" font-size="10.00">_track</text>
</a>
</g>
</g>
<!-- Node1&#45;&gt;Node9 -->
<g id="edge11" class="edge"><title>Node1&#45;&gt;Node9</title>
<path fill="none" stroke="midnightblue" d="M182.84,-62.32C195.698,-60.8643 208.788,-59.3825 221.341,-57.9614"/>
<polygon fill="midnightblue" stroke="midnightblue" points="182.135,-58.8773 172.593,-63.4801 182.923,-65.8329 182.135,-58.8773"/>
</g>
<!-- Node3 -->
<g id="node3" class="node"><title>Node3</title>
<g id="a_node3"><a xlink:href="classmemoryoracle_1_1instance_1_1Instance.html#a86649e01ee4f562debdba5421a334f78" target="_top" xlink:title="memoryoracle.instance.Instance.track">
<polygon fill="none" stroke="black" points="428,-41.5 428,-60.5 628,-60.5 628,-41.5 428,-41.5"/>
<text text-anchor="middle" x="528" y="-48.5" font-family="Helvetica,sans-Serif" font-size="10.00">memoryoracle.instance.Instance.track</text>
</a>
</g>
</g>
<!-- Node2&#45;&gt;Node3 -->
<g id="edge2" class="edge"><title>Node2&#45;&gt;Node3</title>
<path fill="none" stroke="midnightblue" d="M384.188,-80.8984C416.963,-74.0367 453.501,-66.3873 481.415,-60.5434"/>
<polygon fill="midnightblue" stroke="midnightblue" points="383.221,-77.5248 374.15,-82.9997 384.655,-84.3762 383.221,-77.5248"/>
</g>
<!-- Node8 -->
<g id="node8" class="node"><title>Node8</title>
<g id="a_node8"><a xlink:href="classmemoryoracle_1_1models_1_1Typed.html#aa1d5d8d5b7ebe5c2876f363e7eb669db" target="_top" xlink:title="memoryoracle.models.Typed.track">
<polygon fill="none" stroke="black" points="437,-82.5 437,-101.5 619,-101.5 619,-82.5 437,-82.5"/>
<text text-anchor="middle" x="528" y="-89.5" font-family="Helvetica,sans-Serif" font-size="10.00">memoryoracle.models.Typed.track</text>
</a>
</g>
</g>
<!-- Node2&#45;&gt;Node8 -->
<g id="edge7" class="edge"><title>Node2&#45;&gt;Node8</title>
<path fill="none" stroke="midnightblue" d="M402.228,-95.3347C413.709,-95.0278 425.367,-94.7163 436.713,-94.413"/>
<polygon fill="midnightblue" stroke="midnightblue" points="402.099,-91.8368 392.196,-95.6028 402.286,-98.8343 402.099,-91.8368"/>
</g>
<!-- Node4 -->
<g id="node4" class="node"><title>Node4</title>
<g id="a_node4"><a xlink:href="classmemoryoracle_1_1models_1_1Typed.html#a494dfbe205034b874ff9e8c7039f579b" target="_top" xlink:title="memoryoracle.models.Typed.\l__init__">
<polygon fill="none" stroke="black" points="690,-126 690,-156 848,-156 848,-126 690,-126"/>
<text text-anchor="start" x="698" y="-144" font-family="Helvetica,sans-Serif" font-size="10.00">memoryoracle.models.Typed.</text>
<text text-anchor="middle" x="769" y="-133" font-family="Helvetica,sans-Serif" font-size="10.00">__init__</text>
</a>
</g>
</g>
<!-- Node3&#45;&gt;Node4 -->
<g id="edge3" class="edge"><title>Node3&#45;&gt;Node4</title>
<path fill="none" stroke="midnightblue" d="M609.219,-63.8698C615.8,-66.3911 622.157,-69.4029 628,-73 649.516,-86.2469 642.538,-103.666 664,-117 671.949,-121.938 680.808,-125.862 689.91,-128.98"/>
<polygon fill="midnightblue" stroke="midnightblue" points="610.046,-60.4534 599.452,-60.5157 607.773,-67.0739 610.046,-60.4534"/>
</g>
<!-- Node5 -->
<g id="node5" class="node"><title>Node5</title>
<g id="a_node5"><a xlink:href="classmemoryoracle_1_1models_1_1Memory.html#aed3af349dd80317ae9cca4b4e9cb7c26" target="_top" xlink:title="memoryoracle.models.Memory.\l__init__">
<polygon fill="none" stroke="black" points="685,-77 685,-107 853,-107 853,-77 685,-77"/>
<text text-anchor="start" x="693" y="-95" font-family="Helvetica,sans-Serif" font-size="10.00">memoryoracle.models.Memory.</text>
<text text-anchor="middle" x="769" y="-84" font-family="Helvetica,sans-Serif" font-size="10.00">__init__</text>
</a>
</g>
</g>
<!-- Node3&#45;&gt;Node5 -->
<g id="edge4" class="edge"><title>Node3&#45;&gt;Node5</title>
<path fill="none" stroke="midnightblue" d="M594.461,-62.2297C622.333,-67.0112 655.174,-72.645 684.745,-77.7177"/>
<polygon fill="midnightblue" stroke="midnightblue" points="594.88,-58.7505 584.432,-60.5093 593.696,-65.6498 594.88,-58.7505"/>
</g>
<!-- Node6 -->
<g id="node6" class="node"><title>Node6</title>
<g id="a_node6"><a xlink:href="classmemoryoracle_1_1instance_1_1Instance.html#a286e015a030541a0704994172024f034" target="_top" xlink:title="memoryoracle.instance.Instance.update">
<polygon fill="none" stroke="black" points="664,-0.5 664,-19.5 874,-19.5 874,-0.5 664,-0.5"/>
<text text-anchor="middle" x="769" y="-7.5" font-family="Helvetica,sans-Serif" font-size="10.00">memoryoracle.instance.Instance.update</text>
</a>
</g>
</g>
<!-- Node3&#45;&gt;Node6 -->
<g id="edge5" class="edge"><title>Node3&#45;&gt;Node6</title>
<path fill="none" stroke="midnightblue" d="M594.614,-39.7441C631.587,-33.4014 677.266,-25.5653 712.455,-19.5286"/>
<polygon fill="midnightblue" stroke="midnightblue" points="593.696,-36.3502 584.432,-41.4907 594.88,-43.2495 593.696,-36.3502"/>
</g>
<!-- Node7 -->
<g id="node7" class="node"><title>Node7</title>
<g id="a_node7"><a xlink:href="classmemoryoracle_1_1models_1_1Memory.html#a71d4a141abc3358afdf1a1325bfd4253" target="_top" xlink:title="memoryoracle.models.Memory.update">
<polygon fill="none" stroke="black" points="668,-38.5 668,-57.5 870,-57.5 870,-38.5 668,-38.5"/>
<text text-anchor="middle" x="769" y="-45.5" font-family="Helvetica,sans-Serif" font-size="10.00">memoryoracle.models.Memory.update</text>
</a>
</g>
</g>
<!-- Node3&#45;&gt;Node7 -->
<g id="edge6" class="edge"><title>Node3&#45;&gt;Node7</title>
<path fill="none" stroke="midnightblue" d="M638.454,-49.6261C648.259,-49.503 658.154,-49.3788 667.873,-49.2568"/>
<polygon fill="midnightblue" stroke="midnightblue" points="638.236,-46.1285 628.281,-49.7538 638.324,-53.1279 638.236,-46.1285"/>
</g>
<!-- Node8&#45;&gt;Node4 -->
<g id="edge8" class="edge"><title>Node8&#45;&gt;Node4</title>
<path fill="none" stroke="midnightblue" d="M585.189,-103.52C617.815,-110.209 659.292,-118.713 694.489,-125.929"/>
<polygon fill="midnightblue" stroke="midnightblue" points="585.864,-100.086 575.365,-101.506 584.458,-106.943 585.864,-100.086"/>
</g>
<!-- Node8&#45;&gt;Node5 -->
<g id="edge9" class="edge"><title>Node8&#45;&gt;Node5</title>
<path fill="none" stroke="midnightblue" d="M629.214,-92C647.71,-92 666.839,-92 684.765,-92"/>
<polygon fill="midnightblue" stroke="midnightblue" points="629.015,-88.5001 619.015,-92 629.015,-95.5001 629.015,-88.5001"/>
</g>
<!-- Node8&#45;&gt;Node7 -->
<g id="edge10" class="edge"><title>Node8&#45;&gt;Node7</title>
<path fill="none" stroke="midnightblue" d="M590.292,-80.6174C613.393,-76.3357 639.903,-71.4323 664,-67 680.788,-63.912 699.104,-60.5602 715.621,-57.5437"/>
<polygon fill="midnightblue" stroke="midnightblue" points="589.473,-77.2094 580.279,-82.4738 590.749,-84.0921 589.473,-77.2094"/>
</g>
<!-- Node9&#45;&gt;Node3 -->
<g id="edge12" class="edge"><title>Node9&#45;&gt;Node3</title>
<path fill="none" stroke="midnightblue" d="M391.893,-49.7964C403.667,-49.9013 415.791,-50.0093 427.717,-50.1155"/>
<polygon fill="midnightblue" stroke="midnightblue" points="391.681,-46.2944 381.65,-49.7051 391.619,-53.2942 391.681,-46.2944"/>
</g>
<!-- Node9&#45;&gt;Node8 -->
<g id="edge13" class="edge"><title>Node9&#45;&gt;Node8</title>
<path fill="none" stroke="midnightblue" d="M390.879,-65.9277C420.246,-71.5527 451.899,-77.6154 477.285,-82.4777"/>
<polygon fill="midnightblue" stroke="midnightblue" points="391.499,-62.4831 381.019,-64.0393 390.182,-69.3581 391.499,-62.4831"/>
</g>
</g>
</svg>
