<?xml version="1.0" encoding="UTF-8" standalone="no"?>
<!DOCTYPE svg PUBLIC "-//W3C//DTD SVG 1.1//EN"
 "http://www.w3.org/Graphics/SVG/1.1/DTD/svg11.dtd">
<!-- Generated by graphviz version 2.38.0 (20140413.2041)
 -->
<!-- Title: memoryoracle.symbol.SimpleType Pages: 1 -->
<svg width="189pt" height="569pt"
 viewBox="0.00 0.00 189.00 569.00" xmlns="http://www.w3.org/2000/svg" xmlns:xlink="http://www.w3.org/1999/xlink">
<g id="graph0" class="graph" transform="scale(1 1) rotate(0) translate(4 565)">
<title>memoryoracle.symbol.SimpleType</title>
<!-- Node1 -->
<g id="node1" class="node"><title>Node1</title>
<polygon fill="#bfbfbf" stroke="black" points="0,-0.5 0,-57.5 181,-57.5 181,-0.5 0,-0.5"/>
<text text-anchor="middle" x="90.5" y="-45.5" font-family="Helvetica,sans-Serif" font-size="10.00">memoryoracle.symbol.SimpleType</text>
<polyline fill="none" stroke="black" points="0,-38.5 181,-38.5 "/>
<text text-anchor="middle" x="90.5" y="-26.5" font-family="Helvetica,sans-Serif" font-size="10.00"> </text>
<polyline fill="none" stroke="black" points="0,-19.5 181,-19.5 "/>
<text text-anchor="middle" x="90.5" y="-7.5" font-family="Helvetica,sans-Serif" font-size="10.00"> </text>
</g>
<!-- Node2 -->
<g id="node2" class="node"><title>Node2</title>
<g id="a_node2"><a xlink:href="classmemoryoracle_1_1symbol_1_1Type.html" target="_top" xlink:title="{memoryoracle.symbol.Type\n||}">
<polygon fill="none" stroke="black" points="16.5,-94.5 16.5,-151.5 164.5,-151.5 164.5,-94.5 16.5,-94.5"/>
<text text-anchor="middle" x="90.5" y="-139.5" font-family="Helvetica,sans-Serif" font-size="10.00">memoryoracle.symbol.Type</text>
<polyline fill="none" stroke="black" points="16.5,-132.5 164.5,-132.5 "/>
<text text-anchor="middle" x="90.5" y="-120.5" font-family="Helvetica,sans-Serif" font-size="10.00"> </text>
<polyline fill="none" stroke="black" points="16.5,-113.5 164.5,-113.5 "/>
<text text-anchor="middle" x="90.5" y="-101.5" font-family="Helvetica,sans-Serif" font-size="10.00"> </text>
</a>
</g>
</g>
<!-- Node2&#45;&gt;Node1 -->
<g id="edge1" class="edge"><title>Node2&#45;&gt;Node1</title>
<path fill="none" stroke="midnightblue" d="M90.5,-84.2092C90.5,-75.2929 90.5,-65.9513 90.5,-57.5836"/>
<polygon fill="none" stroke="midnightblue" points="87.0001,-84.3969 90.5,-94.397 94.0001,-84.397 87.0001,-84.3969"/>
</g>
<!-- Node3 -->
<g id="node3" class="node"><title>Node3</title>
<g id="a_node3"><a xlink:href="classmemoryoracle_1_1symbol_1_1Symbol.html" target="_top" xlink:title="{memoryoracle.symbol.Symbol\n||}">
<polygon fill="none" stroke="black" points="9,-188.5 9,-245.5 172,-245.5 172,-188.5 9,-188.5"/>
<text text-anchor="middle" x="90.5" y="-233.5" font-family="Helvetica,sans-Serif" font-size="10.00">memoryoracle.symbol.Symbol</text>
<polyline fill="none" stroke="black" points="9,-226.5 172,-226.5 "/>
<text text-anchor="middle" x="90.5" y="-214.5" font-family="Helvetica,sans-Serif" font-size="10.00"> </text>
<polyline fill="none" stroke="black" points="9,-207.5 172,-207.5 "/>
<text text-anchor="middle" x="90.5" y="-195.5" font-family="Helvetica,sans-Serif" font-size="10.00"> </text>
</a>
</g>
</g>
<!-- Node3&#45;&gt;Node2 -->
<g id="edge2" class="edge"><title>Node3&#45;&gt;Node2</title>
<path fill="none" stroke="midnightblue" d="M90.5,-178.209C90.5,-169.293 90.5,-159.951 90.5,-151.584"/>
<polygon fill="none" stroke="midnightblue" points="87.0001,-178.397 90.5,-188.397 94.0001,-178.397 87.0001,-178.397"/>
</g>
<!-- Node4 -->
<g id="node4" class="node"><title>Node4</title>
<g id="a_node4"><a xlink:href="classmemoryoracle_1_1typed_1_1Typed.html" target="_top" xlink:title="{memoryoracle.typed.Typed\n||+ type_code()\l+ gdb_type()\l+ object()\l}">
<polygon fill="none" stroke="black" points="17.5,-282.5 17.5,-361.5 163.5,-361.5 163.5,-282.5 17.5,-282.5"/>
<text text-anchor="middle" x="90.5" y="-349.5" font-family="Helvetica,sans-Serif" font-size="10.00">memoryoracle.typed.Typed</text>
<polyline fill="none" stroke="black" points="17.5,-342.5 163.5,-342.5 "/>
<text text-anchor="middle" x="90.5" y="-330.5" font-family="Helvetica,sans-Serif" font-size="10.00"> </text>
<polyline fill="none" stroke="black" points="17.5,-323.5 163.5,-323.5 "/>
<text text-anchor="start" x="25.5" y="-311.5" font-family="Helvetica,sans-Serif" font-size="10.00">+ type_code()</text>
<text text-anchor="start" x="25.5" y="-300.5" font-family="Helvetica,sans-Serif" font-size="10.00">+ gdb_type()</text>
<text text-anchor="start" x="25.5" y="-289.5" font-family="Helvetica,sans-Serif" font-size="10.00">+ object()</text>
</a>
</g>
</g>
<!-- Node4&#45;&gt;Node3 -->
<g id="edge3" class="edge"><title>Node4&#45;&gt;Node3</title>
<path fill="none" stroke="midnightblue" d="M90.5,-272.163C90.5,-263.04 90.5,-253.806 90.5,-245.61"/>
<polygon fill="none" stroke="midnightblue" points="87.0001,-272.354 90.5,-282.354 94.0001,-272.354 87.0001,-272.354"/>
</g>
<!-- Node5 -->
<g id="node5" class="node"><title>Node5</title>
<g id="a_node5"><a xlink:href="classmemoryoracle_1_1tracked_1_1Tracked.html" target="_top" xlink:title="{memoryoracle.tracked.Tracked\n|+ meta\l|+ track()\l+ description()\l}">
<polygon fill="none" stroke="black" points="8.5,-398.5 8.5,-466.5 172.5,-466.5 172.5,-398.5 8.5,-398.5"/>
<text text-anchor="middle" x="90.5" y="-454.5" font-family="Helvetica,sans-Serif" font-size="10.00">memoryoracle.tracked.Tracked</text>
<polyline fill="none" stroke="black" points="8.5,-447.5 172.5,-447.5 "/>
<text text-anchor="start" x="16.5" y="-435.5" font-family="Helvetica,sans-Serif" font-size="10.00">+ meta</text>
<polyline fill="none" stroke="black" points="8.5,-428.5 172.5,-428.5 "/>
<text text-anchor="start" x="16.5" y="-416.5" font-family="Helvetica,sans-Serif" font-size="10.00">+ track()</text>
<text text-anchor="start" x="16.5" y="-405.5" font-family="Helvetica,sans-Serif" font-size="10.00">+ description()</text>
</a>
</g>
</g>
<!-- Node5&#45;&gt;Node4 -->
<g id="edge4" class="edge"><title>Node5&#45;&gt;Node4</title>
<path fill="none" stroke="midnightblue" d="M90.5,-388.274C90.5,-379.476 90.5,-370.275 90.5,-361.649"/>
<polygon fill="none" stroke="midnightblue" points="87.0001,-388.357 90.5,-398.357 94.0001,-388.357 87.0001,-388.357"/>
</g>
<!-- Node6 -->
<g id="node6" class="node"><title>Node6</title>
<polygon fill="none" stroke="#bfbfbf" points="57,-503.5 57,-560.5 124,-560.5 124,-503.5 57,-503.5"/>
<text text-anchor="middle" x="90.5" y="-548.5" font-family="Helvetica,sans-Serif" font-size="10.00">Document</text>
<polyline fill="none" stroke="#bfbfbf" points="57,-541.5 124,-541.5 "/>
<text text-anchor="middle" x="90.5" y="-529.5" font-family="Helvetica,sans-Serif" font-size="10.00"> </text>
<polyline fill="none" stroke="#bfbfbf" points="57,-522.5 124,-522.5 "/>
<text text-anchor="middle" x="90.5" y="-510.5" font-family="Helvetica,sans-Serif" font-size="10.00"> </text>
</g>
<!-- Node6&#45;&gt;Node5 -->
<g id="edge5" class="edge"><title>Node6&#45;&gt;Node5</title>
<path fill="none" stroke="midnightblue" d="M90.5,-493.063C90.5,-484.393 90.5,-475.243 90.5,-466.786"/>
<polygon fill="none" stroke="midnightblue" points="87.0001,-493.321 90.5,-503.321 94.0001,-493.321 87.0001,-493.321"/>
</g>
</g>
</svg>
