<?xml version="1.0" encoding="UTF-8" standalone="no"?>
<!DOCTYPE svg PUBLIC "-//W3C//DTD SVG 1.1//EN"
 "http://www.w3.org/Graphics/SVG/1.1/DTD/svg11.dtd">
<!-- Generated by graphviz version 2.38.0 (20140413.2041)
 -->
<!-- Title: memoryoracle.descriptions.StandardDescriptionDecorator Pages: 1 -->
<svg width="171pt" height="342pt"
 viewBox="0.00 0.00 171.00 342.00" xmlns="http://www.w3.org/2000/svg" xmlns:xlink="http://www.w3.org/1999/xlink">
<g id="graph0" class="graph" transform="scale(1 1) rotate(0) translate(4 338)">
<title>memoryoracle.descriptions.StandardDescriptionDecorator</title>
<!-- Node1 -->
<g id="node1" class="node"><title>Node1</title>
<polygon fill="#bfbfbf" stroke="black" points="0,-0.5 0,-90.5 163,-90.5 163,-0.5 0,-0.5"/>
<text text-anchor="start" x="8" y="-78.5" font-family="Helvetica,sans-Serif" font-size="10.00">memoryoracle.descriptions.</text>
<text text-anchor="middle" x="81.5" y="-67.5" font-family="Helvetica,sans-Serif" font-size="10.00">StandardDescriptionDecorator</text>
<polyline fill="none" stroke="black" points="0,-60.5 163,-60.5 "/>
<text text-anchor="start" x="8" y="-48.5" font-family="Helvetica,sans-Serif" font-size="10.00">&#45; _description</text>
<polyline fill="none" stroke="black" points="0,-41.5 163,-41.5 "/>
<text text-anchor="start" x="8" y="-29.5" font-family="Helvetica,sans-Serif" font-size="10.00">+ __init__()</text>
<text text-anchor="start" x="8" y="-18.5" font-family="Helvetica,sans-Serif" font-size="10.00">+ description()</text>
<text text-anchor="start" x="8" y="-7.5" font-family="Helvetica,sans-Serif" font-size="10.00">+ name()</text>
</g>
<!-- Node2 -->
<g id="node2" class="node"><title>Node2</title>
<g id="a_node2"><a xlink:href="classmemoryoracle_1_1descriptions_1_1Description.html" target="_top" xlink:title="{memoryoracle.descriptions.\lDescription\n|&#45; _id\l|+ __init__()\l+ id()\l+ name()\l+ dict()\l&#45; _init()\l}">
<polygon fill="none" stroke="black" points="6.5,-127.5 6.5,-239.5 156.5,-239.5 156.5,-127.5 6.5,-127.5"/>
<text text-anchor="start" x="14.5" y="-227.5" font-family="Helvetica,sans-Serif" font-size="10.00">memoryoracle.descriptions.</text>
<text text-anchor="middle" x="81.5" y="-216.5" font-family="Helvetica,sans-Serif" font-size="10.00">Description</text>
<polyline fill="none" stroke="black" points="6.5,-209.5 156.5,-209.5 "/>
<text text-anchor="start" x="14.5" y="-197.5" font-family="Helvetica,sans-Serif" font-size="10.00">&#45; _id</text>
<polyline fill="none" stroke="black" points="6.5,-190.5 156.5,-190.5 "/>
<text text-anchor="start" x="14.5" y="-178.5" font-family="Helvetica,sans-Serif" font-size="10.00">+ __init__()</text>
<text text-anchor="start" x="14.5" y="-167.5" font-family="Helvetica,sans-Serif" font-size="10.00">+ id()</text>
<text text-anchor="start" x="14.5" y="-156.5" font-family="Helvetica,sans-Serif" font-size="10.00">+ name()</text>
<text text-anchor="start" x="14.5" y="-145.5" font-family="Helvetica,sans-Serif" font-size="10.00">+ dict()</text>
<text text-anchor="start" x="14.5" y="-134.5" font-family="Helvetica,sans-Serif" font-size="10.00">&#45; _init()</text>
</a>
</g>
</g>
<!-- Node2&#45;&gt;Node1 -->
<g id="edge1" class="edge"><title>Node2&#45;&gt;Node1</title>
<path fill="none" stroke="midnightblue" d="M81.5,-117.076C81.5,-108.072 81.5,-99.0069 81.5,-90.5144"/>
<polygon fill="none" stroke="midnightblue" points="78.0001,-117.184 81.5,-127.184 85.0001,-117.184 78.0001,-117.184"/>
</g>
<!-- Node3 -->
<g id="node3" class="node"><title>Node3</title>
<polygon fill="none" stroke="#bfbfbf" points="58.5,-276.5 58.5,-333.5 104.5,-333.5 104.5,-276.5 58.5,-276.5"/>
<text text-anchor="middle" x="81.5" y="-321.5" font-family="Helvetica,sans-Serif" font-size="10.00">object</text>
<polyline fill="none" stroke="#bfbfbf" points="58.5,-314.5 104.5,-314.5 "/>
<text text-anchor="middle" x="81.5" y="-302.5" font-family="Helvetica,sans-Serif" font-size="10.00"> </text>
<polyline fill="none" stroke="#bfbfbf" points="58.5,-295.5 104.5,-295.5 "/>
<text text-anchor="middle" x="81.5" y="-283.5" font-family="Helvetica,sans-Serif" font-size="10.00"> </text>
</g>
<!-- Node3&#45;&gt;Node2 -->
<g id="edge2" class="edge"><title>Node3&#45;&gt;Node2</title>
<path fill="none" stroke="midnightblue" d="M81.5,-266.108C81.5,-257.748 81.5,-248.725 81.5,-239.834"/>
<polygon fill="none" stroke="midnightblue" points="78.0001,-266.284 81.5,-276.284 85.0001,-266.284 78.0001,-266.284"/>
</g>
</g>
</svg>
