<?xml version="1.0" encoding="UTF-8" standalone="no"?>
<!DOCTYPE svg PUBLIC "-//W3C//DTD SVG 1.1//EN"
 "http://www.w3.org/Graphics/SVG/1.1/DTD/svg11.dtd">
<!-- Generated by graphviz version 2.38.0 (20140413.2041)
 -->
<!-- Title: memoryoracle.instance.Function.__init__ Pages: 1 -->
<svg width="416pt" height="78pt"
 viewBox="0.00 0.00 416.00 77.50" xmlns="http://www.w3.org/2000/svg" xmlns:xlink="http://www.w3.org/1999/xlink">
<g id="graph0" class="graph" transform="scale(1 1) rotate(0) translate(4 73.5)">
<title>memoryoracle.instance.Function.__init__</title>
<!-- Node1 -->
<g id="node1" class="node"><title>Node1</title>
<polygon fill="#bfbfbf" stroke="black" points="0,-17 0,-47 176,-47 176,-17 0,-17"/>
<text text-anchor="start" x="8" y="-35" font-family="Helvetica,sans-Serif" font-size="10.00">memoryoracle.instance.Function.</text>
<text text-anchor="middle" x="88" y="-24" font-family="Helvetica,sans-Serif" font-size="10.00">__init__</text>
</g>
<!-- Node2 -->
<g id="node2" class="node"><title>Node2</title>
<g id="a_node2"><a xlink:href="classmemoryoracle_1_1descriptions_1_1Description.html#a61b082efab73e7121ad7321bd5d21b84" target="_top" xlink:title="memoryoracle.descriptions.\lDescription._init">
<polygon fill="none" stroke="black" points="235,-39 235,-69 385,-69 385,-39 235,-39"/>
<text text-anchor="start" x="243" y="-57" font-family="Helvetica,sans-Serif" font-size="10.00">memoryoracle.descriptions.</text>
<text text-anchor="middle" x="310" y="-46" font-family="Helvetica,sans-Serif" font-size="10.00">Description._init</text>
</a>
</g>
</g>
<!-- Node1&#45;&gt;Node2 -->
<g id="edge1" class="edge"><title>Node1&#45;&gt;Node2</title>
<path fill="none" stroke="midnightblue" d="M176.266,-40.7266C192.208,-42.3208 208.817,-43.9817 224.672,-45.5672"/>
<polygon fill="midnightblue" stroke="midnightblue" points="224.669,-49.0842 234.967,-46.5967 225.365,-42.119 224.669,-49.0842"/>
</g>
<!-- Node3 -->
<g id="node3" class="node"><title>Node3</title>
<g id="a_node3"><a xlink:href="classmemoryoracle_1_1instance_1_1Instance.html#a80e6a9eb8cb8598d6f19bba7fafbedfa" target="_top" xlink:title="memoryoracle.instance.Instance._init">
<polygon fill="none" stroke="black" points="212,-0.5 212,-19.5 408,-19.5 408,-0.5 212,-0.5"/>
<text text-anchor="middle" x="310" y="-7.5" font-family="Helvetica,sans-Serif" font-size="10.00">memoryoracle.instance.Instance._init</text>
</a>
</g>
</g>
<!-- Node1&#45;&gt;Node3 -->
<g id="edge2" class="edge"><title>Node1&#45;&gt;Node3</title>
<path fill="none" stroke="midnightblue" d="M176.266,-23.2734C185.34,-22.366 194.63,-21.437 203.874,-20.5126"/>
<polygon fill="midnightblue" stroke="midnightblue" points="204.273,-23.9903 213.875,-19.5125 203.576,-17.025 204.273,-23.9903"/>
</g>
</g>
</svg>
