<?xml version="1.0" encoding="UTF-8" standalone="no"?>
<!DOCTYPE svg PUBLIC "-//W3C//DTD SVG 1.1//EN"
 "http://www.w3.org/Graphics/SVG/1.1/DTD/svg11.dtd">
<!-- Generated by graphviz version 2.38.0 (20140413.2041)
 -->
<!-- Title: memoryoracle.descriptions.FileDescription Pages: 1 -->
<svg width="158pt" height="320pt"
 viewBox="0.00 0.00 158.00 320.00" xmlns="http://www.w3.org/2000/svg" xmlns:xlink="http://www.w3.org/1999/xlink">
<g id="graph0" class="graph" transform="scale(1 1) rotate(0) translate(4 316)">
<title>memoryoracle.descriptions.FileDescription</title>
<!-- Node1 -->
<g id="node1" class="node"><title>Node1</title>
<polygon fill="#bfbfbf" stroke="black" points="-1.42109e-14,-0.5 -1.42109e-14,-68.5 150,-68.5 150,-0.5 -1.42109e-14,-0.5"/>
<text text-anchor="start" x="8" y="-56.5" font-family="Helvetica,sans-Serif" font-size="10.00">memoryoracle.descriptions.</text>
<text text-anchor="middle" x="75" y="-45.5" font-family="Helvetica,sans-Serif" font-size="10.00">FileDescription</text>
<polyline fill="none" stroke="black" points="-1.42109e-14,-38.5 150,-38.5 "/>
<text text-anchor="middle" x="75" y="-26.5" font-family="Helvetica,sans-Serif" font-size="10.00"> </text>
<polyline fill="none" stroke="black" points="-1.42109e-14,-19.5 150,-19.5 "/>
<text text-anchor="middle" x="75" y="-7.5" font-family="Helvetica,sans-Serif" font-size="10.00"> </text>
</g>
<!-- Node2 -->
<g id="node2" class="node"><title>Node2</title>
<g id="a_node2"><a xlink:href="classmemoryoracle_1_1descriptions_1_1Description.html" target="_top" xlink:title="{memoryoracle.descriptions.\lDescription\n|&#45; _id\l|+ __init__()\l+ id()\l+ name()\l+ dict()\l&#45; _init()\l}">
<polygon fill="none" stroke="black" points="-1.42109e-14,-105.5 -1.42109e-14,-217.5 150,-217.5 150,-105.5 -1.42109e-14,-105.5"/>
<text text-anchor="start" x="8" y="-205.5" font-family="Helvetica,sans-Serif" font-size="10.00">memoryoracle.descriptions.</text>
<text text-anchor="middle" x="75" y="-194.5" font-family="Helvetica,sans-Serif" font-size="10.00">Description</text>
<polyline fill="none" stroke="black" points="-1.42109e-14,-187.5 150,-187.5 "/>
<text text-anchor="start" x="8" y="-175.5" font-family="Helvetica,sans-Serif" font-size="10.00">&#45; _id</text>
<polyline fill="none" stroke="black" points="-1.42109e-14,-168.5 150,-168.5 "/>
<text text-anchor="start" x="8" y="-156.5" font-family="Helvetica,sans-Serif" font-size="10.00">+ __init__()</text>
<text text-anchor="start" x="8" y="-145.5" font-family="Helvetica,sans-Serif" font-size="10.00">+ id()</text>
<text text-anchor="start" x="8" y="-134.5" font-family="Helvetica,sans-Serif" font-size="10.00">+ name()</text>
<text text-anchor="start" x="8" y="-123.5" font-family="Helvetica,sans-Serif" font-size="10.00">+ dict()</text>
<text text-anchor="start" x="8" y="-112.5" font-family="Helvetica,sans-Serif" font-size="10.00">&#45; _init()</text>
</a>
</g>
</g>
<!-- Node2&#45;&gt;Node1 -->
<g id="edge1" class="edge"><title>Node2&#45;&gt;Node1</title>
<path fill="none" stroke="midnightblue" d="M75,-95.2571C75,-85.9867 75,-76.797 75,-68.5058"/>
<polygon fill="none" stroke="midnightblue" points="71.5001,-95.3093 75,-105.309 78.5001,-95.3094 71.5001,-95.3093"/>
</g>
<!-- Node3 -->
<g id="node3" class="node"><title>Node3</title>
<polygon fill="none" stroke="#bfbfbf" points="52,-254.5 52,-311.5 98,-311.5 98,-254.5 52,-254.5"/>
<text text-anchor="middle" x="75" y="-299.5" font-family="Helvetica,sans-Serif" font-size="10.00">object</text>
<polyline fill="none" stroke="#bfbfbf" points="52,-292.5 98,-292.5 "/>
<text text-anchor="middle" x="75" y="-280.5" font-family="Helvetica,sans-Serif" font-size="10.00"> </text>
<polyline fill="none" stroke="#bfbfbf" points="52,-273.5 98,-273.5 "/>
<text text-anchor="middle" x="75" y="-261.5" font-family="Helvetica,sans-Serif" font-size="10.00"> </text>
</g>
<!-- Node3&#45;&gt;Node2 -->
<g id="edge2" class="edge"><title>Node3&#45;&gt;Node2</title>
<path fill="none" stroke="midnightblue" d="M75,-244.108C75,-235.748 75,-226.725 75,-217.834"/>
<polygon fill="none" stroke="midnightblue" points="71.5001,-244.284 75,-254.284 78.5001,-244.284 71.5001,-244.284"/>
</g>
</g>
</svg>
