<?xml version="1.0" encoding="UTF-8" standalone="no"?>
<!DOCTYPE svg PUBLIC "-//W3C//DTD SVG 1.1//EN"
 "http://www.w3.org/Graphics/SVG/1.1/DTD/svg11.dtd">
<!-- Generated by graphviz version 2.38.0 (20140413.2041)
 -->
<!-- Title: memoryoracle.instance.Instance._basic_track Pages: 1 -->
<svg width="422pt" height="116pt"
 viewBox="0.00 0.00 422.00 115.50" xmlns="http://www.w3.org/2000/svg" xmlns:xlink="http://www.w3.org/1999/xlink">
<g id="graph0" class="graph" transform="scale(1 1) rotate(0) translate(4 111.5)">
<title>memoryoracle.instance.Instance._basic_track</title>
<!-- Node1 -->
<g id="node1" class="node"><title>Node1</title>
<polygon fill="#bfbfbf" stroke="black" points="0,-33 0,-63 176,-63 176,-33 0,-33"/>
<text text-anchor="start" x="8" y="-51" font-family="Helvetica,sans-Serif" font-size="10.00">memoryoracle.instance.Instance.</text>
<text text-anchor="middle" x="88" y="-40" font-family="Helvetica,sans-Serif" font-size="10.00">_basic_track</text>
</g>
<!-- Node2 -->
<g id="node2" class="node"><title>Node2</title>
<g id="a_node2"><a xlink:href="classmemoryoracle_1_1descriptions_1_1Description.html#a793ffb6975ee167869a1f475b1748769" target="_top" xlink:title="memoryoracle.descriptions.\lDescription.id">
<polygon fill="none" stroke="black" points="238,-77 238,-107 388,-107 388,-77 238,-77"/>
<text text-anchor="start" x="246" y="-95" font-family="Helvetica,sans-Serif" font-size="10.00">memoryoracle.descriptions.</text>
<text text-anchor="middle" x="313" y="-84" font-family="Helvetica,sans-Serif" font-size="10.00">Description.id</text>
</a>
</g>
</g>
<!-- Node1&#45;&gt;Node2 -->
<g id="edge1" class="edge"><title>Node1&#45;&gt;Node2</title>
<path fill="none" stroke="midnightblue" d="M165.12,-63.0192C185.288,-66.9986 207.18,-71.3179 227.752,-75.3771"/>
<polygon fill="midnightblue" stroke="midnightblue" points="227.244,-78.8442 237.732,-77.3462 228.599,-71.9766 227.244,-78.8442"/>
</g>
<!-- Node3 -->
<g id="node3" class="node"><title>Node3</title>
<g id="a_node3"><a xlink:href="classmemoryoracle_1_1frame_1_1Frame.html#aba4a80563b93cf0069db8d64df6b19e5" target="_top" xlink:title="memoryoracle.frame.Frame.index">
<polygon fill="none" stroke="black" points="223.5,-38.5 223.5,-57.5 402.5,-57.5 402.5,-38.5 223.5,-38.5"/>
<text text-anchor="middle" x="313" y="-45.5" font-family="Helvetica,sans-Serif" font-size="10.00">memoryoracle.frame.Frame.index</text>
</a>
</g>
</g>
<!-- Node1&#45;&gt;Node3 -->
<g id="edge2" class="edge"><title>Node1&#45;&gt;Node3</title>
<path fill="none" stroke="midnightblue" d="M176.176,-48C188.296,-48 200.82,-48 213.135,-48"/>
<polygon fill="midnightblue" stroke="midnightblue" points="213.417,-51.5001 223.417,-48 213.417,-44.5001 213.417,-51.5001"/>
</g>
<!-- Node4 -->
<g id="node4" class="node"><title>Node4</title>
<g id="a_node4"><a xlink:href="classmemoryoracle_1_1instance_1_1Instance.html#a67d649391bded2256ff9a72e2a61143f" target="_top" xlink:title="memoryoracle.instance.Instance.index">
<polygon fill="none" stroke="black" points="212,-0.5 212,-19.5 414,-19.5 414,-0.5 212,-0.5"/>
<text text-anchor="middle" x="313" y="-7.5" font-family="Helvetica,sans-Serif" font-size="10.00">memoryoracle.instance.Instance.index</text>
</a>
</g>
</g>
<!-- Node1&#45;&gt;Node4 -->
<g id="edge3" class="edge"><title>Node1&#45;&gt;Node4</title>
<path fill="none" stroke="midnightblue" d="M176.176,-33.1449C199.481,-29.1736 224.277,-24.9483 246.217,-21.2097"/>
<polygon fill="midnightblue" stroke="midnightblue" points="246.811,-24.659 256.081,-19.5289 245.635,-17.7585 246.811,-24.659"/>
</g>
</g>
</svg>
