<?xml version="1.0" encoding="UTF-8" standalone="no"?>
<!DOCTYPE svg PUBLIC "-//W3C//DTD SVG 1.1//EN"
 "http://www.w3.org/Graphics/SVG/1.1/DTD/svg11.dtd">
<!-- Generated by graphviz version 2.38.0 (20140413.2041)
 -->
<!-- Title: memoryoracle.typed.Typed.type Pages: 1 -->
<svg width="856pt" height="165pt"
 viewBox="0.00 0.00 856.00 164.50" xmlns="http://www.w3.org/2000/svg" xmlns:xlink="http://www.w3.org/1999/xlink">
<g id="graph0" class="graph" transform="scale(1 1) rotate(0) translate(4 160.5)">
<title>memoryoracle.typed.Typed.type</title>
<!-- Node1 -->
<g id="node1" class="node"><title>Node1</title>
<polygon fill="#bfbfbf" stroke="black" points="0,-63.5 0,-82.5 170,-82.5 170,-63.5 0,-63.5"/>
<text text-anchor="middle" x="85" y="-70.5" font-family="Helvetica,sans-Serif" font-size="10.00">memoryoracle.typed.Typed.type</text>
</g>
<!-- Node2 -->
<g id="node2" class="node"><title>Node2</title>
<g id="a_node2"><a xlink:href="classmemoryoracle_1_1instance_1_1Array.html#a1d8c3993d8a52bfbec8240d6f79b3ce1" target="_top" xlink:title="memoryoracle.instance.Array.\l_track">
<polygon fill="none" stroke="black" points="206,-58 206,-88 366,-88 366,-58 206,-58"/>
<text text-anchor="start" x="214" y="-76" font-family="Helvetica,sans-Serif" font-size="10.00">memoryoracle.instance.Array.</text>
<text text-anchor="middle" x="286" y="-65" font-family="Helvetica,sans-Serif" font-size="10.00">_track</text>
</a>
</g>
</g>
<!-- Node1&#45;&gt;Node2 -->
<g id="edge1" class="edge"><title>Node1&#45;&gt;Node2</title>
<path fill="none" stroke="midnightblue" d="M180.185,-73C188.806,-73 197.48,-73 205.948,-73"/>
<polygon fill="midnightblue" stroke="midnightblue" points="180.106,-69.5001 170.105,-73 180.105,-76.5001 180.106,-69.5001"/>
</g>
<!-- Node3 -->
<g id="node3" class="node"><title>Node3</title>
<g id="a_node3"><a xlink:href="classmemoryoracle_1_1instance_1_1Instance.html#a86649e01ee4f562debdba5421a334f78" target="_top" xlink:title="memoryoracle.instance.Instance.track">
<polygon fill="none" stroke="black" points="402,-44.5 402,-63.5 602,-63.5 602,-44.5 402,-44.5"/>
<text text-anchor="middle" x="502" y="-51.5" font-family="Helvetica,sans-Serif" font-size="10.00">memoryoracle.instance.Instance.track</text>
</a>
</g>
</g>
<!-- Node2&#45;&gt;Node3 -->
<g id="edge2" class="edge"><title>Node2&#45;&gt;Node3</title>
<path fill="none" stroke="midnightblue" d="M376.301,-65.0714C384.756,-64.3207 393.362,-63.5566 401.902,-62.7985"/>
<polygon fill="midnightblue" stroke="midnightblue" points="375.729,-61.6083 366.078,-65.9791 376.348,-68.5809 375.729,-61.6083"/>
</g>
<!-- Node8 -->
<g id="node8" class="node"><title>Node8</title>
<g id="a_node8"><a xlink:href="classmemoryoracle_1_1models_1_1Typed.html#aa1d5d8d5b7ebe5c2876f363e7eb669db" target="_top" xlink:title="memoryoracle.models.Typed.track">
<polygon fill="none" stroke="black" points="411,-82.5 411,-101.5 593,-101.5 593,-82.5 411,-82.5"/>
<text text-anchor="middle" x="502" y="-89.5" font-family="Helvetica,sans-Serif" font-size="10.00">memoryoracle.models.Typed.track</text>
</a>
</g>
</g>
<!-- Node2&#45;&gt;Node8 -->
<g id="edge7" class="edge"><title>Node2&#45;&gt;Node8</title>
<path fill="none" stroke="midnightblue" d="M376.051,-80.9064C387.497,-81.9227 399.226,-82.964 410.693,-83.9821"/>
<polygon fill="midnightblue" stroke="midnightblue" points="376.348,-77.4191 366.078,-80.0209 375.729,-84.3917 376.348,-77.4191"/>
</g>
<!-- Node4 -->
<g id="node4" class="node"><title>Node4</title>
<g id="a_node4"><a xlink:href="classmemoryoracle_1_1models_1_1Typed.html#a494dfbe205034b874ff9e8c7039f579b" target="_top" xlink:title="memoryoracle.models.Typed.\l__init__">
<polygon fill="none" stroke="black" points="664,-126 664,-156 822,-156 822,-126 664,-126"/>
<text text-anchor="start" x="672" y="-144" font-family="Helvetica,sans-Serif" font-size="10.00">memoryoracle.models.Typed.</text>
<text text-anchor="middle" x="743" y="-133" font-family="Helvetica,sans-Serif" font-size="10.00">__init__</text>
</a>
</g>
</g>
<!-- Node3&#45;&gt;Node4 -->
<g id="edge3" class="edge"><title>Node3&#45;&gt;Node4</title>
<path fill="none" stroke="midnightblue" d="M590.57,-67.1933C594.53,-68.9064 598.363,-70.8333 602,-73 623.706,-85.933 616.538,-103.666 638,-117 645.949,-121.938 654.808,-125.862 663.91,-128.98"/>
<polygon fill="midnightblue" stroke="midnightblue" points="591.722,-63.8867 581.132,-63.5721 589.215,-70.4221 591.722,-63.8867"/>
</g>
<!-- Node5 -->
<g id="node5" class="node"><title>Node5</title>
<g id="a_node5"><a xlink:href="classmemoryoracle_1_1models_1_1Memory.html#aed3af349dd80317ae9cca4b4e9cb7c26" target="_top" xlink:title="memoryoracle.models.Memory.\l__init__">
<polygon fill="none" stroke="black" points="659,-77 659,-107 827,-107 827,-77 659,-77"/>
<text text-anchor="start" x="667" y="-95" font-family="Helvetica,sans-Serif" font-size="10.00">memoryoracle.models.Memory.</text>
<text text-anchor="middle" x="743" y="-84" font-family="Helvetica,sans-Serif" font-size="10.00">__init__</text>
</a>
</g>
</g>
<!-- Node3&#45;&gt;Node5 -->
<g id="edge4" class="edge"><title>Node3&#45;&gt;Node5</title>
<path fill="none" stroke="midnightblue" d="M573.097,-65.1452C599.995,-69.4218 630.946,-74.3429 658.945,-78.7947"/>
<polygon fill="midnightblue" stroke="midnightblue" points="573.427,-61.6537 563.001,-63.54 572.328,-68.5669 573.427,-61.6537"/>
</g>
<!-- Node6 -->
<g id="node6" class="node"><title>Node6</title>
<g id="a_node6"><a xlink:href="classmemoryoracle_1_1instance_1_1Instance.html#a286e015a030541a0704994172024f034" target="_top" xlink:title="memoryoracle.instance.Instance.update">
<polygon fill="none" stroke="black" points="638,-0.5 638,-19.5 848,-19.5 848,-0.5 638,-0.5"/>
<text text-anchor="middle" x="743" y="-7.5" font-family="Helvetica,sans-Serif" font-size="10.00">memoryoracle.instance.Instance.update</text>
</a>
</g>
</g>
<!-- Node3&#45;&gt;Node6 -->
<g id="edge5" class="edge"><title>Node3&#45;&gt;Node6</title>
<path fill="none" stroke="midnightblue" d="M564.292,-42.6174C587.393,-38.3357 613.903,-33.4323 638,-29 654.788,-25.912 673.104,-22.5602 689.621,-19.5437"/>
<polygon fill="midnightblue" stroke="midnightblue" points="563.473,-39.2094 554.279,-44.4738 564.749,-46.0921 563.473,-39.2094"/>
</g>
<!-- Node7 -->
<g id="node7" class="node"><title>Node7</title>
<g id="a_node7"><a xlink:href="classmemoryoracle_1_1models_1_1Memory.html#a71d4a141abc3358afdf1a1325bfd4253" target="_top" xlink:title="memoryoracle.models.Memory.update">
<polygon fill="none" stroke="black" points="642,-38.5 642,-57.5 844,-57.5 844,-38.5 642,-38.5"/>
<text text-anchor="middle" x="743" y="-45.5" font-family="Helvetica,sans-Serif" font-size="10.00">memoryoracle.models.Memory.update</text>
</a>
</g>
</g>
<!-- Node3&#45;&gt;Node7 -->
<g id="edge6" class="edge"><title>Node3&#45;&gt;Node7</title>
<path fill="none" stroke="midnightblue" d="M612.454,-51.2522C622.259,-51.0061 632.154,-50.7576 641.873,-50.5136"/>
<polygon fill="midnightblue" stroke="midnightblue" points="612.19,-47.7576 602.281,-51.5076 612.366,-54.7554 612.19,-47.7576"/>
</g>
<!-- Node8&#45;&gt;Node4 -->
<g id="edge8" class="edge"><title>Node8&#45;&gt;Node4</title>
<path fill="none" stroke="midnightblue" d="M559.189,-103.52C591.815,-110.209 633.292,-118.713 668.489,-125.929"/>
<polygon fill="midnightblue" stroke="midnightblue" points="559.864,-100.086 549.365,-101.506 558.458,-106.943 559.864,-100.086"/>
</g>
<!-- Node8&#45;&gt;Node5 -->
<g id="edge9" class="edge"><title>Node8&#45;&gt;Node5</title>
<path fill="none" stroke="midnightblue" d="M603.214,-92C621.71,-92 640.839,-92 658.765,-92"/>
<polygon fill="midnightblue" stroke="midnightblue" points="603.015,-88.5001 593.015,-92 603.015,-95.5001 603.015,-88.5001"/>
</g>
<!-- Node8&#45;&gt;Node7 -->
<g id="edge10" class="edge"><title>Node8&#45;&gt;Node7</title>
<path fill="none" stroke="midnightblue" d="M565.014,-80.5832C603.907,-73.423 653.465,-64.2993 690.242,-57.5287"/>
<polygon fill="midnightblue" stroke="midnightblue" points="564.06,-77.1998 554.859,-82.4527 565.328,-84.0842 564.06,-77.1998"/>
</g>
</g>
</svg>
