<?xml version="1.0" encoding="UTF-8" standalone="no"?>
<!DOCTYPE svg PUBLIC "-//W3C//DTD SVG 1.1//EN"
 "http://www.w3.org/Graphics/SVG/1.1/DTD/svg11.dtd">
<!-- Generated by graphviz version 2.38.0 (20140413.2041)
 -->
<!-- Title: memoryoracle.instance.Instance.frame Pages: 1 -->
<svg width="1319pt" height="176pt"
 viewBox="0.00 0.00 1319.00 175.50" xmlns="http://www.w3.org/2000/svg" xmlns:xlink="http://www.w3.org/1999/xlink">
<g id="graph0" class="graph" transform="scale(1 1) rotate(0) translate(4 171.5)">
<title>memoryoracle.instance.Instance.frame</title>
<!-- Node1 -->
<g id="node1" class="node"><title>Node1</title>
<polygon fill="#bfbfbf" stroke="black" points="0,-69 0,-88 205,-88 205,-69 0,-69"/>
<text text-anchor="middle" x="102.5" y="-76" font-family="Helvetica,sans-Serif" font-size="10.00">memoryoracle.instance.Instance.frame</text>
</g>
<!-- Node2 -->
<g id="node2" class="node"><title>Node2</title>
<g id="a_node2"><a xlink:href="classmemoryoracle_1_1instance_1_1Primitive.html#abc513cbf3d0938c0db133e9af0a6f5ea" target="_top" xlink:title="memoryoracle.instance.Primitive.val\l_string">
<polygon fill="none" stroke="black" points="241,-63.5 241,-93.5 432,-93.5 432,-63.5 241,-63.5"/>
<text text-anchor="start" x="249" y="-81.5" font-family="Helvetica,sans-Serif" font-size="10.00">memoryoracle.instance.Primitive.val</text>
<text text-anchor="middle" x="336.5" y="-70.5" font-family="Helvetica,sans-Serif" font-size="10.00">_string</text>
</a>
</g>
</g>
<!-- Node1&#45;&gt;Node2 -->
<g id="edge1" class="edge"><title>Node1&#45;&gt;Node2</title>
<path fill="none" stroke="midnightblue" d="M215.259,-78.5C223.8,-78.5 232.371,-78.5 240.788,-78.5"/>
<polygon fill="midnightblue" stroke="midnightblue" points="215.259,-75.0001 205.259,-78.5 215.259,-82.0001 215.259,-75.0001"/>
</g>
<!-- Node3 -->
<g id="node3" class="node"><title>Node3</title>
<g id="a_node3"><a xlink:href="classmemoryoracle_1_1instance_1_1Primitive.html#a68562bda9732e33fe32188597e2f4b91" target="_top" xlink:title="memoryoracle.instance.Primitive.\l_track">
<polygon fill="none" stroke="black" points="652,-128.5 652,-158.5 829,-158.5 829,-128.5 652,-128.5"/>
<text text-anchor="start" x="660" y="-146.5" font-family="Helvetica,sans-Serif" font-size="10.00">memoryoracle.instance.Primitive.</text>
<text text-anchor="middle" x="740.5" y="-135.5" font-family="Helvetica,sans-Serif" font-size="10.00">_track</text>
</a>
</g>
</g>
<!-- Node2&#45;&gt;Node3 -->
<g id="edge2" class="edge"><title>Node2&#45;&gt;Node3</title>
<path fill="none" stroke="midnightblue" d="M431.216,-95.2608C443.58,-97.4005 456.09,-99.5295 468,-101.5 529.291,-111.641 598.496,-122.335 651.695,-130.394"/>
<polygon fill="midnightblue" stroke="midnightblue" points="431.798,-91.8095 421.346,-93.5453 430.599,-98.7061 431.798,-91.8095"/>
</g>
<!-- Node9 -->
<g id="node9" class="node"><title>Node9</title>
<g id="a_node9"><a xlink:href="classmemoryoracle_1_1instance_1_1Pointer.html#a2cc9e298adaad8bed089d90186fcde8a" target="_top" xlink:title="memoryoracle.instance.Pointer.\l_track">
<polygon fill="none" stroke="black" points="656,-79.5 656,-109.5 825,-109.5 825,-79.5 656,-79.5"/>
<text text-anchor="start" x="664" y="-97.5" font-family="Helvetica,sans-Serif" font-size="10.00">memoryoracle.instance.Pointer.</text>
<text text-anchor="middle" x="740.5" y="-86.5" font-family="Helvetica,sans-Serif" font-size="10.00">_track</text>
</a>
</g>
</g>
<!-- Node2&#45;&gt;Node9 -->
<g id="edge10" class="edge"><title>Node2&#45;&gt;Node9</title>
<path fill="none" stroke="midnightblue" d="M442.107,-82.6635C508.688,-85.3135 593.759,-88.6994 655.844,-91.1704"/>
<polygon fill="midnightblue" stroke="midnightblue" points="442.136,-79.162 432.005,-82.2614 441.858,-86.1564 442.136,-79.162"/>
</g>
<!-- Node10 -->
<g id="node10" class="node"><title>Node10</title>
<g id="a_node10"><a xlink:href="classmemoryoracle_1_1instance_1_1Int.html#a450a73bc8aaf1a7ac5f18c3ed1a933fc" target="_top" xlink:title="memoryoracle.instance.Int.\l_find_hidden_type">
<polygon fill="none" stroke="black" points="468,-0.5 468,-30.5 616,-30.5 616,-0.5 468,-0.5"/>
<text text-anchor="start" x="476" y="-18.5" font-family="Helvetica,sans-Serif" font-size="10.00">memoryoracle.instance.Int.</text>
<text text-anchor="middle" x="542" y="-7.5" font-family="Helvetica,sans-Serif" font-size="10.00">_find_hidden_type</text>
</a>
</g>
</g>
<!-- Node2&#45;&gt;Node10 -->
<g id="edge13" class="edge"><title>Node2&#45;&gt;Node10</title>
<path fill="none" stroke="midnightblue" d="M395.687,-60.4863C426.33,-50.9997 463.472,-39.5013 492.534,-30.5041"/>
<polygon fill="midnightblue" stroke="midnightblue" points="394.502,-57.1891 385.985,-63.49 396.573,-63.876 394.502,-57.1891"/>
</g>
<!-- Node11 -->
<g id="node11" class="node"><title>Node11</title>
<g id="a_node11"><a xlink:href="classmemoryoracle_1_1instance_1_1Int.html#a38c9424341353f006771163d360594da" target="_top" xlink:title="memoryoracle.instance.Int.\l_track">
<polygon fill="none" stroke="black" points="666.5,-30.5 666.5,-60.5 814.5,-60.5 814.5,-30.5 666.5,-30.5"/>
<text text-anchor="start" x="674.5" y="-48.5" font-family="Helvetica,sans-Serif" font-size="10.00">memoryoracle.instance.Int.</text>
<text text-anchor="middle" x="740.5" y="-37.5" font-family="Helvetica,sans-Serif" font-size="10.00">_track</text>
</a>
</g>
</g>
<!-- Node2&#45;&gt;Node11 -->
<g id="edge17" class="edge"><title>Node2&#45;&gt;Node11</title>
<path fill="none" stroke="midnightblue" d="M442.235,-69.9023C512.628,-64.1238 603.643,-56.6525 666.319,-51.5074"/>
<polygon fill="midnightblue" stroke="midnightblue" points="441.685,-66.4356 432.005,-70.7421 442.258,-73.4121 441.685,-66.4356"/>
</g>
<!-- Node4 -->
<g id="node4" class="node"><title>Node4</title>
<g id="a_node4"><a xlink:href="classmemoryoracle_1_1instance_1_1Instance.html#a86649e01ee4f562debdba5421a334f78" target="_top" xlink:title="memoryoracle.instance.Instance.track">
<polygon fill="none" stroke="black" points="865,-104 865,-123 1065,-123 1065,-104 865,-104"/>
<text text-anchor="middle" x="965" y="-111" font-family="Helvetica,sans-Serif" font-size="10.00">memoryoracle.instance.Instance.track</text>
</a>
</g>
</g>
<!-- Node3&#45;&gt;Node4 -->
<g id="edge3" class="edge"><title>Node3&#45;&gt;Node4</title>
<path fill="none" stroke="midnightblue" d="M839.17,-130.331C857.377,-127.876 876.077,-125.355 893.279,-123.035"/>
<polygon fill="midnightblue" stroke="midnightblue" points="838.561,-126.881 829.118,-131.686 839.497,-133.819 838.561,-126.881"/>
</g>
<!-- Node8 -->
<g id="node8" class="node"><title>Node8</title>
<g id="a_node8"><a xlink:href="classmemoryoracle_1_1models_1_1Memory.html#a27f8d94aeb19f8101c29a673c7bae4a1" target="_top" xlink:title="memoryoracle.models.Memory.track">
<polygon fill="none" stroke="black" points="869,-66 869,-85 1061,-85 1061,-66 869,-66"/>
<text text-anchor="middle" x="965" y="-73" font-family="Helvetica,sans-Serif" font-size="10.00">memoryoracle.models.Memory.track</text>
</a>
</g>
</g>
<!-- Node3&#45;&gt;Node8 -->
<g id="edge7" class="edge"><title>Node3&#45;&gt;Node8</title>
<path fill="none" stroke="midnightblue" d="M813.319,-124.963C818.699,-122.975 823.981,-120.821 829,-118.5 846.454,-110.429 847.206,-101.79 865,-94.5 874.474,-90.6188 884.788,-87.5193 895.063,-85.0469"/>
<polygon fill="midnightblue" stroke="midnightblue" points="811.856,-121.767 803.567,-128.365 814.162,-128.376 811.856,-121.767"/>
</g>
<!-- Node5 -->
<g id="node5" class="node"><title>Node5</title>
<g id="a_node5"><a xlink:href="classmemoryoracle_1_1instance_1_1Instance.html#a286e015a030541a0704994172024f034" target="_top" xlink:title="memoryoracle.instance.Instance.update">
<polygon fill="none" stroke="black" points="1101,-148 1101,-167 1311,-167 1311,-148 1101,-148"/>
<text text-anchor="middle" x="1206" y="-155" font-family="Helvetica,sans-Serif" font-size="10.00">memoryoracle.instance.Instance.update</text>
</a>
</g>
</g>
<!-- Node4&#45;&gt;Node5 -->
<g id="edge4" class="edge"><title>Node4&#45;&gt;Node5</title>
<path fill="none" stroke="midnightblue" d="M1027.29,-124.883C1050.39,-129.164 1076.9,-134.068 1101,-138.5 1117.79,-141.588 1136.1,-144.94 1152.62,-147.956"/>
<polygon fill="midnightblue" stroke="midnightblue" points="1027.75,-121.408 1017.28,-123.026 1026.47,-128.291 1027.75,-121.408"/>
</g>
<!-- Node6 -->
<g id="node6" class="node"><title>Node6</title>
<g id="a_node6"><a xlink:href="classmemoryoracle_1_1models_1_1Memory.html#a71d4a141abc3358afdf1a1325bfd4253" target="_top" xlink:title="memoryoracle.models.Memory.update">
<polygon fill="none" stroke="black" points="1105,-60 1105,-79 1307,-79 1307,-60 1105,-60"/>
<text text-anchor="middle" x="1206" y="-67" font-family="Helvetica,sans-Serif" font-size="10.00">memoryoracle.models.Memory.update</text>
</a>
</g>
</g>
<!-- Node4&#45;&gt;Node6 -->
<g id="edge5" class="edge"><title>Node4&#45;&gt;Node6</title>
<path fill="none" stroke="midnightblue" d="M1027.29,-102.117C1050.39,-97.8357 1076.9,-92.9323 1101,-88.5 1117.79,-85.412 1136.1,-82.0602 1152.62,-79.0437"/>
<polygon fill="midnightblue" stroke="midnightblue" points="1026.47,-98.7094 1017.28,-103.974 1027.75,-105.592 1026.47,-98.7094"/>
</g>
<!-- Node7 -->
<g id="node7" class="node"><title>Node7</title>
<g id="a_node7"><a xlink:href="classmemoryoracle_1_1models_1_1Memory.html#aed3af349dd80317ae9cca4b4e9cb7c26" target="_top" xlink:title="memoryoracle.models.Memory.\l__init__">
<polygon fill="none" stroke="black" points="1122,-98.5 1122,-128.5 1290,-128.5 1290,-98.5 1122,-98.5"/>
<text text-anchor="start" x="1130" y="-116.5" font-family="Helvetica,sans-Serif" font-size="10.00">memoryoracle.models.Memory.</text>
<text text-anchor="middle" x="1206" y="-105.5" font-family="Helvetica,sans-Serif" font-size="10.00">__init__</text>
</a>
</g>
</g>
<!-- Node4&#45;&gt;Node7 -->
<g id="edge6" class="edge"><title>Node4&#45;&gt;Node7</title>
<path fill="none" stroke="midnightblue" d="M1075.5,-113.5C1091.12,-113.5 1106.96,-113.5 1121.96,-113.5"/>
<polygon fill="midnightblue" stroke="midnightblue" points="1075.28,-110 1065.28,-113.5 1075.28,-117 1075.28,-110"/>
</g>
<!-- Node8&#45;&gt;Node6 -->
<g id="edge8" class="edge"><title>Node8&#45;&gt;Node6</title>
<path fill="none" stroke="midnightblue" d="M1071.28,-72.8569C1082.38,-72.5782 1093.65,-72.2953 1104.69,-72.0181"/>
<polygon fill="midnightblue" stroke="midnightblue" points="1071.05,-69.3614 1061.15,-73.1114 1071.23,-76.3592 1071.05,-69.3614"/>
</g>
<!-- Node8&#45;&gt;Node7 -->
<g id="edge9" class="edge"><title>Node8&#45;&gt;Node7</title>
<path fill="none" stroke="midnightblue" d="M1036.1,-86.6452C1063,-90.9218 1093.95,-95.8429 1121.95,-100.295"/>
<polygon fill="midnightblue" stroke="midnightblue" points="1036.43,-83.1537 1026,-85.04 1035.33,-90.0669 1036.43,-83.1537"/>
</g>
<!-- Node9&#45;&gt;Node4 -->
<g id="edge11" class="edge"><title>Node9&#45;&gt;Node4</title>
<path fill="none" stroke="midnightblue" d="M835.397,-102.518C845.162,-103.352 855.109,-104.201 864.928,-105.04"/>
<polygon fill="midnightblue" stroke="midnightblue" points="835.562,-99.0196 825.301,-101.656 834.967,-105.994 835.562,-99.0196"/>
</g>
<!-- Node9&#45;&gt;Node8 -->
<g id="edge12" class="edge"><title>Node9&#45;&gt;Node8</title>
<path fill="none" stroke="midnightblue" d="M835.353,-86.4856C846.385,-85.5436 857.65,-84.5816 868.701,-83.6379"/>
<polygon fill="midnightblue" stroke="midnightblue" points="834.967,-83.0058 825.301,-87.344 835.562,-89.9804 834.967,-83.0058"/>
</g>
<!-- Node10&#45;&gt;Node11 -->
<g id="edge14" class="edge"><title>Node10&#45;&gt;Node11</title>
<path fill="none" stroke="midnightblue" d="M626.25,-28.2099C639.549,-30.2404 653.225,-32.3282 666.27,-34.3198"/>
<polygon fill="midnightblue" stroke="midnightblue" points="626.583,-24.7203 616.169,-26.6709 625.527,-31.6401 626.583,-24.7203"/>
</g>
<!-- Node11&#45;&gt;Node4 -->
<g id="edge15" class="edge"><title>Node11&#45;&gt;Node4</title>
<path fill="none" stroke="midnightblue" d="M816.168,-64.0984C820.566,-65.7725 824.875,-67.5715 829,-69.5 846.646,-77.7503 847.045,-86.9448 865,-94.5 874.275,-98.403 884.379,-101.511 894.47,-103.985"/>
<polygon fill="midnightblue" stroke="midnightblue" points="817.025,-60.6886 806.431,-60.6311 814.677,-67.283 817.025,-60.6886"/>
</g>
<!-- Node11&#45;&gt;Node8 -->
<g id="edge16" class="edge"><title>Node11&#45;&gt;Node8</title>
<path fill="none" stroke="midnightblue" d="M824.595,-56.7039C847.245,-59.7578 871.561,-63.0364 893.442,-65.9866"/>
<polygon fill="midnightblue" stroke="midnightblue" points="825.041,-53.2324 814.663,-55.3647 824.106,-60.1696 825.041,-53.2324"/>
</g>
</g>
</svg>
