<?xml version="1.0" encoding="UTF-8" standalone="no"?>
<!DOCTYPE svg PUBLIC "-//W3C//DTD SVG 1.1//EN"
 "http://www.w3.org/Graphics/SVG/1.1/DTD/svg11.dtd">
<!-- Generated by graphviz version 2.38.0 (20140413.2041)
 -->
<!-- Title: memoryoracle.instance.Instance._clear_updated Pages: 1 -->
<svg width="647pt" height="83pt"
 viewBox="0.00 0.00 647.00 83.00" xmlns="http://www.w3.org/2000/svg" xmlns:xlink="http://www.w3.org/1999/xlink">
<g id="graph0" class="graph" transform="scale(1 1) rotate(0) translate(4 79)">
<title>memoryoracle.instance.Instance._clear_updated</title>
<!-- Node1 -->
<g id="node1" class="node"><title>Node1</title>
<polygon fill="#bfbfbf" stroke="black" points="0,-22.5 0,-52.5 176,-52.5 176,-22.5 0,-22.5"/>
<text text-anchor="start" x="8" y="-40.5" font-family="Helvetica,sans-Serif" font-size="10.00">memoryoracle.instance.Instance.</text>
<text text-anchor="middle" x="88" y="-29.5" font-family="Helvetica,sans-Serif" font-size="10.00">_clear_updated</text>
</g>
<!-- Node2 -->
<g id="node2" class="node"><title>Node2</title>
<g id="a_node2"><a xlink:href="classmemoryoracle_1_1instance_1_1Instance.html#a89a31e14446908e7ea052f8f842606b7" target="_top" xlink:title="memoryoracle.instance.Instance.address">
<polygon fill="none" stroke="black" points="212,-50 212,-69 427,-69 427,-50 212,-50"/>
<text text-anchor="middle" x="319.5" y="-57" font-family="Helvetica,sans-Serif" font-size="10.00">memoryoracle.instance.Instance.address</text>
</a>
</g>
</g>
<!-- Node1&#45;&gt;Node2 -->
<g id="edge1" class="edge"><title>Node1&#45;&gt;Node2</title>
<path fill="none" stroke="midnightblue" d="M176.091,-45.8486C186.868,-46.8817 197.99,-47.9479 209.047,-49.0078"/>
<polygon fill="midnightblue" stroke="midnightblue" points="208.882,-52.508 219.171,-49.9782 209.55,-45.5399 208.882,-52.508"/>
</g>
<!-- Node4 -->
<g id="node4" class="node"><title>Node4</title>
<g id="a_node4"><a xlink:href="classmemoryoracle_1_1descriptions_1_1AddressableDescription.html#a3977bdc75bbd263aa2de64b76c7fd4e0" target="_top" xlink:title="memoryoracle.descriptions.\lAddressableDescription.address">
<polygon fill="none" stroke="black" points="234,-0.5 234,-30.5 405,-30.5 405,-0.5 234,-0.5"/>
<text text-anchor="start" x="242" y="-18.5" font-family="Helvetica,sans-Serif" font-size="10.00">memoryoracle.descriptions.</text>
<text text-anchor="middle" x="319.5" y="-7.5" font-family="Helvetica,sans-Serif" font-size="10.00">AddressableDescription.address</text>
</a>
</g>
</g>
<!-- Node1&#45;&gt;Node4 -->
<g id="edge3" class="edge"><title>Node1&#45;&gt;Node4</title>
<path fill="none" stroke="midnightblue" d="M176.091,-29.1514C191.59,-27.6656 207.805,-26.1113 223.51,-24.6058"/>
<polygon fill="midnightblue" stroke="midnightblue" points="224.125,-28.063 233.745,-23.6247 223.457,-21.095 224.125,-28.063"/>
</g>
<!-- Node3 -->
<g id="node3" class="node"><title>Node3</title>
<g id="a_node3"><a xlink:href="classmemoryoracle_1_1instance_1_1Instance.html#a6136f99839061049b5942e655d1d97fb" target="_top" xlink:title="memoryoracle.instance.Instance.\l_compute_address">
<polygon fill="none" stroke="black" points="463,-44.5 463,-74.5 639,-74.5 639,-44.5 463,-44.5"/>
<text text-anchor="start" x="471" y="-62.5" font-family="Helvetica,sans-Serif" font-size="10.00">memoryoracle.instance.Instance.</text>
<text text-anchor="middle" x="551" y="-51.5" font-family="Helvetica,sans-Serif" font-size="10.00">_compute_address</text>
</a>
</g>
</g>
<!-- Node2&#45;&gt;Node3 -->
<g id="edge2" class="edge"><title>Node2&#45;&gt;Node3</title>
<path fill="none" stroke="midnightblue" d="M427.188,-59.5C435.676,-59.5 444.223,-59.5 452.643,-59.5"/>
<polygon fill="midnightblue" stroke="midnightblue" points="452.837,-63.0001 462.837,-59.5 452.837,-56.0001 452.837,-63.0001"/>
</g>
</g>
</svg>
