<?xml version="1.0" encoding="UTF-8" standalone="no"?>
<!DOCTYPE svg PUBLIC "-//W3C//DTD SVG 1.1//EN"
 "http://www.w3.org/Graphics/SVG/1.1/DTD/svg11.dtd">
<!-- Generated by graphviz version 2.38.0 (20140413.2041)
 -->
<!-- Title: memoryoracle.whip.Coffee Pages: 1 -->
<svg width="400pt" height="309pt"
 viewBox="0.00 0.00 400.00 309.00" xmlns="http://www.w3.org/2000/svg" xmlns:xlink="http://www.w3.org/1999/xlink">
<g id="graph0" class="graph" transform="scale(1 1) rotate(0) translate(4 305)">
<title>memoryoracle.whip.Coffee</title>
<!-- Node1 -->
<g id="node1" class="node"><title>Node1</title>
<polygon fill="#bfbfbf" stroke="black" points="125,-127.5 125,-206.5 269,-206.5 269,-127.5 125,-127.5"/>
<text text-anchor="middle" x="197" y="-194.5" font-family="Helvetica,sans-Serif" font-size="10.00">memoryoracle.whip.Coffee</text>
<polyline fill="none" stroke="black" points="125,-187.5 269,-187.5 "/>
<text text-anchor="middle" x="197" y="-175.5" font-family="Helvetica,sans-Serif" font-size="10.00"> </text>
<polyline fill="none" stroke="black" points="125,-168.5 269,-168.5 "/>
<text text-anchor="start" x="133" y="-156.5" font-family="Helvetica,sans-Serif" font-size="10.00">+ __init__()</text>
<text text-anchor="start" x="133" y="-145.5" font-family="Helvetica,sans-Serif" font-size="10.00">+ cost()</text>
<text text-anchor="start" x="133" y="-134.5" font-family="Helvetica,sans-Serif" font-size="10.00">+ name()</text>
</g>
<!-- Node3 -->
<g id="node3" class="node"><title>Node3</title>
<g id="a_node3"><a xlink:href="classmemoryoracle_1_1whip_1_1SugarDecorator.html" target="_top" xlink:title="{memoryoracle.whip.SugarDecorator\n|+ coffee\l&#45; _additionalCost\l|+ __init__()\l+ cost()\l+ name()\l}">
<polygon fill="none" stroke="black" points="0,-0.5 0,-90.5 190,-90.5 190,-0.5 0,-0.5"/>
<text text-anchor="middle" x="95" y="-78.5" font-family="Helvetica,sans-Serif" font-size="10.00">memoryoracle.whip.SugarDecorator</text>
<polyline fill="none" stroke="black" points="0,-71.5 190,-71.5 "/>
<text text-anchor="start" x="8" y="-59.5" font-family="Helvetica,sans-Serif" font-size="10.00">+ coffee</text>
<text text-anchor="start" x="8" y="-48.5" font-family="Helvetica,sans-Serif" font-size="10.00">&#45; _additionalCost</text>
<polyline fill="none" stroke="black" points="0,-41.5 190,-41.5 "/>
<text text-anchor="start" x="8" y="-29.5" font-family="Helvetica,sans-Serif" font-size="10.00">+ __init__()</text>
<text text-anchor="start" x="8" y="-18.5" font-family="Helvetica,sans-Serif" font-size="10.00">+ cost()</text>
<text text-anchor="start" x="8" y="-7.5" font-family="Helvetica,sans-Serif" font-size="10.00">+ name()</text>
</a>
</g>
</g>
<!-- Node1&#45;&gt;Node3 -->
<g id="edge2" class="edge"><title>Node1&#45;&gt;Node3</title>
<path fill="none" stroke="midnightblue" d="M157.265,-119.448C149.254,-110.063 140.853,-100.221 132.907,-90.9111"/>
<polygon fill="none" stroke="midnightblue" points="154.729,-121.868 163.884,-127.202 160.053,-117.323 154.729,-121.868"/>
</g>
<!-- Node4 -->
<g id="node4" class="node"><title>Node4</title>
<g id="a_node4"><a xlink:href="classmemoryoracle_1_1whip_1_1WhipDecorator.html" target="_top" xlink:title="{memoryoracle.whip.WhipDecorator\n|+ coffee\l&#45; _additionalCost\l|+ __init__()\l+ cost()\l+ name()\l}">
<polygon fill="none" stroke="black" points="208,-0.5 208,-90.5 392,-90.5 392,-0.5 208,-0.5"/>
<text text-anchor="middle" x="300" y="-78.5" font-family="Helvetica,sans-Serif" font-size="10.00">memoryoracle.whip.WhipDecorator</text>
<polyline fill="none" stroke="black" points="208,-71.5 392,-71.5 "/>
<text text-anchor="start" x="216" y="-59.5" font-family="Helvetica,sans-Serif" font-size="10.00">+ coffee</text>
<text text-anchor="start" x="216" y="-48.5" font-family="Helvetica,sans-Serif" font-size="10.00">&#45; _additionalCost</text>
<polyline fill="none" stroke="black" points="208,-41.5 392,-41.5 "/>
<text text-anchor="start" x="216" y="-29.5" font-family="Helvetica,sans-Serif" font-size="10.00">+ __init__()</text>
<text text-anchor="start" x="216" y="-18.5" font-family="Helvetica,sans-Serif" font-size="10.00">+ cost()</text>
<text text-anchor="start" x="216" y="-7.5" font-family="Helvetica,sans-Serif" font-size="10.00">+ name()</text>
</a>
</g>
</g>
<!-- Node1&#45;&gt;Node4 -->
<g id="edge3" class="edge"><title>Node1&#45;&gt;Node4</title>
<path fill="none" stroke="midnightblue" d="M237.125,-119.448C245.214,-110.063 253.697,-100.221 261.721,-90.9111"/>
<polygon fill="none" stroke="midnightblue" points="234.319,-117.342 230.441,-127.202 239.621,-121.912 234.319,-117.342"/>
</g>
<!-- Node2 -->
<g id="node2" class="node"><title>Node2</title>
<polygon fill="none" stroke="#bfbfbf" points="174,-243.5 174,-300.5 220,-300.5 220,-243.5 174,-243.5"/>
<text text-anchor="middle" x="197" y="-288.5" font-family="Helvetica,sans-Serif" font-size="10.00">object</text>
<polyline fill="none" stroke="#bfbfbf" points="174,-281.5 220,-281.5 "/>
<text text-anchor="middle" x="197" y="-269.5" font-family="Helvetica,sans-Serif" font-size="10.00"> </text>
<polyline fill="none" stroke="#bfbfbf" points="174,-262.5 220,-262.5 "/>
<text text-anchor="middle" x="197" y="-250.5" font-family="Helvetica,sans-Serif" font-size="10.00"> </text>
</g>
<!-- Node2&#45;&gt;Node1 -->
<g id="edge1" class="edge"><title>Node2&#45;&gt;Node1</title>
<path fill="none" stroke="midnightblue" d="M197,-233.156C197,-224.473 197,-215.232 197,-206.52"/>
<polygon fill="none" stroke="midnightblue" points="193.5,-233.398 197,-243.398 200.5,-233.398 193.5,-233.398"/>
</g>
</g>
</svg>
