<?xml version="1.0" encoding="UTF-8" standalone="no"?>
<!DOCTYPE svg PUBLIC "-//W3C//DTD SVG 1.1//EN"
 "http://www.w3.org/Graphics/SVG/1.1/DTD/svg11.dtd">
<!-- Generated by graphviz version 2.38.0 (20140413.2041)
 -->
<!-- Title: memoryoracle.execution.Executable Pages: 1 -->
<svg width="199pt" height="226pt"
 viewBox="0.00 0.00 199.00 226.00" xmlns="http://www.w3.org/2000/svg" xmlns:xlink="http://www.w3.org/1999/xlink">
<g id="graph0" class="graph" transform="scale(1 1) rotate(0) translate(4 222)">
<title>memoryoracle.execution.Executable</title>
<!-- Node1 -->
<g id="node1" class="node"><title>Node1</title>
<polygon fill="#bfbfbf" stroke="black" points="0,-0.5 0,-123.5 191,-123.5 191,-0.5 0,-0.5"/>
<text text-anchor="middle" x="95.5" y="-111.5" font-family="Helvetica,sans-Serif" font-size="10.00">memoryoracle.execution.Executable</text>
<polyline fill="none" stroke="black" points="0,-104.5 191,-104.5 "/>
<text text-anchor="start" x="8" y="-92.5" font-family="Helvetica,sans-Serif" font-size="10.00">+ name</text>
<text text-anchor="start" x="8" y="-81.5" font-family="Helvetica,sans-Serif" font-size="10.00">+ path</text>
<text text-anchor="start" x="8" y="-70.5" font-family="Helvetica,sans-Serif" font-size="10.00">+ hash_sha256</text>
<text text-anchor="start" x="8" y="-59.5" font-family="Helvetica,sans-Serif" font-size="10.00">+ hash_sha384</text>
<text text-anchor="start" x="8" y="-48.5" font-family="Helvetica,sans-Serif" font-size="10.00">+ hash_sha512</text>
<text text-anchor="start" x="8" y="-37.5" font-family="Helvetica,sans-Serif" font-size="10.00">+ version</text>
<text text-anchor="start" x="8" y="-26.5" font-family="Helvetica,sans-Serif" font-size="10.00">+ executions</text>
<polyline fill="none" stroke="black" points="0,-19.5 191,-19.5 "/>
<text text-anchor="middle" x="95.5" y="-7.5" font-family="Helvetica,sans-Serif" font-size="10.00"> </text>
</g>
<!-- Node2 -->
<g id="node2" class="node"><title>Node2</title>
<polygon fill="none" stroke="#bfbfbf" points="0,-160.5 0,-217.5 191,-217.5 191,-160.5 0,-160.5"/>
<text text-anchor="middle" x="95.5" y="-205.5" font-family="Helvetica,sans-Serif" font-size="10.00">mongoengine::EmbeddedDocument</text>
<polyline fill="none" stroke="#bfbfbf" points="0,-198.5 191,-198.5 "/>
<text text-anchor="middle" x="95.5" y="-186.5" font-family="Helvetica,sans-Serif" font-size="10.00"> </text>
<polyline fill="none" stroke="#bfbfbf" points="0,-179.5 191,-179.5 "/>
<text text-anchor="middle" x="95.5" y="-167.5" font-family="Helvetica,sans-Serif" font-size="10.00"> </text>
</g>
<!-- Node2&#45;&gt;Node1 -->
<g id="edge1" class="edge"><title>Node2&#45;&gt;Node1</title>
<path fill="none" stroke="midnightblue" d="M95.5,-150.099C95.5,-141.739 95.5,-132.68 95.5,-123.672"/>
<polygon fill="none" stroke="midnightblue" points="92.0001,-150.258 95.5,-160.258 99.0001,-150.258 92.0001,-150.258"/>
</g>
</g>
</svg>
