<?xml version="1.0" encoding="UTF-8" standalone="no"?>
<!DOCTYPE svg PUBLIC "-//W3C//DTD SVG 1.1//EN"
 "http://www.w3.org/Graphics/SVG/1.1/DTD/svg11.dtd">
<!-- Generated by graphviz version 2.38.0 (20140413.2041)
 -->
<!-- Title: memoryoracle.descriptions.MemoryDescription.dict Pages: 1 -->
<svg width="361pt" height="235pt"
 viewBox="0.00 0.00 361.00 235.00" xmlns="http://www.w3.org/2000/svg" xmlns:xlink="http://www.w3.org/1999/xlink">
<g id="graph0" class="graph" transform="scale(1 1) rotate(0) translate(4 231)">
<title>memoryoracle.descriptions.MemoryDescription.dict</title>
<!-- Node1 -->
<g id="node1" class="node"><title>Node1</title>
<polygon fill="#bfbfbf" stroke="black" points="0,-98.5 0,-128.5 150,-128.5 150,-98.5 0,-98.5"/>
<text text-anchor="start" x="8" y="-116.5" font-family="Helvetica,sans-Serif" font-size="10.00">memoryoracle.descriptions.</text>
<text text-anchor="middle" x="75" y="-105.5" font-family="Helvetica,sans-Serif" font-size="10.00">MemoryDescription.dict</text>
</g>
<!-- Node2 -->
<g id="node2" class="node"><title>Node2</title>
<g id="a_node2"><a xlink:href="classmemoryoracle_1_1descriptions_1_1MemoryDescription.html#a17ade99360fb76de33af7cfa3181198b" target="_top" xlink:title="memoryoracle.descriptions.\lMemoryDescription.address">
<polygon fill="none" stroke="black" points="194,-196.5 194,-226.5 345,-226.5 345,-196.5 194,-196.5"/>
<text text-anchor="start" x="202" y="-214.5" font-family="Helvetica,sans-Serif" font-size="10.00">memoryoracle.descriptions.</text>
<text text-anchor="middle" x="269.5" y="-203.5" font-family="Helvetica,sans-Serif" font-size="10.00">MemoryDescription.address</text>
</a>
</g>
</g>
<!-- Node1&#45;&gt;Node2 -->
<g id="edge1" class="edge"><title>Node1&#45;&gt;Node2</title>
<path fill="none" stroke="midnightblue" d="M94.3957,-128.504C115.416,-145 151.394,-171.308 186,-187.5 190.14,-189.437 194.47,-191.254 198.887,-192.952"/>
<polygon fill="midnightblue" stroke="midnightblue" points="198.058,-196.374 208.652,-196.481 200.437,-189.791 198.058,-196.374"/>
</g>
<!-- Node3 -->
<g id="node3" class="node"><title>Node3</title>
<g id="a_node3"><a xlink:href="classmemoryoracle_1_1descriptions_1_1MemoryDescription.html#a77ab2795f43cc1b5ccc849f55d79b7be" target="_top" xlink:title="memoryoracle.descriptions.\lMemoryDescription.frame">
<polygon fill="none" stroke="black" points="194.5,-147.5 194.5,-177.5 344.5,-177.5 344.5,-147.5 194.5,-147.5"/>
<text text-anchor="start" x="202.5" y="-165.5" font-family="Helvetica,sans-Serif" font-size="10.00">memoryoracle.descriptions.</text>
<text text-anchor="middle" x="269.5" y="-154.5" font-family="Helvetica,sans-Serif" font-size="10.00">MemoryDescription.frame</text>
</a>
</g>
</g>
<!-- Node1&#45;&gt;Node3 -->
<g id="edge2" class="edge"><title>Node1&#45;&gt;Node3</title>
<path fill="none" stroke="midnightblue" d="M135.065,-128.535C155.482,-133.732 178.538,-139.601 199.67,-144.98"/>
<polygon fill="midnightblue" stroke="midnightblue" points="198.993,-148.419 209.547,-147.494 200.72,-141.635 198.993,-148.419"/>
</g>
<!-- Node4 -->
<g id="node4" class="node"><title>Node4</title>
<g id="a_node4"><a xlink:href="classmemoryoracle_1_1descriptions_1_1Description.html#a4b27c3ae1ef0ab35ec0f990fa553b8b3" target="_top" xlink:title="memoryoracle.descriptions.\lDescription.name">
<polygon fill="none" stroke="black" points="194.5,-98.5 194.5,-128.5 344.5,-128.5 344.5,-98.5 194.5,-98.5"/>
<text text-anchor="start" x="202.5" y="-116.5" font-family="Helvetica,sans-Serif" font-size="10.00">memoryoracle.descriptions.</text>
<text text-anchor="middle" x="269.5" y="-105.5" font-family="Helvetica,sans-Serif" font-size="10.00">Description.name</text>
</a>
</g>
</g>
<!-- Node1&#45;&gt;Node4 -->
<g id="edge3" class="edge"><title>Node1&#45;&gt;Node4</title>
<path fill="none" stroke="midnightblue" d="M150.15,-113.5C161.26,-113.5 172.784,-113.5 184.088,-113.5"/>
<polygon fill="midnightblue" stroke="midnightblue" points="184.388,-117 194.388,-113.5 184.388,-110 184.388,-117"/>
</g>
<!-- Node5 -->
<g id="node5" class="node"><title>Node5</title>
<g id="a_node5"><a xlink:href="classmemoryoracle_1_1descriptions_1_1MemoryDescription.html#a15bf69de6eaa0dad24b464f388bf1bef" target="_top" xlink:title="memoryoracle.descriptions.\lMemoryDescription.parent">
<polygon fill="none" stroke="black" points="194.5,-49.5 194.5,-79.5 344.5,-79.5 344.5,-49.5 194.5,-49.5"/>
<text text-anchor="start" x="202.5" y="-67.5" font-family="Helvetica,sans-Serif" font-size="10.00">memoryoracle.descriptions.</text>
<text text-anchor="middle" x="269.5" y="-56.5" font-family="Helvetica,sans-Serif" font-size="10.00">MemoryDescription.parent</text>
</a>
</g>
</g>
<!-- Node1&#45;&gt;Node5 -->
<g id="edge4" class="edge"><title>Node1&#45;&gt;Node5</title>
<path fill="none" stroke="midnightblue" d="M135.065,-98.4654C155.482,-93.2682 178.538,-87.3994 199.67,-82.0204"/>
<polygon fill="midnightblue" stroke="midnightblue" points="200.72,-85.3649 209.547,-79.5062 198.993,-78.5812 200.72,-85.3649"/>
</g>
<!-- Node6 -->
<g id="node6" class="node"><title>Node6</title>
<g id="a_node6"><a xlink:href="classmemoryoracle_1_1descriptions_1_1MemoryDescription.html#aa67a52a7ce77ac27d2d2e2d7818c9ffc" target="_top" xlink:title="memoryoracle.descriptions.\lMemoryDescription.type_name">
<polygon fill="none" stroke="black" points="186,-0.5 186,-30.5 353,-30.5 353,-0.5 186,-0.5"/>
<text text-anchor="start" x="194" y="-18.5" font-family="Helvetica,sans-Serif" font-size="10.00">memoryoracle.descriptions.</text>
<text text-anchor="middle" x="269.5" y="-7.5" font-family="Helvetica,sans-Serif" font-size="10.00">MemoryDescription.type_name</text>
</a>
</g>
</g>
<!-- Node1&#45;&gt;Node6 -->
<g id="edge5" class="edge"><title>Node1&#45;&gt;Node6</title>
<path fill="none" stroke="midnightblue" d="M94.8466,-98.4924C115.979,-82.2792 151.785,-56.6105 186,-40.5 190.908,-38.1889 196.081,-36.031 201.344,-34.0293"/>
<polygon fill="midnightblue" stroke="midnightblue" points="202.656,-37.2768 210.879,-30.5955 200.285,-30.6908 202.656,-37.2768"/>
</g>
</g>
</svg>
