<?xml version="1.0" encoding="UTF-8" standalone="no"?>
<!DOCTYPE svg PUBLIC "-//W3C//DTD SVG 1.1//EN"
 "http://www.w3.org/Graphics/SVG/1.1/DTD/svg11.dtd">
<!-- Generated by graphviz version 2.38.0 (20140413.2041)
 -->
<!-- Title: memoryoracle.instance.StructureInstance.__init__ Pages: 1 -->
<svg width="418pt" height="78pt"
 viewBox="0.00 0.00 418.00 77.50" xmlns="http://www.w3.org/2000/svg" xmlns:xlink="http://www.w3.org/1999/xlink">
<g id="graph0" class="graph" transform="scale(1 1) rotate(0) translate(4 73.5)">
<title>memoryoracle.instance.StructureInstance.__init__</title>
<!-- Node1 -->
<g id="node1" class="node"><title>Node1</title>
<polygon fill="#bfbfbf" stroke="black" points="0,-17 0,-47 178,-47 178,-17 0,-17"/>
<text text-anchor="start" x="8" y="-35" font-family="Helvetica,sans-Serif" font-size="10.00">memoryoracle.instance.Structure</text>
<text text-anchor="middle" x="89" y="-24" font-family="Helvetica,sans-Serif" font-size="10.00">Instance.__init__</text>
</g>
<!-- Node2 -->
<g id="node2" class="node"><title>Node2</title>
<g id="a_node2"><a xlink:href="classmemoryoracle_1_1descriptions_1_1Description.html#a61b082efab73e7121ad7321bd5d21b84" target="_top" xlink:title="memoryoracle.descriptions.\lDescription._init">
<polygon fill="none" stroke="black" points="237,-39 237,-69 387,-69 387,-39 237,-39"/>
<text text-anchor="start" x="245" y="-57" font-family="Helvetica,sans-Serif" font-size="10.00">memoryoracle.descriptions.</text>
<text text-anchor="middle" x="312" y="-46" font-family="Helvetica,sans-Serif" font-size="10.00">Description._init</text>
</a>
</g>
</g>
<!-- Node1&#45;&gt;Node2 -->
<g id="edge1" class="edge"><title>Node1&#45;&gt;Node2</title>
<path fill="none" stroke="midnightblue" d="M178.298,-40.7898C194.176,-42.3705 210.693,-44.0147 226.462,-45.5845"/>
<polygon fill="midnightblue" stroke="midnightblue" points="226.405,-49.096 236.702,-46.6038 227.098,-42.1304 226.405,-49.096"/>
</g>
<!-- Node3 -->
<g id="node3" class="node"><title>Node3</title>
<g id="a_node3"><a xlink:href="classmemoryoracle_1_1instance_1_1Instance.html#a83d51f791768e20061edf6e1c40297cb" target="_top" xlink:title="memoryoracle.instance.Instance._init">
<polygon fill="none" stroke="black" points="214,-0.5 214,-19.5 410,-19.5 410,-0.5 214,-0.5"/>
<text text-anchor="middle" x="312" y="-7.5" font-family="Helvetica,sans-Serif" font-size="10.00">memoryoracle.instance.Instance._init</text>
</a>
</g>
</g>
<!-- Node1&#45;&gt;Node3 -->
<g id="edge2" class="edge"><title>Node1&#45;&gt;Node3</title>
<path fill="none" stroke="midnightblue" d="M178.298,-23.2102C187.121,-22.3319 196.14,-21.434 205.119,-20.5402"/>
<polygon fill="midnightblue" stroke="midnightblue" points="205.623,-24.0074 215.227,-19.534 204.929,-17.0419 205.623,-24.0074"/>
</g>
</g>
</svg>
