<?xml version="1.0" encoding="UTF-8" standalone="no"?>
<!DOCTYPE svg PUBLIC "-//W3C//DTD SVG 1.1//EN"
 "http://www.w3.org/Graphics/SVG/1.1/DTD/svg11.dtd">
<!-- Generated by graphviz version 2.38.0 (20140413.2041)
 -->
<!-- Title: memoryoracle.instance.Instance.address Pages: 1 -->
<svg width="1156pt" height="391pt"
 viewBox="0.00 0.00 1156.00 391.13" xmlns="http://www.w3.org/2000/svg" xmlns:xlink="http://www.w3.org/1999/xlink">
<g id="graph0" class="graph" transform="scale(1 1) rotate(0) translate(4 387.126)">
<title>memoryoracle.instance.Instance.address</title>
<!-- Node1 -->
<g id="node1" class="node"><title>Node1</title>
<polygon fill="#bfbfbf" stroke="black" points="0,-325 0,-344 215,-344 215,-325 0,-325"/>
<text text-anchor="middle" x="107.5" y="-332" font-family="Helvetica,sans-Serif" font-size="10.00">memoryoracle.instance.Instance.address</text>
</g>
<!-- Node2 -->
<g id="node2" class="node"><title>Node2</title>
<g id="a_node2"><a xlink:href="classmemoryoracle_1_1instance_1_1Instance.html#a8d6cede9602381d2f2163a0545dd9d8c" target="_top" xlink:title="memoryoracle.instance.Instance.\l_clear_updated">
<polygon fill="none" stroke="black" points="714,-322.5 714,-352.5 890,-352.5 890,-322.5 714,-322.5"/>
<text text-anchor="start" x="722" y="-340.5" font-family="Helvetica,sans-Serif" font-size="10.00">memoryoracle.instance.Instance.</text>
<text text-anchor="middle" x="802" y="-329.5" font-family="Helvetica,sans-Serif" font-size="10.00">_clear_updated</text>
</a>
</g>
</g>
<!-- Node1&#45;&gt;Node2 -->
<g id="edge1" class="edge"><title>Node1&#45;&gt;Node2</title>
<path fill="none" stroke="midnightblue" d="M163.78,-345.942C264.189,-365.066 483.067,-399.115 666,-374.5 697.31,-370.287 731.634,-360.812 757.836,-352.505"/>
<polygon fill="midnightblue" stroke="midnightblue" points="164.342,-342.486 153.86,-344.028 163.016,-349.359 164.342,-342.486"/>
</g>
<!-- Node5 -->
<g id="node5" class="node"><title>Node5</title>
<g id="a_node5"><a xlink:href="classmemoryoracle_1_1instance_1_1Instance.html#a67d649391bded2256ff9a72e2a61143f" target="_top" xlink:title="memoryoracle.instance.Instance.index">
<polygon fill="none" stroke="black" points="251,-216 251,-235 453,-235 453,-216 251,-216"/>
<text text-anchor="middle" x="352" y="-223" font-family="Helvetica,sans-Serif" font-size="10.00">memoryoracle.instance.Instance.index</text>
</a>
</g>
</g>
<!-- Node1&#45;&gt;Node5 -->
<g id="edge4" class="edge"><title>Node1&#45;&gt;Node5</title>
<path fill="none" stroke="midnightblue" d="M139.339,-320.638C189.238,-298.21 286.426,-254.525 329.528,-235.151"/>
<polygon fill="midnightblue" stroke="midnightblue" points="137.706,-317.535 130.02,-324.827 140.576,-323.92 137.706,-317.535"/>
</g>
<!-- Node3 -->
<g id="node3" class="node"><title>Node3</title>
<g id="a_node3"><a xlink:href="classmemoryoracle_1_1instance_1_1Instance.html#a286e015a030541a0704994172024f034" target="_top" xlink:title="memoryoracle.instance.Instance.update">
<polygon fill="none" stroke="black" points="938,-316 938,-335 1148,-335 1148,-316 938,-316"/>
<text text-anchor="middle" x="1043" y="-323" font-family="Helvetica,sans-Serif" font-size="10.00">memoryoracle.instance.Instance.update</text>
</a>
</g>
</g>
<!-- Node2&#45;&gt;Node3 -->
<g id="edge2" class="edge"><title>Node2&#45;&gt;Node3</title>
<path fill="none" stroke="midnightblue" d="M900.55,-332.602C912.857,-331.984 925.487,-331.35 937.891,-330.727"/>
<polygon fill="midnightblue" stroke="midnightblue" points="900.111,-329.12 890.299,-333.117 900.462,-336.111 900.111,-329.12"/>
</g>
<!-- Node4 -->
<g id="node4" class="node"><title>Node4</title>
<g id="a_node4"><a xlink:href="classmemoryoracle_1_1models_1_1Memory.html#a71d4a141abc3358afdf1a1325bfd4253" target="_top" xlink:title="memoryoracle.models.Memory.update">
<polygon fill="none" stroke="black" points="942,-254 942,-273 1144,-273 1144,-254 942,-254"/>
<text text-anchor="middle" x="1043" y="-261" font-family="Helvetica,sans-Serif" font-size="10.00">memoryoracle.models.Memory.update</text>
</a>
</g>
</g>
<!-- Node2&#45;&gt;Node4 -->
<g id="edge3" class="edge"><title>Node2&#45;&gt;Node4</title>
<path fill="none" stroke="midnightblue" d="M875.974,-319.86C884.775,-317.501 893.613,-315.021 902,-312.5 942.691,-300.268 989.088,-283.448 1016.93,-273.036"/>
<polygon fill="midnightblue" stroke="midnightblue" points="874.855,-316.535 866.078,-322.469 876.64,-323.304 874.855,-316.535"/>
</g>
<!-- Node6 -->
<g id="node6" class="node"><title>Node6</title>
<g id="a_node6"><a xlink:href="classmemoryoracle_1_1instance_1_1Instance.html#a254a208a64e4c7f32c514e2fb64edbbe" target="_top" xlink:title="memoryoracle.instance.Instance.\l_basic_track">
<polygon fill="none" stroke="black" points="489.5,-235.5 489.5,-265.5 665.5,-265.5 665.5,-235.5 489.5,-235.5"/>
<text text-anchor="start" x="497.5" y="-253.5" font-family="Helvetica,sans-Serif" font-size="10.00">memoryoracle.instance.Instance.</text>
<text text-anchor="middle" x="577.5" y="-242.5" font-family="Helvetica,sans-Serif" font-size="10.00">_basic_track</text>
</a>
</g>
</g>
<!-- Node5&#45;&gt;Node6 -->
<g id="edge5" class="edge"><title>Node5&#45;&gt;Node6</title>
<path fill="none" stroke="midnightblue" d="M448.448,-236.177C462.039,-237.697 475.958,-239.254 489.379,-240.755"/>
<polygon fill="midnightblue" stroke="midnightblue" points="448.46,-232.656 438.133,-235.023 447.682,-239.613 448.46,-232.656"/>
</g>
<!-- Node7 -->
<g id="node7" class="node"><title>Node7</title>
<g id="a_node7"><a xlink:href="classmemoryoracle_1_1instance_1_1Instance.html#a86649e01ee4f562debdba5421a334f78" target="_top" xlink:title="memoryoracle.instance.Instance.track">
<polygon fill="none" stroke="black" points="702,-235 702,-254 902,-254 902,-235 702,-235"/>
<text text-anchor="middle" x="802" y="-242" font-family="Helvetica,sans-Serif" font-size="10.00">memoryoracle.instance.Instance.track</text>
</a>
</g>
</g>
<!-- Node5&#45;&gt;Node7 -->
<g id="edge13" class="edge"><title>Node5&#45;&gt;Node7</title>
<path fill="none" stroke="midnightblue" d="M369.138,-242.505C392.796,-266.059 439.483,-307.518 489,-323.5 563.864,-347.663 597.544,-362.259 666,-323.5 693.062,-308.178 676.51,-281.315 702,-263.5 707.451,-259.69 713.465,-256.593 719.755,-254.08"/>
<polygon fill="midnightblue" stroke="midnightblue" points="371.532,-239.947 362.027,-235.266 366.538,-244.853 371.532,-239.947"/>
</g>
<!-- Node9 -->
<g id="node9" class="node"><title>Node9</title>
<g id="a_node9"><a xlink:href="classmemoryoracle_1_1models_1_1Memory.html#a27f8d94aeb19f8101c29a673c7bae4a1" target="_top" xlink:title="memoryoracle.models.Memory.track">
<polygon fill="none" stroke="black" points="706,-192 706,-211 898,-211 898,-192 706,-192"/>
<text text-anchor="middle" x="802" y="-199" font-family="Helvetica,sans-Serif" font-size="10.00">memoryoracle.models.Memory.track</text>
</a>
</g>
</g>
<!-- Node5&#45;&gt;Node9 -->
<g id="edge28" class="edge"><title>Node5&#45;&gt;Node9</title>
<path fill="none" stroke="midnightblue" d="M363.043,-207.096C382.333,-173.932 428.111,-105.118 489,-78.5 561.08,-46.9896 592.642,-50.0925 666,-78.5 726.909,-102.086 777.208,-167.359 794.533,-191.956"/>
<polygon fill="midnightblue" stroke="midnightblue" points="359.996,-205.373 358.115,-215.8 366.087,-208.821 359.996,-205.373"/>
</g>
<!-- Node10 -->
<g id="node10" class="node"><title>Node10</title>
<g id="a_node10"><a xlink:href="classmemoryoracle_1_1instance_1_1Array.html#a1d8c3993d8a52bfbec8240d6f79b3ce1" target="_top" xlink:title="memoryoracle.instance.Array.\l_track">
<polygon fill="none" stroke="black" points="497.5,-186.5 497.5,-216.5 657.5,-216.5 657.5,-186.5 497.5,-186.5"/>
<text text-anchor="start" x="505.5" y="-204.5" font-family="Helvetica,sans-Serif" font-size="10.00">memoryoracle.instance.Array.</text>
<text text-anchor="middle" x="577.5" y="-193.5" font-family="Helvetica,sans-Serif" font-size="10.00">_track</text>
</a>
</g>
</g>
<!-- Node5&#45;&gt;Node10 -->
<g id="edge14" class="edge"><title>Node5&#45;&gt;Node10</title>
<path fill="none" stroke="midnightblue" d="M451.647,-214.907C466.945,-213.264 482.575,-211.586 497.369,-209.997"/>
<polygon fill="midnightblue" stroke="midnightblue" points="451.223,-211.432 441.654,-215.98 451.971,-218.392 451.223,-211.432"/>
</g>
<!-- Node11 -->
<g id="node11" class="node"><title>Node11</title>
<g id="a_node11"><a xlink:href="classmemoryoracle_1_1instance_1_1Primitive.html#a68562bda9732e33fe32188597e2f4b91" target="_top" xlink:title="memoryoracle.instance.Primitive.\l_track">
<polygon fill="none" stroke="black" points="489,-137.5 489,-167.5 666,-167.5 666,-137.5 489,-137.5"/>
<text text-anchor="start" x="497" y="-155.5" font-family="Helvetica,sans-Serif" font-size="10.00">memoryoracle.instance.Primitive.</text>
<text text-anchor="middle" x="577.5" y="-144.5" font-family="Helvetica,sans-Serif" font-size="10.00">_track</text>
</a>
</g>
</g>
<!-- Node5&#45;&gt;Node11 -->
<g id="edge17" class="edge"><title>Node5&#45;&gt;Node11</title>
<path fill="none" stroke="midnightblue" d="M387.368,-212.276C414.713,-201.959 454.054,-187.569 489,-176.5 498.611,-173.456 508.885,-170.434 518.89,-167.613"/>
<polygon fill="midnightblue" stroke="midnightblue" points="385.975,-209.06 377.866,-215.879 388.458,-215.606 385.975,-209.06"/>
</g>
<!-- Node12 -->
<g id="node12" class="node"><title>Node12</title>
<g id="a_node12"><a xlink:href="classmemoryoracle_1_1instance_1_1Pointer.html#a2cc9e298adaad8bed089d90186fcde8a" target="_top" xlink:title="memoryoracle.instance.Pointer.\l_track">
<polygon fill="none" stroke="black" points="493,-88.5 493,-118.5 662,-118.5 662,-88.5 493,-88.5"/>
<text text-anchor="start" x="501" y="-106.5" font-family="Helvetica,sans-Serif" font-size="10.00">memoryoracle.instance.Pointer.</text>
<text text-anchor="middle" x="577.5" y="-95.5" font-family="Helvetica,sans-Serif" font-size="10.00">_track</text>
</a>
</g>
</g>
<!-- Node5&#45;&gt;Node12 -->
<g id="edge20" class="edge"><title>Node5&#45;&gt;Node12</title>
<path fill="none" stroke="midnightblue" d="M370.966,-209.279C395.788,-187.671 442.767,-149.609 489,-127.5 496.105,-124.102 503.773,-121.116 511.512,-118.511"/>
<polygon fill="midnightblue" stroke="midnightblue" points="368.612,-206.688 363.43,-215.929 373.244,-211.936 368.612,-206.688"/>
</g>
<!-- Node13 -->
<g id="node13" class="node"><title>Node13</title>
<g id="a_node13"><a xlink:href="classmemoryoracle_1_1instance_1_1Int.html#a38c9424341353f006771163d360594da" target="_top" xlink:title="memoryoracle.instance.Int.\l_track">
<polygon fill="none" stroke="black" points="503.5,-284.5 503.5,-314.5 651.5,-314.5 651.5,-284.5 503.5,-284.5"/>
<text text-anchor="start" x="511.5" y="-302.5" font-family="Helvetica,sans-Serif" font-size="10.00">memoryoracle.instance.Int.</text>
<text text-anchor="middle" x="577.5" y="-291.5" font-family="Helvetica,sans-Serif" font-size="10.00">_track</text>
</a>
</g>
</g>
<!-- Node5&#45;&gt;Node13 -->
<g id="edge23" class="edge"><title>Node5&#45;&gt;Node13</title>
<path fill="none" stroke="midnightblue" d="M387.4,-238.622C414.764,-248.883 454.113,-263.246 489,-274.5 499.525,-277.895 510.836,-281.303 521.717,-284.463"/>
<polygon fill="midnightblue" stroke="midnightblue" points="388.484,-235.29 377.892,-235.041 386.017,-241.841 388.484,-235.29"/>
</g>
<!-- Node14 -->
<g id="node14" class="node"><title>Node14</title>
<g id="a_node14"><a xlink:href="classmemoryoracle_1_1models_1_1Memory.html#a2291f5ce2097dda4e9216313df9e626c" target="_top" xlink:title="memoryoracle.models.Memory.\l_basic_track">
<polygon fill="none" stroke="black" points="493.5,-0.5 493.5,-30.5 661.5,-30.5 661.5,-0.5 493.5,-0.5"/>
<text text-anchor="start" x="501.5" y="-18.5" font-family="Helvetica,sans-Serif" font-size="10.00">memoryoracle.models.Memory.</text>
<text text-anchor="middle" x="577.5" y="-7.5" font-family="Helvetica,sans-Serif" font-size="10.00">_basic_track</text>
</a>
</g>
</g>
<!-- Node5&#45;&gt;Node14 -->
<g id="edge26" class="edge"><title>Node5&#45;&gt;Node14</title>
<path fill="none" stroke="midnightblue" d="M362.304,-206.662C381.199,-170.284 427.539,-90.0322 489,-45.5 497.323,-39.4696 506.953,-34.5795 516.716,-30.6363"/>
<polygon fill="midnightblue" stroke="midnightblue" points="359.125,-205.193 357.713,-215.693 365.365,-208.365 359.125,-205.193"/>
</g>
<!-- Node15 -->
<g id="node15" class="node"><title>Node15</title>
<g id="a_node15"><a xlink:href="classmemoryoracle_1_1models_1_1Memory.html#a253756ba0ddd58fc05a9463c0a181185" target="_top" xlink:title="memoryoracle.models.Memory.\l_clear_updated">
<polygon fill="none" stroke="black" points="718,-273.5 718,-303.5 886,-303.5 886,-273.5 718,-273.5"/>
<text text-anchor="start" x="726" y="-291.5" font-family="Helvetica,sans-Serif" font-size="10.00">memoryoracle.models.Memory.</text>
<text text-anchor="middle" x="802" y="-280.5" font-family="Helvetica,sans-Serif" font-size="10.00">_clear_updated</text>
</a>
</g>
</g>
<!-- Node5&#45;&gt;Node15 -->
<g id="edge29" class="edge"><title>Node5&#45;&gt;Node15</title>
<path fill="none" stroke="midnightblue" d="M365.555,-243.482C386.959,-272.37 433.618,-328.042 489,-349.5 562.353,-377.921 593.529,-380.101 666,-349.5 687.137,-340.575 682.071,-323.87 702,-312.5 708.068,-309.038 714.62,-306.073 721.362,-303.534"/>
<polygon fill="midnightblue" stroke="midnightblue" points="368.207,-241.177 359.514,-235.122 362.534,-245.277 368.207,-241.177"/>
</g>
<!-- Node6&#45;&gt;Node7 -->
<g id="edge6" class="edge"><title>Node6&#45;&gt;Node7</title>
<path fill="none" stroke="midnightblue" d="M675.841,-247.875C684.449,-247.643 693.171,-247.408 701.795,-247.175"/>
<polygon fill="midnightblue" stroke="midnightblue" points="675.701,-244.377 665.799,-248.146 675.89,-251.375 675.701,-244.377"/>
</g>
<!-- Node6&#45;&gt;Node9 -->
<g id="edge10" class="edge"><title>Node6&#45;&gt;Node9</title>
<path fill="none" stroke="midnightblue" d="M656.673,-233.284C690.607,-225.811 729.059,-217.343 757.735,-211.028"/>
<polygon fill="midnightblue" stroke="midnightblue" points="655.783,-229.897 646.769,-235.465 657.288,-236.733 655.783,-229.897"/>
</g>
<!-- Node7&#45;&gt;Node3 -->
<g id="edge7" class="edge"><title>Node7&#45;&gt;Node3</title>
<path fill="none" stroke="midnightblue" d="M877.464,-256.309C885.837,-258.367 894.167,-260.75 902,-263.5 919.07,-269.493 921.623,-274.813 938,-282.5 964.53,-294.952 995.676,-307.575 1016.92,-315.893"/>
<polygon fill="midnightblue" stroke="midnightblue" points="878.173,-252.881 867.642,-254.04 876.597,-259.701 878.173,-252.881"/>
</g>
<!-- Node7&#45;&gt;Node4 -->
<g id="edge8" class="edge"><title>Node7&#45;&gt;Node4</title>
<path fill="none" stroke="midnightblue" d="M912.454,-253.201C922.259,-253.981 932.154,-254.767 941.873,-255.54"/>
<polygon fill="midnightblue" stroke="midnightblue" points="912.527,-249.696 902.281,-252.393 911.972,-256.674 912.527,-249.696"/>
</g>
<!-- Node8 -->
<g id="node8" class="node"><title>Node8</title>
<g id="a_node8"><a xlink:href="classmemoryoracle_1_1models_1_1Memory.html#aed3af349dd80317ae9cca4b4e9cb7c26" target="_top" xlink:title="memoryoracle.models.Memory.\l__init__">
<polygon fill="none" stroke="black" points="959,-192.5 959,-222.5 1127,-222.5 1127,-192.5 959,-192.5"/>
<text text-anchor="start" x="967" y="-210.5" font-family="Helvetica,sans-Serif" font-size="10.00">memoryoracle.models.Memory.</text>
<text text-anchor="middle" x="1043" y="-199.5" font-family="Helvetica,sans-Serif" font-size="10.00">__init__</text>
</a>
</g>
</g>
<!-- Node7&#45;&gt;Node8 -->
<g id="edge9" class="edge"><title>Node7&#45;&gt;Node8</title>
<path fill="none" stroke="midnightblue" d="M874.49,-233.433C900.946,-229.337 931.167,-224.658 958.59,-220.413"/>
<polygon fill="midnightblue" stroke="midnightblue" points="873.895,-229.983 864.548,-234.972 874.966,-236.9 873.895,-229.983"/>
</g>
<!-- Node9&#45;&gt;Node4 -->
<g id="edge11" class="edge"><title>Node9&#45;&gt;Node4</title>
<path fill="none" stroke="midnightblue" d="M853.493,-213.46C869.07,-217.225 886.263,-221.457 902,-225.5 938.224,-234.805 979.531,-246.101 1007.84,-253.948"/>
<polygon fill="midnightblue" stroke="midnightblue" points="854.064,-209.998 843.522,-211.06 852.426,-216.803 854.064,-209.998"/>
</g>
<!-- Node9&#45;&gt;Node8 -->
<g id="edge12" class="edge"><title>Node9&#45;&gt;Node8</title>
<path fill="none" stroke="midnightblue" d="M908.555,-204.15C925.37,-204.572 942.558,-205.004 958.763,-205.41"/>
<polygon fill="midnightblue" stroke="midnightblue" points="908.231,-200.641 898.146,-203.889 908.055,-207.639 908.231,-200.641"/>
</g>
<!-- Node10&#45;&gt;Node7 -->
<g id="edge15" class="edge"><title>Node10&#45;&gt;Node7</title>
<path fill="none" stroke="midnightblue" d="M666.471,-218.501C695.47,-224.105 726.677,-230.137 751.728,-234.978"/>
<polygon fill="midnightblue" stroke="midnightblue" points="666.802,-215 656.32,-216.539 665.474,-221.873 666.802,-215"/>
</g>
<!-- Node10&#45;&gt;Node9 -->
<g id="edge16" class="edge"><title>Node10&#45;&gt;Node9</title>
<path fill="none" stroke="midnightblue" d="M667.936,-201.5C680.399,-201.5 693.242,-201.5 705.805,-201.5"/>
<polygon fill="midnightblue" stroke="midnightblue" points="667.572,-198 657.572,-201.5 667.572,-205 667.572,-198"/>
</g>
<!-- Node11&#45;&gt;Node7 -->
<g id="edge18" class="edge"><title>Node11&#45;&gt;Node7</title>
<path fill="none" stroke="midnightblue" d="M658.28,-171.985C660.941,-173.388 663.524,-174.89 666,-176.5 687.185,-190.27 680.612,-207.047 702,-220.5 712.105,-226.856 723.764,-231.528 735.455,-234.964"/>
<polygon fill="midnightblue" stroke="midnightblue" points="659.513,-168.697 648.976,-167.591 656.524,-175.027 659.513,-168.697"/>
</g>
<!-- Node11&#45;&gt;Node9 -->
<g id="edge19" class="edge"><title>Node11&#45;&gt;Node9</title>
<path fill="none" stroke="midnightblue" d="M656.673,-169.716C690.607,-177.189 729.059,-185.657 757.735,-191.972"/>
<polygon fill="midnightblue" stroke="midnightblue" points="657.288,-166.267 646.769,-167.535 655.783,-173.103 657.288,-166.267"/>
</g>
<!-- Node12&#45;&gt;Node7 -->
<g id="edge21" class="edge"><title>Node12&#45;&gt;Node7</title>
<path fill="none" stroke="midnightblue" d="M662.372,-124.468C663.62,-125.434 664.831,-126.444 666,-127.5 698.892,-157.208 668.668,-191.286 702,-220.5 709.116,-226.736 717.581,-231.414 726.521,-234.913"/>
<polygon fill="midnightblue" stroke="midnightblue" points="663.922,-121.298 653.648,-118.708 660.065,-127.139 663.922,-121.298"/>
</g>
<!-- Node12&#45;&gt;Node9 -->
<g id="edge22" class="edge"><title>Node12&#45;&gt;Node9</title>
<path fill="none" stroke="midnightblue" d="M650.405,-121.751C655.732,-123.55 660.981,-125.469 666,-127.5 711.835,-146.05 761.925,-176.435 786.184,-191.862"/>
<polygon fill="midnightblue" stroke="midnightblue" points="651.358,-118.381 640.767,-118.642 649.209,-125.043 651.358,-118.381"/>
</g>
<!-- Node13&#45;&gt;Node7 -->
<g id="edge24" class="edge"><title>Node13&#45;&gt;Node7</title>
<path fill="none" stroke="midnightblue" d="M641.406,-281.676C649.684,-279.287 658.051,-276.85 666,-274.5 682.044,-269.757 685.762,-267.527 702,-263.5 716.099,-260.004 731.462,-256.777 745.788,-254.013"/>
<polygon fill="midnightblue" stroke="midnightblue" points="640.401,-278.323 631.758,-284.451 642.336,-285.05 640.401,-278.323"/>
</g>
<!-- Node13&#45;&gt;Node9 -->
<g id="edge25" class="edge"><title>Node13&#45;&gt;Node9</title>
<path fill="none" stroke="midnightblue" d="M656.947,-280.036C660.09,-278.341 663.124,-276.5 666,-274.5 688.185,-259.069 679.508,-240.479 702,-225.5 711.568,-219.128 722.66,-214.445 733.884,-211.003"/>
<polygon fill="midnightblue" stroke="midnightblue" points="655.323,-276.934 647.841,-284.435 658.367,-283.237 655.323,-276.934"/>
</g>
<!-- Node14&#45;&gt;Node9 -->
<g id="edge27" class="edge"><title>Node14&#45;&gt;Node9</title>
<path fill="none" stroke="midnightblue" d="M646.152,-34.5846C653.112,-37.7398 659.869,-41.3607 666,-45.5 728.04,-87.3875 778.76,-164.858 795.293,-191.892"/>
<polygon fill="midnightblue" stroke="midnightblue" points="647.151,-31.2081 636.575,-30.5659 644.442,-37.6628 647.151,-31.2081"/>
</g>
<!-- Node15&#45;&gt;Node4 -->
<g id="edge30" class="edge"><title>Node15&#45;&gt;Node4</title>
<path fill="none" stroke="midnightblue" d="M896.401,-278.73C914.315,-276.856 933.05,-274.896 950.89,-273.03"/>
<polygon fill="midnightblue" stroke="midnightblue" points="895.837,-275.27 886.255,-279.791 896.565,-282.232 895.837,-275.27"/>
</g>
</g>
</svg>
