<?xml version="1.0" encoding="UTF-8" standalone="no"?>
<!DOCTYPE svg PUBLIC "-//W3C//DTD SVG 1.1//EN"
 "http://www.w3.org/Graphics/SVG/1.1/DTD/svg11.dtd">
<!-- Generated by graphviz version 2.38.0 (20140413.2041)
 -->
<!-- Title: memoryoracle.templatable.Enum Pages: 1 -->
<svg width="186pt" height="359pt"
 viewBox="0.00 0.00 186.00 359.00" xmlns="http://www.w3.org/2000/svg" xmlns:xlink="http://www.w3.org/1999/xlink">
<g id="graph0" class="graph" transform="scale(1 1) rotate(0) translate(4 355)">
<title>memoryoracle.templatable.Enum</title>
<!-- Node1 -->
<g id="node1" class="node"><title>Node1</title>
<polygon fill="#bfbfbf" stroke="black" points="-1.42109e-14,-0.5 -1.42109e-14,-57.5 178,-57.5 178,-0.5 -1.42109e-14,-0.5"/>
<text text-anchor="middle" x="89" y="-45.5" font-family="Helvetica,sans-Serif" font-size="10.00">memoryoracle.templatable.Enum</text>
<polyline fill="none" stroke="black" points="-1.42109e-14,-38.5 178,-38.5 "/>
<text text-anchor="middle" x="89" y="-26.5" font-family="Helvetica,sans-Serif" font-size="10.00"> </text>
<polyline fill="none" stroke="black" points="-1.42109e-14,-19.5 178,-19.5 "/>
<text text-anchor="middle" x="89" y="-7.5" font-family="Helvetica,sans-Serif" font-size="10.00"> </text>
</g>
<!-- Node2 -->
<g id="node2" class="node"><title>Node2</title>
<g id="a_node2"><a xlink:href="classmemoryoracle_1_1templatable_1_1Type.html" target="_top" xlink:title="{memoryoracle.templatable.Type\n||}">
<polygon fill="none" stroke="black" points="3.5,-94.5 3.5,-151.5 174.5,-151.5 174.5,-94.5 3.5,-94.5"/>
<text text-anchor="middle" x="89" y="-139.5" font-family="Helvetica,sans-Serif" font-size="10.00">memoryoracle.templatable.Type</text>
<polyline fill="none" stroke="black" points="3.5,-132.5 174.5,-132.5 "/>
<text text-anchor="middle" x="89" y="-120.5" font-family="Helvetica,sans-Serif" font-size="10.00"> </text>
<polyline fill="none" stroke="black" points="3.5,-113.5 174.5,-113.5 "/>
<text text-anchor="middle" x="89" y="-101.5" font-family="Helvetica,sans-Serif" font-size="10.00"> </text>
</a>
</g>
</g>
<!-- Node2&#45;&gt;Node1 -->
<g id="edge1" class="edge"><title>Node2&#45;&gt;Node1</title>
<path fill="none" stroke="midnightblue" d="M89,-84.2092C89,-75.2929 89,-65.9513 89,-57.5836"/>
<polygon fill="none" stroke="midnightblue" points="85.5001,-84.3969 89,-94.397 92.5001,-84.397 85.5001,-84.3969"/>
</g>
<!-- Node3 -->
<g id="node3" class="node"><title>Node3</title>
<g id="a_node3"><a xlink:href="classmemoryoracle_1_1templatable_1_1Templatable.html" target="_top" xlink:title="{memoryoracle.templatable.\lTemplatable\n||}">
<polygon fill="none" stroke="black" points="14,-188.5 14,-256.5 164,-256.5 164,-188.5 14,-188.5"/>
<text text-anchor="start" x="22" y="-244.5" font-family="Helvetica,sans-Serif" font-size="10.00">memoryoracle.templatable.</text>
<text text-anchor="middle" x="89" y="-233.5" font-family="Helvetica,sans-Serif" font-size="10.00">Templatable</text>
<polyline fill="none" stroke="black" points="14,-226.5 164,-226.5 "/>
<text text-anchor="middle" x="89" y="-214.5" font-family="Helvetica,sans-Serif" font-size="10.00"> </text>
<polyline fill="none" stroke="black" points="14,-207.5 164,-207.5 "/>
<text text-anchor="middle" x="89" y="-195.5" font-family="Helvetica,sans-Serif" font-size="10.00"> </text>
</a>
</g>
</g>
<!-- Node3&#45;&gt;Node2 -->
<g id="edge2" class="edge"><title>Node3&#45;&gt;Node2</title>
<path fill="none" stroke="midnightblue" d="M89,-178.454C89,-169.404 89,-160.088 89,-151.777"/>
<polygon fill="none" stroke="midnightblue" points="85.5001,-178.491 89,-188.491 92.5001,-178.491 85.5001,-178.491"/>
</g>
<!-- Node4 -->
<g id="node4" class="node"><title>Node4</title>
<polygon fill="none" stroke="#bfbfbf" points="41.5,-293.5 41.5,-350.5 136.5,-350.5 136.5,-293.5 41.5,-293.5"/>
<text text-anchor="middle" x="89" y="-338.5" font-family="Helvetica,sans-Serif" font-size="10.00">tracked::Symbol</text>
<polyline fill="none" stroke="#bfbfbf" points="41.5,-331.5 136.5,-331.5 "/>
<text text-anchor="middle" x="89" y="-319.5" font-family="Helvetica,sans-Serif" font-size="10.00"> </text>
<polyline fill="none" stroke="#bfbfbf" points="41.5,-312.5 136.5,-312.5 "/>
<text text-anchor="middle" x="89" y="-300.5" font-family="Helvetica,sans-Serif" font-size="10.00"> </text>
</g>
<!-- Node4&#45;&gt;Node3 -->
<g id="edge3" class="edge"><title>Node4&#45;&gt;Node3</title>
<path fill="none" stroke="midnightblue" d="M89,-283.063C89,-274.393 89,-265.243 89,-256.786"/>
<polygon fill="none" stroke="midnightblue" points="85.5001,-283.321 89,-293.321 92.5001,-283.321 85.5001,-283.321"/>
</g>
</g>
</svg>
