<?xml version="1.0" encoding="UTF-8" standalone="no"?>
<!DOCTYPE svg PUBLIC "-//W3C//DTD SVG 1.1//EN"
 "http://www.w3.org/Graphics/SVG/1.1/DTD/svg11.dtd">
<!-- Generated by graphviz version 2.38.0 (20140413.2041)
 -->
<!-- Title: memoryoracle.typed.LanguageType Pages: 1 -->
<svg width="196pt" height="414pt"
 viewBox="0.00 0.00 196.00 414.00" xmlns="http://www.w3.org/2000/svg" xmlns:xlink="http://www.w3.org/1999/xlink">
<g id="graph0" class="graph" transform="scale(1 1) rotate(0) translate(4 410)">
<title>memoryoracle.typed.LanguageType</title>
<!-- Node1 -->
<g id="node1" class="node"><title>Node1</title>
<polygon fill="#bfbfbf" stroke="black" points="0,-0.5 0,-57.5 188,-57.5 188,-0.5 0,-0.5"/>
<text text-anchor="middle" x="94" y="-45.5" font-family="Helvetica,sans-Serif" font-size="10.00">memoryoracle.typed.LanguageType</text>
<polyline fill="none" stroke="black" points="0,-38.5 188,-38.5 "/>
<text text-anchor="middle" x="94" y="-26.5" font-family="Helvetica,sans-Serif" font-size="10.00"> </text>
<polyline fill="none" stroke="black" points="0,-19.5 188,-19.5 "/>
<text text-anchor="middle" x="94" y="-7.5" font-family="Helvetica,sans-Serif" font-size="10.00"> </text>
</g>
<!-- Node2 -->
<g id="node2" class="node"><title>Node2</title>
<g id="a_node2"><a xlink:href="classmemoryoracle_1_1typed_1_1Typed.html" target="_top" xlink:title="{memoryoracle.typed.Typed\n|+ lookup\l&#45; _type\l&#45; _typeCodeMap\l&#45; _typeHandlerCode\l|+ type()\l+ type_code()\l+ gdb_type()\l+ type_handler()\l}">
<polygon fill="none" stroke="black" points="21,-94.5 21,-217.5 167,-217.5 167,-94.5 21,-94.5"/>
<text text-anchor="middle" x="94" y="-205.5" font-family="Helvetica,sans-Serif" font-size="10.00">memoryoracle.typed.Typed</text>
<polyline fill="none" stroke="black" points="21,-198.5 167,-198.5 "/>
<text text-anchor="start" x="29" y="-186.5" font-family="Helvetica,sans-Serif" font-size="10.00">+ lookup</text>
<text text-anchor="start" x="29" y="-175.5" font-family="Helvetica,sans-Serif" font-size="10.00">&#45; _type</text>
<text text-anchor="start" x="29" y="-164.5" font-family="Helvetica,sans-Serif" font-size="10.00">&#45; _typeCodeMap</text>
<text text-anchor="start" x="29" y="-153.5" font-family="Helvetica,sans-Serif" font-size="10.00">&#45; _typeHandlerCode</text>
<polyline fill="none" stroke="black" points="21,-146.5 167,-146.5 "/>
<text text-anchor="start" x="29" y="-134.5" font-family="Helvetica,sans-Serif" font-size="10.00">+ type()</text>
<text text-anchor="start" x="29" y="-123.5" font-family="Helvetica,sans-Serif" font-size="10.00">+ type_code()</text>
<text text-anchor="start" x="29" y="-112.5" font-family="Helvetica,sans-Serif" font-size="10.00">+ gdb_type()</text>
<text text-anchor="start" x="29" y="-101.5" font-family="Helvetica,sans-Serif" font-size="10.00">+ type_handler()</text>
</a>
</g>
</g>
<!-- Node2&#45;&gt;Node1 -->
<g id="edge1" class="edge"><title>Node2&#45;&gt;Node1</title>
<path fill="none" stroke="midnightblue" d="M94,-84.1384C94,-74.7999 94,-65.715 94,-57.7379"/>
<polygon fill="none" stroke="midnightblue" points="90.5001,-84.3308 94,-94.3308 97.5001,-84.3309 90.5001,-84.3308"/>
</g>
<!-- Node3 -->
<g id="node3" class="node"><title>Node3</title>
<g id="a_node3"><a xlink:href="classmemoryoracle_1_1tracked_1_1Tracked.html" target="_top" xlink:title="{memoryoracle.tracked.Tracked\n||}">
<polygon fill="none" stroke="black" points="12,-254.5 12,-311.5 176,-311.5 176,-254.5 12,-254.5"/>
<text text-anchor="middle" x="94" y="-299.5" font-family="Helvetica,sans-Serif" font-size="10.00">memoryoracle.tracked.Tracked</text>
<polyline fill="none" stroke="black" points="12,-292.5 176,-292.5 "/>
<text text-anchor="middle" x="94" y="-280.5" font-family="Helvetica,sans-Serif" font-size="10.00"> </text>
<polyline fill="none" stroke="black" points="12,-273.5 176,-273.5 "/>
<text text-anchor="middle" x="94" y="-261.5" font-family="Helvetica,sans-Serif" font-size="10.00"> </text>
</a>
</g>
</g>
<!-- Node3&#45;&gt;Node2 -->
<g id="edge2" class="edge"><title>Node3&#45;&gt;Node2</title>
<path fill="none" stroke="midnightblue" d="M94,-244.099C94,-235.739 94,-226.68 94,-217.672"/>
<polygon fill="none" stroke="midnightblue" points="90.5001,-244.258 94,-254.258 97.5001,-244.258 90.5001,-244.258"/>
</g>
<!-- Node4 -->
<g id="node4" class="node"><title>Node4</title>
<polygon fill="none" stroke="#bfbfbf" points="71,-348.5 71,-405.5 117,-405.5 117,-348.5 71,-348.5"/>
<text text-anchor="middle" x="94" y="-393.5" font-family="Helvetica,sans-Serif" font-size="10.00">object</text>
<polyline fill="none" stroke="#bfbfbf" points="71,-386.5 117,-386.5 "/>
<text text-anchor="middle" x="94" y="-374.5" font-family="Helvetica,sans-Serif" font-size="10.00"> </text>
<polyline fill="none" stroke="#bfbfbf" points="71,-367.5 117,-367.5 "/>
<text text-anchor="middle" x="94" y="-355.5" font-family="Helvetica,sans-Serif" font-size="10.00"> </text>
</g>
<!-- Node4&#45;&gt;Node3 -->
<g id="edge3" class="edge"><title>Node4&#45;&gt;Node3</title>
<path fill="none" stroke="midnightblue" d="M94,-338.209C94,-329.293 94,-319.951 94,-311.584"/>
<polygon fill="none" stroke="midnightblue" points="90.5001,-338.397 94,-348.397 97.5001,-338.397 90.5001,-338.397"/>
</g>
</g>
</svg>
