<?xml version="1.0" encoding="UTF-8" standalone="no"?>
<!DOCTYPE svg PUBLIC "-//W3C//DTD SVG 1.1//EN"
 "http://www.w3.org/Graphics/SVG/1.1/DTD/svg11.dtd">
<!-- Generated by graphviz version 2.38.0 (20140413.2041)
 -->
<!-- Title: memoryoracle.tracked.ExternalDecorator Pages: 1 -->
<svg width="175pt" height="265pt"
 viewBox="0.00 0.00 175.00 265.00" xmlns="http://www.w3.org/2000/svg" xmlns:xlink="http://www.w3.org/1999/xlink">
<g id="graph0" class="graph" transform="scale(1 1) rotate(0) translate(4 261)">
<title>memoryoracle.tracked.ExternalDecorator</title>
<!-- Node1 -->
<g id="node1" class="node"><title>Node1</title>
<polygon fill="#bfbfbf" stroke="black" points="-1.42109e-14,-0.5 -1.42109e-14,-68.5 167,-68.5 167,-0.5 -1.42109e-14,-0.5"/>
<text text-anchor="start" x="8" y="-56.5" font-family="Helvetica,sans-Serif" font-size="10.00">memoryoracle.tracked.External</text>
<text text-anchor="middle" x="83.5" y="-45.5" font-family="Helvetica,sans-Serif" font-size="10.00">Decorator</text>
<polyline fill="none" stroke="black" points="-1.42109e-14,-38.5 167,-38.5 "/>
<text text-anchor="start" x="8" y="-26.5" font-family="Helvetica,sans-Serif" font-size="10.00">+ track</text>
<polyline fill="none" stroke="black" points="-1.42109e-14,-19.5 167,-19.5 "/>
<text text-anchor="middle" x="83.5" y="-7.5" font-family="Helvetica,sans-Serif" font-size="10.00"> </text>
</g>
<!-- Node2 -->
<g id="node2" class="node"><title>Node2</title>
<g id="a_node2"><a xlink:href="classmemoryoracle_1_1tracked_1_1Tracked.html" target="_top" xlink:title="{memoryoracle.tracked.Tracked\n|+ execution\l|+ track()\l}">
<polygon fill="none" stroke="black" points="1.5,-105.5 1.5,-162.5 165.5,-162.5 165.5,-105.5 1.5,-105.5"/>
<text text-anchor="middle" x="83.5" y="-150.5" font-family="Helvetica,sans-Serif" font-size="10.00">memoryoracle.tracked.Tracked</text>
<polyline fill="none" stroke="black" points="1.5,-143.5 165.5,-143.5 "/>
<text text-anchor="start" x="9.5" y="-131.5" font-family="Helvetica,sans-Serif" font-size="10.00">+ execution</text>
<polyline fill="none" stroke="black" points="1.5,-124.5 165.5,-124.5 "/>
<text text-anchor="start" x="9.5" y="-112.5" font-family="Helvetica,sans-Serif" font-size="10.00">+ track()</text>
</a>
</g>
</g>
<!-- Node2&#45;&gt;Node1 -->
<g id="edge1" class="edge"><title>Node2&#45;&gt;Node1</title>
<path fill="none" stroke="midnightblue" d="M83.5,-95.0631C83.5,-86.3933 83.5,-77.2431 83.5,-68.7855"/>
<polygon fill="none" stroke="midnightblue" points="80.0001,-95.3212 83.5,-105.321 87.0001,-95.3212 80.0001,-95.3212"/>
</g>
<!-- Node3 -->
<g id="node3" class="node"><title>Node3</title>
<polygon fill="none" stroke="#bfbfbf" points="24,-199.5 24,-256.5 143,-256.5 143,-199.5 24,-199.5"/>
<text text-anchor="middle" x="83.5" y="-244.5" font-family="Helvetica,sans-Serif" font-size="10.00">EmbeddedDocument</text>
<polyline fill="none" stroke="#bfbfbf" points="24,-237.5 143,-237.5 "/>
<text text-anchor="middle" x="83.5" y="-225.5" font-family="Helvetica,sans-Serif" font-size="10.00"> </text>
<polyline fill="none" stroke="#bfbfbf" points="24,-218.5 143,-218.5 "/>
<text text-anchor="middle" x="83.5" y="-206.5" font-family="Helvetica,sans-Serif" font-size="10.00"> </text>
</g>
<!-- Node3&#45;&gt;Node2 -->
<g id="edge2" class="edge"><title>Node3&#45;&gt;Node2</title>
<path fill="none" stroke="midnightblue" d="M83.5,-189.209C83.5,-180.293 83.5,-170.951 83.5,-162.584"/>
<polygon fill="none" stroke="midnightblue" points="80.0001,-189.397 83.5,-199.397 87.0001,-189.397 80.0001,-189.397"/>
</g>
</g>
</svg>
