<?xml version="1.0" encoding="UTF-8" standalone="no"?>
<!DOCTYPE svg PUBLIC "-//W3C//DTD SVG 1.1//EN"
 "http://www.w3.org/Graphics/SVG/1.1/DTD/svg11.dtd">
<!-- Generated by graphviz version 2.38.0 (20140413.2041)
 -->
<!-- Title: memoryoracle.models.SchemaParams Pages: 1 -->
<svg width="175pt" height="182pt"
 viewBox="0.00 0.00 175.00 182.00" xmlns="http://www.w3.org/2000/svg" xmlns:xlink="http://www.w3.org/1999/xlink">
<g id="graph0" class="graph" transform="scale(1 1) rotate(0) translate(4 178)">
<title>memoryoracle.models.SchemaParams</title>
<!-- Node1 -->
<g id="node1" class="node"><title>Node1</title>
<polygon fill="#bfbfbf" stroke="black" points="-1.42109e-14,-0.5 -1.42109e-14,-79.5 167,-79.5 167,-0.5 -1.42109e-14,-0.5"/>
<text text-anchor="start" x="8" y="-67.5" font-family="Helvetica,sans-Serif" font-size="10.00">memoryoracle.models.Schema</text>
<text text-anchor="middle" x="83.5" y="-56.5" font-family="Helvetica,sans-Serif" font-size="10.00">Params</text>
<polyline fill="none" stroke="black" points="-1.42109e-14,-49.5 167,-49.5 "/>
<text text-anchor="middle" x="83.5" y="-37.5" font-family="Helvetica,sans-Serif" font-size="10.00"> </text>
<polyline fill="none" stroke="black" points="-1.42109e-14,-30.5 167,-30.5 "/>
<text text-anchor="start" x="8" y="-18.5" font-family="Helvetica,sans-Serif" font-size="10.00">+ ID_LENGTH()</text>
<text text-anchor="start" x="8" y="-7.5" font-family="Helvetica,sans-Serif" font-size="10.00">+ MAX_NAME_LENGTH()</text>
</g>
<!-- Node2 -->
<g id="node2" class="node"><title>Node2</title>
<polygon fill="none" stroke="#bfbfbf" points="60.5,-116.5 60.5,-173.5 106.5,-173.5 106.5,-116.5 60.5,-116.5"/>
<text text-anchor="middle" x="83.5" y="-161.5" font-family="Helvetica,sans-Serif" font-size="10.00">object</text>
<polyline fill="none" stroke="#bfbfbf" points="60.5,-154.5 106.5,-154.5 "/>
<text text-anchor="middle" x="83.5" y="-142.5" font-family="Helvetica,sans-Serif" font-size="10.00"> </text>
<polyline fill="none" stroke="#bfbfbf" points="60.5,-135.5 106.5,-135.5 "/>
<text text-anchor="middle" x="83.5" y="-123.5" font-family="Helvetica,sans-Serif" font-size="10.00"> </text>
</g>
<!-- Node2&#45;&gt;Node1 -->
<g id="edge1" class="edge"><title>Node2&#45;&gt;Node1</title>
<path fill="none" stroke="midnightblue" d="M83.5,-106.156C83.5,-97.4733 83.5,-88.2318 83.5,-79.5205"/>
<polygon fill="none" stroke="midnightblue" points="80.0001,-106.398 83.5,-116.398 87.0001,-106.398 80.0001,-106.398"/>
</g>
</g>
</svg>
