<?xml version="1.0" encoding="UTF-8" standalone="no"?>
<!DOCTYPE svg PUBLIC "-//W3C//DTD SVG 1.1//EN"
 "http://www.w3.org/Graphics/SVG/1.1/DTD/svg11.dtd">
<!-- Generated by graphviz version 2.38.0 (20140413.2041)
 -->
<!-- Title: memoryoracle.typed.StructureType Pages: 1 -->
<svg width="196pt" height="508pt"
 viewBox="0.00 0.00 196.00 508.00" xmlns="http://www.w3.org/2000/svg" xmlns:xlink="http://www.w3.org/1999/xlink">
<g id="graph0" class="graph" transform="scale(1 1) rotate(0) translate(4 504)">
<title>memoryoracle.typed.StructureType</title>
<!-- Node1 -->
<g id="node1" class="node"><title>Node1</title>
<polygon fill="#bfbfbf" stroke="black" points="1.5,-0.5 1.5,-57.5 186.5,-57.5 186.5,-0.5 1.5,-0.5"/>
<text text-anchor="middle" x="94" y="-45.5" font-family="Helvetica,sans-Serif" font-size="10.00">memoryoracle.typed.StructureType</text>
<polyline fill="none" stroke="black" points="1.5,-38.5 186.5,-38.5 "/>
<text text-anchor="middle" x="94" y="-26.5" font-family="Helvetica,sans-Serif" font-size="10.00"> </text>
<polyline fill="none" stroke="black" points="1.5,-19.5 186.5,-19.5 "/>
<text text-anchor="middle" x="94" y="-7.5" font-family="Helvetica,sans-Serif" font-size="10.00"> </text>
</g>
<!-- Node2 -->
<g id="node2" class="node"><title>Node2</title>
<g id="a_node2"><a xlink:href="classmemoryoracle_1_1typed_1_1LanguageType.html" target="_top" xlink:title="{memoryoracle.typed.LanguageType\n||}">
<polygon fill="none" stroke="black" points="0,-94.5 0,-151.5 188,-151.5 188,-94.5 0,-94.5"/>
<text text-anchor="middle" x="94" y="-139.5" font-family="Helvetica,sans-Serif" font-size="10.00">memoryoracle.typed.LanguageType</text>
<polyline fill="none" stroke="black" points="0,-132.5 188,-132.5 "/>
<text text-anchor="middle" x="94" y="-120.5" font-family="Helvetica,sans-Serif" font-size="10.00"> </text>
<polyline fill="none" stroke="black" points="0,-113.5 188,-113.5 "/>
<text text-anchor="middle" x="94" y="-101.5" font-family="Helvetica,sans-Serif" font-size="10.00"> </text>
</a>
</g>
</g>
<!-- Node2&#45;&gt;Node1 -->
<g id="edge1" class="edge"><title>Node2&#45;&gt;Node1</title>
<path fill="none" stroke="midnightblue" d="M94,-84.2092C94,-75.2929 94,-65.9513 94,-57.5836"/>
<polygon fill="none" stroke="midnightblue" points="90.5001,-84.3969 94,-94.397 97.5001,-84.397 90.5001,-84.3969"/>
</g>
<!-- Node3 -->
<g id="node3" class="node"><title>Node3</title>
<g id="a_node3"><a xlink:href="classmemoryoracle_1_1typed_1_1Typed.html" target="_top" xlink:title="{memoryoracle.typed.Typed\n|+ lookup\l&#45; _type\l&#45; _typeCodeMap\l&#45; _typeHandlerCode\l|+ type()\l+ type_code()\l+ gdb_type()\l+ type_handler()\l}">
<polygon fill="none" stroke="black" points="21,-188.5 21,-311.5 167,-311.5 167,-188.5 21,-188.5"/>
<text text-anchor="middle" x="94" y="-299.5" font-family="Helvetica,sans-Serif" font-size="10.00">memoryoracle.typed.Typed</text>
<polyline fill="none" stroke="black" points="21,-292.5 167,-292.5 "/>
<text text-anchor="start" x="29" y="-280.5" font-family="Helvetica,sans-Serif" font-size="10.00">+ lookup</text>
<text text-anchor="start" x="29" y="-269.5" font-family="Helvetica,sans-Serif" font-size="10.00">&#45; _type</text>
<text text-anchor="start" x="29" y="-258.5" font-family="Helvetica,sans-Serif" font-size="10.00">&#45; _typeCodeMap</text>
<text text-anchor="start" x="29" y="-247.5" font-family="Helvetica,sans-Serif" font-size="10.00">&#45; _typeHandlerCode</text>
<polyline fill="none" stroke="black" points="21,-240.5 167,-240.5 "/>
<text text-anchor="start" x="29" y="-228.5" font-family="Helvetica,sans-Serif" font-size="10.00">+ type()</text>
<text text-anchor="start" x="29" y="-217.5" font-family="Helvetica,sans-Serif" font-size="10.00">+ type_code()</text>
<text text-anchor="start" x="29" y="-206.5" font-family="Helvetica,sans-Serif" font-size="10.00">+ gdb_type()</text>
<text text-anchor="start" x="29" y="-195.5" font-family="Helvetica,sans-Serif" font-size="10.00">+ type_handler()</text>
</a>
</g>
</g>
<!-- Node3&#45;&gt;Node2 -->
<g id="edge2" class="edge"><title>Node3&#45;&gt;Node2</title>
<path fill="none" stroke="midnightblue" d="M94,-178.138C94,-168.8 94,-159.715 94,-151.738"/>
<polygon fill="none" stroke="midnightblue" points="90.5001,-178.331 94,-188.331 97.5001,-178.331 90.5001,-178.331"/>
</g>
<!-- Node4 -->
<g id="node4" class="node"><title>Node4</title>
<g id="a_node4"><a xlink:href="classmemoryoracle_1_1tracked_1_1Tracked.html" target="_top" xlink:title="{memoryoracle.tracked.Tracked\n||}">
<polygon fill="none" stroke="black" points="12,-348.5 12,-405.5 176,-405.5 176,-348.5 12,-348.5"/>
<text text-anchor="middle" x="94" y="-393.5" font-family="Helvetica,sans-Serif" font-size="10.00">memoryoracle.tracked.Tracked</text>
<polyline fill="none" stroke="black" points="12,-386.5 176,-386.5 "/>
<text text-anchor="middle" x="94" y="-374.5" font-family="Helvetica,sans-Serif" font-size="10.00"> </text>
<polyline fill="none" stroke="black" points="12,-367.5 176,-367.5 "/>
<text text-anchor="middle" x="94" y="-355.5" font-family="Helvetica,sans-Serif" font-size="10.00"> </text>
</a>
</g>
</g>
<!-- Node4&#45;&gt;Node3 -->
<g id="edge3" class="edge"><title>Node4&#45;&gt;Node3</title>
<path fill="none" stroke="midnightblue" d="M94,-338.099C94,-329.739 94,-320.68 94,-311.672"/>
<polygon fill="none" stroke="midnightblue" points="90.5001,-338.258 94,-348.258 97.5001,-338.258 90.5001,-338.258"/>
</g>
<!-- Node5 -->
<g id="node5" class="node"><title>Node5</title>
<polygon fill="none" stroke="#bfbfbf" points="71,-442.5 71,-499.5 117,-499.5 117,-442.5 71,-442.5"/>
<text text-anchor="middle" x="94" y="-487.5" font-family="Helvetica,sans-Serif" font-size="10.00">object</text>
<polyline fill="none" stroke="#bfbfbf" points="71,-480.5 117,-480.5 "/>
<text text-anchor="middle" x="94" y="-468.5" font-family="Helvetica,sans-Serif" font-size="10.00"> </text>
<polyline fill="none" stroke="#bfbfbf" points="71,-461.5 117,-461.5 "/>
<text text-anchor="middle" x="94" y="-449.5" font-family="Helvetica,sans-Serif" font-size="10.00"> </text>
</g>
<!-- Node5&#45;&gt;Node4 -->
<g id="edge4" class="edge"><title>Node5&#45;&gt;Node4</title>
<path fill="none" stroke="midnightblue" d="M94,-432.209C94,-423.293 94,-413.951 94,-405.584"/>
<polygon fill="none" stroke="midnightblue" points="90.5001,-432.397 94,-442.397 97.5001,-432.397 90.5001,-432.397"/>
</g>
</g>
</svg>
