<?xml version="1.0" encoding="UTF-8" standalone="no"?>
<!DOCTYPE svg PUBLIC "-//W3C//DTD SVG 1.1//EN"
 "http://www.w3.org/Graphics/SVG/1.1/DTD/svg11.dtd">
<!-- Generated by graphviz version 2.38.0 (20140413.2041)
 -->
<!-- Title: memoryoracle.instance.Instance.index Pages: 1 -->
<svg width="905pt" height="324pt"
 viewBox="0.00 0.00 905.00 323.87" xmlns="http://www.w3.org/2000/svg" xmlns:xlink="http://www.w3.org/1999/xlink">
<g id="graph0" class="graph" transform="scale(1 1) rotate(0) translate(4 319.868)">
<title>memoryoracle.instance.Instance.index</title>
<!-- Node1 -->
<g id="node1" class="node"><title>Node1</title>
<polygon fill="#bfbfbf" stroke="black" points="0,-156.575 0,-175.575 202,-175.575 202,-156.575 0,-156.575"/>
<text text-anchor="middle" x="101" y="-163.575" font-family="Helvetica,sans-Serif" font-size="10.00">memoryoracle.instance.Instance.index</text>
</g>
<!-- Node2 -->
<g id="node2" class="node"><title>Node2</title>
<g id="a_node2"><a xlink:href="classmemoryoracle_1_1models_1_1Typed.html#a494dfbe205034b874ff9e8c7039f579b" target="_top" xlink:title="memoryoracle.models.Typed.\l__init__">
<polygon fill="none" stroke="black" points="713,-215.075 713,-245.075 871,-245.075 871,-215.075 713,-215.075"/>
<text text-anchor="start" x="721" y="-233.075" font-family="Helvetica,sans-Serif" font-size="10.00">memoryoracle.models.Typed.</text>
<text text-anchor="middle" x="792" y="-222.075" font-family="Helvetica,sans-Serif" font-size="10.00">__init__</text>
</a>
</g>
</g>
<!-- Node1&#45;&gt;Node2 -->
<g id="edge1" class="edge"><title>Node1&#45;&gt;Node2</title>
<path fill="none" stroke="midnightblue" d="M114.978,-184.045C136.675,-212.364 183.361,-266.287 238,-287.075 421.572,-356.917 662.734,-279.702 753.928,-245.095"/>
<polygon fill="midnightblue" stroke="midnightblue" points="117.623,-181.739 108.832,-175.825 112.017,-185.93 117.623,-181.739"/>
</g>
<!-- Node3 -->
<g id="node3" class="node"><title>Node3</title>
<g id="a_node3"><a xlink:href="classmemoryoracle_1_1instance_1_1Instance.html#a254a208a64e4c7f32c514e2fb64edbbe" target="_top" xlink:title="memoryoracle.instance.Instance.\l_basic_track">
<polygon fill="none" stroke="black" points="238.5,-225.075 238.5,-255.075 414.5,-255.075 414.5,-225.075 238.5,-225.075"/>
<text text-anchor="start" x="246.5" y="-243.075" font-family="Helvetica,sans-Serif" font-size="10.00">memoryoracle.instance.Instance.</text>
<text text-anchor="middle" x="326.5" y="-232.075" font-family="Helvetica,sans-Serif" font-size="10.00">_basic_track</text>
</a>
</g>
</g>
<!-- Node1&#45;&gt;Node3 -->
<g id="edge2" class="edge"><title>Node1&#45;&gt;Node3</title>
<path fill="none" stroke="midnightblue" d="M136.4,-179.197C163.764,-189.457 203.113,-203.82 238,-215.075 248.525,-218.47 259.836,-221.878 270.717,-225.037"/>
<polygon fill="midnightblue" stroke="midnightblue" points="137.484,-175.865 126.892,-175.615 135.017,-182.415 137.484,-175.865"/>
</g>
<!-- Node4 -->
<g id="node4" class="node"><title>Node4</title>
<g id="a_node4"><a xlink:href="classmemoryoracle_1_1instance_1_1Instance.html#a86649e01ee4f562debdba5421a334f78" target="_top" xlink:title="memoryoracle.instance.Instance.track">
<polygon fill="none" stroke="black" points="451,-173.575 451,-192.575 651,-192.575 651,-173.575 451,-173.575"/>
<text text-anchor="middle" x="551" y="-180.575" font-family="Helvetica,sans-Serif" font-size="10.00">memoryoracle.instance.Instance.track</text>
</a>
</g>
</g>
<!-- Node1&#45;&gt;Node4 -->
<g id="edge26" class="edge"><title>Node1&#45;&gt;Node4</title>
<path fill="none" stroke="midnightblue" d="M117.748,-182.893C141.247,-206.619 188.099,-248.836 238,-265.075 312.805,-289.418 339.245,-286.279 415,-265.075 466.23,-250.735 517.342,-211.038 539.095,-192.651"/>
<polygon fill="midnightblue" stroke="midnightblue" points="120.174,-180.367 110.703,-175.619 115.146,-185.237 120.174,-180.367"/>
</g>
<!-- Node9 -->
<g id="node9" class="node"><title>Node9</title>
<g id="a_node9"><a xlink:href="classmemoryoracle_1_1models_1_1Memory.html#a253756ba0ddd58fc05a9463c0a181185" target="_top" xlink:title="memoryoracle.models.Memory.\l_clear_updated">
<polygon fill="none" stroke="black" points="467,-34.0747 467,-64.0747 635,-64.0747 635,-34.0747 467,-34.0747"/>
<text text-anchor="start" x="475" y="-52.0747" font-family="Helvetica,sans-Serif" font-size="10.00">memoryoracle.models.Memory.</text>
<text text-anchor="middle" x="551" y="-41.0747" font-family="Helvetica,sans-Serif" font-size="10.00">_clear_updated</text>
</a>
</g>
</g>
<!-- Node1&#45;&gt;Node9 -->
<g id="edge12" class="edge"><title>Node1&#45;&gt;Node9</title>
<path fill="none" stroke="midnightblue" d="M112.043,-147.67C131.333,-114.506 177.111,-45.6927 238,-19.0747 329.992,21.1405 451.443,-12.1931 512.109,-33.9501"/>
<polygon fill="midnightblue" stroke="midnightblue" points="108.996,-145.948 107.115,-156.374 115.087,-149.396 108.996,-145.948"/>
</g>
<!-- Node10 -->
<g id="node10" class="node"><title>Node10</title>
<g id="a_node10"><a xlink:href="classmemoryoracle_1_1instance_1_1Array.html#a1d8c3993d8a52bfbec8240d6f79b3ce1" target="_top" xlink:title="memoryoracle.instance.Array.\l_track">
<polygon fill="none" stroke="black" points="246.5,-176.075 246.5,-206.075 406.5,-206.075 406.5,-176.075 246.5,-176.075"/>
<text text-anchor="start" x="254.5" y="-194.075" font-family="Helvetica,sans-Serif" font-size="10.00">memoryoracle.instance.Array.</text>
<text text-anchor="middle" x="326.5" y="-183.075" font-family="Helvetica,sans-Serif" font-size="10.00">_track</text>
</a>
</g>
</g>
<!-- Node1&#45;&gt;Node10 -->
<g id="edge14" class="edge"><title>Node1&#45;&gt;Node10</title>
<path fill="none" stroke="midnightblue" d="M197.272,-176.732C213.677,-178.567 230.566,-180.456 246.484,-182.236"/>
<polygon fill="midnightblue" stroke="midnightblue" points="197.46,-173.231 187.133,-175.597 196.682,-180.187 197.46,-173.231"/>
</g>
<!-- Node11 -->
<g id="node11" class="node"><title>Node11</title>
<g id="a_node11"><a xlink:href="classmemoryoracle_1_1instance_1_1Primitive.html#a68562bda9732e33fe32188597e2f4b91" target="_top" xlink:title="memoryoracle.instance.Primitive.\l_track">
<polygon fill="none" stroke="black" points="238,-127.075 238,-157.075 415,-157.075 415,-127.075 238,-127.075"/>
<text text-anchor="start" x="246" y="-145.075" font-family="Helvetica,sans-Serif" font-size="10.00">memoryoracle.instance.Primitive.</text>
<text text-anchor="middle" x="326.5" y="-134.075" font-family="Helvetica,sans-Serif" font-size="10.00">_track</text>
</a>
</g>
</g>
<!-- Node1&#45;&gt;Node11 -->
<g id="edge17" class="edge"><title>Node1&#45;&gt;Node11</title>
<path fill="none" stroke="midnightblue" d="M200.887,-155.456C213.144,-154.14 225.609,-152.801 237.684,-151.505"/>
<polygon fill="midnightblue" stroke="midnightblue" points="200.223,-152.007 190.654,-156.555 200.971,-158.967 200.223,-152.007"/>
</g>
<!-- Node12 -->
<g id="node12" class="node"><title>Node12</title>
<g id="a_node12"><a xlink:href="classmemoryoracle_1_1instance_1_1Pointer.html#a2cc9e298adaad8bed089d90186fcde8a" target="_top" xlink:title="memoryoracle.instance.Pointer.\l_track">
<polygon fill="none" stroke="black" points="242,-78.0747 242,-108.075 411,-108.075 411,-78.0747 242,-78.0747"/>
<text text-anchor="start" x="250" y="-96.0747" font-family="Helvetica,sans-Serif" font-size="10.00">memoryoracle.instance.Pointer.</text>
<text text-anchor="middle" x="326.5" y="-85.0747" font-family="Helvetica,sans-Serif" font-size="10.00">_track</text>
</a>
</g>
</g>
<!-- Node1&#45;&gt;Node12 -->
<g id="edge20" class="edge"><title>Node1&#45;&gt;Node12</title>
<path fill="none" stroke="midnightblue" d="M136.368,-152.85C163.713,-142.533 203.054,-128.144 238,-117.075 247.611,-114.03 257.885,-111.008 267.89,-108.188"/>
<polygon fill="midnightblue" stroke="midnightblue" points="134.975,-149.635 126.866,-156.454 137.458,-156.18 134.975,-149.635"/>
</g>
<!-- Node13 -->
<g id="node13" class="node"><title>Node13</title>
<g id="a_node13"><a xlink:href="classmemoryoracle_1_1instance_1_1Int.html#a38c9424341353f006771163d360594da" target="_top" xlink:title="memoryoracle.instance.Int.\l_track">
<polygon fill="none" stroke="black" points="252.5,-29.0747 252.5,-59.0747 400.5,-59.0747 400.5,-29.0747 252.5,-29.0747"/>
<text text-anchor="start" x="260.5" y="-47.0747" font-family="Helvetica,sans-Serif" font-size="10.00">memoryoracle.instance.Int.</text>
<text text-anchor="middle" x="326.5" y="-36.0747" font-family="Helvetica,sans-Serif" font-size="10.00">_track</text>
</a>
</g>
</g>
<!-- Node1&#45;&gt;Node13 -->
<g id="edge23" class="edge"><title>Node1&#45;&gt;Node13</title>
<path fill="none" stroke="midnightblue" d="M119.966,-149.853C144.788,-128.246 191.767,-90.1835 238,-68.0747 245.105,-64.6769 252.773,-61.6908 260.512,-59.0853"/>
<polygon fill="midnightblue" stroke="midnightblue" points="117.612,-147.262 112.43,-156.504 122.244,-152.511 117.612,-147.262"/>
</g>
<!-- Node3&#45;&gt;Node4 -->
<g id="edge3" class="edge"><title>Node3&#45;&gt;Node4</title>
<path fill="none" stroke="midnightblue" d="M396.326,-222.443C434.676,-212.618 480.937,-200.767 512.618,-192.651"/>
<polygon fill="midnightblue" stroke="midnightblue" points="395.069,-219.152 386.25,-225.024 396.806,-225.933 395.069,-219.152"/>
</g>
<!-- Node8 -->
<g id="node8" class="node"><title>Node8</title>
<g id="a_node8"><a xlink:href="classmemoryoracle_1_1models_1_1Typed.html#aa1d5d8d5b7ebe5c2876f363e7eb669db" target="_top" xlink:title="memoryoracle.models.Typed.track">
<polygon fill="none" stroke="black" points="460,-132.575 460,-151.575 642,-151.575 642,-132.575 460,-132.575"/>
<text text-anchor="middle" x="551" y="-139.575" font-family="Helvetica,sans-Serif" font-size="10.00">memoryoracle.models.Typed.track</text>
</a>
</g>
</g>
<!-- Node3&#45;&gt;Node8 -->
<g id="edge8" class="edge"><title>Node3&#45;&gt;Node8</title>
<path fill="none" stroke="midnightblue" d="M406.49,-220.406C409.444,-218.768 412.294,-216.995 415,-215.075 437.626,-199.017 427.906,-179.451 451,-164.075 458.987,-158.757 468.061,-154.706 477.396,-151.624"/>
<polygon fill="midnightblue" stroke="midnightblue" points="404.773,-217.351 397.363,-224.924 407.878,-223.624 404.773,-217.351"/>
</g>
<!-- Node4&#45;&gt;Node2 -->
<g id="edge5" class="edge"><title>Node4&#45;&gt;Node2</title>
<path fill="none" stroke="midnightblue" d="M610.26,-194.532C641.62,-200.699 680.691,-208.382 714.475,-215.026"/>
<polygon fill="midnightblue" stroke="midnightblue" points="610.853,-191.081 600.365,-192.586 609.502,-197.95 610.853,-191.081"/>
</g>
<!-- Node5 -->
<g id="node5" class="node"><title>Node5</title>
<g id="a_node5"><a xlink:href="classmemoryoracle_1_1instance_1_1Instance.html#a286e015a030541a0704994172024f034" target="_top" xlink:title="memoryoracle.instance.Instance.update">
<polygon fill="none" stroke="black" points="687,-176.575 687,-195.575 897,-195.575 897,-176.575 687,-176.575"/>
<text text-anchor="middle" x="792" y="-183.575" font-family="Helvetica,sans-Serif" font-size="10.00">memoryoracle.instance.Instance.update</text>
</a>
</g>
</g>
<!-- Node4&#45;&gt;Node5 -->
<g id="edge4" class="edge"><title>Node4&#45;&gt;Node5</title>
<path fill="none" stroke="midnightblue" d="M661.457,-184.449C669.836,-184.554 678.281,-184.66 686.626,-184.765"/>
<polygon fill="midnightblue" stroke="midnightblue" points="661.324,-180.947 651.281,-184.321 661.236,-187.946 661.324,-180.947"/>
</g>
<!-- Node6 -->
<g id="node6" class="node"><title>Node6</title>
<g id="a_node6"><a xlink:href="classmemoryoracle_1_1models_1_1Memory.html#a71d4a141abc3358afdf1a1325bfd4253" target="_top" xlink:title="memoryoracle.models.Memory.update">
<polygon fill="none" stroke="black" points="691,-88.5747 691,-107.575 893,-107.575 893,-88.5747 691,-88.5747"/>
<text text-anchor="middle" x="792" y="-95.5747" font-family="Helvetica,sans-Serif" font-size="10.00">memoryoracle.models.Memory.update</text>
</a>
</g>
</g>
<!-- Node4&#45;&gt;Node6 -->
<g id="edge6" class="edge"><title>Node4&#45;&gt;Node6</title>
<path fill="none" stroke="midnightblue" d="M632.219,-170.205C638.8,-167.684 645.157,-164.672 651,-161.075 672.516,-147.828 665.236,-129.911 687,-117.075 693.561,-113.205 700.728,-110.091 708.132,-107.589"/>
<polygon fill="midnightblue" stroke="midnightblue" points="630.773,-167.001 622.452,-173.559 633.046,-173.621 630.773,-167.001"/>
</g>
<!-- Node7 -->
<g id="node7" class="node"><title>Node7</title>
<g id="a_node7"><a xlink:href="classmemoryoracle_1_1models_1_1Memory.html#aed3af349dd80317ae9cca4b4e9cb7c26" target="_top" xlink:title="memoryoracle.models.Memory.\l__init__">
<polygon fill="none" stroke="black" points="708,-127.075 708,-157.075 876,-157.075 876,-127.075 708,-127.075"/>
<text text-anchor="start" x="716" y="-145.075" font-family="Helvetica,sans-Serif" font-size="10.00">memoryoracle.models.Memory.</text>
<text text-anchor="middle" x="792" y="-134.075" font-family="Helvetica,sans-Serif" font-size="10.00">__init__</text>
</a>
</g>
</g>
<!-- Node4&#45;&gt;Node7 -->
<g id="edge7" class="edge"><title>Node4&#45;&gt;Node7</title>
<path fill="none" stroke="midnightblue" d="M617.461,-171.845C645.333,-167.064 678.174,-161.43 707.745,-156.357"/>
<polygon fill="midnightblue" stroke="midnightblue" points="616.696,-168.425 607.432,-173.565 617.88,-175.324 616.696,-168.425"/>
</g>
<!-- Node8&#45;&gt;Node2 -->
<g id="edge9" class="edge"><title>Node8&#45;&gt;Node2</title>
<path fill="none" stroke="midnightblue" d="M631.098,-154.799C638.057,-157.348 644.802,-160.406 651,-164.075 671.868,-176.427 666.239,-192.543 687,-205.075 694.949,-209.873 703.76,-213.75 712.794,-216.884"/>
<polygon fill="midnightblue" stroke="midnightblue" points="632.101,-151.445 621.508,-151.63 629.904,-158.091 632.101,-151.445"/>
</g>
<!-- Node8&#45;&gt;Node6 -->
<g id="edge10" class="edge"><title>Node8&#45;&gt;Node6</title>
<path fill="none" stroke="midnightblue" d="M613.292,-130.692C636.393,-126.41 662.903,-121.507 687,-117.075 703.788,-113.987 722.104,-110.635 738.621,-107.618"/>
<polygon fill="midnightblue" stroke="midnightblue" points="612.473,-127.284 603.279,-132.549 613.749,-134.167 612.473,-127.284"/>
</g>
<!-- Node8&#45;&gt;Node7 -->
<g id="edge11" class="edge"><title>Node8&#45;&gt;Node7</title>
<path fill="none" stroke="midnightblue" d="M652.214,-142.075C670.71,-142.075 689.839,-142.075 707.765,-142.075"/>
<polygon fill="midnightblue" stroke="midnightblue" points="652.015,-138.575 642.015,-142.075 652.015,-145.575 652.015,-138.575"/>
</g>
<!-- Node9&#45;&gt;Node6 -->
<g id="edge13" class="edge"><title>Node9&#45;&gt;Node6</title>
<path fill="none" stroke="midnightblue" d="M635.501,-66.1941C672.066,-73.6908 713.591,-82.2043 744.527,-88.5467"/>
<polygon fill="midnightblue" stroke="midnightblue" points="635.831,-62.6891 625.332,-64.1093 634.425,-69.5465 635.831,-62.6891"/>
</g>
<!-- Node10&#45;&gt;Node4 -->
<g id="edge15" class="edge"><title>Node10&#45;&gt;Node4</title>
<path fill="none" stroke="midnightblue" d="M416.787,-187.864C428.02,-187.46 439.565,-187.045 450.938,-186.636"/>
<polygon fill="midnightblue" stroke="midnightblue" points="416.439,-184.375 406.572,-188.232 416.691,-191.37 416.439,-184.375"/>
</g>
<!-- Node10&#45;&gt;Node8 -->
<g id="edge16" class="edge"><title>Node10&#45;&gt;Node8</title>
<path fill="none" stroke="midnightblue" d="M405.673,-173.859C439.607,-166.386 478.059,-157.918 506.735,-151.603"/>
<polygon fill="midnightblue" stroke="midnightblue" points="404.783,-170.471 395.769,-176.04 406.288,-177.307 404.783,-170.471"/>
</g>
<!-- Node11&#45;&gt;Node4 -->
<g id="edge18" class="edge"><title>Node11&#45;&gt;Node4</title>
<path fill="none" stroke="midnightblue" d="M418.952,-158.926C445.958,-163.903 474.572,-169.176 498.15,-173.52"/>
<polygon fill="midnightblue" stroke="midnightblue" points="419.556,-155.479 409.087,-157.109 418.288,-162.363 419.556,-155.479"/>
</g>
<!-- Node11&#45;&gt;Node8 -->
<g id="edge19" class="edge"><title>Node11&#45;&gt;Node8</title>
<path fill="none" stroke="midnightblue" d="M425.196,-142.075C436.736,-142.075 448.474,-142.075 459.902,-142.075"/>
<polygon fill="midnightblue" stroke="midnightblue" points="425.119,-138.575 415.118,-142.075 425.118,-145.575 425.119,-138.575"/>
</g>
<!-- Node12&#45;&gt;Node4 -->
<g id="edge21" class="edge"><title>Node12&#45;&gt;Node4</title>
<path fill="none" stroke="midnightblue" d="M407.28,-112.56C409.941,-113.962 412.524,-115.465 415,-117.075 436.185,-130.845 429.484,-147.828 451,-161.075 459.696,-166.429 469.533,-170.486 479.548,-173.559"/>
<polygon fill="midnightblue" stroke="midnightblue" points="408.513,-109.272 397.976,-108.166 405.524,-115.601 408.513,-109.272"/>
</g>
<!-- Node12&#45;&gt;Node8 -->
<g id="edge22" class="edge"><title>Node12&#45;&gt;Node8</title>
<path fill="none" stroke="midnightblue" d="M405.673,-110.29C439.607,-117.764 478.059,-126.231 506.735,-132.547"/>
<polygon fill="midnightblue" stroke="midnightblue" points="406.288,-106.842 395.769,-108.109 404.783,-113.678 406.288,-106.842"/>
</g>
<!-- Node13&#45;&gt;Node4 -->
<g id="edge24" class="edge"><title>Node13&#45;&gt;Node4</title>
<path fill="none" stroke="midnightblue" d="M409.46,-63.6178C411.39,-65.0043 413.243,-66.4877 415,-68.0747 447.892,-97.7828 417.39,-132.182 451,-161.075 457.008,-166.24 463.963,-170.268 471.346,-173.401"/>
<polygon fill="midnightblue" stroke="midnightblue" points="410.901,-60.3951 400.549,-58.1388 407.234,-66.3581 410.901,-60.3951"/>
</g>
<!-- Node13&#45;&gt;Node8 -->
<g id="edge25" class="edge"><title>Node13&#45;&gt;Node8</title>
<path fill="none" stroke="midnightblue" d="M399.405,-62.3254C404.732,-64.1248 409.981,-66.0433 415,-68.0747 460.835,-86.6245 510.925,-117.009 535.184,-132.436"/>
<polygon fill="midnightblue" stroke="midnightblue" points="400.358,-58.9552 389.767,-59.2164 398.209,-65.6173 400.358,-58.9552"/>
</g>
</g>
</svg>
