<?xml version="1.0" encoding="UTF-8" standalone="no"?>
<!DOCTYPE svg PUBLIC "-//W3C//DTD SVG 1.1//EN"
 "http://www.w3.org/Graphics/SVG/1.1/DTD/svg11.dtd">
<!-- Generated by graphviz version 2.38.0 (20140413.2041)
 -->
<!-- Title: memoryoracle.instance.Pointer Pages: 1 -->
<svg width="182pt" height="921pt"
 viewBox="0.00 0.00 182.00 921.00" xmlns="http://www.w3.org/2000/svg" xmlns:xlink="http://www.w3.org/1999/xlink">
<g id="graph0" class="graph" transform="scale(1 1) rotate(0) translate(4 917)">
<title>memoryoracle.instance.Pointer</title>
<!-- Node1 -->
<g id="node1" class="node"><title>Node1</title>
<polygon fill="#bfbfbf" stroke="black" points="3.5,-0.5 3.5,-90.5 170.5,-90.5 170.5,-0.5 3.5,-0.5"/>
<text text-anchor="middle" x="87" y="-78.5" font-family="Helvetica,sans-Serif" font-size="10.00">memoryoracle.instance.Pointer</text>
<polyline fill="none" stroke="black" points="3.5,-71.5 170.5,-71.5 "/>
<text text-anchor="start" x="11.5" y="-59.5" font-family="Helvetica,sans-Serif" font-size="10.00">+ repository</text>
<text text-anchor="start" x="11.5" y="-48.5" font-family="Helvetica,sans-Serif" font-size="10.00">&#45; _updateTracker</text>
<text text-anchor="start" x="11.5" y="-37.5" font-family="Helvetica,sans-Serif" font-size="10.00">&#45; _watchers</text>
<text text-anchor="start" x="11.5" y="-26.5" font-family="Helvetica,sans-Serif" font-size="10.00">&#45; _typeHandlerCode</text>
<polyline fill="none" stroke="black" points="3.5,-19.5 170.5,-19.5 "/>
<text text-anchor="start" x="11.5" y="-7.5" font-family="Helvetica,sans-Serif" font-size="10.00">&#45; _track()</text>
</g>
<!-- Node2 -->
<g id="node2" class="node"><title>Node2</title>
<g id="a_node2"><a xlink:href="classmemoryoracle_1_1instance_1_1Primitive.html" target="_top" xlink:title="{memoryoracle.instance.Primitive\n|+ value\l+ value\l|+ val_string()\l&#45; _track()\l}">
<polygon fill="none" stroke="black" points="0,-127.5 0,-206.5 174,-206.5 174,-127.5 0,-127.5"/>
<text text-anchor="middle" x="87" y="-194.5" font-family="Helvetica,sans-Serif" font-size="10.00">memoryoracle.instance.Primitive</text>
<polyline fill="none" stroke="black" points="0,-187.5 174,-187.5 "/>
<text text-anchor="start" x="8" y="-175.5" font-family="Helvetica,sans-Serif" font-size="10.00">+ value</text>
<text text-anchor="start" x="8" y="-164.5" font-family="Helvetica,sans-Serif" font-size="10.00">+ value</text>
<polyline fill="none" stroke="black" points="0,-157.5 174,-157.5 "/>
<text text-anchor="start" x="8" y="-145.5" font-family="Helvetica,sans-Serif" font-size="10.00">+ val_string()</text>
<text text-anchor="start" x="8" y="-134.5" font-family="Helvetica,sans-Serif" font-size="10.00">&#45; _track()</text>
</a>
</g>
</g>
<!-- Node2&#45;&gt;Node1 -->
<g id="edge1" class="edge"><title>Node2&#45;&gt;Node1</title>
<path fill="none" stroke="midnightblue" d="M87,-117.187C87,-108.491 87,-99.4758 87,-90.9111"/>
<polygon fill="none" stroke="midnightblue" points="83.5001,-117.202 87,-127.202 90.5001,-117.202 83.5001,-117.202"/>
</g>
<!-- Node3 -->
<g id="node3" class="node"><title>Node3</title>
<g id="a_node3"><a xlink:href="classmemoryoracle_1_1instance_1_1Memory.html" target="_top" xlink:title="{memoryoracle.instance.Memory\n|+ unaliased_type\l+ dynamic_type\l+ address\l+ name\l+ frame\l+ execution\l+ type\l+ dynamic_type\l+ unaliased_type\l+ parent\l+ meta\l&#45; _description\l&#45; _object\l&#45; _addressFixer\l&#45; _updatedNames\l&#45; _watchers\l&#45; _execution\l&#45; _updateTracker\l|+ __init__()\l+ index()\l+ factory()\l+ track()\l+ update()\l+ watchers()\l+ extract_dynamic_type()\l&#45; _fetch()\l&#45; _basic_track()\l&#45; _clear_updated()\l&#45; _set_execution()\l}">
<polygon fill="none" stroke="black" points="1,-243.5 1,-597.5 173,-597.5 173,-243.5 1,-243.5"/>
<text text-anchor="middle" x="87" y="-585.5" font-family="Helvetica,sans-Serif" font-size="10.00">memoryoracle.instance.Memory</text>
<polyline fill="none" stroke="black" points="1,-578.5 173,-578.5 "/>
<text text-anchor="start" x="9" y="-566.5" font-family="Helvetica,sans-Serif" font-size="10.00">+ unaliased_type</text>
<text text-anchor="start" x="9" y="-555.5" font-family="Helvetica,sans-Serif" font-size="10.00">+ dynamic_type</text>
<text text-anchor="start" x="9" y="-544.5" font-family="Helvetica,sans-Serif" font-size="10.00">+ address</text>
<text text-anchor="start" x="9" y="-533.5" font-family="Helvetica,sans-Serif" font-size="10.00">+ name</text>
<text text-anchor="start" x="9" y="-522.5" font-family="Helvetica,sans-Serif" font-size="10.00">+ frame</text>
<text text-anchor="start" x="9" y="-511.5" font-family="Helvetica,sans-Serif" font-size="10.00">+ execution</text>
<text text-anchor="start" x="9" y="-500.5" font-family="Helvetica,sans-Serif" font-size="10.00">+ type</text>
<text text-anchor="start" x="9" y="-489.5" font-family="Helvetica,sans-Serif" font-size="10.00">+ dynamic_type</text>
<text text-anchor="start" x="9" y="-478.5" font-family="Helvetica,sans-Serif" font-size="10.00">+ unaliased_type</text>
<text text-anchor="start" x="9" y="-467.5" font-family="Helvetica,sans-Serif" font-size="10.00">+ parent</text>
<text text-anchor="start" x="9" y="-456.5" font-family="Helvetica,sans-Serif" font-size="10.00">+ meta</text>
<text text-anchor="start" x="9" y="-445.5" font-family="Helvetica,sans-Serif" font-size="10.00">&#45; _description</text>
<text text-anchor="start" x="9" y="-434.5" font-family="Helvetica,sans-Serif" font-size="10.00">&#45; _object</text>
<text text-anchor="start" x="9" y="-423.5" font-family="Helvetica,sans-Serif" font-size="10.00">&#45; _addressFixer</text>
<text text-anchor="start" x="9" y="-412.5" font-family="Helvetica,sans-Serif" font-size="10.00">&#45; _updatedNames</text>
<text text-anchor="start" x="9" y="-401.5" font-family="Helvetica,sans-Serif" font-size="10.00">&#45; _watchers</text>
<text text-anchor="start" x="9" y="-390.5" font-family="Helvetica,sans-Serif" font-size="10.00">&#45; _execution</text>
<text text-anchor="start" x="9" y="-379.5" font-family="Helvetica,sans-Serif" font-size="10.00">&#45; _updateTracker</text>
<polyline fill="none" stroke="black" points="1,-372.5 173,-372.5 "/>
<text text-anchor="start" x="9" y="-360.5" font-family="Helvetica,sans-Serif" font-size="10.00">+ __init__()</text>
<text text-anchor="start" x="9" y="-349.5" font-family="Helvetica,sans-Serif" font-size="10.00">+ index()</text>
<text text-anchor="start" x="9" y="-338.5" font-family="Helvetica,sans-Serif" font-size="10.00">+ factory()</text>
<text text-anchor="start" x="9" y="-327.5" font-family="Helvetica,sans-Serif" font-size="10.00">+ track()</text>
<text text-anchor="start" x="9" y="-316.5" font-family="Helvetica,sans-Serif" font-size="10.00">+ update()</text>
<text text-anchor="start" x="9" y="-305.5" font-family="Helvetica,sans-Serif" font-size="10.00">+ watchers()</text>
<text text-anchor="start" x="9" y="-294.5" font-family="Helvetica,sans-Serif" font-size="10.00">+ extract_dynamic_type()</text>
<text text-anchor="start" x="9" y="-283.5" font-family="Helvetica,sans-Serif" font-size="10.00">&#45; _fetch()</text>
<text text-anchor="start" x="9" y="-272.5" font-family="Helvetica,sans-Serif" font-size="10.00">&#45; _basic_track()</text>
<text text-anchor="start" x="9" y="-261.5" font-family="Helvetica,sans-Serif" font-size="10.00">&#45; _clear_updated()</text>
<text text-anchor="start" x="9" y="-250.5" font-family="Helvetica,sans-Serif" font-size="10.00">&#45; _set_execution()</text>
</a>
</g>
</g>
<!-- Node3&#45;&gt;Node2 -->
<g id="edge2" class="edge"><title>Node3&#45;&gt;Node2</title>
<path fill="none" stroke="midnightblue" d="M87,-233.309C87,-223.769 87,-214.837 87,-206.827"/>
<polygon fill="none" stroke="midnightblue" points="83.5001,-233.458 87,-243.458 90.5001,-233.458 83.5001,-233.458"/>
</g>
<!-- Node4 -->
<g id="node4" class="node"><title>Node4</title>
<g id="a_node4"><a xlink:href="classmemoryoracle_1_1typed_1_1Typed.html" target="_top" xlink:title="{memoryoracle.typed.Typed\n||+ type_code()\l+ gdb_type()\l+ object()\l}">
<polygon fill="none" stroke="black" points="14,-634.5 14,-713.5 160,-713.5 160,-634.5 14,-634.5"/>
<text text-anchor="middle" x="87" y="-701.5" font-family="Helvetica,sans-Serif" font-size="10.00">memoryoracle.typed.Typed</text>
<polyline fill="none" stroke="black" points="14,-694.5 160,-694.5 "/>
<text text-anchor="middle" x="87" y="-682.5" font-family="Helvetica,sans-Serif" font-size="10.00"> </text>
<polyline fill="none" stroke="black" points="14,-675.5 160,-675.5 "/>
<text text-anchor="start" x="22" y="-663.5" font-family="Helvetica,sans-Serif" font-size="10.00">+ type_code()</text>
<text text-anchor="start" x="22" y="-652.5" font-family="Helvetica,sans-Serif" font-size="10.00">+ gdb_type()</text>
<text text-anchor="start" x="22" y="-641.5" font-family="Helvetica,sans-Serif" font-size="10.00">+ object()</text>
</a>
</g>
</g>
<!-- Node4&#45;&gt;Node3 -->
<g id="edge3" class="edge"><title>Node4&#45;&gt;Node3</title>
<path fill="none" stroke="midnightblue" d="M87,-624.196C87,-615.935 87,-606.955 87,-597.522"/>
<polygon fill="none" stroke="midnightblue" points="83.5001,-624.254 87,-634.254 90.5001,-624.254 83.5001,-624.254"/>
</g>
<!-- Node5 -->
<g id="node5" class="node"><title>Node5</title>
<g id="a_node5"><a xlink:href="classmemoryoracle_1_1tracked_1_1Tracked.html" target="_top" xlink:title="{memoryoracle.tracked.Tracked\n|+ meta\l|+ track()\l+ description()\l}">
<polygon fill="none" stroke="black" points="5,-750.5 5,-818.5 169,-818.5 169,-750.5 5,-750.5"/>
<text text-anchor="middle" x="87" y="-806.5" font-family="Helvetica,sans-Serif" font-size="10.00">memoryoracle.tracked.Tracked</text>
<polyline fill="none" stroke="black" points="5,-799.5 169,-799.5 "/>
<text text-anchor="start" x="13" y="-787.5" font-family="Helvetica,sans-Serif" font-size="10.00">+ meta</text>
<polyline fill="none" stroke="black" points="5,-780.5 169,-780.5 "/>
<text text-anchor="start" x="13" y="-768.5" font-family="Helvetica,sans-Serif" font-size="10.00">+ track()</text>
<text text-anchor="start" x="13" y="-757.5" font-family="Helvetica,sans-Serif" font-size="10.00">+ description()</text>
</a>
</g>
</g>
<!-- Node5&#45;&gt;Node4 -->
<g id="edge4" class="edge"><title>Node5&#45;&gt;Node4</title>
<path fill="none" stroke="midnightblue" d="M87,-740.274C87,-731.476 87,-722.275 87,-713.649"/>
<polygon fill="none" stroke="midnightblue" points="83.5001,-740.357 87,-750.357 90.5001,-740.357 83.5001,-740.357"/>
</g>
<!-- Node6 -->
<g id="node6" class="node"><title>Node6</title>
<polygon fill="none" stroke="#bfbfbf" points="53.5,-855.5 53.5,-912.5 120.5,-912.5 120.5,-855.5 53.5,-855.5"/>
<text text-anchor="middle" x="87" y="-900.5" font-family="Helvetica,sans-Serif" font-size="10.00">Document</text>
<polyline fill="none" stroke="#bfbfbf" points="53.5,-893.5 120.5,-893.5 "/>
<text text-anchor="middle" x="87" y="-881.5" font-family="Helvetica,sans-Serif" font-size="10.00"> </text>
<polyline fill="none" stroke="#bfbfbf" points="53.5,-874.5 120.5,-874.5 "/>
<text text-anchor="middle" x="87" y="-862.5" font-family="Helvetica,sans-Serif" font-size="10.00"> </text>
</g>
<!-- Node6&#45;&gt;Node5 -->
<g id="edge5" class="edge"><title>Node6&#45;&gt;Node5</title>
<path fill="none" stroke="midnightblue" d="M87,-845.063C87,-836.393 87,-827.243 87,-818.786"/>
<polygon fill="none" stroke="midnightblue" points="83.5001,-845.321 87,-855.321 90.5001,-845.321 83.5001,-845.321"/>
</g>
</g>
</svg>
