<?xml version="1.0" encoding="UTF-8" standalone="no"?>
<!DOCTYPE svg PUBLIC "-//W3C//DTD SVG 1.1//EN"
 "http://www.w3.org/Graphics/SVG/1.1/DTD/svg11.dtd">
<!-- Generated by graphviz version 2.38.0 (20140413.2041)
 -->
<!-- Title: memoryoracle.whip.SugarDecorator Pages: 1 -->
<svg width="198pt" height="309pt"
 viewBox="0.00 0.00 198.00 309.00" xmlns="http://www.w3.org/2000/svg" xmlns:xlink="http://www.w3.org/1999/xlink">
<g id="graph0" class="graph" transform="scale(1 1) rotate(0) translate(4 305)">
<title>memoryoracle.whip.SugarDecorator</title>
<!-- Node1 -->
<g id="node1" class="node"><title>Node1</title>
<polygon fill="#bfbfbf" stroke="black" points="0,-0.5 0,-90.5 190,-90.5 190,-0.5 0,-0.5"/>
<text text-anchor="middle" x="95" y="-78.5" font-family="Helvetica,sans-Serif" font-size="10.00">memoryoracle.whip.SugarDecorator</text>
<polyline fill="none" stroke="black" points="0,-71.5 190,-71.5 "/>
<text text-anchor="start" x="8" y="-59.5" font-family="Helvetica,sans-Serif" font-size="10.00">+ coffee</text>
<text text-anchor="start" x="8" y="-48.5" font-family="Helvetica,sans-Serif" font-size="10.00">&#45; _additionalCost</text>
<polyline fill="none" stroke="black" points="0,-41.5 190,-41.5 "/>
<text text-anchor="start" x="8" y="-29.5" font-family="Helvetica,sans-Serif" font-size="10.00">+ __init__()</text>
<text text-anchor="start" x="8" y="-18.5" font-family="Helvetica,sans-Serif" font-size="10.00">+ cost()</text>
<text text-anchor="start" x="8" y="-7.5" font-family="Helvetica,sans-Serif" font-size="10.00">+ name()</text>
</g>
<!-- Node2 -->
<g id="node2" class="node"><title>Node2</title>
<g id="a_node2"><a xlink:href="classmemoryoracle_1_1whip_1_1Coffee.html" target="_top" xlink:title="{memoryoracle.whip.Coffee\n||+ __init__()\l+ cost()\l+ name()\l}">
<polygon fill="none" stroke="black" points="23,-127.5 23,-206.5 167,-206.5 167,-127.5 23,-127.5"/>
<text text-anchor="middle" x="95" y="-194.5" font-family="Helvetica,sans-Serif" font-size="10.00">memoryoracle.whip.Coffee</text>
<polyline fill="none" stroke="black" points="23,-187.5 167,-187.5 "/>
<text text-anchor="middle" x="95" y="-175.5" font-family="Helvetica,sans-Serif" font-size="10.00"> </text>
<polyline fill="none" stroke="black" points="23,-168.5 167,-168.5 "/>
<text text-anchor="start" x="31" y="-156.5" font-family="Helvetica,sans-Serif" font-size="10.00">+ __init__()</text>
<text text-anchor="start" x="31" y="-145.5" font-family="Helvetica,sans-Serif" font-size="10.00">+ cost()</text>
<text text-anchor="start" x="31" y="-134.5" font-family="Helvetica,sans-Serif" font-size="10.00">+ name()</text>
</a>
</g>
</g>
<!-- Node2&#45;&gt;Node1 -->
<g id="edge1" class="edge"><title>Node2&#45;&gt;Node1</title>
<path fill="none" stroke="midnightblue" d="M95,-117.187C95,-108.491 95,-99.4758 95,-90.9111"/>
<polygon fill="none" stroke="midnightblue" points="91.5001,-117.202 95,-127.202 98.5001,-117.202 91.5001,-117.202"/>
</g>
<!-- Node3 -->
<g id="node3" class="node"><title>Node3</title>
<polygon fill="none" stroke="#bfbfbf" points="72,-243.5 72,-300.5 118,-300.5 118,-243.5 72,-243.5"/>
<text text-anchor="middle" x="95" y="-288.5" font-family="Helvetica,sans-Serif" font-size="10.00">object</text>
<polyline fill="none" stroke="#bfbfbf" points="72,-281.5 118,-281.5 "/>
<text text-anchor="middle" x="95" y="-269.5" font-family="Helvetica,sans-Serif" font-size="10.00"> </text>
<polyline fill="none" stroke="#bfbfbf" points="72,-262.5 118,-262.5 "/>
<text text-anchor="middle" x="95" y="-250.5" font-family="Helvetica,sans-Serif" font-size="10.00"> </text>
</g>
<!-- Node3&#45;&gt;Node2 -->
<g id="edge2" class="edge"><title>Node3&#45;&gt;Node2</title>
<path fill="none" stroke="midnightblue" d="M95,-233.156C95,-224.473 95,-215.232 95,-206.52"/>
<polygon fill="none" stroke="midnightblue" points="91.5001,-233.398 95,-243.398 98.5001,-233.398 91.5001,-233.398"/>
</g>
</g>
</svg>
