<?xml version="1.0" encoding="UTF-8" standalone="no"?>
<!DOCTYPE svg PUBLIC "-//W3C//DTD SVG 1.1//EN"
 "http://www.w3.org/Graphics/SVG/1.1/DTD/svg11.dtd">
<!-- Generated by graphviz version 2.38.0 (20140413.2041)
 -->
<!-- Title: memoryoracle.descriptions.AddressableDescription.dict Pages: 1 -->
<svg width="381pt" height="186pt"
 viewBox="0.00 0.00 381.00 186.00" xmlns="http://www.w3.org/2000/svg" xmlns:xlink="http://www.w3.org/1999/xlink">
<g id="graph0" class="graph" transform="scale(1 1) rotate(0) translate(4 182)">
<title>memoryoracle.descriptions.AddressableDescription.dict</title>
<!-- Node1 -->
<g id="node1" class="node"><title>Node1</title>
<polygon fill="#bfbfbf" stroke="black" points="0,-73.5 0,-103.5 150,-103.5 150,-73.5 0,-73.5"/>
<text text-anchor="start" x="8" y="-91.5" font-family="Helvetica,sans-Serif" font-size="10.00">memoryoracle.descriptions.</text>
<text text-anchor="middle" x="75" y="-80.5" font-family="Helvetica,sans-Serif" font-size="10.00">AddressableDescription.dict</text>
</g>
<!-- Node2 -->
<g id="node2" class="node"><title>Node2</title>
<g id="a_node2"><a xlink:href="classmemoryoracle_1_1descriptions_1_1AddressableDescription.html#ae2990546319af984b6fca1e78d854117" target="_top" xlink:title="memoryoracle.descriptions.\lAddressableDescription.frame">
<polygon fill="none" stroke="black" points="199,-147.5 199,-177.5 360,-177.5 360,-147.5 199,-147.5"/>
<text text-anchor="start" x="207" y="-165.5" font-family="Helvetica,sans-Serif" font-size="10.00">memoryoracle.descriptions.</text>
<text text-anchor="middle" x="279.5" y="-154.5" font-family="Helvetica,sans-Serif" font-size="10.00">AddressableDescription.frame</text>
</a>
</g>
</g>
<!-- Node1&#45;&gt;Node2 -->
<g id="edge1" class="edge"><title>Node1&#45;&gt;Node2</title>
<path fill="none" stroke="midnightblue" d="M105.307,-103.501C127.146,-114.263 157.92,-128.559 186,-138.5 191.953,-140.607 198.18,-142.619 204.469,-144.516"/>
<polygon fill="midnightblue" stroke="midnightblue" points="203.792,-147.964 214.372,-147.401 205.75,-141.243 203.792,-147.964"/>
</g>
<!-- Node3 -->
<g id="node3" class="node"><title>Node3</title>
<g id="a_node3"><a xlink:href="classmemoryoracle_1_1descriptions_1_1Description.html#a4b27c3ae1ef0ab35ec0f990fa553b8b3" target="_top" xlink:title="memoryoracle.descriptions.\lDescription.name">
<polygon fill="none" stroke="black" points="204.5,-98.5 204.5,-128.5 354.5,-128.5 354.5,-98.5 204.5,-98.5"/>
<text text-anchor="start" x="212.5" y="-116.5" font-family="Helvetica,sans-Serif" font-size="10.00">memoryoracle.descriptions.</text>
<text text-anchor="middle" x="279.5" y="-105.5" font-family="Helvetica,sans-Serif" font-size="10.00">Description.name</text>
</a>
</g>
</g>
<!-- Node1&#45;&gt;Node3 -->
<g id="edge2" class="edge"><title>Node1&#45;&gt;Node3</title>
<path fill="none" stroke="midnightblue" d="M150.254,-97.6671C164.561,-99.4334 179.644,-101.296 194.242,-103.098"/>
<polygon fill="midnightblue" stroke="midnightblue" points="193.902,-106.582 204.255,-104.334 194.76,-99.635 193.902,-106.582"/>
</g>
<!-- Node4 -->
<g id="node4" class="node"><title>Node4</title>
<g id="a_node4"><a xlink:href="classmemoryoracle_1_1descriptions_1_1AddressableDescription.html#ae3227952e6fe71fef67246da632126ce" target="_top" xlink:title="memoryoracle.descriptions.\lAddressableDescription.parent">
<polygon fill="none" stroke="black" points="197.5,-49.5 197.5,-79.5 361.5,-79.5 361.5,-49.5 197.5,-49.5"/>
<text text-anchor="start" x="205.5" y="-67.5" font-family="Helvetica,sans-Serif" font-size="10.00">memoryoracle.descriptions.</text>
<text text-anchor="middle" x="279.5" y="-56.5" font-family="Helvetica,sans-Serif" font-size="10.00">AddressableDescription.parent</text>
</a>
</g>
</g>
<!-- Node1&#45;&gt;Node4 -->
<g id="edge3" class="edge"><title>Node1&#45;&gt;Node4</title>
<path fill="none" stroke="midnightblue" d="M150.254,-79.6996C162.367,-78.2639 175.036,-76.7624 187.496,-75.2856"/>
<polygon fill="midnightblue" stroke="midnightblue" points="187.911,-78.761 197.43,-74.1083 187.087,-71.8097 187.911,-78.761"/>
</g>
<!-- Node5 -->
<g id="node5" class="node"><title>Node5</title>
<g id="a_node5"><a xlink:href="classmemoryoracle_1_1descriptions_1_1AddressableDescription.html#a7034b0f70e1481cd1dcdfe40bbc20964" target="_top" xlink:title="memoryoracle.descriptions.\lAddressableDescription.type_name">
<polygon fill="none" stroke="black" points="186,-0.5 186,-30.5 373,-30.5 373,-0.5 186,-0.5"/>
<text text-anchor="start" x="194" y="-18.5" font-family="Helvetica,sans-Serif" font-size="10.00">memoryoracle.descriptions.</text>
<text text-anchor="middle" x="279.5" y="-7.5" font-family="Helvetica,sans-Serif" font-size="10.00">AddressableDescription.type_name</text>
</a>
</g>
</g>
<!-- Node1&#45;&gt;Node5 -->
<g id="edge4" class="edge"><title>Node1&#45;&gt;Node5</title>
<path fill="none" stroke="midnightblue" d="M107.276,-73.3792C129.025,-63.2309 158.87,-50.027 186,-40.5 193.094,-38.009 200.566,-35.6183 208.061,-33.3702"/>
<polygon fill="midnightblue" stroke="midnightblue" points="209.279,-36.6609 217.899,-30.5005 207.319,-29.9409 209.279,-36.6609"/>
</g>
</g>
</svg>
