<?xml version="1.0" encoding="UTF-8" standalone="no"?>
<!DOCTYPE svg PUBLIC "-//W3C//DTD SVG 1.1//EN"
 "http://www.w3.org/Graphics/SVG/1.1/DTD/svg11.dtd">
<!-- Generated by graphviz version 2.38.0 (20140413.2041)
 -->
<!-- Title: memoryoracle.models.Symbol Pages: 1 -->
<svg width="172pt" height="480pt"
 viewBox="0.00 0.00 172.00 480.00" xmlns="http://www.w3.org/2000/svg" xmlns:xlink="http://www.w3.org/1999/xlink">
<g id="graph0" class="graph" transform="scale(1 1) rotate(0) translate(4 476)">
<title>memoryoracle.models.Symbol</title>
<!-- Node1 -->
<g id="node1" class="node"><title>Node1</title>
<polygon fill="#bfbfbf" stroke="black" points="0,-0.5 0,-57.5 164,-57.5 164,-0.5 0,-0.5"/>
<text text-anchor="middle" x="82" y="-45.5" font-family="Helvetica,sans-Serif" font-size="10.00">memoryoracle.models.Symbol</text>
<polyline fill="none" stroke="black" points="0,-38.5 164,-38.5 "/>
<text text-anchor="middle" x="82" y="-26.5" font-family="Helvetica,sans-Serif" font-size="10.00"> </text>
<polyline fill="none" stroke="black" points="0,-19.5 164,-19.5 "/>
<text text-anchor="middle" x="82" y="-7.5" font-family="Helvetica,sans-Serif" font-size="10.00"> </text>
</g>
<!-- Node2 -->
<g id="node2" class="node"><title>Node2</title>
<g id="a_node2"><a xlink:href="classmemoryoracle_1_1models_1_1Typed.html" target="_top" xlink:title="{memoryoracle.models.Typed\n|+ args\l+ debugee_data\l+ id_execution\l+ type\l+ description\l+ data\l&#45; _updatedNames\l&#45; _typeHandlerCode\l|+ track()\l+ __init__()\l+ type_code()\l+ gdb_type()\l+ type_handler()\l&#45; _basic_track()\l}">
<polygon fill="none" stroke="black" points="4.5,-94.5 4.5,-283.5 159.5,-283.5 159.5,-94.5 4.5,-94.5"/>
<text text-anchor="middle" x="82" y="-271.5" font-family="Helvetica,sans-Serif" font-size="10.00">memoryoracle.models.Typed</text>
<polyline fill="none" stroke="black" points="4.5,-264.5 159.5,-264.5 "/>
<text text-anchor="start" x="12.5" y="-252.5" font-family="Helvetica,sans-Serif" font-size="10.00">+ args</text>
<text text-anchor="start" x="12.5" y="-241.5" font-family="Helvetica,sans-Serif" font-size="10.00">+ debugee_data</text>
<text text-anchor="start" x="12.5" y="-230.5" font-family="Helvetica,sans-Serif" font-size="10.00">+ id_execution</text>
<text text-anchor="start" x="12.5" y="-219.5" font-family="Helvetica,sans-Serif" font-size="10.00">+ type</text>
<text text-anchor="start" x="12.5" y="-208.5" font-family="Helvetica,sans-Serif" font-size="10.00">+ description</text>
<text text-anchor="start" x="12.5" y="-197.5" font-family="Helvetica,sans-Serif" font-size="10.00">+ data</text>
<text text-anchor="start" x="12.5" y="-186.5" font-family="Helvetica,sans-Serif" font-size="10.00">&#45; _updatedNames</text>
<text text-anchor="start" x="12.5" y="-175.5" font-family="Helvetica,sans-Serif" font-size="10.00">&#45; _typeHandlerCode</text>
<polyline fill="none" stroke="black" points="4.5,-168.5 159.5,-168.5 "/>
<text text-anchor="start" x="12.5" y="-156.5" font-family="Helvetica,sans-Serif" font-size="10.00">+ track()</text>
<text text-anchor="start" x="12.5" y="-145.5" font-family="Helvetica,sans-Serif" font-size="10.00">+ __init__()</text>
<text text-anchor="start" x="12.5" y="-134.5" font-family="Helvetica,sans-Serif" font-size="10.00">+ type_code()</text>
<text text-anchor="start" x="12.5" y="-123.5" font-family="Helvetica,sans-Serif" font-size="10.00">+ gdb_type()</text>
<text text-anchor="start" x="12.5" y="-112.5" font-family="Helvetica,sans-Serif" font-size="10.00">+ type_handler()</text>
<text text-anchor="start" x="12.5" y="-101.5" font-family="Helvetica,sans-Serif" font-size="10.00">&#45; _basic_track()</text>
</a>
</g>
</g>
<!-- Node2&#45;&gt;Node1 -->
<g id="edge1" class="edge"><title>Node2&#45;&gt;Node1</title>
<path fill="none" stroke="midnightblue" d="M82,-84.1277C82,-74.5626 82,-65.5392 82,-57.7023"/>
<polygon fill="none" stroke="midnightblue" points="78.5001,-84.2646 82,-94.2646 85.5001,-84.2647 78.5001,-84.2646"/>
</g>
<!-- Node3 -->
<g id="node3" class="node"><title>Node3</title>
<g id="a_node3"><a xlink:href="classmemoryoracle_1_1models_1_1Tracked.html" target="_top" xlink:title="{memoryoracle.models.Tracked\n|+ name\l|}">
<polygon fill="none" stroke="black" points="0,-320.5 0,-377.5 164,-377.5 164,-320.5 0,-320.5"/>
<text text-anchor="middle" x="82" y="-365.5" font-family="Helvetica,sans-Serif" font-size="10.00">memoryoracle.models.Tracked</text>
<polyline fill="none" stroke="black" points="0,-358.5 164,-358.5 "/>
<text text-anchor="start" x="8" y="-346.5" font-family="Helvetica,sans-Serif" font-size="10.00">+ name</text>
<polyline fill="none" stroke="black" points="0,-339.5 164,-339.5 "/>
<text text-anchor="middle" x="82" y="-327.5" font-family="Helvetica,sans-Serif" font-size="10.00"> </text>
</a>
</g>
</g>
<!-- Node3&#45;&gt;Node2 -->
<g id="edge2" class="edge"><title>Node3&#45;&gt;Node2</title>
<path fill="none" stroke="midnightblue" d="M82,-310.215C82,-302.012 82,-292.986 82,-283.678"/>
<polygon fill="none" stroke="midnightblue" points="78.5001,-310.478 82,-320.479 85.5001,-310.479 78.5001,-310.478"/>
</g>
<!-- Node4 -->
<g id="node4" class="node"><title>Node4</title>
<polygon fill="none" stroke="#bfbfbf" points="39,-414.5 39,-471.5 125,-471.5 125,-414.5 39,-414.5"/>
<text text-anchor="middle" x="82" y="-459.5" font-family="Helvetica,sans-Serif" font-size="10.00">models::Model</text>
<polyline fill="none" stroke="#bfbfbf" points="39,-452.5 125,-452.5 "/>
<text text-anchor="middle" x="82" y="-440.5" font-family="Helvetica,sans-Serif" font-size="10.00"> </text>
<polyline fill="none" stroke="#bfbfbf" points="39,-433.5 125,-433.5 "/>
<text text-anchor="middle" x="82" y="-421.5" font-family="Helvetica,sans-Serif" font-size="10.00"> </text>
</g>
<!-- Node4&#45;&gt;Node3 -->
<g id="edge3" class="edge"><title>Node4&#45;&gt;Node3</title>
<path fill="none" stroke="midnightblue" d="M82,-404.209C82,-395.293 82,-385.951 82,-377.584"/>
<polygon fill="none" stroke="midnightblue" points="78.5001,-404.397 82,-414.397 85.5001,-404.397 78.5001,-404.397"/>
</g>
</g>
</svg>
