<?xml version="1.0" encoding="UTF-8" standalone="no"?>
<!DOCTYPE svg PUBLIC "-//W3C//DTD SVG 1.1//EN"
 "http://www.w3.org/Graphics/SVG/1.1/DTD/svg11.dtd">
<!-- Generated by graphviz version 2.38.0 (20140413.2041)
 -->
<!-- Title: memoryoracle.instance.StructureInstance._track Pages: 1 -->
<svg width="668pt" height="116pt"
 viewBox="0.00 0.00 668.00 116.00" xmlns="http://www.w3.org/2000/svg" xmlns:xlink="http://www.w3.org/1999/xlink">
<g id="graph0" class="graph" transform="scale(1 1) rotate(0) translate(4 112)">
<title>memoryoracle.instance.StructureInstance._track</title>
<!-- Node1 -->
<g id="node1" class="node"><title>Node1</title>
<polygon fill="#bfbfbf" stroke="black" points="0,-58 0,-88 178,-88 178,-58 0,-58"/>
<text text-anchor="start" x="8" y="-76" font-family="Helvetica,sans-Serif" font-size="10.00">memoryoracle.instance.Structure</text>
<text text-anchor="middle" x="89" y="-65" font-family="Helvetica,sans-Serif" font-size="10.00">Instance._track</text>
</g>
<!-- Node2 -->
<g id="node2" class="node"><title>Node2</title>
<g id="a_node2"><a xlink:href="classmemoryoracle_1_1instance_1_1Instance.html#a86649e01ee4f562debdba5421a334f78" target="_top" xlink:title="memoryoracle.instance.Instance.track">
<polygon fill="none" stroke="black" points="214,-44.5 214,-63.5 414,-63.5 414,-44.5 214,-44.5"/>
<text text-anchor="middle" x="314" y="-51.5" font-family="Helvetica,sans-Serif" font-size="10.00">memoryoracle.instance.Instance.track</text>
</a>
</g>
</g>
<!-- Node1&#45;&gt;Node2 -->
<g id="edge1" class="edge"><title>Node1&#45;&gt;Node2</title>
<path fill="none" stroke="midnightblue" d="M188.347,-64.6206C196.771,-63.9029 205.297,-63.1765 213.728,-62.4582"/>
<polygon fill="midnightblue" stroke="midnightblue" points="187.802,-61.1543 178.136,-65.4907 188.397,-68.129 187.802,-61.1543"/>
</g>
<!-- Node6 -->
<g id="node6" class="node"><title>Node6</title>
<g id="a_node6"><a xlink:href="classmemoryoracle_1_1models_1_1Memory.html#a27f8d94aeb19f8101c29a673c7bae4a1" target="_top" xlink:title="memoryoracle.models.Memory.track">
<polygon fill="none" stroke="black" points="218,-82.5 218,-101.5 410,-101.5 410,-82.5 218,-82.5"/>
<text text-anchor="middle" x="314" y="-89.5" font-family="Helvetica,sans-Serif" font-size="10.00">memoryoracle.models.Memory.track</text>
</a>
</g>
</g>
<!-- Node1&#45;&gt;Node6 -->
<g id="edge5" class="edge"><title>Node1&#45;&gt;Node6</title>
<path fill="none" stroke="midnightblue" d="M188.287,-81.3742C198.088,-82.2093 208.027,-83.0561 217.796,-83.8885"/>
<polygon fill="midnightblue" stroke="midnightblue" points="188.397,-77.871 178.136,-80.5093 187.802,-84.8457 188.397,-77.871"/>
</g>
<!-- Node3 -->
<g id="node3" class="node"><title>Node3</title>
<g id="a_node3"><a xlink:href="classmemoryoracle_1_1models_1_1Memory.html#aed3af349dd80317ae9cca4b4e9cb7c26" target="_top" xlink:title="memoryoracle.models.Memory.\l__init__">
<polygon fill="none" stroke="black" points="471,-39 471,-69 639,-69 639,-39 471,-39"/>
<text text-anchor="start" x="479" y="-57" font-family="Helvetica,sans-Serif" font-size="10.00">memoryoracle.models.Memory.</text>
<text text-anchor="middle" x="555" y="-46" font-family="Helvetica,sans-Serif" font-size="10.00">__init__</text>
</a>
</g>
</g>
<!-- Node2&#45;&gt;Node3 -->
<g id="edge2" class="edge"><title>Node2&#45;&gt;Node3</title>
<path fill="none" stroke="midnightblue" d="M424.5,-54C440.117,-54 455.964,-54 470.964,-54"/>
<polygon fill="midnightblue" stroke="midnightblue" points="424.281,-50.5001 414.281,-54 424.281,-57.5001 424.281,-50.5001"/>
</g>
<!-- Node4 -->
<g id="node4" class="node"><title>Node4</title>
<g id="a_node4"><a xlink:href="classmemoryoracle_1_1instance_1_1Instance.html#a286e015a030541a0704994172024f034" target="_top" xlink:title="memoryoracle.instance.Instance.update">
<polygon fill="none" stroke="black" points="450,-0.5 450,-19.5 660,-19.5 660,-0.5 450,-0.5"/>
<text text-anchor="middle" x="555" y="-7.5" font-family="Helvetica,sans-Serif" font-size="10.00">memoryoracle.instance.Instance.update</text>
</a>
</g>
</g>
<!-- Node2&#45;&gt;Node4 -->
<g id="edge3" class="edge"><title>Node2&#45;&gt;Node4</title>
<path fill="none" stroke="midnightblue" d="M376.292,-42.6174C399.393,-38.3357 425.903,-33.4323 450,-29 466.788,-25.912 485.104,-22.5602 501.621,-19.5437"/>
<polygon fill="midnightblue" stroke="midnightblue" points="375.473,-39.2094 366.279,-44.4738 376.749,-46.0921 375.473,-39.2094"/>
</g>
<!-- Node5 -->
<g id="node5" class="node"><title>Node5</title>
<g id="a_node5"><a xlink:href="classmemoryoracle_1_1models_1_1Memory.html#a71d4a141abc3358afdf1a1325bfd4253" target="_top" xlink:title="memoryoracle.models.Memory.update">
<polygon fill="none" stroke="black" points="454,-88.5 454,-107.5 656,-107.5 656,-88.5 454,-88.5"/>
<text text-anchor="middle" x="555" y="-95.5" font-family="Helvetica,sans-Serif" font-size="10.00">memoryoracle.models.Memory.update</text>
</a>
</g>
</g>
<!-- Node2&#45;&gt;Node5 -->
<g id="edge4" class="edge"><title>Node2&#45;&gt;Node5</title>
<path fill="none" stroke="midnightblue" d="M377.014,-65.4168C415.907,-72.577 465.465,-81.7007 502.242,-88.4713"/>
<polygon fill="midnightblue" stroke="midnightblue" points="377.328,-61.9158 366.859,-63.5473 376.06,-68.8002 377.328,-61.9158"/>
</g>
<!-- Node6&#45;&gt;Node3 -->
<g id="edge7" class="edge"><title>Node6&#45;&gt;Node3</title>
<path fill="none" stroke="midnightblue" d="M385.097,-80.8548C411.995,-76.5782 442.946,-71.6571 470.945,-67.2053"/>
<polygon fill="midnightblue" stroke="midnightblue" points="384.328,-77.4331 375.001,-82.46 385.427,-84.3463 384.328,-77.4331"/>
</g>
<!-- Node6&#45;&gt;Node5 -->
<g id="edge6" class="edge"><title>Node6&#45;&gt;Node5</title>
<path fill="none" stroke="midnightblue" d="M420.283,-94.6431C431.385,-94.9218 442.652,-95.2047 453.695,-95.4819"/>
<polygon fill="midnightblue" stroke="midnightblue" points="420.231,-91.1408 410.146,-94.3886 420.055,-98.1386 420.231,-91.1408"/>
</g>
</g>
</svg>
