<?xml version="1.0" encoding="UTF-8" standalone="no"?>
<!DOCTYPE svg PUBLIC "-//W3C//DTD SVG 1.1//EN"
 "http://www.w3.org/Graphics/SVG/1.1/DTD/svg11.dtd">
<!-- Generated by graphviz version 2.38.0 (20140413.2041)
 -->
<!-- Title: memoryoracle.instance.Primitive._track Pages: 1 -->
<svg width="610pt" height="189pt"
 viewBox="0.00 0.00 610.00 188.50" xmlns="http://www.w3.org/2000/svg" xmlns:xlink="http://www.w3.org/1999/xlink">
<g id="graph0" class="graph" transform="scale(1 1) rotate(0) translate(4 184.5)">
<title>memoryoracle.instance.Primitive._track</title>
<!-- Node1 -->
<g id="node1" class="node"><title>Node1</title>
<polygon fill="#bfbfbf" stroke="black" points="0,-95.5 0,-125.5 177,-125.5 177,-95.5 0,-95.5"/>
<text text-anchor="start" x="8" y="-113.5" font-family="Helvetica,sans-Serif" font-size="10.00">memoryoracle.instance.Primitive.</text>
<text text-anchor="middle" x="88.5" y="-102.5" font-family="Helvetica,sans-Serif" font-size="10.00">_track</text>
</g>
<!-- Node2 -->
<g id="node2" class="node"><title>Node2</title>
<g id="a_node2"><a xlink:href="classmemoryoracle_1_1frame_1_1Frame.html#aba4a80563b93cf0069db8d64df6b19e5" target="_top" xlink:title="memoryoracle.frame.Frame.index">
<polygon fill="none" stroke="black" points="224.5,-161 224.5,-180 403.5,-180 403.5,-161 224.5,-161"/>
<text text-anchor="middle" x="314" y="-168" font-family="Helvetica,sans-Serif" font-size="10.00">memoryoracle.frame.Frame.index</text>
</a>
</g>
</g>
<!-- Node1&#45;&gt;Node2 -->
<g id="edge1" class="edge"><title>Node1&#45;&gt;Node2</title>
<path fill="none" stroke="midnightblue" d="M130.259,-125.547C154.137,-133.98 185.012,-144.23 213,-151.5 223.542,-154.238 234.804,-156.759 245.828,-159.009"/>
<polygon fill="midnightblue" stroke="midnightblue" points="245.369,-162.486 255.858,-160.997 246.73,-155.62 245.369,-162.486"/>
</g>
<!-- Node3 -->
<g id="node3" class="node"><title>Node3</title>
<g id="a_node3"><a xlink:href="classmemoryoracle_1_1instance_1_1Instance.html#a67d649391bded2256ff9a72e2a61143f" target="_top" xlink:title="memoryoracle.instance.Instance.index">
<polygon fill="none" stroke="black" points="213,-123 213,-142 415,-142 415,-123 213,-123"/>
<text text-anchor="middle" x="314" y="-130" font-family="Helvetica,sans-Serif" font-size="10.00">memoryoracle.instance.Instance.index</text>
</a>
</g>
</g>
<!-- Node1&#45;&gt;Node3 -->
<g id="edge2" class="edge"><title>Node1&#45;&gt;Node3</title>
<path fill="none" stroke="midnightblue" d="M177.192,-119.132C186.722,-120.07 196.497,-121.032 206.223,-121.989"/>
<polygon fill="midnightblue" stroke="midnightblue" points="206.032,-125.488 216.327,-122.984 206.718,-118.521 206.032,-125.488"/>
</g>
<!-- Node4 -->
<g id="node4" class="node"><title>Node4</title>
<g id="a_node4"><a xlink:href="classmemoryoracle_1_1descriptions_1_1InstanceDescription.html#a1f771d354e77a6725cc27559c8bfb52d" target="_top" xlink:title="memoryoracle.descriptions.\lInstanceDescription.object">
<polygon fill="none" stroke="black" points="239,-73.5 239,-103.5 389,-103.5 389,-73.5 239,-73.5"/>
<text text-anchor="start" x="247" y="-91.5" font-family="Helvetica,sans-Serif" font-size="10.00">memoryoracle.descriptions.</text>
<text text-anchor="middle" x="314" y="-80.5" font-family="Helvetica,sans-Serif" font-size="10.00">InstanceDescription.object</text>
</a>
</g>
</g>
<!-- Node1&#45;&gt;Node4 -->
<g id="edge3" class="edge"><title>Node1&#45;&gt;Node4</title>
<path fill="none" stroke="midnightblue" d="M177.192,-101.868C194.105,-100.203 211.789,-98.4626 228.595,-96.8083"/>
<polygon fill="midnightblue" stroke="midnightblue" points="229.322,-100.254 238.931,-95.7909 228.636,-93.2875 229.322,-100.254"/>
</g>
<!-- Node5 -->
<g id="node5" class="node"><title>Node5</title>
<g id="a_node5"><a xlink:href="classmemoryoracle_1_1instance_1_1Primitive.html#abc513cbf3d0938c0db133e9af0a6f5ea" target="_top" xlink:title="memoryoracle.instance.Primitive.val\l_string">
<polygon fill="none" stroke="black" points="218.5,-24.5 218.5,-54.5 409.5,-54.5 409.5,-24.5 218.5,-24.5"/>
<text text-anchor="start" x="226.5" y="-42.5" font-family="Helvetica,sans-Serif" font-size="10.00">memoryoracle.instance.Primitive.val</text>
<text text-anchor="middle" x="314" y="-31.5" font-family="Helvetica,sans-Serif" font-size="10.00">_string</text>
</a>
</g>
</g>
<!-- Node1&#45;&gt;Node5 -->
<g id="edge4" class="edge"><title>Node1&#45;&gt;Node5</title>
<path fill="none" stroke="midnightblue" d="M126.688,-95.4112C151.01,-85.8514 183.608,-73.6167 213,-64.5 221.258,-61.9385 229.961,-59.4533 238.647,-57.107"/>
<polygon fill="midnightblue" stroke="midnightblue" points="239.65,-60.4621 248.422,-54.5202 237.859,-53.6951 239.65,-60.4621"/>
</g>
<!-- Node6 -->
<g id="node6" class="node"><title>Node6</title>
<g id="a_node6"><a xlink:href="classmemoryoracle_1_1descriptions_1_1InstanceDescription.html#ac4d8f16a2b5761e93508cb4ff73b654c" target="_top" xlink:title="memoryoracle.descriptions.\lInstanceDescription.frame">
<polygon fill="none" stroke="black" points="451.5,-49.5 451.5,-79.5 601.5,-79.5 601.5,-49.5 451.5,-49.5"/>
<text text-anchor="start" x="459.5" y="-67.5" font-family="Helvetica,sans-Serif" font-size="10.00">memoryoracle.descriptions.</text>
<text text-anchor="middle" x="526.5" y="-56.5" font-family="Helvetica,sans-Serif" font-size="10.00">InstanceDescription.frame</text>
</a>
</g>
</g>
<!-- Node5&#45;&gt;Node6 -->
<g id="edge5" class="edge"><title>Node5&#45;&gt;Node6</title>
<path fill="none" stroke="midnightblue" d="M409.782,-50.7567C420.258,-52.0009 430.873,-53.2617 441.208,-54.4891"/>
<polygon fill="midnightblue" stroke="midnightblue" points="441.091,-57.9996 451.434,-55.7035 441.916,-51.0485 441.091,-57.9996"/>
</g>
<!-- Node7 -->
<g id="node7" class="node"><title>Node7</title>
<g id="a_node7"><a xlink:href="classmemoryoracle_1_1frame_1_1FrameSelector.html#a20efcc94b4e8fcff6836bf82f3557af9" target="_top" xlink:title="memoryoracle.frame.Frame\lSelector.frame">
<polygon fill="none" stroke="black" points="451,-0.5 451,-30.5 602,-30.5 602,-0.5 451,-0.5"/>
<text text-anchor="start" x="459" y="-18.5" font-family="Helvetica,sans-Serif" font-size="10.00">memoryoracle.frame.Frame</text>
<text text-anchor="middle" x="526.5" y="-7.5" font-family="Helvetica,sans-Serif" font-size="10.00">Selector.frame</text>
</a>
</g>
</g>
<!-- Node5&#45;&gt;Node7 -->
<g id="edge6" class="edge"><title>Node5&#45;&gt;Node7</title>
<path fill="none" stroke="midnightblue" d="M409.782,-28.6936C420.094,-27.5178 430.542,-26.3266 440.723,-25.1657"/>
<polygon fill="midnightblue" stroke="midnightblue" points="441.263,-28.627 450.802,-24.0167 440.47,-21.6721 441.263,-28.627"/>
</g>
</g>
</svg>
