<?xml version="1.0" encoding="UTF-8" standalone="no"?>
<!DOCTYPE svg PUBLIC "-//W3C//DTD SVG 1.1//EN"
 "http://www.w3.org/Graphics/SVG/1.1/DTD/svg11.dtd">
<!-- Generated by graphviz version 2.38.0 (20140413.2041)
 -->
<!-- Title: memoryoracle.descriptions.StandardDescriptionDecorator.description Pages: 1 -->
<svg width="886pt" height="166pt"
 viewBox="0.00 0.00 886.00 165.50" xmlns="http://www.w3.org/2000/svg" xmlns:xlink="http://www.w3.org/1999/xlink">
<g id="graph0" class="graph" transform="scale(1 1) rotate(0) translate(4 161.5)">
<title>memoryoracle.descriptions.StandardDescriptionDecorator.description</title>
<!-- Node1 -->
<g id="node1" class="node"><title>Node1</title>
<polygon fill="#bfbfbf" stroke="black" points="0,-82.5 0,-112.5 218,-112.5 218,-82.5 0,-82.5"/>
<text text-anchor="start" x="8" y="-100.5" font-family="Helvetica,sans-Serif" font-size="10.00">memoryoracle.descriptions.</text>
<text text-anchor="middle" x="109" y="-89.5" font-family="Helvetica,sans-Serif" font-size="10.00">StandardDescriptionDecorator.description</text>
</g>
<!-- Node2 -->
<g id="node2" class="node"><title>Node2</title>
<g id="a_node2"><a xlink:href="classmemoryoracle_1_1instance_1_1Int.html#a38c9424341353f006771163d360594da" target="_top" xlink:title="memoryoracle.instance.Int.\l_track">
<polygon fill="none" stroke="black" points="254,-82.5 254,-112.5 402,-112.5 402,-82.5 254,-82.5"/>
<text text-anchor="start" x="262" y="-100.5" font-family="Helvetica,sans-Serif" font-size="10.00">memoryoracle.instance.Int.</text>
<text text-anchor="middle" x="328" y="-89.5" font-family="Helvetica,sans-Serif" font-size="10.00">_track</text>
</a>
</g>
</g>
<!-- Node1&#45;&gt;Node2 -->
<g id="edge1" class="edge"><title>Node1&#45;&gt;Node2</title>
<path fill="none" stroke="midnightblue" d="M228.382,-97.5C237.048,-97.5 245.63,-97.5 253.904,-97.5"/>
<polygon fill="midnightblue" stroke="midnightblue" points="228.182,-94.0001 218.182,-97.5 228.182,-101 228.182,-94.0001"/>
</g>
<!-- Node3 -->
<g id="node3" class="node"><title>Node3</title>
<g id="a_node3"><a xlink:href="classmemoryoracle_1_1instance_1_1Memory.html#a8951ac234fecbd6cd473133ae7e63662" target="_top" xlink:title="memoryoracle.instance.Memory.track">
<polygon fill="none" stroke="black" points="438,-88 438,-107 635,-107 635,-88 438,-88"/>
<text text-anchor="middle" x="536.5" y="-95" font-family="Helvetica,sans-Serif" font-size="10.00">memoryoracle.instance.Memory.track</text>
</a>
</g>
</g>
<!-- Node2&#45;&gt;Node3 -->
<g id="edge2" class="edge"><title>Node2&#45;&gt;Node3</title>
<path fill="none" stroke="midnightblue" d="M412.28,-90.8635C420.718,-90.7665 429.341,-90.7317 437.912,-90.759"/>
<polygon fill="midnightblue" stroke="midnightblue" points="412.042,-87.3665 402.095,-91.0127 412.145,-94.3658 412.042,-87.3665"/>
</g>
<!-- Node8 -->
<g id="node8" class="node"><title>Node8</title>
<g id="a_node8"><a xlink:href="classmemoryoracle_1_1models_1_1Typed.html#aa1d5d8d5b7ebe5c2876f363e7eb669db" target="_top" xlink:title="memoryoracle.models.Typed.track">
<polygon fill="none" stroke="black" points="445.5,-50 445.5,-69 627.5,-69 627.5,-50 445.5,-50"/>
<text text-anchor="middle" x="536.5" y="-57" font-family="Helvetica,sans-Serif" font-size="10.00">memoryoracle.models.Typed.track</text>
</a>
</g>
</g>
<!-- Node2&#45;&gt;Node8 -->
<g id="edge8" class="edge"><title>Node2&#45;&gt;Node8</title>
<path fill="none" stroke="midnightblue" d="M411.991,-82.2281C436.18,-77.7768 461.914,-73.0413 483.595,-69.0514"/>
<polygon fill="midnightblue" stroke="midnightblue" points="411.296,-78.7971 402.095,-84.0491 412.563,-85.6815 411.296,-78.7971"/>
</g>
<!-- Node3&#45;&gt;Node2 -->
<g id="edge4" class="edge"><title>Node3&#45;&gt;Node2</title>
<path fill="none" stroke="midnightblue" d="M427.73,-104.244C419.061,-104.222 410.434,-104.137 402.095,-103.987"/>
<polygon fill="midnightblue" stroke="midnightblue" points="427.913,-107.744 437.912,-104.241 427.911,-100.744 427.913,-107.744"/>
</g>
<!-- Node4 -->
<g id="node4" class="node"><title>Node4</title>
<g id="a_node4"><a xlink:href="classmemoryoracle_1_1instance_1_1Memory.html#aa937ea1a82dcaa2fa1c868a387d59483" target="_top" xlink:title="memoryoracle.instance.Memory.update">
<polygon fill="none" stroke="black" points="671,-138 671,-157 878,-157 878,-138 671,-138"/>
<text text-anchor="middle" x="774.5" y="-145" font-family="Helvetica,sans-Serif" font-size="10.00">memoryoracle.instance.Memory.update</text>
</a>
</g>
</g>
<!-- Node3&#45;&gt;Node4 -->
<g id="edge3" class="edge"><title>Node3&#45;&gt;Node4</title>
<path fill="none" stroke="midnightblue" d="M586.577,-109.452C611.757,-115.442 642.954,-122.647 671,-128.5 686.768,-131.79 703.961,-135.089 719.682,-137.993"/>
<polygon fill="midnightblue" stroke="midnightblue" points="587.076,-105.972 576.536,-107.051 585.448,-112.78 587.076,-105.972"/>
</g>
<!-- Node5 -->
<g id="node5" class="node"><title>Node5</title>
<g id="a_node5"><a xlink:href="classmemoryoracle_1_1models_1_1Typed.html#a494dfbe205034b874ff9e8c7039f579b" target="_top" xlink:title="memoryoracle.models.Typed.\l__init__">
<polygon fill="none" stroke="black" points="695.5,-88.5 695.5,-118.5 853.5,-118.5 853.5,-88.5 695.5,-88.5"/>
<text text-anchor="start" x="703.5" y="-106.5" font-family="Helvetica,sans-Serif" font-size="10.00">memoryoracle.models.Typed.</text>
<text text-anchor="middle" x="774.5" y="-95.5" font-family="Helvetica,sans-Serif" font-size="10.00">__init__</text>
</a>
</g>
</g>
<!-- Node3&#45;&gt;Node5 -->
<g id="edge5" class="edge"><title>Node3&#45;&gt;Node5</title>
<path fill="none" stroke="midnightblue" d="M645.584,-100.248C662.346,-100.674 679.377,-101.107 695.311,-101.512"/>
<polygon fill="midnightblue" stroke="midnightblue" points="645.28,-96.7391 635.194,-99.9837 645.102,-103.737 645.28,-96.7391"/>
</g>
<!-- Node6 -->
<g id="node6" class="node"><title>Node6</title>
<g id="a_node6"><a xlink:href="classmemoryoracle_1_1models_1_1Memory.html#a71d4a141abc3358afdf1a1325bfd4253" target="_top" xlink:title="memoryoracle.models.Memory.update">
<polygon fill="none" stroke="black" points="673.5,-50 673.5,-69 875.5,-69 875.5,-50 673.5,-50"/>
<text text-anchor="middle" x="774.5" y="-57" font-family="Helvetica,sans-Serif" font-size="10.00">memoryoracle.models.Memory.update</text>
</a>
</g>
</g>
<!-- Node3&#45;&gt;Node6 -->
<g id="edge6" class="edge"><title>Node3&#45;&gt;Node6</title>
<path fill="none" stroke="midnightblue" d="M606.649,-86.3659C640.783,-80.8697 681.54,-74.3071 714.227,-69.0439"/>
<polygon fill="midnightblue" stroke="midnightblue" points="606.065,-82.9148 596.748,-87.96 607.177,-89.8258 606.065,-82.9148"/>
</g>
<!-- Node7 -->
<g id="node7" class="node"><title>Node7</title>
<g id="a_node7"><a xlink:href="classmemoryoracle_1_1models_1_1Memory.html#aed3af349dd80317ae9cca4b4e9cb7c26" target="_top" xlink:title="memoryoracle.models.Memory.\l__init__">
<polygon fill="none" stroke="black" points="690.5,-0.5 690.5,-30.5 858.5,-30.5 858.5,-0.5 690.5,-0.5"/>
<text text-anchor="start" x="698.5" y="-18.5" font-family="Helvetica,sans-Serif" font-size="10.00">memoryoracle.models.Memory.</text>
<text text-anchor="middle" x="774.5" y="-7.5" font-family="Helvetica,sans-Serif" font-size="10.00">__init__</text>
</a>
</g>
</g>
<!-- Node3&#45;&gt;Node7 -->
<g id="edge7" class="edge"><title>Node3&#45;&gt;Node7</title>
<path fill="none" stroke="midnightblue" d="M621.732,-84.6476C626.325,-82.8556 630.782,-80.8176 635,-78.5 655.389,-67.2967 650.878,-52.1771 671,-40.5 677.733,-36.5927 685.055,-33.2937 692.586,-30.5087"/>
<polygon fill="midnightblue" stroke="midnightblue" points="620.433,-81.3936 612.143,-87.9909 622.738,-88.0033 620.433,-81.3936"/>
</g>
<!-- Node8&#45;&gt;Node5 -->
<g id="edge9" class="edge"><title>Node8&#45;&gt;Node5</title>
<path fill="none" stroke="midnightblue" d="M598.866,-70.9412C628.363,-76.4406 664.048,-83.0938 695.453,-88.9489"/>
<polygon fill="midnightblue" stroke="midnightblue" points="599.181,-67.4395 588.708,-69.0473 597.898,-74.321 599.181,-67.4395"/>
</g>
<!-- Node8&#45;&gt;Node6 -->
<g id="edge10" class="edge"><title>Node8&#45;&gt;Node6</title>
<path fill="none" stroke="midnightblue" d="M637.988,-59.5C649.742,-59.5 661.733,-59.5 673.481,-59.5"/>
<polygon fill="midnightblue" stroke="midnightblue" points="637.732,-56.0001 627.732,-59.5 637.732,-63.0001 637.732,-56.0001"/>
</g>
<!-- Node8&#45;&gt;Node7 -->
<g id="edge11" class="edge"><title>Node8&#45;&gt;Node7</title>
<path fill="none" stroke="midnightblue" d="M598.594,-48.1095C627.284,-42.7606 661.875,-36.3114 692.695,-30.5654"/>
<polygon fill="midnightblue" stroke="midnightblue" points="597.898,-44.679 588.708,-49.9527 599.181,-51.5605 597.898,-44.679"/>
</g>
</g>
</svg>
