<?xml version="1.0" encoding="UTF-8" standalone="no"?>
<!DOCTYPE svg PUBLIC "-//W3C//DTD SVG 1.1//EN"
 "http://www.w3.org/Graphics/SVG/1.1/DTD/svg11.dtd">
<!-- Generated by graphviz version 2.38.0 (20140413.2041)
 -->
<!-- Title: memoryoracle.tracked.Tracked.description Pages: 1 -->
<svg width="888pt" height="165pt"
 viewBox="0.00 0.00 888.00 164.50" xmlns="http://www.w3.org/2000/svg" xmlns:xlink="http://www.w3.org/1999/xlink">
<g id="graph0" class="graph" transform="scale(1 1) rotate(0) translate(4 160.5)">
<title>memoryoracle.tracked.Tracked.description</title>
<!-- Node1 -->
<g id="node1" class="node"><title>Node1</title>
<polygon fill="#bfbfbf" stroke="black" points="0,-44.5 0,-63.5 220,-63.5 220,-44.5 0,-44.5"/>
<text text-anchor="middle" x="110" y="-51.5" font-family="Helvetica,sans-Serif" font-size="10.00">memoryoracle.tracked.Tracked.description</text>
</g>
<!-- Node2 -->
<g id="node2" class="node"><title>Node2</title>
<g id="a_node2"><a xlink:href="classmemoryoracle_1_1instance_1_1Int.html#a38c9424341353f006771163d360594da" target="_top" xlink:title="memoryoracle.instance.Int.\l_track">
<polygon fill="none" stroke="black" points="256,-39 256,-69 404,-69 404,-39 256,-39"/>
<text text-anchor="start" x="264" y="-57" font-family="Helvetica,sans-Serif" font-size="10.00">memoryoracle.instance.Int.</text>
<text text-anchor="middle" x="330" y="-46" font-family="Helvetica,sans-Serif" font-size="10.00">_track</text>
</a>
</g>
</g>
<!-- Node1&#45;&gt;Node2 -->
<g id="edge1" class="edge"><title>Node1&#45;&gt;Node2</title>
<path fill="none" stroke="midnightblue" d="M230.434,-54C239.027,-54 247.533,-54 255.736,-54"/>
<polygon fill="midnightblue" stroke="midnightblue" points="230.319,-50.5001 220.319,-54 230.319,-57.5001 230.319,-50.5001"/>
</g>
<!-- Node3 -->
<g id="node3" class="node"><title>Node3</title>
<g id="a_node3"><a xlink:href="classmemoryoracle_1_1instance_1_1Memory.html#a8951ac234fecbd6cd473133ae7e63662" target="_top" xlink:title="memoryoracle.instance.Memory.track">
<polygon fill="none" stroke="black" points="440,-44.5 440,-63.5 637,-63.5 637,-44.5 440,-44.5"/>
<text text-anchor="middle" x="538.5" y="-51.5" font-family="Helvetica,sans-Serif" font-size="10.00">memoryoracle.instance.Memory.track</text>
</a>
</g>
</g>
<!-- Node2&#45;&gt;Node3 -->
<g id="edge2" class="edge"><title>Node2&#45;&gt;Node3</title>
<path fill="none" stroke="midnightblue" d="M414.28,-47.3635C422.718,-47.2665 431.341,-47.2317 439.912,-47.259"/>
<polygon fill="midnightblue" stroke="midnightblue" points="414.042,-43.8665 404.095,-47.5127 414.145,-50.8658 414.042,-43.8665"/>
</g>
<!-- Node8 -->
<g id="node8" class="node"><title>Node8</title>
<g id="a_node8"><a xlink:href="classmemoryoracle_1_1models_1_1Typed.html#aa1d5d8d5b7ebe5c2876f363e7eb669db" target="_top" xlink:title="memoryoracle.models.Typed.track">
<polygon fill="none" stroke="black" points="447.5,-82.5 447.5,-101.5 629.5,-101.5 629.5,-82.5 447.5,-82.5"/>
<text text-anchor="middle" x="538.5" y="-89.5" font-family="Helvetica,sans-Serif" font-size="10.00">memoryoracle.models.Typed.track</text>
</a>
</g>
</g>
<!-- Node2&#45;&gt;Node8 -->
<g id="edge8" class="edge"><title>Node2&#45;&gt;Node8</title>
<path fill="none" stroke="midnightblue" d="M413.991,-69.2719C438.18,-73.7232 463.914,-78.4587 485.595,-82.4486"/>
<polygon fill="midnightblue" stroke="midnightblue" points="414.563,-65.8185 404.095,-67.4509 413.296,-72.7029 414.563,-65.8185"/>
</g>
<!-- Node3&#45;&gt;Node2 -->
<g id="edge5" class="edge"><title>Node3&#45;&gt;Node2</title>
<path fill="none" stroke="midnightblue" d="M429.73,-60.7442C421.061,-60.7222 412.434,-60.6365 404.095,-60.4873"/>
<polygon fill="midnightblue" stroke="midnightblue" points="429.913,-64.2443 439.912,-60.741 429.911,-57.2443 429.913,-64.2443"/>
</g>
<!-- Node4 -->
<g id="node4" class="node"><title>Node4</title>
<g id="a_node4"><a xlink:href="classmemoryoracle_1_1models_1_1Typed.html#a494dfbe205034b874ff9e8c7039f579b" target="_top" xlink:title="memoryoracle.models.Typed.\l__init__">
<polygon fill="none" stroke="black" points="697.5,-126 697.5,-156 855.5,-156 855.5,-126 697.5,-126"/>
<text text-anchor="start" x="705.5" y="-144" font-family="Helvetica,sans-Serif" font-size="10.00">memoryoracle.models.Typed.</text>
<text text-anchor="middle" x="776.5" y="-133" font-family="Helvetica,sans-Serif" font-size="10.00">__init__</text>
</a>
</g>
</g>
<!-- Node3&#45;&gt;Node4 -->
<g id="edge3" class="edge"><title>Node3&#45;&gt;Node4</title>
<path fill="none" stroke="midnightblue" d="M625.61,-67.1996C629.558,-68.9102 633.378,-70.8349 637,-73 658.688,-85.9638 651.559,-103.631 673,-117 680.522,-121.69 688.872,-125.464 697.468,-128.502"/>
<polygon fill="midnightblue" stroke="midnightblue" points="626.791,-63.904 616.201,-63.5845 624.28,-70.4383 626.791,-63.904"/>
</g>
<!-- Node5 -->
<g id="node5" class="node"><title>Node5</title>
<g id="a_node5"><a xlink:href="classmemoryoracle_1_1models_1_1Memory.html#aed3af349dd80317ae9cca4b4e9cb7c26" target="_top" xlink:title="memoryoracle.models.Memory.\l__init__">
<polygon fill="none" stroke="black" points="692.5,-77 692.5,-107 860.5,-107 860.5,-77 692.5,-77"/>
<text text-anchor="start" x="700.5" y="-95" font-family="Helvetica,sans-Serif" font-size="10.00">memoryoracle.models.Memory.</text>
<text text-anchor="middle" x="776.5" y="-84" font-family="Helvetica,sans-Serif" font-size="10.00">__init__</text>
</a>
</g>
</g>
<!-- Node3&#45;&gt;Node5 -->
<g id="edge4" class="edge"><title>Node3&#45;&gt;Node5</title>
<path fill="none" stroke="midnightblue" d="M608.918,-65.1775C635.003,-69.3777 664.926,-74.1958 692.149,-78.5791"/>
<polygon fill="midnightblue" stroke="midnightblue" points="609.177,-61.6742 598.748,-63.54 608.065,-68.5852 609.177,-61.6742"/>
</g>
<!-- Node6 -->
<g id="node6" class="node"><title>Node6</title>
<g id="a_node6"><a xlink:href="classmemoryoracle_1_1instance_1_1Memory.html#aa937ea1a82dcaa2fa1c868a387d59483" target="_top" xlink:title="memoryoracle.instance.Memory.update">
<polygon fill="none" stroke="black" points="673,-0.5 673,-19.5 880,-19.5 880,-0.5 673,-0.5"/>
<text text-anchor="middle" x="776.5" y="-7.5" font-family="Helvetica,sans-Serif" font-size="10.00">memoryoracle.instance.Memory.update</text>
</a>
</g>
</g>
<!-- Node3&#45;&gt;Node6 -->
<g id="edge6" class="edge"><title>Node3&#45;&gt;Node6</title>
<path fill="none" stroke="midnightblue" d="M600.112,-42.6251C622.957,-38.3443 649.172,-33.4395 673,-29 689.636,-25.9005 707.793,-22.5306 724.14,-19.5012"/>
<polygon fill="midnightblue" stroke="midnightblue" points="599.394,-39.1986 590.21,-44.481 600.684,-46.0788 599.394,-39.1986"/>
</g>
<!-- Node7 -->
<g id="node7" class="node"><title>Node7</title>
<g id="a_node7"><a xlink:href="classmemoryoracle_1_1models_1_1Memory.html#a71d4a141abc3358afdf1a1325bfd4253" target="_top" xlink:title="memoryoracle.models.Memory.update">
<polygon fill="none" stroke="black" points="675.5,-38.5 675.5,-57.5 877.5,-57.5 877.5,-38.5 675.5,-38.5"/>
<text text-anchor="middle" x="776.5" y="-45.5" font-family="Helvetica,sans-Serif" font-size="10.00">memoryoracle.models.Memory.update</text>
</a>
</g>
</g>
<!-- Node3&#45;&gt;Node7 -->
<g id="edge7" class="edge"><title>Node3&#45;&gt;Node7</title>
<path fill="none" stroke="midnightblue" d="M647.253,-51.2605C656.565,-51.0238 665.963,-50.7848 675.212,-50.5497"/>
<polygon fill="midnightblue" stroke="midnightblue" points="647.102,-47.7631 637.194,-51.5163 647.28,-54.7609 647.102,-47.7631"/>
</g>
<!-- Node8&#45;&gt;Node4 -->
<g id="edge9" class="edge"><title>Node8&#45;&gt;Node4</title>
<path fill="none" stroke="midnightblue" d="M595.401,-103.607C627.553,-110.282 668.307,-118.744 702.912,-125.929"/>
<polygon fill="midnightblue" stroke="midnightblue" points="595.786,-100.112 585.283,-101.506 594.363,-106.966 595.786,-100.112"/>
</g>
<!-- Node8&#45;&gt;Node5 -->
<g id="edge10" class="edge"><title>Node8&#45;&gt;Node5</title>
<path fill="none" stroke="midnightblue" d="M639.935,-92C657.388,-92 675.366,-92 692.294,-92"/>
<polygon fill="midnightblue" stroke="midnightblue" points="639.732,-88.5001 629.732,-92 639.732,-95.5001 639.732,-88.5001"/>
</g>
<!-- Node8&#45;&gt;Node7 -->
<g id="edge11" class="edge"><title>Node8&#45;&gt;Node7</title>
<path fill="none" stroke="midnightblue" d="M600.735,-80.5832C639.14,-73.423 688.077,-64.2993 724.391,-57.5287"/>
<polygon fill="midnightblue" stroke="midnightblue" points="599.898,-77.179 590.708,-82.4527 601.181,-84.0605 599.898,-77.179"/>
</g>
</g>
</svg>
