<?xml version="1.0" encoding="UTF-8" standalone="no"?>
<!DOCTYPE svg PUBLIC "-//W3C//DTD SVG 1.1//EN"
 "http://www.w3.org/Graphics/SVG/1.1/DTD/svg11.dtd">
<!-- Generated by graphviz version 2.38.0 (20140413.2041)
 -->
<!-- Title: memoryoracle.typed.Typed Pages: 1 -->
<svg width="3292pt" height="1147pt"
 viewBox="0.00 0.00 3291.50 1147.00" xmlns="http://www.w3.org/2000/svg" xmlns:xlink="http://www.w3.org/1999/xlink">
<g id="graph0" class="graph" transform="scale(1 1) rotate(0) translate(4 1143)">
<title>memoryoracle.typed.Typed</title>
<!-- Node1 -->
<g id="node1" class="node"><title>Node1</title>
<polygon fill="#bfbfbf" stroke="black" points="1742,-860.5 1742,-939.5 1888,-939.5 1888,-860.5 1742,-860.5"/>
<text text-anchor="middle" x="1815" y="-927.5" font-family="Helvetica,sans-Serif" font-size="10.00">memoryoracle.typed.Typed</text>
<polyline fill="none" stroke="black" points="1742,-920.5 1888,-920.5 "/>
<text text-anchor="middle" x="1815" y="-908.5" font-family="Helvetica,sans-Serif" font-size="10.00"> </text>
<polyline fill="none" stroke="black" points="1742,-901.5 1888,-901.5 "/>
<text text-anchor="start" x="1750" y="-889.5" font-family="Helvetica,sans-Serif" font-size="10.00">+ type_code()</text>
<text text-anchor="start" x="1750" y="-878.5" font-family="Helvetica,sans-Serif" font-size="10.00">+ gdb_type()</text>
<text text-anchor="start" x="1750" y="-867.5" font-family="Helvetica,sans-Serif" font-size="10.00">+ object()</text>
</g>
<!-- Node4 -->
<g id="node4" class="node"><title>Node4</title>
<g id="a_node4"><a xlink:href="classmemoryoracle_1_1instance_1_1Memory.html" target="_top" xlink:title="{memoryoracle.instance.Memory\n|+ unaliased_type\l+ dynamic_type\l+ address\l+ name\l+ frame\l+ execution\l+ type\l+ dynamic_type\l+ unaliased_type\l+ parent\l+ meta\l&#45; _description\l&#45; _object\l&#45; _addressFixer\l&#45; _updatedNames\l&#45; _watchers\l&#45; _execution\l&#45; _updateTracker\l|+ __init__()\l+ index()\l+ factory()\l+ track()\l+ update()\l+ watchers()\l+ extract_dynamic_type()\l&#45; _fetch()\l&#45; _basic_track()\l&#45; _clear_updated()\l&#45; _set_execution()\l}">
<polygon fill="none" stroke="black" points="994,-469.5 994,-823.5 1166,-823.5 1166,-469.5 994,-469.5"/>
<text text-anchor="middle" x="1080" y="-811.5" font-family="Helvetica,sans-Serif" font-size="10.00">memoryoracle.instance.Memory</text>
<polyline fill="none" stroke="black" points="994,-804.5 1166,-804.5 "/>
<text text-anchor="start" x="1002" y="-792.5" font-family="Helvetica,sans-Serif" font-size="10.00">+ unaliased_type</text>
<text text-anchor="start" x="1002" y="-781.5" font-family="Helvetica,sans-Serif" font-size="10.00">+ dynamic_type</text>
<text text-anchor="start" x="1002" y="-770.5" font-family="Helvetica,sans-Serif" font-size="10.00">+ address</text>
<text text-anchor="start" x="1002" y="-759.5" font-family="Helvetica,sans-Serif" font-size="10.00">+ name</text>
<text text-anchor="start" x="1002" y="-748.5" font-family="Helvetica,sans-Serif" font-size="10.00">+ frame</text>
<text text-anchor="start" x="1002" y="-737.5" font-family="Helvetica,sans-Serif" font-size="10.00">+ execution</text>
<text text-anchor="start" x="1002" y="-726.5" font-family="Helvetica,sans-Serif" font-size="10.00">+ type</text>
<text text-anchor="start" x="1002" y="-715.5" font-family="Helvetica,sans-Serif" font-size="10.00">+ dynamic_type</text>
<text text-anchor="start" x="1002" y="-704.5" font-family="Helvetica,sans-Serif" font-size="10.00">+ unaliased_type</text>
<text text-anchor="start" x="1002" y="-693.5" font-family="Helvetica,sans-Serif" font-size="10.00">+ parent</text>
<text text-anchor="start" x="1002" y="-682.5" font-family="Helvetica,sans-Serif" font-size="10.00">+ meta</text>
<text text-anchor="start" x="1002" y="-671.5" font-family="Helvetica,sans-Serif" font-size="10.00">&#45; _description</text>
<text text-anchor="start" x="1002" y="-660.5" font-family="Helvetica,sans-Serif" font-size="10.00">&#45; _object</text>
<text text-anchor="start" x="1002" y="-649.5" font-family="Helvetica,sans-Serif" font-size="10.00">&#45; _addressFixer</text>
<text text-anchor="start" x="1002" y="-638.5" font-family="Helvetica,sans-Serif" font-size="10.00">&#45; _updatedNames</text>
<text text-anchor="start" x="1002" y="-627.5" font-family="Helvetica,sans-Serif" font-size="10.00">&#45; _watchers</text>
<text text-anchor="start" x="1002" y="-616.5" font-family="Helvetica,sans-Serif" font-size="10.00">&#45; _execution</text>
<text text-anchor="start" x="1002" y="-605.5" font-family="Helvetica,sans-Serif" font-size="10.00">&#45; _updateTracker</text>
<polyline fill="none" stroke="black" points="994,-598.5 1166,-598.5 "/>
<text text-anchor="start" x="1002" y="-586.5" font-family="Helvetica,sans-Serif" font-size="10.00">+ __init__()</text>
<text text-anchor="start" x="1002" y="-575.5" font-family="Helvetica,sans-Serif" font-size="10.00">+ index()</text>
<text text-anchor="start" x="1002" y="-564.5" font-family="Helvetica,sans-Serif" font-size="10.00">+ factory()</text>
<text text-anchor="start" x="1002" y="-553.5" font-family="Helvetica,sans-Serif" font-size="10.00">+ track()</text>
<text text-anchor="start" x="1002" y="-542.5" font-family="Helvetica,sans-Serif" font-size="10.00">+ update()</text>
<text text-anchor="start" x="1002" y="-531.5" font-family="Helvetica,sans-Serif" font-size="10.00">+ watchers()</text>
<text text-anchor="start" x="1002" y="-520.5" font-family="Helvetica,sans-Serif" font-size="10.00">+ extract_dynamic_type()</text>
<text text-anchor="start" x="1002" y="-509.5" font-family="Helvetica,sans-Serif" font-size="10.00">&#45; _fetch()</text>
<text text-anchor="start" x="1002" y="-498.5" font-family="Helvetica,sans-Serif" font-size="10.00">&#45; _basic_track()</text>
<text text-anchor="start" x="1002" y="-487.5" font-family="Helvetica,sans-Serif" font-size="10.00">&#45; _clear_updated()</text>
<text text-anchor="start" x="1002" y="-476.5" font-family="Helvetica,sans-Serif" font-size="10.00">&#45; _set_execution()</text>
</a>
</g>
</g>
<!-- Node1&#45;&gt;Node4 -->
<g id="edge3" class="edge"><title>Node1&#45;&gt;Node4</title>
<path fill="none" stroke="midnightblue" d="M1731.98,-870.592C1591.56,-822.543 1308.57,-725.71 1166.09,-676.959"/>
<polygon fill="none" stroke="midnightblue" points="1731.24,-874.04 1741.84,-873.966 1733.51,-867.417 1731.24,-874.04"/>
</g>
<!-- Node20 -->
<g id="node20" class="node"><title>Node20</title>
<g id="a_node20"><a xlink:href="classmemoryoracle_1_1symbol_1_1Symbol.html" target="_top" xlink:title="{memoryoracle.symbol.Symbol\n||}">
<polygon fill="none" stroke="black" points="2374.5,-618 2374.5,-675 2537.5,-675 2537.5,-618 2374.5,-618"/>
<text text-anchor="middle" x="2456" y="-663" font-family="Helvetica,sans-Serif" font-size="10.00">memoryoracle.symbol.Symbol</text>
<polyline fill="none" stroke="black" points="2374.5,-656 2537.5,-656 "/>
<text text-anchor="middle" x="2456" y="-644" font-family="Helvetica,sans-Serif" font-size="10.00"> </text>
<polyline fill="none" stroke="black" points="2374.5,-637 2537.5,-637 "/>
<text text-anchor="middle" x="2456" y="-625" font-family="Helvetica,sans-Serif" font-size="10.00"> </text>
</a>
</g>
</g>
<!-- Node1&#45;&gt;Node20 -->
<g id="edge19" class="edge"><title>Node1&#45;&gt;Node20</title>
<path fill="none" stroke="midnightblue" d="M1897.55,-866.612C2024.72,-816.714 2266.34,-721.915 2385.68,-675.089"/>
<polygon fill="none" stroke="midnightblue" points="1896.25,-863.362 1888.22,-870.272 1898.81,-869.878 1896.25,-863.362"/>
</g>
<!-- Node2 -->
<g id="node2" class="node"><title>Node2</title>
<g id="a_node2"><a xlink:href="classmemoryoracle_1_1tracked_1_1Tracked.html" target="_top" xlink:title="{memoryoracle.tracked.Tracked\n|+ meta\l|+ track()\l+ description()\l}">
<polygon fill="none" stroke="black" points="1733,-976.5 1733,-1044.5 1897,-1044.5 1897,-976.5 1733,-976.5"/>
<text text-anchor="middle" x="1815" y="-1032.5" font-family="Helvetica,sans-Serif" font-size="10.00">memoryoracle.tracked.Tracked</text>
<polyline fill="none" stroke="black" points="1733,-1025.5 1897,-1025.5 "/>
<text text-anchor="start" x="1741" y="-1013.5" font-family="Helvetica,sans-Serif" font-size="10.00">+ meta</text>
<polyline fill="none" stroke="black" points="1733,-1006.5 1897,-1006.5 "/>
<text text-anchor="start" x="1741" y="-994.5" font-family="Helvetica,sans-Serif" font-size="10.00">+ track()</text>
<text text-anchor="start" x="1741" y="-983.5" font-family="Helvetica,sans-Serif" font-size="10.00">+ description()</text>
</a>
</g>
</g>
<!-- Node2&#45;&gt;Node1 -->
<g id="edge1" class="edge"><title>Node2&#45;&gt;Node1</title>
<path fill="none" stroke="midnightblue" d="M1815,-966.274C1815,-957.476 1815,-948.275 1815,-939.649"/>
<polygon fill="none" stroke="midnightblue" points="1811.5,-966.357 1815,-976.357 1818.5,-966.357 1811.5,-966.357"/>
</g>
<!-- Node3 -->
<g id="node3" class="node"><title>Node3</title>
<polygon fill="none" stroke="#bfbfbf" points="1781.5,-1081.5 1781.5,-1138.5 1848.5,-1138.5 1848.5,-1081.5 1781.5,-1081.5"/>
<text text-anchor="middle" x="1815" y="-1126.5" font-family="Helvetica,sans-Serif" font-size="10.00">Document</text>
<polyline fill="none" stroke="#bfbfbf" points="1781.5,-1119.5 1848.5,-1119.5 "/>
<text text-anchor="middle" x="1815" y="-1107.5" font-family="Helvetica,sans-Serif" font-size="10.00"> </text>
<polyline fill="none" stroke="#bfbfbf" points="1781.5,-1100.5 1848.5,-1100.5 "/>
<text text-anchor="middle" x="1815" y="-1088.5" font-family="Helvetica,sans-Serif" font-size="10.00"> </text>
</g>
<!-- Node3&#45;&gt;Node2 -->
<g id="edge2" class="edge"><title>Node3&#45;&gt;Node2</title>
<path fill="none" stroke="midnightblue" d="M1815,-1071.06C1815,-1062.39 1815,-1053.24 1815,-1044.79"/>
<polygon fill="none" stroke="midnightblue" points="1811.5,-1071.32 1815,-1081.32 1818.5,-1071.32 1811.5,-1071.32"/>
</g>
<!-- Node5 -->
<g id="node5" class="node"><title>Node5</title>
<g id="a_node5"><a xlink:href="classmemoryoracle_1_1instance_1_1Array.html" target="_top" xlink:title="{memoryoracle.instance.Array\n|+ range\l+ target_type\l+ repository\l+ range\l+ target_type\l&#45; _updateTracker\l&#45; _watchers\l&#45; _typeHandlerCode\l|&#45; _track()\l}">
<polygon fill="none" stroke="black" points="0,-298.5 0,-432.5 158,-432.5 158,-298.5 0,-298.5"/>
<text text-anchor="middle" x="79" y="-420.5" font-family="Helvetica,sans-Serif" font-size="10.00">memoryoracle.instance.Array</text>
<polyline fill="none" stroke="black" points="0,-413.5 158,-413.5 "/>
<text text-anchor="start" x="8" y="-401.5" font-family="Helvetica,sans-Serif" font-size="10.00">+ range</text>
<text text-anchor="start" x="8" y="-390.5" font-family="Helvetica,sans-Serif" font-size="10.00">+ target_type</text>
<text text-anchor="start" x="8" y="-379.5" font-family="Helvetica,sans-Serif" font-size="10.00">+ repository</text>
<text text-anchor="start" x="8" y="-368.5" font-family="Helvetica,sans-Serif" font-size="10.00">+ range</text>
<text text-anchor="start" x="8" y="-357.5" font-family="Helvetica,sans-Serif" font-size="10.00">+ target_type</text>
<text text-anchor="start" x="8" y="-346.5" font-family="Helvetica,sans-Serif" font-size="10.00">&#45; _updateTracker</text>
<text text-anchor="start" x="8" y="-335.5" font-family="Helvetica,sans-Serif" font-size="10.00">&#45; _watchers</text>
<text text-anchor="start" x="8" y="-324.5" font-family="Helvetica,sans-Serif" font-size="10.00">&#45; _typeHandlerCode</text>
<polyline fill="none" stroke="black" points="0,-317.5 158,-317.5 "/>
<text text-anchor="start" x="8" y="-305.5" font-family="Helvetica,sans-Serif" font-size="10.00">&#45; _track()</text>
</a>
</g>
</g>
<!-- Node4&#45;&gt;Node5 -->
<g id="edge4" class="edge"><title>Node4&#45;&gt;Node5</title>
<path fill="none" stroke="midnightblue" d="M983.99,-636.435C812.76,-617.435 446.444,-563.842 167,-433 164.052,-431.62 161.107,-430.129 158.178,-428.55"/>
<polygon fill="none" stroke="midnightblue" points="983.667,-639.92 993.989,-637.53 984.429,-632.962 983.667,-639.92"/>
</g>
<!-- Node6 -->
<g id="node6" class="node"><title>Node6</title>
<g id="a_node6"><a xlink:href="classmemoryoracle_1_1instance_1_1Call.html" target="_top" xlink:title="{memoryoracle.instance.Call\n|+ repository\l&#45; _typeHandlerCode\l&#45; _updateTracker\l&#45; _watchers\l|}">
<polygon fill="none" stroke="black" points="176,-320.5 176,-410.5 326,-410.5 326,-320.5 176,-320.5"/>
<text text-anchor="middle" x="251" y="-398.5" font-family="Helvetica,sans-Serif" font-size="10.00">memoryoracle.instance.Call</text>
<polyline fill="none" stroke="black" points="176,-391.5 326,-391.5 "/>
<text text-anchor="start" x="184" y="-379.5" font-family="Helvetica,sans-Serif" font-size="10.00">+ repository</text>
<text text-anchor="start" x="184" y="-368.5" font-family="Helvetica,sans-Serif" font-size="10.00">&#45; _typeHandlerCode</text>
<text text-anchor="start" x="184" y="-357.5" font-family="Helvetica,sans-Serif" font-size="10.00">&#45; _updateTracker</text>
<text text-anchor="start" x="184" y="-346.5" font-family="Helvetica,sans-Serif" font-size="10.00">&#45; _watchers</text>
<polyline fill="none" stroke="black" points="176,-339.5 326,-339.5 "/>
<text text-anchor="middle" x="251" y="-327.5" font-family="Helvetica,sans-Serif" font-size="10.00"> </text>
</a>
</g>
</g>
<!-- Node4&#45;&gt;Node6 -->
<g id="edge5" class="edge"><title>Node4&#45;&gt;Node6</title>
<path fill="none" stroke="midnightblue" d="M984.002,-630.52C837.687,-605.012 552.908,-544.719 335,-433 323.083,-426.89 311.225,-418.957 300.335,-410.709"/>
<polygon fill="none" stroke="midnightblue" points="983.416,-633.971 993.866,-632.223 984.607,-627.073 983.416,-633.971"/>
</g>
<!-- Node7 -->
<g id="node7" class="node"><title>Node7</title>
<g id="a_node7"><a xlink:href="classmemoryoracle_1_1instance_1_1ConstDecorator.html" target="_top" xlink:title="{memoryoracle.instance.Const\lDecorator\n||}">
<polygon fill="none" stroke="black" points="344.5,-331.5 344.5,-399.5 505.5,-399.5 505.5,-331.5 344.5,-331.5"/>
<text text-anchor="start" x="352.5" y="-387.5" font-family="Helvetica,sans-Serif" font-size="10.00">memoryoracle.instance.Const</text>
<text text-anchor="middle" x="425" y="-376.5" font-family="Helvetica,sans-Serif" font-size="10.00">Decorator</text>
<polyline fill="none" stroke="black" points="344.5,-369.5 505.5,-369.5 "/>
<text text-anchor="middle" x="425" y="-357.5" font-family="Helvetica,sans-Serif" font-size="10.00"> </text>
<polyline fill="none" stroke="black" points="344.5,-350.5 505.5,-350.5 "/>
<text text-anchor="middle" x="425" y="-338.5" font-family="Helvetica,sans-Serif" font-size="10.00"> </text>
</a>
</g>
</g>
<!-- Node4&#45;&gt;Node7 -->
<g id="edge6" class="edge"><title>Node4&#45;&gt;Node7</title>
<path fill="none" stroke="midnightblue" d="M983.643,-618.212C868.283,-583.548 671.108,-517.886 515,-433 497.762,-423.626 480.117,-411.298 465.069,-399.806"/>
<polygon fill="none" stroke="midnightblue" points="982.934,-621.653 993.518,-621.164 984.939,-614.946 982.934,-621.653"/>
</g>
<!-- Node8 -->
<g id="node8" class="node"><title>Node8</title>
<g id="a_node8"><a xlink:href="classmemoryoracle_1_1instance_1_1ExternDecorator.html" target="_top" xlink:title="{memoryoracle.instance.Extern\lDecorator\n||}">
<polygon fill="none" stroke="black" points="524,-331.5 524,-399.5 688,-399.5 688,-331.5 524,-331.5"/>
<text text-anchor="start" x="532" y="-387.5" font-family="Helvetica,sans-Serif" font-size="10.00">memoryoracle.instance.Extern</text>
<text text-anchor="middle" x="606" y="-376.5" font-family="Helvetica,sans-Serif" font-size="10.00">Decorator</text>
<polyline fill="none" stroke="black" points="524,-369.5 688,-369.5 "/>
<text text-anchor="middle" x="606" y="-357.5" font-family="Helvetica,sans-Serif" font-size="10.00"> </text>
<polyline fill="none" stroke="black" points="524,-350.5 688,-350.5 "/>
<text text-anchor="middle" x="606" y="-338.5" font-family="Helvetica,sans-Serif" font-size="10.00"> </text>
</a>
</g>
</g>
<!-- Node4&#45;&gt;Node8 -->
<g id="edge7" class="edge"><title>Node4&#45;&gt;Node8</title>
<path fill="none" stroke="midnightblue" d="M984.865,-596.954C906.188,-555.808 792.312,-493.933 697,-433 681.008,-422.777 664.07,-410.753 649.199,-399.762"/>
<polygon fill="none" stroke="midnightblue" points="983.317,-600.094 993.802,-601.617 986.556,-593.888 983.317,-600.094"/>
</g>
<!-- Node9 -->
<g id="node9" class="node"><title>Node9</title>
<g id="a_node9"><a xlink:href="classmemoryoracle_1_1instance_1_1MemberDecorator.html" target="_top" xlink:title="{memoryoracle.instance.Member\lDecorator\n||}">
<polygon fill="none" stroke="black" points="706.5,-331.5 706.5,-399.5 879.5,-399.5 879.5,-331.5 706.5,-331.5"/>
<text text-anchor="start" x="714.5" y="-387.5" font-family="Helvetica,sans-Serif" font-size="10.00">memoryoracle.instance.Member</text>
<text text-anchor="middle" x="793" y="-376.5" font-family="Helvetica,sans-Serif" font-size="10.00">Decorator</text>
<polyline fill="none" stroke="black" points="706.5,-369.5 879.5,-369.5 "/>
<text text-anchor="middle" x="793" y="-357.5" font-family="Helvetica,sans-Serif" font-size="10.00"> </text>
<polyline fill="none" stroke="black" points="706.5,-350.5 879.5,-350.5 "/>
<text text-anchor="middle" x="793" y="-338.5" font-family="Helvetica,sans-Serif" font-size="10.00"> </text>
</a>
</g>
</g>
<!-- Node4&#45;&gt;Node9 -->
<g id="edge8" class="edge"><title>Node4&#45;&gt;Node9</title>
<path fill="none" stroke="midnightblue" d="M986.601,-554.705C931.962,-501.589 866.241,-437.699 827.136,-399.685"/>
<polygon fill="none" stroke="midnightblue" points="984.281,-557.33 993.891,-561.791 989.16,-552.311 984.281,-557.33"/>
</g>
<!-- Node10 -->
<g id="node10" class="node"><title>Node10</title>
<g id="a_node10"><a xlink:href="classmemoryoracle_1_1instance_1_1Primitive.html" target="_top" xlink:title="{memoryoracle.instance.Primitive\n|+ value\l+ value\l|+ val_string()\l&#45; _track()\l}">
<polygon fill="none" stroke="black" points="898,-326 898,-405 1072,-405 1072,-326 898,-326"/>
<text text-anchor="middle" x="985" y="-393" font-family="Helvetica,sans-Serif" font-size="10.00">memoryoracle.instance.Primitive</text>
<polyline fill="none" stroke="black" points="898,-386 1072,-386 "/>
<text text-anchor="start" x="906" y="-374" font-family="Helvetica,sans-Serif" font-size="10.00">+ value</text>
<text text-anchor="start" x="906" y="-363" font-family="Helvetica,sans-Serif" font-size="10.00">+ value</text>
<polyline fill="none" stroke="black" points="898,-356 1072,-356 "/>
<text text-anchor="start" x="906" y="-344" font-family="Helvetica,sans-Serif" font-size="10.00">+ val_string()</text>
<text text-anchor="start" x="906" y="-333" font-family="Helvetica,sans-Serif" font-size="10.00">&#45; _track()</text>
</a>
</g>
</g>
<!-- Node4&#45;&gt;Node10 -->
<g id="edge9" class="edge"><title>Node4&#45;&gt;Node10</title>
<path fill="none" stroke="midnightblue" d="M1016.67,-459.507C1009.8,-439.319 1003.42,-420.598 998.219,-405.324"/>
<polygon fill="none" stroke="midnightblue" points="1013.43,-460.863 1019.97,-469.201 1020.06,-458.606 1013.43,-460.863"/>
</g>
<!-- Node15 -->
<g id="node15" class="node"><title>Node15</title>
<g id="a_node15"><a xlink:href="classmemoryoracle_1_1instance_1_1RegisterDecorator.html" target="_top" xlink:title="{memoryoracle.instance.Register\lDecorator\n||}">
<polygon fill="none" stroke="black" points="1090.5,-331.5 1090.5,-399.5 1261.5,-399.5 1261.5,-331.5 1090.5,-331.5"/>
<text text-anchor="start" x="1098.5" y="-387.5" font-family="Helvetica,sans-Serif" font-size="10.00">memoryoracle.instance.Register</text>
<text text-anchor="middle" x="1176" y="-376.5" font-family="Helvetica,sans-Serif" font-size="10.00">Decorator</text>
<polyline fill="none" stroke="black" points="1090.5,-369.5 1261.5,-369.5 "/>
<text text-anchor="middle" x="1176" y="-357.5" font-family="Helvetica,sans-Serif" font-size="10.00"> </text>
<polyline fill="none" stroke="black" points="1090.5,-350.5 1261.5,-350.5 "/>
<text text-anchor="middle" x="1176" y="-338.5" font-family="Helvetica,sans-Serif" font-size="10.00"> </text>
</a>
</g>
</g>
<!-- Node4&#45;&gt;Node15 -->
<g id="edge14" class="edge"><title>Node4&#45;&gt;Node15</title>
<path fill="none" stroke="midnightblue" d="M1143.94,-459.676C1151.79,-436.872 1158.99,-415.931 1164.58,-399.702"/>
<polygon fill="none" stroke="midnightblue" points="1140.61,-458.606 1140.66,-469.201 1147.23,-460.884 1140.61,-458.606"/>
</g>
<!-- Node16 -->
<g id="node16" class="node"><title>Node16</title>
<g id="a_node16"><a xlink:href="classmemoryoracle_1_1instance_1_1StaticDecorator.html" target="_top" xlink:title="{memoryoracle.instance.Static\lDecorator\n||}">
<polygon fill="none" stroke="black" points="1279.5,-331.5 1279.5,-399.5 1440.5,-399.5 1440.5,-331.5 1279.5,-331.5"/>
<text text-anchor="start" x="1287.5" y="-387.5" font-family="Helvetica,sans-Serif" font-size="10.00">memoryoracle.instance.Static</text>
<text text-anchor="middle" x="1360" y="-376.5" font-family="Helvetica,sans-Serif" font-size="10.00">Decorator</text>
<polyline fill="none" stroke="black" points="1279.5,-369.5 1440.5,-369.5 "/>
<text text-anchor="middle" x="1360" y="-357.5" font-family="Helvetica,sans-Serif" font-size="10.00"> </text>
<polyline fill="none" stroke="black" points="1279.5,-350.5 1440.5,-350.5 "/>
<text text-anchor="middle" x="1360" y="-338.5" font-family="Helvetica,sans-Serif" font-size="10.00"> </text>
</a>
</g>
</g>
<!-- Node4&#45;&gt;Node16 -->
<g id="edge15" class="edge"><title>Node4&#45;&gt;Node16</title>
<path fill="none" stroke="midnightblue" d="M1173.66,-552.17C1226.39,-499.633 1289,-437.249 1326.56,-399.822"/>
<polygon fill="none" stroke="midnightblue" points="1170.91,-549.977 1166.29,-559.514 1175.85,-554.935 1170.91,-549.977"/>
</g>
<!-- Node17 -->
<g id="node17" class="node"><title>Node17</title>
<g id="a_node17"><a xlink:href="classmemoryoracle_1_1instance_1_1Structure.html" target="_top" xlink:title="{memoryoracle.instance.Structure\n|+ children\l+ children\l+ repository\l&#45; _typeHandlerCode\l&#45; _updateTracker\l&#45; _watchers\l|&#45; _track()\l}">
<polygon fill="none" stroke="black" points="1459,-309.5 1459,-421.5 1637,-421.5 1637,-309.5 1459,-309.5"/>
<text text-anchor="middle" x="1548" y="-409.5" font-family="Helvetica,sans-Serif" font-size="10.00">memoryoracle.instance.Structure</text>
<polyline fill="none" stroke="black" points="1459,-402.5 1637,-402.5 "/>
<text text-anchor="start" x="1467" y="-390.5" font-family="Helvetica,sans-Serif" font-size="10.00">+ children</text>
<text text-anchor="start" x="1467" y="-379.5" font-family="Helvetica,sans-Serif" font-size="10.00">+ children</text>
<text text-anchor="start" x="1467" y="-368.5" font-family="Helvetica,sans-Serif" font-size="10.00">+ repository</text>
<text text-anchor="start" x="1467" y="-357.5" font-family="Helvetica,sans-Serif" font-size="10.00">&#45; _typeHandlerCode</text>
<text text-anchor="start" x="1467" y="-346.5" font-family="Helvetica,sans-Serif" font-size="10.00">&#45; _updateTracker</text>
<text text-anchor="start" x="1467" y="-335.5" font-family="Helvetica,sans-Serif" font-size="10.00">&#45; _watchers</text>
<polyline fill="none" stroke="black" points="1459,-328.5 1637,-328.5 "/>
<text text-anchor="start" x="1467" y="-316.5" font-family="Helvetica,sans-Serif" font-size="10.00">&#45; _track()</text>
</a>
</g>
</g>
<!-- Node4&#45;&gt;Node17 -->
<g id="edge16" class="edge"><title>Node4&#45;&gt;Node17</title>
<path fill="none" stroke="midnightblue" d="M1175.37,-592.964C1250.51,-551.001 1357.49,-489.987 1449,-433 1454.89,-429.333 1460.93,-425.487 1466.99,-421.572"/>
<polygon fill="none" stroke="midnightblue" points="1173.39,-590.058 1166.36,-597.986 1176.8,-596.171 1173.39,-590.058"/>
</g>
<!-- Node18 -->
<g id="node18" class="node"><title>Node18</title>
<g id="a_node18"><a xlink:href="classmemoryoracle_1_1instance_1_1Void.html" target="_top" xlink:title="{memoryoracle.instance.Void\n||}">
<polygon fill="none" stroke="black" points="1655.5,-337 1655.5,-394 1808.5,-394 1808.5,-337 1655.5,-337"/>
<text text-anchor="middle" x="1732" y="-382" font-family="Helvetica,sans-Serif" font-size="10.00">memoryoracle.instance.Void</text>
<polyline fill="none" stroke="black" points="1655.5,-375 1808.5,-375 "/>
<text text-anchor="middle" x="1732" y="-363" font-family="Helvetica,sans-Serif" font-size="10.00"> </text>
<polyline fill="none" stroke="black" points="1655.5,-356 1808.5,-356 "/>
<text text-anchor="middle" x="1732" y="-344" font-family="Helvetica,sans-Serif" font-size="10.00"> </text>
</a>
</g>
</g>
<!-- Node4&#45;&gt;Node18 -->
<g id="edge17" class="edge"><title>Node4&#45;&gt;Node18</title>
<path fill="none" stroke="midnightblue" d="M1176.35,-618.971C1292.16,-584.943 1490.34,-519.801 1646,-433 1665.45,-422.153 1685.24,-407.177 1700.93,-394.183"/>
<polygon fill="none" stroke="midnightblue" points="1175.06,-615.703 1166.44,-621.866 1177.02,-622.422 1175.06,-615.703"/>
</g>
<!-- Node19 -->
<g id="node19" class="node"><title>Node19</title>
<g id="a_node19"><a xlink:href="classmemoryoracle_1_1instance_1_1VolatileDecorator.html" target="_top" xlink:title="{memoryoracle.instance.Volatile\lDecorator\n||}">
<polygon fill="none" stroke="black" points="1826.5,-331.5 1826.5,-399.5 1993.5,-399.5 1993.5,-331.5 1826.5,-331.5"/>
<text text-anchor="start" x="1834.5" y="-387.5" font-family="Helvetica,sans-Serif" font-size="10.00">memoryoracle.instance.Volatile</text>
<text text-anchor="middle" x="1910" y="-376.5" font-family="Helvetica,sans-Serif" font-size="10.00">Decorator</text>
<polyline fill="none" stroke="black" points="1826.5,-369.5 1993.5,-369.5 "/>
<text text-anchor="middle" x="1910" y="-357.5" font-family="Helvetica,sans-Serif" font-size="10.00"> </text>
<polyline fill="none" stroke="black" points="1826.5,-350.5 1993.5,-350.5 "/>
<text text-anchor="middle" x="1910" y="-338.5" font-family="Helvetica,sans-Serif" font-size="10.00"> </text>
</a>
</g>
</g>
<!-- Node4&#45;&gt;Node19 -->
<g id="edge18" class="edge"><title>Node4&#45;&gt;Node19</title>
<path fill="none" stroke="midnightblue" d="M1176.19,-628.632C1320.61,-600.94 1599.72,-538.157 1817,-433 1835.4,-424.094 1854.05,-411.589 1869.77,-399.824"/>
<polygon fill="none" stroke="midnightblue" points="1175.19,-625.258 1166.02,-630.565 1176.5,-632.135 1175.19,-625.258"/>
</g>
<!-- Node11 -->
<g id="node11" class="node"><title>Node11</title>
<g id="a_node11"><a xlink:href="classmemoryoracle_1_1instance_1_1Float.html" target="_top" xlink:title="{memoryoracle.instance.Float\n|+ repository\l&#45; _updateTracker\l&#45; _watchers\l&#45; _typeHandlerCode\l|}">
<polygon fill="none" stroke="black" points="738,-138.5 738,-228.5 894,-228.5 894,-138.5 738,-138.5"/>
<text text-anchor="middle" x="816" y="-216.5" font-family="Helvetica,sans-Serif" font-size="10.00">memoryoracle.instance.Float</text>
<polyline fill="none" stroke="black" points="738,-209.5 894,-209.5 "/>
<text text-anchor="start" x="746" y="-197.5" font-family="Helvetica,sans-Serif" font-size="10.00">+ repository</text>
<text text-anchor="start" x="746" y="-186.5" font-family="Helvetica,sans-Serif" font-size="10.00">&#45; _updateTracker</text>
<text text-anchor="start" x="746" y="-175.5" font-family="Helvetica,sans-Serif" font-size="10.00">&#45; _watchers</text>
<text text-anchor="start" x="746" y="-164.5" font-family="Helvetica,sans-Serif" font-size="10.00">&#45; _typeHandlerCode</text>
<polyline fill="none" stroke="black" points="738,-157.5 894,-157.5 "/>
<text text-anchor="middle" x="816" y="-145.5" font-family="Helvetica,sans-Serif" font-size="10.00"> </text>
</a>
</g>
</g>
<!-- Node10&#45;&gt;Node11 -->
<g id="edge10" class="edge"><title>Node10&#45;&gt;Node11</title>
<path fill="none" stroke="midnightblue" d="M941.64,-318.318C915.769,-290.763 883.092,-255.959 857.548,-228.753"/>
<polygon fill="none" stroke="midnightblue" points="939.349,-320.991 948.745,-325.885 944.452,-316.199 939.349,-320.991"/>
</g>
<!-- Node12 -->
<g id="node12" class="node"><title>Node12</title>
<g id="a_node12"><a xlink:href="classmemoryoracle_1_1instance_1_1Int.html" target="_top" xlink:title="{memoryoracle.instance.Int\n|+ value\l+ type\l+ repository\l&#45; _updateTracker\l&#45; _watchers\l&#45; _arrayFinder\l&#45; _pointerFinder\l&#45; _spaceFixer\l&#45; _typeHandlerCode\l|&#45; _find_hidden_type()\l&#45; _track()\l}">
<polygon fill="none" stroke="black" points="912.5,-105.5 912.5,-261.5 1057.5,-261.5 1057.5,-105.5 912.5,-105.5"/>
<text text-anchor="middle" x="985" y="-249.5" font-family="Helvetica,sans-Serif" font-size="10.00">memoryoracle.instance.Int</text>
<polyline fill="none" stroke="black" points="912.5,-242.5 1057.5,-242.5 "/>
<text text-anchor="start" x="920.5" y="-230.5" font-family="Helvetica,sans-Serif" font-size="10.00">+ value</text>
<text text-anchor="start" x="920.5" y="-219.5" font-family="Helvetica,sans-Serif" font-size="10.00">+ type</text>
<text text-anchor="start" x="920.5" y="-208.5" font-family="Helvetica,sans-Serif" font-size="10.00">+ repository</text>
<text text-anchor="start" x="920.5" y="-197.5" font-family="Helvetica,sans-Serif" font-size="10.00">&#45; _updateTracker</text>
<text text-anchor="start" x="920.5" y="-186.5" font-family="Helvetica,sans-Serif" font-size="10.00">&#45; _watchers</text>
<text text-anchor="start" x="920.5" y="-175.5" font-family="Helvetica,sans-Serif" font-size="10.00">&#45; _arrayFinder</text>
<text text-anchor="start" x="920.5" y="-164.5" font-family="Helvetica,sans-Serif" font-size="10.00">&#45; _pointerFinder</text>
<text text-anchor="start" x="920.5" y="-153.5" font-family="Helvetica,sans-Serif" font-size="10.00">&#45; _spaceFixer</text>
<text text-anchor="start" x="920.5" y="-142.5" font-family="Helvetica,sans-Serif" font-size="10.00">&#45; _typeHandlerCode</text>
<polyline fill="none" stroke="black" points="912.5,-135.5 1057.5,-135.5 "/>
<text text-anchor="start" x="920.5" y="-123.5" font-family="Helvetica,sans-Serif" font-size="10.00">&#45; _find_hidden_type()</text>
<text text-anchor="start" x="920.5" y="-112.5" font-family="Helvetica,sans-Serif" font-size="10.00">&#45; _track()</text>
</a>
</g>
</g>
<!-- Node10&#45;&gt;Node12 -->
<g id="edge11" class="edge"><title>Node10&#45;&gt;Node12</title>
<path fill="none" stroke="midnightblue" d="M985,-315.821C985,-299.107 985,-279.965 985,-261.56"/>
<polygon fill="none" stroke="midnightblue" points="981.5,-315.885 985,-325.885 988.5,-315.886 981.5,-315.885"/>
</g>
<!-- Node13 -->
<g id="node13" class="node"><title>Node13</title>
<g id="a_node13"><a xlink:href="classmemoryoracle_1_1instance_1_1Pointer.html" target="_top" xlink:title="{memoryoracle.instance.Pointer\n|+ repository\l&#45; _updateTracker\l&#45; _watchers\l&#45; _typeHandlerCode\l|&#45; _track()\l}">
<polygon fill="none" stroke="black" points="1075.5,-138.5 1075.5,-228.5 1242.5,-228.5 1242.5,-138.5 1075.5,-138.5"/>
<text text-anchor="middle" x="1159" y="-216.5" font-family="Helvetica,sans-Serif" font-size="10.00">memoryoracle.instance.Pointer</text>
<polyline fill="none" stroke="black" points="1075.5,-209.5 1242.5,-209.5 "/>
<text text-anchor="start" x="1083.5" y="-197.5" font-family="Helvetica,sans-Serif" font-size="10.00">+ repository</text>
<text text-anchor="start" x="1083.5" y="-186.5" font-family="Helvetica,sans-Serif" font-size="10.00">&#45; _updateTracker</text>
<text text-anchor="start" x="1083.5" y="-175.5" font-family="Helvetica,sans-Serif" font-size="10.00">&#45; _watchers</text>
<text text-anchor="start" x="1083.5" y="-164.5" font-family="Helvetica,sans-Serif" font-size="10.00">&#45; _typeHandlerCode</text>
<polyline fill="none" stroke="black" points="1075.5,-157.5 1242.5,-157.5 "/>
<text text-anchor="start" x="1083.5" y="-145.5" font-family="Helvetica,sans-Serif" font-size="10.00">&#45; _track()</text>
</a>
</g>
</g>
<!-- Node10&#45;&gt;Node13 -->
<g id="edge12" class="edge"><title>Node10&#45;&gt;Node13</title>
<path fill="none" stroke="midnightblue" d="M1029.3,-318.671C1055.99,-291.061 1089.81,-256.075 1116.22,-228.753"/>
<polygon fill="none" stroke="midnightblue" points="1026.76,-316.263 1022.33,-325.885 1031.79,-321.128 1026.76,-316.263"/>
</g>
<!-- Node14 -->
<g id="node14" class="node"><title>Node14</title>
<g id="a_node14"><a xlink:href="classmemoryoracle_1_1instance_1_1CharString.html" target="_top" xlink:title="{memoryoracle.instance.Char\lString\n||}">
<polygon fill="none" stroke="black" points="1081.5,-0.5 1081.5,-68.5 1236.5,-68.5 1236.5,-0.5 1081.5,-0.5"/>
<text text-anchor="start" x="1089.5" y="-56.5" font-family="Helvetica,sans-Serif" font-size="10.00">memoryoracle.instance.Char</text>
<text text-anchor="middle" x="1159" y="-45.5" font-family="Helvetica,sans-Serif" font-size="10.00">String</text>
<polyline fill="none" stroke="black" points="1081.5,-38.5 1236.5,-38.5 "/>
<text text-anchor="middle" x="1159" y="-26.5" font-family="Helvetica,sans-Serif" font-size="10.00"> </text>
<polyline fill="none" stroke="black" points="1081.5,-19.5 1236.5,-19.5 "/>
<text text-anchor="middle" x="1159" y="-7.5" font-family="Helvetica,sans-Serif" font-size="10.00"> </text>
</a>
</g>
</g>
<!-- Node13&#45;&gt;Node14 -->
<g id="edge13" class="edge"><title>Node13&#45;&gt;Node14</title>
<path fill="none" stroke="midnightblue" d="M1159,-128.201C1159,-108.288 1159,-86.3538 1159,-68.8221"/>
<polygon fill="none" stroke="midnightblue" points="1155.5,-128.395 1159,-138.395 1162.5,-128.395 1155.5,-128.395"/>
</g>
<!-- Node21 -->
<g id="node21" class="node"><title>Node21</title>
<g id="a_node21"><a xlink:href="classmemoryoracle_1_1symbol_1_1Alias.html" target="_top" xlink:title="{memoryoracle.symbol.Alias\n||}">
<polygon fill="none" stroke="black" points="2011.5,-337 2011.5,-394 2160.5,-394 2160.5,-337 2011.5,-337"/>
<text text-anchor="middle" x="2086" y="-382" font-family="Helvetica,sans-Serif" font-size="10.00">memoryoracle.symbol.Alias</text>
<polyline fill="none" stroke="black" points="2011.5,-375 2160.5,-375 "/>
<text text-anchor="middle" x="2086" y="-363" font-family="Helvetica,sans-Serif" font-size="10.00"> </text>
<polyline fill="none" stroke="black" points="2011.5,-356 2160.5,-356 "/>
<text text-anchor="middle" x="2086" y="-344" font-family="Helvetica,sans-Serif" font-size="10.00"> </text>
</a>
</g>
</g>
<!-- Node20&#45;&gt;Node21 -->
<g id="edge20" class="edge"><title>Node20&#45;&gt;Node21</title>
<path fill="none" stroke="midnightblue" d="M2409.48,-611.89C2352.37,-570.444 2252.79,-497.551 2169,-433 2152.76,-420.492 2135,-406.329 2120.09,-394.297"/>
<polygon fill="none" stroke="midnightblue" points="2407.44,-614.734 2417.59,-617.772 2411.55,-609.068 2407.44,-614.734"/>
</g>
<!-- Node23 -->
<g id="node23" class="node"><title>Node23</title>
<g id="a_node23"><a xlink:href="classmemoryoracle_1_1symbol_1_1Function.html" target="_top" xlink:title="{memoryoracle.symbol.Function\n||}">
<polygon fill="none" stroke="black" points="2178.5,-337 2178.5,-394 2345.5,-394 2345.5,-337 2178.5,-337"/>
<text text-anchor="middle" x="2262" y="-382" font-family="Helvetica,sans-Serif" font-size="10.00">memoryoracle.symbol.Function</text>
<polyline fill="none" stroke="black" points="2178.5,-375 2345.5,-375 "/>
<text text-anchor="middle" x="2262" y="-363" font-family="Helvetica,sans-Serif" font-size="10.00"> </text>
<polyline fill="none" stroke="black" points="2178.5,-356 2345.5,-356 "/>
<text text-anchor="middle" x="2262" y="-344" font-family="Helvetica,sans-Serif" font-size="10.00"> </text>
</a>
</g>
</g>
<!-- Node20&#45;&gt;Node23 -->
<g id="edge22" class="edge"><title>Node20&#45;&gt;Node23</title>
<path fill="none" stroke="midnightblue" d="M2431.13,-609.731C2391.94,-553.378 2316.66,-445.113 2281.28,-394.221"/>
<polygon fill="none" stroke="midnightblue" points="2428.29,-611.773 2436.87,-617.985 2434.03,-607.776 2428.29,-611.773"/>
</g>
<!-- Node24 -->
<g id="node24" class="node"><title>Node24</title>
<g id="a_node24"><a xlink:href="classmemoryoracle_1_1symbol_1_1Namespace.html" target="_top" xlink:title="{memoryoracle.symbol.Namespace\n||}">
<polygon fill="none" stroke="black" points="2363.5,-337 2363.5,-394 2548.5,-394 2548.5,-337 2363.5,-337"/>
<text text-anchor="middle" x="2456" y="-382" font-family="Helvetica,sans-Serif" font-size="10.00">memoryoracle.symbol.Namespace</text>
<polyline fill="none" stroke="black" points="2363.5,-375 2548.5,-375 "/>
<text text-anchor="middle" x="2456" y="-363" font-family="Helvetica,sans-Serif" font-size="10.00"> </text>
<polyline fill="none" stroke="black" points="2363.5,-356 2548.5,-356 "/>
<text text-anchor="middle" x="2456" y="-344" font-family="Helvetica,sans-Serif" font-size="10.00"> </text>
</a>
</g>
</g>
<!-- Node20&#45;&gt;Node24 -->
<g id="edge23" class="edge"><title>Node20&#45;&gt;Node24</title>
<path fill="none" stroke="midnightblue" d="M2456,-607.979C2456,-551.161 2456,-444.59 2456,-394.221"/>
<polygon fill="none" stroke="midnightblue" points="2452.5,-607.985 2456,-617.985 2459.5,-607.985 2452.5,-607.985"/>
</g>
<!-- Node25 -->
<g id="node25" class="node"><title>Node25</title>
<g id="a_node25"><a xlink:href="classmemoryoracle_1_1symbol_1_1TemplateDecorator.html" target="_top" xlink:title="{memoryoracle.symbol.Template\lDecorator\n||}">
<polygon fill="none" stroke="black" points="2567,-331.5 2567,-399.5 2737,-399.5 2737,-331.5 2567,-331.5"/>
<text text-anchor="start" x="2575" y="-387.5" font-family="Helvetica,sans-Serif" font-size="10.00">memoryoracle.symbol.Template</text>
<text text-anchor="middle" x="2652" y="-376.5" font-family="Helvetica,sans-Serif" font-size="10.00">Decorator</text>
<polyline fill="none" stroke="black" points="2567,-369.5 2737,-369.5 "/>
<text text-anchor="middle" x="2652" y="-357.5" font-family="Helvetica,sans-Serif" font-size="10.00"> </text>
<polyline fill="none" stroke="black" points="2567,-350.5 2737,-350.5 "/>
<text text-anchor="middle" x="2652" y="-338.5" font-family="Helvetica,sans-Serif" font-size="10.00"> </text>
</a>
</g>
</g>
<!-- Node20&#45;&gt;Node25 -->
<g id="edge24" class="edge"><title>Node20&#45;&gt;Node25</title>
<path fill="none" stroke="midnightblue" d="M2481.16,-609.687C2519.36,-555.306 2591.47,-452.661 2628.6,-399.808"/>
<polygon fill="none" stroke="midnightblue" points="2478.21,-607.79 2475.33,-617.985 2483.94,-611.814 2478.21,-607.79"/>
</g>
<!-- Node27 -->
<g id="node27" class="node"><title>Node27</title>
<g id="a_node27"><a xlink:href="classmemoryoracle_1_1symbol_1_1Type.html" target="_top" xlink:title="{memoryoracle.symbol.Type\n||}">
<polygon fill="none" stroke="black" points="2755,-337 2755,-394 2903,-394 2903,-337 2755,-337"/>
<text text-anchor="middle" x="2829" y="-382" font-family="Helvetica,sans-Serif" font-size="10.00">memoryoracle.symbol.Type</text>
<polyline fill="none" stroke="black" points="2755,-375 2903,-375 "/>
<text text-anchor="middle" x="2829" y="-363" font-family="Helvetica,sans-Serif" font-size="10.00"> </text>
<polyline fill="none" stroke="black" points="2755,-356 2903,-356 "/>
<text text-anchor="middle" x="2829" y="-344" font-family="Helvetica,sans-Serif" font-size="10.00"> </text>
</a>
</g>
</g>
<!-- Node20&#45;&gt;Node27 -->
<g id="edge26" class="edge"><title>Node20&#45;&gt;Node27</title>
<path fill="none" stroke="midnightblue" d="M2503.06,-611.966C2560.81,-570.595 2661.48,-497.778 2746,-433 2762.41,-420.42 2780.35,-406.119 2795.34,-394.011"/>
<polygon fill="none" stroke="midnightblue" points="2500.95,-609.17 2494.86,-617.837 2505.03,-614.862 2500.95,-609.17"/>
</g>
<!-- Node33 -->
<g id="node33" class="node"><title>Node33</title>
<g id="a_node33"><a xlink:href="classmemoryoracle_1_1symbol_1_1Variable.html" target="_top" xlink:title="{memoryoracle.symbol.Variable\n||}">
<polygon fill="none" stroke="black" points="2921.5,-337 2921.5,-394 3086.5,-394 3086.5,-337 2921.5,-337"/>
<text text-anchor="middle" x="3004" y="-382" font-family="Helvetica,sans-Serif" font-size="10.00">memoryoracle.symbol.Variable</text>
<polyline fill="none" stroke="black" points="2921.5,-375 3086.5,-375 "/>
<text text-anchor="middle" x="3004" y="-363" font-family="Helvetica,sans-Serif" font-size="10.00"> </text>
<polyline fill="none" stroke="black" points="2921.5,-356 3086.5,-356 "/>
<text text-anchor="middle" x="3004" y="-344" font-family="Helvetica,sans-Serif" font-size="10.00"> </text>
</a>
</g>
</g>
<!-- Node20&#45;&gt;Node33 -->
<g id="edge32" class="edge"><title>Node20&#45;&gt;Node33</title>
<path fill="none" stroke="midnightblue" d="M2534.98,-614.089C2627.76,-575.977 2785.12,-507.508 2912,-433 2931.71,-421.423 2952.45,-406.684 2969.24,-394.025"/>
<polygon fill="none" stroke="midnightblue" points="2533.58,-610.879 2525.66,-617.907 2536.24,-617.358 2533.58,-610.879"/>
</g>
<!-- Node22 -->
<g id="node22" class="node"><title>Node22</title>
<g id="a_node22"><a xlink:href="classmemoryoracle_1_1symbol_1_1Typedef.html" target="_top" xlink:title="{memoryoracle.symbol.Typedef\n||}">
<polygon fill="none" stroke="black" points="2004.5,-155 2004.5,-212 2167.5,-212 2167.5,-155 2004.5,-155"/>
<text text-anchor="middle" x="2086" y="-200" font-family="Helvetica,sans-Serif" font-size="10.00">memoryoracle.symbol.Typedef</text>
<polyline fill="none" stroke="black" points="2004.5,-193 2167.5,-193 "/>
<text text-anchor="middle" x="2086" y="-181" font-family="Helvetica,sans-Serif" font-size="10.00"> </text>
<polyline fill="none" stroke="black" points="2004.5,-174 2167.5,-174 "/>
<text text-anchor="middle" x="2086" y="-162" font-family="Helvetica,sans-Serif" font-size="10.00"> </text>
</a>
</g>
</g>
<!-- Node21&#45;&gt;Node22 -->
<g id="edge21" class="edge"><title>Node21&#45;&gt;Node22</title>
<path fill="none" stroke="midnightblue" d="M2086,-326.687C2086,-292.488 2086,-242.929 2086,-212.262"/>
<polygon fill="none" stroke="midnightblue" points="2082.5,-326.769 2086,-336.769 2089.5,-326.77 2082.5,-326.769"/>
</g>
<!-- Node26 -->
<g id="node26" class="node"><title>Node26</title>
<g id="a_node26"><a xlink:href="classmemoryoracle_1_1symbol_1_1TemplatedDecorator.html" target="_top" xlink:title="{memoryoracle.symbol.Templated\lDecorator\n||}">
<polygon fill="none" stroke="black" points="2371,-149.5 2371,-217.5 2547,-217.5 2547,-149.5 2371,-149.5"/>
<text text-anchor="start" x="2379" y="-205.5" font-family="Helvetica,sans-Serif" font-size="10.00">memoryoracle.symbol.Templated</text>
<text text-anchor="middle" x="2459" y="-194.5" font-family="Helvetica,sans-Serif" font-size="10.00">Decorator</text>
<polyline fill="none" stroke="black" points="2371,-187.5 2547,-187.5 "/>
<text text-anchor="middle" x="2459" y="-175.5" font-family="Helvetica,sans-Serif" font-size="10.00"> </text>
<polyline fill="none" stroke="black" points="2371,-168.5 2547,-168.5 "/>
<text text-anchor="middle" x="2459" y="-156.5" font-family="Helvetica,sans-Serif" font-size="10.00"> </text>
</a>
</g>
</g>
<!-- Node25&#45;&gt;Node26 -->
<g id="edge25" class="edge"><title>Node25&#45;&gt;Node26</title>
<path fill="none" stroke="midnightblue" d="M2609.02,-324.42C2574.57,-292.288 2526.81,-247.74 2494.5,-217.61"/>
<polygon fill="none" stroke="midnightblue" points="2606.9,-327.224 2616.6,-331.485 2611.67,-322.105 2606.9,-327.224"/>
</g>
<!-- Node28 -->
<g id="node28" class="node"><title>Node28</title>
<g id="a_node28"><a xlink:href="classmemoryoracle_1_1symbol_1_1Enum.html" target="_top" xlink:title="{memoryoracle.symbol.Enum\n||}">
<polygon fill="none" stroke="black" points="2565.5,-155 2565.5,-212 2720.5,-212 2720.5,-155 2565.5,-155"/>
<text text-anchor="middle" x="2643" y="-200" font-family="Helvetica,sans-Serif" font-size="10.00">memoryoracle.symbol.Enum</text>
<polyline fill="none" stroke="black" points="2565.5,-193 2720.5,-193 "/>
<text text-anchor="middle" x="2643" y="-181" font-family="Helvetica,sans-Serif" font-size="10.00"> </text>
<polyline fill="none" stroke="black" points="2565.5,-174 2720.5,-174 "/>
<text text-anchor="middle" x="2643" y="-162" font-family="Helvetica,sans-Serif" font-size="10.00"> </text>
</a>
</g>
</g>
<!-- Node27&#45;&gt;Node28 -->
<g id="edge27" class="edge"><title>Node27&#45;&gt;Node28</title>
<path fill="none" stroke="midnightblue" d="M2793.08,-329.74C2757.7,-295.496 2704.33,-243.854 2671.69,-212.262"/>
<polygon fill="none" stroke="midnightblue" points="2790.73,-332.33 2800.35,-336.769 2795.59,-327.3 2790.73,-332.33"/>
</g>
<!-- Node29 -->
<g id="node29" class="node"><title>Node29</title>
<g id="a_node29"><a xlink:href="classmemoryoracle_1_1symbol_1_1SimpleType.html" target="_top" xlink:title="{memoryoracle.symbol.SimpleType\n||}">
<polygon fill="none" stroke="black" points="2738.5,-155 2738.5,-212 2919.5,-212 2919.5,-155 2738.5,-155"/>
<text text-anchor="middle" x="2829" y="-200" font-family="Helvetica,sans-Serif" font-size="10.00">memoryoracle.symbol.SimpleType</text>
<polyline fill="none" stroke="black" points="2738.5,-193 2919.5,-193 "/>
<text text-anchor="middle" x="2829" y="-181" font-family="Helvetica,sans-Serif" font-size="10.00"> </text>
<polyline fill="none" stroke="black" points="2738.5,-174 2919.5,-174 "/>
<text text-anchor="middle" x="2829" y="-162" font-family="Helvetica,sans-Serif" font-size="10.00"> </text>
</a>
</g>
</g>
<!-- Node27&#45;&gt;Node29 -->
<g id="edge28" class="edge"><title>Node27&#45;&gt;Node29</title>
<path fill="none" stroke="midnightblue" d="M2829,-326.687C2829,-292.488 2829,-242.929 2829,-212.262"/>
<polygon fill="none" stroke="midnightblue" points="2825.5,-326.769 2829,-336.769 2832.5,-326.77 2825.5,-326.769"/>
</g>
<!-- Node30 -->
<g id="node30" class="node"><title>Node30</title>
<g id="a_node30"><a xlink:href="classmemoryoracle_1_1symbol_1_1Structure.html" target="_top" xlink:title="{memoryoracle.symbol.Structure\n||}">
<polygon fill="none" stroke="black" points="2938,-155 2938,-212 3110,-212 3110,-155 2938,-155"/>
<text text-anchor="middle" x="3024" y="-200" font-family="Helvetica,sans-Serif" font-size="10.00">memoryoracle.symbol.Structure</text>
<polyline fill="none" stroke="black" points="2938,-193 3110,-193 "/>
<text text-anchor="middle" x="3024" y="-181" font-family="Helvetica,sans-Serif" font-size="10.00"> </text>
<polyline fill="none" stroke="black" points="2938,-174 3110,-174 "/>
<text text-anchor="middle" x="3024" y="-162" font-family="Helvetica,sans-Serif" font-size="10.00"> </text>
</a>
</g>
</g>
<!-- Node27&#45;&gt;Node30 -->
<g id="edge29" class="edge"><title>Node27&#45;&gt;Node30</title>
<path fill="none" stroke="midnightblue" d="M2866.66,-329.74C2903.75,-295.496 2959.7,-243.854 2993.92,-212.262"/>
<polygon fill="none" stroke="midnightblue" points="2864.02,-327.415 2859.04,-336.769 2868.76,-332.558 2864.02,-327.415"/>
</g>
<!-- Node32 -->
<g id="node32" class="node"><title>Node32</title>
<g id="a_node32"><a xlink:href="classmemoryoracle_1_1symbol_1_1Union.html" target="_top" xlink:title="{memoryoracle.symbol.Union\n||}">
<polygon fill="none" stroke="black" points="3128.5,-155 3128.5,-212 3283.5,-212 3283.5,-155 3128.5,-155"/>
<text text-anchor="middle" x="3206" y="-200" font-family="Helvetica,sans-Serif" font-size="10.00">memoryoracle.symbol.Union</text>
<polyline fill="none" stroke="black" points="3128.5,-193 3283.5,-193 "/>
<text text-anchor="middle" x="3206" y="-181" font-family="Helvetica,sans-Serif" font-size="10.00"> </text>
<polyline fill="none" stroke="black" points="3128.5,-174 3283.5,-174 "/>
<text text-anchor="middle" x="3206" y="-162" font-family="Helvetica,sans-Serif" font-size="10.00"> </text>
</a>
</g>
</g>
<!-- Node27&#45;&gt;Node32 -->
<g id="edge31" class="edge"><title>Node27&#45;&gt;Node32</title>
<path fill="none" stroke="midnightblue" d="M2864,-329.952C2877.9,-318.071 2894.69,-305.808 2912,-298 2997.12,-259.596 3034.91,-302.613 3119,-262 3143.59,-250.123 3166.44,-229.221 3182.55,-212.115"/>
<polygon fill="none" stroke="midnightblue" points="2861.35,-327.624 2856.17,-336.866 2865.98,-332.872 2861.35,-327.624"/>
</g>
<!-- Node31 -->
<g id="node31" class="node"><title>Node31</title>
<g id="a_node31"><a xlink:href="classmemoryoracle_1_1symbol_1_1StronglyTypedEnum.html" target="_top" xlink:title="{memoryoracle.symbol.Strongly\lTypedEnum\n||}">
<polygon fill="none" stroke="black" points="2940.5,-0.5 2940.5,-68.5 3107.5,-68.5 3107.5,-0.5 2940.5,-0.5"/>
<text text-anchor="start" x="2948.5" y="-56.5" font-family="Helvetica,sans-Serif" font-size="10.00">memoryoracle.symbol.Strongly</text>
<text text-anchor="middle" x="3024" y="-45.5" font-family="Helvetica,sans-Serif" font-size="10.00">TypedEnum</text>
<polyline fill="none" stroke="black" points="2940.5,-38.5 3107.5,-38.5 "/>
<text text-anchor="middle" x="3024" y="-26.5" font-family="Helvetica,sans-Serif" font-size="10.00"> </text>
<polyline fill="none" stroke="black" points="2940.5,-19.5 3107.5,-19.5 "/>
<text text-anchor="middle" x="3024" y="-7.5" font-family="Helvetica,sans-Serif" font-size="10.00"> </text>
</a>
</g>
</g>
<!-- Node30&#45;&gt;Node31 -->
<g id="edge30" class="edge"><title>Node30&#45;&gt;Node31</title>
<path fill="none" stroke="midnightblue" d="M3024,-144.561C3024,-121.082 3024,-91.2238 3024,-68.6873"/>
<polygon fill="none" stroke="midnightblue" points="3020.5,-144.85 3024,-154.85 3027.5,-144.85 3020.5,-144.85"/>
</g>
</g>
</svg>
