<?xml version="1.0" encoding="UTF-8" standalone="no"?>
<!DOCTYPE svg PUBLIC "-//W3C//DTD SVG 1.1//EN"
 "http://www.w3.org/Graphics/SVG/1.1/DTD/svg11.dtd">
<!-- Generated by graphviz version 2.38.0 (20140413.2041)
 -->
<!-- Title: memoryoracle.instance.Memory._basic_track Pages: 1 -->
<svg width="1113pt" height="183pt"
 viewBox="0.00 0.00 1113.00 183.29" xmlns="http://www.w3.org/2000/svg" xmlns:xlink="http://www.w3.org/1999/xlink">
<g id="graph0" class="graph" transform="scale(1 1) rotate(0) translate(4 179.29)">
<title>memoryoracle.instance.Memory._basic_track</title>
<!-- Node1 -->
<g id="node1" class="node"><title>Node1</title>
<polygon fill="#bfbfbf" stroke="black" points="0,-12.7902 0,-42.7902 173,-42.7902 173,-12.7902 0,-12.7902"/>
<text text-anchor="start" x="8" y="-30.7902" font-family="Helvetica,sans-Serif" font-size="10.00">memoryoracle.instance.Memory.</text>
<text text-anchor="middle" x="86.5" y="-19.7902" font-family="Helvetica,sans-Serif" font-size="10.00">_basic_track</text>
</g>
<!-- Node2 -->
<g id="node2" class="node"><title>Node2</title>
<g id="a_node2"><a xlink:href="classmemoryoracle_1_1instance_1_1Memory.html#a8951ac234fecbd6cd473133ae7e63662" target="_top" xlink:title="memoryoracle.instance.Memory.track">
<polygon fill="none" stroke="black" points="209,-78.2902 209,-97.2902 406,-97.2902 406,-78.2902 209,-78.2902"/>
<text text-anchor="middle" x="307.5" y="-85.2902" font-family="Helvetica,sans-Serif" font-size="10.00">memoryoracle.instance.Memory.track</text>
</a>
</g>
</g>
<!-- Node1&#45;&gt;Node2 -->
<g id="edge1" class="edge"><title>Node1&#45;&gt;Node2</title>
<path fill="none" stroke="midnightblue" d="M152.213,-45.5197C191.335,-56.2382 239.674,-69.4817 271.708,-78.2582"/>
<polygon fill="midnightblue" stroke="midnightblue" points="153.05,-42.1201 142.48,-42.8533 151.2,-48.8713 153.05,-42.1201"/>
</g>
<!-- Node5 -->
<g id="node5" class="node"><title>Node5</title>
<g id="a_node5"><a xlink:href="classmemoryoracle_1_1models_1_1Typed.html#aa1d5d8d5b7ebe5c2876f363e7eb669db" target="_top" xlink:title="memoryoracle.models.Typed.track">
<polygon fill="none" stroke="black" points="685,-78.2902 685,-97.2902 867,-97.2902 867,-78.2902 685,-78.2902"/>
<text text-anchor="middle" x="776" y="-85.2902" font-family="Helvetica,sans-Serif" font-size="10.00">memoryoracle.models.Typed.track</text>
</a>
</g>
</g>
<!-- Node1&#45;&gt;Node5 -->
<g id="edge12" class="edge"><title>Node1&#45;&gt;Node5</title>
<path fill="none" stroke="midnightblue" d="M183.1,-13.7899C296.092,-0.316648 488.982,12.9849 649,-24.7902 692.797,-35.1293 738.728,-63.1518 761.099,-78.0967"/>
<polygon fill="midnightblue" stroke="midnightblue" points="182.594,-10.3255 173.09,-15.0089 183.44,-17.2742 182.594,-10.3255"/>
</g>
<!-- Node3 -->
<g id="node3" class="node"><title>Node3</title>
<g id="a_node3"><a xlink:href="classmemoryoracle_1_1instance_1_1Memory.html#aa937ea1a82dcaa2fa1c868a387d59483" target="_top" xlink:title="memoryoracle.instance.Memory.update">
<polygon fill="none" stroke="black" points="442,-34.2902 442,-53.2902 649,-53.2902 649,-34.2902 442,-34.2902"/>
<text text-anchor="middle" x="545.5" y="-41.2902" font-family="Helvetica,sans-Serif" font-size="10.00">memoryoracle.instance.Memory.update</text>
</a>
</g>
</g>
<!-- Node2&#45;&gt;Node3 -->
<g id="edge2" class="edge"><title>Node2&#45;&gt;Node3</title>
<path fill="none" stroke="midnightblue" d="M369.735,-76.3734C408.14,-69.2132 457.077,-60.0895 493.391,-53.3189"/>
<polygon fill="midnightblue" stroke="midnightblue" points="368.898,-72.9692 359.708,-78.2429 370.181,-79.8507 368.898,-72.9692"/>
</g>
<!-- Node4 -->
<g id="node4" class="node"><title>Node4</title>
<g id="a_node4"><a xlink:href="classmemoryoracle_1_1instance_1_1Int.html#a38c9424341353f006771163d360594da" target="_top" xlink:title="memoryoracle.instance.Int.\l_track">
<polygon fill="none" stroke="black" points="471.5,-72.7902 471.5,-102.79 619.5,-102.79 619.5,-72.7902 471.5,-72.7902"/>
<text text-anchor="start" x="479.5" y="-90.7902" font-family="Helvetica,sans-Serif" font-size="10.00">memoryoracle.instance.Int.</text>
<text text-anchor="middle" x="545.5" y="-79.7902" font-family="Helvetica,sans-Serif" font-size="10.00">_track</text>
</a>
</g>
</g>
<!-- Node2&#45;&gt;Node4 -->
<g id="edge3" class="edge"><title>Node2&#45;&gt;Node4</title>
<path fill="none" stroke="midnightblue" d="M416.217,-81.063C434.891,-80.9799 453.91,-81.1237 471.386,-81.4944"/>
<polygon fill="midnightblue" stroke="midnightblue" points="416.17,-77.5632 406.194,-81.1298 416.217,-84.563 416.17,-77.5632"/>
</g>
<!-- Node6 -->
<g id="node6" class="node"><title>Node6</title>
<g id="a_node6"><a xlink:href="classmemoryoracle_1_1models_1_1Typed.html#a494dfbe205034b874ff9e8c7039f579b" target="_top" xlink:title="memoryoracle.models.Typed.\l__init__">
<polygon fill="none" stroke="black" points="925,-19.7902 925,-49.7902 1083,-49.7902 1083,-19.7902 925,-19.7902"/>
<text text-anchor="start" x="933" y="-37.7902" font-family="Helvetica,sans-Serif" font-size="10.00">memoryoracle.models.Typed.</text>
<text text-anchor="middle" x="1004" y="-26.7902" font-family="Helvetica,sans-Serif" font-size="10.00">__init__</text>
</a>
</g>
</g>
<!-- Node2&#45;&gt;Node6 -->
<g id="edge9" class="edge"><title>Node2&#45;&gt;Node6</title>
<path fill="none" stroke="midnightblue" d="M332.001,-72.7545C357.799,-57.2161 401.018,-33.9744 442,-24.7902 610.72,13.0208 815.172,-6.40891 924.694,-21.8801"/>
<polygon fill="midnightblue" stroke="midnightblue" points="330.007,-69.8717 323.321,-78.0903 333.673,-75.8351 330.007,-69.8717"/>
</g>
<!-- Node7 -->
<g id="node7" class="node"><title>Node7</title>
<g id="a_node7"><a xlink:href="classmemoryoracle_1_1models_1_1Memory.html#a71d4a141abc3358afdf1a1325bfd4253" target="_top" xlink:title="memoryoracle.models.Memory.update">
<polygon fill="none" stroke="black" points="903,-97.2902 903,-116.29 1105,-116.29 1105,-97.2902 903,-97.2902"/>
<text text-anchor="middle" x="1004" y="-104.29" font-family="Helvetica,sans-Serif" font-size="10.00">memoryoracle.models.Memory.update</text>
</a>
</g>
</g>
<!-- Node2&#45;&gt;Node7 -->
<g id="edge10" class="edge"><title>Node2&#45;&gt;Node7</title>
<path fill="none" stroke="midnightblue" d="M358.492,-99.4239C383.429,-104.645 414.142,-110.204 442,-112.79 602.752,-127.712 790.517,-120.796 902.927,-114.065"/>
<polygon fill="midnightblue" stroke="midnightblue" points="359.047,-95.9636 348.536,-97.2939 357.583,-102.809 359.047,-95.9636"/>
</g>
<!-- Node8 -->
<g id="node8" class="node"><title>Node8</title>
<g id="a_node8"><a xlink:href="classmemoryoracle_1_1models_1_1Memory.html#aed3af349dd80317ae9cca4b4e9cb7c26" target="_top" xlink:title="memoryoracle.models.Memory.\l__init__">
<polygon fill="none" stroke="black" points="920,-144.79 920,-174.79 1088,-174.79 1088,-144.79 920,-144.79"/>
<text text-anchor="start" x="928" y="-162.79" font-family="Helvetica,sans-Serif" font-size="10.00">memoryoracle.models.Memory.</text>
<text text-anchor="middle" x="1004" y="-151.79" font-family="Helvetica,sans-Serif" font-size="10.00">__init__</text>
</a>
</g>
</g>
<!-- Node2&#45;&gt;Node8 -->
<g id="edge11" class="edge"><title>Node2&#45;&gt;Node8</title>
<path fill="none" stroke="midnightblue" d="M341.727,-101.164C368.367,-111.23 406.96,-124.355 442,-130.79 609.623,-161.574 809.808,-163.844 919.994,-162.184"/>
<polygon fill="midnightblue" stroke="midnightblue" points="342.724,-97.7982 332.134,-97.4766 340.212,-104.332 342.724,-97.7982"/>
</g>
<!-- Node4&#45;&gt;Node2 -->
<g id="edge4" class="edge"><title>Node4&#45;&gt;Node2</title>
<path fill="none" stroke="midnightblue" d="M461.079,-94.2757C443.326,-94.5547 424.426,-94.613 406.194,-94.4506"/>
<polygon fill="midnightblue" stroke="midnightblue" points="461.453,-97.7695 471.386,-94.086 461.324,-90.7707 461.453,-97.7695"/>
</g>
<!-- Node4&#45;&gt;Node5 -->
<g id="edge5" class="edge"><title>Node4&#45;&gt;Node5</title>
<path fill="none" stroke="midnightblue" d="M629.861,-87.7902C647.781,-87.7902 666.798,-87.7902 684.959,-87.7902"/>
<polygon fill="midnightblue" stroke="midnightblue" points="629.742,-84.2903 619.742,-87.7902 629.742,-91.2903 629.742,-84.2903"/>
</g>
<!-- Node5&#45;&gt;Node6 -->
<g id="edge6" class="edge"><title>Node5&#45;&gt;Node6</title>
<path fill="none" stroke="midnightblue" d="M827.507,-75.9457C860.346,-68.2445 903.456,-58.1345 938.731,-49.8622"/>
<polygon fill="midnightblue" stroke="midnightblue" points="826.602,-72.5628 817.665,-78.2537 828.2,-79.3779 826.602,-72.5628"/>
</g>
<!-- Node5&#45;&gt;Node7 -->
<g id="edge7" class="edge"><title>Node5&#45;&gt;Node7</title>
<path fill="none" stroke="midnightblue" d="M877.496,-96.239C885.908,-96.9461 894.412,-97.6611 902.821,-98.3681"/>
<polygon fill="midnightblue" stroke="midnightblue" points="877.554,-92.7316 867.296,-95.3814 876.967,-99.707 877.554,-92.7316"/>
</g>
<!-- Node5&#45;&gt;Node8 -->
<g id="edge8" class="edge"><title>Node5&#45;&gt;Node8</title>
<path fill="none" stroke="midnightblue" d="M816.883,-100.496C855.602,-112.831 914.391,-131.561 955.507,-144.66"/>
<polygon fill="midnightblue" stroke="midnightblue" points="817.602,-97.052 807.011,-97.3512 815.477,-103.722 817.602,-97.052"/>
</g>
</g>
</svg>
