<?xml version="1.0" encoding="UTF-8" standalone="no"?>
<!DOCTYPE svg PUBLIC "-//W3C//DTD SVG 1.1//EN"
 "http://www.w3.org/Graphics/SVG/1.1/DTD/svg11.dtd">
<!-- Generated by graphviz version 2.38.0 (20140413.2041)
 -->
<!-- Title: memoryoracle.instance.Pointer._track Pages: 1 -->
<svg width="1109pt" height="202pt"
 viewBox="0.00 0.00 1109.00 201.91" xmlns="http://www.w3.org/2000/svg" xmlns:xlink="http://www.w3.org/1999/xlink">
<g id="graph0" class="graph" transform="scale(1 1) rotate(0) translate(4 197.913)">
<title>memoryoracle.instance.Pointer._track</title>
<!-- Node1 -->
<g id="node1" class="node"><title>Node1</title>
<polygon fill="#bfbfbf" stroke="black" points="0,-163.413 0,-193.413 169,-193.413 169,-163.413 0,-163.413"/>
<text text-anchor="start" x="8" y="-181.413" font-family="Helvetica,sans-Serif" font-size="10.00">memoryoracle.instance.Pointer.</text>
<text text-anchor="middle" x="84.5" y="-170.413" font-family="Helvetica,sans-Serif" font-size="10.00">_track</text>
</g>
<!-- Node2 -->
<g id="node2" class="node"><title>Node2</title>
<g id="a_node2"><a xlink:href="classmemoryoracle_1_1instance_1_1Memory.html#a8951ac234fecbd6cd473133ae7e63662" target="_top" xlink:title="memoryoracle.instance.Memory.track">
<polygon fill="none" stroke="black" points="205,-127.913 205,-146.913 402,-146.913 402,-127.913 205,-127.913"/>
<text text-anchor="middle" x="303.5" y="-134.913" font-family="Helvetica,sans-Serif" font-size="10.00">memoryoracle.instance.Memory.track</text>
</a>
</g>
</g>
<!-- Node1&#45;&gt;Node2 -->
<g id="edge1" class="edge"><title>Node1&#45;&gt;Node2</title>
<path fill="none" stroke="midnightblue" d="M175.038,-161.495C201.274,-156.538 229.037,-151.293 251.931,-146.967"/>
<polygon fill="midnightblue" stroke="midnightblue" points="174.247,-158.083 165.071,-163.379 175.547,-164.961 174.247,-158.083"/>
</g>
<!-- Node6 -->
<g id="node6" class="node"><title>Node6</title>
<g id="a_node6"><a xlink:href="classmemoryoracle_1_1models_1_1Typed.html#aa1d5d8d5b7ebe5c2876f363e7eb669db" target="_top" xlink:title="memoryoracle.models.Typed.track">
<polygon fill="none" stroke="black" points="681,-127.913 681,-146.913 863,-146.913 863,-127.913 681,-127.913"/>
<text text-anchor="middle" x="772" y="-134.913" font-family="Helvetica,sans-Serif" font-size="10.00">memoryoracle.models.Typed.track</text>
</a>
</g>
</g>
<!-- Node1&#45;&gt;Node6 -->
<g id="edge12" class="edge"><title>Node1&#45;&gt;Node6</title>
<path fill="none" stroke="midnightblue" d="M179.4,-180.069C290.811,-180.992 482.004,-179.299 645,-161.413 673.555,-158.279 705.326,-152.21 729.821,-146.958"/>
<polygon fill="midnightblue" stroke="midnightblue" points="179.235,-176.567 169.203,-179.975 179.17,-183.567 179.235,-176.567"/>
</g>
<!-- Node3 -->
<g id="node3" class="node"><title>Node3</title>
<g id="a_node3"><a xlink:href="classmemoryoracle_1_1models_1_1Typed.html#a494dfbe205034b874ff9e8c7039f579b" target="_top" xlink:title="memoryoracle.models.Typed.\l__init__">
<polygon fill="none" stroke="black" points="921,-18.4126 921,-48.4126 1079,-48.4126 1079,-18.4126 921,-18.4126"/>
<text text-anchor="start" x="929" y="-36.4126" font-family="Helvetica,sans-Serif" font-size="10.00">memoryoracle.models.Typed.</text>
<text text-anchor="middle" x="1000" y="-25.4126" font-family="Helvetica,sans-Serif" font-size="10.00">__init__</text>
</a>
</g>
</g>
<!-- Node2&#45;&gt;Node3 -->
<g id="edge2" class="edge"><title>Node2&#45;&gt;Node3</title>
<path fill="none" stroke="midnightblue" d="M319.83,-120.304C342.739,-96.1584 388.537,-53.1626 438,-36.4126 602.438,19.272 809.866,-1.13414 920.695,-18.6656"/>
<polygon fill="midnightblue" stroke="midnightblue" points="317.2,-117.992 312.966,-127.704 322.333,-122.752 317.2,-117.992"/>
</g>
<!-- Node4 -->
<g id="node4" class="node"><title>Node4</title>
<g id="a_node4"><a xlink:href="classmemoryoracle_1_1models_1_1Memory.html#aed3af349dd80317ae9cca4b4e9cb7c26" target="_top" xlink:title="memoryoracle.models.Memory.\l__init__">
<polygon fill="none" stroke="black" points="916,-144.413 916,-174.413 1084,-174.413 1084,-144.413 916,-144.413"/>
<text text-anchor="start" x="924" y="-162.413" font-family="Helvetica,sans-Serif" font-size="10.00">memoryoracle.models.Memory.</text>
<text text-anchor="middle" x="1000" y="-151.413" font-family="Helvetica,sans-Serif" font-size="10.00">__init__</text>
</a>
</g>
</g>
<!-- Node2&#45;&gt;Node4 -->
<g id="edge3" class="edge"><title>Node2&#45;&gt;Node4</title>
<path fill="none" stroke="midnightblue" d="M356.468,-148.972C381.049,-153.869 410.891,-158.995 438,-161.413 607.043,-176.487 805.876,-170.113 915.627,-164.506"/>
<polygon fill="midnightblue" stroke="midnightblue" points="357.125,-145.534 346.628,-146.969 355.728,-152.394 357.125,-145.534"/>
</g>
<!-- Node5 -->
<g id="node5" class="node"><title>Node5</title>
<g id="a_node5"><a xlink:href="classmemoryoracle_1_1instance_1_1Int.html#a38c9424341353f006771163d360594da" target="_top" xlink:title="memoryoracle.instance.Int.\l_track">
<polygon fill="none" stroke="black" points="467.5,-122.413 467.5,-152.413 615.5,-152.413 615.5,-122.413 467.5,-122.413"/>
<text text-anchor="start" x="475.5" y="-140.413" font-family="Helvetica,sans-Serif" font-size="10.00">memoryoracle.instance.Int.</text>
<text text-anchor="middle" x="541.5" y="-129.413" font-family="Helvetica,sans-Serif" font-size="10.00">_track</text>
</a>
</g>
</g>
<!-- Node2&#45;&gt;Node5 -->
<g id="edge4" class="edge"><title>Node2&#45;&gt;Node5</title>
<path fill="none" stroke="midnightblue" d="M412.217,-130.685C430.891,-130.602 449.91,-130.746 467.386,-131.117"/>
<polygon fill="midnightblue" stroke="midnightblue" points="412.17,-127.186 402.194,-130.752 412.217,-134.185 412.17,-127.186"/>
</g>
<!-- Node7 -->
<g id="node7" class="node"><title>Node7</title>
<g id="a_node7"><a xlink:href="classmemoryoracle_1_1models_1_1Memory.html#a71d4a141abc3358afdf1a1325bfd4253" target="_top" xlink:title="memoryoracle.models.Memory.update">
<polygon fill="none" stroke="black" points="899,-94.9126 899,-113.913 1101,-113.913 1101,-94.9126 899,-94.9126"/>
<text text-anchor="middle" x="1000" y="-101.913" font-family="Helvetica,sans-Serif" font-size="10.00">memoryoracle.models.Memory.update</text>
</a>
</g>
</g>
<!-- Node2&#45;&gt;Node7 -->
<g id="edge11" class="edge"><title>Node2&#45;&gt;Node7</title>
<path fill="none" stroke="midnightblue" d="M355.342,-125.778C380.131,-120.647 410.47,-115.166 438,-112.413 598.648,-96.3442 786.444,-97.7295 898.889,-100.703"/>
<polygon fill="midnightblue" stroke="midnightblue" points="354.495,-122.379 345.434,-127.87 355.941,-129.228 354.495,-122.379"/>
</g>
<!-- Node8 -->
<g id="node8" class="node"><title>Node8</title>
<g id="a_node8"><a xlink:href="classmemoryoracle_1_1instance_1_1Memory.html#aa937ea1a82dcaa2fa1c868a387d59483" target="_top" xlink:title="memoryoracle.instance.Memory.update">
<polygon fill="none" stroke="black" points="438,-45.9126 438,-64.9126 645,-64.9126 645,-45.9126 438,-45.9126"/>
<text text-anchor="middle" x="541.5" y="-52.9126" font-family="Helvetica,sans-Serif" font-size="10.00">memoryoracle.instance.Memory.update</text>
</a>
</g>
</g>
<!-- Node2&#45;&gt;Node8 -->
<g id="edge10" class="edge"><title>Node2&#45;&gt;Node8</title>
<path fill="none" stroke="midnightblue" d="M332.639,-123.417C359.266,-110.602 400.613,-91.7993 438,-79.4126 455.262,-73.6935 474.59,-68.7945 491.77,-64.9421"/>
<polygon fill="midnightblue" stroke="midnightblue" points="330.994,-120.325 323.53,-127.845 334.054,-126.621 330.994,-120.325"/>
</g>
<!-- Node5&#45;&gt;Node2 -->
<g id="edge5" class="edge"><title>Node5&#45;&gt;Node2</title>
<path fill="none" stroke="midnightblue" d="M457.079,-143.898C439.326,-144.177 420.426,-144.235 402.194,-144.073"/>
<polygon fill="midnightblue" stroke="midnightblue" points="457.453,-147.392 467.386,-143.708 457.324,-140.393 457.453,-147.392"/>
</g>
<!-- Node5&#45;&gt;Node6 -->
<g id="edge6" class="edge"><title>Node5&#45;&gt;Node6</title>
<path fill="none" stroke="midnightblue" d="M625.861,-137.413C643.781,-137.413 662.798,-137.413 680.959,-137.413"/>
<polygon fill="midnightblue" stroke="midnightblue" points="625.742,-133.913 615.742,-137.413 625.742,-140.913 625.742,-133.913"/>
</g>
<!-- Node6&#45;&gt;Node3 -->
<g id="edge7" class="edge"><title>Node6&#45;&gt;Node3</title>
<path fill="none" stroke="midnightblue" d="M803.103,-123.56C845.504,-104.048 922.518,-68.6078 966.289,-48.4657"/>
<polygon fill="midnightblue" stroke="midnightblue" points="801.478,-120.455 793.856,-127.815 804.404,-126.814 801.478,-120.455"/>
</g>
<!-- Node6&#45;&gt;Node4 -->
<g id="edge9" class="edge"><title>Node6&#45;&gt;Node4</title>
<path fill="none" stroke="midnightblue" d="M873.525,-147.198C887.656,-148.574 902.05,-149.975 915.809,-151.314"/>
<polygon fill="midnightblue" stroke="midnightblue" points="873.588,-143.688 863.296,-146.202 872.909,-150.655 873.588,-143.688"/>
</g>
<!-- Node6&#45;&gt;Node7 -->
<g id="edge8" class="edge"><title>Node6&#45;&gt;Node7</title>
<path fill="none" stroke="midnightblue" d="M848.091,-126.448C875.762,-122.408 906.864,-117.866 933.611,-113.961"/>
<polygon fill="midnightblue" stroke="midnightblue" points="847.455,-123.004 838.065,-127.912 848.466,-129.93 847.455,-123.004"/>
</g>
</g>
</svg>
