<?xml version="1.0" encoding="UTF-8" standalone="no"?>
<!DOCTYPE svg PUBLIC "-//W3C//DTD SVG 1.1//EN"
 "http://www.w3.org/Graphics/SVG/1.1/DTD/svg11.dtd">
<!-- Generated by graphviz version 2.38.0 (20140413.2041)
 -->
<!-- Title: memoryoracle.tracked.Variable Pages: 1 -->
<svg width="175pt" height="348pt"
 viewBox="0.00 0.00 175.00 348.00" xmlns="http://www.w3.org/2000/svg" xmlns:xlink="http://www.w3.org/1999/xlink">
<g id="graph0" class="graph" transform="scale(1 1) rotate(0) translate(4 344)">
<title>memoryoracle.tracked.Variable</title>
<!-- Node1 -->
<g id="node1" class="node"><title>Node1</title>
<polygon fill="#bfbfbf" stroke="black" points="-1.42109e-14,-0.5 -1.42109e-14,-57.5 167,-57.5 167,-0.5 -1.42109e-14,-0.5"/>
<text text-anchor="middle" x="83.5" y="-45.5" font-family="Helvetica,sans-Serif" font-size="10.00">memoryoracle.tracked.Variable</text>
<polyline fill="none" stroke="black" points="-1.42109e-14,-38.5 167,-38.5 "/>
<text text-anchor="middle" x="83.5" y="-26.5" font-family="Helvetica,sans-Serif" font-size="10.00"> </text>
<polyline fill="none" stroke="black" points="-1.42109e-14,-19.5 167,-19.5 "/>
<text text-anchor="middle" x="83.5" y="-7.5" font-family="Helvetica,sans-Serif" font-size="10.00"> </text>
</g>
<!-- Node2 -->
<g id="node2" class="node"><title>Node2</title>
<g id="a_node2"><a xlink:href="classmemoryoracle_1_1tracked_1_1Symbol.html" target="_top" xlink:title="{memoryoracle.tracked.Symbol\n||}">
<polygon fill="none" stroke="black" points="1.5,-94.5 1.5,-151.5 165.5,-151.5 165.5,-94.5 1.5,-94.5"/>
<text text-anchor="middle" x="83.5" y="-139.5" font-family="Helvetica,sans-Serif" font-size="10.00">memoryoracle.tracked.Symbol</text>
<polyline fill="none" stroke="black" points="1.5,-132.5 165.5,-132.5 "/>
<text text-anchor="middle" x="83.5" y="-120.5" font-family="Helvetica,sans-Serif" font-size="10.00"> </text>
<polyline fill="none" stroke="black" points="1.5,-113.5 165.5,-113.5 "/>
<text text-anchor="middle" x="83.5" y="-101.5" font-family="Helvetica,sans-Serif" font-size="10.00"> </text>
</a>
</g>
</g>
<!-- Node2&#45;&gt;Node1 -->
<g id="edge1" class="edge"><title>Node2&#45;&gt;Node1</title>
<path fill="none" stroke="midnightblue" d="M83.5,-84.2092C83.5,-75.2929 83.5,-65.9513 83.5,-57.5836"/>
<polygon fill="none" stroke="midnightblue" points="80.0001,-84.3969 83.5,-94.397 87.0001,-84.397 80.0001,-84.3969"/>
</g>
<!-- Node3 -->
<g id="node3" class="node"><title>Node3</title>
<g id="a_node3"><a xlink:href="classmemoryoracle_1_1tracked_1_1Tracked.html" target="_top" xlink:title="{memoryoracle.tracked.Tracked\n||}">
<polygon fill="none" stroke="black" points="1.5,-188.5 1.5,-245.5 165.5,-245.5 165.5,-188.5 1.5,-188.5"/>
<text text-anchor="middle" x="83.5" y="-233.5" font-family="Helvetica,sans-Serif" font-size="10.00">memoryoracle.tracked.Tracked</text>
<polyline fill="none" stroke="black" points="1.5,-226.5 165.5,-226.5 "/>
<text text-anchor="middle" x="83.5" y="-214.5" font-family="Helvetica,sans-Serif" font-size="10.00"> </text>
<polyline fill="none" stroke="black" points="1.5,-207.5 165.5,-207.5 "/>
<text text-anchor="middle" x="83.5" y="-195.5" font-family="Helvetica,sans-Serif" font-size="10.00"> </text>
</a>
</g>
</g>
<!-- Node3&#45;&gt;Node2 -->
<g id="edge2" class="edge"><title>Node3&#45;&gt;Node2</title>
<path fill="none" stroke="midnightblue" d="M83.5,-178.209C83.5,-169.293 83.5,-159.951 83.5,-151.584"/>
<polygon fill="none" stroke="midnightblue" points="80.0001,-178.397 83.5,-188.397 87.0001,-178.397 80.0001,-178.397"/>
</g>
<!-- Node4 -->
<g id="node4" class="node"><title>Node4</title>
<polygon fill="none" stroke="#bfbfbf" points="60.5,-282.5 60.5,-339.5 106.5,-339.5 106.5,-282.5 60.5,-282.5"/>
<text text-anchor="middle" x="83.5" y="-327.5" font-family="Helvetica,sans-Serif" font-size="10.00">object</text>
<polyline fill="none" stroke="#bfbfbf" points="60.5,-320.5 106.5,-320.5 "/>
<text text-anchor="middle" x="83.5" y="-308.5" font-family="Helvetica,sans-Serif" font-size="10.00"> </text>
<polyline fill="none" stroke="#bfbfbf" points="60.5,-301.5 106.5,-301.5 "/>
<text text-anchor="middle" x="83.5" y="-289.5" font-family="Helvetica,sans-Serif" font-size="10.00"> </text>
</g>
<!-- Node4&#45;&gt;Node3 -->
<g id="edge3" class="edge"><title>Node4&#45;&gt;Node3</title>
<path fill="none" stroke="midnightblue" d="M83.5,-272.209C83.5,-263.293 83.5,-253.951 83.5,-245.584"/>
<polygon fill="none" stroke="midnightblue" points="80.0001,-272.397 83.5,-282.397 87.0001,-272.397 80.0001,-272.397"/>
</g>
</g>
</svg>
