<?xml version="1.0" encoding="UTF-8" standalone="no"?>
<!DOCTYPE svg PUBLIC "-//W3C//DTD SVG 1.1//EN"
 "http://www.w3.org/Graphics/SVG/1.1/DTD/svg11.dtd">
<!-- Generated by graphviz version 2.38.0 (20140413.2041)
 -->
<!-- Title: memoryoracle.frame.Frame.name Pages: 1 -->
<svg width="889pt" height="166pt"
 viewBox="0.00 0.00 889.00 165.50" xmlns="http://www.w3.org/2000/svg" xmlns:xlink="http://www.w3.org/1999/xlink">
<g id="graph0" class="graph" transform="scale(1 1) rotate(0) translate(4 161.5)">
<title>memoryoracle.frame.Frame.name</title>
<!-- Node1 -->
<g id="node1" class="node"><title>Node1</title>
<polygon fill="#bfbfbf" stroke="black" points="0,-69 0,-88 182,-88 182,-69 0,-69"/>
<text text-anchor="middle" x="91" y="-76" font-family="Helvetica,sans-Serif" font-size="10.00">memoryoracle.frame.Frame.name</text>
</g>
<!-- Node2 -->
<g id="node2" class="node"><title>Node2</title>
<g id="a_node2"><a xlink:href="classmemoryoracle_1_1instance_1_1Structure.html#a200a54be462e0199b7833cbd11f81a52" target="_top" xlink:title="memoryoracle.instance.Structure.\l_track">
<polygon fill="none" stroke="black" points="218,-88.5 218,-118.5 399,-118.5 399,-88.5 218,-88.5"/>
<text text-anchor="start" x="226" y="-106.5" font-family="Helvetica,sans-Serif" font-size="10.00">memoryoracle.instance.Structure.</text>
<text text-anchor="middle" x="308.5" y="-95.5" font-family="Helvetica,sans-Serif" font-size="10.00">_track</text>
</a>
</g>
</g>
<!-- Node1&#45;&gt;Node2 -->
<g id="edge1" class="edge"><title>Node1&#45;&gt;Node2</title>
<path fill="none" stroke="midnightblue" d="M184.213,-89.1976C195.325,-90.4866 206.662,-91.8018 217.737,-93.0867"/>
<polygon fill="midnightblue" stroke="midnightblue" points="184.423,-85.6985 174.086,-88.0227 183.616,-92.6519 184.423,-85.6985"/>
</g>
<!-- Node9 -->
<g id="node9" class="node"><title>Node9</title>
<g id="a_node9"><a xlink:href="classmemoryoracle_1_1instance_1_1Array.html#a1d8c3993d8a52bfbec8240d6f79b3ce1" target="_top" xlink:title="memoryoracle.instance.Array.\l_track">
<polygon fill="none" stroke="black" points="228.5,-39.5 228.5,-69.5 388.5,-69.5 388.5,-39.5 228.5,-39.5"/>
<text text-anchor="start" x="236.5" y="-57.5" font-family="Helvetica,sans-Serif" font-size="10.00">memoryoracle.instance.Array.</text>
<text text-anchor="middle" x="308.5" y="-46.5" font-family="Helvetica,sans-Serif" font-size="10.00">_track</text>
</a>
</g>
</g>
<!-- Node1&#45;&gt;Node9 -->
<g id="edge11" class="edge"><title>Node1&#45;&gt;Node9</title>
<path fill="none" stroke="midnightblue" d="M187.8,-67.8309C201.378,-66.3186 215.213,-64.7779 228.428,-63.3062"/>
<polygon fill="midnightblue" stroke="midnightblue" points="187.032,-64.3947 177.481,-68.9801 187.807,-71.3517 187.032,-64.3947"/>
</g>
<!-- Node3 -->
<g id="node3" class="node"><title>Node3</title>
<g id="a_node3"><a xlink:href="classmemoryoracle_1_1instance_1_1Instance.html#a86649e01ee4f562debdba5421a334f78" target="_top" xlink:title="memoryoracle.instance.Instance.track">
<polygon fill="none" stroke="black" points="435,-91 435,-110 635,-110 635,-91 435,-91"/>
<text text-anchor="middle" x="535" y="-98" font-family="Helvetica,sans-Serif" font-size="10.00">memoryoracle.instance.Instance.track</text>
</a>
</g>
</g>
<!-- Node2&#45;&gt;Node3 -->
<g id="edge2" class="edge"><title>Node2&#45;&gt;Node3</title>
<path fill="none" stroke="midnightblue" d="M409.437,-102.165C417.881,-102.052 426.419,-101.938 434.857,-101.825"/>
<polygon fill="midnightblue" stroke="midnightblue" points="409.149,-98.668 399.196,-102.301 409.242,-105.667 409.149,-98.668"/>
</g>
<!-- Node8 -->
<g id="node8" class="node"><title>Node8</title>
<g id="a_node8"><a xlink:href="classmemoryoracle_1_1models_1_1Typed.html#aa1d5d8d5b7ebe5c2876f363e7eb669db" target="_top" xlink:title="memoryoracle.models.Typed.track">
<polygon fill="none" stroke="black" points="444,-50 444,-69 626,-69 626,-50 444,-50"/>
<text text-anchor="middle" x="535" y="-57" font-family="Helvetica,sans-Serif" font-size="10.00">memoryoracle.models.Typed.track</text>
</a>
</g>
</g>
<!-- Node2&#45;&gt;Node8 -->
<g id="edge7" class="edge"><title>Node2&#45;&gt;Node8</title>
<path fill="none" stroke="midnightblue" d="M396.283,-86.4912C426.552,-80.5589 459.428,-74.1155 485.465,-69.0124"/>
<polygon fill="midnightblue" stroke="midnightblue" points="395.272,-83.1227 386.132,-88.4808 396.619,-89.992 395.272,-83.1227"/>
</g>
<!-- Node4 -->
<g id="node4" class="node"><title>Node4</title>
<g id="a_node4"><a xlink:href="classmemoryoracle_1_1instance_1_1Instance.html#a286e015a030541a0704994172024f034" target="_top" xlink:title="memoryoracle.instance.Instance.update">
<polygon fill="none" stroke="black" points="671,-138 671,-157 881,-157 881,-138 671,-138"/>
<text text-anchor="middle" x="776" y="-145" font-family="Helvetica,sans-Serif" font-size="10.00">memoryoracle.instance.Instance.update</text>
</a>
</g>
</g>
<!-- Node3&#45;&gt;Node4 -->
<g id="edge3" class="edge"><title>Node3&#45;&gt;Node4</title>
<path fill="none" stroke="midnightblue" d="M590.499,-112.111C615.069,-117.267 644.466,-123.325 671,-128.5 687.394,-131.697 705.274,-135.022 721.512,-137.98"/>
<polygon fill="midnightblue" stroke="midnightblue" points="591.145,-108.671 580.639,-110.037 589.704,-115.521 591.145,-108.671"/>
</g>
<!-- Node5 -->
<g id="node5" class="node"><title>Node5</title>
<g id="a_node5"><a xlink:href="classmemoryoracle_1_1models_1_1Typed.html#a494dfbe205034b874ff9e8c7039f579b" target="_top" xlink:title="memoryoracle.models.Typed.\l__init__">
<polygon fill="none" stroke="black" points="697,-88.5 697,-118.5 855,-118.5 855,-88.5 697,-88.5"/>
<text text-anchor="start" x="705" y="-106.5" font-family="Helvetica,sans-Serif" font-size="10.00">memoryoracle.models.Typed.</text>
<text text-anchor="middle" x="776" y="-95.5" font-family="Helvetica,sans-Serif" font-size="10.00">__init__</text>
</a>
</g>
</g>
<!-- Node3&#45;&gt;Node5 -->
<g id="edge4" class="edge"><title>Node3&#45;&gt;Node5</title>
<path fill="none" stroke="midnightblue" d="M645.436,-101.874C662.758,-102.091 680.364,-102.312 696.784,-102.518"/>
<polygon fill="midnightblue" stroke="midnightblue" points="645.324,-98.3721 635.281,-101.746 645.236,-105.372 645.324,-98.3721"/>
</g>
<!-- Node6 -->
<g id="node6" class="node"><title>Node6</title>
<g id="a_node6"><a xlink:href="classmemoryoracle_1_1models_1_1Memory.html#a71d4a141abc3358afdf1a1325bfd4253" target="_top" xlink:title="memoryoracle.models.Memory.update">
<polygon fill="none" stroke="black" points="675,-50 675,-69 877,-69 877,-50 675,-50"/>
<text text-anchor="middle" x="776" y="-57" font-family="Helvetica,sans-Serif" font-size="10.00">memoryoracle.models.Memory.update</text>
</a>
</g>
</g>
<!-- Node3&#45;&gt;Node6 -->
<g id="edge5" class="edge"><title>Node3&#45;&gt;Node6</title>
<path fill="none" stroke="midnightblue" d="M601.614,-89.2441C638.587,-82.9014 684.266,-75.0653 719.455,-69.0286"/>
<polygon fill="midnightblue" stroke="midnightblue" points="600.696,-85.8502 591.432,-90.9907 601.88,-92.7495 600.696,-85.8502"/>
</g>
<!-- Node7 -->
<g id="node7" class="node"><title>Node7</title>
<g id="a_node7"><a xlink:href="classmemoryoracle_1_1models_1_1Memory.html#aed3af349dd80317ae9cca4b4e9cb7c26" target="_top" xlink:title="memoryoracle.models.Memory.\l__init__">
<polygon fill="none" stroke="black" points="692,-0.5 692,-30.5 860,-30.5 860,-0.5 692,-0.5"/>
<text text-anchor="start" x="700" y="-18.5" font-family="Helvetica,sans-Serif" font-size="10.00">memoryoracle.models.Memory.</text>
<text text-anchor="middle" x="776" y="-7.5" font-family="Helvetica,sans-Serif" font-size="10.00">__init__</text>
</a>
</g>
</g>
<!-- Node3&#45;&gt;Node7 -->
<g id="edge6" class="edge"><title>Node3&#45;&gt;Node7</title>
<path fill="none" stroke="midnightblue" d="M614.248,-87.7759C621.485,-85.2281 628.523,-82.1701 635,-78.5 655.241,-67.0304 650.859,-52.1436 671,-40.5 677.752,-36.5965 685.088,-33.3009 692.635,-30.5189"/>
<polygon fill="midnightblue" stroke="midnightblue" points="612.759,-84.5768 604.29,-90.9436 614.881,-91.2475 612.759,-84.5768"/>
</g>
<!-- Node8&#45;&gt;Node5 -->
<g id="edge8" class="edge"><title>Node8&#45;&gt;Node5</title>
<path fill="none" stroke="midnightblue" d="M597.844,-70.8855C628.064,-76.449 664.753,-83.2035 696.887,-89.1194"/>
<polygon fill="midnightblue" stroke="midnightblue" points="598.328,-67.4158 587.859,-69.0473 597.06,-74.3002 598.328,-67.4158"/>
</g>
<!-- Node8&#45;&gt;Node6 -->
<g id="edge9" class="edge"><title>Node8&#45;&gt;Node6</title>
<path fill="none" stroke="midnightblue" d="M636.151,-59.5C648.884,-59.5 661.918,-59.5 674.654,-59.5"/>
<polygon fill="midnightblue" stroke="midnightblue" points="636.015,-56.0001 626.015,-59.5 636.015,-63.0001 636.015,-56.0001"/>
</g>
<!-- Node8&#45;&gt;Node7 -->
<g id="edge10" class="edge"><title>Node8&#45;&gt;Node7</title>
<path fill="none" stroke="midnightblue" d="M597.871,-48.1095C626.926,-42.7606 661.956,-36.3114 693.168,-30.5654"/>
<polygon fill="midnightblue" stroke="midnightblue" points="597.06,-44.6998 587.859,-49.9527 598.328,-51.5842 597.06,-44.6998"/>
</g>
<!-- Node9&#45;&gt;Node3 -->
<g id="edge12" class="edge"><title>Node9&#45;&gt;Node3</title>
<path fill="none" stroke="midnightblue" d="M392.818,-71.5718C424.81,-78.127 460.168,-85.3718 487.496,-90.9714"/>
<polygon fill="midnightblue" stroke="midnightblue" points="393.509,-68.1407 383.01,-69.5621 392.104,-74.9983 393.509,-68.1407"/>
</g>
<!-- Node9&#45;&gt;Node8 -->
<g id="edge13" class="edge"><title>Node9&#45;&gt;Node8</title>
<path fill="none" stroke="midnightblue" d="M398.778,-56.4884C413.554,-56.8175 428.885,-57.1589 443.687,-57.4886"/>
<polygon fill="midnightblue" stroke="midnightblue" points="398.726,-52.9864 388.65,-56.2628 398.57,-59.9847 398.726,-52.9864"/>
</g>
</g>
</svg>
