<?xml version="1.0" encoding="UTF-8" standalone="no"?>
<!DOCTYPE svg PUBLIC "-//W3C//DTD SVG 1.1//EN"
 "http://www.w3.org/Graphics/SVG/1.1/DTD/svg11.dtd">
<!-- Generated by graphviz version 2.38.0 (20140413.2041)
 -->
<!-- Title: memoryoracle.models.Execution.Meta Pages: 1 -->
<svg width="209pt" height="171pt"
 viewBox="0.00 0.00 209.00 171.00" xmlns="http://www.w3.org/2000/svg" xmlns:xlink="http://www.w3.org/1999/xlink">
<g id="graph0" class="graph" transform="scale(1 1) rotate(0) translate(4 167)">
<title>memoryoracle.models.Execution.Meta</title>
<!-- Node1 -->
<g id="node1" class="node"><title>Node1</title>
<polygon fill="#bfbfbf" stroke="black" points="0,-0.5 0,-57.5 201,-57.5 201,-0.5 0,-0.5"/>
<text text-anchor="middle" x="100.5" y="-45.5" font-family="Helvetica,sans-Serif" font-size="10.00">memoryoracle.models.Execution.Meta</text>
<polyline fill="none" stroke="black" points="0,-38.5 201,-38.5 "/>
<text text-anchor="middle" x="100.5" y="-26.5" font-family="Helvetica,sans-Serif" font-size="10.00"> </text>
<polyline fill="none" stroke="black" points="0,-19.5 201,-19.5 "/>
<text text-anchor="middle" x="100.5" y="-7.5" font-family="Helvetica,sans-Serif" font-size="10.00"> </text>
</g>
<!-- Node2 -->
<g id="node2" class="node"><title>Node2</title>
<polygon fill="none" stroke="#bfbfbf" points="78.5,-105.5 78.5,-162.5 122.5,-162.5 122.5,-105.5 78.5,-105.5"/>
<text text-anchor="middle" x="100.5" y="-150.5" font-family="Helvetica,sans-Serif" font-size="10.00">string</text>
<polyline fill="none" stroke="#bfbfbf" points="78.5,-143.5 122.5,-143.5 "/>
<text text-anchor="middle" x="100.5" y="-131.5" font-family="Helvetica,sans-Serif" font-size="10.00"> </text>
<polyline fill="none" stroke="#bfbfbf" points="78.5,-124.5 122.5,-124.5 "/>
<text text-anchor="middle" x="100.5" y="-112.5" font-family="Helvetica,sans-Serif" font-size="10.00"> </text>
</g>
<!-- Node2&#45;&gt;Node1 -->
<g id="edge1" class="edge"><title>Node2&#45;&gt;Node1</title>
<path fill="none" stroke="#404040" d="M100.5,-105.398C100.5,-94.5451 100.5,-81.8731 100.5,-70.0493"/>
<polygon fill="none" stroke="#404040" points="100.5,-69.6783 96.5,-63.6783 100.5,-57.6783 104.5,-63.6783 100.5,-69.6783"/>
<text text-anchor="middle" x="127" y="-79" font-family="Helvetica,sans-Serif" font-size="10.00"> +db_table</text>
</g>
</g>
</svg>
