<?xml version="1.0" encoding="UTF-8" standalone="no"?>
<!DOCTYPE svg PUBLIC "-//W3C//DTD SVG 1.1//EN"
 "http://www.w3.org/Graphics/SVG/1.1/DTD/svg11.dtd">
<!-- Generated by graphviz version 2.38.0 (20140413.2041)
 -->
<!-- Title: memoryoracle.typed.Namespace Pages: 1 -->
<svg width="185pt" height="414pt"
 viewBox="0.00 0.00 185.00 414.00" xmlns="http://www.w3.org/2000/svg" xmlns:xlink="http://www.w3.org/1999/xlink">
<g id="graph0" class="graph" transform="scale(1 1) rotate(0) translate(4 410)">
<title>memoryoracle.typed.Namespace</title>
<!-- Node1 -->
<g id="node1" class="node"><title>Node1</title>
<polygon fill="#bfbfbf" stroke="black" points="-1.42109e-14,-0.5 -1.42109e-14,-57.5 177,-57.5 177,-0.5 -1.42109e-14,-0.5"/>
<text text-anchor="middle" x="88.5" y="-45.5" font-family="Helvetica,sans-Serif" font-size="10.00">memoryoracle.typed.Namespace</text>
<polyline fill="none" stroke="black" points="-1.42109e-14,-38.5 177,-38.5 "/>
<text text-anchor="middle" x="88.5" y="-26.5" font-family="Helvetica,sans-Serif" font-size="10.00"> </text>
<polyline fill="none" stroke="black" points="-1.42109e-14,-19.5 177,-19.5 "/>
<text text-anchor="middle" x="88.5" y="-7.5" font-family="Helvetica,sans-Serif" font-size="10.00"> </text>
</g>
<!-- Node2 -->
<g id="node2" class="node"><title>Node2</title>
<g id="a_node2"><a xlink:href="classmemoryoracle_1_1typed_1_1Typed.html" target="_top" xlink:title="{memoryoracle.typed.Typed\n|+ lookup\l&#45; _type\l&#45; _typeCodeMap\l&#45; _typeHandlerCode\l|+ type()\l+ type_code()\l+ gdb_type()\l+ type_handler()\l}">
<polygon fill="none" stroke="black" points="15.5,-94.5 15.5,-217.5 161.5,-217.5 161.5,-94.5 15.5,-94.5"/>
<text text-anchor="middle" x="88.5" y="-205.5" font-family="Helvetica,sans-Serif" font-size="10.00">memoryoracle.typed.Typed</text>
<polyline fill="none" stroke="black" points="15.5,-198.5 161.5,-198.5 "/>
<text text-anchor="start" x="23.5" y="-186.5" font-family="Helvetica,sans-Serif" font-size="10.00">+ lookup</text>
<text text-anchor="start" x="23.5" y="-175.5" font-family="Helvetica,sans-Serif" font-size="10.00">&#45; _type</text>
<text text-anchor="start" x="23.5" y="-164.5" font-family="Helvetica,sans-Serif" font-size="10.00">&#45; _typeCodeMap</text>
<text text-anchor="start" x="23.5" y="-153.5" font-family="Helvetica,sans-Serif" font-size="10.00">&#45; _typeHandlerCode</text>
<polyline fill="none" stroke="black" points="15.5,-146.5 161.5,-146.5 "/>
<text text-anchor="start" x="23.5" y="-134.5" font-family="Helvetica,sans-Serif" font-size="10.00">+ type()</text>
<text text-anchor="start" x="23.5" y="-123.5" font-family="Helvetica,sans-Serif" font-size="10.00">+ type_code()</text>
<text text-anchor="start" x="23.5" y="-112.5" font-family="Helvetica,sans-Serif" font-size="10.00">+ gdb_type()</text>
<text text-anchor="start" x="23.5" y="-101.5" font-family="Helvetica,sans-Serif" font-size="10.00">+ type_handler()</text>
</a>
</g>
</g>
<!-- Node2&#45;&gt;Node1 -->
<g id="edge1" class="edge"><title>Node2&#45;&gt;Node1</title>
<path fill="none" stroke="midnightblue" d="M88.5,-84.1384C88.5,-74.7999 88.5,-65.715 88.5,-57.7379"/>
<polygon fill="none" stroke="midnightblue" points="85.0001,-84.3308 88.5,-94.3308 92.0001,-84.3309 85.0001,-84.3308"/>
</g>
<!-- Node3 -->
<g id="node3" class="node"><title>Node3</title>
<g id="a_node3"><a xlink:href="classmemoryoracle_1_1tracked_1_1Tracked.html" target="_top" xlink:title="{memoryoracle.tracked.Tracked\n||}">
<polygon fill="none" stroke="black" points="6.5,-254.5 6.5,-311.5 170.5,-311.5 170.5,-254.5 6.5,-254.5"/>
<text text-anchor="middle" x="88.5" y="-299.5" font-family="Helvetica,sans-Serif" font-size="10.00">memoryoracle.tracked.Tracked</text>
<polyline fill="none" stroke="black" points="6.5,-292.5 170.5,-292.5 "/>
<text text-anchor="middle" x="88.5" y="-280.5" font-family="Helvetica,sans-Serif" font-size="10.00"> </text>
<polyline fill="none" stroke="black" points="6.5,-273.5 170.5,-273.5 "/>
<text text-anchor="middle" x="88.5" y="-261.5" font-family="Helvetica,sans-Serif" font-size="10.00"> </text>
</a>
</g>
</g>
<!-- Node3&#45;&gt;Node2 -->
<g id="edge2" class="edge"><title>Node3&#45;&gt;Node2</title>
<path fill="none" stroke="midnightblue" d="M88.5,-244.099C88.5,-235.739 88.5,-226.68 88.5,-217.672"/>
<polygon fill="none" stroke="midnightblue" points="85.0001,-244.258 88.5,-254.258 92.0001,-244.258 85.0001,-244.258"/>
</g>
<!-- Node4 -->
<g id="node4" class="node"><title>Node4</title>
<polygon fill="none" stroke="#bfbfbf" points="65.5,-348.5 65.5,-405.5 111.5,-405.5 111.5,-348.5 65.5,-348.5"/>
<text text-anchor="middle" x="88.5" y="-393.5" font-family="Helvetica,sans-Serif" font-size="10.00">object</text>
<polyline fill="none" stroke="#bfbfbf" points="65.5,-386.5 111.5,-386.5 "/>
<text text-anchor="middle" x="88.5" y="-374.5" font-family="Helvetica,sans-Serif" font-size="10.00"> </text>
<polyline fill="none" stroke="#bfbfbf" points="65.5,-367.5 111.5,-367.5 "/>
<text text-anchor="middle" x="88.5" y="-355.5" font-family="Helvetica,sans-Serif" font-size="10.00"> </text>
</g>
<!-- Node4&#45;&gt;Node3 -->
<g id="edge3" class="edge"><title>Node4&#45;&gt;Node3</title>
<path fill="none" stroke="midnightblue" d="M88.5,-338.209C88.5,-329.293 88.5,-319.951 88.5,-311.584"/>
<polygon fill="none" stroke="midnightblue" points="85.0001,-338.397 88.5,-348.397 92.0001,-338.397 85.0001,-338.397"/>
</g>
</g>
</svg>
