<?xml version="1.0" encoding="UTF-8" standalone="no"?>
<!DOCTYPE svg PUBLIC "-//W3C//DTD SVG 1.1//EN"
 "http://www.w3.org/Graphics/SVG/1.1/DTD/svg11.dtd">
<!-- Generated by graphviz version 2.38.0 (20140413.2041)
 -->
<!-- Title: memoryoracle.instance.Instance._compute_address Pages: 1 -->
<svg width="1368pt" height="411pt"
 viewBox="0.00 0.00 1368.00 411.31" xmlns="http://www.w3.org/2000/svg" xmlns:xlink="http://www.w3.org/1999/xlink">
<g id="graph0" class="graph" transform="scale(1 1) rotate(0) translate(4 407.31)">
<title>memoryoracle.instance.Instance._compute_address</title>
<!-- Node1 -->
<g id="node1" class="node"><title>Node1</title>
<polygon fill="#bfbfbf" stroke="black" points="0,-315.119 0,-345.119 176,-345.119 176,-315.119 0,-315.119"/>
<text text-anchor="start" x="8" y="-333.119" font-family="Helvetica,sans-Serif" font-size="10.00">memoryoracle.instance.Instance.</text>
<text text-anchor="middle" x="88" y="-322.119" font-family="Helvetica,sans-Serif" font-size="10.00">_compute_address</text>
</g>
<!-- Node2 -->
<g id="node2" class="node"><title>Node2</title>
<g id="a_node2"><a xlink:href="classmemoryoracle_1_1instance_1_1Instance.html#a89a31e14446908e7ea052f8f842606b7" target="_top" xlink:title="memoryoracle.instance.Instance.address">
<polygon fill="none" stroke="black" points="212,-320.619 212,-339.619 427,-339.619 427,-320.619 212,-320.619"/>
<text text-anchor="middle" x="319.5" y="-327.619" font-family="Helvetica,sans-Serif" font-size="10.00">memoryoracle.instance.Instance.address</text>
</a>
</g>
</g>
<!-- Node1&#45;&gt;Node2 -->
<g id="edge1" class="edge"><title>Node1&#45;&gt;Node2</title>
<path fill="none" stroke="midnightblue" d="M186.297,-330.119C194.726,-330.119 203.285,-330.119 211.784,-330.119"/>
<polygon fill="midnightblue" stroke="midnightblue" points="186.091,-326.619 176.091,-330.119 186.091,-333.619 186.091,-326.619"/>
</g>
<!-- Node3 -->
<g id="node3" class="node"><title>Node3</title>
<g id="a_node3"><a xlink:href="classmemoryoracle_1_1instance_1_1Instance.html#a67d649391bded2256ff9a72e2a61143f" target="_top" xlink:title="memoryoracle.instance.Instance.index">
<polygon fill="none" stroke="black" points="463,-211.619 463,-230.619 665,-230.619 665,-211.619 463,-211.619"/>
<text text-anchor="middle" x="564" y="-218.619" font-family="Helvetica,sans-Serif" font-size="10.00">memoryoracle.instance.Instance.index</text>
</a>
</g>
</g>
<!-- Node2&#45;&gt;Node3 -->
<g id="edge2" class="edge"><title>Node2&#45;&gt;Node3</title>
<path fill="none" stroke="midnightblue" d="M351.339,-316.257C401.238,-293.829 498.426,-250.144 541.528,-230.77"/>
<polygon fill="midnightblue" stroke="midnightblue" points="349.706,-313.154 342.02,-320.446 352.576,-319.539 349.706,-313.154"/>
</g>
<!-- Node16 -->
<g id="node16" class="node"><title>Node16</title>
<g id="a_node16"><a xlink:href="classmemoryoracle_1_1instance_1_1Instance.html#a8d6cede9602381d2f2163a0545dd9d8c" target="_top" xlink:title="memoryoracle.instance.Instance.\l_clear_updated">
<polygon fill="none" stroke="black" points="926,-275.119 926,-305.119 1102,-305.119 1102,-275.119 926,-275.119"/>
<text text-anchor="start" x="934" y="-293.119" font-family="Helvetica,sans-Serif" font-size="10.00">memoryoracle.instance.Instance.</text>
<text text-anchor="middle" x="1014" y="-282.119" font-family="Helvetica,sans-Serif" font-size="10.00">_clear_updated</text>
</a>
</g>
</g>
<!-- Node2&#45;&gt;Node16 -->
<g id="edge29" class="edge"><title>Node2&#45;&gt;Node16</title>
<path fill="none" stroke="midnightblue" d="M357.187,-342.745C447.809,-371.953 688.622,-437.458 878,-380.119 926.527,-365.426 973.555,-326.9 997.201,-305.321"/>
<polygon fill="midnightblue" stroke="midnightblue" points="358.232,-339.404 347.639,-339.622 356.055,-346.057 358.232,-339.404"/>
</g>
<!-- Node4 -->
<g id="node4" class="node"><title>Node4</title>
<g id="a_node4"><a xlink:href="classmemoryoracle_1_1instance_1_1Instance.html#a254a208a64e4c7f32c514e2fb64edbbe" target="_top" xlink:title="memoryoracle.instance.Instance.\l_basic_track">
<polygon fill="none" stroke="black" points="701.5,-133.119 701.5,-163.119 877.5,-163.119 877.5,-133.119 701.5,-133.119"/>
<text text-anchor="start" x="709.5" y="-151.119" font-family="Helvetica,sans-Serif" font-size="10.00">memoryoracle.instance.Instance.</text>
<text text-anchor="middle" x="789.5" y="-140.119" font-family="Helvetica,sans-Serif" font-size="10.00">_basic_track</text>
</a>
</g>
</g>
<!-- Node3&#45;&gt;Node4 -->
<g id="edge3" class="edge"><title>Node3&#45;&gt;Node4</title>
<path fill="none" stroke="midnightblue" d="M600.179,-208.039C627.521,-198.034 666.477,-184.132 701,-173.119 711.536,-169.758 722.852,-166.366 733.735,-163.211"/>
<polygon fill="midnightblue" stroke="midnightblue" points="598.841,-204.802 590.661,-211.536 601.255,-211.372 598.841,-204.802"/>
</g>
<!-- Node5 -->
<g id="node5" class="node"><title>Node5</title>
<g id="a_node5"><a xlink:href="classmemoryoracle_1_1instance_1_1Instance.html#a86649e01ee4f562debdba5421a334f78" target="_top" xlink:title="memoryoracle.instance.Instance.track">
<polygon fill="none" stroke="black" points="914,-149.619 914,-168.619 1114,-168.619 1114,-149.619 914,-149.619"/>
<text text-anchor="middle" x="1014" y="-156.619" font-family="Helvetica,sans-Serif" font-size="10.00">memoryoracle.instance.Instance.track</text>
</a>
</g>
</g>
<!-- Node3&#45;&gt;Node5 -->
<g id="edge11" class="edge"><title>Node3&#45;&gt;Node5</title>
<path fill="none" stroke="midnightblue" d="M571.431,-201.793C586.425,-160.281 628.083,-63.2749 701,-25.119 770.701,11.3538 805.266,4.85028 878,-25.119 941.508,-51.2868 990.937,-123.393 1007.24,-149.513"/>
<polygon fill="midnightblue" stroke="midnightblue" points="568.104,-200.702 568.118,-211.297 574.714,-203.006 568.104,-200.702"/>
</g>
<!-- Node9 -->
<g id="node9" class="node"><title>Node9</title>
<g id="a_node9"><a xlink:href="classmemoryoracle_1_1models_1_1Memory.html#a27f8d94aeb19f8101c29a673c7bae4a1" target="_top" xlink:title="memoryoracle.models.Memory.track">
<polygon fill="none" stroke="black" points="918,-187.619 918,-206.619 1110,-206.619 1110,-187.619 918,-187.619"/>
<text text-anchor="middle" x="1014" y="-194.619" font-family="Helvetica,sans-Serif" font-size="10.00">memoryoracle.models.Memory.track</text>
</a>
</g>
</g>
<!-- Node3&#45;&gt;Node9 -->
<g id="edge26" class="edge"><title>Node3&#45;&gt;Node9</title>
<path fill="none" stroke="midnightblue" d="M580.748,-237.937C604.247,-261.663 651.099,-303.88 701,-320.119 775.805,-344.463 813.851,-365.653 878,-320.119 917.544,-292.05 877.445,-248.983 914,-217.119 918.891,-212.856 924.436,-209.407 930.344,-206.627"/>
<polygon fill="midnightblue" stroke="midnightblue" points="583.174,-235.412 573.703,-230.664 578.146,-240.282 583.174,-235.412"/>
</g>
<!-- Node10 -->
<g id="node10" class="node"><title>Node10</title>
<g id="a_node10"><a xlink:href="classmemoryoracle_1_1instance_1_1Array.html#a1d8c3993d8a52bfbec8240d6f79b3ce1" target="_top" xlink:title="memoryoracle.instance.Array.\l_track">
<polygon fill="none" stroke="black" points="709.5,-84.119 709.5,-114.119 869.5,-114.119 869.5,-84.119 709.5,-84.119"/>
<text text-anchor="start" x="717.5" y="-102.119" font-family="Helvetica,sans-Serif" font-size="10.00">memoryoracle.instance.Array.</text>
<text text-anchor="middle" x="789.5" y="-91.119" font-family="Helvetica,sans-Serif" font-size="10.00">_track</text>
</a>
</g>
</g>
<!-- Node3&#45;&gt;Node10 -->
<g id="edge12" class="edge"><title>Node3&#45;&gt;Node10</title>
<path fill="none" stroke="midnightblue" d="M583.414,-204.818C608.408,-183.469 655.225,-146.17 701,-124.119 708.828,-120.348 717.332,-117.043 725.859,-114.179"/>
<polygon fill="midnightblue" stroke="midnightblue" points="581.078,-202.211 575.807,-211.402 585.659,-207.504 581.078,-202.211"/>
</g>
<!-- Node11 -->
<g id="node11" class="node"><title>Node11</title>
<g id="a_node11"><a xlink:href="classmemoryoracle_1_1instance_1_1Primitive.html#a68562bda9732e33fe32188597e2f4b91" target="_top" xlink:title="memoryoracle.instance.Primitive.\l_track">
<polygon fill="none" stroke="black" points="701,-35.119 701,-65.119 878,-65.119 878,-35.119 701,-35.119"/>
<text text-anchor="start" x="709" y="-53.119" font-family="Helvetica,sans-Serif" font-size="10.00">memoryoracle.instance.Primitive.</text>
<text text-anchor="middle" x="789.5" y="-42.119" font-family="Helvetica,sans-Serif" font-size="10.00">_track</text>
</a>
</g>
</g>
<!-- Node3&#45;&gt;Node11 -->
<g id="edge15" class="edge"><title>Node3&#45;&gt;Node11</title>
<path fill="none" stroke="midnightblue" d="M576.697,-202.946C597.727,-171.765 644.99,-108.149 701,-74.119 706.654,-70.6837 712.808,-67.7296 719.146,-65.1913"/>
<polygon fill="midnightblue" stroke="midnightblue" points="573.629,-201.242 571.032,-211.514 579.468,-205.103 573.629,-201.242"/>
</g>
<!-- Node12 -->
<g id="node12" class="node"><title>Node12</title>
<g id="a_node12"><a xlink:href="classmemoryoracle_1_1instance_1_1Pointer.html#a2cc9e298adaad8bed089d90186fcde8a" target="_top" xlink:title="memoryoracle.instance.Pointer.\l_track">
<polygon fill="none" stroke="black" points="705,-231.119 705,-261.119 874,-261.119 874,-231.119 705,-231.119"/>
<text text-anchor="start" x="713" y="-249.119" font-family="Helvetica,sans-Serif" font-size="10.00">memoryoracle.instance.Pointer.</text>
<text text-anchor="middle" x="789.5" y="-238.119" font-family="Helvetica,sans-Serif" font-size="10.00">_track</text>
</a>
</g>
</g>
<!-- Node3&#45;&gt;Node12 -->
<g id="edge18" class="edge"><title>Node3&#45;&gt;Node12</title>
<path fill="none" stroke="midnightblue" d="M660.284,-231.777C675.055,-233.429 690.219,-235.126 704.712,-236.747"/>
<polygon fill="midnightblue" stroke="midnightblue" points="660.46,-228.275 650.133,-230.642 659.682,-235.232 660.46,-228.275"/>
</g>
<!-- Node13 -->
<g id="node13" class="node"><title>Node13</title>
<g id="a_node13"><a xlink:href="classmemoryoracle_1_1instance_1_1Int.html#a38c9424341353f006771163d360594da" target="_top" xlink:title="memoryoracle.instance.Int.\l_track">
<polygon fill="none" stroke="black" points="715.5,-182.119 715.5,-212.119 863.5,-212.119 863.5,-182.119 715.5,-182.119"/>
<text text-anchor="start" x="723.5" y="-200.119" font-family="Helvetica,sans-Serif" font-size="10.00">memoryoracle.instance.Int.</text>
<text text-anchor="middle" x="789.5" y="-189.119" font-family="Helvetica,sans-Serif" font-size="10.00">_track</text>
</a>
</g>
</g>
<!-- Node3&#45;&gt;Node13 -->
<g id="edge21" class="edge"><title>Node3&#45;&gt;Node13</title>
<path fill="none" stroke="midnightblue" d="M663.806,-210.509C681.153,-208.646 698.922,-206.738 715.41,-204.968"/>
<polygon fill="midnightblue" stroke="midnightblue" points="663.223,-207.051 653.654,-211.599 663.971,-214.011 663.223,-207.051"/>
</g>
<!-- Node14 -->
<g id="node14" class="node"><title>Node14</title>
<g id="a_node14"><a xlink:href="classmemoryoracle_1_1models_1_1Memory.html#a2291f5ce2097dda4e9216313df9e626c" target="_top" xlink:title="memoryoracle.models.Memory.\l_basic_track">
<polygon fill="none" stroke="black" points="705.5,-280.119 705.5,-310.119 873.5,-310.119 873.5,-280.119 705.5,-280.119"/>
<text text-anchor="start" x="713.5" y="-298.119" font-family="Helvetica,sans-Serif" font-size="10.00">memoryoracle.models.Memory.</text>
<text text-anchor="middle" x="789.5" y="-287.119" font-family="Helvetica,sans-Serif" font-size="10.00">_basic_track</text>
</a>
</g>
</g>
<!-- Node3&#45;&gt;Node14 -->
<g id="edge24" class="edge"><title>Node3&#45;&gt;Node14</title>
<path fill="none" stroke="midnightblue" d="M598.843,-234.468C626.193,-245.035 665.794,-259.841 701,-271.119 710.601,-274.194 720.87,-277.232 730.873,-280.059"/>
<polygon fill="midnightblue" stroke="midnightblue" points="599.941,-231.14 589.352,-230.781 597.406,-237.665 599.941,-231.14"/>
</g>
<!-- Node15 -->
<g id="node15" class="node"><title>Node15</title>
<g id="a_node15"><a xlink:href="classmemoryoracle_1_1models_1_1Memory.html#a253756ba0ddd58fc05a9463c0a181185" target="_top" xlink:title="memoryoracle.models.Memory.\l_clear_updated">
<polygon fill="none" stroke="black" points="930,-226.119 930,-256.119 1098,-256.119 1098,-226.119 930,-226.119"/>
<text text-anchor="start" x="938" y="-244.119" font-family="Helvetica,sans-Serif" font-size="10.00">memoryoracle.models.Memory.</text>
<text text-anchor="middle" x="1014" y="-233.119" font-family="Helvetica,sans-Serif" font-size="10.00">_clear_updated</text>
</a>
</g>
</g>
<!-- Node3&#45;&gt;Node15 -->
<g id="edge27" class="edge"><title>Node3&#45;&gt;Node15</title>
<path fill="none" stroke="midnightblue" d="M576.69,-239.389C597.401,-269.842 643.798,-329.924 701,-353.119 773.901,-382.68 812.599,-396.836 878,-353.119 912.79,-329.864 882.345,-293.488 914,-266.119 918.693,-262.061 923.954,-258.645 929.539,-255.772"/>
<polygon fill="midnightblue" stroke="midnightblue" points="579.546,-237.363 571.103,-230.963 573.712,-241.231 579.546,-237.363"/>
</g>
<!-- Node4&#45;&gt;Node5 -->
<g id="edge4" class="edge"><title>Node4&#45;&gt;Node5</title>
<path fill="none" stroke="midnightblue" d="M887.841,-152.931C896.449,-153.357 905.171,-153.788 913.795,-154.214"/>
<polygon fill="midnightblue" stroke="midnightblue" points="887.96,-149.433 877.799,-152.435 887.614,-156.425 887.96,-149.433"/>
</g>
<!-- Node4&#45;&gt;Node9 -->
<g id="edge8" class="edge"><title>Node4&#45;&gt;Node9</title>
<path fill="none" stroke="midnightblue" d="M859.922,-165.61C877.525,-169.873 896.427,-174.301 914,-178.119 929.135,-181.408 945.638,-184.693 960.753,-187.585"/>
<polygon fill="midnightblue" stroke="midnightblue" points="860.272,-162.093 849.727,-163.126 858.614,-168.894 860.272,-162.093"/>
</g>
<!-- Node6 -->
<g id="node6" class="node"><title>Node6</title>
<g id="a_node6"><a xlink:href="classmemoryoracle_1_1instance_1_1Instance.html#a286e015a030541a0704994172024f034" target="_top" xlink:title="memoryoracle.instance.Instance.update">
<polygon fill="none" stroke="black" points="1150,-269.619 1150,-288.619 1360,-288.619 1360,-269.619 1150,-269.619"/>
<text text-anchor="middle" x="1255" y="-276.619" font-family="Helvetica,sans-Serif" font-size="10.00">memoryoracle.instance.Instance.update</text>
</a>
</g>
</g>
<!-- Node5&#45;&gt;Node6 -->
<g id="edge5" class="edge"><title>Node5&#45;&gt;Node6</title>
<path fill="none" stroke="midnightblue" d="M1106.6,-173.214C1109.17,-174.705 1111.65,-176.336 1114,-178.119 1142.52,-199.725 1122.4,-227.358 1150,-250.119 1160.85,-259.063 1174.26,-265.255 1187.82,-269.54"/>
<polygon fill="midnightblue" stroke="midnightblue" points="1108.06,-170.027 1097.55,-168.668 1104.92,-176.283 1108.06,-170.027"/>
</g>
<!-- Node7 -->
<g id="node7" class="node"><title>Node7</title>
<g id="a_node7"><a xlink:href="classmemoryoracle_1_1models_1_1Memory.html#a71d4a141abc3358afdf1a1325bfd4253" target="_top" xlink:title="memoryoracle.models.Memory.update">
<polygon fill="none" stroke="black" points="1154,-221.619 1154,-240.619 1356,-240.619 1356,-221.619 1154,-221.619"/>
<text text-anchor="middle" x="1255" y="-228.619" font-family="Helvetica,sans-Serif" font-size="10.00">memoryoracle.models.Memory.update</text>
</a>
</g>
</g>
<!-- Node5&#45;&gt;Node7 -->
<g id="edge6" class="edge"><title>Node5&#45;&gt;Node7</title>
<path fill="none" stroke="midnightblue" d="M1094.44,-171.28C1101.16,-173.233 1107.77,-175.497 1114,-178.119 1131.95,-185.674 1132.33,-194.91 1150,-203.119 1167.21,-211.117 1187.12,-217.174 1204.89,-221.573"/>
<polygon fill="midnightblue" stroke="midnightblue" points="1095.09,-167.833 1084.53,-168.634 1093.29,-174.596 1095.09,-167.833"/>
</g>
<!-- Node8 -->
<g id="node8" class="node"><title>Node8</title>
<g id="a_node8"><a xlink:href="classmemoryoracle_1_1models_1_1Memory.html#aed3af349dd80317ae9cca4b4e9cb7c26" target="_top" xlink:title="memoryoracle.models.Memory.\l__init__">
<polygon fill="none" stroke="black" points="1171,-163.119 1171,-193.119 1339,-193.119 1339,-163.119 1171,-163.119"/>
<text text-anchor="start" x="1179" y="-181.119" font-family="Helvetica,sans-Serif" font-size="10.00">memoryoracle.models.Memory.</text>
<text text-anchor="middle" x="1255" y="-170.119" font-family="Helvetica,sans-Serif" font-size="10.00">__init__</text>
</a>
</g>
</g>
<!-- Node5&#45;&gt;Node8 -->
<g id="edge7" class="edge"><title>Node5&#45;&gt;Node8</title>
<path fill="none" stroke="midnightblue" d="M1124.5,-167.824C1140.12,-169.066 1155.96,-170.325 1170.96,-171.518"/>
<polygon fill="midnightblue" stroke="midnightblue" points="1124.53,-164.315 1114.28,-167.012 1123.97,-171.293 1124.53,-164.315"/>
</g>
<!-- Node9&#45;&gt;Node7 -->
<g id="edge9" class="edge"><title>Node9&#45;&gt;Node7</title>
<path fill="none" stroke="midnightblue" d="M1092.1,-208.087C1122.71,-212.442 1157.6,-217.405 1187.12,-221.605"/>
<polygon fill="midnightblue" stroke="midnightblue" points="1092.29,-204.578 1081.89,-206.635 1091.3,-211.509 1092.29,-204.578"/>
</g>
<!-- Node9&#45;&gt;Node8 -->
<g id="edge10" class="edge"><title>Node9&#45;&gt;Node8</title>
<path fill="none" stroke="midnightblue" d="M1120.56,-188.728C1137.37,-187.391 1154.56,-186.024 1170.76,-184.736"/>
<polygon fill="midnightblue" stroke="midnightblue" points="1119.84,-185.274 1110.15,-189.555 1120.39,-192.252 1119.84,-185.274"/>
</g>
<!-- Node10&#45;&gt;Node5 -->
<g id="edge13" class="edge"><title>Node10&#45;&gt;Node5</title>
<path fill="none" stroke="midnightblue" d="M856.247,-116.848C895.995,-127.567 945.106,-140.811 977.652,-149.587"/>
<polygon fill="midnightblue" stroke="midnightblue" points="856.925,-113.407 846.359,-114.182 855.103,-120.165 856.925,-113.407"/>
</g>
<!-- Node10&#45;&gt;Node9 -->
<g id="edge14" class="edge"><title>Node10&#45;&gt;Node9</title>
<path fill="none" stroke="midnightblue" d="M869.556,-118.697C872.491,-120.359 875.32,-122.163 878,-124.119 901.298,-141.125 889.971,-162.162 914,-178.119 919.759,-181.943 926.097,-185.04 932.7,-187.542"/>
<polygon fill="midnightblue" stroke="midnightblue" points="870.977,-115.494 860.472,-114.12 867.827,-121.745 870.977,-115.494"/>
</g>
<!-- Node11&#45;&gt;Node5 -->
<g id="edge16" class="edge"><title>Node11&#45;&gt;Node5</title>
<path fill="none" stroke="midnightblue" d="M864.162,-68.6086C868.899,-70.3226 873.549,-72.159 878,-74.119 926.414,-95.4386 977.734,-132.261 1000.67,-149.586"/>
<polygon fill="midnightblue" stroke="midnightblue" points="864.95,-65.1791 854.355,-65.2618 862.689,-71.804 864.95,-65.1791"/>
</g>
<!-- Node11&#45;&gt;Node9 -->
<g id="edge17" class="edge"><title>Node11&#45;&gt;Node9</title>
<path fill="none" stroke="midnightblue" d="M874.425,-71.0292C875.657,-72.013 876.85,-73.0423 878,-74.119 913.701,-107.554 877.021,-146.103 914,-178.119 918.366,-181.899 923.252,-185.021 928.451,-187.59"/>
<polygon fill="midnightblue" stroke="midnightblue" points="876.031,-67.8893 865.79,-65.1737 872.102,-73.6829 876.031,-67.8893"/>
</g>
<!-- Node12&#45;&gt;Node5 -->
<g id="edge19" class="edge"><title>Node12&#45;&gt;Node5</title>
<path fill="none" stroke="midnightblue" d="M870.28,-226.634C872.941,-225.231 875.524,-223.729 878,-222.119 899.185,-208.349 892.294,-191.052 914,-178.119 920.465,-174.267 927.551,-171.173 934.868,-168.691"/>
<polygon fill="midnightblue" stroke="midnightblue" points="868.524,-223.592 860.976,-231.028 871.513,-229.922 868.524,-223.592"/>
</g>
<!-- Node12&#45;&gt;Node9 -->
<g id="edge20" class="edge"><title>Node12&#45;&gt;Node9</title>
<path fill="none" stroke="midnightblue" d="M862.69,-228.767C879.508,-224.836 897.362,-220.752 914,-217.119 930.36,-213.547 948.291,-209.856 964.345,-206.633"/>
<polygon fill="midnightblue" stroke="midnightblue" points="861.86,-225.367 852.924,-231.06 863.46,-232.182 861.86,-225.367"/>
</g>
<!-- Node13&#45;&gt;Node5 -->
<g id="edge22" class="edge"><title>Node13&#45;&gt;Node5</title>
<path fill="none" stroke="midnightblue" d="M873.778,-182.896C901.578,-178.148 931.87,-172.975 957.078,-168.67"/>
<polygon fill="midnightblue" stroke="midnightblue" points="872.931,-179.49 863.663,-184.624 874.11,-186.39 872.931,-179.49"/>
</g>
<!-- Node13&#45;&gt;Node9 -->
<g id="edge23" class="edge"><title>Node13&#45;&gt;Node9</title>
<path fill="none" stroke="midnightblue" d="M873.977,-197.119C888.321,-197.119 903.323,-197.119 917.944,-197.119"/>
<polygon fill="midnightblue" stroke="midnightblue" points="873.663,-193.619 863.663,-197.119 873.663,-200.619 873.663,-193.619"/>
</g>
<!-- Node14&#45;&gt;Node9 -->
<g id="edge25" class="edge"><title>Node14&#45;&gt;Node9</title>
<path fill="none" stroke="midnightblue" d="M871.552,-275.324C873.777,-274.011 875.933,-272.611 878,-271.119 901.388,-254.236 890.049,-233.192 914,-217.119 920.406,-212.82 927.535,-209.407 934.949,-206.704"/>
<polygon fill="midnightblue" stroke="midnightblue" points="869.91,-272.233 862.67,-279.967 873.153,-278.436 869.91,-272.233"/>
</g>
<!-- Node15&#45;&gt;Node7 -->
<g id="edge28" class="edge"><title>Node15&#45;&gt;Node7</title>
<path fill="none" stroke="midnightblue" d="M1108.45,-237.209C1123.32,-236.587 1138.76,-235.941 1153.78,-235.312"/>
<polygon fill="midnightblue" stroke="midnightblue" points="1108.1,-233.72 1098.26,-237.636 1108.39,-240.714 1108.1,-233.72"/>
</g>
<!-- Node16&#45;&gt;Node6 -->
<g id="edge30" class="edge"><title>Node16&#45;&gt;Node6</title>
<path fill="none" stroke="midnightblue" d="M1112.55,-285.629C1124.86,-285.063 1137.49,-284.482 1149.89,-283.911"/>
<polygon fill="midnightblue" stroke="midnightblue" points="1112.13,-282.145 1102.3,-286.101 1112.45,-289.138 1112.13,-282.145"/>
</g>
<!-- Node16&#45;&gt;Node7 -->
<g id="edge31" class="edge"><title>Node16&#45;&gt;Node7</title>
<path fill="none" stroke="midnightblue" d="M1087.11,-272.702C1096.16,-270.496 1105.3,-268.261 1114,-266.119 1148.67,-257.584 1188.12,-247.706 1216.29,-240.625"/>
<polygon fill="midnightblue" stroke="midnightblue" points="1086.22,-269.315 1077.33,-275.08 1087.88,-276.117 1086.22,-269.315"/>
</g>
</g>
</svg>
