<?xml version="1.0" encoding="UTF-8" standalone="no"?>
<!DOCTYPE svg PUBLIC "-//W3C//DTD SVG 1.1//EN"
 "http://www.w3.org/Graphics/SVG/1.1/DTD/svg11.dtd">
<!-- Generated by graphviz version 2.38.0 (20140413.2041)
 -->
<!-- Title: memoryoracle.instance.Int._track Pages: 1 -->
<svg width="872pt" height="547pt"
 viewBox="0.00 0.00 872.00 547.00" xmlns="http://www.w3.org/2000/svg" xmlns:xlink="http://www.w3.org/1999/xlink">
<g id="graph0" class="graph" transform="scale(1 1) rotate(0) translate(4 543)">
<title>memoryoracle.instance.Int._track</title>
<!-- Node1 -->
<g id="node1" class="node"><title>Node1</title>
<polygon fill="#bfbfbf" stroke="black" points="0,-161.5 0,-191.5 148,-191.5 148,-161.5 0,-161.5"/>
<text text-anchor="start" x="8" y="-179.5" font-family="Helvetica,sans-Serif" font-size="10.00">memoryoracle.instance.Int.</text>
<text text-anchor="middle" x="74" y="-168.5" font-family="Helvetica,sans-Serif" font-size="10.00">_track</text>
</g>
<!-- Node2 -->
<g id="node2" class="node"><title>Node2</title>
<g id="a_node2"><a xlink:href="classmemoryoracle_1_1instance_1_1Int.html#a450a73bc8aaf1a7ac5f18c3ed1a933fc" target="_top" xlink:title="memoryoracle.instance.Int.\l_find_hidden_type">
<polygon fill="none" stroke="black" points="456.5,-469.5 456.5,-499.5 604.5,-499.5 604.5,-469.5 456.5,-469.5"/>
<text text-anchor="start" x="464.5" y="-487.5" font-family="Helvetica,sans-Serif" font-size="10.00">memoryoracle.instance.Int.</text>
<text text-anchor="middle" x="530.5" y="-476.5" font-family="Helvetica,sans-Serif" font-size="10.00">_find_hidden_type</text>
</a>
</g>
</g>
<!-- Node1&#45;&gt;Node2 -->
<g id="edge1" class="edge"><title>Node1&#45;&gt;Node2</title>
<path fill="none" stroke="midnightblue" d="M85.0405,-191.664C102.763,-217.64 141.737,-271.338 184,-307.5 284.715,-393.674 317.932,-408.841 440,-460.5 444.785,-462.525 449.787,-464.421 454.875,-466.188"/>
<polygon fill="midnightblue" stroke="midnightblue" points="454.139,-469.631 464.732,-469.429 456.325,-462.981 454.139,-469.631"/>
</g>
<!-- Node6 -->
<g id="node6" class="node"><title>Node6</title>
<g id="a_node6"><a xlink:href="namespacememoryoracle_1_1instance.html#ac651a8635b1ae2ee7e788bf9adb17a0b" target="_top" xlink:title="memoryoracle.instance.addressable\l_factory">
<polygon fill="none" stroke="black" points="665,-224.5 665,-254.5 856,-254.5 856,-224.5 665,-224.5"/>
<text text-anchor="start" x="673" y="-242.5" font-family="Helvetica,sans-Serif" font-size="10.00">memoryoracle.instance.addressable</text>
<text text-anchor="middle" x="760.5" y="-231.5" font-family="Helvetica,sans-Serif" font-size="10.00">_factory</text>
</a>
</g>
</g>
<!-- Node1&#45;&gt;Node6 -->
<g id="edge5" class="edge"><title>Node1&#45;&gt;Node6</title>
<path fill="none" stroke="midnightblue" d="M148.105,-179.052C253.082,-183.292 452.455,-193.487 621,-214.5 638.329,-216.661 656.778,-219.563 674.37,-222.626"/>
<polygon fill="midnightblue" stroke="midnightblue" points="674.157,-226.142 684.614,-224.443 675.379,-219.25 674.157,-226.142"/>
</g>
<!-- Node7 -->
<g id="node7" class="node"><title>Node7</title>
<g id="a_node7"><a xlink:href="classmemoryoracle_1_1tracked_1_1Tracked.html#abd8dc997fb5a226926f2044462dbd94b" target="_top" xlink:title="memoryoracle.tracked.Tracked.description">
<polygon fill="none" stroke="black" points="184,-148 184,-167 404,-167 404,-148 184,-148"/>
<text text-anchor="middle" x="294" y="-155" font-family="Helvetica,sans-Serif" font-size="10.00">memoryoracle.tracked.Tracked.description</text>
</a>
</g>
</g>
<!-- Node1&#45;&gt;Node7 -->
<g id="edge6" class="edge"><title>Node1&#45;&gt;Node7</title>
<path fill="none" stroke="midnightblue" d="M148.197,-170.12C156.465,-169.4 165.043,-168.652 173.708,-167.897"/>
<polygon fill="midnightblue" stroke="midnightblue" points="174.248,-171.363 183.906,-167.008 173.64,-164.39 174.248,-171.363"/>
</g>
<!-- Node8 -->
<g id="node8" class="node"><title>Node8</title>
<g id="a_node8"><a xlink:href="classmemoryoracle_1_1descriptions_1_1BlackBoxDecorator.html#a558c1ce5d38dc4785d4ef36c0a053967" target="_top" xlink:title="memoryoracle.descriptions.\lBlackBoxDecorator.description">
<polygon fill="none" stroke="black" points="212.5,-98.5 212.5,-128.5 375.5,-128.5 375.5,-98.5 212.5,-98.5"/>
<text text-anchor="start" x="220.5" y="-116.5" font-family="Helvetica,sans-Serif" font-size="10.00">memoryoracle.descriptions.</text>
<text text-anchor="middle" x="294" y="-105.5" font-family="Helvetica,sans-Serif" font-size="10.00">BlackBoxDecorator.description</text>
</a>
</g>
</g>
<!-- Node1&#45;&gt;Node8 -->
<g id="edge7" class="edge"><title>Node1&#45;&gt;Node8</title>
<path fill="none" stroke="midnightblue" d="M114.781,-161.45C135.285,-153.995 160.795,-145.184 184,-138.5 193.139,-135.868 202.771,-133.327 212.373,-130.94"/>
<polygon fill="midnightblue" stroke="midnightblue" points="213.46,-134.278 222.347,-128.511 211.803,-127.477 213.46,-134.278"/>
</g>
<!-- Node9 -->
<g id="node9" class="node"><title>Node9</title>
<g id="a_node9"><a xlink:href="classmemoryoracle_1_1descriptions_1_1ExternalDescriptionDecorator.html#ae5952e51de2c9473ce19875b55ccb625" target="_top" xlink:title="memoryoracle.descriptions.\lExternalDescriptionDecorator.description">
<polygon fill="none" stroke="black" points="188,-49.5 188,-79.5 400,-79.5 400,-49.5 188,-49.5"/>
<text text-anchor="start" x="196" y="-67.5" font-family="Helvetica,sans-Serif" font-size="10.00">memoryoracle.descriptions.</text>
<text text-anchor="middle" x="294" y="-56.5" font-family="Helvetica,sans-Serif" font-size="10.00">ExternalDescriptionDecorator.description</text>
</a>
</g>
</g>
<!-- Node1&#45;&gt;Node9 -->
<g id="edge8" class="edge"><title>Node1&#45;&gt;Node9</title>
<path fill="none" stroke="midnightblue" d="M89.3098,-161.182C108.788,-141.288 145.638,-106.935 184,-88.5 188.14,-86.5107 192.447,-84.684 196.856,-83.0068"/>
<polygon fill="midnightblue" stroke="midnightblue" points="198.369,-86.1852 206.644,-79.5692 196.049,-79.5807 198.369,-86.1852"/>
</g>
<!-- Node10 -->
<g id="node10" class="node"><title>Node10</title>
<g id="a_node10"><a xlink:href="classmemoryoracle_1_1descriptions_1_1StandardDescriptionDecorator.html#a50e064e8a858b8eafe2c603650dbbee8" target="_top" xlink:title="memoryoracle.descriptions.\lStandardDescriptionDecorator.description">
<polygon fill="none" stroke="black" points="185,-0.5 185,-30.5 403,-30.5 403,-0.5 185,-0.5"/>
<text text-anchor="start" x="193" y="-18.5" font-family="Helvetica,sans-Serif" font-size="10.00">memoryoracle.descriptions.</text>
<text text-anchor="middle" x="294" y="-7.5" font-family="Helvetica,sans-Serif" font-size="10.00">StandardDescriptionDecorator.description</text>
</a>
</g>
</g>
<!-- Node1&#45;&gt;Node10 -->
<g id="edge9" class="edge"><title>Node1&#45;&gt;Node10</title>
<path fill="none" stroke="midnightblue" d="M82.5119,-161.333C97.5502,-132.648 134.228,-70.547 184,-39.5 186.668,-37.8359 189.435,-36.2863 192.279,-34.8435"/>
<polygon fill="midnightblue" stroke="midnightblue" points="193.951,-37.9277 201.592,-30.5889 191.042,-31.5606 193.951,-37.9277"/>
</g>
<!-- Node11 -->
<g id="node11" class="node"><title>Node11</title>
<g id="a_node11"><a xlink:href="classmemoryoracle_1_1instance_1_1Memory.html#a8951ac234fecbd6cd473133ae7e63662" target="_top" xlink:title="memoryoracle.instance.Memory.track">
<polygon fill="none" stroke="black" points="195.5,-279 195.5,-298 392.5,-298 392.5,-279 195.5,-279"/>
<text text-anchor="middle" x="294" y="-286" font-family="Helvetica,sans-Serif" font-size="10.00">memoryoracle.instance.Memory.track</text>
</a>
</g>
</g>
<!-- Node1&#45;&gt;Node11 -->
<g id="edge10" class="edge"><title>Node1&#45;&gt;Node11</title>
<path fill="none" stroke="midnightblue" d="M114.731,-191.56C160.953,-213.117 235.549,-251.825 271.828,-273.422"/>
<polygon fill="midnightblue" stroke="midnightblue" points="270.231,-276.548 280.589,-278.777 273.882,-270.575 270.231,-276.548"/>
</g>
<!-- Node3 -->
<g id="node3" class="node"><title>Node3</title>
<g id="a_node3"><a xlink:href="classmemoryoracle_1_1typed_1_1Typed.html#a0d1a3c7644d37da66f9ea5cb269115fe" target="_top" xlink:title="memoryoracle.typed.Typed.object">
<polygon fill="none" stroke="black" points="671,-470 671,-489 850,-489 850,-470 671,-470"/>
<text text-anchor="middle" x="760.5" y="-477" font-family="Helvetica,sans-Serif" font-size="10.00">memoryoracle.typed.Typed.object</text>
</a>
</g>
</g>
<!-- Node2&#45;&gt;Node3 -->
<g id="edge2" class="edge"><title>Node2&#45;&gt;Node3</title>
<path fill="none" stroke="midnightblue" d="M604.581,-482.897C622.468,-482.505 641.903,-482.079 660.771,-481.665"/>
<polygon fill="midnightblue" stroke="midnightblue" points="660.955,-485.162 670.876,-481.444 660.802,-478.164 660.955,-485.162"/>
</g>
<!-- Node4 -->
<g id="node4" class="node"><title>Node4</title>
<g id="a_node4"><a xlink:href="classmemoryoracle_1_1descriptions_1_1MemoryDescription.html#a0fc58900317d1e723b6352005e163aef" target="_top" xlink:title="memoryoracle.descriptions.\lMemoryDescription.object">
<polygon fill="none" stroke="black" points="685.5,-420.5 685.5,-450.5 835.5,-450.5 835.5,-420.5 685.5,-420.5"/>
<text text-anchor="start" x="693.5" y="-438.5" font-family="Helvetica,sans-Serif" font-size="10.00">memoryoracle.descriptions.</text>
<text text-anchor="middle" x="760.5" y="-427.5" font-family="Helvetica,sans-Serif" font-size="10.00">MemoryDescription.object</text>
</a>
</g>
</g>
<!-- Node2&#45;&gt;Node4 -->
<g id="edge3" class="edge"><title>Node2&#45;&gt;Node4</title>
<path fill="none" stroke="midnightblue" d="M601.457,-469.465C626.187,-464.151 654.185,-458.133 679.672,-452.656"/>
<polygon fill="midnightblue" stroke="midnightblue" points="680.634,-456.029 689.675,-450.506 679.163,-449.186 680.634,-456.029"/>
</g>
<!-- Node5 -->
<g id="node5" class="node"><title>Node5</title>
<g id="a_node5"><a xlink:href="classmemoryoracle_1_1instance_1_1Primitive.html#abc513cbf3d0938c0db133e9af0a6f5ea" target="_top" xlink:title="memoryoracle.instance.Primitive.val\l_string">
<polygon fill="none" stroke="black" points="665,-508.5 665,-538.5 856,-538.5 856,-508.5 665,-508.5"/>
<text text-anchor="start" x="673" y="-526.5" font-family="Helvetica,sans-Serif" font-size="10.00">memoryoracle.instance.Primitive.val</text>
<text text-anchor="middle" x="760.5" y="-515.5" font-family="Helvetica,sans-Serif" font-size="10.00">_string</text>
</a>
</g>
</g>
<!-- Node2&#45;&gt;Node5 -->
<g id="edge4" class="edge"><title>Node2&#45;&gt;Node5</title>
<path fill="none" stroke="midnightblue" d="M604.581,-497.001C622.772,-500.112 642.565,-503.498 661.733,-506.777"/>
<polygon fill="midnightblue" stroke="midnightblue" points="661.241,-510.243 671.688,-508.48 662.421,-503.344 661.241,-510.243"/>
</g>
<!-- Node11&#45;&gt;Node1 -->
<g id="edge23" class="edge"><title>Node11&#45;&gt;Node1</title>
<path fill="none" stroke="midnightblue" d="M265.15,-278.881C224.028,-260.455 147.38,-221.122 105.038,-196.761"/>
<polygon fill="midnightblue" stroke="midnightblue" points="106.7,-193.678 96.2997,-191.654 103.168,-199.721 106.7,-193.678"/>
</g>
<!-- Node12 -->
<g id="node12" class="node"><title>Node12</title>
<g id="a_node12"><a xlink:href="classmemoryoracle_1_1instance_1_1Memory.html#ac50fd3bb7216dc0481b8c6f23831a998" target="_top" xlink:title="memoryoracle.instance.Memory.\l_basic_track">
<polygon fill="none" stroke="black" points="444,-322.5 444,-352.5 617,-352.5 617,-322.5 444,-322.5"/>
<text text-anchor="start" x="452" y="-340.5" font-family="Helvetica,sans-Serif" font-size="10.00">memoryoracle.instance.Memory.</text>
<text text-anchor="middle" x="530.5" y="-329.5" font-family="Helvetica,sans-Serif" font-size="10.00">_basic_track</text>
</a>
</g>
</g>
<!-- Node11&#45;&gt;Node12 -->
<g id="edge11" class="edge"><title>Node11&#45;&gt;Node12</title>
<path fill="none" stroke="midnightblue" d="M340.492,-298.006C370.807,-304.34 411.519,-312.847 447.395,-320.344"/>
<polygon fill="midnightblue" stroke="midnightblue" points="446.869,-323.809 457.373,-322.429 448.3,-316.957 446.869,-323.809"/>
</g>
<!-- Node16 -->
<g id="node16" class="node"><title>Node16</title>
<g id="a_node16"><a xlink:href="classmemoryoracle_1_1instance_1_1Structure.html#a200a54be462e0199b7833cbd11f81a52" target="_top" xlink:title="memoryoracle.instance.Structure.\l_track">
<polygon fill="none" stroke="black" points="440,-273.5 440,-303.5 621,-303.5 621,-273.5 440,-273.5"/>
<text text-anchor="start" x="448" y="-291.5" font-family="Helvetica,sans-Serif" font-size="10.00">memoryoracle.instance.Structure.</text>
<text text-anchor="middle" x="530.5" y="-280.5" font-family="Helvetica,sans-Serif" font-size="10.00">_track</text>
</a>
</g>
</g>
<!-- Node11&#45;&gt;Node16 -->
<g id="edge15" class="edge"><title>Node11&#45;&gt;Node16</title>
<path fill="none" stroke="midnightblue" d="M392.751,-288.5C404.926,-288.5 417.389,-288.5 429.595,-288.5"/>
<polygon fill="midnightblue" stroke="midnightblue" points="429.776,-292 439.776,-288.5 429.776,-285 429.776,-292"/>
</g>
<!-- Node17 -->
<g id="node17" class="node"><title>Node17</title>
<g id="a_node17"><a xlink:href="classmemoryoracle_1_1instance_1_1Array.html#a1d8c3993d8a52bfbec8240d6f79b3ce1" target="_top" xlink:title="TODO: upgrade this to ref field. ">
<polygon fill="none" stroke="black" points="450.5,-420.5 450.5,-450.5 610.5,-450.5 610.5,-420.5 450.5,-420.5"/>
<text text-anchor="start" x="458.5" y="-438.5" font-family="Helvetica,sans-Serif" font-size="10.00">memoryoracle.instance.Array.</text>
<text text-anchor="middle" x="530.5" y="-427.5" font-family="Helvetica,sans-Serif" font-size="10.00">_track</text>
</a>
</g>
</g>
<!-- Node11&#45;&gt;Node17 -->
<g id="edge17" class="edge"><title>Node11&#45;&gt;Node17</title>
<path fill="none" stroke="midnightblue" d="M303.439,-298.133C324.248,-321.277 380.646,-380.392 440,-411.5 443.687,-413.432 447.543,-415.219 451.496,-416.87"/>
<polygon fill="midnightblue" stroke="midnightblue" points="450.273,-420.15 460.862,-420.481 452.791,-413.618 450.273,-420.15"/>
</g>
<!-- Node18 -->
<g id="node18" class="node"><title>Node18</title>
<g id="a_node18"><a xlink:href="classmemoryoracle_1_1instance_1_1Primitive.html#a68562bda9732e33fe32188597e2f4b91" target="_top" xlink:title="memoryoracle.instance.Primitive.\l_track">
<polygon fill="none" stroke="black" points="442,-371.5 442,-401.5 619,-401.5 619,-371.5 442,-371.5"/>
<text text-anchor="start" x="450" y="-389.5" font-family="Helvetica,sans-Serif" font-size="10.00">memoryoracle.instance.Primitive.</text>
<text text-anchor="middle" x="530.5" y="-378.5" font-family="Helvetica,sans-Serif" font-size="10.00">_track</text>
</a>
</g>
</g>
<!-- Node11&#45;&gt;Node18 -->
<g id="edge20" class="edge"><title>Node11&#45;&gt;Node18</title>
<path fill="none" stroke="midnightblue" d="M311.011,-298.09C337.205,-313.45 391.195,-343.742 440,-362.5 445.387,-364.571 451.022,-366.532 456.729,-368.374"/>
<polygon fill="midnightblue" stroke="midnightblue" points="455.784,-371.746 466.372,-371.361 457.855,-365.059 455.784,-371.746"/>
</g>
<!-- Node19 -->
<g id="node19" class="node"><title>Node19</title>
<g id="a_node19"><a xlink:href="classmemoryoracle_1_1instance_1_1Pointer.html#a2cc9e298adaad8bed089d90186fcde8a" target="_top" xlink:title="memoryoracle.instance.Pointer.\l_track">
<polygon fill="none" stroke="black" points="446,-224.5 446,-254.5 615,-254.5 615,-224.5 446,-224.5"/>
<text text-anchor="start" x="454" y="-242.5" font-family="Helvetica,sans-Serif" font-size="10.00">memoryoracle.instance.Pointer.</text>
<text text-anchor="middle" x="530.5" y="-231.5" font-family="Helvetica,sans-Serif" font-size="10.00">_track</text>
</a>
</g>
</g>
<!-- Node11&#45;&gt;Node19 -->
<g id="edge21" class="edge"><title>Node11&#45;&gt;Node19</title>
<path fill="none" stroke="midnightblue" d="M340.492,-278.994C370.807,-272.66 411.519,-264.153 447.395,-256.656"/>
<polygon fill="midnightblue" stroke="midnightblue" points="448.3,-260.043 457.373,-254.571 446.869,-253.191 448.3,-260.043"/>
</g>
<!-- Node13 -->
<g id="node13" class="node"><title>Node13</title>
<g id="a_node13"><a xlink:href="classmemoryoracle_1_1frame_1_1Frame.html#aba4a80563b93cf0069db8d64df6b19e5" target="_top" xlink:title="memoryoracle.frame.Frame.index">
<polygon fill="none" stroke="black" points="671,-328 671,-347 850,-347 850,-328 671,-328"/>
<text text-anchor="middle" x="760.5" y="-335" font-family="Helvetica,sans-Serif" font-size="10.00">memoryoracle.frame.Frame.index</text>
</a>
</g>
</g>
<!-- Node12&#45;&gt;Node13 -->
<g id="edge12" class="edge"><title>Node12&#45;&gt;Node13</title>
<path fill="none" stroke="midnightblue" d="M617.047,-337.5C631.318,-337.5 646.224,-337.5 660.791,-337.5"/>
<polygon fill="midnightblue" stroke="midnightblue" points="660.81,-341 670.81,-337.5 660.81,-334 660.81,-341"/>
</g>
<!-- Node14 -->
<g id="node14" class="node"><title>Node14</title>
<g id="a_node14"><a xlink:href="classmemoryoracle_1_1instance_1_1Memory.html#aba9e6136a3854e0ab59a74acd015be06" target="_top" xlink:title="memoryoracle.instance.Memory.index">
<polygon fill="none" stroke="black" points="661,-290 661,-309 860,-309 860,-290 661,-290"/>
<text text-anchor="middle" x="760.5" y="-297" font-family="Helvetica,sans-Serif" font-size="10.00">memoryoracle.instance.Memory.index</text>
</a>
</g>
</g>
<!-- Node12&#45;&gt;Node14 -->
<g id="edge13" class="edge"><title>Node12&#45;&gt;Node14</title>
<path fill="none" stroke="midnightblue" d="M617.047,-323.242C641.924,-319.096 668.733,-314.628 692.308,-310.699"/>
<polygon fill="midnightblue" stroke="midnightblue" points="692.911,-314.147 702.199,-309.05 691.76,-307.242 692.911,-314.147"/>
</g>
<!-- Node15 -->
<g id="node15" class="node"><title>Node15</title>
<g id="a_node15"><a xlink:href="classmemoryoracle_1_1instance_1_1Memory.html#acde5472399a5335909aca575b634dde7" target="_top" xlink:title="memoryoracle.instance.Memory.extract\l_dynamic_type">
<polygon fill="none" stroke="black" points="657,-366.5 657,-396.5 864,-396.5 864,-366.5 657,-366.5"/>
<text text-anchor="start" x="665" y="-384.5" font-family="Helvetica,sans-Serif" font-size="10.00">memoryoracle.instance.Memory.extract</text>
<text text-anchor="middle" x="760.5" y="-373.5" font-family="Helvetica,sans-Serif" font-size="10.00">_dynamic_type</text>
</a>
</g>
</g>
<!-- Node12&#45;&gt;Node15 -->
<g id="edge14" class="edge"><title>Node12&#45;&gt;Node15</title>
<path fill="none" stroke="midnightblue" d="M609.327,-352.519C629.393,-356.392 651.127,-360.586 671.664,-364.549"/>
<polygon fill="midnightblue" stroke="midnightblue" points="671.155,-368.015 681.637,-366.474 672.481,-361.142 671.155,-368.015"/>
</g>
<!-- Node16&#45;&gt;Node6 -->
<g id="edge16" class="edge"><title>Node16&#45;&gt;Node6</title>
<path fill="none" stroke="midnightblue" d="M601.457,-273.465C626.187,-268.151 654.185,-262.133 679.672,-256.656"/>
<polygon fill="midnightblue" stroke="midnightblue" points="680.634,-260.029 689.675,-254.506 679.163,-253.186 680.634,-260.029"/>
</g>
<!-- Node17&#45;&gt;Node3 -->
<g id="edge18" class="edge"><title>Node17&#45;&gt;Node3</title>
<path fill="none" stroke="midnightblue" d="M606.125,-450.536C622.857,-453.859 640.528,-457.333 657,-460.5 670.03,-463.005 684.003,-465.634 697.31,-468.11"/>
<polygon fill="midnightblue" stroke="midnightblue" points="696.86,-471.586 707.33,-469.969 698.136,-464.703 696.86,-471.586"/>
</g>
<!-- Node17&#45;&gt;Node4 -->
<g id="edge19" class="edge"><title>Node17&#45;&gt;Node4</title>
<path fill="none" stroke="midnightblue" d="M610.603,-435.5C631.383,-435.5 653.875,-435.5 674.929,-435.5"/>
<polygon fill="midnightblue" stroke="midnightblue" points="675.135,-439 685.135,-435.5 675.135,-432 675.135,-439"/>
</g>
<!-- Node19&#45;&gt;Node6 -->
<g id="edge22" class="edge"><title>Node19&#45;&gt;Node6</title>
<path fill="none" stroke="midnightblue" d="M615.104,-239.5C627.966,-239.5 641.385,-239.5 654.638,-239.5"/>
<polygon fill="midnightblue" stroke="midnightblue" points="654.729,-243 664.729,-239.5 654.729,-236 654.729,-243"/>
</g>
</g>
</svg>
