<?xml version="1.0" encoding="UTF-8" standalone="no"?>
<!DOCTYPE svg PUBLIC "-//W3C//DTD SVG 1.1//EN"
 "http://www.w3.org/Graphics/SVG/1.1/DTD/svg11.dtd">
<!-- Generated by graphviz version 2.38.0 (20140413.2041)
 -->
<!-- Title: memoryoracle.instance.Primitive Pages: 1 -->
<svg width="513pt" height="1092pt"
 viewBox="0.00 0.00 512.50 1092.00" xmlns="http://www.w3.org/2000/svg" xmlns:xlink="http://www.w3.org/1999/xlink">
<g id="graph0" class="graph" transform="scale(1 1) rotate(0) translate(4 1088)">
<title>memoryoracle.instance.Primitive</title>
<!-- Node1 -->
<g id="node1" class="node"><title>Node1</title>
<polygon fill="#bfbfbf" stroke="black" points="160,-298.5 160,-377.5 334,-377.5 334,-298.5 160,-298.5"/>
<text text-anchor="middle" x="247" y="-365.5" font-family="Helvetica,sans-Serif" font-size="10.00">memoryoracle.instance.Primitive</text>
<polyline fill="none" stroke="black" points="160,-358.5 334,-358.5 "/>
<text text-anchor="start" x="168" y="-346.5" font-family="Helvetica,sans-Serif" font-size="10.00">+ value</text>
<text text-anchor="start" x="168" y="-335.5" font-family="Helvetica,sans-Serif" font-size="10.00">+ value</text>
<polyline fill="none" stroke="black" points="160,-328.5 334,-328.5 "/>
<text text-anchor="start" x="168" y="-316.5" font-family="Helvetica,sans-Serif" font-size="10.00">+ val_string()</text>
<text text-anchor="start" x="168" y="-305.5" font-family="Helvetica,sans-Serif" font-size="10.00">&#45; _track()</text>
</g>
<!-- Node6 -->
<g id="node6" class="node"><title>Node6</title>
<g id="a_node6"><a xlink:href="classmemoryoracle_1_1instance_1_1Float.html" target="_top" xlink:title="{memoryoracle.instance.Float\n|+ repository\l&#45; _updateTracker\l&#45; _watchers\l&#45; _typeHandlerCode\l|}">
<polygon fill="none" stroke="black" points="0,-138.5 0,-228.5 156,-228.5 156,-138.5 0,-138.5"/>
<text text-anchor="middle" x="78" y="-216.5" font-family="Helvetica,sans-Serif" font-size="10.00">memoryoracle.instance.Float</text>
<polyline fill="none" stroke="black" points="0,-209.5 156,-209.5 "/>
<text text-anchor="start" x="8" y="-197.5" font-family="Helvetica,sans-Serif" font-size="10.00">+ repository</text>
<text text-anchor="start" x="8" y="-186.5" font-family="Helvetica,sans-Serif" font-size="10.00">&#45; _updateTracker</text>
<text text-anchor="start" x="8" y="-175.5" font-family="Helvetica,sans-Serif" font-size="10.00">&#45; _watchers</text>
<text text-anchor="start" x="8" y="-164.5" font-family="Helvetica,sans-Serif" font-size="10.00">&#45; _typeHandlerCode</text>
<polyline fill="none" stroke="black" points="0,-157.5 156,-157.5 "/>
<text text-anchor="middle" x="78" y="-145.5" font-family="Helvetica,sans-Serif" font-size="10.00"> </text>
</a>
</g>
</g>
<!-- Node1&#45;&gt;Node6 -->
<g id="edge5" class="edge"><title>Node1&#45;&gt;Node6</title>
<path fill="none" stroke="midnightblue" d="M196.314,-291.263C174.354,-271.447 148.746,-248.339 126.981,-228.699"/>
<polygon fill="none" stroke="midnightblue" points="194.148,-294.022 203.917,-298.123 198.837,-288.825 194.148,-294.022"/>
</g>
<!-- Node7 -->
<g id="node7" class="node"><title>Node7</title>
<g id="a_node7"><a xlink:href="classmemoryoracle_1_1instance_1_1Int.html" target="_top" xlink:title="{memoryoracle.instance.Int\n|+ value\l+ type\l+ repository\l&#45; _updateTracker\l&#45; _watchers\l&#45; _arrayFinder\l&#45; _pointerFinder\l&#45; _spaceFixer\l&#45; _typeHandlerCode\l|&#45; _find_hidden_type()\l&#45; _track()\l}">
<polygon fill="none" stroke="black" points="174.5,-105.5 174.5,-261.5 319.5,-261.5 319.5,-105.5 174.5,-105.5"/>
<text text-anchor="middle" x="247" y="-249.5" font-family="Helvetica,sans-Serif" font-size="10.00">memoryoracle.instance.Int</text>
<polyline fill="none" stroke="black" points="174.5,-242.5 319.5,-242.5 "/>
<text text-anchor="start" x="182.5" y="-230.5" font-family="Helvetica,sans-Serif" font-size="10.00">+ value</text>
<text text-anchor="start" x="182.5" y="-219.5" font-family="Helvetica,sans-Serif" font-size="10.00">+ type</text>
<text text-anchor="start" x="182.5" y="-208.5" font-family="Helvetica,sans-Serif" font-size="10.00">+ repository</text>
<text text-anchor="start" x="182.5" y="-197.5" font-family="Helvetica,sans-Serif" font-size="10.00">&#45; _updateTracker</text>
<text text-anchor="start" x="182.5" y="-186.5" font-family="Helvetica,sans-Serif" font-size="10.00">&#45; _watchers</text>
<text text-anchor="start" x="182.5" y="-175.5" font-family="Helvetica,sans-Serif" font-size="10.00">&#45; _arrayFinder</text>
<text text-anchor="start" x="182.5" y="-164.5" font-family="Helvetica,sans-Serif" font-size="10.00">&#45; _pointerFinder</text>
<text text-anchor="start" x="182.5" y="-153.5" font-family="Helvetica,sans-Serif" font-size="10.00">&#45; _spaceFixer</text>
<text text-anchor="start" x="182.5" y="-142.5" font-family="Helvetica,sans-Serif" font-size="10.00">&#45; _typeHandlerCode</text>
<polyline fill="none" stroke="black" points="174.5,-135.5 319.5,-135.5 "/>
<text text-anchor="start" x="182.5" y="-123.5" font-family="Helvetica,sans-Serif" font-size="10.00">&#45; _find_hidden_type()</text>
<text text-anchor="start" x="182.5" y="-112.5" font-family="Helvetica,sans-Serif" font-size="10.00">&#45; _track()</text>
</a>
</g>
</g>
<!-- Node1&#45;&gt;Node7 -->
<g id="edge6" class="edge"><title>Node1&#45;&gt;Node7</title>
<path fill="none" stroke="midnightblue" d="M247,-288.08C247,-279.607 247,-270.615 247,-261.608"/>
<polygon fill="none" stroke="midnightblue" points="243.5,-288.123 247,-298.123 250.5,-288.123 243.5,-288.123"/>
</g>
<!-- Node8 -->
<g id="node8" class="node"><title>Node8</title>
<g id="a_node8"><a xlink:href="classmemoryoracle_1_1instance_1_1Pointer.html" target="_top" xlink:title="{memoryoracle.instance.Pointer\n|+ repository\l&#45; _updateTracker\l&#45; _watchers\l&#45; _typeHandlerCode\l|&#45; _track()\l}">
<polygon fill="none" stroke="black" points="337.5,-138.5 337.5,-228.5 504.5,-228.5 504.5,-138.5 337.5,-138.5"/>
<text text-anchor="middle" x="421" y="-216.5" font-family="Helvetica,sans-Serif" font-size="10.00">memoryoracle.instance.Pointer</text>
<polyline fill="none" stroke="black" points="337.5,-209.5 504.5,-209.5 "/>
<text text-anchor="start" x="345.5" y="-197.5" font-family="Helvetica,sans-Serif" font-size="10.00">+ repository</text>
<text text-anchor="start" x="345.5" y="-186.5" font-family="Helvetica,sans-Serif" font-size="10.00">&#45; _updateTracker</text>
<text text-anchor="start" x="345.5" y="-175.5" font-family="Helvetica,sans-Serif" font-size="10.00">&#45; _watchers</text>
<text text-anchor="start" x="345.5" y="-164.5" font-family="Helvetica,sans-Serif" font-size="10.00">&#45; _typeHandlerCode</text>
<polyline fill="none" stroke="black" points="337.5,-157.5 504.5,-157.5 "/>
<text text-anchor="start" x="345.5" y="-145.5" font-family="Helvetica,sans-Serif" font-size="10.00">&#45; _track()</text>
</a>
</g>
</g>
<!-- Node1&#45;&gt;Node8 -->
<g id="edge7" class="edge"><title>Node1&#45;&gt;Node8</title>
<path fill="none" stroke="midnightblue" d="M298.89,-291.522C321.565,-271.649 348.063,-248.425 370.57,-228.699"/>
<polygon fill="none" stroke="midnightblue" points="296.571,-288.9 291.358,-298.123 301.185,-294.164 296.571,-288.9"/>
</g>
<!-- Node2 -->
<g id="node2" class="node"><title>Node2</title>
<g id="a_node2"><a xlink:href="classmemoryoracle_1_1instance_1_1Memory.html" target="_top" xlink:title="{memoryoracle.instance.Memory\n|+ unaliased_type\l+ dynamic_type\l+ address\l+ name\l+ frame\l+ execution\l+ type\l+ dynamic_type\l+ unaliased_type\l+ parent\l+ meta\l&#45; _description\l&#45; _object\l&#45; _addressFixer\l&#45; _updatedNames\l&#45; _watchers\l&#45; _execution\l&#45; _updateTracker\l|+ __init__()\l+ index()\l+ factory()\l+ track()\l+ update()\l+ watchers()\l+ extract_dynamic_type()\l&#45; _fetch()\l&#45; _basic_track()\l&#45; _clear_updated()\l&#45; _set_execution()\l}">
<polygon fill="none" stroke="black" points="161,-414.5 161,-768.5 333,-768.5 333,-414.5 161,-414.5"/>
<text text-anchor="middle" x="247" y="-756.5" font-family="Helvetica,sans-Serif" font-size="10.00">memoryoracle.instance.Memory</text>
<polyline fill="none" stroke="black" points="161,-749.5 333,-749.5 "/>
<text text-anchor="start" x="169" y="-737.5" font-family="Helvetica,sans-Serif" font-size="10.00">+ unaliased_type</text>
<text text-anchor="start" x="169" y="-726.5" font-family="Helvetica,sans-Serif" font-size="10.00">+ dynamic_type</text>
<text text-anchor="start" x="169" y="-715.5" font-family="Helvetica,sans-Serif" font-size="10.00">+ address</text>
<text text-anchor="start" x="169" y="-704.5" font-family="Helvetica,sans-Serif" font-size="10.00">+ name</text>
<text text-anchor="start" x="169" y="-693.5" font-family="Helvetica,sans-Serif" font-size="10.00">+ frame</text>
<text text-anchor="start" x="169" y="-682.5" font-family="Helvetica,sans-Serif" font-size="10.00">+ execution</text>
<text text-anchor="start" x="169" y="-671.5" font-family="Helvetica,sans-Serif" font-size="10.00">+ type</text>
<text text-anchor="start" x="169" y="-660.5" font-family="Helvetica,sans-Serif" font-size="10.00">+ dynamic_type</text>
<text text-anchor="start" x="169" y="-649.5" font-family="Helvetica,sans-Serif" font-size="10.00">+ unaliased_type</text>
<text text-anchor="start" x="169" y="-638.5" font-family="Helvetica,sans-Serif" font-size="10.00">+ parent</text>
<text text-anchor="start" x="169" y="-627.5" font-family="Helvetica,sans-Serif" font-size="10.00">+ meta</text>
<text text-anchor="start" x="169" y="-616.5" font-family="Helvetica,sans-Serif" font-size="10.00">&#45; _description</text>
<text text-anchor="start" x="169" y="-605.5" font-family="Helvetica,sans-Serif" font-size="10.00">&#45; _object</text>
<text text-anchor="start" x="169" y="-594.5" font-family="Helvetica,sans-Serif" font-size="10.00">&#45; _addressFixer</text>
<text text-anchor="start" x="169" y="-583.5" font-family="Helvetica,sans-Serif" font-size="10.00">&#45; _updatedNames</text>
<text text-anchor="start" x="169" y="-572.5" font-family="Helvetica,sans-Serif" font-size="10.00">&#45; _watchers</text>
<text text-anchor="start" x="169" y="-561.5" font-family="Helvetica,sans-Serif" font-size="10.00">&#45; _execution</text>
<text text-anchor="start" x="169" y="-550.5" font-family="Helvetica,sans-Serif" font-size="10.00">&#45; _updateTracker</text>
<polyline fill="none" stroke="black" points="161,-543.5 333,-543.5 "/>
<text text-anchor="start" x="169" y="-531.5" font-family="Helvetica,sans-Serif" font-size="10.00">+ __init__()</text>
<text text-anchor="start" x="169" y="-520.5" font-family="Helvetica,sans-Serif" font-size="10.00">+ index()</text>
<text text-anchor="start" x="169" y="-509.5" font-family="Helvetica,sans-Serif" font-size="10.00">+ factory()</text>
<text text-anchor="start" x="169" y="-498.5" font-family="Helvetica,sans-Serif" font-size="10.00">+ track()</text>
<text text-anchor="start" x="169" y="-487.5" font-family="Helvetica,sans-Serif" font-size="10.00">+ update()</text>
<text text-anchor="start" x="169" y="-476.5" font-family="Helvetica,sans-Serif" font-size="10.00">+ watchers()</text>
<text text-anchor="start" x="169" y="-465.5" font-family="Helvetica,sans-Serif" font-size="10.00">+ extract_dynamic_type()</text>
<text text-anchor="start" x="169" y="-454.5" font-family="Helvetica,sans-Serif" font-size="10.00">&#45; _fetch()</text>
<text text-anchor="start" x="169" y="-443.5" font-family="Helvetica,sans-Serif" font-size="10.00">&#45; _basic_track()</text>
<text text-anchor="start" x="169" y="-432.5" font-family="Helvetica,sans-Serif" font-size="10.00">&#45; _clear_updated()</text>
<text text-anchor="start" x="169" y="-421.5" font-family="Helvetica,sans-Serif" font-size="10.00">&#45; _set_execution()</text>
</a>
</g>
</g>
<!-- Node2&#45;&gt;Node1 -->
<g id="edge1" class="edge"><title>Node2&#45;&gt;Node1</title>
<path fill="none" stroke="midnightblue" d="M247,-404.309C247,-394.769 247,-385.837 247,-377.827"/>
<polygon fill="none" stroke="midnightblue" points="243.5,-404.458 247,-414.458 250.5,-404.458 243.5,-404.458"/>
</g>
<!-- Node3 -->
<g id="node3" class="node"><title>Node3</title>
<g id="a_node3"><a xlink:href="classmemoryoracle_1_1typed_1_1Typed.html" target="_top" xlink:title="{memoryoracle.typed.Typed\n||+ type_code()\l+ gdb_type()\l+ object()\l}">
<polygon fill="none" stroke="black" points="174,-805.5 174,-884.5 320,-884.5 320,-805.5 174,-805.5"/>
<text text-anchor="middle" x="247" y="-872.5" font-family="Helvetica,sans-Serif" font-size="10.00">memoryoracle.typed.Typed</text>
<polyline fill="none" stroke="black" points="174,-865.5 320,-865.5 "/>
<text text-anchor="middle" x="247" y="-853.5" font-family="Helvetica,sans-Serif" font-size="10.00"> </text>
<polyline fill="none" stroke="black" points="174,-846.5 320,-846.5 "/>
<text text-anchor="start" x="182" y="-834.5" font-family="Helvetica,sans-Serif" font-size="10.00">+ type_code()</text>
<text text-anchor="start" x="182" y="-823.5" font-family="Helvetica,sans-Serif" font-size="10.00">+ gdb_type()</text>
<text text-anchor="start" x="182" y="-812.5" font-family="Helvetica,sans-Serif" font-size="10.00">+ object()</text>
</a>
</g>
</g>
<!-- Node3&#45;&gt;Node2 -->
<g id="edge2" class="edge"><title>Node3&#45;&gt;Node2</title>
<path fill="none" stroke="midnightblue" d="M247,-795.196C247,-786.935 247,-777.955 247,-768.522"/>
<polygon fill="none" stroke="midnightblue" points="243.5,-795.254 247,-805.254 250.5,-795.254 243.5,-795.254"/>
</g>
<!-- Node4 -->
<g id="node4" class="node"><title>Node4</title>
<g id="a_node4"><a xlink:href="classmemoryoracle_1_1tracked_1_1Tracked.html" target="_top" xlink:title="{memoryoracle.tracked.Tracked\n|+ meta\l|+ track()\l+ description()\l}">
<polygon fill="none" stroke="black" points="165,-921.5 165,-989.5 329,-989.5 329,-921.5 165,-921.5"/>
<text text-anchor="middle" x="247" y="-977.5" font-family="Helvetica,sans-Serif" font-size="10.00">memoryoracle.tracked.Tracked</text>
<polyline fill="none" stroke="black" points="165,-970.5 329,-970.5 "/>
<text text-anchor="start" x="173" y="-958.5" font-family="Helvetica,sans-Serif" font-size="10.00">+ meta</text>
<polyline fill="none" stroke="black" points="165,-951.5 329,-951.5 "/>
<text text-anchor="start" x="173" y="-939.5" font-family="Helvetica,sans-Serif" font-size="10.00">+ track()</text>
<text text-anchor="start" x="173" y="-928.5" font-family="Helvetica,sans-Serif" font-size="10.00">+ description()</text>
</a>
</g>
</g>
<!-- Node4&#45;&gt;Node3 -->
<g id="edge3" class="edge"><title>Node4&#45;&gt;Node3</title>
<path fill="none" stroke="midnightblue" d="M247,-911.274C247,-902.476 247,-893.275 247,-884.649"/>
<polygon fill="none" stroke="midnightblue" points="243.5,-911.357 247,-921.357 250.5,-911.357 243.5,-911.357"/>
</g>
<!-- Node5 -->
<g id="node5" class="node"><title>Node5</title>
<polygon fill="none" stroke="#bfbfbf" points="213.5,-1026.5 213.5,-1083.5 280.5,-1083.5 280.5,-1026.5 213.5,-1026.5"/>
<text text-anchor="middle" x="247" y="-1071.5" font-family="Helvetica,sans-Serif" font-size="10.00">Document</text>
<polyline fill="none" stroke="#bfbfbf" points="213.5,-1064.5 280.5,-1064.5 "/>
<text text-anchor="middle" x="247" y="-1052.5" font-family="Helvetica,sans-Serif" font-size="10.00"> </text>
<polyline fill="none" stroke="#bfbfbf" points="213.5,-1045.5 280.5,-1045.5 "/>
<text text-anchor="middle" x="247" y="-1033.5" font-family="Helvetica,sans-Serif" font-size="10.00"> </text>
</g>
<!-- Node5&#45;&gt;Node4 -->
<g id="edge4" class="edge"><title>Node5&#45;&gt;Node4</title>
<path fill="none" stroke="midnightblue" d="M247,-1016.06C247,-1007.39 247,-998.243 247,-989.786"/>
<polygon fill="none" stroke="midnightblue" points="243.5,-1016.32 247,-1026.32 250.5,-1016.32 243.5,-1016.32"/>
</g>
<!-- Node9 -->
<g id="node9" class="node"><title>Node9</title>
<g id="a_node9"><a xlink:href="classmemoryoracle_1_1instance_1_1CharString.html" target="_top" xlink:title="{memoryoracle.instance.Char\lString\n||}">
<polygon fill="none" stroke="black" points="343.5,-0.5 343.5,-68.5 498.5,-68.5 498.5,-0.5 343.5,-0.5"/>
<text text-anchor="start" x="351.5" y="-56.5" font-family="Helvetica,sans-Serif" font-size="10.00">memoryoracle.instance.Char</text>
<text text-anchor="middle" x="421" y="-45.5" font-family="Helvetica,sans-Serif" font-size="10.00">String</text>
<polyline fill="none" stroke="black" points="343.5,-38.5 498.5,-38.5 "/>
<text text-anchor="middle" x="421" y="-26.5" font-family="Helvetica,sans-Serif" font-size="10.00"> </text>
<polyline fill="none" stroke="black" points="343.5,-19.5 498.5,-19.5 "/>
<text text-anchor="middle" x="421" y="-7.5" font-family="Helvetica,sans-Serif" font-size="10.00"> </text>
</a>
</g>
</g>
<!-- Node8&#45;&gt;Node9 -->
<g id="edge8" class="edge"><title>Node8&#45;&gt;Node9</title>
<path fill="none" stroke="midnightblue" d="M421,-128.201C421,-108.288 421,-86.3538 421,-68.8221"/>
<polygon fill="none" stroke="midnightblue" points="417.5,-128.395 421,-138.395 424.5,-128.395 417.5,-128.395"/>
</g>
</g>
</svg>
