<?xml version="1.0" encoding="UTF-8" standalone="no"?>
<!DOCTYPE svg PUBLIC "-//W3C//DTD SVG 1.1//EN"
 "http://www.w3.org/Graphics/SVG/1.1/DTD/svg11.dtd">
<!-- Generated by graphviz version 2.38.0 (20140413.2041)
 -->
<!-- Title: memoryoracle.instance.Instance.track Pages: 1 -->
<svg width="1095pt" height="857pt"
 viewBox="0.00 0.00 1095.00 857.18" xmlns="http://www.w3.org/2000/svg" xmlns:xlink="http://www.w3.org/1999/xlink">
<g id="graph0" class="graph" transform="scale(1 1) rotate(0) translate(4 853.179)">
<title>memoryoracle.instance.Instance.track</title>
<!-- Node1 -->
<g id="node1" class="node"><title>Node1</title>
<polygon fill="#bfbfbf" stroke="black" points="0,-628.5 0,-647.5 200,-647.5 200,-628.5 0,-628.5"/>
<text text-anchor="middle" x="100" y="-635.5" font-family="Helvetica,sans-Serif" font-size="10.00">memoryoracle.instance.Instance.track</text>
</g>
<!-- Node2 -->
<g id="node2" class="node"><title>Node2</title>
<g id="a_node2"><a xlink:href="classmemoryoracle_1_1instance_1_1Instance.html#a254a208a64e4c7f32c514e2fb64edbbe" target="_top" xlink:title="memoryoracle.instance.Instance.\l_basic_track">
<polygon fill="none" stroke="black" points="238.5,-601 238.5,-631 414.5,-631 414.5,-601 238.5,-601"/>
<text text-anchor="start" x="246.5" y="-619" font-family="Helvetica,sans-Serif" font-size="10.00">memoryoracle.instance.Instance.</text>
<text text-anchor="middle" x="326.5" y="-608" font-family="Helvetica,sans-Serif" font-size="10.00">_basic_track</text>
</a>
</g>
</g>
<!-- Node1&#45;&gt;Node2 -->
<g id="edge1" class="edge"><title>Node1&#45;&gt;Node2</title>
<path fill="none" stroke="midnightblue" d="M198.163,-628.478C208.206,-627.494 218.414,-626.494 228.456,-625.51"/>
<polygon fill="midnightblue" stroke="midnightblue" points="228.819,-628.991 238.43,-624.532 228.136,-622.025 228.819,-628.991"/>
</g>
<!-- Node4 -->
<g id="node4" class="node"><title>Node4</title>
<g id="a_node4"><a xlink:href="classmemoryoracle_1_1frame_1_1Frame.html#aba4a80563b93cf0069db8d64df6b19e5" target="_top" xlink:title="memoryoracle.frame.Frame.index">
<polygon fill="none" stroke="black" points="473.5,-650.5 473.5,-669.5 652.5,-669.5 652.5,-650.5 473.5,-650.5"/>
<text text-anchor="middle" x="563" y="-657.5" font-family="Helvetica,sans-Serif" font-size="10.00">memoryoracle.frame.Frame.index</text>
</a>
</g>
</g>
<!-- Node1&#45;&gt;Node4 -->
<g id="edge54" class="edge"><title>Node1&#45;&gt;Node4</title>
<path fill="none" stroke="midnightblue" d="M200.179,-642.733C277.802,-646.437 385.242,-651.565 462.857,-655.269"/>
<polygon fill="midnightblue" stroke="midnightblue" points="462.969,-658.778 473.125,-655.759 463.303,-651.786 462.969,-658.778"/>
</g>
<!-- Node5 -->
<g id="node5" class="node"><title>Node5</title>
<g id="a_node5"><a xlink:href="classmemoryoracle_1_1instance_1_1Instance.html#a67d649391bded2256ff9a72e2a61143f" target="_top" xlink:title="memoryoracle.instance.Instance.index">
<polygon fill="none" stroke="black" points="462,-688.5 462,-707.5 664,-707.5 664,-688.5 462,-688.5"/>
<text text-anchor="middle" x="563" y="-695.5" font-family="Helvetica,sans-Serif" font-size="10.00">memoryoracle.instance.Instance.index</text>
</a>
</g>
</g>
<!-- Node1&#45;&gt;Node5 -->
<g id="edge55" class="edge"><title>Node1&#45;&gt;Node5</title>
<path fill="none" stroke="midnightblue" d="M147.712,-647.557C173.64,-652.633 206.518,-658.694 236,-663 307.643,-673.464 388.571,-682.17 451.873,-688.282"/>
<polygon fill="midnightblue" stroke="midnightblue" points="451.588,-691.771 461.877,-689.24 452.256,-684.803 451.588,-691.771"/>
</g>
<!-- Node6 -->
<g id="node6" class="node"><title>Node6</title>
<g id="a_node6"><a xlink:href="classmemoryoracle_1_1instance_1_1Structure.html#a200a54be462e0199b7833cbd11f81a52" target="_top" xlink:title="memoryoracle.instance.Structure.\l_track">
<polygon fill="none" stroke="black" points="236,-388 236,-418 417,-418 417,-388 236,-388"/>
<text text-anchor="start" x="244" y="-406" font-family="Helvetica,sans-Serif" font-size="10.00">memoryoracle.instance.Structure.</text>
<text text-anchor="middle" x="326.5" y="-395" font-family="Helvetica,sans-Serif" font-size="10.00">_track</text>
</a>
</g>
</g>
<!-- Node1&#45;&gt;Node6 -->
<g id="edge5" class="edge"><title>Node1&#45;&gt;Node6</title>
<path fill="none" stroke="midnightblue" d="M110.079,-628.497C142.938,-594.1 256.239,-475.5 304,-425.506"/>
<polygon fill="midnightblue" stroke="midnightblue" points="306.703,-427.743 311.08,-418.094 301.642,-422.907 306.703,-427.743"/>
</g>
<!-- Node16 -->
<g id="node16" class="node"><title>Node16</title>
<g id="a_node16"><a xlink:href="classmemoryoracle_1_1instance_1_1Array.html#a1d8c3993d8a52bfbec8240d6f79b3ce1" target="_top" xlink:title="memoryoracle.instance.Array.\l_track">
<polygon fill="none" stroke="black" points="246.5,-339 246.5,-369 406.5,-369 406.5,-339 246.5,-339"/>
<text text-anchor="start" x="254.5" y="-357" font-family="Helvetica,sans-Serif" font-size="10.00">memoryoracle.instance.Array.</text>
<text text-anchor="middle" x="326.5" y="-346" font-family="Helvetica,sans-Serif" font-size="10.00">_track</text>
</a>
</g>
</g>
<!-- Node1&#45;&gt;Node16 -->
<g id="edge16" class="edge"><title>Node1&#45;&gt;Node16</title>
<path fill="none" stroke="midnightblue" d="M103.025,-628.44C111.6,-590.374 148.581,-448.251 236,-378 237.599,-376.715 239.26,-375.499 240.975,-374.347"/>
<polygon fill="midnightblue" stroke="midnightblue" points="243.066,-377.179 249.936,-369.113 239.535,-371.135 243.066,-377.179"/>
</g>
<!-- Node21 -->
<g id="node21" class="node"><title>Node21</title>
<g id="a_node21"><a xlink:href="classmemoryoracle_1_1instance_1_1Primitive.html#a68562bda9732e33fe32188597e2f4b91" target="_top" xlink:title="memoryoracle.instance.Primitive.\l_track">
<polygon fill="none" stroke="black" points="238,-776 238,-806 415,-806 415,-776 238,-776"/>
<text text-anchor="start" x="246" y="-794" font-family="Helvetica,sans-Serif" font-size="10.00">memoryoracle.instance.Primitive.</text>
<text text-anchor="middle" x="326.5" y="-783" font-family="Helvetica,sans-Serif" font-size="10.00">_track</text>
</a>
</g>
</g>
<!-- Node1&#45;&gt;Node21 -->
<g id="edge33" class="edge"><title>Node1&#45;&gt;Node21</title>
<path fill="none" stroke="midnightblue" d="M108.352,-647.677C126.987,-671.522 178.678,-733.514 236,-766 239.895,-768.207 243.997,-770.23 248.216,-772.082"/>
<polygon fill="midnightblue" stroke="midnightblue" points="247.019,-775.373 257.602,-775.869 249.638,-768.881 247.019,-775.373"/>
</g>
<!-- Node25 -->
<g id="node25" class="node"><title>Node25</title>
<g id="a_node25"><a xlink:href="classmemoryoracle_1_1instance_1_1Pointer.html#a2cc9e298adaad8bed089d90186fcde8a" target="_top" xlink:title="memoryoracle.instance.Pointer.\l_track">
<polygon fill="none" stroke="black" points="242,-552 242,-582 411,-582 411,-552 242,-552"/>
<text text-anchor="start" x="250" y="-570" font-family="Helvetica,sans-Serif" font-size="10.00">memoryoracle.instance.Pointer.</text>
<text text-anchor="middle" x="326.5" y="-559" font-family="Helvetica,sans-Serif" font-size="10.00">_track</text>
</a>
</g>
</g>
<!-- Node1&#45;&gt;Node25 -->
<g id="edge40" class="edge"><title>Node1&#45;&gt;Node25</title>
<path fill="none" stroke="midnightblue" d="M126.695,-628.426C153.72,-618.504 197.574,-602.824 236,-591 242.871,-588.886 250.07,-586.778 257.274,-584.74"/>
<polygon fill="midnightblue" stroke="midnightblue" points="258.377,-588.066 267.07,-582.008 256.497,-581.323 258.377,-588.066"/>
</g>
<!-- Node26 -->
<g id="node26" class="node"><title>Node26</title>
<g id="a_node26"><a xlink:href="classmemoryoracle_1_1instance_1_1Int.html#a38c9424341353f006771163d360594da" target="_top" xlink:title="memoryoracle.instance.Int.\l_track">
<polygon fill="none" stroke="black" points="252.5,-727 252.5,-757 400.5,-757 400.5,-727 252.5,-727"/>
<text text-anchor="start" x="260.5" y="-745" font-family="Helvetica,sans-Serif" font-size="10.00">memoryoracle.instance.Int.</text>
<text text-anchor="middle" x="326.5" y="-734" font-family="Helvetica,sans-Serif" font-size="10.00">_track</text>
</a>
</g>
</g>
<!-- Node1&#45;&gt;Node26 -->
<g id="edge46" class="edge"><title>Node1&#45;&gt;Node26</title>
<path fill="none" stroke="midnightblue" d="M116.338,-647.59C140.915,-662.683 190.945,-692.288 236,-712 245.443,-716.132 255.649,-720.044 265.673,-723.595"/>
<polygon fill="midnightblue" stroke="midnightblue" points="264.602,-726.928 275.196,-726.885 266.887,-720.312 264.602,-726.928"/>
</g>
<!-- Node3 -->
<g id="node3" class="node"><title>Node3</title>
<g id="a_node3"><a xlink:href="classmemoryoracle_1_1descriptions_1_1Description.html#a793ffb6975ee167869a1f475b1748769" target="_top" xlink:title="memoryoracle.descriptions.\lDescription.id">
<polygon fill="none" stroke="black" points="488,-514 488,-544 638,-544 638,-514 488,-514"/>
<text text-anchor="start" x="496" y="-532" font-family="Helvetica,sans-Serif" font-size="10.00">memoryoracle.descriptions.</text>
<text text-anchor="middle" x="563" y="-521" font-family="Helvetica,sans-Serif" font-size="10.00">Description.id</text>
</a>
</g>
</g>
<!-- Node2&#45;&gt;Node3 -->
<g id="edge2" class="edge"><title>Node2&#45;&gt;Node3</title>
<path fill="none" stroke="midnightblue" d="M396.538,-600.865C403.682,-598.092 410.644,-594.831 417,-591 436.925,-578.991 432.748,-564.45 453,-553 460.866,-548.553 469.483,-544.929 478.316,-541.977"/>
<polygon fill="midnightblue" stroke="midnightblue" points="479.421,-545.3 487.961,-539.03 477.375,-538.605 479.421,-545.3"/>
</g>
<!-- Node2&#45;&gt;Node4 -->
<g id="edge3" class="edge"><title>Node2&#45;&gt;Node4</title>
<path fill="none" stroke="midnightblue" d="M407.546,-631.019C438.286,-636.787 472.832,-643.269 501.446,-648.638"/>
<polygon fill="midnightblue" stroke="midnightblue" points="500.829,-652.083 511.303,-650.488 502.12,-645.203 500.829,-652.083"/>
</g>
<!-- Node2&#45;&gt;Node5 -->
<g id="edge4" class="edge"><title>Node2&#45;&gt;Node5</title>
<path fill="none" stroke="midnightblue" d="M352.046,-631.046C376.693,-645.487 416.191,-666.847 453,-679 461.573,-681.831 470.672,-684.262 479.815,-686.346"/>
<polygon fill="midnightblue" stroke="midnightblue" points="479.219,-689.798 489.731,-688.473 480.687,-682.954 479.219,-689.798"/>
</g>
<!-- Node6&#45;&gt;Node3 -->
<g id="edge14" class="edge"><title>Node6&#45;&gt;Node3</title>
<path fill="none" stroke="midnightblue" d="M341.776,-418.239C363.575,-440.568 407.452,-481.911 453,-504 460.869,-507.816 469.344,-511.064 477.968,-513.824"/>
<polygon fill="midnightblue" stroke="midnightblue" points="477.16,-517.235 487.743,-516.738 479.16,-510.527 477.16,-517.235"/>
</g>
<!-- Node7 -->
<g id="node7" class="node"><title>Node7</title>
<g id="a_node7"><a xlink:href="classmemoryoracle_1_1descriptions_1_1Description.html#a4b27c3ae1ef0ab35ec0f990fa553b8b3" target="_top" xlink:title="memoryoracle.descriptions.\lDescription.name">
<polygon fill="none" stroke="black" points="488,-388 488,-418 638,-418 638,-388 488,-388"/>
<text text-anchor="start" x="496" y="-406" font-family="Helvetica,sans-Serif" font-size="10.00">memoryoracle.descriptions.</text>
<text text-anchor="middle" x="563" y="-395" font-family="Helvetica,sans-Serif" font-size="10.00">Description.name</text>
</a>
</g>
</g>
<!-- Node6&#45;&gt;Node7 -->
<g id="edge6" class="edge"><title>Node6&#45;&gt;Node7</title>
<path fill="none" stroke="midnightblue" d="M417.158,-403C436.977,-403 457.911,-403 477.516,-403"/>
<polygon fill="midnightblue" stroke="midnightblue" points="477.634,-406.5 487.634,-403 477.634,-399.5 477.634,-406.5"/>
</g>
<!-- Node8 -->
<g id="node8" class="node"><title>Node8</title>
<g id="a_node8"><a xlink:href="classmemoryoracle_1_1descriptions_1_1BlackBoxDecorator.html#a30f3fcba004264fb8b1c4e625a348124" target="_top" xlink:title="memoryoracle.descriptions.\lBlackBoxDecorator.name">
<polygon fill="none" stroke="black" points="488,-339 488,-369 638,-369 638,-339 488,-339"/>
<text text-anchor="start" x="496" y="-357" font-family="Helvetica,sans-Serif" font-size="10.00">memoryoracle.descriptions.</text>
<text text-anchor="middle" x="563" y="-346" font-family="Helvetica,sans-Serif" font-size="10.00">BlackBoxDecorator.name</text>
</a>
</g>
</g>
<!-- Node6&#45;&gt;Node8 -->
<g id="edge7" class="edge"><title>Node6&#45;&gt;Node8</title>
<path fill="none" stroke="midnightblue" d="M399.451,-387.965C424.999,-382.627 453.937,-376.58 480.244,-371.083"/>
<polygon fill="midnightblue" stroke="midnightblue" points="481.112,-374.478 490.185,-369.006 479.68,-367.626 481.112,-374.478"/>
</g>
<!-- Node9 -->
<g id="node9" class="node"><title>Node9</title>
<g id="a_node9"><a xlink:href="classmemoryoracle_1_1descriptions_1_1ExternalDescriptionDecorator.html#a3653b421084fc367f59e1b365270d4e1" target="_top" xlink:title="memoryoracle.descriptions.\lExternalDescriptionDecorator.name">
<polygon fill="none" stroke="black" points="469,-290 469,-320 657,-320 657,-290 469,-290"/>
<text text-anchor="start" x="477" y="-308" font-family="Helvetica,sans-Serif" font-size="10.00">memoryoracle.descriptions.</text>
<text text-anchor="middle" x="563" y="-297" font-family="Helvetica,sans-Serif" font-size="10.00">ExternalDescriptionDecorator.name</text>
</a>
</g>
</g>
<!-- Node6&#45;&gt;Node9 -->
<g id="edge8" class="edge"><title>Node6&#45;&gt;Node9</title>
<path fill="none" stroke="midnightblue" d="M398.878,-387.874C405.272,-385.114 411.426,-381.853 417,-378 439.23,-362.635 430.351,-343.74 453,-329 455.474,-327.39 458.04,-325.886 460.677,-324.482"/>
<polygon fill="midnightblue" stroke="midnightblue" points="462.377,-327.55 469.893,-320.083 459.361,-321.232 462.377,-327.55"/>
</g>
<!-- Node10 -->
<g id="node10" class="node"><title>Node10</title>
<g id="a_node10"><a xlink:href="classmemoryoracle_1_1descriptions_1_1StandardDescriptionDecorator.html#a06d5c7b1716ece015737e1137f39f56d" target="_top" xlink:title="memoryoracle.descriptions.\lStandardDescriptionDecorator.name">
<polygon fill="none" stroke="black" points="466.5,-241 466.5,-271 659.5,-271 659.5,-241 466.5,-241"/>
<text text-anchor="start" x="474.5" y="-259" font-family="Helvetica,sans-Serif" font-size="10.00">memoryoracle.descriptions.</text>
<text text-anchor="middle" x="563" y="-248" font-family="Helvetica,sans-Serif" font-size="10.00">StandardDescriptionDecorator.name</text>
</a>
</g>
</g>
<!-- Node6&#45;&gt;Node10 -->
<g id="edge9" class="edge"><title>Node6&#45;&gt;Node10</title>
<path fill="none" stroke="midnightblue" d="M403.164,-387.838C408.164,-385.081 412.851,-381.831 417,-378 451.091,-346.522 418.046,-310.517 453,-280 454.533,-278.662 456.123,-277.393 457.764,-276.19"/>
<polygon fill="midnightblue" stroke="midnightblue" points="459.805,-279.04 466.352,-270.71 456.039,-273.139 459.805,-279.04"/>
</g>
<!-- Node11 -->
<g id="node11" class="node"><title>Node11</title>
<g id="a_node11"><a xlink:href="classmemoryoracle_1_1frame_1_1Frame.html#a34903b0f51d554e95b269e5e1d6f1b16" target="_top" xlink:title="memoryoracle.frame.Frame.name">
<polygon fill="none" stroke="black" points="472,-202.5 472,-221.5 654,-221.5 654,-202.5 472,-202.5"/>
<text text-anchor="middle" x="563" y="-209.5" font-family="Helvetica,sans-Serif" font-size="10.00">memoryoracle.frame.Frame.name</text>
</a>
</g>
</g>
<!-- Node6&#45;&gt;Node11 -->
<g id="edge10" class="edge"><title>Node6&#45;&gt;Node11</title>
<path fill="none" stroke="midnightblue" d="M404.491,-387.846C409.061,-385.079 413.297,-381.825 417,-378 463.791,-329.677 403.857,-276.929 453,-231 456.032,-228.167 459.328,-225.676 462.822,-223.491"/>
<polygon fill="midnightblue" stroke="midnightblue" points="464.698,-226.457 471.878,-218.666 461.407,-220.279 464.698,-226.457"/>
</g>
<!-- Node12 -->
<g id="node12" class="node"><title>Node12</title>
<g id="a_node12"><a xlink:href="classmemoryoracle_1_1whip_1_1Coffee.html#a0d8c38135ee9a8cf701ffb580edf66e3" target="_top" xlink:title="memoryoracle.whip.Coffee.name">
<polygon fill="none" stroke="black" points="475.5,-164.5 475.5,-183.5 650.5,-183.5 650.5,-164.5 475.5,-164.5"/>
<text text-anchor="middle" x="563" y="-171.5" font-family="Helvetica,sans-Serif" font-size="10.00">memoryoracle.whip.Coffee.name</text>
</a>
</g>
</g>
<!-- Node6&#45;&gt;Node12 -->
<g id="edge11" class="edge"><title>Node6&#45;&gt;Node12</title>
<path fill="none" stroke="midnightblue" d="M405.112,-387.788C409.474,-385.03 413.499,-381.794 417,-378 473.809,-316.443 393.192,-251.647 453,-193 456.886,-189.189 461.248,-185.989 465.932,-183.311"/>
<polygon fill="midnightblue" stroke="midnightblue" points="467.817,-186.287 475.296,-178.782 464.77,-179.986 467.817,-186.287"/>
</g>
<!-- Node13 -->
<g id="node13" class="node"><title>Node13</title>
<g id="a_node13"><a xlink:href="classmemoryoracle_1_1whip_1_1WhipDecorator.html#a1896ad782902459bf19b6c852dd82eed" target="_top" xlink:title="memoryoracle.whip.WhipDecorator.name">
<polygon fill="none" stroke="black" points="456,-475.5 456,-494.5 670,-494.5 670,-475.5 456,-475.5"/>
<text text-anchor="middle" x="563" y="-482.5" font-family="Helvetica,sans-Serif" font-size="10.00">memoryoracle.whip.WhipDecorator.name</text>
</a>
</g>
</g>
<!-- Node6&#45;&gt;Node13 -->
<g id="edge12" class="edge"><title>Node6&#45;&gt;Node13</title>
<path fill="none" stroke="midnightblue" d="M352.046,-418.046C376.693,-432.487 416.191,-453.847 453,-466 461.573,-468.831 470.672,-471.262 479.815,-473.346"/>
<polygon fill="midnightblue" stroke="midnightblue" points="479.219,-476.798 489.731,-475.473 480.687,-469.954 479.219,-476.798"/>
</g>
<!-- Node14 -->
<g id="node14" class="node"><title>Node14</title>
<g id="a_node14"><a xlink:href="classmemoryoracle_1_1whip_1_1SugarDecorator.html#a03f5ae1d7fc30514bedc3997dbfb577c" target="_top" xlink:title="memoryoracle.whip.SugarDecorator.name">
<polygon fill="none" stroke="black" points="453,-437.5 453,-456.5 673,-456.5 673,-437.5 453,-437.5"/>
<text text-anchor="middle" x="563" y="-444.5" font-family="Helvetica,sans-Serif" font-size="10.00">memoryoracle.whip.SugarDecorator.name</text>
</a>
</g>
</g>
<!-- Node6&#45;&gt;Node14 -->
<g id="edge13" class="edge"><title>Node6&#45;&gt;Node14</title>
<path fill="none" stroke="midnightblue" d="M405.476,-418.006C421.205,-421.006 437.628,-424.12 453,-427 468.125,-429.834 484.438,-432.849 499.721,-435.656"/>
<polygon fill="midnightblue" stroke="midnightblue" points="499.125,-439.105 509.593,-437.466 500.388,-432.22 499.125,-439.105"/>
</g>
<!-- Node15 -->
<g id="node15" class="node"><title>Node15</title>
<g id="a_node15"><a xlink:href="namespacememoryoracle_1_1instance.html#ac651a8635b1ae2ee7e788bf9adb17a0b" target="_top" xlink:title="memoryoracle.instance.addressable\l_factory">
<polygon fill="none" stroke="black" points="467.5,-563 467.5,-593 658.5,-593 658.5,-563 467.5,-563"/>
<text text-anchor="start" x="475.5" y="-581" font-family="Helvetica,sans-Serif" font-size="10.00">memoryoracle.instance.addressable</text>
<text text-anchor="middle" x="563" y="-570" font-family="Helvetica,sans-Serif" font-size="10.00">_factory</text>
</a>
</g>
</g>
<!-- Node6&#45;&gt;Node15 -->
<g id="edge15" class="edge"><title>Node6&#45;&gt;Node15</title>
<path fill="none" stroke="midnightblue" d="M335.599,-418.127C352.836,-448.773 396.256,-518.228 453,-553 456.585,-555.197 460.343,-557.201 464.22,-559.029"/>
<polygon fill="midnightblue" stroke="midnightblue" points="462.885,-562.265 473.456,-562.984 465.641,-555.83 462.885,-562.265"/>
</g>
<!-- Node16&#45;&gt;Node3 -->
<g id="edge18" class="edge"><title>Node16&#45;&gt;Node3</title>
<path fill="none" stroke="midnightblue" d="M405.557,-369.175C409.697,-371.694 413.56,-374.615 417,-378 458.517,-418.845 410.744,-463.92 453,-504 460.237,-510.864 468.959,-515.98 478.279,-519.773"/>
<polygon fill="midnightblue" stroke="midnightblue" points="477.17,-523.094 487.765,-523.141 479.512,-516.497 477.17,-523.094"/>
</g>
<!-- Node16&#45;&gt;Node4 -->
<g id="edge19" class="edge"><title>Node16&#45;&gt;Node4</title>
<path fill="none" stroke="midnightblue" d="M406.842,-369.243C410.554,-371.756 413.982,-374.656 417,-378 484.548,-452.863 394.366,-519.968 453,-602 468.488,-623.668 494.618,-637.966 517.412,-646.943"/>
<polygon fill="midnightblue" stroke="midnightblue" points="516.343,-650.279 526.936,-650.471 518.774,-643.715 516.343,-650.279"/>
</g>
<!-- Node16&#45;&gt;Node5 -->
<g id="edge20" class="edge"><title>Node16&#45;&gt;Node5</title>
<path fill="none" stroke="midnightblue" d="M406.609,-368.829C410.434,-371.439 413.945,-374.474 417,-378 505.222,-479.83 360.315,-581.215 453,-679 454.074,-680.133 455.189,-681.213 456.342,-682.242"/>
<polygon fill="midnightblue" stroke="midnightblue" points="454.362,-685.132 464.464,-688.326 458.559,-679.53 454.362,-685.132"/>
</g>
<!-- Node16&#45;&gt;Node7 -->
<g id="edge23" class="edge"><title>Node16&#45;&gt;Node7</title>
<path fill="none" stroke="midnightblue" d="M399.451,-369.035C424.999,-374.373 453.937,-380.42 480.244,-385.917"/>
<polygon fill="midnightblue" stroke="midnightblue" points="479.68,-389.374 490.185,-387.994 481.112,-382.522 479.68,-389.374"/>
</g>
<!-- Node16&#45;&gt;Node8 -->
<g id="edge26" class="edge"><title>Node16&#45;&gt;Node8</title>
<path fill="none" stroke="midnightblue" d="M406.564,-354C429.382,-354 454.365,-354 477.499,-354"/>
<polygon fill="midnightblue" stroke="midnightblue" points="477.635,-357.5 487.635,-354 477.635,-350.5 477.635,-357.5"/>
</g>
<!-- Node16&#45;&gt;Node9 -->
<g id="edge27" class="edge"><title>Node16&#45;&gt;Node9</title>
<path fill="none" stroke="midnightblue" d="M399.451,-338.965C424.999,-333.627 453.937,-327.58 480.244,-322.083"/>
<polygon fill="midnightblue" stroke="midnightblue" points="481.112,-325.478 490.185,-320.006 479.68,-318.626 481.112,-325.478"/>
</g>
<!-- Node16&#45;&gt;Node10 -->
<g id="edge28" class="edge"><title>Node16&#45;&gt;Node10</title>
<path fill="none" stroke="midnightblue" d="M348.205,-338.993C372.261,-322.242 413.691,-295.462 453,-280 458.545,-277.819 464.33,-275.816 470.219,-273.979"/>
<polygon fill="midnightblue" stroke="midnightblue" points="471.595,-277.222 480.201,-271.043 469.62,-270.507 471.595,-277.222"/>
</g>
<!-- Node16&#45;&gt;Node11 -->
<g id="edge24" class="edge"><title>Node16&#45;&gt;Node11</title>
<path fill="none" stroke="midnightblue" d="M337.94,-338.964C357.276,-312.395 401.425,-257.456 453,-231 457.583,-228.649 462.401,-226.583 467.356,-224.766"/>
<polygon fill="midnightblue" stroke="midnightblue" points="468.627,-228.032 477.025,-221.573 466.432,-221.385 468.627,-228.032"/>
</g>
<!-- Node16&#45;&gt;Node12 -->
<g id="edge21" class="edge"><title>Node16&#45;&gt;Node12</title>
<path fill="none" stroke="midnightblue" d="M334.642,-338.514C350.663,-305.676 392.836,-229.116 453,-193 457.107,-190.535 461.448,-188.369 465.939,-186.469"/>
<polygon fill="midnightblue" stroke="midnightblue" points="467.215,-189.728 475.34,-182.929 464.748,-183.177 467.215,-189.728"/>
</g>
<!-- Node16&#45;&gt;Node13 -->
<g id="edge22" class="edge"><title>Node16&#45;&gt;Node13</title>
<path fill="none" stroke="midnightblue" d="M404.282,-369.152C408.842,-371.67 413.137,-374.597 417,-378 448.707,-405.935 420.076,-439.51 453,-466 455.03,-467.633 457.15,-469.147 459.347,-470.548"/>
<polygon fill="midnightblue" stroke="midnightblue" points="457.714,-473.645 468.16,-475.419 461.1,-467.519 457.714,-473.645"/>
</g>
<!-- Node16&#45;&gt;Node14 -->
<g id="edge25" class="edge"><title>Node16&#45;&gt;Node14</title>
<path fill="none" stroke="midnightblue" d="M400.69,-369.066C406.433,-371.596 411.953,-374.55 417,-378 439.31,-393.249 430.094,-412.661 453,-427 457.067,-429.546 461.376,-431.785 465.841,-433.754"/>
<polygon fill="midnightblue" stroke="midnightblue" points="464.61,-437.031 475.198,-437.427 467.168,-430.515 464.61,-437.031"/>
</g>
<!-- Node16&#45;&gt;Node15 -->
<g id="edge17" class="edge"><title>Node16&#45;&gt;Node15</title>
<path fill="none" stroke="midnightblue" d="M406.267,-369.138C410.177,-371.671 413.8,-374.605 417,-378 471.465,-435.784 397.488,-496.221 453,-553 454.841,-554.883 456.792,-556.636 458.838,-558.269"/>
<polygon fill="midnightblue" stroke="midnightblue" points="456.934,-561.207 467.159,-563.984 460.898,-555.437 456.934,-561.207"/>
</g>
<!-- Node17 -->
<g id="node17" class="node"><title>Node17</title>
<g id="a_node17"><a xlink:href="classmemoryoracle_1_1descriptions_1_1InstanceDescription.html#a1f771d354e77a6725cc27559c8bfb52d" target="_top" xlink:title="memoryoracle.descriptions.\lInstanceDescription.object">
<polygon fill="none" stroke="black" points="729.5,-727 729.5,-757 879.5,-757 879.5,-727 729.5,-727"/>
<text text-anchor="start" x="737.5" y="-745" font-family="Helvetica,sans-Serif" font-size="10.00">memoryoracle.descriptions.</text>
<text text-anchor="middle" x="804.5" y="-734" font-family="Helvetica,sans-Serif" font-size="10.00">InstanceDescription.object</text>
</a>
</g>
</g>
<!-- Node16&#45;&gt;Node17 -->
<g id="edge29" class="edge"><title>Node16&#45;&gt;Node17</title>
<path fill="none" stroke="midnightblue" d="M328.629,-338.853C333.242,-289.195 355.382,-130.857 453,-67 493.913,-40.237 635.292,-35.8838 673,-67 776.015,-152.006 798.65,-604.249 802.715,-716.68"/>
<polygon fill="midnightblue" stroke="midnightblue" points="799.22,-716.882 803.061,-726.755 806.215,-716.641 799.22,-716.882"/>
</g>
<!-- Node18 -->
<g id="node18" class="node"><title>Node18</title>
<g id="a_node18"><a xlink:href="namespacememoryoracle_1_1instance.html#a4b8eb263a612b709be51201fc0fa7b6c" target="_top" xlink:title="memoryoracle.instance.target\l_type_name">
<polygon fill="none" stroke="black" points="482,-115 482,-145 644,-145 644,-115 482,-115"/>
<text text-anchor="start" x="490" y="-133" font-family="Helvetica,sans-Serif" font-size="10.00">memoryoracle.instance.target</text>
<text text-anchor="middle" x="563" y="-122" font-family="Helvetica,sans-Serif" font-size="10.00">_type_name</text>
</a>
</g>
</g>
<!-- Node16&#45;&gt;Node18 -->
<g id="edge30" class="edge"><title>Node16&#45;&gt;Node18</title>
<path fill="none" stroke="midnightblue" d="M332.421,-338.946C345.501,-301.426 384.863,-203.315 453,-155 458.934,-150.792 465.466,-147.281 472.294,-144.351"/>
<polygon fill="midnightblue" stroke="midnightblue" points="473.685,-147.567 481.76,-140.708 471.17,-141.034 473.685,-147.567"/>
</g>
<!-- Node19 -->
<g id="node19" class="node"><title>Node19</title>
<g id="a_node19"><a xlink:href="classmemoryoracle_1_1typed_1_1Typed.html#a6443347ad281d74f97dd6880d2267ee3" target="_top" xlink:title="memoryoracle.typed.Typed.type">
<polygon fill="none" stroke="black" points="478,-76.5 478,-95.5 648,-95.5 648,-76.5 478,-76.5"/>
<text text-anchor="middle" x="563" y="-83.5" font-family="Helvetica,sans-Serif" font-size="10.00">memoryoracle.typed.Typed.type</text>
</a>
</g>
</g>
<!-- Node16&#45;&gt;Node19 -->
<g id="edge31" class="edge"><title>Node16&#45;&gt;Node19</title>
<path fill="none" stroke="midnightblue" d="M330.228,-338.952C339.055,-294.936 371.159,-165.713 453,-105 457.744,-101.481 462.921,-98.5328 468.358,-96.0697"/>
<polygon fill="midnightblue" stroke="midnightblue" points="469.712,-99.2983 477.725,-92.367 467.138,-92.7885 469.712,-99.2983"/>
</g>
<!-- Node20 -->
<g id="node20" class="node"><title>Node20</title>
<g id="a_node20"><a xlink:href="classmemoryoracle_1_1frame_1_1Frame.html#ad9f0207e267a432373b45b1d62e542ef" target="_top" xlink:title="memoryoracle.frame.Frame.type">
<polygon fill="none" stroke="black" points="475.5,-0.5 475.5,-19.5 650.5,-19.5 650.5,-0.5 475.5,-0.5"/>
<text text-anchor="middle" x="563" y="-7.5" font-family="Helvetica,sans-Serif" font-size="10.00">memoryoracle.frame.Frame.type</text>
</a>
</g>
</g>
<!-- Node16&#45;&gt;Node20 -->
<g id="edge32" class="edge"><title>Node16&#45;&gt;Node20</title>
<path fill="none" stroke="midnightblue" d="M328.587,-338.778C333.128,-287.186 355.214,-117.522 453,-34 457.625,-30.0496 462.755,-26.7071 468.196,-23.8829"/>
<polygon fill="midnightblue" stroke="midnightblue" points="469.957,-26.9272 477.613,-19.6034 467.06,-20.5545 469.957,-26.9272"/>
</g>
<!-- Node21&#45;&gt;Node4 -->
<g id="edge35" class="edge"><title>Node21&#45;&gt;Node4</title>
<path fill="none" stroke="midnightblue" d="M402.56,-775.881C407.761,-773.117 412.654,-769.853 417,-766 448.31,-738.237 420.344,-705.167 453,-679 456.553,-676.153 460.383,-673.67 464.407,-671.509"/>
<polygon fill="midnightblue" stroke="midnightblue" points="465.911,-674.669 473.497,-667.273 462.955,-668.324 465.911,-674.669"/>
</g>
<!-- Node21&#45;&gt;Node5 -->
<g id="edge36" class="edge"><title>Node21&#45;&gt;Node5</title>
<path fill="none" stroke="midnightblue" d="M398.878,-775.874C405.272,-773.114 411.426,-769.853 417,-766 439.23,-750.635 430.031,-731.237 453,-717 456.393,-714.897 459.953,-713.01 463.632,-711.318"/>
<polygon fill="midnightblue" stroke="midnightblue" points="465.051,-714.519 472.989,-707.502 462.408,-708.038 465.051,-714.519"/>
</g>
<!-- Node21&#45;&gt;Node17 -->
<g id="edge34" class="edge"><title>Node21&#45;&gt;Node17</title>
<path fill="none" stroke="midnightblue" d="M415.091,-787.319C485.09,-783.738 585.606,-777.164 673,-766 688.089,-764.072 704.077,-761.542 719.496,-758.849"/>
<polygon fill="midnightblue" stroke="midnightblue" points="720.301,-762.261 729.532,-757.06 719.072,-755.369 720.301,-762.261"/>
</g>
<!-- Node22 -->
<g id="node22" class="node"><title>Node22</title>
<g id="a_node22"><a xlink:href="classmemoryoracle_1_1instance_1_1Primitive.html#abc513cbf3d0938c0db133e9af0a6f5ea" target="_top" xlink:title="memoryoracle.instance.Primitive.val\l_string">
<polygon fill="none" stroke="black" points="709,-792 709,-822 900,-822 900,-792 709,-792"/>
<text text-anchor="start" x="717" y="-810" font-family="Helvetica,sans-Serif" font-size="10.00">memoryoracle.instance.Primitive.val</text>
<text text-anchor="middle" x="804.5" y="-799" font-family="Helvetica,sans-Serif" font-size="10.00">_string</text>
</a>
</g>
</g>
<!-- Node21&#45;&gt;Node22 -->
<g id="edge37" class="edge"><title>Node21&#45;&gt;Node22</title>
<path fill="none" stroke="midnightblue" d="M358.332,-806.107C383.209,-817.412 419.461,-831.926 453,-838 549.213,-855.425 575.886,-849.376 673,-838 696.065,-835.298 720.964,-829.997 742.768,-824.531"/>
<polygon fill="midnightblue" stroke="midnightblue" points="743.736,-827.896 752.55,-822.018 741.993,-821.117 743.736,-827.896"/>
</g>
<!-- Node23 -->
<g id="node23" class="node"><title>Node23</title>
<g id="a_node23"><a xlink:href="classmemoryoracle_1_1descriptions_1_1InstanceDescription.html#ac4d8f16a2b5761e93508cb4ff73b654c" target="_top" xlink:title="memoryoracle.descriptions.\lInstanceDescription.frame">
<polygon fill="none" stroke="black" points="936.5,-817 936.5,-847 1086.5,-847 1086.5,-817 936.5,-817"/>
<text text-anchor="start" x="944.5" y="-835" font-family="Helvetica,sans-Serif" font-size="10.00">memoryoracle.descriptions.</text>
<text text-anchor="middle" x="1011.5" y="-824" font-family="Helvetica,sans-Serif" font-size="10.00">InstanceDescription.frame</text>
</a>
</g>
</g>
<!-- Node22&#45;&gt;Node23 -->
<g id="edge38" class="edge"><title>Node22&#45;&gt;Node23</title>
<path fill="none" stroke="midnightblue" d="M900.199,-818.549C908.946,-819.615 917.769,-820.691 926.411,-821.745"/>
<polygon fill="midnightblue" stroke="midnightblue" points="926.108,-825.234 936.459,-822.971 926.956,-818.286 926.108,-825.234"/>
</g>
<!-- Node24 -->
<g id="node24" class="node"><title>Node24</title>
<g id="a_node24"><a xlink:href="classmemoryoracle_1_1frame_1_1FrameSelector.html#a20efcc94b4e8fcff6836bf82f3557af9" target="_top" xlink:title="memoryoracle.frame.Frame\lSelector.frame">
<polygon fill="none" stroke="black" points="936,-768 936,-798 1087,-798 1087,-768 936,-768"/>
<text text-anchor="start" x="944" y="-786" font-family="Helvetica,sans-Serif" font-size="10.00">memoryoracle.frame.Frame</text>
<text text-anchor="middle" x="1011.5" y="-775" font-family="Helvetica,sans-Serif" font-size="10.00">Selector.frame</text>
</a>
</g>
</g>
<!-- Node22&#45;&gt;Node24 -->
<g id="edge39" class="edge"><title>Node22&#45;&gt;Node24</title>
<path fill="none" stroke="midnightblue" d="M900.199,-795.913C908.702,-794.918 917.276,-793.914 925.687,-792.929"/>
<polygon fill="midnightblue" stroke="midnightblue" points="926.324,-796.379 935.849,-791.74 925.51,-789.426 926.324,-796.379"/>
</g>
<!-- Node25&#45;&gt;Node3 -->
<g id="edge44" class="edge"><title>Node25&#45;&gt;Node3</title>
<path fill="none" stroke="midnightblue" d="M411.167,-553.442C432.741,-549.946 455.973,-546.181 477.585,-542.679"/>
<polygon fill="midnightblue" stroke="midnightblue" points="478.407,-546.092 487.718,-541.037 477.287,-539.182 478.407,-546.092"/>
</g>
<!-- Node25&#45;&gt;Node4 -->
<g id="edge42" class="edge"><title>Node25&#45;&gt;Node4</title>
<path fill="none" stroke="midnightblue" d="M400.082,-582.098C406.02,-584.623 411.749,-587.567 417,-591 438.438,-605.015 431.251,-622.473 453,-636 460.412,-640.61 468.591,-644.34 477.037,-647.359"/>
<polygon fill="midnightblue" stroke="midnightblue" points="476.067,-650.724 486.659,-650.472 478.222,-644.063 476.067,-650.724"/>
</g>
<!-- Node25&#45;&gt;Node5 -->
<g id="edge43" class="edge"><title>Node25&#45;&gt;Node5</title>
<path fill="none" stroke="midnightblue" d="M404.282,-582.152C408.842,-584.67 413.137,-587.597 417,-591 448.707,-618.935 420.076,-652.51 453,-679 455.03,-680.633 457.15,-682.147 459.347,-683.548"/>
<polygon fill="midnightblue" stroke="midnightblue" points="457.714,-686.645 468.16,-688.419 461.1,-680.519 457.714,-686.645"/>
</g>
<!-- Node25&#45;&gt;Node15 -->
<g id="edge45" class="edge"><title>Node25&#45;&gt;Node15</title>
<path fill="none" stroke="midnightblue" d="M411.167,-570.925C426.057,-571.623 441.736,-572.359 457.127,-573.081"/>
<polygon fill="midnightblue" stroke="midnightblue" points="457.036,-576.58 467.189,-573.553 457.364,-569.588 457.036,-576.58"/>
</g>
<!-- Node25&#45;&gt;Node22 -->
<g id="edge41" class="edge"><title>Node25&#45;&gt;Node22</title>
<path fill="none" stroke="midnightblue" d="M384.876,-582.07C395.571,-584.969 406.639,-588.029 417,-591 433.082,-595.612 436.733,-598.088 453,-602 549.55,-625.218 599.196,-574.563 673,-641 715.969,-679.68 670.838,-722.571 709,-766 716.839,-774.921 726.97,-781.973 737.676,-787.525"/>
<polygon fill="midnightblue" stroke="midnightblue" points="736.233,-790.714 746.767,-791.844 739.237,-784.391 736.233,-790.714"/>
</g>
<!-- Node26&#45;&gt;Node4 -->
<g id="edge51" class="edge"><title>Node26&#45;&gt;Node4</title>
<path fill="none" stroke="midnightblue" d="M352.046,-726.954C376.693,-712.513 416.191,-691.153 453,-679 461.573,-676.169 470.672,-673.738 479.815,-671.654"/>
<polygon fill="midnightblue" stroke="midnightblue" points="480.687,-675.046 489.731,-669.527 479.219,-668.202 480.687,-675.046"/>
</g>
<!-- Node26&#45;&gt;Node5 -->
<g id="edge52" class="edge"><title>Node26&#45;&gt;Node5</title>
<path fill="none" stroke="midnightblue" d="M400.773,-727.096C417.896,-723.698 436.075,-720.16 453,-717 466.827,-714.418 481.662,-711.759 495.797,-709.277"/>
<polygon fill="midnightblue" stroke="midnightblue" points="496.693,-712.674 505.942,-707.506 495.489,-705.778 496.693,-712.674"/>
</g>
<!-- Node26&#45;&gt;Node15 -->
<g id="edge50" class="edge"><title>Node26&#45;&gt;Node15</title>
<path fill="none" stroke="midnightblue" d="M344.713,-726.728C368.306,-706.131 412.398,-668.828 453,-641 475.874,-625.322 502.848,-609.71 524.24,-597.949"/>
<polygon fill="midnightblue" stroke="midnightblue" points="525.931,-601.014 533.038,-593.156 522.582,-594.867 525.931,-601.014"/>
</g>
<!-- Node26&#45;&gt;Node22 -->
<g id="edge53" class="edge"><title>Node26&#45;&gt;Node22</title>
<path fill="none" stroke="midnightblue" d="M400.675,-756.919C417.803,-760.154 436.008,-763.385 453,-766 535.243,-778.657 628.877,-789.424 698.666,-796.745"/>
<polygon fill="midnightblue" stroke="midnightblue" points="698.476,-800.244 708.785,-797.799 699.202,-793.281 698.476,-800.244"/>
</g>
<!-- Node27 -->
<g id="node27" class="node"><title>Node27</title>
<g id="a_node27"><a xlink:href="classmemoryoracle_1_1instance_1_1Int.html#a450a73bc8aaf1a7ac5f18c3ed1a933fc" target="_top" xlink:title="memoryoracle.instance.Int.\l_find_hidden_type">
<polygon fill="none" stroke="black" points="489,-727 489,-757 637,-757 637,-727 489,-727"/>
<text text-anchor="start" x="497" y="-745" font-family="Helvetica,sans-Serif" font-size="10.00">memoryoracle.instance.Int.</text>
<text text-anchor="middle" x="563" y="-734" font-family="Helvetica,sans-Serif" font-size="10.00">_find_hidden_type</text>
</a>
</g>
</g>
<!-- Node26&#45;&gt;Node27 -->
<g id="edge47" class="edge"><title>Node26&#45;&gt;Node27</title>
<path fill="none" stroke="midnightblue" d="M400.733,-742C425.528,-742 453.395,-742 478.9,-742"/>
<polygon fill="midnightblue" stroke="midnightblue" points="478.92,-745.5 488.92,-742 478.92,-738.5 478.92,-745.5"/>
</g>
<!-- Node27&#45;&gt;Node17 -->
<g id="edge48" class="edge"><title>Node27&#45;&gt;Node17</title>
<path fill="none" stroke="midnightblue" d="M637.159,-742C663.019,-742 692.313,-742 719.034,-742"/>
<polygon fill="midnightblue" stroke="midnightblue" points="719.136,-745.5 729.136,-742 719.136,-738.5 719.136,-745.5"/>
</g>
<!-- Node27&#45;&gt;Node22 -->
<g id="edge49" class="edge"><title>Node27&#45;&gt;Node22</title>
<path fill="none" stroke="midnightblue" d="M619.548,-757.076C654.939,-766.681 700.952,-779.169 738.105,-789.252"/>
<polygon fill="midnightblue" stroke="midnightblue" points="737.271,-792.652 747.839,-791.894 739.105,-785.896 737.271,-792.652"/>
</g>
</g>
</svg>
