<?xml version="1.0" encoding="UTF-8" standalone="no"?>
<!DOCTYPE svg PUBLIC "-//W3C//DTD SVG 1.1//EN"
 "http://www.w3.org/Graphics/SVG/1.1/DTD/svg11.dtd">
<!-- Generated by graphviz version 2.38.0 (20140413.2041)
 -->
<!-- Title: Graphical Class Hierarchy Pages: 1 -->
<svg width="775pt" height="446pt"
 viewBox="0.00 0.00 775.00 446.00" xmlns="http://www.w3.org/2000/svg" xmlns:xlink="http://www.w3.org/1999/xlink">
<g id="graph0" class="graph" transform="scale(1 1) rotate(0) translate(4 442)">
<title>Graphical Class Hierarchy</title>
<!-- Node1 -->
<g id="node1" class="node"><title>Node1</title>
<polygon fill="none" stroke="#bfbfbf" points="0,-209.5 0,-228.5 62,-228.5 62,-209.5 0,-209.5"/>
<text text-anchor="middle" x="31" y="-216.5" font-family="Helvetica,sans-Serif" font-size="10.00">Structure</text>
</g>
<!-- Node2 -->
<g id="node2" class="node"><title>Node2</title>
<g id="a_node2"><a xlink:href="classmemoryoracle_1_1container_1_1Container.html" target="_top" xlink:title="memoryoracle.container.Container">
<polygon fill="none" stroke="black" points="98,-209.5 98,-228.5 281,-228.5 281,-209.5 98,-209.5"/>
<text text-anchor="middle" x="189.5" y="-216.5" font-family="Helvetica,sans-Serif" font-size="10.00">memoryoracle.container.Container</text>
</a>
</g>
</g>
<!-- Node1&#45;&gt;Node2 -->
<g id="edge1" class="edge"><title>Node1&#45;&gt;Node2</title>
<path fill="none" stroke="midnightblue" d="M72.2381,-219C80.2299,-219 88.9205,-219 97.8315,-219"/>
<polygon fill="midnightblue" stroke="midnightblue" points="72.1748,-215.5 62.1748,-219 72.1747,-222.5 72.1748,-215.5"/>
</g>
<!-- Node3 -->
<g id="node3" class="node"><title>Node3</title>
<g id="a_node3"><a xlink:href="classmemoryoracle_1_1container_1_1SLContainer.html" target="_top" xlink:title="memoryoracle.container.SLContainer">
<polygon fill="none" stroke="black" points="317,-209.5 317,-228.5 512,-228.5 512,-209.5 317,-209.5"/>
<text text-anchor="middle" x="414.5" y="-216.5" font-family="Helvetica,sans-Serif" font-size="10.00">memoryoracle.container.SLContainer</text>
</a>
</g>
</g>
<!-- Node2&#45;&gt;Node3 -->
<g id="edge2" class="edge"><title>Node2&#45;&gt;Node3</title>
<path fill="none" stroke="midnightblue" d="M291.412,-219C299.826,-219 308.32,-219 316.702,-219"/>
<polygon fill="midnightblue" stroke="midnightblue" points="291.203,-215.5 281.203,-219 291.203,-222.5 291.203,-215.5"/>
</g>
<!-- Node4 -->
<g id="node4" class="node"><title>Node4</title>
<g id="a_node4"><a xlink:href="classmemoryoracle_1_1container_1_1SLArray.html" target="_top" xlink:title="memoryoracle.container.SLArray">
<polygon fill="none" stroke="black" points="570.5,-418.5 570.5,-437.5 744.5,-437.5 744.5,-418.5 570.5,-418.5"/>
<text text-anchor="middle" x="657.5" y="-425.5" font-family="Helvetica,sans-Serif" font-size="10.00">memoryoracle.container.SLArray</text>
</a>
</g>
</g>
<!-- Node3&#45;&gt;Node4 -->
<g id="edge3" class="edge"><title>Node3&#45;&gt;Node4</title>
<path fill="none" stroke="midnightblue" d="M422.964,-238.419C439.165,-277.737 481.529,-366.619 548,-409 554.853,-413.369 562.421,-416.812 570.278,-419.514"/>
<polygon fill="midnightblue" stroke="midnightblue" points="426.132,-236.914 419.169,-228.928 419.632,-239.513 426.132,-236.914"/>
</g>
<!-- Node5 -->
<g id="node5" class="node"><title>Node5</title>
<g id="a_node5"><a xlink:href="classmemoryoracle_1_1container_1_1SLBitset.html" target="_top" xlink:title="memoryoracle.container.SLBitset">
<polygon fill="none" stroke="black" points="569.5,-380.5 569.5,-399.5 745.5,-399.5 745.5,-380.5 569.5,-380.5"/>
<text text-anchor="middle" x="657.5" y="-387.5" font-family="Helvetica,sans-Serif" font-size="10.00">memoryoracle.container.SLBitset</text>
</a>
</g>
</g>
<!-- Node3&#45;&gt;Node5 -->
<g id="edge4" class="edge"><title>Node3&#45;&gt;Node5</title>
<path fill="none" stroke="midnightblue" d="M426.01,-237.892C445.423,-270.846 490.248,-338.423 548,-371 554.829,-374.852 562.254,-377.958 569.908,-380.457"/>
<polygon fill="midnightblue" stroke="midnightblue" points="428.832,-235.78 420.814,-228.854 422.763,-239.268 428.832,-235.78"/>
</g>
<!-- Node6 -->
<g id="node6" class="node"><title>Node6</title>
<g id="a_node6"><a xlink:href="classmemoryoracle_1_1container_1_1SLDeque.html" target="_top" xlink:title="memoryoracle.container.SLDeque">
<polygon fill="none" stroke="black" points="567.5,-342.5 567.5,-361.5 747.5,-361.5 747.5,-342.5 567.5,-342.5"/>
<text text-anchor="middle" x="657.5" y="-349.5" font-family="Helvetica,sans-Serif" font-size="10.00">memoryoracle.container.SLDeque</text>
</a>
</g>
</g>
<!-- Node3&#45;&gt;Node6 -->
<g id="edge5" class="edge"><title>Node3&#45;&gt;Node6</title>
<path fill="none" stroke="midnightblue" d="M429.99,-236.367C452.428,-261.995 498.218,-309.446 548,-333 556.211,-336.885 565.11,-339.982 574.16,-342.451"/>
<polygon fill="midnightblue" stroke="midnightblue" points="432.473,-233.886 423.303,-228.578 427.161,-238.445 432.473,-233.886"/>
</g>
<!-- Node7 -->
<g id="node7" class="node"><title>Node7</title>
<g id="a_node7"><a xlink:href="classmemoryoracle_1_1container_1_1SLForwardList.html" target="_top" xlink:title="memoryoracle.container.SLForwardList">
<polygon fill="none" stroke="black" points="556,-304.5 556,-323.5 759,-323.5 759,-304.5 556,-304.5"/>
<text text-anchor="middle" x="657.5" y="-311.5" font-family="Helvetica,sans-Serif" font-size="10.00">memoryoracle.container.SLForwardList</text>
</a>
</g>
</g>
<!-- Node3&#45;&gt;Node7 -->
<g id="edge6" class="edge"><title>Node3&#45;&gt;Node7</title>
<path fill="none" stroke="midnightblue" d="M437.109,-234.571C462.428,-252.039 506.245,-279.897 548,-295 558.7,-298.87 570.287,-301.968 581.772,-304.443"/>
<polygon fill="midnightblue" stroke="midnightblue" points="438.854,-231.52 428.656,-228.649 434.838,-237.253 438.854,-231.52"/>
</g>
<!-- Node8 -->
<g id="node8" class="node"><title>Node8</title>
<g id="a_node8"><a xlink:href="classmemoryoracle_1_1container_1_1SLList.html" target="_top" xlink:title="memoryoracle.container.SLList">
<polygon fill="none" stroke="black" points="575,-266.5 575,-285.5 740,-285.5 740,-266.5 575,-266.5"/>
<text text-anchor="middle" x="657.5" y="-273.5" font-family="Helvetica,sans-Serif" font-size="10.00">memoryoracle.container.SLList</text>
</a>
</g>
</g>
<!-- Node3&#45;&gt;Node8 -->
<g id="edge7" class="edge"><title>Node3&#45;&gt;Node8</title>
<path fill="none" stroke="midnightblue" d="M454.833,-231.466C481.044,-239.479 516.362,-249.715 548,-257 563.281,-260.519 579.905,-263.733 595.444,-266.476"/>
<polygon fill="midnightblue" stroke="midnightblue" points="455.847,-228.116 445.26,-228.514 453.785,-234.805 455.847,-228.116"/>
</g>
<!-- Node9 -->
<g id="node9" class="node"><title>Node9</title>
<g id="a_node9"><a xlink:href="classmemoryoracle_1_1container_1_1SLMap.html" target="_top" xlink:title="memoryoracle.container.SLMap">
<polygon fill="none" stroke="black" points="573,-228.5 573,-247.5 742,-247.5 742,-228.5 573,-228.5"/>
<text text-anchor="middle" x="657.5" y="-235.5" font-family="Helvetica,sans-Serif" font-size="10.00">memoryoracle.container.SLMap</text>
</a>
</g>
</g>
<!-- Node3&#45;&gt;Node9 -->
<g id="edge8" class="edge"><title>Node3&#45;&gt;Node9</title>
<path fill="none" stroke="midnightblue" d="M522.536,-227.438C539.332,-228.763 556.481,-230.115 572.657,-231.39"/>
<polygon fill="midnightblue" stroke="midnightblue" points="522.379,-223.915 512.135,-226.619 521.829,-230.894 522.379,-223.915"/>
</g>
<!-- Node10 -->
<g id="node10" class="node"><title>Node10</title>
<g id="a_node10"><a xlink:href="classmemoryoracle_1_1container_1_1SLQueue.html" target="_top" xlink:title="memoryoracle.container.SLQueue">
<polygon fill="none" stroke="black" points="567.5,-190.5 567.5,-209.5 747.5,-209.5 747.5,-190.5 567.5,-190.5"/>
<text text-anchor="middle" x="657.5" y="-197.5" font-family="Helvetica,sans-Serif" font-size="10.00">memoryoracle.container.SLQueue</text>
</a>
</g>
</g>
<!-- Node3&#45;&gt;Node10 -->
<g id="edge9" class="edge"><title>Node3&#45;&gt;Node10</title>
<path fill="none" stroke="midnightblue" d="M522.442,-210.569C537.413,-209.389 552.665,-208.186 567.261,-207.035"/>
<polygon fill="midnightblue" stroke="midnightblue" points="521.829,-207.106 512.135,-211.381 522.379,-214.085 521.829,-207.106"/>
</g>
<!-- Node11 -->
<g id="node11" class="node"><title>Node11</title>
<g id="a_node11"><a xlink:href="classmemoryoracle_1_1container_1_1SLSet.html" target="_top" xlink:title="memoryoracle.container.SLSet">
<polygon fill="none" stroke="black" points="575,-152.5 575,-171.5 740,-171.5 740,-152.5 575,-152.5"/>
<text text-anchor="middle" x="657.5" y="-159.5" font-family="Helvetica,sans-Serif" font-size="10.00">memoryoracle.container.SLSet</text>
</a>
</g>
</g>
<!-- Node3&#45;&gt;Node11 -->
<g id="edge10" class="edge"><title>Node3&#45;&gt;Node11</title>
<path fill="none" stroke="midnightblue" d="M454.833,-206.534C481.044,-198.521 516.362,-188.285 548,-181 563.281,-177.481 579.905,-174.267 595.444,-171.524"/>
<polygon fill="midnightblue" stroke="midnightblue" points="453.785,-203.195 445.26,-209.486 455.847,-209.884 453.785,-203.195"/>
</g>
<!-- Node12 -->
<g id="node12" class="node"><title>Node12</title>
<g id="a_node12"><a xlink:href="classmemoryoracle_1_1container_1_1SLStack.html" target="_top" xlink:title="memoryoracle.container.SLStack">
<polygon fill="none" stroke="black" points="569.5,-114.5 569.5,-133.5 745.5,-133.5 745.5,-114.5 569.5,-114.5"/>
<text text-anchor="middle" x="657.5" y="-121.5" font-family="Helvetica,sans-Serif" font-size="10.00">memoryoracle.container.SLStack</text>
</a>
</g>
</g>
<!-- Node3&#45;&gt;Node12 -->
<g id="edge11" class="edge"><title>Node3&#45;&gt;Node12</title>
<path fill="none" stroke="midnightblue" d="M437.109,-203.429C462.428,-185.961 506.245,-158.103 548,-143 558.7,-139.13 570.287,-136.032 581.772,-133.557"/>
<polygon fill="midnightblue" stroke="midnightblue" points="434.838,-200.747 428.656,-209.351 438.854,-206.48 434.838,-200.747"/>
</g>
<!-- Node13 -->
<g id="node13" class="node"><title>Node13</title>
<g id="a_node13"><a xlink:href="classmemoryoracle_1_1container_1_1SLUnorderedMap.html" target="_top" xlink:title="memoryoracle.container.SLUnorderedMap">
<polygon fill="none" stroke="black" points="548,-76.5 548,-95.5 767,-95.5 767,-76.5 548,-76.5"/>
<text text-anchor="middle" x="657.5" y="-83.5" font-family="Helvetica,sans-Serif" font-size="10.00">memoryoracle.container.SLUnorderedMap</text>
</a>
</g>
</g>
<!-- Node3&#45;&gt;Node13 -->
<g id="edge12" class="edge"><title>Node3&#45;&gt;Node13</title>
<path fill="none" stroke="midnightblue" d="M429.99,-201.633C452.428,-176.005 498.218,-128.554 548,-105 556.211,-101.115 565.11,-98.0178 574.16,-95.5495"/>
<polygon fill="midnightblue" stroke="midnightblue" points="427.161,-199.555 423.303,-209.422 432.473,-204.114 427.161,-199.555"/>
</g>
<!-- Node14 -->
<g id="node14" class="node"><title>Node14</title>
<g id="a_node14"><a xlink:href="classmemoryoracle_1_1container_1_1SLUnorderedSet.html" target="_top" xlink:title="memoryoracle.container.SLUnorderedSet">
<polygon fill="none" stroke="black" points="550,-38.5 550,-57.5 765,-57.5 765,-38.5 550,-38.5"/>
<text text-anchor="middle" x="657.5" y="-45.5" font-family="Helvetica,sans-Serif" font-size="10.00">memoryoracle.container.SLUnorderedSet</text>
</a>
</g>
</g>
<!-- Node3&#45;&gt;Node14 -->
<g id="edge13" class="edge"><title>Node3&#45;&gt;Node14</title>
<path fill="none" stroke="midnightblue" d="M426.01,-200.108C445.423,-167.154 490.248,-99.5772 548,-67 554.829,-63.1478 562.254,-60.0422 569.908,-57.5428"/>
<polygon fill="midnightblue" stroke="midnightblue" points="422.763,-198.732 420.814,-209.146 428.832,-202.22 422.763,-198.732"/>
</g>
<!-- Node15 -->
<g id="node15" class="node"><title>Node15</title>
<g id="a_node15"><a xlink:href="classmemoryoracle_1_1container_1_1SLVector.html" target="_top" xlink:title="memoryoracle.container.SLVector">
<polygon fill="none" stroke="black" points="568,-0.5 568,-19.5 747,-19.5 747,-0.5 568,-0.5"/>
<text text-anchor="middle" x="657.5" y="-7.5" font-family="Helvetica,sans-Serif" font-size="10.00">memoryoracle.container.SLVector</text>
</a>
</g>
</g>
<!-- Node3&#45;&gt;Node15 -->
<g id="edge14" class="edge"><title>Node3&#45;&gt;Node15</title>
<path fill="none" stroke="midnightblue" d="M422.964,-199.581C439.165,-160.263 481.529,-71.3809 548,-29 554.127,-25.0932 560.826,-21.9277 567.792,-19.3693"/>
<polygon fill="midnightblue" stroke="midnightblue" points="419.632,-198.487 419.169,-209.072 426.132,-201.086 419.632,-198.487"/>
</g>
</g>
</svg>
