<?xml version="1.0" encoding="UTF-8" standalone="no"?>
<!DOCTYPE svg PUBLIC "-//W3C//DTD SVG 1.1//EN"
 "http://www.w3.org/Graphics/SVG/1.1/DTD/svg11.dtd">
<!-- Generated by graphviz version 2.38.0 (20140413.2041)
 -->
<!-- Title: Graphical Class Hierarchy Pages: 1 -->
<svg width="685pt" height="275pt"
 viewBox="0.00 0.00 685.00 275.00" xmlns="http://www.w3.org/2000/svg" xmlns:xlink="http://www.w3.org/1999/xlink">
<g id="graph0" class="graph" transform="scale(1 1) rotate(0) translate(4 271)">
<title>Graphical Class Hierarchy</title>
<!-- Node1 -->
<g id="node1" class="node"><title>Node1</title>
<polygon fill="none" stroke="#bfbfbf" points="0,-133.5 0,-152.5 45,-152.5 45,-133.5 0,-133.5"/>
<text text-anchor="middle" x="22.5" y="-140.5" font-family="Helvetica,sans-Serif" font-size="10.00">Model</text>
</g>
<!-- Node2 -->
<g id="node2" class="node"><title>Node2</title>
<g id="a_node2"><a xlink:href="classmemoryoracle_1_1models_1_1Tracked.html" target="_top" xlink:title="memoryoracle.models.Tracked">
<polygon fill="none" stroke="black" points="81,-133.5 81,-152.5 245,-152.5 245,-133.5 81,-133.5"/>
<text text-anchor="middle" x="163" y="-140.5" font-family="Helvetica,sans-Serif" font-size="10.00">memoryoracle.models.Tracked</text>
</a>
</g>
</g>
<!-- Node1&#45;&gt;Node2 -->
<g id="edge1" class="edge"><title>Node1&#45;&gt;Node2</title>
<path fill="none" stroke="midnightblue" d="M55.1716,-143C62.9879,-143 71.7203,-143 80.7329,-143"/>
<polygon fill="midnightblue" stroke="midnightblue" points="55.1407,-139.5 45.1406,-143 55.1406,-146.5 55.1407,-139.5"/>
</g>
<!-- Node3 -->
<g id="node3" class="node"><title>Node3</title>
<g id="a_node3"><a xlink:href="classmemoryoracle_1_1models_1_1Commit.html" target="_top" xlink:title="memoryoracle.models.Commit">
<polygon fill="none" stroke="black" points="290,-247.5 290,-266.5 456,-266.5 456,-247.5 290,-247.5"/>
<text text-anchor="middle" x="373" y="-254.5" font-family="Helvetica,sans-Serif" font-size="10.00">memoryoracle.models.Commit</text>
</a>
</g>
</g>
<!-- Node2&#45;&gt;Node3 -->
<g id="edge2" class="edge"><title>Node2&#45;&gt;Node3</title>
<path fill="none" stroke="midnightblue" d="M179.741,-160.054C200.701,-181.672 239.933,-218.47 281,-238 289.162,-241.882 298.108,-244.974 307.103,-247.437"/>
<polygon fill="midnightblue" stroke="midnightblue" points="182.062,-157.417 172.636,-152.58 176.989,-162.239 182.062,-157.417"/>
</g>
<!-- Node4 -->
<g id="node4" class="node"><title>Node4</title>
<g id="a_node4"><a xlink:href="classmemoryoracle_1_1models_1_1Executable.html" target="_top" xlink:title="memoryoracle.models.Executable">
<polygon fill="none" stroke="black" points="283,-209.5 283,-228.5 463,-228.5 463,-209.5 283,-209.5"/>
<text text-anchor="middle" x="373" y="-216.5" font-family="Helvetica,sans-Serif" font-size="10.00">memoryoracle.models.Executable</text>
</a>
</g>
</g>
<!-- Node2&#45;&gt;Node4 -->
<g id="edge3" class="edge"><title>Node2&#45;&gt;Node4</title>
<path fill="none" stroke="midnightblue" d="M189.328,-157.62C212.513,-170.444 248.118,-188.752 281,-200 291.995,-203.761 304.003,-206.909 315.586,-209.492"/>
<polygon fill="midnightblue" stroke="midnightblue" points="190.925,-154.503 180.491,-152.665 187.501,-160.609 190.925,-154.503"/>
</g>
<!-- Node5 -->
<g id="node5" class="node"><title>Node5</title>
<g id="a_node5"><a xlink:href="classmemoryoracle_1_1models_1_1Execution.html" target="_top" xlink:title="memoryoracle.models.Execution">
<polygon fill="none" stroke="black" points="286,-171.5 286,-190.5 460,-190.5 460,-171.5 286,-171.5"/>
<text text-anchor="middle" x="373" y="-178.5" font-family="Helvetica,sans-Serif" font-size="10.00">memoryoracle.models.Execution</text>
</a>
</g>
</g>
<!-- Node2&#45;&gt;Node5 -->
<g id="edge4" class="edge"><title>Node2&#45;&gt;Node5</title>
<path fill="none" stroke="midnightblue" d="M226.11,-154.347C255.953,-159.799 291.322,-166.261 319.76,-171.456"/>
<polygon fill="midnightblue" stroke="midnightblue" points="226.685,-150.894 216.219,-152.54 225.427,-157.78 226.685,-150.894"/>
</g>
<!-- Node6 -->
<g id="node6" class="node"><title>Node6</title>
<g id="a_node6"><a xlink:href="classmemoryoracle_1_1models_1_1Program.html" target="_top" xlink:title="memoryoracle.models.Program">
<polygon fill="none" stroke="black" points="288.5,-133.5 288.5,-152.5 457.5,-152.5 457.5,-133.5 288.5,-133.5"/>
<text text-anchor="middle" x="373" y="-140.5" font-family="Helvetica,sans-Serif" font-size="10.00">memoryoracle.models.Program</text>
</a>
</g>
</g>
<!-- Node2&#45;&gt;Node6 -->
<g id="edge5" class="edge"><title>Node2&#45;&gt;Node6</title>
<path fill="none" stroke="midnightblue" d="M255.125,-143C266.211,-143 277.495,-143 288.464,-143"/>
<polygon fill="midnightblue" stroke="midnightblue" points="255.014,-139.5 245.014,-143 255.014,-146.5 255.014,-139.5"/>
</g>
<!-- Node7 -->
<g id="node7" class="node"><title>Node7</title>
<g id="a_node7"><a xlink:href="classmemoryoracle_1_1models_1_1ProgramFile.html" target="_top" xlink:title="memoryoracle.models.ProgramFile">
<polygon fill="none" stroke="black" points="281,-95.5 281,-114.5 465,-114.5 465,-95.5 281,-95.5"/>
<text text-anchor="middle" x="373" y="-102.5" font-family="Helvetica,sans-Serif" font-size="10.00">memoryoracle.models.ProgramFile</text>
</a>
</g>
</g>
<!-- Node2&#45;&gt;Node7 -->
<g id="edge6" class="edge"><title>Node2&#45;&gt;Node7</title>
<path fill="none" stroke="midnightblue" d="M226.11,-131.653C255.953,-126.201 291.322,-119.739 319.76,-114.544"/>
<polygon fill="midnightblue" stroke="midnightblue" points="225.427,-128.22 216.219,-133.46 226.685,-135.106 225.427,-128.22"/>
</g>
<!-- Node10 -->
<g id="node10" class="node"><title>Node10</title>
<g id="a_node10"><a xlink:href="classmemoryoracle_1_1models_1_1Type.html" target="_top" xlink:title="memoryoracle.models.Type">
<polygon fill="none" stroke="black" points="298.5,-57.5 298.5,-76.5 447.5,-76.5 447.5,-57.5 298.5,-57.5"/>
<text text-anchor="middle" x="373" y="-64.5" font-family="Helvetica,sans-Serif" font-size="10.00">memoryoracle.models.Type</text>
</a>
</g>
</g>
<!-- Node2&#45;&gt;Node10 -->
<g id="edge9" class="edge"><title>Node2&#45;&gt;Node10</title>
<path fill="none" stroke="midnightblue" d="M189.328,-128.38C212.513,-115.556 248.118,-97.2478 281,-86 291.995,-82.2391 304.003,-79.0907 315.586,-76.5079"/>
<polygon fill="midnightblue" stroke="midnightblue" points="187.501,-125.391 180.491,-133.335 190.925,-131.497 187.501,-125.391"/>
</g>
<!-- Node11 -->
<g id="node11" class="node"><title>Node11</title>
<g id="a_node11"><a xlink:href="classmemoryoracle_1_1models_1_1Typed.html" target="_top" xlink:title="memoryoracle.models.Typed">
<polygon fill="none" stroke="black" points="295.5,-19.5 295.5,-38.5 450.5,-38.5 450.5,-19.5 295.5,-19.5"/>
<text text-anchor="middle" x="373" y="-26.5" font-family="Helvetica,sans-Serif" font-size="10.00">memoryoracle.models.Typed</text>
</a>
</g>
</g>
<!-- Node2&#45;&gt;Node11 -->
<g id="edge10" class="edge"><title>Node2&#45;&gt;Node11</title>
<path fill="none" stroke="midnightblue" d="M179.741,-125.946C200.701,-104.328 239.933,-67.5302 281,-48 289.162,-44.1184 298.108,-41.0258 307.103,-38.5628"/>
<polygon fill="midnightblue" stroke="midnightblue" points="176.989,-123.761 172.636,-133.42 182.062,-128.583 176.989,-123.761"/>
</g>
<!-- Node8 -->
<g id="node8" class="node"><title>Node8</title>
<g id="a_node8"><a xlink:href="classmemoryoracle_1_1models_1_1ObjectFile.html" target="_top" xlink:title="memoryoracle.models.ObjectFile">
<polygon fill="none" stroke="black" points="502.5,-123.5 502.5,-142.5 675.5,-142.5 675.5,-123.5 502.5,-123.5"/>
<text text-anchor="middle" x="589" y="-130.5" font-family="Helvetica,sans-Serif" font-size="10.00">memoryoracle.models.ObjectFile</text>
</a>
</g>
</g>
<!-- Node7&#45;&gt;Node8 -->
<g id="edge7" class="edge"><title>Node7&#45;&gt;Node8</title>
<path fill="none" stroke="midnightblue" d="M456.699,-115.82C475.946,-118.339 496.3,-121.002 515.089,-123.46"/>
<polygon fill="midnightblue" stroke="midnightblue" points="457.119,-112.346 446.749,-114.519 456.211,-119.286 457.119,-112.346"/>
</g>
<!-- Node9 -->
<g id="node9" class="node"><title>Node9</title>
<g id="a_node9"><a xlink:href="classmemoryoracle_1_1models_1_1SourceFile.html" target="_top" xlink:title="memoryoracle.models.SourceFile">
<polygon fill="none" stroke="black" points="501,-85.5 501,-104.5 677,-104.5 677,-85.5 501,-85.5"/>
<text text-anchor="middle" x="589" y="-92.5" font-family="Helvetica,sans-Serif" font-size="10.00">memoryoracle.models.SourceFile</text>
</a>
</g>
</g>
<!-- Node7&#45;&gt;Node9 -->
<g id="edge8" class="edge"><title>Node7&#45;&gt;Node9</title>
<path fill="none" stroke="midnightblue" d="M475.098,-100.276C483.675,-99.875 492.303,-99.4718 500.76,-99.0766"/>
<polygon fill="midnightblue" stroke="midnightblue" points="474.891,-96.7815 465.066,-100.745 475.218,-103.774 474.891,-96.7815"/>
</g>
<!-- Node12 -->
<g id="node12" class="node"><title>Node12</title>
<g id="a_node12"><a xlink:href="classmemoryoracle_1_1models_1_1Memory.html" target="_top" xlink:title="memoryoracle.models.Memory">
<polygon fill="none" stroke="black" points="505.5,-38.5 505.5,-57.5 672.5,-57.5 672.5,-38.5 505.5,-38.5"/>
<text text-anchor="middle" x="589" y="-45.5" font-family="Helvetica,sans-Serif" font-size="10.00">memoryoracle.models.Memory</text>
</a>
</g>
</g>
<!-- Node11&#45;&gt;Node12 -->
<g id="edge11" class="edge"><title>Node11&#45;&gt;Node12</title>
<path fill="none" stroke="midnightblue" d="M460.752,-36.7023C475.482,-38.0101 490.743,-39.365 505.362,-40.663"/>
<polygon fill="midnightblue" stroke="midnightblue" points="460.925,-33.2039 450.654,-35.8058 460.306,-40.1765 460.925,-33.2039"/>
</g>
<!-- Node13 -->
<g id="node13" class="node"><title>Node13</title>
<g id="a_node13"><a xlink:href="classmemoryoracle_1_1models_1_1Symbol.html" target="_top" xlink:title="memoryoracle.models.Symbol">
<polygon fill="none" stroke="black" points="507,-0.5 507,-19.5 671,-19.5 671,-0.5 507,-0.5"/>
<text text-anchor="middle" x="589" y="-7.5" font-family="Helvetica,sans-Serif" font-size="10.00">memoryoracle.models.Symbol</text>
</a>
</g>
</g>
<!-- Node11&#45;&gt;Node13 -->
<g id="edge12" class="edge"><title>Node11&#45;&gt;Node13</title>
<path fill="none" stroke="midnightblue" d="M461.028,-21.2732C476.162,-19.9295 491.849,-18.5367 506.819,-17.2076"/>
<polygon fill="midnightblue" stroke="midnightblue" points="460.306,-17.8235 450.654,-22.1942 460.925,-24.7961 460.306,-17.8235"/>
</g>
</g>
</svg>
