<?xml version="1.0" encoding="UTF-8" standalone="no"?>
<!DOCTYPE svg PUBLIC "-//W3C//DTD SVG 1.1//EN"
 "http://www.w3.org/Graphics/SVG/1.1/DTD/svg11.dtd">
<!-- Generated by graphviz version 2.38.0 (20140413.2041)
 -->
<!-- Title: Graphical Class Hierarchy Pages: 1 -->
<svg width="278pt" height="333pt"
 viewBox="0.00 0.00 278.00 333.00" xmlns="http://www.w3.org/2000/svg" xmlns:xlink="http://www.w3.org/1999/xlink">
<g id="graph0" class="graph" transform="scale(1 1) rotate(0) translate(4 329)">
<title>Graphical Class Hierarchy</title>
<!-- Node1 -->
<g id="node1" class="node"><title>Node1</title>
<polygon fill="none" stroke="#bfbfbf" points="0,-153 0,-172 61,-172 61,-153 0,-153"/>
<text text-anchor="middle" x="30.5" y="-160" font-family="Helvetica,sans-Serif" font-size="10.00">Migration</text>
</g>
<!-- Node2 -->
<g id="node2" class="node"><title>Node2</title>
<g id="a_node2"><a xlink:href="classmemoryoracle_1_1migrations_1_10001__initial_1_1Migration.html" target="_top" xlink:title="memoryoracle.migrations.0001\l_initial.Migration">
<polygon fill="none" stroke="black" points="100,-294.5 100,-324.5 267,-324.5 267,-294.5 100,-294.5"/>
<text text-anchor="start" x="108" y="-312.5" font-family="Helvetica,sans-Serif" font-size="10.00">memoryoracle.migrations.0001</text>
<text text-anchor="middle" x="183.5" y="-301.5" font-family="Helvetica,sans-Serif" font-size="10.00">_initial.Migration</text>
</a>
</g>
</g>
<!-- Node1&#45;&gt;Node2 -->
<g id="edge1" class="edge"><title>Node1&#45;&gt;Node2</title>
<path fill="none" stroke="midnightblue" d="M36.6349,-182.087C44.8011,-209.354 63.3701,-258.44 97,-285.5 101.324,-288.979 106.123,-291.955 111.178,-294.499"/>
<polygon fill="midnightblue" stroke="midnightblue" points="39.9224,-180.849 33.8398,-172.174 33.1851,-182.749 39.9224,-180.849"/>
</g>
<!-- Node3 -->
<g id="node3" class="node"><title>Node3</title>
<g id="a_node3"><a xlink:href="classmemoryoracle_1_1migrations_1_10002__auto__20150402__2000_1_1Migration.html" target="_top" xlink:title="memoryoracle.migrations.0002\l_auto_20150402_2000.Migration">
<polygon fill="none" stroke="black" points="97,-245.5 97,-275.5 270,-275.5 270,-245.5 97,-245.5"/>
<text text-anchor="start" x="105" y="-263.5" font-family="Helvetica,sans-Serif" font-size="10.00">memoryoracle.migrations.0002</text>
<text text-anchor="middle" x="183.5" y="-252.5" font-family="Helvetica,sans-Serif" font-size="10.00">_auto_20150402_2000.Migration</text>
</a>
</g>
</g>
<!-- Node1&#45;&gt;Node3 -->
<g id="edge2" class="edge"><title>Node1&#45;&gt;Node3</title>
<path fill="none" stroke="midnightblue" d="M42.8978,-180.47C54.519,-197.357 74.0637,-222.121 97,-236.5 102.486,-239.939 108.474,-242.896 114.651,-245.436"/>
<polygon fill="midnightblue" stroke="midnightblue" points="45.7321,-178.412 37.2856,-172.016 39.9001,-182.283 45.7321,-178.412"/>
</g>
<!-- Node4 -->
<g id="node4" class="node"><title>Node4</title>
<g id="a_node4"><a xlink:href="classmemoryoracle_1_1migrations_1_10003__auto__20150402__2000_1_1Migration.html" target="_top" xlink:title="memoryoracle.migrations.0003\l_auto_20150402_2000.Migration">
<polygon fill="none" stroke="black" points="97,-196.5 97,-226.5 270,-226.5 270,-196.5 97,-196.5"/>
<text text-anchor="start" x="105" y="-214.5" font-family="Helvetica,sans-Serif" font-size="10.00">memoryoracle.migrations.0003</text>
<text text-anchor="middle" x="183.5" y="-203.5" font-family="Helvetica,sans-Serif" font-size="10.00">_auto_20150402_2000.Migration</text>
</a>
</g>
</g>
<!-- Node1&#45;&gt;Node4 -->
<g id="edge3" class="edge"><title>Node1&#45;&gt;Node4</title>
<path fill="none" stroke="midnightblue" d="M64.4591,-175.75C74.8049,-179.728 86.3151,-183.969 97,-187.5 106.369,-190.596 116.397,-193.644 126.169,-196.474"/>
<polygon fill="midnightblue" stroke="midnightblue" points="65.5501,-172.419 54.9617,-172.049 63.0081,-178.941 65.5501,-172.419"/>
</g>
<!-- Node5 -->
<g id="node5" class="node"><title>Node5</title>
<g id="a_node5"><a xlink:href="classmemoryoracle_1_1migrations_1_10004__auto__20150402__2000_1_1Migration.html" target="_top" xlink:title="memoryoracle.migrations.0004\l_auto_20150402_2000.Migration">
<polygon fill="none" stroke="black" points="97,-147.5 97,-177.5 270,-177.5 270,-147.5 97,-147.5"/>
<text text-anchor="start" x="105" y="-165.5" font-family="Helvetica,sans-Serif" font-size="10.00">memoryoracle.migrations.0004</text>
<text text-anchor="middle" x="183.5" y="-154.5" font-family="Helvetica,sans-Serif" font-size="10.00">_auto_20150402_2000.Migration</text>
</a>
</g>
</g>
<!-- Node1&#45;&gt;Node5 -->
<g id="edge4" class="edge"><title>Node1&#45;&gt;Node5</title>
<path fill="none" stroke="midnightblue" d="M71.3995,-162.5C79.3917,-162.5 88.0741,-162.5 96.9451,-162.5"/>
<polygon fill="midnightblue" stroke="midnightblue" points="71.3328,-159 61.3327,-162.5 71.3327,-166 71.3328,-159"/>
</g>
<!-- Node6 -->
<g id="node6" class="node"><title>Node6</title>
<g id="a_node6"><a xlink:href="classmemoryoracle_1_1migrations_1_10005__auto__20150403__0100_1_1Migration.html" target="_top" xlink:title="memoryoracle.migrations.0005\l_auto_20150403_0100.Migration">
<polygon fill="none" stroke="black" points="97,-98.5 97,-128.5 270,-128.5 270,-98.5 97,-98.5"/>
<text text-anchor="start" x="105" y="-116.5" font-family="Helvetica,sans-Serif" font-size="10.00">memoryoracle.migrations.0005</text>
<text text-anchor="middle" x="183.5" y="-105.5" font-family="Helvetica,sans-Serif" font-size="10.00">_auto_20150403_0100.Migration</text>
</a>
</g>
</g>
<!-- Node1&#45;&gt;Node6 -->
<g id="edge5" class="edge"><title>Node1&#45;&gt;Node6</title>
<path fill="none" stroke="midnightblue" d="M65.8525,-149.424C75.8489,-145.752 86.8188,-141.85 97,-138.5 107.283,-135.117 118.336,-131.715 128.968,-128.557"/>
<polygon fill="midnightblue" stroke="midnightblue" points="64.4025,-146.228 56.2459,-152.99 66.8388,-152.791 64.4025,-146.228"/>
</g>
<!-- Node7 -->
<g id="node7" class="node"><title>Node7</title>
<g id="a_node7"><a xlink:href="classmemoryoracle_1_1migrations_1_10006__program__path_1_1Migration.html" target="_top" xlink:title="memoryoracle.migrations.0006\l_program_path.Migration">
<polygon fill="none" stroke="black" points="100,-49.5 100,-79.5 267,-79.5 267,-49.5 100,-49.5"/>
<text text-anchor="start" x="108" y="-67.5" font-family="Helvetica,sans-Serif" font-size="10.00">memoryoracle.migrations.0006</text>
<text text-anchor="middle" x="183.5" y="-56.5" font-family="Helvetica,sans-Serif" font-size="10.00">_program_path.Migration</text>
</a>
</g>
</g>
<!-- Node1&#45;&gt;Node7 -->
<g id="edge6" class="edge"><title>Node1&#45;&gt;Node7</title>
<path fill="none" stroke="midnightblue" d="M43.1753,-144.563C54.8838,-127.955 74.3875,-103.739 97,-89.5 103.151,-85.6268 109.925,-82.3331 116.886,-79.5367"/>
<polygon fill="midnightblue" stroke="midnightblue" points="40.2369,-142.66 37.5024,-152.896 46.0232,-146.6 40.2369,-142.66"/>
</g>
<!-- Node8 -->
<g id="node8" class="node"><title>Node8</title>
<g id="a_node8"><a xlink:href="classmemoryoracle_1_1migrations_1_10007__auto__20150403__0248_1_1Migration.html" target="_top" xlink:title="memoryoracle.migrations.0007\l_auto_20150403_0248.Migration">
<polygon fill="none" stroke="black" points="97,-0.5 97,-30.5 270,-30.5 270,-0.5 97,-0.5"/>
<text text-anchor="start" x="105" y="-18.5" font-family="Helvetica,sans-Serif" font-size="10.00">memoryoracle.migrations.0007</text>
<text text-anchor="middle" x="183.5" y="-7.5" font-family="Helvetica,sans-Serif" font-size="10.00">_auto_20150403_0248.Migration</text>
</a>
</g>
</g>
<!-- Node1&#45;&gt;Node8 -->
<g id="edge7" class="edge"><title>Node1&#45;&gt;Node8</title>
<path fill="none" stroke="midnightblue" d="M36.7211,-143.12C44.9906,-116.132 63.6828,-67.5126 97,-40.5 101.805,-36.6041 107.196,-33.3153 112.873,-30.539"/>
<polygon fill="midnightblue" stroke="midnightblue" points="33.3,-142.351 33.8855,-152.93 40.0247,-144.295 33.3,-142.351"/>
</g>
</g>
</svg>
