<?xml version="1.0" encoding="UTF-8" standalone="no"?>
<!DOCTYPE svg PUBLIC "-//W3C//DTD SVG 1.1//EN"
 "http://www.w3.org/Graphics/SVG/1.1/DTD/svg11.dtd">
<!-- Generated by graphviz version 2.38.0 (20140413.2041)
 -->
<!-- Title: Graphical Class Hierarchy Pages: 1 -->
<svg width="291pt" height="137pt"
 viewBox="0.00 0.00 291.00 137.00" xmlns="http://www.w3.org/2000/svg" xmlns:xlink="http://www.w3.org/1999/xlink">
<g id="graph0" class="graph" transform="scale(1 1) rotate(0) translate(4 133)">
<title>Graphical Class Hierarchy</title>
<!-- Node1 -->
<g id="node1" class="node"><title>Node1</title>
<polygon fill="none" stroke="#bfbfbf" points="0,-55 0,-74 68,-74 68,-55 0,-55"/>
<text text-anchor="middle" x="34" y="-62" font-family="Helvetica,sans-Serif" font-size="10.00">Breakpoint</text>
</g>
<!-- Node2 -->
<g id="node2" class="node"><title>Node2</title>
<g id="a_node2"><a xlink:href="classmemoryoracle_1_1instance_1_1MemoryWatcher.html" target="_top" xlink:title="memoryoracle.instance.Memory\lWatcher">
<polygon fill="none" stroke="black" points="107.5,-98.5 107.5,-128.5 279.5,-128.5 279.5,-98.5 107.5,-98.5"/>
<text text-anchor="start" x="115.5" y="-116.5" font-family="Helvetica,sans-Serif" font-size="10.00">memoryoracle.instance.Memory</text>
<text text-anchor="middle" x="193.5" y="-105.5" font-family="Helvetica,sans-Serif" font-size="10.00">Watcher</text>
</a>
</g>
</g>
<!-- Node1&#45;&gt;Node2 -->
<g id="edge1" class="edge"><title>Node1&#45;&gt;Node2</title>
<path fill="none" stroke="midnightblue" d="M69.4132,-77.6025C80.3998,-81.6146 92.6525,-85.9124 104,-89.5 113.715,-92.5713 124.103,-95.607 134.221,-98.4328"/>
<polygon fill="midnightblue" stroke="midnightblue" points="70.3348,-74.2117 59.7416,-74.0267 67.9073,-80.7774 70.3348,-74.2117"/>
</g>
<!-- Node3 -->
<g id="node3" class="node"><title>Node3</title>
<g id="a_node3"><a xlink:href="classmemoryoracle_1_1watch_1_1AddressableWatcher.html" target="_top" xlink:title="memoryoracle.watch.Addressable\lWatcher">
<polygon fill="none" stroke="black" points="104,-49.5 104,-79.5 283,-79.5 283,-49.5 104,-49.5"/>
<text text-anchor="start" x="112" y="-67.5" font-family="Helvetica,sans-Serif" font-size="10.00">memoryoracle.watch.Addressable</text>
<text text-anchor="middle" x="193.5" y="-56.5" font-family="Helvetica,sans-Serif" font-size="10.00">Watcher</text>
</a>
</g>
</g>
<!-- Node1&#45;&gt;Node3 -->
<g id="edge2" class="edge"><title>Node1&#45;&gt;Node3</title>
<path fill="none" stroke="midnightblue" d="M78.1833,-64.5C86.2197,-64.5 94.8817,-64.5 103.715,-64.5"/>
<polygon fill="midnightblue" stroke="midnightblue" points="78.0172,-61.0001 68.0172,-64.5 78.0171,-68.0001 78.0172,-61.0001"/>
</g>
<!-- Node4 -->
<g id="node4" class="node"><title>Node4</title>
<g id="a_node4"><a xlink:href="classmemoryoracle_1_1watch_1_1StateCatch.html" target="_top" xlink:title="memoryoracle.watch.State\lCatch">
<polygon fill="none" stroke="black" points="120.5,-0.5 120.5,-30.5 266.5,-30.5 266.5,-0.5 120.5,-0.5"/>
<text text-anchor="start" x="128.5" y="-18.5" font-family="Helvetica,sans-Serif" font-size="10.00">memoryoracle.watch.State</text>
<text text-anchor="middle" x="193.5" y="-7.5" font-family="Helvetica,sans-Serif" font-size="10.00">Catch</text>
</a>
</g>
</g>
<!-- Node1&#45;&gt;Node4 -->
<g id="edge3" class="edge"><title>Node1&#45;&gt;Node4</title>
<path fill="none" stroke="midnightblue" d="M71.1538,-51.4714C81.7006,-47.7939 93.2737,-43.8772 104,-40.5 114.66,-37.1436 126.108,-33.7536 137.115,-30.5992"/>
<polygon fill="midnightblue" stroke="midnightblue" points="69.6883,-48.2767 61.4176,-54.8984 72.0125,-54.8796 69.6883,-48.2767"/>
</g>
</g>
</svg>
