<?xml version="1.0" encoding="UTF-8" standalone="no"?>
<!DOCTYPE svg PUBLIC "-//W3C//DTD SVG 1.1//EN"
 "http://www.w3.org/Graphics/SVG/1.1/DTD/svg11.dtd">
<!-- Generated by graphviz version 2.38.0 (20140413.2041)
 -->
<!-- Title: Graphical Class Hierarchy Pages: 1 -->
<svg width="280pt" height="186pt"
 viewBox="0.00 0.00 280.00 186.00" xmlns="http://www.w3.org/2000/svg" xmlns:xlink="http://www.w3.org/1999/xlink">
<g id="graph0" class="graph" transform="scale(1 1) rotate(0) translate(4 182)">
<title>Graphical Class Hierarchy</title>
<!-- Node1 -->
<g id="node1" class="node"><title>Node1</title>
<polygon fill="none" stroke="#bfbfbf" points="0,-79 0,-98 63,-98 63,-79 0,-79"/>
<text text-anchor="middle" x="31.5" y="-86" font-family="Helvetica,sans-Serif" font-size="10.00">Exception</text>
</g>
<!-- Node2 -->
<g id="node2" class="node"><title>Node2</title>
<g id="a_node2"><a xlink:href="classmemoryoracle_1_1instance_1_1Memory_1_1DuplicateAddress.html" target="_top" xlink:title="memoryoracle.instance.Memory.\lDuplicateAddress">
<polygon fill="none" stroke="black" points="99,-147.5 99,-177.5 272,-177.5 272,-147.5 99,-147.5"/>
<text text-anchor="start" x="107" y="-165.5" font-family="Helvetica,sans-Serif" font-size="10.00">memoryoracle.instance.Memory.</text>
<text text-anchor="middle" x="185.5" y="-154.5" font-family="Helvetica,sans-Serif" font-size="10.00">DuplicateAddress</text>
</a>
</g>
</g>
<!-- Node1&#45;&gt;Node2 -->
<g id="edge1" class="edge"><title>Node1&#45;&gt;Node2</title>
<path fill="none" stroke="midnightblue" d="M50.5241,-104.989C63.252,-115.864 81.1557,-129.677 99,-138.5 105.772,-141.848 113.084,-144.794 120.481,-147.369"/>
<polygon fill="midnightblue" stroke="midnightblue" points="52.7845,-102.316 42.9601,-98.35 48.1667,-107.577 52.7845,-102.316"/>
</g>
<!-- Node3 -->
<g id="node3" class="node"><title>Node3</title>
<g id="a_node3"><a xlink:href="classmemoryoracle_1_1models_1_1Typed_1_1DataError.html" target="_top" xlink:title="memoryoracle.models.Typed.\lDataError">
<polygon fill="none" stroke="black" points="106.5,-98.5 106.5,-128.5 264.5,-128.5 264.5,-98.5 106.5,-98.5"/>
<text text-anchor="start" x="114.5" y="-116.5" font-family="Helvetica,sans-Serif" font-size="10.00">memoryoracle.models.Typed.</text>
<text text-anchor="middle" x="185.5" y="-105.5" font-family="Helvetica,sans-Serif" font-size="10.00">DataError</text>
</a>
</g>
</g>
<!-- Node1&#45;&gt;Node3 -->
<g id="edge2" class="edge"><title>Node1&#45;&gt;Node3</title>
<path fill="none" stroke="midnightblue" d="M73.1419,-95.1845C83.4342,-96.8773 94.8398,-98.7533 106.312,-100.64"/>
<polygon fill="midnightblue" stroke="midnightblue" points="73.695,-91.7285 63.2595,-93.5591 72.5588,-98.6357 73.695,-91.7285"/>
</g>
<!-- Node4 -->
<g id="node4" class="node"><title>Node4</title>
<g id="a_node4"><a xlink:href="classmemoryoracle_1_1models_1_1Typed_1_1DetectionError.html" target="_top" xlink:title="memoryoracle.models.Typed.\lDetectionError">
<polygon fill="none" stroke="black" points="106.5,-49.5 106.5,-79.5 264.5,-79.5 264.5,-49.5 106.5,-49.5"/>
<text text-anchor="start" x="114.5" y="-67.5" font-family="Helvetica,sans-Serif" font-size="10.00">memoryoracle.models.Typed.</text>
<text text-anchor="middle" x="185.5" y="-56.5" font-family="Helvetica,sans-Serif" font-size="10.00">DetectionError</text>
</a>
</g>
</g>
<!-- Node1&#45;&gt;Node4 -->
<g id="edge3" class="edge"><title>Node1&#45;&gt;Node4</title>
<path fill="none" stroke="midnightblue" d="M73.1419,-82.0829C83.4342,-80.4578 94.8398,-78.6569 106.312,-76.8455"/>
<polygon fill="midnightblue" stroke="midnightblue" points="72.5912,-78.6264 63.2595,-83.6432 73.683,-85.5407 72.5912,-78.6264"/>
</g>
<!-- Node5 -->
<g id="node5" class="node"><title>Node5</title>
<g id="a_node5"><a xlink:href="classmemoryoracle_1_1registry_1_1TypeDetectionError.html" target="_top" xlink:title="memoryoracle.registry.Type\lDetectionError">
<polygon fill="none" stroke="black" points="111.5,-0.5 111.5,-30.5 259.5,-30.5 259.5,-0.5 111.5,-0.5"/>
<text text-anchor="start" x="119.5" y="-18.5" font-family="Helvetica,sans-Serif" font-size="10.00">memoryoracle.registry.Type</text>
<text text-anchor="middle" x="185.5" y="-7.5" font-family="Helvetica,sans-Serif" font-size="10.00">DetectionError</text>
</a>
</g>
</g>
<!-- Node1&#45;&gt;Node5 -->
<g id="edge4" class="edge"><title>Node1&#45;&gt;Node5</title>
<path fill="none" stroke="midnightblue" d="M51.4875,-72.0978C64.216,-61.8073 81.7483,-48.9367 99,-40.5 106.641,-36.7632 114.945,-33.4781 123.275,-30.6231"/>
<polygon fill="midnightblue" stroke="midnightblue" points="48.9644,-69.6435 43.5054,-78.7237 53.4354,-75.0296 48.9644,-69.6435"/>
</g>
</g>
</svg>
