<?xml version="1.0" encoding="UTF-8" standalone="no"?>
<!DOCTYPE svg PUBLIC "-//W3C//DTD SVG 1.1//EN"
 "http://www.w3.org/Graphics/SVG/1.1/DTD/svg11.dtd">
<!-- Generated by graphviz version 2.38.0 (20140413.2041)
 -->
<!-- Title: Graphical Class Hierarchy Pages: 1 -->
<svg width="1371pt" height="755pt"
 viewBox="0.00 0.00 1371.00 755.00" xmlns="http://www.w3.org/2000/svg" xmlns:xlink="http://www.w3.org/1999/xlink">
<g id="graph0" class="graph" transform="scale(1 1) rotate(0) translate(4 751)">
<title>Graphical Class Hierarchy</title>
<!-- Node1 -->
<g id="node1" class="node"><title>Node1</title>
<polygon fill="none" stroke="#bfbfbf" points="0,-601.5 0,-620.5 67,-620.5 67,-601.5 0,-601.5"/>
<text text-anchor="middle" x="33.5" y="-608.5" font-family="Helvetica,sans-Serif" font-size="10.00">Document</text>
</g>
<!-- Node2 -->
<g id="node2" class="node"><title>Node2</title>
<g id="a_node2"><a xlink:href="classmemoryoracle_1_1execution_1_1Commit.html" target="_top" xlink:title="memoryoracle.execution.Commit">
<polygon fill="none" stroke="black" points="107,-658.5 107,-677.5 284,-677.5 284,-658.5 107,-658.5"/>
<text text-anchor="middle" x="195.5" y="-665.5" font-family="Helvetica,sans-Serif" font-size="10.00">memoryoracle.execution.Commit</text>
</a>
</g>
</g>
<!-- Node1&#45;&gt;Node2 -->
<g id="edge1" class="edge"><title>Node1&#45;&gt;Node2</title>
<path fill="none" stroke="midnightblue" d="M57.5199,-626.07C70.4319,-633.923 87.0988,-643.094 103,-649 113.19,-652.785 124.314,-655.89 135.184,-658.412"/>
<polygon fill="midnightblue" stroke="midnightblue" points="59.1816,-622.981 48.8463,-620.65 55.4722,-628.918 59.1816,-622.981"/>
</g>
<!-- Node3 -->
<g id="node3" class="node"><title>Node3</title>
<g id="a_node3"><a xlink:href="classmemoryoracle_1_1execution_1_1Execution.html" target="_top" xlink:title="memoryoracle.execution.Execution">
<polygon fill="none" stroke="black" points="103,-620.5 103,-639.5 288,-639.5 288,-620.5 103,-620.5"/>
<text text-anchor="middle" x="195.5" y="-627.5" font-family="Helvetica,sans-Serif" font-size="10.00">memoryoracle.execution.Execution</text>
</a>
</g>
</g>
<!-- Node1&#45;&gt;Node3 -->
<g id="edge2" class="edge"><title>Node1&#45;&gt;Node3</title>
<path fill="none" stroke="midnightblue" d="M77.3456,-616.088C88.7602,-617.443 101.472,-618.953 114.194,-620.464"/>
<polygon fill="midnightblue" stroke="midnightblue" points="77.6075,-612.595 67.2645,-614.891 76.782,-619.546 77.6075,-612.595"/>
</g>
<!-- Node4 -->
<g id="node4" class="node"><title>Node4</title>
<g id="a_node4"><a xlink:href="classmemoryoracle_1_1execution_1_1Instance.html" target="_top" xlink:title="memoryoracle.execution.Instance">
<polygon fill="none" stroke="black" points="106,-582.5 106,-601.5 285,-601.5 285,-582.5 106,-582.5"/>
<text text-anchor="middle" x="195.5" y="-589.5" font-family="Helvetica,sans-Serif" font-size="10.00">memoryoracle.execution.Instance</text>
</a>
</g>
</g>
<!-- Node1&#45;&gt;Node4 -->
<g id="edge3" class="edge"><title>Node1&#45;&gt;Node4</title>
<path fill="none" stroke="midnightblue" d="M77.3456,-605.912C88.7602,-604.557 101.472,-603.047 114.194,-601.536"/>
<polygon fill="midnightblue" stroke="midnightblue" points="76.782,-602.454 67.2645,-607.109 77.6075,-609.405 76.782,-602.454"/>
</g>
<!-- Node5 -->
<g id="node5" class="node"><title>Node5</title>
<g id="a_node5"><a xlink:href="classmemoryoracle_1_1tracked_1_1Tracked.html" target="_top" xlink:title="memoryoracle.tracked.Tracked">
<polygon fill="none" stroke="black" points="113.5,-544.5 113.5,-563.5 277.5,-563.5 277.5,-544.5 113.5,-544.5"/>
<text text-anchor="middle" x="195.5" y="-551.5" font-family="Helvetica,sans-Serif" font-size="10.00">memoryoracle.tracked.Tracked</text>
</a>
</g>
</g>
<!-- Node1&#45;&gt;Node5 -->
<g id="edge4" class="edge"><title>Node1&#45;&gt;Node5</title>
<path fill="none" stroke="midnightblue" d="M57.5199,-595.93C70.4319,-588.077 87.0988,-578.906 103,-573 113.19,-569.215 124.314,-566.11 135.184,-563.588"/>
<polygon fill="midnightblue" stroke="midnightblue" points="55.4722,-593.082 48.8463,-601.35 59.1816,-599.019 55.4722,-593.082"/>
</g>
<!-- Node6 -->
<g id="node6" class="node"><title>Node6</title>
<g id="a_node6"><a xlink:href="classmemoryoracle_1_1tracked_1_1Owner.html" target="_top" xlink:title="memoryoracle.tracked.Owner">
<polygon fill="none" stroke="black" points="337.5,-620.5 337.5,-639.5 495.5,-639.5 495.5,-620.5 337.5,-620.5"/>
<text text-anchor="middle" x="416.5" y="-627.5" font-family="Helvetica,sans-Serif" font-size="10.00">memoryoracle.tracked.Owner</text>
</a>
</g>
</g>
<!-- Node5&#45;&gt;Node6 -->
<g id="edge5" class="edge"><title>Node5&#45;&gt;Node6</title>
<path fill="none" stroke="midnightblue" d="M275.362,-567.043C279.739,-568.787 283.986,-570.762 288,-573 308.32,-584.328 303.68,-599.672 324,-611 330.944,-614.871 338.582,-617.956 346.393,-620.415"/>
<polygon fill="midnightblue" stroke="midnightblue" points="276.201,-563.628 265.607,-563.585 273.862,-570.225 276.201,-563.628"/>
</g>
<!-- Node7 -->
<g id="node7" class="node"><title>Node7</title>
<g id="a_node7"><a xlink:href="classmemoryoracle_1_1tracked_1_1ProgramFile.html" target="_top" xlink:title="memoryoracle.tracked.ProgramFile">
<polygon fill="none" stroke="black" points="324,-582.5 324,-601.5 509,-601.5 509,-582.5 324,-582.5"/>
<text text-anchor="middle" x="416.5" y="-589.5" font-family="Helvetica,sans-Serif" font-size="10.00">memoryoracle.tracked.ProgramFile</text>
</a>
</g>
</g>
<!-- Node5&#45;&gt;Node7 -->
<g id="edge6" class="edge"><title>Node5&#45;&gt;Node7</title>
<path fill="none" stroke="midnightblue" d="M261.485,-565.276C292.992,-570.743 330.425,-577.238 360.497,-582.456"/>
<polygon fill="midnightblue" stroke="midnightblue" points="261.931,-561.801 251.48,-563.54 260.735,-568.698 261.931,-561.801"/>
</g>
<!-- Node10 -->
<g id="node10" class="node"><title>Node10</title>
<g id="a_node10"><a xlink:href="classmemoryoracle_1_1tracked_1_1Reference.html" target="_top" xlink:title="memoryoracle.tracked.Reference">
<polygon fill="none" stroke="black" points="328.5,-544.5 328.5,-563.5 504.5,-563.5 504.5,-544.5 328.5,-544.5"/>
<text text-anchor="middle" x="416.5" y="-551.5" font-family="Helvetica,sans-Serif" font-size="10.00">memoryoracle.tracked.Reference</text>
</a>
</g>
</g>
<!-- Node5&#45;&gt;Node10 -->
<g id="edge9" class="edge"><title>Node5&#45;&gt;Node10</title>
<path fill="none" stroke="midnightblue" d="M287.85,-554C301.187,-554 314.893,-554 328.148,-554"/>
<polygon fill="midnightblue" stroke="midnightblue" points="287.736,-550.5 277.736,-554 287.736,-557.5 287.736,-550.5"/>
</g>
<!-- Node11 -->
<g id="node11" class="node"><title>Node11</title>
<g id="a_node11"><a xlink:href="classmemoryoracle_1_1tracked_1_1UntrackedDecorator.html" target="_top" xlink:title="memoryoracle.tracked.Untracked\lDecorator">
<polygon fill="none" stroke="black" points="327.5,-495 327.5,-525 505.5,-525 505.5,-495 327.5,-495"/>
<text text-anchor="start" x="335.5" y="-513" font-family="Helvetica,sans-Serif" font-size="10.00">memoryoracle.tracked.Untracked</text>
<text text-anchor="middle" x="416.5" y="-502" font-family="Helvetica,sans-Serif" font-size="10.00">Decorator</text>
</a>
</g>
</g>
<!-- Node5&#45;&gt;Node11 -->
<g id="edge10" class="edge"><title>Node5&#45;&gt;Node11</title>
<path fill="none" stroke="midnightblue" d="M253.892,-542.469C280.377,-537.148 312.166,-530.761 340.516,-525.065"/>
<polygon fill="midnightblue" stroke="midnightblue" points="253.134,-539.051 244.02,-544.453 254.513,-545.914 253.134,-539.051"/>
</g>
<!-- Node12 -->
<g id="node12" class="node"><title>Node12</title>
<g id="a_node12"><a xlink:href="classmemoryoracle_1_1typed_1_1Typed.html" target="_top" xlink:title="memoryoracle.typed.Typed">
<polygon fill="none" stroke="black" points="343.5,-456.5 343.5,-475.5 489.5,-475.5 489.5,-456.5 343.5,-456.5"/>
<text text-anchor="middle" x="416.5" y="-463.5" font-family="Helvetica,sans-Serif" font-size="10.00">memoryoracle.typed.Typed</text>
</a>
</g>
</g>
<!-- Node5&#45;&gt;Node12 -->
<g id="edge11" class="edge"><title>Node5&#45;&gt;Node12</title>
<path fill="none" stroke="midnightblue" d="M219.896,-538.981C244.797,-523.615 285.796,-500.057 324,-486 335.445,-481.789 348.038,-478.328 360.123,-475.54"/>
<polygon fill="midnightblue" stroke="midnightblue" points="217.802,-536.163 211.18,-544.433 221.514,-542.097 217.802,-536.163"/>
</g>
<!-- Node8 -->
<g id="node8" class="node"><title>Node8</title>
<g id="a_node8"><a xlink:href="classmemoryoracle_1_1tracked_1_1ObjectFile.html" target="_top" xlink:title="memoryoracle.tracked.ObjectFile">
<polygon fill="none" stroke="black" points="546.5,-601.5 546.5,-620.5 720.5,-620.5 720.5,-601.5 546.5,-601.5"/>
<text text-anchor="middle" x="633.5" y="-608.5" font-family="Helvetica,sans-Serif" font-size="10.00">memoryoracle.tracked.ObjectFile</text>
</a>
</g>
</g>
<!-- Node7&#45;&gt;Node8 -->
<g id="edge7" class="edge"><title>Node7&#45;&gt;Node8</title>
<path fill="none" stroke="midnightblue" d="M519.464,-601.011C528.495,-601.809 537.579,-602.612 546.459,-603.396"/>
<polygon fill="midnightblue" stroke="midnightblue" points="519.572,-597.507 509.303,-600.113 518.956,-604.48 519.572,-597.507"/>
</g>
<!-- Node9 -->
<g id="node9" class="node"><title>Node9</title>
<g id="a_node9"><a xlink:href="classmemoryoracle_1_1tracked_1_1SourceFile.html" target="_top" xlink:title="memoryoracle.tracked.SourceFile">
<polygon fill="none" stroke="black" points="545,-563.5 545,-582.5 722,-582.5 722,-563.5 545,-563.5"/>
<text text-anchor="middle" x="633.5" y="-570.5" font-family="Helvetica,sans-Serif" font-size="10.00">memoryoracle.tracked.SourceFile</text>
</a>
</g>
</g>
<!-- Node7&#45;&gt;Node9 -->
<g id="edge8" class="edge"><title>Node7&#45;&gt;Node9</title>
<path fill="none" stroke="midnightblue" d="M519.27,-583.006C527.79,-582.253 536.358,-581.496 544.759,-580.754"/>
<polygon fill="midnightblue" stroke="midnightblue" points="518.956,-579.52 509.303,-583.887 519.572,-586.493 518.956,-579.52"/>
</g>
<!-- Node13 -->
<g id="node13" class="node"><title>Node13</title>
<g id="a_node13"><a xlink:href="classmemoryoracle_1_1instance_1_1Memory.html" target="_top" xlink:title="memoryoracle.instance.Memory">
<polygon fill="none" stroke="black" points="547.5,-481.5 547.5,-500.5 719.5,-500.5 719.5,-481.5 547.5,-481.5"/>
<text text-anchor="middle" x="633.5" y="-488.5" font-family="Helvetica,sans-Serif" font-size="10.00">memoryoracle.instance.Memory</text>
</a>
</g>
</g>
<!-- Node12&#45;&gt;Node13 -->
<g id="edge12" class="edge"><title>Node12&#45;&gt;Node13</title>
<path fill="none" stroke="midnightblue" d="M499.894,-475.581C516.482,-477.51 533.915,-479.537 550.489,-481.464"/>
<polygon fill="midnightblue" stroke="midnightblue" points="500.027,-472.073 489.69,-474.394 499.219,-479.026 500.027,-472.073"/>
</g>
<!-- Node29 -->
<g id="node29" class="node"><title>Node29</title>
<g id="a_node29"><a xlink:href="classmemoryoracle_1_1symbol_1_1Symbol.html" target="_top" xlink:title="memoryoracle.symbol.Symbol">
<polygon fill="none" stroke="black" points="552,-164.5 552,-183.5 715,-183.5 715,-164.5 552,-164.5"/>
<text text-anchor="middle" x="633.5" y="-171.5" font-family="Helvetica,sans-Serif" font-size="10.00">memoryoracle.symbol.Symbol</text>
</a>
</g>
</g>
<!-- Node12&#45;&gt;Node29 -->
<g id="edge28" class="edge"><title>Node12&#45;&gt;Node29</title>
<path fill="none" stroke="midnightblue" d="M430.654,-448.135C471.341,-392.876 594.276,-225.913 625.32,-183.752"/>
<polygon fill="midnightblue" stroke="midnightblue" points="427.764,-446.157 424.653,-456.285 433.401,-450.307 427.764,-446.157"/>
</g>
<!-- Node14 -->
<g id="node14" class="node"><title>Node14</title>
<g id="a_node14"><a xlink:href="classmemoryoracle_1_1instance_1_1Array.html" target="_top" xlink:title="memoryoracle.instance.Array">
<polygon fill="none" stroke="black" points="771.5,-727.5 771.5,-746.5 929.5,-746.5 929.5,-727.5 771.5,-727.5"/>
<text text-anchor="middle" x="850.5" y="-734.5" font-family="Helvetica,sans-Serif" font-size="10.00">memoryoracle.instance.Array</text>
</a>
</g>
</g>
<!-- Node13&#45;&gt;Node14 -->
<g id="edge13" class="edge"><title>Node13&#45;&gt;Node14</title>
<path fill="none" stroke="midnightblue" d="M664.665,-505.376C683.973,-516.12 707.952,-532.625 722,-554 762.985,-616.362 704.934,-665.533 758,-718 761.923,-721.878 766.417,-725.062 771.263,-727.666"/>
<polygon fill="midnightblue" stroke="midnightblue" points="666.099,-502.174 655.627,-500.568 662.812,-508.354 666.099,-502.174"/>
</g>
<!-- Node15 -->
<g id="node15" class="node"><title>Node15</title>
<g id="a_node15"><a xlink:href="classmemoryoracle_1_1instance_1_1Call.html" target="_top" xlink:title="memoryoracle.instance.Call">
<polygon fill="none" stroke="black" points="775.5,-689.5 775.5,-708.5 925.5,-708.5 925.5,-689.5 775.5,-689.5"/>
<text text-anchor="middle" x="850.5" y="-696.5" font-family="Helvetica,sans-Serif" font-size="10.00">memoryoracle.instance.Call</text>
</a>
</g>
</g>
<!-- Node13&#45;&gt;Node15 -->
<g id="edge14" class="edge"><title>Node13&#45;&gt;Node15</title>
<path fill="none" stroke="midnightblue" d="M663.876,-505.463C683.058,-516.329 707.202,-532.941 722,-554 755.485,-601.652 715.331,-640.36 758,-680 763.111,-684.748 769.087,-688.438 775.492,-691.29"/>
<polygon fill="midnightblue" stroke="midnightblue" points="665.379,-502.296 654.921,-500.596 662.036,-508.446 665.379,-502.296"/>
</g>
<!-- Node16 -->
<g id="node16" class="node"><title>Node16</title>
<g id="a_node16"><a xlink:href="classmemoryoracle_1_1instance_1_1ConstDecorator.html" target="_top" xlink:title="memoryoracle.instance.Const\lDecorator">
<polygon fill="none" stroke="black" points="770,-640 770,-670 931,-670 931,-640 770,-640"/>
<text text-anchor="start" x="778" y="-658" font-family="Helvetica,sans-Serif" font-size="10.00">memoryoracle.instance.Const</text>
<text text-anchor="middle" x="850.5" y="-647" font-family="Helvetica,sans-Serif" font-size="10.00">Decorator</text>
</a>
</g>
</g>
<!-- Node13&#45;&gt;Node16 -->
<g id="edge15" class="edge"><title>Node13&#45;&gt;Node16</title>
<path fill="none" stroke="midnightblue" d="M661.783,-505.636C680.649,-516.854 705.268,-533.812 722,-554 746.107,-583.086 728.984,-606.808 758,-631 762.163,-634.471 766.772,-637.445 771.645,-639.994"/>
<polygon fill="midnightblue" stroke="midnightblue" points="663.456,-502.561 653.044,-500.601 659.962,-508.626 663.456,-502.561"/>
</g>
<!-- Node17 -->
<g id="node17" class="node"><title>Node17</title>
<g id="a_node17"><a xlink:href="classmemoryoracle_1_1instance_1_1ExternDecorator.html" target="_top" xlink:title="memoryoracle.instance.Extern\lDecorator">
<polygon fill="none" stroke="black" points="768.5,-591 768.5,-621 932.5,-621 932.5,-591 768.5,-591"/>
<text text-anchor="start" x="776.5" y="-609" font-family="Helvetica,sans-Serif" font-size="10.00">memoryoracle.instance.Extern</text>
<text text-anchor="middle" x="850.5" y="-598" font-family="Helvetica,sans-Serif" font-size="10.00">Decorator</text>
</a>
</g>
</g>
<!-- Node13&#45;&gt;Node17 -->
<g id="edge16" class="edge"><title>Node13&#45;&gt;Node17</title>
<path fill="none" stroke="midnightblue" d="M656.792,-506.707C674.574,-519.318 700.05,-537.571 722,-554 738.228,-566.146 739.826,-573.023 758,-582 764.921,-585.418 772.384,-588.39 779.958,-590.965"/>
<polygon fill="midnightblue" stroke="midnightblue" points="658.439,-503.585 648.254,-500.666 654.396,-509.299 658.439,-503.585"/>
</g>
<!-- Node18 -->
<g id="node18" class="node"><title>Node18</title>
<g id="a_node18"><a xlink:href="classmemoryoracle_1_1instance_1_1MemberDecorator.html" target="_top" xlink:title="memoryoracle.instance.Member\lDecorator">
<polygon fill="none" stroke="black" points="764,-542 764,-572 937,-572 937,-542 764,-542"/>
<text text-anchor="start" x="772" y="-560" font-family="Helvetica,sans-Serif" font-size="10.00">memoryoracle.instance.Member</text>
<text text-anchor="middle" x="850.5" y="-549" font-family="Helvetica,sans-Serif" font-size="10.00">Decorator</text>
</a>
</g>
</g>
<!-- Node13&#45;&gt;Node18 -->
<g id="edge17" class="edge"><title>Node13&#45;&gt;Node18</title>
<path fill="none" stroke="midnightblue" d="M671.433,-503.839C695.888,-512.197 728.731,-523.15 758,-532 769.034,-535.336 780.875,-538.717 792.257,-541.869"/>
<polygon fill="midnightblue" stroke="midnightblue" points="672.429,-500.48 661.834,-500.544 670.156,-507.101 672.429,-500.48"/>
</g>
<!-- Node19 -->
<g id="node19" class="node"><title>Node19</title>
<g id="a_node19"><a xlink:href="classmemoryoracle_1_1instance_1_1Primitive.html" target="_top" xlink:title="memoryoracle.instance.Primitive">
<polygon fill="none" stroke="black" points="763.5,-503.5 763.5,-522.5 937.5,-522.5 937.5,-503.5 763.5,-503.5"/>
<text text-anchor="middle" x="850.5" y="-510.5" font-family="Helvetica,sans-Serif" font-size="10.00">memoryoracle.instance.Primitive</text>
</a>
</g>
</g>
<!-- Node13&#45;&gt;Node19 -->
<g id="edge18" class="edge"><title>Node13&#45;&gt;Node19</title>
<path fill="none" stroke="midnightblue" d="M729.916,-500.764C741.019,-501.9 752.296,-503.053 763.265,-504.176"/>
<polygon fill="midnightblue" stroke="midnightblue" points="730.087,-497.263 719.782,-499.727 729.374,-504.226 730.087,-497.263"/>
</g>
<!-- Node24 -->
<g id="node24" class="node"><title>Node24</title>
<g id="a_node24"><a xlink:href="classmemoryoracle_1_1instance_1_1RegisterDecorator.html" target="_top" xlink:title="memoryoracle.instance.Register\lDecorator">
<polygon fill="none" stroke="black" points="765,-454 765,-484 936,-484 936,-454 765,-454"/>
<text text-anchor="start" x="773" y="-472" font-family="Helvetica,sans-Serif" font-size="10.00">memoryoracle.instance.Register</text>
<text text-anchor="middle" x="850.5" y="-461" font-family="Helvetica,sans-Serif" font-size="10.00">Decorator</text>
</a>
</g>
</g>
<!-- Node13&#45;&gt;Node24 -->
<g id="edge23" class="edge"><title>Node13&#45;&gt;Node24</title>
<path fill="none" stroke="midnightblue" d="M729.899,-481.238C741.483,-480.053 753.256,-478.848 764.672,-477.68"/>
<polygon fill="midnightblue" stroke="midnightblue" points="729.374,-477.774 719.782,-482.273 730.087,-484.737 729.374,-477.774"/>
</g>
<!-- Node25 -->
<g id="node25" class="node"><title>Node25</title>
<g id="a_node25"><a xlink:href="classmemoryoracle_1_1instance_1_1StaticDecorator.html" target="_top" xlink:title="memoryoracle.instance.Static\lDecorator">
<polygon fill="none" stroke="black" points="770,-405 770,-435 931,-435 931,-405 770,-405"/>
<text text-anchor="start" x="778" y="-423" font-family="Helvetica,sans-Serif" font-size="10.00">memoryoracle.instance.Static</text>
<text text-anchor="middle" x="850.5" y="-412" font-family="Helvetica,sans-Serif" font-size="10.00">Decorator</text>
</a>
</g>
</g>
<!-- Node13&#45;&gt;Node25 -->
<g id="edge24" class="edge"><title>Node13&#45;&gt;Node25</title>
<path fill="none" stroke="midnightblue" d="M668.021,-477.583C692.701,-467.934 727.183,-454.927 758,-445 768.659,-441.567 780.111,-438.193 791.183,-435.09"/>
<polygon fill="midnightblue" stroke="midnightblue" points="666.438,-474.445 658.414,-481.364 669.001,-480.959 666.438,-474.445"/>
</g>
<!-- Node26 -->
<g id="node26" class="node"><title>Node26</title>
<g id="a_node26"><a xlink:href="classmemoryoracle_1_1instance_1_1Structure.html" target="_top" xlink:title="memoryoracle.instance.Structure">
<polygon fill="none" stroke="black" points="761.5,-366.5 761.5,-385.5 939.5,-385.5 939.5,-366.5 761.5,-366.5"/>
<text text-anchor="middle" x="850.5" y="-373.5" font-family="Helvetica,sans-Serif" font-size="10.00">memoryoracle.instance.Structure</text>
</a>
</g>
</g>
<!-- Node13&#45;&gt;Node26 -->
<g id="edge25" class="edge"><title>Node13&#45;&gt;Node26</title>
<path fill="none" stroke="midnightblue" d="M651.044,-474.322C673.337,-452.844 715.186,-415.918 758,-396 767.288,-391.679 777.546,-388.273 787.734,-385.594"/>
<polygon fill="midnightblue" stroke="midnightblue" points="648.439,-471.975 643.75,-481.476 653.34,-476.973 648.439,-471.975"/>
</g>
<!-- Node27 -->
<g id="node27" class="node"><title>Node27</title>
<g id="a_node27"><a xlink:href="classmemoryoracle_1_1instance_1_1Void.html" target="_top" xlink:title="memoryoracle.instance.Void">
<polygon fill="none" stroke="black" points="774,-328.5 774,-347.5 927,-347.5 927,-328.5 774,-328.5"/>
<text text-anchor="middle" x="850.5" y="-335.5" font-family="Helvetica,sans-Serif" font-size="10.00">memoryoracle.instance.Void</text>
</a>
</g>
</g>
<!-- Node13&#45;&gt;Node27 -->
<g id="edge26" class="edge"><title>Node13&#45;&gt;Node27</title>
<path fill="none" stroke="midnightblue" d="M645.704,-472.873C664.858,-443.528 706.832,-385.988 758,-357 764.776,-353.161 772.228,-350.094 779.863,-347.644"/>
<polygon fill="midnightblue" stroke="midnightblue" points="642.731,-471.025 640.304,-481.338 648.633,-474.79 642.731,-471.025"/>
</g>
<!-- Node28 -->
<g id="node28" class="node"><title>Node28</title>
<g id="a_node28"><a xlink:href="classmemoryoracle_1_1instance_1_1VolatileDecorator.html" target="_top" xlink:title="memoryoracle.instance.Volatile\lDecorator">
<polygon fill="none" stroke="black" points="767,-279 767,-309 934,-309 934,-279 767,-279"/>
<text text-anchor="start" x="775" y="-297" font-family="Helvetica,sans-Serif" font-size="10.00">memoryoracle.instance.Volatile</text>
<text text-anchor="middle" x="850.5" y="-286" font-family="Helvetica,sans-Serif" font-size="10.00">Decorator</text>
</a>
</g>
</g>
<!-- Node13&#45;&gt;Node28 -->
<g id="edge27" class="edge"><title>Node13&#45;&gt;Node28</title>
<path fill="none" stroke="midnightblue" d="M642.684,-472.208C659.151,-436.653 699.755,-359.483 758,-319 763.544,-315.147 769.659,-311.886 776.021,-309.128"/>
<polygon fill="midnightblue" stroke="midnightblue" points="639.439,-470.89 638.519,-481.445 645.82,-473.768 639.439,-470.89"/>
</g>
<!-- Node20 -->
<g id="node20" class="node"><title>Node20</title>
<g id="a_node20"><a xlink:href="classmemoryoracle_1_1instance_1_1Float.html" target="_top" xlink:title="memoryoracle.instance.Float">
<polygon fill="none" stroke="black" points="991.5,-541.5 991.5,-560.5 1147.5,-560.5 1147.5,-541.5 991.5,-541.5"/>
<text text-anchor="middle" x="1069.5" y="-548.5" font-family="Helvetica,sans-Serif" font-size="10.00">memoryoracle.instance.Float</text>
</a>
</g>
</g>
<!-- Node19&#45;&gt;Node20 -->
<g id="edge19" class="edge"><title>Node19&#45;&gt;Node20</title>
<path fill="none" stroke="midnightblue" d="M915.891,-524.276C947.111,-529.743 984.202,-536.238 1014,-541.456"/>
<polygon fill="midnightblue" stroke="midnightblue" points="916.432,-520.817 905.978,-522.54 915.225,-527.712 916.432,-520.817"/>
</g>
<!-- Node21 -->
<g id="node21" class="node"><title>Node21</title>
<g id="a_node21"><a xlink:href="classmemoryoracle_1_1instance_1_1Int.html" target="_top" xlink:title="memoryoracle.instance.Int">
<polygon fill="none" stroke="black" points="997,-503.5 997,-522.5 1142,-522.5 1142,-503.5 997,-503.5"/>
<text text-anchor="middle" x="1069.5" y="-510.5" font-family="Helvetica,sans-Serif" font-size="10.00">memoryoracle.instance.Int</text>
</a>
</g>
</g>
<!-- Node19&#45;&gt;Node21 -->
<g id="edge20" class="edge"><title>Node19&#45;&gt;Node21</title>
<path fill="none" stroke="midnightblue" d="M947.781,-513C964.273,-513 981.146,-513 996.851,-513"/>
<polygon fill="midnightblue" stroke="midnightblue" points="947.576,-509.5 937.576,-513 947.576,-516.5 947.576,-509.5"/>
</g>
<!-- Node22 -->
<g id="node22" class="node"><title>Node22</title>
<g id="a_node22"><a xlink:href="classmemoryoracle_1_1instance_1_1Pointer.html" target="_top" xlink:title="memoryoracle.instance.Pointer">
<polygon fill="none" stroke="black" points="986,-465.5 986,-484.5 1153,-484.5 1153,-465.5 986,-465.5"/>
<text text-anchor="middle" x="1069.5" y="-472.5" font-family="Helvetica,sans-Serif" font-size="10.00">memoryoracle.instance.Pointer</text>
</a>
</g>
</g>
<!-- Node19&#45;&gt;Node22 -->
<g id="edge21" class="edge"><title>Node19&#45;&gt;Node22</title>
<path fill="none" stroke="midnightblue" d="M915.891,-501.724C947.111,-496.257 984.202,-489.762 1014,-484.544"/>
<polygon fill="midnightblue" stroke="midnightblue" points="915.225,-498.288 905.978,-503.46 916.432,-505.183 915.225,-498.288"/>
</g>
<!-- Node23 -->
<g id="node23" class="node"><title>Node23</title>
<g id="a_node23"><a xlink:href="classmemoryoracle_1_1instance_1_1CharString.html" target="_top" xlink:title="memoryoracle.instance.Char\lString">
<polygon fill="none" stroke="black" points="1202,-460 1202,-490 1357,-490 1357,-460 1202,-460"/>
<text text-anchor="start" x="1210" y="-478" font-family="Helvetica,sans-Serif" font-size="10.00">memoryoracle.instance.Char</text>
<text text-anchor="middle" x="1279.5" y="-467" font-family="Helvetica,sans-Serif" font-size="10.00">String</text>
</a>
</g>
</g>
<!-- Node22&#45;&gt;Node23 -->
<g id="edge22" class="edge"><title>Node22&#45;&gt;Node23</title>
<path fill="none" stroke="midnightblue" d="M1163.28,-475C1176.17,-475 1189.29,-475 1201.84,-475"/>
<polygon fill="midnightblue" stroke="midnightblue" points="1163.01,-471.5 1153.01,-475 1163.01,-478.5 1163.01,-471.5"/>
</g>
<!-- Node30 -->
<g id="node30" class="node"><title>Node30</title>
<g id="a_node30"><a xlink:href="classmemoryoracle_1_1symbol_1_1Alias.html" target="_top" xlink:title="memoryoracle.symbol.Alias">
<polygon fill="none" stroke="black" points="776,-240.5 776,-259.5 925,-259.5 925,-240.5 776,-240.5"/>
<text text-anchor="middle" x="850.5" y="-247.5" font-family="Helvetica,sans-Serif" font-size="10.00">memoryoracle.symbol.Alias</text>
</a>
</g>
</g>
<!-- Node29&#45;&gt;Node30 -->
<g id="edge29" class="edge"><title>Node29&#45;&gt;Node30</title>
<path fill="none" stroke="midnightblue" d="M661.011,-188.389C685.546,-201.179 723.353,-219.573 758,-231 769.248,-234.71 781.521,-237.849 793.32,-240.441"/>
<polygon fill="midnightblue" stroke="midnightblue" points="662.458,-185.195 651.981,-183.621 659.19,-191.385 662.458,-185.195"/>
</g>
<!-- Node32 -->
<g id="node32" class="node"><title>Node32</title>
<g id="a_node32"><a xlink:href="classmemoryoracle_1_1symbol_1_1Function.html" target="_top" xlink:title="memoryoracle.symbol.Function">
<polygon fill="none" stroke="black" points="767,-202.5 767,-221.5 934,-221.5 934,-202.5 767,-202.5"/>
<text text-anchor="middle" x="850.5" y="-209.5" font-family="Helvetica,sans-Serif" font-size="10.00">memoryoracle.symbol.Function</text>
</a>
</g>
</g>
<!-- Node29&#45;&gt;Node32 -->
<g id="edge31" class="edge"><title>Node29&#45;&gt;Node32</title>
<path fill="none" stroke="midnightblue" d="M698.7,-185.347C729.547,-190.799 766.106,-197.261 795.502,-202.456"/>
<polygon fill="midnightblue" stroke="midnightblue" points="698.933,-181.834 688.476,-183.54 697.714,-188.727 698.933,-181.834"/>
</g>
<!-- Node33 -->
<g id="node33" class="node"><title>Node33</title>
<g id="a_node33"><a xlink:href="classmemoryoracle_1_1symbol_1_1Namespace.html" target="_top" xlink:title="memoryoracle.symbol.Namespace">
<polygon fill="none" stroke="black" points="758,-164.5 758,-183.5 943,-183.5 943,-164.5 758,-164.5"/>
<text text-anchor="middle" x="850.5" y="-171.5" font-family="Helvetica,sans-Serif" font-size="10.00">memoryoracle.symbol.Namespace</text>
</a>
</g>
</g>
<!-- Node29&#45;&gt;Node33 -->
<g id="edge32" class="edge"><title>Node29&#45;&gt;Node33</title>
<path fill="none" stroke="midnightblue" d="M725.397,-174C736.153,-174 747.135,-174 757.9,-174"/>
<polygon fill="midnightblue" stroke="midnightblue" points="725.17,-170.5 715.17,-174 725.17,-177.5 725.17,-170.5"/>
</g>
<!-- Node34 -->
<g id="node34" class="node"><title>Node34</title>
<g id="a_node34"><a xlink:href="classmemoryoracle_1_1symbol_1_1TemplateDecorator.html" target="_top" xlink:title="memoryoracle.symbol.Template\lDecorator">
<polygon fill="none" stroke="black" points="765.5,-115 765.5,-145 935.5,-145 935.5,-115 765.5,-115"/>
<text text-anchor="start" x="773.5" y="-133" font-family="Helvetica,sans-Serif" font-size="10.00">memoryoracle.symbol.Template</text>
<text text-anchor="middle" x="850.5" y="-122" font-family="Helvetica,sans-Serif" font-size="10.00">Decorator</text>
</a>
</g>
</g>
<!-- Node29&#45;&gt;Node34 -->
<g id="edge33" class="edge"><title>Node29&#45;&gt;Node34</title>
<path fill="none" stroke="midnightblue" d="M691.188,-162.399C717.12,-157.092 748.176,-150.736 775.885,-145.065"/>
<polygon fill="midnightblue" stroke="midnightblue" points="690.247,-159.019 681.152,-164.453 691.651,-165.877 690.247,-159.019"/>
</g>
<!-- Node36 -->
<g id="node36" class="node"><title>Node36</title>
<g id="a_node36"><a xlink:href="classmemoryoracle_1_1symbol_1_1Type.html" target="_top" xlink:title="memoryoracle.symbol.Type">
<polygon fill="none" stroke="black" points="776.5,-76.5 776.5,-95.5 924.5,-95.5 924.5,-76.5 776.5,-76.5"/>
<text text-anchor="middle" x="850.5" y="-83.5" font-family="Helvetica,sans-Serif" font-size="10.00">memoryoracle.symbol.Type</text>
</a>
</g>
</g>
<!-- Node29&#45;&gt;Node36 -->
<g id="edge35" class="edge"><title>Node29&#45;&gt;Node36</title>
<path fill="none" stroke="midnightblue" d="M656.635,-158.884C680.604,-143.188 720.456,-119.008 758,-105 768.184,-101.2 779.305,-98.0876 790.175,-95.5632"/>
<polygon fill="midnightblue" stroke="midnightblue" points="654.657,-155.996 648.265,-164.445 658.531,-161.826 654.657,-155.996"/>
</g>
<!-- Node42 -->
<g id="node42" class="node"><title>Node42</title>
<g id="a_node42"><a xlink:href="classmemoryoracle_1_1symbol_1_1Variable.html" target="_top" xlink:title="memoryoracle.symbol.Variable">
<polygon fill="none" stroke="black" points="768,-38.5 768,-57.5 933,-57.5 933,-38.5 768,-38.5"/>
<text text-anchor="middle" x="850.5" y="-45.5" font-family="Helvetica,sans-Serif" font-size="10.00">memoryoracle.symbol.Variable</text>
</a>
</g>
</g>
<!-- Node29&#45;&gt;Node42 -->
<g id="edge41" class="edge"><title>Node29&#45;&gt;Node42</title>
<path fill="none" stroke="midnightblue" d="M648.978,-156.855C670.283,-132.811 712.507,-89.502 758,-67 765.853,-63.1157 774.464,-60.0247 783.164,-57.5652"/>
<polygon fill="midnightblue" stroke="midnightblue" points="646.26,-154.647 642.343,-164.491 651.544,-159.238 646.26,-154.647"/>
</g>
<!-- Node31 -->
<g id="node31" class="node"><title>Node31</title>
<g id="a_node31"><a xlink:href="classmemoryoracle_1_1symbol_1_1Typedef.html" target="_top" xlink:title="memoryoracle.symbol.Typedef">
<polygon fill="none" stroke="black" points="988,-240.5 988,-259.5 1151,-259.5 1151,-240.5 988,-240.5"/>
<text text-anchor="middle" x="1069.5" y="-247.5" font-family="Helvetica,sans-Serif" font-size="10.00">memoryoracle.symbol.Typedef</text>
</a>
</g>
</g>
<!-- Node30&#45;&gt;Node31 -->
<g id="edge30" class="edge"><title>Node30&#45;&gt;Node31</title>
<path fill="none" stroke="midnightblue" d="M935.317,-250C952.579,-250 970.722,-250 987.868,-250"/>
<polygon fill="midnightblue" stroke="midnightblue" points="935.269,-246.5 925.269,-250 935.269,-253.5 935.269,-246.5"/>
</g>
<!-- Node35 -->
<g id="node35" class="node"><title>Node35</title>
<g id="a_node35"><a xlink:href="classmemoryoracle_1_1symbol_1_1TemplatedDecorator.html" target="_top" xlink:title="memoryoracle.symbol.Templated\lDecorator">
<polygon fill="none" stroke="black" points="981.5,-153 981.5,-183 1157.5,-183 1157.5,-153 981.5,-153"/>
<text text-anchor="start" x="989.5" y="-171" font-family="Helvetica,sans-Serif" font-size="10.00">memoryoracle.symbol.Templated</text>
<text text-anchor="middle" x="1069.5" y="-160" font-family="Helvetica,sans-Serif" font-size="10.00">Decorator</text>
</a>
</g>
</g>
<!-- Node34&#45;&gt;Node35 -->
<g id="edge34" class="edge"><title>Node34&#45;&gt;Node35</title>
<path fill="none" stroke="midnightblue" d="M945.879,-146.527C958.07,-148.662 970.503,-150.839 982.549,-152.949"/>
<polygon fill="midnightblue" stroke="midnightblue" points="946.162,-143.024 935.708,-144.746 944.955,-149.919 946.162,-143.024"/>
</g>
<!-- Node37 -->
<g id="node37" class="node"><title>Node37</title>
<g id="a_node37"><a xlink:href="classmemoryoracle_1_1symbol_1_1Enum.html" target="_top" xlink:title="memoryoracle.symbol.Enum">
<polygon fill="none" stroke="black" points="992,-114.5 992,-133.5 1147,-133.5 1147,-114.5 992,-114.5"/>
<text text-anchor="middle" x="1069.5" y="-121.5" font-family="Helvetica,sans-Serif" font-size="10.00">memoryoracle.symbol.Enum</text>
</a>
</g>
</g>
<!-- Node36&#45;&gt;Node37 -->
<g id="edge36" class="edge"><title>Node36&#45;&gt;Node37</title>
<path fill="none" stroke="midnightblue" d="M915.891,-97.2759C947.111,-102.743 984.202,-109.238 1014,-114.456"/>
<polygon fill="midnightblue" stroke="midnightblue" points="916.432,-93.8174 905.978,-95.54 915.225,-100.712 916.432,-93.8174"/>
</g>
<!-- Node38 -->
<g id="node38" class="node"><title>Node38</title>
<g id="a_node38"><a xlink:href="classmemoryoracle_1_1symbol_1_1SimpleType.html" target="_top" xlink:title="memoryoracle.symbol.SimpleType">
<polygon fill="none" stroke="black" points="979,-76.5 979,-95.5 1160,-95.5 1160,-76.5 979,-76.5"/>
<text text-anchor="middle" x="1069.5" y="-83.5" font-family="Helvetica,sans-Serif" font-size="10.00">memoryoracle.symbol.SimpleType</text>
</a>
</g>
</g>
<!-- Node36&#45;&gt;Node38 -->
<g id="edge37" class="edge"><title>Node36&#45;&gt;Node38</title>
<path fill="none" stroke="midnightblue" d="M934.969,-86C949.291,-86 964.229,-86 978.709,-86"/>
<polygon fill="midnightblue" stroke="midnightblue" points="934.664,-82.5001 924.664,-86 934.664,-89.5001 934.664,-82.5001"/>
</g>
<!-- Node39 -->
<g id="node39" class="node"><title>Node39</title>
<g id="a_node39"><a xlink:href="classmemoryoracle_1_1symbol_1_1Structure.html" target="_top" xlink:title="memoryoracle.symbol.Structure">
<polygon fill="none" stroke="black" points="983.5,-38.5 983.5,-57.5 1155.5,-57.5 1155.5,-38.5 983.5,-38.5"/>
<text text-anchor="middle" x="1069.5" y="-45.5" font-family="Helvetica,sans-Serif" font-size="10.00">memoryoracle.symbol.Structure</text>
</a>
</g>
</g>
<!-- Node36&#45;&gt;Node39 -->
<g id="edge38" class="edge"><title>Node36&#45;&gt;Node39</title>
<path fill="none" stroke="midnightblue" d="M915.891,-74.7241C947.111,-69.2571 984.202,-62.7619 1014,-57.5439"/>
<polygon fill="midnightblue" stroke="midnightblue" points="915.225,-71.2875 905.978,-76.46 916.432,-78.1826 915.225,-71.2875"/>
</g>
<!-- Node41 -->
<g id="node41" class="node"><title>Node41</title>
<g id="a_node41"><a xlink:href="classmemoryoracle_1_1symbol_1_1Union.html" target="_top" xlink:title="memoryoracle.symbol.Union">
<polygon fill="none" stroke="black" points="992,-0.5 992,-19.5 1147,-19.5 1147,-0.5 992,-0.5"/>
<text text-anchor="middle" x="1069.5" y="-7.5" font-family="Helvetica,sans-Serif" font-size="10.00">memoryoracle.symbol.Union</text>
</a>
</g>
</g>
<!-- Node36&#45;&gt;Node41 -->
<g id="edge40" class="edge"><title>Node36&#45;&gt;Node41</title>
<path fill="none" stroke="midnightblue" d="M930.362,-72.9567C934.739,-71.2133 938.986,-69.238 943,-67 963.32,-55.6717 958.705,-40.3734 979,-29 985.928,-25.1172 993.565,-22.0264 1001.37,-19.5662"/>
<polygon fill="midnightblue" stroke="midnightblue" points="928.862,-69.7747 920.607,-76.4149 931.201,-76.3724 928.862,-69.7747"/>
</g>
<!-- Node40 -->
<g id="node40" class="node"><title>Node40</title>
<g id="a_node40"><a xlink:href="classmemoryoracle_1_1symbol_1_1StronglyTypedEnum.html" target="_top" xlink:title="memoryoracle.symbol.Strongly\lTypedEnum">
<polygon fill="none" stroke="black" points="1196,-33 1196,-63 1363,-63 1363,-33 1196,-33"/>
<text text-anchor="start" x="1204" y="-51" font-family="Helvetica,sans-Serif" font-size="10.00">memoryoracle.symbol.Strongly</text>
<text text-anchor="middle" x="1279.5" y="-40" font-family="Helvetica,sans-Serif" font-size="10.00">TypedEnum</text>
</a>
</g>
</g>
<!-- Node39&#45;&gt;Node40 -->
<g id="edge39" class="edge"><title>Node39&#45;&gt;Node40</title>
<path fill="none" stroke="midnightblue" d="M1166.01,-48C1175.95,-48 1186,-48 1195.78,-48"/>
<polygon fill="midnightblue" stroke="midnightblue" points="1165.7,-44.5001 1155.7,-48 1165.7,-51.5001 1165.7,-44.5001"/>
</g>
</g>
</svg>
