<?xml version="1.0" encoding="UTF-8" standalone="no"?>
<!DOCTYPE svg PUBLIC "-//W3C//DTD SVG 1.1//EN"
 "http://www.w3.org/Graphics/SVG/1.1/DTD/svg11.dtd">
<!-- Generated by graphviz version 2.38.0 (20140413.2041)
 -->
<!-- Title: Graphical Class Hierarchy Pages: 1 -->
<svg width="669pt" height="1096pt"
 viewBox="0.00 0.00 669.00 1096.00" xmlns="http://www.w3.org/2000/svg" xmlns:xlink="http://www.w3.org/1999/xlink">
<g id="graph0" class="graph" transform="scale(1 1) rotate(0) translate(4 1092)">
<title>Graphical Class Hierarchy</title>
<!-- Node1 -->
<g id="node1" class="node"><title>Node1</title>
<polygon fill="none" stroke="#bfbfbf" points="0,-254 0,-273 46,-273 46,-254 0,-254"/>
<text text-anchor="middle" x="23" y="-261" font-family="Helvetica,sans-Serif" font-size="10.00">object</text>
</g>
<!-- Node2 -->
<g id="node2" class="node"><title>Node2</title>
<g id="a_node2"><a xlink:href="classmemoryoracle_1_1descriptions_1_1Description.html" target="_top" xlink:title="memoryoracle.descriptions.\lDescription">
<polygon fill="none" stroke="black" points="90.5,-465.5 90.5,-495.5 240.5,-495.5 240.5,-465.5 90.5,-465.5"/>
<text text-anchor="start" x="98.5" y="-483.5" font-family="Helvetica,sans-Serif" font-size="10.00">memoryoracle.descriptions.</text>
<text text-anchor="middle" x="165.5" y="-472.5" font-family="Helvetica,sans-Serif" font-size="10.00">Description</text>
</a>
</g>
</g>
<!-- Node1&#45;&gt;Node2 -->
<g id="edge1" class="edge"><title>Node1&#45;&gt;Node2</title>
<path fill="none" stroke="midnightblue" d="M35.8118,-281.743C62.9743,-323.695 129.47,-426.397 154.634,-465.262"/>
<polygon fill="midnightblue" stroke="midnightblue" points="38.5913,-279.596 30.2184,-273.104 32.7154,-283.401 38.5913,-279.596"/>
</g>
<!-- Node10 -->
<g id="node10" class="node"><title>Node10</title>
<g id="a_node10"><a xlink:href="classmemoryoracle_1_1frame_1_1Frame.html" target="_top" xlink:title="memoryoracle.frame.Frame">
<polygon fill="none" stroke="black" points="90,-273 90,-292 241,-292 241,-273 90,-273"/>
<text text-anchor="middle" x="165.5" y="-280" font-family="Helvetica,sans-Serif" font-size="10.00">memoryoracle.frame.Frame</text>
</a>
</g>
</g>
<!-- Node1&#45;&gt;Node10 -->
<g id="edge9" class="edge"><title>Node1&#45;&gt;Node10</title>
<path fill="none" stroke="midnightblue" d="M56.4514,-267.888C67.7329,-269.414 80.8665,-271.19 94.0112,-272.968"/>
<polygon fill="midnightblue" stroke="midnightblue" points="56.6415,-264.382 46.2626,-266.511 55.7034,-271.319 56.6415,-264.382"/>
</g>
<!-- Node11 -->
<g id="node11" class="node"><title>Node11</title>
<g id="a_node11"><a xlink:href="classmemoryoracle_1_1frame_1_1Selector.html" target="_top" xlink:title="memoryoracle.frame.Selector">
<polygon fill="none" stroke="black" points="85,-235 85,-254 246,-254 246,-235 85,-235"/>
<text text-anchor="middle" x="165.5" y="-242" font-family="Helvetica,sans-Serif" font-size="10.00">memoryoracle.frame.Selector</text>
</a>
</g>
</g>
<!-- Node1&#45;&gt;Node11 -->
<g id="edge10" class="edge"><title>Node1&#45;&gt;Node11</title>
<path fill="none" stroke="midnightblue" d="M56.4514,-259.112C67.7329,-257.586 80.8665,-255.81 94.0112,-254.032"/>
<polygon fill="midnightblue" stroke="midnightblue" points="55.7034,-255.681 46.2626,-260.489 56.6415,-262.618 55.7034,-255.681"/>
</g>
<!-- Node12 -->
<g id="node12" class="node"><title>Node12</title>
<g id="a_node12"><a xlink:href="classmemoryoracle_1_1models_1_1Schema.html" target="_top" xlink:title="memoryoracle.models.Schema">
<polygon fill="none" stroke="black" points="82,-197 82,-216 249,-216 249,-197 82,-197"/>
<text text-anchor="middle" x="165.5" y="-204" font-family="Helvetica,sans-Serif" font-size="10.00">memoryoracle.models.Schema</text>
</a>
</g>
</g>
<!-- Node1&#45;&gt;Node12 -->
<g id="edge11" class="edge"><title>Node1&#45;&gt;Node12</title>
<path fill="none" stroke="midnightblue" d="M44.3816,-247.58C55.0672,-239.917 68.6779,-231.182 82,-225.5 90.9228,-221.694 100.728,-218.588 110.368,-216.073"/>
<polygon fill="midnightblue" stroke="midnightblue" points="42.1117,-244.905 36.1643,-253.674 46.2815,-250.528 42.1117,-244.905"/>
</g>
<!-- Node13 -->
<g id="node13" class="node"><title>Node13</title>
<g id="a_node13"><a xlink:href="classmemoryoracle_1_1registry_1_1TypeRegistration.html" target="_top" xlink:title="memoryoracle.registry.Type\lRegistration">
<polygon fill="none" stroke="black" points="91.5,-147.5 91.5,-177.5 239.5,-177.5 239.5,-147.5 91.5,-147.5"/>
<text text-anchor="start" x="99.5" y="-165.5" font-family="Helvetica,sans-Serif" font-size="10.00">memoryoracle.registry.Type</text>
<text text-anchor="middle" x="165.5" y="-154.5" font-family="Helvetica,sans-Serif" font-size="10.00">Registration</text>
</a>
</g>
</g>
<!-- Node1&#45;&gt;Node13 -->
<g id="edge12" class="edge"><title>Node1&#45;&gt;Node13</title>
<path fill="none" stroke="midnightblue" d="M33.8368,-244.633C43.7733,-227.356 60.6829,-202.291 82,-187.5 87.5333,-183.661 93.6704,-180.399 100.028,-177.63"/>
<polygon fill="midnightblue" stroke="midnightblue" points="30.5645,-243.32 28.8116,-253.769 36.6978,-246.694 30.5645,-243.32"/>
</g>
<!-- Node14 -->
<g id="node14" class="node"><title>Node14</title>
<g id="a_node14"><a xlink:href="classmemoryoracle_1_1test__models_1_1ModelTest.html" target="_top" xlink:title="memoryoracle.test_models.\lModelTest">
<polygon fill="none" stroke="black" points="89.5,-98.5 89.5,-128.5 241.5,-128.5 241.5,-98.5 89.5,-98.5"/>
<text text-anchor="start" x="97.5" y="-116.5" font-family="Helvetica,sans-Serif" font-size="10.00">memoryoracle.test_models.</text>
<text text-anchor="middle" x="165.5" y="-105.5" font-family="Helvetica,sans-Serif" font-size="10.00">ModelTest</text>
</a>
</g>
</g>
<!-- Node1&#45;&gt;Node14 -->
<g id="edge13" class="edge"><title>Node1&#45;&gt;Node14</title>
<path fill="none" stroke="midnightblue" d="M27.6913,-243.935C33.9488,-216.196 49.2913,-165.685 82,-137.5 85.955,-134.092 90.3707,-131.167 95.0471,-128.657"/>
<polygon fill="midnightblue" stroke="midnightblue" points="24.2106,-243.482 25.6005,-253.985 31.0639,-244.908 24.2106,-243.482"/>
</g>
<!-- Node23 -->
<g id="node23" class="node"><title>Node23</title>
<g id="a_node23"><a xlink:href="classmemoryoracle_1_1test__models_1_1ModelTestData.html" target="_top" xlink:title="memoryoracle.test_models.\lModelTestData">
<polygon fill="none" stroke="black" points="89.5,-861.5 89.5,-891.5 241.5,-891.5 241.5,-861.5 89.5,-861.5"/>
<text text-anchor="start" x="97.5" y="-879.5" font-family="Helvetica,sans-Serif" font-size="10.00">memoryoracle.test_models.</text>
<text text-anchor="middle" x="165.5" y="-868.5" font-family="Helvetica,sans-Serif" font-size="10.00">ModelTestData</text>
</a>
</g>
</g>
<!-- Node1&#45;&gt;Node23 -->
<g id="edge22" class="edge"><title>Node1&#45;&gt;Node23</title>
<path fill="none" stroke="midnightblue" d="M25.2139,-283.166C29.1963,-342.143 43.8649,-522.356 82,-666.5 101.987,-742.047 140.925,-827.381 157.139,-861.368"/>
<polygon fill="midnightblue" stroke="midnightblue" points="28.6966,-282.786 24.5561,-273.033 21.7113,-283.239 28.6966,-282.786"/>
</g>
<!-- Node32 -->
<g id="node32" class="node"><title>Node32</title>
<g id="a_node32"><a xlink:href="classmemoryoracle_1_1whip_1_1Coffee.html" target="_top" xlink:title="memoryoracle.whip.Coffee">
<polygon fill="none" stroke="black" points="93.5,-638 93.5,-657 237.5,-657 237.5,-638 93.5,-638"/>
<text text-anchor="middle" x="165.5" y="-645" font-family="Helvetica,sans-Serif" font-size="10.00">memoryoracle.whip.Coffee</text>
</a>
</g>
</g>
<!-- Node1&#45;&gt;Node32 -->
<g id="edge31" class="edge"><title>Node1&#45;&gt;Node32</title>
<path fill="none" stroke="midnightblue" d="M26.8202,-283.492C33.1789,-325.549 50.5845,-425.783 82,-504.5 103.354,-558.006 142.034,-615.646 157.669,-637.944"/>
<polygon fill="midnightblue" stroke="midnightblue" points="30.2619,-282.838 25.3475,-273.452 23.336,-283.854 30.2619,-282.838"/>
</g>
<!-- Node3 -->
<g id="node3" class="node"><title>Node3</title>
<g id="a_node3"><a xlink:href="classmemoryoracle_1_1descriptions_1_1BlackBoxDecorator.html" target="_top" xlink:title="memoryoracle.descriptions.\lBlackBoxDecorator">
<polygon fill="none" stroke="black" points="305,-392.5 305,-422.5 455,-422.5 455,-392.5 305,-392.5"/>
<text text-anchor="start" x="313" y="-410.5" font-family="Helvetica,sans-Serif" font-size="10.00">memoryoracle.descriptions.</text>
<text text-anchor="middle" x="380" y="-399.5" font-family="Helvetica,sans-Serif" font-size="10.00">BlackBoxDecorator</text>
</a>
</g>
</g>
<!-- Node2&#45;&gt;Node3 -->
<g id="edge2" class="edge"><title>Node2&#45;&gt;Node3</title>
<path fill="none" stroke="midnightblue" d="M208.454,-461.443C230.876,-451.695 259.122,-440.105 285,-431.5 294.589,-428.311 304.847,-425.299 314.934,-422.555"/>
<polygon fill="midnightblue" stroke="midnightblue" points="206.975,-458.269 199.225,-465.493 209.789,-464.679 206.975,-458.269"/>
</g>
<!-- Node4 -->
<g id="node4" class="node"><title>Node4</title>
<g id="a_node4"><a xlink:href="classmemoryoracle_1_1descriptions_1_1ExternalDescriptionDecorator.html" target="_top" xlink:title="memoryoracle.descriptions.\lExternalDescriptionDecorator">
<polygon fill="none" stroke="black" points="301,-588.5 301,-618.5 459,-618.5 459,-588.5 301,-588.5"/>
<text text-anchor="start" x="309" y="-606.5" font-family="Helvetica,sans-Serif" font-size="10.00">memoryoracle.descriptions.</text>
<text text-anchor="middle" x="380" y="-595.5" font-family="Helvetica,sans-Serif" font-size="10.00">ExternalDescriptionDecorator</text>
</a>
</g>
</g>
<!-- Node2&#45;&gt;Node4 -->
<g id="edge3" class="edge"><title>Node2&#45;&gt;Node4</title>
<path fill="none" stroke="midnightblue" d="M187.922,-503.208C210.173,-525.504 246.994,-558.932 285,-578.5 292.507,-582.365 300.667,-585.674 308.939,-588.496"/>
<polygon fill="midnightblue" stroke="midnightblue" points="190.183,-500.515 180.682,-495.828 185.186,-505.417 190.183,-500.515"/>
</g>
<!-- Node5 -->
<g id="node5" class="node"><title>Node5</title>
<g id="a_node5"><a xlink:href="classmemoryoracle_1_1descriptions_1_1FileDescription.html" target="_top" xlink:title="memoryoracle.descriptions.\lFileDescription">
<polygon fill="none" stroke="black" points="305,-539.5 305,-569.5 455,-569.5 455,-539.5 305,-539.5"/>
<text text-anchor="start" x="313" y="-557.5" font-family="Helvetica,sans-Serif" font-size="10.00">memoryoracle.descriptions.</text>
<text text-anchor="middle" x="380" y="-546.5" font-family="Helvetica,sans-Serif" font-size="10.00">FileDescription</text>
</a>
</g>
</g>
<!-- Node2&#45;&gt;Node5 -->
<g id="edge4" class="edge"><title>Node2&#45;&gt;Node5</title>
<path fill="none" stroke="midnightblue" d="M208.73,-499.557C231.123,-509.253 259.257,-520.797 285,-529.5 295.478,-533.042 306.748,-536.409 317.719,-539.457"/>
<polygon fill="midnightblue" stroke="midnightblue" points="210.073,-496.324 199.508,-495.528 207.271,-502.738 210.073,-496.324"/>
</g>
<!-- Node8 -->
<g id="node8" class="node"><title>Node8</title>
<g id="a_node8"><a xlink:href="classmemoryoracle_1_1descriptions_1_1MemoryDescription.html" target="_top" xlink:title="memoryoracle.descriptions.\lMemoryDescription">
<polygon fill="none" stroke="black" points="305,-490.5 305,-520.5 455,-520.5 455,-490.5 305,-490.5"/>
<text text-anchor="start" x="313" y="-508.5" font-family="Helvetica,sans-Serif" font-size="10.00">memoryoracle.descriptions.</text>
<text text-anchor="middle" x="380" y="-497.5" font-family="Helvetica,sans-Serif" font-size="10.00">MemoryDescription</text>
</a>
</g>
</g>
<!-- Node2&#45;&gt;Node8 -->
<g id="edge7" class="edge"><title>Node2&#45;&gt;Node8</title>
<path fill="none" stroke="midnightblue" d="M250.663,-490.402C268.58,-492.509 287.373,-494.72 304.882,-496.78"/>
<polygon fill="midnightblue" stroke="midnightblue" points="250.864,-486.901 240.524,-489.209 250.046,-493.853 250.864,-486.901"/>
</g>
<!-- Node9 -->
<g id="node9" class="node"><title>Node9</title>
<g id="a_node9"><a xlink:href="classmemoryoracle_1_1descriptions_1_1StandardDescriptionDecorator.html" target="_top" xlink:title="memoryoracle.descriptions.\lStandardDescriptionDecorator">
<polygon fill="none" stroke="black" points="298.5,-441.5 298.5,-471.5 461.5,-471.5 461.5,-441.5 298.5,-441.5"/>
<text text-anchor="start" x="306.5" y="-459.5" font-family="Helvetica,sans-Serif" font-size="10.00">memoryoracle.descriptions.</text>
<text text-anchor="middle" x="380" y="-448.5" font-family="Helvetica,sans-Serif" font-size="10.00">StandardDescriptionDecorator</text>
</a>
</g>
</g>
<!-- Node2&#45;&gt;Node9 -->
<g id="edge8" class="edge"><title>Node2&#45;&gt;Node9</title>
<path fill="none" stroke="midnightblue" d="M250.724,-470.988C266.415,-469.215 282.777,-467.368 298.357,-465.608"/>
<polygon fill="midnightblue" stroke="midnightblue" points="250.068,-467.539 240.524,-472.14 250.854,-474.495 250.068,-467.539"/>
</g>
<!-- Node6 -->
<g id="node6" class="node"><title>Node6</title>
<g id="a_node6"><a xlink:href="classmemoryoracle_1_1descriptions_1_1ObjectFileDescription.html" target="_top" xlink:title="memoryoracle.descriptions.\lObjectFileDescription">
<polygon fill="none" stroke="black" points="511,-564.5 511,-594.5 661,-594.5 661,-564.5 511,-564.5"/>
<text text-anchor="start" x="519" y="-582.5" font-family="Helvetica,sans-Serif" font-size="10.00">memoryoracle.descriptions.</text>
<text text-anchor="middle" x="586" y="-571.5" font-family="Helvetica,sans-Serif" font-size="10.00">ObjectFileDescription</text>
</a>
</g>
</g>
<!-- Node5&#45;&gt;Node6 -->
<g id="edge5" class="edge"><title>Node5&#45;&gt;Node6</title>
<path fill="none" stroke="midnightblue" d="M465.531,-564.859C480.562,-566.701 496.114,-568.607 510.83,-570.41"/>
<polygon fill="midnightblue" stroke="midnightblue" points="465.577,-561.339 455.226,-563.596 464.726,-568.287 465.577,-561.339"/>
</g>
<!-- Node7 -->
<g id="node7" class="node"><title>Node7</title>
<g id="a_node7"><a xlink:href="classmemoryoracle_1_1descriptions_1_1SourceFileDescription.html" target="_top" xlink:title="memoryoracle.descriptions.\lSourceFileDescription">
<polygon fill="none" stroke="black" points="511,-515.5 511,-545.5 661,-545.5 661,-515.5 511,-515.5"/>
<text text-anchor="start" x="519" y="-533.5" font-family="Helvetica,sans-Serif" font-size="10.00">memoryoracle.descriptions.</text>
<text text-anchor="middle" x="586" y="-522.5" font-family="Helvetica,sans-Serif" font-size="10.00">SourceFileDescription</text>
</a>
</g>
</g>
<!-- Node5&#45;&gt;Node7 -->
<g id="edge6" class="edge"><title>Node5&#45;&gt;Node7</title>
<path fill="none" stroke="midnightblue" d="M465.531,-544.555C480.562,-542.787 496.114,-540.957 510.83,-539.226"/>
<polygon fill="midnightblue" stroke="midnightblue" points="464.748,-541.123 455.226,-545.768 465.566,-548.075 464.748,-541.123"/>
</g>
<!-- Node15 -->
<g id="node15" class="node"><title>Node15</title>
<g id="a_node15"><a xlink:href="classmemoryoracle_1_1test__models_1_1TestModelCommit.html" target="_top" xlink:title="memoryoracle.test_models.\lTestModelCommit">
<polygon fill="none" stroke="black" points="304,-294.5 304,-324.5 456,-324.5 456,-294.5 304,-294.5"/>
<text text-anchor="start" x="312" y="-312.5" font-family="Helvetica,sans-Serif" font-size="10.00">memoryoracle.test_models.</text>
<text text-anchor="middle" x="380" y="-301.5" font-family="Helvetica,sans-Serif" font-size="10.00">TestModelCommit</text>
</a>
</g>
</g>
<!-- Node14&#45;&gt;Node15 -->
<g id="edge14" class="edge"><title>Node14&#45;&gt;Node15</title>
<path fill="none" stroke="midnightblue" d="M246.108,-134.706C247.106,-135.6 248.071,-136.531 249,-137.5 295.531,-186.073 237.91,-236.469 285,-284.5 290.438,-290.047 296.957,-294.407 303.993,-297.829"/>
<polygon fill="midnightblue" stroke="midnightblue" points="247.977,-131.733 237.871,-128.552 243.787,-137.341 247.977,-131.733"/>
</g>
<!-- Node16 -->
<g id="node16" class="node"><title>Node16</title>
<g id="a_node16"><a xlink:href="classmemoryoracle_1_1test__models_1_1TestModelExecutable.html" target="_top" xlink:title="memoryoracle.test_models.\lTestModelExecutable">
<polygon fill="none" stroke="black" points="304,-245.5 304,-275.5 456,-275.5 456,-245.5 304,-245.5"/>
<text text-anchor="start" x="312" y="-263.5" font-family="Helvetica,sans-Serif" font-size="10.00">memoryoracle.test_models.</text>
<text text-anchor="middle" x="380" y="-252.5" font-family="Helvetica,sans-Serif" font-size="10.00">TestModelExecutable</text>
</a>
</g>
</g>
<!-- Node14&#45;&gt;Node16 -->
<g id="edge15" class="edge"><title>Node14&#45;&gt;Node16</title>
<path fill="none" stroke="midnightblue" d="M245.017,-134.104C246.395,-135.18 247.725,-136.31 249,-137.5 282.922,-169.16 250.714,-204.235 285,-235.5 290.49,-240.506 296.87,-244.531 303.671,-247.762"/>
<polygon fill="midnightblue" stroke="midnightblue" points="246.919,-131.166 236.656,-128.535 243.039,-136.992 246.919,-131.166"/>
</g>
<!-- Node17 -->
<g id="node17" class="node"><title>Node17</title>
<g id="a_node17"><a xlink:href="classmemoryoracle_1_1test__models_1_1TestModelExecution.html" target="_top" xlink:title="memoryoracle.test_models.\lTestModelExecution">
<polygon fill="none" stroke="black" points="304,-196.5 304,-226.5 456,-226.5 456,-196.5 304,-196.5"/>
<text text-anchor="start" x="312" y="-214.5" font-family="Helvetica,sans-Serif" font-size="10.00">memoryoracle.test_models.</text>
<text text-anchor="middle" x="380" y="-203.5" font-family="Helvetica,sans-Serif" font-size="10.00">TestModelExecution</text>
</a>
</g>
</g>
<!-- Node14&#45;&gt;Node17 -->
<g id="edge16" class="edge"><title>Node14&#45;&gt;Node17</title>
<path fill="none" stroke="midnightblue" d="M242.325,-133.284C244.628,-134.601 246.861,-136.004 249,-137.5 271.148,-152.984 262.674,-171.274 285,-186.5 290.72,-190.401 297.019,-193.694 303.564,-196.473"/>
<polygon fill="midnightblue" stroke="midnightblue" points="243.644,-130.029 233.143,-128.624 240.476,-136.271 243.644,-130.029"/>
</g>
<!-- Node18 -->
<g id="node18" class="node"><title>Node18</title>
<g id="a_node18"><a xlink:href="classmemoryoracle_1_1test__models_1_1TestModelMemory.html" target="_top" xlink:title="memoryoracle.test_models.\lTestModelMemory">
<polygon fill="none" stroke="black" points="304,-147.5 304,-177.5 456,-177.5 456,-147.5 304,-147.5"/>
<text text-anchor="start" x="312" y="-165.5" font-family="Helvetica,sans-Serif" font-size="10.00">memoryoracle.test_models.</text>
<text text-anchor="middle" x="380" y="-154.5" font-family="Helvetica,sans-Serif" font-size="10.00">TestModelMemory</text>
</a>
</g>
</g>
<!-- Node14&#45;&gt;Node18 -->
<g id="edge17" class="edge"><title>Node14&#45;&gt;Node18</title>
<path fill="none" stroke="midnightblue" d="M241.66,-130.831C265.253,-136.271 291.088,-142.229 313.922,-147.494"/>
<polygon fill="midnightblue" stroke="midnightblue" points="242.232,-127.371 231.701,-128.535 240.659,-134.192 242.232,-127.371"/>
</g>
<!-- Node19 -->
<g id="node19" class="node"><title>Node19</title>
<g id="a_node19"><a xlink:href="classmemoryoracle_1_1test__models_1_1TestModelObjectFile.html" target="_top" xlink:title="memoryoracle.test_models.\lTestModelObjectFile">
<polygon fill="none" stroke="black" points="304,-98.5 304,-128.5 456,-128.5 456,-98.5 304,-98.5"/>
<text text-anchor="start" x="312" y="-116.5" font-family="Helvetica,sans-Serif" font-size="10.00">memoryoracle.test_models.</text>
<text text-anchor="middle" x="380" y="-105.5" font-family="Helvetica,sans-Serif" font-size="10.00">TestModelObjectFile</text>
</a>
</g>
</g>
<!-- Node14&#45;&gt;Node19 -->
<g id="edge18" class="edge"><title>Node14&#45;&gt;Node19</title>
<path fill="none" stroke="midnightblue" d="M251.767,-113.5C269.01,-113.5 287.02,-113.5 303.882,-113.5"/>
<polygon fill="midnightblue" stroke="midnightblue" points="251.719,-110 241.719,-113.5 251.719,-117 251.719,-110"/>
</g>
<!-- Node20 -->
<g id="node20" class="node"><title>Node20</title>
<g id="a_node20"><a xlink:href="classmemoryoracle_1_1test__models_1_1TestModelProgram.html" target="_top" xlink:title="memoryoracle.test_models.\lTestModelProgram">
<polygon fill="none" stroke="black" points="304,-49.5 304,-79.5 456,-79.5 456,-49.5 304,-49.5"/>
<text text-anchor="start" x="312" y="-67.5" font-family="Helvetica,sans-Serif" font-size="10.00">memoryoracle.test_models.</text>
<text text-anchor="middle" x="380" y="-56.5" font-family="Helvetica,sans-Serif" font-size="10.00">TestModelProgram</text>
</a>
</g>
</g>
<!-- Node14&#45;&gt;Node20 -->
<g id="edge19" class="edge"><title>Node14&#45;&gt;Node20</title>
<path fill="none" stroke="midnightblue" d="M241.66,-96.1691C265.253,-90.7288 291.088,-84.7715 313.922,-79.5062"/>
<polygon fill="midnightblue" stroke="midnightblue" points="240.659,-92.8079 231.701,-98.4654 242.232,-99.6289 240.659,-92.8079"/>
</g>
<!-- Node21 -->
<g id="node21" class="node"><title>Node21</title>
<g id="a_node21"><a xlink:href="classmemoryoracle_1_1test__models_1_1TestModelSourceFile.html" target="_top" xlink:title="memoryoracle.test_models.\lTestModelSourceFile">
<polygon fill="none" stroke="black" points="304,-0.5 304,-30.5 456,-30.5 456,-0.5 304,-0.5"/>
<text text-anchor="start" x="312" y="-18.5" font-family="Helvetica,sans-Serif" font-size="10.00">memoryoracle.test_models.</text>
<text text-anchor="middle" x="380" y="-7.5" font-family="Helvetica,sans-Serif" font-size="10.00">TestModelSourceFile</text>
</a>
</g>
</g>
<!-- Node14&#45;&gt;Node21 -->
<g id="edge20" class="edge"><title>Node14&#45;&gt;Node21</title>
<path fill="none" stroke="midnightblue" d="M194.733,-92.3679C217.92,-75.8972 252.174,-53.5377 285,-39.5 292.898,-36.1225 301.38,-33.1383 309.899,-30.5246"/>
<polygon fill="midnightblue" stroke="midnightblue" points="192.481,-89.6766 186.414,-98.3625 196.573,-95.3557 192.481,-89.6766"/>
</g>
<!-- Node22 -->
<g id="node22" class="node"><title>Node22</title>
<g id="a_node22"><a xlink:href="classmemoryoracle_1_1test__models_1_1TestModelSymbol.html" target="_top" xlink:title="memoryoracle.test_models.\lTestModelSymbol">
<polygon fill="none" stroke="black" points="304,-343.5 304,-373.5 456,-373.5 456,-343.5 304,-343.5"/>
<text text-anchor="start" x="312" y="-361.5" font-family="Helvetica,sans-Serif" font-size="10.00">memoryoracle.test_models.</text>
<text text-anchor="middle" x="380" y="-350.5" font-family="Helvetica,sans-Serif" font-size="10.00">TestModelSymbol</text>
</a>
</g>
</g>
<!-- Node14&#45;&gt;Node22 -->
<g id="edge21" class="edge"><title>Node14&#45;&gt;Node22</title>
<path fill="none" stroke="midnightblue" d="M246.592,-135.015C247.421,-135.814 248.225,-136.642 249,-137.5 308.371,-203.222 224.872,-268.47 285,-333.5 290.274,-339.203 296.687,-343.664 303.66,-347.145"/>
<polygon fill="midnightblue" stroke="midnightblue" points="248.489,-132.053 238.48,-128.578 244.137,-137.536 248.489,-132.053"/>
</g>
<!-- Node24 -->
<g id="node24" class="node"><title>Node24</title>
<g id="a_node24"><a xlink:href="classmemoryoracle_1_1test__models_1_1CommitTestData.html" target="_top" xlink:title="memoryoracle.test_models.\lCommitTestData">
<polygon fill="none" stroke="black" points="304,-910.5 304,-940.5 456,-940.5 456,-910.5 304,-910.5"/>
<text text-anchor="start" x="312" y="-928.5" font-family="Helvetica,sans-Serif" font-size="10.00">memoryoracle.test_models.</text>
<text text-anchor="middle" x="380" y="-917.5" font-family="Helvetica,sans-Serif" font-size="10.00">CommitTestData</text>
</a>
</g>
</g>
<!-- Node23&#45;&gt;Node24 -->
<g id="edge23" class="edge"><title>Node23&#45;&gt;Node24</title>
<path fill="none" stroke="midnightblue" d="M241.66,-893.831C265.253,-899.271 291.088,-905.229 313.922,-910.494"/>
<polygon fill="midnightblue" stroke="midnightblue" points="242.232,-890.371 231.701,-891.535 240.659,-897.192 242.232,-890.371"/>
</g>
<!-- Node25 -->
<g id="node25" class="node"><title>Node25</title>
<g id="a_node25"><a xlink:href="classmemoryoracle_1_1test__models_1_1ExecutableTestData.html" target="_top" xlink:title="memoryoracle.test_models.\lExecutableTestData">
<polygon fill="none" stroke="black" points="304,-861.5 304,-891.5 456,-891.5 456,-861.5 304,-861.5"/>
<text text-anchor="start" x="312" y="-879.5" font-family="Helvetica,sans-Serif" font-size="10.00">memoryoracle.test_models.</text>
<text text-anchor="middle" x="380" y="-868.5" font-family="Helvetica,sans-Serif" font-size="10.00">ExecutableTestData</text>
</a>
</g>
</g>
<!-- Node23&#45;&gt;Node25 -->
<g id="edge24" class="edge"><title>Node23&#45;&gt;Node25</title>
<path fill="none" stroke="midnightblue" d="M251.767,-876.5C269.01,-876.5 287.02,-876.5 303.882,-876.5"/>
<polygon fill="midnightblue" stroke="midnightblue" points="251.719,-873 241.719,-876.5 251.719,-880 251.719,-873"/>
</g>
<!-- Node26 -->
<g id="node26" class="node"><title>Node26</title>
<g id="a_node26"><a xlink:href="classmemoryoracle_1_1test__models_1_1ExecutionTestData.html" target="_top" xlink:title="memoryoracle.test_models.\lExecutionTestData">
<polygon fill="none" stroke="black" points="304,-812.5 304,-842.5 456,-842.5 456,-812.5 304,-812.5"/>
<text text-anchor="start" x="312" y="-830.5" font-family="Helvetica,sans-Serif" font-size="10.00">memoryoracle.test_models.</text>
<text text-anchor="middle" x="380" y="-819.5" font-family="Helvetica,sans-Serif" font-size="10.00">ExecutionTestData</text>
</a>
</g>
</g>
<!-- Node23&#45;&gt;Node26 -->
<g id="edge25" class="edge"><title>Node23&#45;&gt;Node26</title>
<path fill="none" stroke="midnightblue" d="M241.66,-859.169C265.253,-853.729 291.088,-847.771 313.922,-842.506"/>
<polygon fill="midnightblue" stroke="midnightblue" points="240.659,-855.808 231.701,-861.465 242.232,-862.629 240.659,-855.808"/>
</g>
<!-- Node27 -->
<g id="node27" class="node"><title>Node27</title>
<g id="a_node27"><a xlink:href="classmemoryoracle_1_1test__models_1_1MemoryTestData.html" target="_top" xlink:title="memoryoracle.test_models.\lMemoryTestData">
<polygon fill="none" stroke="black" points="304,-763.5 304,-793.5 456,-793.5 456,-763.5 304,-763.5"/>
<text text-anchor="start" x="312" y="-781.5" font-family="Helvetica,sans-Serif" font-size="10.00">memoryoracle.test_models.</text>
<text text-anchor="middle" x="380" y="-770.5" font-family="Helvetica,sans-Serif" font-size="10.00">MemoryTestData</text>
</a>
</g>
</g>
<!-- Node23&#45;&gt;Node27 -->
<g id="edge26" class="edge"><title>Node23&#45;&gt;Node27</title>
<path fill="none" stroke="midnightblue" d="M194.733,-855.368C217.92,-838.897 252.174,-816.538 285,-802.5 292.898,-799.123 301.38,-796.138 309.899,-793.525"/>
<polygon fill="midnightblue" stroke="midnightblue" points="192.481,-852.677 186.414,-861.362 196.573,-858.356 192.481,-852.677"/>
</g>
<!-- Node28 -->
<g id="node28" class="node"><title>Node28</title>
<g id="a_node28"><a xlink:href="classmemoryoracle_1_1test__models_1_1ObjectFileTestData.html" target="_top" xlink:title="memoryoracle.test_models.\lObjectFileTestData">
<polygon fill="none" stroke="black" points="304,-714.5 304,-744.5 456,-744.5 456,-714.5 304,-714.5"/>
<text text-anchor="start" x="312" y="-732.5" font-family="Helvetica,sans-Serif" font-size="10.00">memoryoracle.test_models.</text>
<text text-anchor="middle" x="380" y="-721.5" font-family="Helvetica,sans-Serif" font-size="10.00">ObjectFileTestData</text>
</a>
</g>
</g>
<!-- Node23&#45;&gt;Node28 -->
<g id="edge27" class="edge"><title>Node23&#45;&gt;Node28</title>
<path fill="none" stroke="midnightblue" d="M182.687,-853.034C203.229,-825.068 241.292,-778.934 285,-753.5 290.969,-750.027 297.437,-747.051 304.091,-744.501"/>
<polygon fill="midnightblue" stroke="midnightblue" points="179.648,-851.265 176.648,-861.427 185.33,-855.354 179.648,-851.265"/>
</g>
<!-- Node29 -->
<g id="node29" class="node"><title>Node29</title>
<g id="a_node29"><a xlink:href="classmemoryoracle_1_1test__models_1_1ProgramTestData.html" target="_top" xlink:title="memoryoracle.test_models.\lProgramTestData">
<polygon fill="none" stroke="black" points="304,-1057.5 304,-1087.5 456,-1087.5 456,-1057.5 304,-1057.5"/>
<text text-anchor="start" x="312" y="-1075.5" font-family="Helvetica,sans-Serif" font-size="10.00">memoryoracle.test_models.</text>
<text text-anchor="middle" x="380" y="-1064.5" font-family="Helvetica,sans-Serif" font-size="10.00">ProgramTestData</text>
</a>
</g>
</g>
<!-- Node23&#45;&gt;Node29 -->
<g id="edge28" class="edge"><title>Node23&#45;&gt;Node29</title>
<path fill="none" stroke="midnightblue" d="M176.469,-900.858C193.158,-938.501 230.385,-1010.43 285,-1048.5 290.803,-1052.55 297.233,-1055.91 303.926,-1058.71"/>
<polygon fill="midnightblue" stroke="midnightblue" points="179.666,-899.432 172.49,-891.637 173.239,-902.205 179.666,-899.432"/>
</g>
<!-- Node30 -->
<g id="node30" class="node"><title>Node30</title>
<g id="a_node30"><a xlink:href="classmemoryoracle_1_1test__models_1_1SourceFileTestData.html" target="_top" xlink:title="memoryoracle.test_models.\lSourceFileTestData">
<polygon fill="none" stroke="black" points="304,-1008.5 304,-1038.5 456,-1038.5 456,-1008.5 304,-1008.5"/>
<text text-anchor="start" x="312" y="-1026.5" font-family="Helvetica,sans-Serif" font-size="10.00">memoryoracle.test_models.</text>
<text text-anchor="middle" x="380" y="-1015.5" font-family="Helvetica,sans-Serif" font-size="10.00">SourceFileTestData</text>
</a>
</g>
</g>
<!-- Node23&#45;&gt;Node30 -->
<g id="edge29" class="edge"><title>Node23&#45;&gt;Node30</title>
<path fill="none" stroke="midnightblue" d="M182.687,-899.966C203.229,-927.932 241.292,-974.066 285,-999.5 290.969,-1002.97 297.437,-1005.95 304.091,-1008.5"/>
<polygon fill="midnightblue" stroke="midnightblue" points="185.33,-897.646 176.648,-891.573 179.648,-901.735 185.33,-897.646"/>
</g>
<!-- Node31 -->
<g id="node31" class="node"><title>Node31</title>
<g id="a_node31"><a xlink:href="classmemoryoracle_1_1test__models_1_1SymbolTestData.html" target="_top" xlink:title="memoryoracle.test_models.\lSymbolTestData">
<polygon fill="none" stroke="black" points="304,-959.5 304,-989.5 456,-989.5 456,-959.5 304,-959.5"/>
<text text-anchor="start" x="312" y="-977.5" font-family="Helvetica,sans-Serif" font-size="10.00">memoryoracle.test_models.</text>
<text text-anchor="middle" x="380" y="-966.5" font-family="Helvetica,sans-Serif" font-size="10.00">SymbolTestData</text>
</a>
</g>
</g>
<!-- Node23&#45;&gt;Node31 -->
<g id="edge30" class="edge"><title>Node23&#45;&gt;Node31</title>
<path fill="none" stroke="midnightblue" d="M194.733,-897.632C217.92,-914.103 252.174,-936.462 285,-950.5 292.898,-953.877 301.38,-956.862 309.899,-959.475"/>
<polygon fill="midnightblue" stroke="midnightblue" points="196.573,-894.644 186.414,-891.638 192.481,-900.323 196.573,-894.644"/>
</g>
<!-- Node33 -->
<g id="node33" class="node"><title>Node33</title>
<g id="a_node33"><a xlink:href="classmemoryoracle_1_1whip_1_1SugarDecorator.html" target="_top" xlink:title="memoryoracle.whip.SugarDecorator">
<polygon fill="none" stroke="black" points="285,-638 285,-657 475,-657 475,-638 285,-638"/>
<text text-anchor="middle" x="380" y="-645" font-family="Helvetica,sans-Serif" font-size="10.00">memoryoracle.whip.SugarDecorator</text>
</a>
</g>
</g>
<!-- Node32&#45;&gt;Node33 -->
<g id="edge32" class="edge"><title>Node32&#45;&gt;Node33</title>
<path fill="none" stroke="midnightblue" d="M247.672,-647.5C259.865,-647.5 272.525,-647.5 284.959,-647.5"/>
<polygon fill="midnightblue" stroke="midnightblue" points="247.555,-644 237.555,-647.5 247.555,-651 247.555,-644"/>
</g>
<!-- Node34 -->
<g id="node34" class="node"><title>Node34</title>
<g id="a_node34"><a xlink:href="classmemoryoracle_1_1whip_1_1WhipDecorator.html" target="_top" xlink:title="memoryoracle.whip.WhipDecorator">
<polygon fill="none" stroke="black" points="288,-676 288,-695 472,-695 472,-676 288,-676"/>
<text text-anchor="middle" x="380" y="-683" font-family="Helvetica,sans-Serif" font-size="10.00">memoryoracle.whip.WhipDecorator</text>
</a>
</g>
</g>
<!-- Node32&#45;&gt;Node34 -->
<g id="edge33" class="edge"><title>Node32&#45;&gt;Node34</title>
<path fill="none" stroke="midnightblue" d="M229.953,-658.847C260.442,-664.299 296.576,-670.761 325.63,-675.956"/>
<polygon fill="midnightblue" stroke="midnightblue" points="230.308,-655.355 219.848,-657.04 229.076,-662.246 230.308,-655.355"/>
</g>
<!-- Node35 -->
<g id="node35" class="node"><title>Node35</title>
<polygon fill="none" stroke="#bfbfbf" points="136,-311 136,-330 195,-330 195,-311 136,-311"/>
<text text-anchor="middle" x="165.5" y="-318" font-family="Helvetica,sans-Serif" font-size="10.00">TestCase</text>
</g>
<!-- Node35&#45;&gt;Node15 -->
<g id="edge34" class="edge"><title>Node35&#45;&gt;Node15</title>
<path fill="none" stroke="midnightblue" d="M205.158,-318.499C232.649,-317.076 270.462,-315.118 303.802,-313.393"/>
<polygon fill="midnightblue" stroke="midnightblue" points="204.964,-315.004 195.159,-319.016 205.326,-321.995 204.964,-315.004"/>
</g>
<!-- Node35&#45;&gt;Node16 -->
<g id="edge35" class="edge"><title>Node35&#45;&gt;Node16</title>
<path fill="none" stroke="midnightblue" d="M205.021,-313.422C219.052,-310.377 234.92,-306.382 249,-301.5 265.718,-295.703 268.352,-290.494 285,-284.5 294.033,-281.248 303.703,-278.254 313.28,-275.565"/>
<polygon fill="midnightblue" stroke="midnightblue" points="204.257,-310.006 195.18,-315.471 205.684,-316.859 204.257,-310.006"/>
</g>
<!-- Node35&#45;&gt;Node17 -->
<g id="edge36" class="edge"><title>Node35&#45;&gt;Node17</title>
<path fill="none" stroke="midnightblue" d="M205.312,-318.303C220.175,-315.831 236.536,-310.954 249,-301.5 275.622,-281.308 258.618,-256.005 285,-235.5 290.718,-231.055 297.168,-227.427 303.941,-224.465"/>
<polygon fill="midnightblue" stroke="midnightblue" points="204.767,-314.844 195.328,-319.656 205.707,-321.781 204.767,-314.844"/>
</g>
<!-- Node35&#45;&gt;Node18 -->
<g id="edge37" class="edge"><title>Node35&#45;&gt;Node18</title>
<path fill="none" stroke="midnightblue" d="M205.291,-319.659C220.581,-317.432 237.257,-312.371 249,-301.5 288.3,-265.116 246.132,-223.346 285,-186.5 290.501,-181.286 296.972,-177.163 303.903,-173.909"/>
<polygon fill="midnightblue" stroke="midnightblue" points="204.565,-316.217 195.005,-320.784 205.326,-323.176 204.565,-316.217"/>
</g>
<!-- Node35&#45;&gt;Node19 -->
<g id="edge38" class="edge"><title>Node35&#45;&gt;Node19</title>
<path fill="none" stroke="midnightblue" d="M204.982,-320.264C220.568,-318.184 237.55,-313.068 249,-301.5 301.496,-248.462 233.134,-191.154 285,-137.5 290.385,-131.929 296.87,-127.586 303.885,-124.208"/>
<polygon fill="midnightblue" stroke="midnightblue" points="204.63,-316.782 195.015,-321.23 205.306,-323.749 204.63,-316.782"/>
</g>
<!-- Node35&#45;&gt;Node20 -->
<g id="edge39" class="edge"><title>Node35&#45;&gt;Node20</title>
<path fill="none" stroke="midnightblue" d="M205.258,-320.53C220.891,-318.496 237.835,-313.343 249,-301.5 314.859,-231.641 219.97,-159.132 285,-88.5 290.248,-82.8001 296.645,-78.3737 303.608,-74.9472"/>
<polygon fill="midnightblue" stroke="midnightblue" points="204.883,-317.049 195.247,-321.455 205.527,-324.02 204.883,-317.049"/>
</g>
<!-- Node35&#45;&gt;Node21 -->
<g id="edge40" class="edge"><title>Node35&#45;&gt;Node21</title>
<path fill="none" stroke="midnightblue" d="M205.435,-320.695C221.1,-318.69 238.019,-313.514 249,-301.5 328.298,-214.741 206.732,-127.19 285,-39.5 290.271,-33.5941 296.775,-29.0478 303.882,-25.561"/>
<polygon fill="midnightblue" stroke="midnightblue" points="205.045,-317.216 195.398,-321.595 205.67,-324.188 205.045,-317.216"/>
</g>
<!-- Node35&#45;&gt;Node22 -->
<g id="edge41" class="edge"><title>Node35&#45;&gt;Node22</title>
<path fill="none" stroke="midnightblue" d="M205.158,-327.413C232.649,-332.329 270.462,-339.091 303.802,-345.053"/>
<polygon fill="midnightblue" stroke="midnightblue" points="205.619,-323.94 195.159,-325.625 204.386,-330.831 205.619,-323.94"/>
</g>
</g>
</svg>
