<?xml version="1.0" encoding="UTF-8" standalone="no"?>
<!DOCTYPE svg PUBLIC "-//W3C//DTD SVG 1.1//EN"
 "http://www.w3.org/Graphics/SVG/1.1/DTD/svg11.dtd">
<!-- Generated by graphviz version 2.38.0 (20140413.2041)
 -->
<!-- Title: memoryoracle.instance.get_frame_symbols Pages: 1 -->
<svg width="573pt" height="39pt"
 viewBox="0.00 0.00 573.00 39.00" xmlns="http://www.w3.org/2000/svg" xmlns:xlink="http://www.w3.org/1999/xlink">
<g id="graph0" class="graph" transform="scale(1 1) rotate(0) translate(4 35)">
<title>memoryoracle.instance.get_frame_symbols</title>
<!-- Node1 -->
<g id="node1" class="node"><title>Node1</title>
<polygon fill="#bfbfbf" stroke="black" points="0,-0.5 0,-30.5 149,-30.5 149,-0.5 0,-0.5"/>
<text text-anchor="start" x="8" y="-18.5" font-family="Helvetica,sans-Serif" font-size="10.00">memoryoracle.instance.get</text>
<text text-anchor="middle" x="74.5" y="-7.5" font-family="Helvetica,sans-Serif" font-size="10.00">_frame_symbols</text>
</g>
<!-- Node2 -->
<g id="node2" class="node"><title>Node2</title>
<g id="a_node2"><a xlink:href="namespacememoryoracle_1_1instance.html#a958b2f6afa09c327a9e48bbe2fc7f125" target="_top" xlink:title="memoryoracle.instance.serialize\l_frame_locals">
<polygon fill="none" stroke="black" points="185,-0.5 185,-30.5 357,-30.5 357,-0.5 185,-0.5"/>
<text text-anchor="start" x="193" y="-18.5" font-family="Helvetica,sans-Serif" font-size="10.00">memoryoracle.instance.serialize</text>
<text text-anchor="middle" x="271" y="-7.5" font-family="Helvetica,sans-Serif" font-size="10.00">_frame_locals</text>
</a>
</g>
</g>
<!-- Node1&#45;&gt;Node2 -->
<g id="edge1" class="edge"><title>Node1&#45;&gt;Node2</title>
<path fill="none" stroke="midnightblue" d="M159.306,-15.5C167.799,-15.5 176.432,-15.5 184.939,-15.5"/>
<polygon fill="midnightblue" stroke="midnightblue" points="159.032,-12.0001 149.032,-15.5 159.032,-19.0001 159.032,-12.0001"/>
</g>
<!-- Node3 -->
<g id="node3" class="node"><title>Node3</title>
<g id="a_node3"><a xlink:href="namespacememoryoracle_1_1instance.html#a90a3c2f070ac8af0b41e6947d2b71a8a" target="_top" xlink:title="memoryoracle.instance.serialize\l_upward">
<polygon fill="none" stroke="black" points="393,-0.5 393,-30.5 565,-30.5 565,-0.5 393,-0.5"/>
<text text-anchor="start" x="401" y="-18.5" font-family="Helvetica,sans-Serif" font-size="10.00">memoryoracle.instance.serialize</text>
<text text-anchor="middle" x="479" y="-7.5" font-family="Helvetica,sans-Serif" font-size="10.00">_upward</text>
</a>
</g>
</g>
<!-- Node2&#45;&gt;Node3 -->
<g id="edge2" class="edge"><title>Node2&#45;&gt;Node3</title>
<path fill="none" stroke="midnightblue" d="M367.514,-15.5C375.947,-15.5 384.448,-15.5 392.789,-15.5"/>
<polygon fill="midnightblue" stroke="midnightblue" points="367.275,-12.0001 357.275,-15.5 367.275,-19.0001 367.275,-12.0001"/>
</g>
</g>
</svg>
