<?xml version="1.0" encoding="UTF-8" standalone="no"?>
<!DOCTYPE svg PUBLIC "-//W3C//DTD SVG 1.1//EN"
 "http://www.w3.org/Graphics/SVG/1.1/DTD/svg11.dtd">
<!-- Generated by graphviz version 2.38.0 (20140413.2041)
 -->
<!-- Title: memoryoracle.instance.serialize_frame_locals Pages: 1 -->
<svg width="407pt" height="88pt"
 viewBox="0.00 0.00 407.00 88.00" xmlns="http://www.w3.org/2000/svg" xmlns:xlink="http://www.w3.org/1999/xlink">
<g id="graph0" class="graph" transform="scale(1 1) rotate(0) translate(4 84)">
<title>memoryoracle.instance.serialize_frame_locals</title>
<!-- Node1 -->
<g id="node1" class="node"><title>Node1</title>
<polygon fill="#bfbfbf" stroke="black" points="0,-24.5 0,-54.5 172,-54.5 172,-24.5 0,-24.5"/>
<text text-anchor="start" x="8" y="-42.5" font-family="Helvetica,sans-Serif" font-size="10.00">memoryoracle.instance.serialize</text>
<text text-anchor="middle" x="86" y="-31.5" font-family="Helvetica,sans-Serif" font-size="10.00">_frame_locals</text>
</g>
<!-- Node2 -->
<g id="node2" class="node"><title>Node2</title>
<g id="a_node2"><a xlink:href="namespacememoryoracle_1_1instance.html#ac651a8635b1ae2ee7e788bf9adb17a0b" target="_top" xlink:title="memoryoracle.instance.addressable\l_factory">
<polygon fill="none" stroke="black" points="208,-49.5 208,-79.5 399,-79.5 399,-49.5 208,-49.5"/>
<text text-anchor="start" x="216" y="-67.5" font-family="Helvetica,sans-Serif" font-size="10.00">memoryoracle.instance.addressable</text>
<text text-anchor="middle" x="303.5" y="-56.5" font-family="Helvetica,sans-Serif" font-size="10.00">_factory</text>
</a>
</g>
</g>
<!-- Node1&#45;&gt;Node2 -->
<g id="edge1" class="edge"><title>Node1&#45;&gt;Node2</title>
<path fill="none" stroke="midnightblue" d="M172.171,-49.3807C180.627,-50.3616 189.278,-51.3651 197.901,-52.3655"/>
<polygon fill="midnightblue" stroke="midnightblue" points="197.661,-55.8611 207.998,-53.5369 198.468,-48.9078 197.661,-55.8611"/>
</g>
<!-- Node3 -->
<g id="node3" class="node"><title>Node3</title>
<g id="a_node3"><a xlink:href="namespacememoryoracle_1_1instance.html#a31e7e3135691ee03e847163a5b1e3950" target="_top" xlink:title="memoryoracle.instance.get\l_frame_symbols">
<polygon fill="none" stroke="black" points="229,-0.5 229,-30.5 378,-30.5 378,-0.5 229,-0.5"/>
<text text-anchor="start" x="237" y="-18.5" font-family="Helvetica,sans-Serif" font-size="10.00">memoryoracle.instance.get</text>
<text text-anchor="middle" x="303.5" y="-7.5" font-family="Helvetica,sans-Serif" font-size="10.00">_frame_symbols</text>
</a>
</g>
</g>
<!-- Node1&#45;&gt;Node3 -->
<g id="edge2" class="edge"><title>Node1&#45;&gt;Node3</title>
<path fill="none" stroke="midnightblue" d="M172.171,-30.0146C187.516,-28.3056 203.501,-26.5255 218.803,-24.8212"/>
<polygon fill="midnightblue" stroke="midnightblue" points="219.196,-28.2992 228.747,-23.7138 218.421,-21.3422 219.196,-28.2992"/>
</g>
</g>
</svg>
