<?xml version="1.0" encoding="UTF-8" standalone="no"?>
<!DOCTYPE svg PUBLIC "-//W3C//DTD SVG 1.1//EN"
 "http://www.w3.org/Graphics/SVG/1.1/DTD/svg11.dtd">
<!-- Generated by graphviz version 2.38.0 (20140413.2041)
 -->
<!-- Title: memoryoracle.instance.target_type_name Pages: 1 -->
<svg width="848pt" height="166pt"
 viewBox="0.00 0.00 848.00 165.50" xmlns="http://www.w3.org/2000/svg" xmlns:xlink="http://www.w3.org/1999/xlink">
<g id="graph0" class="graph" transform="scale(1 1) rotate(0) translate(4 161.5)">
<title>memoryoracle.instance.target_type_name</title>
<!-- Node1 -->
<g id="node1" class="node"><title>Node1</title>
<polygon fill="#bfbfbf" stroke="black" points="0,-63.5 0,-93.5 162,-93.5 162,-63.5 0,-63.5"/>
<text text-anchor="start" x="8" y="-81.5" font-family="Helvetica,sans-Serif" font-size="10.00">memoryoracle.instance.target</text>
<text text-anchor="middle" x="81" y="-70.5" font-family="Helvetica,sans-Serif" font-size="10.00">_type_name</text>
</g>
<!-- Node2 -->
<g id="node2" class="node"><title>Node2</title>
<g id="a_node2"><a xlink:href="classmemoryoracle_1_1instance_1_1Array.html#a1d8c3993d8a52bfbec8240d6f79b3ce1" target="_top" xlink:title="memoryoracle.instance.Array.\l_track">
<polygon fill="none" stroke="black" points="198,-63.5 198,-93.5 358,-93.5 358,-63.5 198,-63.5"/>
<text text-anchor="start" x="206" y="-81.5" font-family="Helvetica,sans-Serif" font-size="10.00">memoryoracle.instance.Array.</text>
<text text-anchor="middle" x="278" y="-70.5" font-family="Helvetica,sans-Serif" font-size="10.00">_track</text>
</a>
</g>
</g>
<!-- Node1&#45;&gt;Node2 -->
<g id="edge1" class="edge"><title>Node1&#45;&gt;Node2</title>
<path fill="none" stroke="midnightblue" d="M172.431,-78.5C180.896,-78.5 189.432,-78.5 197.783,-78.5"/>
<polygon fill="midnightblue" stroke="midnightblue" points="172.158,-75.0001 162.158,-78.5 172.158,-82.0001 172.158,-75.0001"/>
</g>
<!-- Node3 -->
<g id="node3" class="node"><title>Node3</title>
<g id="a_node3"><a xlink:href="classmemoryoracle_1_1instance_1_1Instance.html#a86649e01ee4f562debdba5421a334f78" target="_top" xlink:title="memoryoracle.instance.Instance.track">
<polygon fill="none" stroke="black" points="394,-88 394,-107 594,-107 594,-88 394,-88"/>
<text text-anchor="middle" x="494" y="-95" font-family="Helvetica,sans-Serif" font-size="10.00">memoryoracle.instance.Instance.track</text>
</a>
</g>
</g>
<!-- Node2&#45;&gt;Node3 -->
<g id="edge2" class="edge"><title>Node2&#45;&gt;Node3</title>
<path fill="none" stroke="midnightblue" d="M368.301,-86.4286C376.756,-87.1793 385.362,-87.9434 393.902,-88.7015"/>
<polygon fill="midnightblue" stroke="midnightblue" points="368.348,-82.9191 358.078,-85.5209 367.729,-89.8917 368.348,-82.9191"/>
</g>
<!-- Node8 -->
<g id="node8" class="node"><title>Node8</title>
<g id="a_node8"><a xlink:href="classmemoryoracle_1_1models_1_1Typed.html#aa1d5d8d5b7ebe5c2876f363e7eb669db" target="_top" xlink:title="memoryoracle.models.Typed.track">
<polygon fill="none" stroke="black" points="403,-50 403,-69 585,-69 585,-50 403,-50"/>
<text text-anchor="middle" x="494" y="-57" font-family="Helvetica,sans-Serif" font-size="10.00">memoryoracle.models.Typed.track</text>
</a>
</g>
</g>
<!-- Node2&#45;&gt;Node8 -->
<g id="edge7" class="edge"><title>Node2&#45;&gt;Node8</title>
<path fill="none" stroke="midnightblue" d="M368.051,-70.5936C379.497,-69.5773 391.226,-68.536 402.693,-67.5179"/>
<polygon fill="midnightblue" stroke="midnightblue" points="367.729,-67.1083 358.078,-71.4791 368.348,-74.0809 367.729,-67.1083"/>
</g>
<!-- Node4 -->
<g id="node4" class="node"><title>Node4</title>
<g id="a_node4"><a xlink:href="classmemoryoracle_1_1instance_1_1Instance.html#a286e015a030541a0704994172024f034" target="_top" xlink:title="memoryoracle.instance.Instance.update">
<polygon fill="none" stroke="black" points="630,-138 630,-157 840,-157 840,-138 630,-138"/>
<text text-anchor="middle" x="735" y="-145" font-family="Helvetica,sans-Serif" font-size="10.00">memoryoracle.instance.Instance.update</text>
</a>
</g>
</g>
<!-- Node3&#45;&gt;Node4 -->
<g id="edge3" class="edge"><title>Node3&#45;&gt;Node4</title>
<path fill="none" stroke="midnightblue" d="M544.29,-109.379C569.812,-115.388 601.514,-122.63 630,-128.5 645.909,-131.778 663.248,-135.06 679.126,-137.952"/>
<polygon fill="midnightblue" stroke="midnightblue" points="545.013,-105.954 534.476,-107.058 543.402,-112.766 545.013,-105.954"/>
</g>
<!-- Node5 -->
<g id="node5" class="node"><title>Node5</title>
<g id="a_node5"><a xlink:href="classmemoryoracle_1_1models_1_1Typed.html#a494dfbe205034b874ff9e8c7039f579b" target="_top" xlink:title="memoryoracle.models.Typed.\l__init__">
<polygon fill="none" stroke="black" points="656,-88.5 656,-118.5 814,-118.5 814,-88.5 656,-88.5"/>
<text text-anchor="start" x="664" y="-106.5" font-family="Helvetica,sans-Serif" font-size="10.00">memoryoracle.models.Typed.</text>
<text text-anchor="middle" x="735" y="-95.5" font-family="Helvetica,sans-Serif" font-size="10.00">__init__</text>
</a>
</g>
</g>
<!-- Node3&#45;&gt;Node5 -->
<g id="edge4" class="edge"><title>Node3&#45;&gt;Node5</title>
<path fill="none" stroke="midnightblue" d="M604.436,-100.247C621.758,-100.682 639.364,-101.124 655.784,-101.536"/>
<polygon fill="midnightblue" stroke="midnightblue" points="604.366,-96.7446 594.281,-99.9924 604.19,-103.742 604.366,-96.7446"/>
</g>
<!-- Node6 -->
<g id="node6" class="node"><title>Node6</title>
<g id="a_node6"><a xlink:href="classmemoryoracle_1_1models_1_1Memory.html#a71d4a141abc3358afdf1a1325bfd4253" target="_top" xlink:title="memoryoracle.models.Memory.update">
<polygon fill="none" stroke="black" points="634,-50 634,-69 836,-69 836,-50 634,-50"/>
<text text-anchor="middle" x="735" y="-57" font-family="Helvetica,sans-Serif" font-size="10.00">memoryoracle.models.Memory.update</text>
</a>
</g>
</g>
<!-- Node3&#45;&gt;Node6 -->
<g id="edge5" class="edge"><title>Node3&#45;&gt;Node6</title>
<path fill="none" stroke="midnightblue" d="M565.028,-86.3659C599.596,-80.8697 640.871,-74.3071 673.974,-69.0439"/>
<polygon fill="midnightblue" stroke="midnightblue" points="564.328,-82.9331 555.001,-87.96 565.427,-89.8463 564.328,-82.9331"/>
</g>
<!-- Node7 -->
<g id="node7" class="node"><title>Node7</title>
<g id="a_node7"><a xlink:href="classmemoryoracle_1_1models_1_1Memory.html#aed3af349dd80317ae9cca4b4e9cb7c26" target="_top" xlink:title="memoryoracle.models.Memory.\l__init__">
<polygon fill="none" stroke="black" points="651,-0.5 651,-30.5 819,-30.5 819,-0.5 651,-0.5"/>
<text text-anchor="start" x="659" y="-18.5" font-family="Helvetica,sans-Serif" font-size="10.00">memoryoracle.models.Memory.</text>
<text text-anchor="middle" x="735" y="-7.5" font-family="Helvetica,sans-Serif" font-size="10.00">__init__</text>
</a>
</g>
</g>
<!-- Node3&#45;&gt;Node7 -->
<g id="edge6" class="edge"><title>Node3&#45;&gt;Node7</title>
<path fill="none" stroke="midnightblue" d="M580.823,-84.5991C585.383,-82.8182 589.807,-80.7959 594,-78.5 614.405,-67.3257 609.859,-52.1436 630,-40.5 636.752,-36.5965 644.088,-33.3009 651.635,-30.5189"/>
<polygon fill="midnightblue" stroke="midnightblue" points="579.59,-81.3224 571.305,-87.926 581.9,-87.9303 579.59,-81.3224"/>
</g>
<!-- Node8&#45;&gt;Node5 -->
<g id="edge8" class="edge"><title>Node8&#45;&gt;Node5</title>
<path fill="none" stroke="midnightblue" d="M556.844,-70.8855C587.064,-76.449 623.753,-83.2035 655.887,-89.1194"/>
<polygon fill="midnightblue" stroke="midnightblue" points="557.328,-67.4158 546.859,-69.0473 556.06,-74.3002 557.328,-67.4158"/>
</g>
<!-- Node8&#45;&gt;Node6 -->
<g id="edge9" class="edge"><title>Node8&#45;&gt;Node6</title>
<path fill="none" stroke="midnightblue" d="M595.151,-59.5C607.884,-59.5 620.918,-59.5 633.654,-59.5"/>
<polygon fill="midnightblue" stroke="midnightblue" points="595.015,-56.0001 585.015,-59.5 595.015,-63.0001 595.015,-56.0001"/>
</g>
<!-- Node8&#45;&gt;Node7 -->
<g id="edge10" class="edge"><title>Node8&#45;&gt;Node7</title>
<path fill="none" stroke="midnightblue" d="M556.871,-48.1095C585.926,-42.7606 620.956,-36.3114 652.168,-30.5654"/>
<polygon fill="midnightblue" stroke="midnightblue" points="556.06,-44.6998 546.859,-49.9527 557.328,-51.5842 556.06,-44.6998"/>
</g>
</g>
</svg>
