<?xml version="1.0" encoding="UTF-8" standalone="no"?>
<!DOCTYPE svg PUBLIC "-//W3C//DTD SVG 1.1//EN"
 "http://www.w3.org/Graphics/SVG/1.1/DTD/svg11.dtd">
<!-- Generated by graphviz version 2.38.0 (20140413.2041)
 -->
<!-- Title: memoryoracle.instance.serialize_upward Pages: 1 -->
<svg width="615pt" height="88pt"
 viewBox="0.00 0.00 615.00 88.00" xmlns="http://www.w3.org/2000/svg" xmlns:xlink="http://www.w3.org/1999/xlink">
<g id="graph0" class="graph" transform="scale(1 1) rotate(0) translate(4 84)">
<title>memoryoracle.instance.serialize_upward</title>
<!-- Node1 -->
<g id="node1" class="node"><title>Node1</title>
<polygon fill="#bfbfbf" stroke="black" points="0,-24.5 0,-54.5 172,-54.5 172,-24.5 0,-24.5"/>
<text text-anchor="start" x="8" y="-42.5" font-family="Helvetica,sans-Serif" font-size="10.00">memoryoracle.instance.serialize</text>
<text text-anchor="middle" x="86" y="-31.5" font-family="Helvetica,sans-Serif" font-size="10.00">_upward</text>
</g>
<!-- Node2 -->
<g id="node2" class="node"><title>Node2</title>
<g id="a_node2"><a xlink:href="namespacememoryoracle_1_1instance.html#a958b2f6afa09c327a9e48bbe2fc7f125" target="_top" xlink:title="memoryoracle.instance.serialize\l_frame_locals">
<polygon fill="none" stroke="black" points="208,-24.5 208,-54.5 380,-54.5 380,-24.5 208,-24.5"/>
<text text-anchor="start" x="216" y="-42.5" font-family="Helvetica,sans-Serif" font-size="10.00">memoryoracle.instance.serialize</text>
<text text-anchor="middle" x="294" y="-31.5" font-family="Helvetica,sans-Serif" font-size="10.00">_frame_locals</text>
</a>
</g>
</g>
<!-- Node1&#45;&gt;Node2 -->
<g id="edge1" class="edge"><title>Node1&#45;&gt;Node2</title>
<path fill="none" stroke="midnightblue" d="M172.275,-39.5C180.616,-39.5 189.118,-39.5 197.551,-39.5"/>
<polygon fill="midnightblue" stroke="midnightblue" points="197.789,-43.0001 207.789,-39.5 197.789,-36.0001 197.789,-43.0001"/>
</g>
<!-- Node3 -->
<g id="node3" class="node"><title>Node3</title>
<g id="a_node3"><a xlink:href="namespacememoryoracle_1_1instance.html#ac651a8635b1ae2ee7e788bf9adb17a0b" target="_top" xlink:title="memoryoracle.instance.addressable\l_factory">
<polygon fill="none" stroke="black" points="416,-49.5 416,-79.5 607,-79.5 607,-49.5 416,-49.5"/>
<text text-anchor="start" x="424" y="-67.5" font-family="Helvetica,sans-Serif" font-size="10.00">memoryoracle.instance.addressable</text>
<text text-anchor="middle" x="511.5" y="-56.5" font-family="Helvetica,sans-Serif" font-size="10.00">_factory</text>
</a>
</g>
</g>
<!-- Node2&#45;&gt;Node3 -->
<g id="edge2" class="edge"><title>Node2&#45;&gt;Node3</title>
<path fill="none" stroke="midnightblue" d="M380.171,-49.3807C388.627,-50.3616 397.278,-51.3651 405.901,-52.3655"/>
<polygon fill="midnightblue" stroke="midnightblue" points="405.661,-55.8611 415.998,-53.5369 406.468,-48.9078 405.661,-55.8611"/>
</g>
<!-- Node4 -->
<g id="node4" class="node"><title>Node4</title>
<g id="a_node4"><a xlink:href="namespacememoryoracle_1_1instance.html#a31e7e3135691ee03e847163a5b1e3950" target="_top" xlink:title="memoryoracle.instance.get\l_frame_symbols">
<polygon fill="none" stroke="black" points="437,-0.5 437,-30.5 586,-30.5 586,-0.5 437,-0.5"/>
<text text-anchor="start" x="445" y="-18.5" font-family="Helvetica,sans-Serif" font-size="10.00">memoryoracle.instance.get</text>
<text text-anchor="middle" x="511.5" y="-7.5" font-family="Helvetica,sans-Serif" font-size="10.00">_frame_symbols</text>
</a>
</g>
</g>
<!-- Node2&#45;&gt;Node4 -->
<g id="edge3" class="edge"><title>Node2&#45;&gt;Node4</title>
<path fill="none" stroke="midnightblue" d="M380.171,-30.0146C395.516,-28.3056 411.501,-26.5255 426.803,-24.8212"/>
<polygon fill="midnightblue" stroke="midnightblue" points="427.196,-28.2992 436.747,-23.7138 426.421,-21.3422 427.196,-28.2992"/>
</g>
</g>
</svg>
