<?xml version="1.0" encoding="UTF-8" standalone="no"?>
<!DOCTYPE svg PUBLIC "-//W3C//DTD SVG 1.1//EN"
 "http://www.w3.org/Graphics/SVG/1.1/DTD/svg11.dtd">
<!-- Generated by graphviz version 2.38.0 (20140413.2041)
 -->
<!-- Title: memoryoracle.instance.addressable_factory Pages: 1 -->
<svg width="1348pt" height="323pt"
 viewBox="0.00 0.00 1348.00 322.54" xmlns="http://www.w3.org/2000/svg" xmlns:xlink="http://www.w3.org/1999/xlink">
<g id="graph0" class="graph" transform="scale(1 1) rotate(0) translate(4 318.539)">
<title>memoryoracle.instance.addressable_factory</title>
<!-- Node1 -->
<g id="node1" class="node"><title>Node1</title>
<polygon fill="#bfbfbf" stroke="black" points="0,-117.5 0,-147.5 191,-147.5 191,-117.5 0,-117.5"/>
<text text-anchor="start" x="8" y="-135.5" font-family="Helvetica,sans-Serif" font-size="10.00">memoryoracle.instance.addressable</text>
<text text-anchor="middle" x="95.5" y="-124.5" font-family="Helvetica,sans-Serif" font-size="10.00">_factory</text>
</g>
<!-- Node2 -->
<g id="node2" class="node"><title>Node2</title>
<g id="a_node2"><a xlink:href="classmemoryoracle_1_1instance_1_1Structure.html#a200a54be462e0199b7833cbd11f81a52" target="_top" xlink:title="memoryoracle.instance.Structure.\l_track">
<polygon fill="none" stroke="black" points="227,-169.5 227,-199.5 408,-199.5 408,-169.5 227,-169.5"/>
<text text-anchor="start" x="235" y="-187.5" font-family="Helvetica,sans-Serif" font-size="10.00">memoryoracle.instance.Structure.</text>
<text text-anchor="middle" x="317.5" y="-176.5" font-family="Helvetica,sans-Serif" font-size="10.00">_track</text>
</a>
</g>
</g>
<!-- Node1&#45;&gt;Node2 -->
<g id="edge1" class="edge"><title>Node1&#45;&gt;Node2</title>
<path fill="none" stroke="midnightblue" d="M169.888,-149.846C196.808,-156.209 227.03,-163.353 253.01,-169.493"/>
<polygon fill="midnightblue" stroke="midnightblue" points="170.67,-146.435 160.133,-147.541 169.06,-153.247 170.67,-146.435"/>
</g>
<!-- Node5 -->
<g id="node5" class="node"><title>Node5</title>
<g id="a_node5"><a xlink:href="classmemoryoracle_1_1instance_1_1Int.html#a38c9424341353f006771163d360594da" target="_top" xlink:title="memoryoracle.instance.Int.\l_track">
<polygon fill="none" stroke="black" points="706.5,-251.5 706.5,-281.5 854.5,-281.5 854.5,-251.5 706.5,-251.5"/>
<text text-anchor="start" x="714.5" y="-269.5" font-family="Helvetica,sans-Serif" font-size="10.00">memoryoracle.instance.Int.</text>
<text text-anchor="middle" x="780.5" y="-258.5" font-family="Helvetica,sans-Serif" font-size="10.00">_track</text>
</a>
</g>
</g>
<!-- Node1&#45;&gt;Node5 -->
<g id="edge17" class="edge"><title>Node1&#45;&gt;Node5</title>
<path fill="none" stroke="midnightblue" d="M124.824,-153.782C150.181,-171.623 189.104,-196.111 227,-208.5 392.24,-262.522 598.695,-269.224 706.407,-268.46"/>
<polygon fill="midnightblue" stroke="midnightblue" points="126.612,-150.757 116.444,-147.779 122.536,-156.448 126.612,-150.757"/>
</g>
<!-- Node10 -->
<g id="node10" class="node"><title>Node10</title>
<g id="a_node10"><a xlink:href="classmemoryoracle_1_1instance_1_1Pointer.html#a2cc9e298adaad8bed089d90186fcde8a" target="_top" xlink:title="memoryoracle.instance.Pointer.\l_track">
<polygon fill="none" stroke="black" points="233,-117.5 233,-147.5 402,-147.5 402,-117.5 233,-117.5"/>
<text text-anchor="start" x="241" y="-135.5" font-family="Helvetica,sans-Serif" font-size="10.00">memoryoracle.instance.Pointer.</text>
<text text-anchor="middle" x="317.5" y="-124.5" font-family="Helvetica,sans-Serif" font-size="10.00">_track</text>
</a>
</g>
</g>
<!-- Node1&#45;&gt;Node10 -->
<g id="edge14" class="edge"><title>Node1&#45;&gt;Node10</title>
<path fill="none" stroke="midnightblue" d="M201.192,-132.5C211.776,-132.5 222.426,-132.5 232.749,-132.5"/>
<polygon fill="midnightblue" stroke="midnightblue" points="201.077,-129 191.077,-132.5 201.077,-136 201.077,-129"/>
</g>
<!-- Node11 -->
<g id="node11" class="node"><title>Node11</title>
<g id="a_node11"><a xlink:href="namespacememoryoracle_1_1instance.html#a78622e017f520b55ef2a05cffded052b" target="_top" xlink:title="memoryoracle.instance.serialize\l_block_locals">
<polygon fill="none" stroke="black" points="231.5,-63.5 231.5,-93.5 403.5,-93.5 403.5,-63.5 231.5,-63.5"/>
<text text-anchor="start" x="239.5" y="-81.5" font-family="Helvetica,sans-Serif" font-size="10.00">memoryoracle.instance.serialize</text>
<text text-anchor="middle" x="317.5" y="-70.5" font-family="Helvetica,sans-Serif" font-size="10.00">_block_locals</text>
</a>
</g>
</g>
<!-- Node1&#45;&gt;Node11 -->
<g id="edge18" class="edge"><title>Node1&#45;&gt;Node11</title>
<path fill="none" stroke="midnightblue" d="M167.59,-115.051C195.821,-108.121 227.977,-100.228 255.165,-93.5549"/>
<polygon fill="midnightblue" stroke="midnightblue" points="166.66,-111.675 157.782,-117.458 168.328,-118.473 166.66,-111.675"/>
</g>
<!-- Node13 -->
<g id="node13" class="node"><title>Node13</title>
<g id="a_node13"><a xlink:href="namespacememoryoracle_1_1instance.html#a958b2f6afa09c327a9e48bbe2fc7f125" target="_top" xlink:title="memoryoracle.instance.serialize\l_frame_locals">
<polygon fill="none" stroke="black" points="231.5,-3.5 231.5,-33.5 403.5,-33.5 403.5,-3.5 231.5,-3.5"/>
<text text-anchor="start" x="239.5" y="-21.5" font-family="Helvetica,sans-Serif" font-size="10.00">memoryoracle.instance.serialize</text>
<text text-anchor="middle" x="317.5" y="-10.5" font-family="Helvetica,sans-Serif" font-size="10.00">_frame_locals</text>
</a>
</g>
</g>
<!-- Node1&#45;&gt;Node13 -->
<g id="edge20" class="edge"><title>Node1&#45;&gt;Node13</title>
<path fill="none" stroke="midnightblue" d="M127.557,-111.615C153.474,-94.7015 191.736,-70.9086 227,-53.5 241.811,-46.1884 258.551,-39.2976 273.514,-33.5956"/>
<polygon fill="midnightblue" stroke="midnightblue" points="125.362,-108.87 118.93,-117.289 129.208,-114.718 125.362,-108.87"/>
</g>
<!-- Node3 -->
<g id="node3" class="node"><title>Node3</title>
<g id="a_node3"><a xlink:href="classmemoryoracle_1_1instance_1_1Memory.html#a8951ac234fecbd6cd473133ae7e63662" target="_top" xlink:title="memoryoracle.instance.Memory.track">
<polygon fill="none" stroke="black" points="444,-175 444,-194 641,-194 641,-175 444,-175"/>
<text text-anchor="middle" x="542.5" y="-182" font-family="Helvetica,sans-Serif" font-size="10.00">memoryoracle.instance.Memory.track</text>
</a>
</g>
</g>
<!-- Node2&#45;&gt;Node3 -->
<g id="edge2" class="edge"><title>Node2&#45;&gt;Node3</title>
<path fill="none" stroke="midnightblue" d="M418.49,-184.5C426.941,-184.5 435.481,-184.5 443.914,-184.5"/>
<polygon fill="midnightblue" stroke="midnightblue" points="418.239,-181 408.239,-184.5 418.239,-188 418.239,-181"/>
</g>
<!-- Node6 -->
<g id="node6" class="node"><title>Node6</title>
<g id="a_node6"><a xlink:href="classmemoryoracle_1_1models_1_1Typed.html#aa1d5d8d5b7ebe5c2876f363e7eb669db" target="_top" xlink:title="memoryoracle.models.Typed.track">
<polygon fill="none" stroke="black" points="920,-175 920,-194 1102,-194 1102,-175 920,-175"/>
<text text-anchor="middle" x="1011" y="-182" font-family="Helvetica,sans-Serif" font-size="10.00">memoryoracle.models.Typed.track</text>
</a>
</g>
</g>
<!-- Node2&#45;&gt;Node6 -->
<g id="edge13" class="edge"><title>Node2&#45;&gt;Node6</title>
<path fill="none" stroke="midnightblue" d="M354.646,-204.294C445.938,-251.553 692.184,-361.957 884,-291.5 938.416,-271.512 985.407,-216.447 1002.81,-194.106"/>
<polygon fill="midnightblue" stroke="midnightblue" points="356.027,-201.066 345.545,-199.524 352.778,-207.266 356.027,-201.066"/>
</g>
<!-- Node4 -->
<g id="node4" class="node"><title>Node4</title>
<g id="a_node4"><a xlink:href="classmemoryoracle_1_1instance_1_1Memory.html#aa937ea1a82dcaa2fa1c868a387d59483" target="_top" xlink:title="memoryoracle.instance.Memory.update">
<polygon fill="none" stroke="black" points="677,-175 677,-194 884,-194 884,-175 677,-175"/>
<text text-anchor="middle" x="780.5" y="-182" font-family="Helvetica,sans-Serif" font-size="10.00">memoryoracle.instance.Memory.update</text>
</a>
</g>
</g>
<!-- Node3&#45;&gt;Node4 -->
<g id="edge3" class="edge"><title>Node3&#45;&gt;Node4</title>
<path fill="none" stroke="midnightblue" d="M651.199,-184.5C659.761,-184.5 668.395,-184.5 676.919,-184.5"/>
<polygon fill="midnightblue" stroke="midnightblue" points="651.194,-181 641.194,-184.5 651.194,-188 651.194,-181"/>
</g>
<!-- Node3&#45;&gt;Node5 -->
<g id="edge4" class="edge"><title>Node3&#45;&gt;Node5</title>
<path fill="none" stroke="midnightblue" d="M594.765,-197.518C619.44,-206.549 649.561,-218.16 677,-227.5 701.749,-235.924 730.33,-244.169 751.014,-251.381"/>
<polygon fill="midnightblue" stroke="midnightblue" points="595.839,-194.184 585.245,-194.069 593.455,-200.766 595.839,-194.184"/>
</g>
<!-- Node7 -->
<g id="node7" class="node"><title>Node7</title>
<g id="a_node7"><a xlink:href="classmemoryoracle_1_1models_1_1Typed.html#a494dfbe205034b874ff9e8c7039f579b" target="_top" xlink:title="memoryoracle.models.Typed.\l__init__">
<polygon fill="none" stroke="black" points="1160,-199.5 1160,-229.5 1318,-229.5 1318,-199.5 1160,-199.5"/>
<text text-anchor="start" x="1168" y="-217.5" font-family="Helvetica,sans-Serif" font-size="10.00">memoryoracle.models.Typed.</text>
<text text-anchor="middle" x="1239" y="-206.5" font-family="Helvetica,sans-Serif" font-size="10.00">__init__</text>
</a>
</g>
</g>
<!-- Node3&#45;&gt;Node7 -->
<g id="edge10" class="edge"><title>Node3&#45;&gt;Node7</title>
<path fill="none" stroke="midnightblue" d="M609.508,-195.518C630.971,-198.665 654.942,-201.721 677,-203.5 848.866,-217.363 1051.26,-217.315 1159.8,-215.965"/>
<polygon fill="midnightblue" stroke="midnightblue" points="609.925,-192.041 599.517,-194.02 608.888,-198.964 609.925,-192.041"/>
</g>
<!-- Node8 -->
<g id="node8" class="node"><title>Node8</title>
<g id="a_node8"><a xlink:href="classmemoryoracle_1_1models_1_1Memory.html#a71d4a141abc3358afdf1a1325bfd4253" target="_top" xlink:title="memoryoracle.models.Memory.update">
<polygon fill="none" stroke="black" points="1138,-153 1138,-172 1340,-172 1340,-153 1138,-153"/>
<text text-anchor="middle" x="1239" y="-160" font-family="Helvetica,sans-Serif" font-size="10.00">memoryoracle.models.Memory.update</text>
</a>
</g>
</g>
<!-- Node3&#45;&gt;Node8 -->
<g id="edge11" class="edge"><title>Node3&#45;&gt;Node8</title>
<path fill="none" stroke="midnightblue" d="M608.613,-173.424C630.299,-170.22 654.627,-167.144 677,-165.5 837.88,-153.677 1025.41,-155.896 1137.77,-158.937"/>
<polygon fill="midnightblue" stroke="midnightblue" points="607.89,-169.994 598.527,-174.952 608.938,-176.915 607.89,-169.994"/>
</g>
<!-- Node9 -->
<g id="node9" class="node"><title>Node9</title>
<g id="a_node9"><a xlink:href="classmemoryoracle_1_1models_1_1Memory.html#aed3af349dd80317ae9cca4b4e9cb7c26" target="_top" xlink:title="memoryoracle.models.Memory.\l__init__">
<polygon fill="none" stroke="black" points="1155,-79.5 1155,-109.5 1323,-109.5 1323,-79.5 1155,-79.5"/>
<text text-anchor="start" x="1163" y="-97.5" font-family="Helvetica,sans-Serif" font-size="10.00">memoryoracle.models.Memory.</text>
<text text-anchor="middle" x="1239" y="-86.5" font-family="Helvetica,sans-Serif" font-size="10.00">__init__</text>
</a>
</g>
</g>
<!-- Node3&#45;&gt;Node9 -->
<g id="edge12" class="edge"><title>Node3&#45;&gt;Node9</title>
<path fill="none" stroke="midnightblue" d="M589.064,-172.45C614.736,-166.031 647.481,-158.46 677,-153.5 845.53,-125.182 1044.97,-108.056 1154.87,-100.022"/>
<polygon fill="midnightblue" stroke="midnightblue" points="588.074,-169.09 579.238,-174.936 589.791,-175.876 588.074,-169.09"/>
</g>
<!-- Node5&#45;&gt;Node3 -->
<g id="edge5" class="edge"><title>Node5&#45;&gt;Node3</title>
<path fill="none" stroke="midnightblue" d="M696.666,-251.902C689.99,-249.823 683.368,-247.668 677,-245.5 630.849,-229.791 577.111,-207.655 554.457,-194.102"/>
<polygon fill="midnightblue" stroke="midnightblue" points="695.877,-255.32 706.462,-254.883 697.915,-248.623 695.877,-255.32"/>
</g>
<!-- Node5&#45;&gt;Node6 -->
<g id="edge6" class="edge"><title>Node5&#45;&gt;Node6</title>
<path fill="none" stroke="midnightblue" d="M833.045,-248.002C879.721,-231.252 946.625,-207.243 983.348,-194.064"/>
<polygon fill="midnightblue" stroke="midnightblue" points="831.64,-244.788 823.41,-251.46 834.005,-251.376 831.64,-244.788"/>
</g>
<!-- Node6&#45;&gt;Node7 -->
<g id="edge7" class="edge"><title>Node6&#45;&gt;Node7</title>
<path fill="none" stroke="midnightblue" d="M1093.88,-195.369C1115.35,-198.219 1138.44,-201.284 1159.71,-204.108"/>
<polygon fill="midnightblue" stroke="midnightblue" points="1094.19,-191.88 1083.82,-194.033 1093.27,-198.819 1094.19,-191.88"/>
</g>
<!-- Node6&#45;&gt;Node8 -->
<g id="edge8" class="edge"><title>Node6&#45;&gt;Node8</title>
<path fill="none" stroke="midnightblue" d="M1112.26,-174.74C1121.5,-173.841 1130.85,-172.931 1140.06,-172.034"/>
<polygon fill="midnightblue" stroke="midnightblue" points="1111.91,-171.258 1102.3,-175.71 1112.59,-178.225 1111.91,-171.258"/>
</g>
<!-- Node6&#45;&gt;Node9 -->
<g id="edge9" class="edge"><title>Node6&#45;&gt;Node9</title>
<path fill="none" stroke="midnightblue" d="M1045.54,-171.142C1086.87,-154.683 1156.91,-126.792 1200.13,-109.58"/>
<polygon fill="midnightblue" stroke="midnightblue" points="1044.18,-167.917 1036.19,-174.868 1046.77,-174.42 1044.18,-167.917"/>
</g>
<!-- Node10&#45;&gt;Node3 -->
<g id="edge15" class="edge"><title>Node10&#45;&gt;Node3</title>
<path fill="none" stroke="midnightblue" d="M392.966,-149.864C428.895,-158.242 470.61,-167.97 500.669,-174.979"/>
<polygon fill="midnightblue" stroke="midnightblue" points="393.534,-146.403 383.001,-147.541 391.945,-153.22 393.534,-146.403"/>
</g>
<!-- Node10&#45;&gt;Node6 -->
<g id="edge16" class="edge"><title>Node10&#45;&gt;Node6</title>
<path fill="none" stroke="midnightblue" d="M412.336,-135.351C524.699,-139.371 718.484,-148.228 884,-165.5 907.103,-167.911 932.451,-171.54 954.316,-174.983"/>
<polygon fill="midnightblue" stroke="midnightblue" points="412.171,-131.843 402.054,-134.989 411.924,-138.839 412.171,-131.843"/>
</g>
<!-- Node12 -->
<g id="node12" class="node"><title>Node12</title>
<g id="a_node12"><a xlink:href="namespacememoryoracle_1_1instance.html#a2b902e26969fe19c09ad673fd8f1bbb5" target="_top" xlink:title="memoryoracle.instance.serialize\l_frame_globals">
<polygon fill="none" stroke="black" points="456.5,-49.5 456.5,-79.5 628.5,-79.5 628.5,-49.5 456.5,-49.5"/>
<text text-anchor="start" x="464.5" y="-67.5" font-family="Helvetica,sans-Serif" font-size="10.00">memoryoracle.instance.serialize</text>
<text text-anchor="middle" x="542.5" y="-56.5" font-family="Helvetica,sans-Serif" font-size="10.00">_frame_globals</text>
</a>
</g>
</g>
<!-- Node11&#45;&gt;Node12 -->
<g id="edge19" class="edge"><title>Node11&#45;&gt;Node12</title>
<path fill="none" stroke="midnightblue" d="M413.936,-72.5085C428.011,-71.6249 442.435,-70.7193 456.286,-69.8498"/>
<polygon fill="midnightblue" stroke="midnightblue" points="413.522,-69.0275 403.761,-73.1473 413.961,-76.0137 413.522,-69.0275"/>
</g>
<!-- Node14 -->
<g id="node14" class="node"><title>Node14</title>
<g id="a_node14"><a xlink:href="namespacememoryoracle_1_1instance.html#a90a3c2f070ac8af0b41e6947d2b71a8a" target="_top" xlink:title="memoryoracle.instance.serialize\l_upward">
<polygon fill="none" stroke="black" points="456.5,-0.5 456.5,-30.5 628.5,-30.5 628.5,-0.5 456.5,-0.5"/>
<text text-anchor="start" x="464.5" y="-18.5" font-family="Helvetica,sans-Serif" font-size="10.00">memoryoracle.instance.serialize</text>
<text text-anchor="middle" x="542.5" y="-7.5" font-family="Helvetica,sans-Serif" font-size="10.00">_upward</text>
</a>
</g>
</g>
<!-- Node13&#45;&gt;Node14 -->
<g id="edge21" class="edge"><title>Node13&#45;&gt;Node14</title>
<path fill="none" stroke="midnightblue" d="M413.936,-17.2161C428.011,-17.0268 442.435,-16.8327 456.286,-16.6464"/>
<polygon fill="midnightblue" stroke="midnightblue" points="413.713,-13.7187 403.761,-17.353 413.807,-20.7181 413.713,-13.7187"/>
</g>
</g>
</svg>
