<?xml version="1.0" encoding="UTF-8" standalone="no"?>
<!DOCTYPE svg PUBLIC "-//W3C//DTD SVG 1.1//EN"
 "http://www.w3.org/Graphics/SVG/1.1/DTD/svg11.dtd">
<!-- Generated by graphviz version 2.38.0 (20140413.2041)
 -->
<!-- Title: %3 Pages: 1 -->
<svg width="1599pt" height="1067pt"
 viewBox="0.00 0.00 1599.00 1067.00" xmlns="http://www.w3.org/2000/svg" xmlns:xlink="http://www.w3.org/1999/xlink">
<g id="graph0" class="graph" transform="scale(1 1) rotate(0) translate(4 1063)">
<title>%3</title>
<polygon fill="white" stroke="none" points="-4,4 -4,-1063 1595,-1063 1595,4 -4,4"/>
<!-- 5541bc1d28e1e13e440e1ebd -->
<g id="node1" class="node"><title>5541bc1d28e1e13e440e1ebd</title>
<polygon fill="none" stroke="black" points="771.5,-365.5 771.5,-401.5 825.5,-401.5 825.5,-365.5 771.5,-365.5"/>
<text text-anchor="middle" x="798.5" y="-379.8" font-family="Times,serif" font-size="14.00">next</text>
</g>
<!-- 5541bc1d28e1e13e440e1ebc -->
<g id="node2" class="node"><title>5541bc1d28e1e13e440e1ebc</title>
<polygon fill="none" stroke="black" points="728.5,-292.5 728.5,-328.5 782.5,-328.5 782.5,-292.5 728.5,-292.5"/>
<text text-anchor="middle" x="755.5" y="-306.8" font-family="Times,serif" font-size="14.00">*</text>
</g>
<!-- 5541bc1d28e1e13e440e1ebd&#45;&gt;5541bc1d28e1e13e440e1ebc -->
<g id="edge1" class="edge"><title>5541bc1d28e1e13e440e1ebd&#45;&gt;5541bc1d28e1e13e440e1ebc</title>
<path fill="none" stroke="black" d="M788.091,-365.313C782.968,-356.853 776.687,-346.484 771.012,-337.112"/>
<polygon fill="black" stroke="black" points="773.987,-335.269 765.813,-328.529 768,-338.896 773.987,-335.269"/>
</g>
<!-- 5541bc1d28e1e13e440e1eb3 -->
<g id="node5" class="node"><title>5541bc1d28e1e13e440e1eb3</title>
<polygon fill="none" stroke="black" points="647.5,-219.5 647.5,-255.5 703.5,-255.5 703.5,-219.5 647.5,-219.5"/>
<text text-anchor="middle" x="675.5" y="-233.8" font-family="Times,serif" font-size="14.00">name</text>
</g>
<!-- 5541bc1d28e1e13e440e1ebc&#45;&gt;5541bc1d28e1e13e440e1eb3 -->
<g id="edge21" class="edge"><title>5541bc1d28e1e13e440e1ebc&#45;&gt;5541bc1d28e1e13e440e1eb3</title>
<path fill="none" stroke="black" d="M736.134,-292.313C726.013,-283.33 713.464,-272.193 702.413,-262.386"/>
<polygon fill="black" stroke="black" points="704.49,-259.549 694.687,-255.529 699.843,-264.784 704.49,-259.549"/>
</g>
<!-- 5541bc1d28e1e13e440e1eb0 -->
<g id="node31" class="node"><title>5541bc1d28e1e13e440e1eb0</title>
<polygon fill="none" stroke="black" points="728.5,-219.5 728.5,-255.5 782.5,-255.5 782.5,-219.5 728.5,-219.5"/>
<text text-anchor="middle" x="755.5" y="-233.8" font-family="Times,serif" font-size="14.00">id</text>
</g>
<!-- 5541bc1d28e1e13e440e1ebc&#45;&gt;5541bc1d28e1e13e440e1eb0 -->
<g id="edge22" class="edge"><title>5541bc1d28e1e13e440e1ebc&#45;&gt;5541bc1d28e1e13e440e1eb0</title>
<path fill="none" stroke="black" d="M755.5,-292.313C755.5,-284.289 755.5,-274.547 755.5,-265.569"/>
<polygon fill="black" stroke="black" points="759,-265.529 755.5,-255.529 752,-265.529 759,-265.529"/>
</g>
<!-- 5541bc1d28e1e13e440e1ebb -->
<g id="node32" class="node"><title>5541bc1d28e1e13e440e1ebb</title>
<polygon fill="none" stroke="black" points="803.5,-219.5 803.5,-255.5 857.5,-255.5 857.5,-219.5 803.5,-219.5"/>
<text text-anchor="middle" x="830.5" y="-233.8" font-family="Times,serif" font-size="14.00">next</text>
</g>
<!-- 5541bc1d28e1e13e440e1ebc&#45;&gt;5541bc1d28e1e13e440e1ebb -->
<g id="edge23" class="edge"><title>5541bc1d28e1e13e440e1ebc&#45;&gt;5541bc1d28e1e13e440e1ebb</title>
<path fill="none" stroke="black" d="M773.655,-292.313C783.052,-283.417 794.68,-272.409 804.967,-262.672"/>
<polygon fill="black" stroke="black" points="807.656,-264.945 812.512,-255.529 802.844,-259.862 807.656,-264.945"/>
</g>
<!-- 5541bc1d28e1e13e440e1ed5 -->
<g id="node3" class="node"><title>5541bc1d28e1e13e440e1ed5</title>
<polygon fill="none" stroke="black" points="733.5,-949.5 733.5,-985.5 787.5,-985.5 787.5,-949.5 733.5,-949.5"/>
<text text-anchor="middle" x="760.5" y="-963.8" font-family="Times,serif" font-size="14.00">.ptr</text>
</g>
<!-- 5541bc1d28e1e13e440e1ed4 -->
<g id="node4" class="node"><title>5541bc1d28e1e13e440e1ed4</title>
<polygon fill="none" stroke="black" points="525.5,-876.5 525.5,-912.5 579.5,-912.5 579.5,-876.5 525.5,-876.5"/>
<text text-anchor="middle" x="552.5" y="-890.8" font-family="Times,serif" font-size="14.00">*</text>
</g>
<!-- 5541bc1d28e1e13e440e1ed5&#45;&gt;5541bc1d28e1e13e440e1ed4 -->
<g id="edge2" class="edge"><title>5541bc1d28e1e13e440e1ed5&#45;&gt;5541bc1d28e1e13e440e1ed4</title>
<path fill="none" stroke="black" d="M733.308,-957.218C696.481,-944.647 630.623,-922.167 589.371,-908.086"/>
<polygon fill="black" stroke="black" points="590.294,-904.702 579.699,-904.784 588.032,-911.327 590.294,-904.702"/>
</g>
<!-- 5541bc1d28e1e13e440e1ed3 -->
<g id="node18" class="node"><title>5541bc1d28e1e13e440e1ed3</title>
<polygon fill="none" stroke="black" points="312.5,-803.5 312.5,-839.5 366.5,-839.5 366.5,-803.5 312.5,-803.5"/>
<text text-anchor="middle" x="339.5" y="-817.8" font-family="Times,serif" font-size="14.00">next</text>
</g>
<!-- 5541bc1d28e1e13e440e1ed4&#45;&gt;5541bc1d28e1e13e440e1ed3 -->
<g id="edge12" class="edge"><title>5541bc1d28e1e13e440e1ed4&#45;&gt;5541bc1d28e1e13e440e1ed3</title>
<path fill="none" stroke="black" d="M525.09,-884.363C487.227,-871.742 418.809,-848.936 376.458,-834.819"/>
<polygon fill="black" stroke="black" points="377.398,-831.444 366.805,-831.602 375.185,-838.084 377.398,-831.444"/>
</g>
<!-- 5541bc1d28e1e13e440e1ecb -->
<g id="node19" class="node"><title>5541bc1d28e1e13e440e1ecb</title>
<polygon fill="none" stroke="black" points="488.5,-803.5 488.5,-839.5 544.5,-839.5 544.5,-803.5 488.5,-803.5"/>
<text text-anchor="middle" x="516.5" y="-817.8" font-family="Times,serif" font-size="14.00">name</text>
</g>
<!-- 5541bc1d28e1e13e440e1ed4&#45;&gt;5541bc1d28e1e13e440e1ecb -->
<g id="edge13" class="edge"><title>5541bc1d28e1e13e440e1ed4&#45;&gt;5541bc1d28e1e13e440e1ecb</title>
<path fill="none" stroke="black" d="M543.785,-876.313C539.585,-868.028 534.455,-857.91 529.781,-848.693"/>
<polygon fill="black" stroke="black" points="532.778,-846.865 525.134,-839.529 526.535,-850.031 532.778,-846.865"/>
</g>
<!-- 5541bc1d28e1e13e440e1ec8 -->
<g id="node20" class="node"><title>5541bc1d28e1e13e440e1ec8</title>
<polygon fill="none" stroke="black" points="562.5,-803.5 562.5,-839.5 616.5,-839.5 616.5,-803.5 562.5,-803.5"/>
<text text-anchor="middle" x="589.5" y="-817.8" font-family="Times,serif" font-size="14.00">id</text>
</g>
<!-- 5541bc1d28e1e13e440e1ed4&#45;&gt;5541bc1d28e1e13e440e1ec8 -->
<g id="edge14" class="edge"><title>5541bc1d28e1e13e440e1ed4&#45;&gt;5541bc1d28e1e13e440e1ec8</title>
<path fill="none" stroke="black" d="M561.457,-876.313C565.82,-867.941 571.158,-857.697 576.001,-848.403"/>
<polygon fill="black" stroke="black" points="579.108,-850.014 580.626,-839.529 572.901,-846.779 579.108,-850.014"/>
</g>
<!-- 5541bc1d28e1e13e440e1eb2 -->
<g id="node6" class="node"><title>5541bc1d28e1e13e440e1eb2</title>
<polygon fill="none" stroke="black" points="315.5,-146.5 315.5,-182.5 543.5,-182.5 543.5,-146.5 315.5,-146.5"/>
<text text-anchor="middle" x="429.5" y="-160.8" font-family="Times,serif" font-size="14.00">5541bc1d28e1e13e440e1eb2</text>
</g>
<!-- 5541bc1d28e1e13e440e1eb3&#45;&gt;5541bc1d28e1e13e440e1eb2 -->
<g id="edge3" class="edge"><title>5541bc1d28e1e13e440e1eb3&#45;&gt;5541bc1d28e1e13e440e1eb2</title>
<path fill="none" stroke="black" d="M647.281,-228.355C611.194,-217.94 547.491,-199.554 498.272,-185.349"/>
<polygon fill="black" stroke="black" points="499.212,-181.977 488.633,-182.567 497.271,-188.703 499.212,-181.977"/>
</g>
<!-- 5541bc1d28e1e13e440e1eb1 -->
<g id="node7" class="node"><title>5541bc1d28e1e13e440e1eb1</title>
<polygon fill="none" stroke="black" points="561.5,-146.5 561.5,-182.5 789.5,-182.5 789.5,-146.5 561.5,-146.5"/>
<text text-anchor="middle" x="675.5" y="-160.8" font-family="Times,serif" font-size="14.00">5541bc1d28e1e13e440e1eb1</text>
</g>
<!-- 5541bc1d28e1e13e440e1eb3&#45;&gt;5541bc1d28e1e13e440e1eb1 -->
<g id="edge4" class="edge"><title>5541bc1d28e1e13e440e1eb3&#45;&gt;5541bc1d28e1e13e440e1eb1</title>
<path fill="none" stroke="black" d="M675.5,-219.313C675.5,-211.289 675.5,-201.547 675.5,-192.569"/>
<polygon fill="black" stroke="black" points="679,-192.529 675.5,-182.529 672,-192.529 679,-192.529"/>
</g>
<!-- 5541bc1d28e1e13e440e1ea3 -->
<g id="node8" class="node"><title>5541bc1d28e1e13e440e1ea3</title>
<polygon fill="none" stroke="black" points="878.5,-803.5 878.5,-839.5 934.5,-839.5 934.5,-803.5 878.5,-803.5"/>
<text text-anchor="middle" x="906.5" y="-817.8" font-family="Times,serif" font-size="14.00">name</text>
</g>
<!-- 5541bc1d28e1e13e440e1ea2 -->
<g id="node9" class="node"><title>5541bc1d28e1e13e440e1ea2</title>
<polygon fill="none" stroke="black" points="771,-730.5 771,-766.5 998,-766.5 998,-730.5 771,-730.5"/>
<text text-anchor="middle" x="884.5" y="-744.8" font-family="Times,serif" font-size="14.00">5541bc1d28e1e13e440e1ea2</text>
</g>
<!-- 5541bc1d28e1e13e440e1ea3&#45;&gt;5541bc1d28e1e13e440e1ea2 -->
<g id="edge5" class="edge"><title>5541bc1d28e1e13e440e1ea3&#45;&gt;5541bc1d28e1e13e440e1ea2</title>
<path fill="none" stroke="black" d="M901.174,-803.313C898.661,-795.202 895.604,-785.336 892.797,-776.277"/>
<polygon fill="black" stroke="black" points="896.08,-775.045 889.777,-766.529 889.393,-777.117 896.08,-775.045"/>
</g>
<!-- 5541bc1d28e1e13e440e1ea1 -->
<g id="node10" class="node"><title>5541bc1d28e1e13e440e1ea1</title>
<polygon fill="none" stroke="black" points="1016,-730.5 1016,-766.5 1071,-766.5 1071,-730.5 1016,-730.5"/>
<text text-anchor="middle" x="1043.5" y="-744.8" font-family="Times,serif" font-size="14.00">.npos</text>
</g>
<!-- 5541bc1d28e1e13e440e1ea3&#45;&gt;5541bc1d28e1e13e440e1ea1 -->
<g id="edge6" class="edge"><title>5541bc1d28e1e13e440e1ea3&#45;&gt;5541bc1d28e1e13e440e1ea1</title>
<path fill="none" stroke="black" d="M934.555,-805.961C955.471,-795.121 984.226,-780.219 1006.94,-768.446"/>
<polygon fill="black" stroke="black" points="1008.68,-771.486 1015.95,-763.777 1005.46,-765.271 1008.68,-771.486"/>
</g>
<!-- 5541bc1d28e1e13e440e1eb7 -->
<g id="node11" class="node"><title>5541bc1d28e1e13e440e1eb7</title>
<polygon fill="none" stroke="black" points="733.5,-73.5 733.5,-109.5 789.5,-109.5 789.5,-73.5 733.5,-73.5"/>
<text text-anchor="middle" x="761.5" y="-87.8" font-family="Times,serif" font-size="14.00">name</text>
</g>
<!-- 5541bc1d28e1e13e440e1eb6 -->
<g id="node12" class="node"><title>5541bc1d28e1e13e440e1eb6</title>
<polygon fill="none" stroke="black" points="524.5,-0.5 524.5,-36.5 752.5,-36.5 752.5,-0.5 524.5,-0.5"/>
<text text-anchor="middle" x="638.5" y="-14.8" font-family="Times,serif" font-size="14.00">5541bc1d28e1e13e440e1eb6</text>
</g>
<!-- 5541bc1d28e1e13e440e1eb7&#45;&gt;5541bc1d28e1e13e440e1eb6 -->
<g id="edge7" class="edge"><title>5541bc1d28e1e13e440e1eb7&#45;&gt;5541bc1d28e1e13e440e1eb6</title>
<path fill="none" stroke="black" d="M733.281,-74.2112C716.581,-64.5709 695.194,-52.2259 676.964,-41.703"/>
<polygon fill="black" stroke="black" points="678.714,-38.6715 668.303,-36.7034 675.214,-44.7339 678.714,-38.6715"/>
</g>
<!-- 5541bc1d28e1e13e440e1eb5 -->
<g id="node13" class="node"><title>5541bc1d28e1e13e440e1eb5</title>
<polygon fill="none" stroke="black" points="770.5,-0.5 770.5,-36.5 998.5,-36.5 998.5,-0.5 770.5,-0.5"/>
<text text-anchor="middle" x="884.5" y="-14.8" font-family="Times,serif" font-size="14.00">5541bc1d28e1e13e440e1eb5</text>
</g>
<!-- 5541bc1d28e1e13e440e1eb7&#45;&gt;5541bc1d28e1e13e440e1eb5 -->
<g id="edge8" class="edge"><title>5541bc1d28e1e13e440e1eb7&#45;&gt;5541bc1d28e1e13e440e1eb5</title>
<path fill="none" stroke="black" d="M789.719,-74.2112C806.419,-64.5709 827.806,-52.2259 846.036,-41.703"/>
<polygon fill="black" stroke="black" points="847.786,-44.7339 854.697,-36.7034 844.286,-38.6715 847.786,-44.7339"/>
</g>
<!-- 5541bc1d28e1e13e440e1ec0 -->
<g id="node14" class="node"><title>5541bc1d28e1e13e440e1ec0</title>
<polygon fill="none" stroke="black" points="1046.5,-584.5 1046.5,-620.5 1100.5,-620.5 1100.5,-584.5 1046.5,-584.5"/>
<text text-anchor="middle" x="1073.5" y="-598.8" font-family="Times,serif" font-size="14.00">*</text>
</g>
<!-- 5541bc1d28e1e13e440e1ebf -->
<g id="node15" class="node"><title>5541bc1d28e1e13e440e1ebf</title>
<polygon fill="none" stroke="black" points="930.5,-511.5 930.5,-547.5 984.5,-547.5 984.5,-511.5 930.5,-511.5"/>
<text text-anchor="middle" x="957.5" y="-525.8" font-family="Times,serif" font-size="14.00">next</text>
</g>
<!-- 5541bc1d28e1e13e440e1ec0&#45;&gt;5541bc1d28e1e13e440e1ebf -->
<g id="edge9" class="edge"><title>5541bc1d28e1e13e440e1ec0&#45;&gt;5541bc1d28e1e13e440e1ebf</title>
<path fill="none" stroke="black" d="M1046.3,-584.854C1030.45,-575.151 1010.27,-562.8 993.158,-552.325"/>
<polygon fill="black" stroke="black" points="994.883,-549.277 984.526,-547.042 991.228,-555.248 994.883,-549.277"/>
</g>
<!-- 5541bc1d28e1e13e440e1eab -->
<g id="node16" class="node"><title>5541bc1d28e1e13e440e1eab</title>
<polygon fill="none" stroke="black" points="1045.5,-511.5 1045.5,-547.5 1101.5,-547.5 1101.5,-511.5 1045.5,-511.5"/>
<text text-anchor="middle" x="1073.5" y="-525.8" font-family="Times,serif" font-size="14.00">name</text>
</g>
<!-- 5541bc1d28e1e13e440e1ec0&#45;&gt;5541bc1d28e1e13e440e1eab -->
<g id="edge10" class="edge"><title>5541bc1d28e1e13e440e1ec0&#45;&gt;5541bc1d28e1e13e440e1eab</title>
<path fill="none" stroke="black" d="M1073.5,-584.313C1073.5,-576.289 1073.5,-566.547 1073.5,-557.569"/>
<polygon fill="black" stroke="black" points="1077,-557.529 1073.5,-547.529 1070,-557.529 1077,-557.529"/>
</g>
<!-- 5541bc1d28e1e13e440e1ea8 -->
<g id="node17" class="node"><title>5541bc1d28e1e13e440e1ea8</title>
<polygon fill="none" stroke="black" points="1119.5,-511.5 1119.5,-547.5 1173.5,-547.5 1173.5,-511.5 1119.5,-511.5"/>
<text text-anchor="middle" x="1146.5" y="-525.8" font-family="Times,serif" font-size="14.00">id</text>
</g>
<!-- 5541bc1d28e1e13e440e1ec0&#45;&gt;5541bc1d28e1e13e440e1ea8 -->
<g id="edge11" class="edge"><title>5541bc1d28e1e13e440e1ec0&#45;&gt;5541bc1d28e1e13e440e1ea8</title>
<path fill="none" stroke="black" d="M1091.17,-584.313C1100.32,-575.417 1111.64,-564.409 1121.65,-554.672"/>
<polygon fill="black" stroke="black" points="1124.26,-557.01 1128.99,-547.529 1119.38,-551.992 1124.26,-557.01"/>
</g>
<!-- 5541bc1d28e1e13e440e1ebe -->
<g id="node43" class="node"><title>5541bc1d28e1e13e440e1ebe</title>
<polygon fill="none" stroke="black" points="887.5,-438.5 887.5,-474.5 941.5,-474.5 941.5,-438.5 887.5,-438.5"/>
<text text-anchor="middle" x="914.5" y="-452.8" font-family="Times,serif" font-size="14.00">*</text>
</g>
<!-- 5541bc1d28e1e13e440e1ebf&#45;&gt;5541bc1d28e1e13e440e1ebe -->
<g id="edge29" class="edge"><title>5541bc1d28e1e13e440e1ebf&#45;&gt;5541bc1d28e1e13e440e1ebe</title>
<path fill="none" stroke="black" d="M947.091,-511.313C941.968,-502.853 935.687,-492.484 930.012,-483.112"/>
<polygon fill="black" stroke="black" points="932.987,-481.269 924.813,-474.529 927,-484.896 932.987,-481.269"/>
</g>
<!-- 5541bc1d28e1e13e440e1ea9 -->
<g id="node56" class="node"><title>5541bc1d28e1e13e440e1ea9</title>
<polygon fill="none" stroke="black" points="960,-438.5 960,-474.5 1187,-474.5 1187,-438.5 960,-438.5"/>
<text text-anchor="middle" x="1073.5" y="-452.8" font-family="Times,serif" font-size="14.00">5541bc1d28e1e13e440e1ea9</text>
</g>
<!-- 5541bc1d28e1e13e440e1eab&#45;&gt;5541bc1d28e1e13e440e1ea9 -->
<g id="edge48" class="edge"><title>5541bc1d28e1e13e440e1eab&#45;&gt;5541bc1d28e1e13e440e1ea9</title>
<path fill="none" stroke="black" d="M1073.5,-511.313C1073.5,-503.289 1073.5,-493.547 1073.5,-484.569"/>
<polygon fill="black" stroke="black" points="1077,-484.529 1073.5,-474.529 1070,-484.529 1077,-484.529"/>
</g>
<!-- 5541bc1d28e1e13e440e1eaa -->
<g id="node57" class="node"><title>5541bc1d28e1e13e440e1eaa</title>
<polygon fill="none" stroke="black" points="1205,-438.5 1205,-474.5 1432,-474.5 1432,-438.5 1205,-438.5"/>
<text text-anchor="middle" x="1318.5" y="-452.8" font-family="Times,serif" font-size="14.00">5541bc1d28e1e13e440e1eaa</text>
</g>
<!-- 5541bc1d28e1e13e440e1eab&#45;&gt;5541bc1d28e1e13e440e1eaa -->
<g id="edge49" class="edge"><title>5541bc1d28e1e13e440e1eab&#45;&gt;5541bc1d28e1e13e440e1eaa</title>
<path fill="none" stroke="black" d="M1101.55,-514.559C1104.54,-513.277 1107.56,-512.063 1110.5,-511 1148.16,-497.39 1190.83,-485.783 1227.68,-476.894"/>
<polygon fill="black" stroke="black" points="1228.5,-480.298 1237.41,-474.576 1226.88,-473.488 1228.5,-480.298"/>
</g>
<!-- 5541bc1d28e1e13e440e1ed2 -->
<g id="node26" class="node"><title>5541bc1d28e1e13e440e1ed2</title>
<polygon fill="none" stroke="black" points="208.5,-730.5 208.5,-766.5 262.5,-766.5 262.5,-730.5 208.5,-730.5"/>
<text text-anchor="middle" x="235.5" y="-744.8" font-family="Times,serif" font-size="14.00">*</text>
</g>
<!-- 5541bc1d28e1e13e440e1ed3&#45;&gt;5541bc1d28e1e13e440e1ed2 -->
<g id="edge17" class="edge"><title>5541bc1d28e1e13e440e1ed3&#45;&gt;5541bc1d28e1e13e440e1ed2</title>
<path fill="none" stroke="black" d="M314.589,-803.494C300.926,-794.166 283.8,-782.474 268.982,-772.358"/>
<polygon fill="black" stroke="black" points="270.8,-769.361 260.568,-766.614 266.853,-775.143 270.8,-769.361"/>
</g>
<!-- 5541bc1d28e1e13e440e1eca -->
<g id="node48" class="node"><title>5541bc1d28e1e13e440e1eca</title>
<polygon fill="none" stroke="black" points="281,-730.5 281,-766.5 508,-766.5 508,-730.5 281,-730.5"/>
<text text-anchor="middle" x="394.5" y="-744.8" font-family="Times,serif" font-size="14.00">5541bc1d28e1e13e440e1eca</text>
</g>
<!-- 5541bc1d28e1e13e440e1ecb&#45;&gt;5541bc1d28e1e13e440e1eca -->
<g id="edge34" class="edge"><title>5541bc1d28e1e13e440e1ecb&#45;&gt;5541bc1d28e1e13e440e1eca</title>
<path fill="none" stroke="black" d="M488.204,-804.033C471.78,-794.474 450.865,-782.303 432.963,-771.884"/>
<polygon fill="black" stroke="black" points="434.32,-768.624 423.916,-766.619 430.799,-774.674 434.32,-768.624"/>
</g>
<!-- 5541bc1d28e1e13e440e1ec9 -->
<g id="node49" class="node"><title>5541bc1d28e1e13e440e1ec9</title>
<polygon fill="none" stroke="black" points="526,-730.5 526,-766.5 753,-766.5 753,-730.5 526,-730.5"/>
<text text-anchor="middle" x="639.5" y="-744.8" font-family="Times,serif" font-size="14.00">5541bc1d28e1e13e440e1ec9</text>
</g>
<!-- 5541bc1d28e1e13e440e1ecb&#45;&gt;5541bc1d28e1e13e440e1ec9 -->
<g id="edge35" class="edge"><title>5541bc1d28e1e13e440e1ecb&#45;&gt;5541bc1d28e1e13e440e1ec9</title>
<path fill="none" stroke="black" d="M544.719,-804.211C561.419,-794.571 582.806,-782.226 601.036,-771.703"/>
<polygon fill="black" stroke="black" points="602.786,-774.734 609.697,-766.703 599.286,-768.671 602.786,-774.734"/>
</g>
<!-- 5541bc1d28e1e13e440e1ed1 -->
<g id="node21" class="node"><title>5541bc1d28e1e13e440e1ed1</title>
<polygon fill="none" stroke="black" points="135.5,-657.5 135.5,-693.5 189.5,-693.5 189.5,-657.5 135.5,-657.5"/>
<text text-anchor="middle" x="162.5" y="-671.8" font-family="Times,serif" font-size="14.00">next</text>
</g>
<!-- 5541bc1c28e1e13e440e1e9e -->
<g id="node22" class="node"><title>5541bc1c28e1e13e440e1e9e</title>
<polygon fill="none" stroke="black" points="994.5,-1022.5 994.5,-1058.5 1048.5,-1058.5 1048.5,-1022.5 994.5,-1022.5"/>
<text text-anchor="middle" x="1021.5" y="-1036.8" font-family="Times,serif" font-size="14.00">id</text>
</g>
<!-- 5541bc1d28e1e13e440e1eaf -->
<g id="node23" class="node"><title>5541bc1d28e1e13e440e1eaf</title>
<polygon fill="none" stroke="black" points="886.5,-365.5 886.5,-401.5 942.5,-401.5 942.5,-365.5 886.5,-365.5"/>
<text text-anchor="middle" x="914.5" y="-379.8" font-family="Times,serif" font-size="14.00">name</text>
</g>
<!-- 5541bc1d28e1e13e440e1ead -->
<g id="node24" class="node"><title>5541bc1d28e1e13e440e1ead</title>
<polygon fill="none" stroke="black" points="801,-292.5 801,-328.5 1028,-328.5 1028,-292.5 801,-292.5"/>
<text text-anchor="middle" x="914.5" y="-306.8" font-family="Times,serif" font-size="14.00">5541bc1d28e1e13e440e1ead</text>
</g>
<!-- 5541bc1d28e1e13e440e1eaf&#45;&gt;5541bc1d28e1e13e440e1ead -->
<g id="edge15" class="edge"><title>5541bc1d28e1e13e440e1eaf&#45;&gt;5541bc1d28e1e13e440e1ead</title>
<path fill="none" stroke="black" d="M914.5,-365.313C914.5,-357.289 914.5,-347.547 914.5,-338.569"/>
<polygon fill="black" stroke="black" points="918,-338.529 914.5,-328.529 911,-338.529 918,-338.529"/>
</g>
<!-- 5541bc1d28e1e13e440e1eae -->
<g id="node25" class="node"><title>5541bc1d28e1e13e440e1eae</title>
<polygon fill="none" stroke="black" points="1046,-292.5 1046,-328.5 1273,-328.5 1273,-292.5 1046,-292.5"/>
<text text-anchor="middle" x="1159.5" y="-306.8" font-family="Times,serif" font-size="14.00">5541bc1d28e1e13e440e1eae</text>
</g>
<!-- 5541bc1d28e1e13e440e1eaf&#45;&gt;5541bc1d28e1e13e440e1eae -->
<g id="edge16" class="edge"><title>5541bc1d28e1e13e440e1eaf&#45;&gt;5541bc1d28e1e13e440e1eae</title>
<path fill="none" stroke="black" d="M942.547,-368.559C945.537,-367.277 948.56,-366.063 951.5,-365 989.163,-351.39 1031.83,-339.783 1068.68,-330.894"/>
<polygon fill="black" stroke="black" points="1069.5,-334.298 1078.41,-328.576 1067.88,-327.488 1069.5,-334.298"/>
</g>
<!-- 5541bc1d28e1e13e440e1ed2&#45;&gt;5541bc1d28e1e13e440e1ed1 -->
<g id="edge43" class="edge"><title>5541bc1d28e1e13e440e1ed2&#45;&gt;5541bc1d28e1e13e440e1ed1</title>
<path fill="none" stroke="black" d="M217.829,-730.313C208.683,-721.417 197.365,-710.409 187.353,-700.672"/>
<polygon fill="black" stroke="black" points="189.617,-697.992 180.009,-693.529 184.737,-703.01 189.617,-697.992"/>
</g>
<!-- 5541bc1d28e1e13e440e1ecf -->
<g id="node40" class="node"><title>5541bc1d28e1e13e440e1ecf</title>
<polygon fill="none" stroke="black" points="207.5,-657.5 207.5,-693.5 263.5,-693.5 263.5,-657.5 207.5,-657.5"/>
<text text-anchor="middle" x="235.5" y="-671.8" font-family="Times,serif" font-size="14.00">name</text>
</g>
<!-- 5541bc1d28e1e13e440e1ed2&#45;&gt;5541bc1d28e1e13e440e1ecf -->
<g id="edge44" class="edge"><title>5541bc1d28e1e13e440e1ed2&#45;&gt;5541bc1d28e1e13e440e1ecf</title>
<path fill="none" stroke="black" d="M235.5,-730.313C235.5,-722.289 235.5,-712.547 235.5,-703.569"/>
<polygon fill="black" stroke="black" points="239,-703.529 235.5,-693.529 232,-703.529 239,-703.529"/>
</g>
<!-- 5541bc1d28e1e13e440e1ecc -->
<g id="node47" class="node"><title>5541bc1d28e1e13e440e1ecc</title>
<polygon fill="none" stroke="black" points="281.5,-657.5 281.5,-693.5 335.5,-693.5 335.5,-657.5 281.5,-657.5"/>
<text text-anchor="middle" x="308.5" y="-671.8" font-family="Times,serif" font-size="14.00">id</text>
</g>
<!-- 5541bc1d28e1e13e440e1ed2&#45;&gt;5541bc1d28e1e13e440e1ecc -->
<g id="edge45" class="edge"><title>5541bc1d28e1e13e440e1ed2&#45;&gt;5541bc1d28e1e13e440e1ecc</title>
<path fill="none" stroke="black" d="M253.171,-730.313C262.317,-721.417 273.635,-710.409 283.647,-700.672"/>
<polygon fill="black" stroke="black" points="286.263,-703.01 290.991,-693.529 281.383,-697.992 286.263,-703.01"/>
</g>
<!-- 5541bc1d28e1e13e440e1eb8 -->
<g id="node27" class="node"><title>5541bc1d28e1e13e440e1eb8</title>
<polygon fill="none" stroke="black" points="1069.5,-1022.5 1069.5,-1058.5 1123.5,-1058.5 1123.5,-1022.5 1069.5,-1022.5"/>
<text text-anchor="middle" x="1096.5" y="-1036.8" font-family="Times,serif" font-size="14.00">*</text>
</g>
<!-- 5541bc1d28e1e13e440e1ec4 -->
<g id="node28" class="node"><title>5541bc1d28e1e13e440e1ec4</title>
<polygon fill="none" stroke="black" points="915.5,-876.5 915.5,-912.5 969.5,-912.5 969.5,-876.5 915.5,-876.5"/>
<text text-anchor="middle" x="942.5" y="-890.8" font-family="Times,serif" font-size="14.00">*</text>
</g>
<!-- 5541bc1d28e1e13e440e1ec4&#45;&gt;5541bc1d28e1e13e440e1ea3 -->
<g id="edge18" class="edge"><title>5541bc1d28e1e13e440e1ec4&#45;&gt;5541bc1d28e1e13e440e1ea3</title>
<path fill="none" stroke="black" d="M933.785,-876.313C929.585,-868.028 924.455,-857.91 919.781,-848.693"/>
<polygon fill="black" stroke="black" points="922.778,-846.865 915.134,-839.529 916.535,-850.031 922.778,-846.865"/>
</g>
<!-- 5541bc1d28e1e13e440e1ea0 -->
<g id="node29" class="node"><title>5541bc1d28e1e13e440e1ea0</title>
<polygon fill="none" stroke="black" points="952.5,-803.5 952.5,-839.5 1006.5,-839.5 1006.5,-803.5 952.5,-803.5"/>
<text text-anchor="middle" x="979.5" y="-817.8" font-family="Times,serif" font-size="14.00">id</text>
</g>
<!-- 5541bc1d28e1e13e440e1ec4&#45;&gt;5541bc1d28e1e13e440e1ea0 -->
<g id="edge19" class="edge"><title>5541bc1d28e1e13e440e1ec4&#45;&gt;5541bc1d28e1e13e440e1ea0</title>
<path fill="none" stroke="black" d="M951.457,-876.313C955.82,-867.941 961.158,-857.697 966.001,-848.403"/>
<polygon fill="black" stroke="black" points="969.108,-850.014 970.626,-839.529 962.901,-846.779 969.108,-850.014"/>
</g>
<!-- 5541bc1d28e1e13e440e1ec3 -->
<g id="node30" class="node"><title>5541bc1d28e1e13e440e1ec3</title>
<polygon fill="none" stroke="black" points="1067.5,-803.5 1067.5,-839.5 1121.5,-839.5 1121.5,-803.5 1067.5,-803.5"/>
<text text-anchor="middle" x="1094.5" y="-817.8" font-family="Times,serif" font-size="14.00">next</text>
</g>
<!-- 5541bc1d28e1e13e440e1ec4&#45;&gt;5541bc1d28e1e13e440e1ec3 -->
<g id="edge20" class="edge"><title>5541bc1d28e1e13e440e1ec4&#45;&gt;5541bc1d28e1e13e440e1ec3</title>
<path fill="none" stroke="black" d="M969.598,-880.254C972.598,-878.81 975.611,-877.368 978.5,-876 1004.98,-863.458 1035.03,-849.611 1057.9,-839.147"/>
<polygon fill="black" stroke="black" points="1059.6,-842.222 1067.24,-834.884 1056.69,-835.855 1059.6,-842.222"/>
</g>
<!-- 5541bc1d28e1e13e440e1ec2 -->
<g id="node39" class="node"><title>5541bc1d28e1e13e440e1ec2</title>
<polygon fill="none" stroke="black" points="1089.5,-730.5 1089.5,-766.5 1143.5,-766.5 1143.5,-730.5 1089.5,-730.5"/>
<text text-anchor="middle" x="1116.5" y="-744.8" font-family="Times,serif" font-size="14.00">*</text>
</g>
<!-- 5541bc1d28e1e13e440e1ec3&#45;&gt;5541bc1d28e1e13e440e1ec2 -->
<g id="edge26" class="edge"><title>5541bc1d28e1e13e440e1ec3&#45;&gt;5541bc1d28e1e13e440e1ec2</title>
<path fill="none" stroke="black" d="M1099.83,-803.313C1102.34,-795.202 1105.4,-785.336 1108.2,-776.277"/>
<polygon fill="black" stroke="black" points="1111.61,-777.117 1111.22,-766.529 1104.92,-775.045 1111.61,-777.117"/>
</g>
<!-- 5541bc1d28e1e13e440e1eba -->
<g id="node50" class="node"><title>5541bc1d28e1e13e440e1eba</title>
<polygon fill="none" stroke="black" points="807.5,-146.5 807.5,-182.5 861.5,-182.5 861.5,-146.5 807.5,-146.5"/>
<text text-anchor="middle" x="834.5" y="-160.8" font-family="Times,serif" font-size="14.00">*</text>
</g>
<!-- 5541bc1d28e1e13e440e1ebb&#45;&gt;5541bc1d28e1e13e440e1eba -->
<g id="edge36" class="edge"><title>5541bc1d28e1e13e440e1ebb&#45;&gt;5541bc1d28e1e13e440e1eba</title>
<path fill="none" stroke="black" d="M831.468,-219.313C831.92,-211.289 832.469,-201.547 832.975,-192.569"/>
<polygon fill="black" stroke="black" points="836.473,-192.71 833.541,-182.529 829.484,-192.316 836.473,-192.71"/>
</g>
<!-- 5541bc1d28e1e13e440e1eac -->
<g id="node33" class="node"><title>5541bc1d28e1e13e440e1eac</title>
<polygon fill="none" stroke="black" points="960.5,-365.5 960.5,-401.5 1014.5,-401.5 1014.5,-365.5 960.5,-365.5"/>
<text text-anchor="middle" x="987.5" y="-379.8" font-family="Times,serif" font-size="14.00">id</text>
</g>
<!-- 5541bc1d28e1e13e440e1ea4 -->
<g id="node34" class="node"><title>5541bc1d28e1e13e440e1ea4</title>
<polygon fill="none" stroke="black" points="1017.5,-657.5 1017.5,-693.5 1071.5,-693.5 1071.5,-657.5 1017.5,-657.5"/>
<text text-anchor="middle" x="1044.5" y="-671.8" font-family="Times,serif" font-size="14.00">id</text>
</g>
<!-- 5541bc1d28e1e13e440e1ed0 -->
<g id="node35" class="node"><title>5541bc1d28e1e13e440e1ed0</title>
<polygon fill="none" stroke="black" points="1147.5,-1022.5 1147.5,-1058.5 1201.5,-1058.5 1201.5,-1022.5 1147.5,-1022.5"/>
<text text-anchor="middle" x="1174.5" y="-1036.8" font-family="Times,serif" font-size="14.00">*</text>
</g>
<!-- 5541bc1d28e1e13e440e1ed8 -->
<g id="node36" class="node"><title>5541bc1d28e1e13e440e1ed8</title>
<polygon fill="none" stroke="black" points="1231.5,-1022.5 1231.5,-1058.5 1285.5,-1058.5 1285.5,-1022.5 1231.5,-1022.5"/>
<text text-anchor="middle" x="1258.5" y="-1036.8" font-family="Times,serif" font-size="14.00">ptr</text>
</g>
<!-- 5541bc1d28e1e13e440e1ed7 -->
<g id="node37" class="node"><title>5541bc1d28e1e13e440e1ed7</title>
<polygon fill="none" stroke="black" points="1144.5,-949.5 1144.5,-985.5 1372.5,-985.5 1372.5,-949.5 1144.5,-949.5"/>
<text text-anchor="middle" x="1258.5" y="-963.8" font-family="Times,serif" font-size="14.00">5541bc1d28e1e13e440e1ed7</text>
</g>
<!-- 5541bc1d28e1e13e440e1ed8&#45;&gt;5541bc1d28e1e13e440e1ed7 -->
<g id="edge24" class="edge"><title>5541bc1d28e1e13e440e1ed8&#45;&gt;5541bc1d28e1e13e440e1ed7</title>
<path fill="none" stroke="black" d="M1258.5,-1022.31C1258.5,-1014.29 1258.5,-1004.55 1258.5,-995.569"/>
<polygon fill="black" stroke="black" points="1262,-995.529 1258.5,-985.529 1255,-995.529 1262,-995.529"/>
</g>
<!-- 5541bc1d28e1e13e440e1ec1 -->
<g id="node38" class="node"><title>5541bc1d28e1e13e440e1ec1</title>
<polygon fill="none" stroke="black" points="1089.5,-657.5 1089.5,-693.5 1143.5,-693.5 1143.5,-657.5 1089.5,-657.5"/>
<text text-anchor="middle" x="1116.5" y="-671.8" font-family="Times,serif" font-size="14.00">next</text>
</g>
<!-- 5541bc1d28e1e13e440e1ec1&#45;&gt;5541bc1d28e1e13e440e1ec0 -->
<g id="edge25" class="edge"><title>5541bc1d28e1e13e440e1ec1&#45;&gt;5541bc1d28e1e13e440e1ec0</title>
<path fill="none" stroke="black" d="M1106.09,-657.313C1100.97,-648.853 1094.69,-638.484 1089.01,-629.112"/>
<polygon fill="black" stroke="black" points="1091.99,-627.269 1083.81,-620.529 1086,-630.896 1091.99,-627.269"/>
</g>
<!-- 5541bc1d28e1e13e440e1ec2&#45;&gt;5541bc1d28e1e13e440e1ea4 -->
<g id="edge37" class="edge"><title>5541bc1d28e1e13e440e1ec2&#45;&gt;5541bc1d28e1e13e440e1ea4</title>
<path fill="none" stroke="black" d="M1099.07,-730.313C1090.05,-721.417 1078.89,-710.409 1069.01,-700.672"/>
<polygon fill="black" stroke="black" points="1071.35,-698.058 1061.77,-693.529 1066.43,-703.042 1071.35,-698.058"/>
</g>
<!-- 5541bc1d28e1e13e440e1ec2&#45;&gt;5541bc1d28e1e13e440e1ec1 -->
<g id="edge38" class="edge"><title>5541bc1d28e1e13e440e1ec2&#45;&gt;5541bc1d28e1e13e440e1ec1</title>
<path fill="none" stroke="black" d="M1116.5,-730.313C1116.5,-722.289 1116.5,-712.547 1116.5,-703.569"/>
<polygon fill="black" stroke="black" points="1120,-703.529 1116.5,-693.529 1113,-703.529 1120,-703.529"/>
</g>
<!-- 5541bc1d28e1e13e440e1ea7 -->
<g id="node51" class="node"><title>5541bc1d28e1e13e440e1ea7</title>
<polygon fill="none" stroke="black" points="1204.5,-657.5 1204.5,-693.5 1260.5,-693.5 1260.5,-657.5 1204.5,-657.5"/>
<text text-anchor="middle" x="1232.5" y="-671.8" font-family="Times,serif" font-size="14.00">name</text>
</g>
<!-- 5541bc1d28e1e13e440e1ec2&#45;&gt;5541bc1d28e1e13e440e1ea7 -->
<g id="edge39" class="edge"><title>5541bc1d28e1e13e440e1ec2&#45;&gt;5541bc1d28e1e13e440e1ea7</title>
<path fill="none" stroke="black" d="M1143.7,-730.854C1159.32,-721.29 1179.15,-709.155 1196.1,-698.778"/>
<polygon fill="black" stroke="black" points="1197.97,-701.741 1204.67,-693.535 1194.31,-695.77 1197.97,-701.741"/>
</g>
<!-- 5541bc1d28e1e13e440e1ece -->
<g id="node41" class="node"><title>5541bc1d28e1e13e440e1ece</title>
<polygon fill="none" stroke="black" points="0,-584.5 0,-620.5 227,-620.5 227,-584.5 0,-584.5"/>
<text text-anchor="middle" x="113.5" y="-598.8" font-family="Times,serif" font-size="14.00">5541bc1d28e1e13e440e1ece</text>
</g>
<!-- 5541bc1d28e1e13e440e1ecf&#45;&gt;5541bc1d28e1e13e440e1ece -->
<g id="edge27" class="edge"><title>5541bc1d28e1e13e440e1ecf&#45;&gt;5541bc1d28e1e13e440e1ece</title>
<path fill="none" stroke="black" d="M207.204,-658.033C190.78,-648.474 169.865,-636.303 151.963,-625.884"/>
<polygon fill="black" stroke="black" points="153.32,-622.624 142.916,-620.619 149.799,-628.674 153.32,-622.624"/>
</g>
<!-- 5541bc1d28e1e13e440e1ecd -->
<g id="node42" class="node"><title>5541bc1d28e1e13e440e1ecd</title>
<polygon fill="none" stroke="black" points="245,-584.5 245,-620.5 472,-620.5 472,-584.5 245,-584.5"/>
<text text-anchor="middle" x="358.5" y="-598.8" font-family="Times,serif" font-size="14.00">5541bc1d28e1e13e440e1ecd</text>
</g>
<!-- 5541bc1d28e1e13e440e1ecf&#45;&gt;5541bc1d28e1e13e440e1ecd -->
<g id="edge28" class="edge"><title>5541bc1d28e1e13e440e1ecf&#45;&gt;5541bc1d28e1e13e440e1ecd</title>
<path fill="none" stroke="black" d="M263.719,-658.211C280.419,-648.571 301.806,-636.226 320.036,-625.703"/>
<polygon fill="black" stroke="black" points="321.786,-628.734 328.697,-620.703 318.286,-622.671 321.786,-628.734"/>
</g>
<!-- 5541bc1d28e1e13e440e1ebe&#45;&gt;5541bc1d28e1e13e440e1ebd -->
<g id="edge51" class="edge"><title>5541bc1d28e1e13e440e1ebe&#45;&gt;5541bc1d28e1e13e440e1ebd</title>
<path fill="none" stroke="black" d="M887.303,-438.854C871.45,-429.151 851.272,-416.8 834.158,-406.325"/>
<polygon fill="black" stroke="black" points="835.883,-403.277 825.526,-401.042 832.228,-409.248 835.883,-403.277"/>
</g>
<!-- 5541bc1d28e1e13e440e1ebe&#45;&gt;5541bc1d28e1e13e440e1eaf -->
<g id="edge52" class="edge"><title>5541bc1d28e1e13e440e1ebe&#45;&gt;5541bc1d28e1e13e440e1eaf</title>
<path fill="none" stroke="black" d="M914.5,-438.313C914.5,-430.289 914.5,-420.547 914.5,-411.569"/>
<polygon fill="black" stroke="black" points="918,-411.529 914.5,-401.529 911,-411.529 918,-411.529"/>
</g>
<!-- 5541bc1d28e1e13e440e1ebe&#45;&gt;5541bc1d28e1e13e440e1eac -->
<g id="edge53" class="edge"><title>5541bc1d28e1e13e440e1ebe&#45;&gt;5541bc1d28e1e13e440e1eac</title>
<path fill="none" stroke="black" d="M932.171,-438.313C941.317,-429.417 952.635,-418.409 962.647,-408.672"/>
<polygon fill="black" stroke="black" points="965.263,-411.01 969.991,-401.529 960.383,-405.992 965.263,-411.01"/>
</g>
<!-- 5541bc1d28e1e13e440e1ed6 -->
<g id="node44" class="node"><title>5541bc1d28e1e13e440e1ed6</title>
<polygon fill="none" stroke="black" points="909.5,-1022.5 909.5,-1058.5 975.5,-1058.5 975.5,-1022.5 909.5,-1022.5"/>
<text text-anchor="middle" x="942.5" y="-1036.8" font-family="Times,serif" font-size="14.00">myList</text>
</g>
<!-- 5541bc1d28e1e13e440e1ed6&#45;&gt;5541bc1d28e1e13e440e1ed5 -->
<g id="edge30" class="edge"><title>5541bc1d28e1e13e440e1ed6&#45;&gt;5541bc1d28e1e13e440e1ed5</title>
<path fill="none" stroke="black" d="M909.118,-1026.48C877.498,-1014.14 830.111,-995.656 797.387,-982.89"/>
<polygon fill="black" stroke="black" points="798.323,-979.498 787.735,-979.125 795.779,-986.02 798.323,-979.498"/>
</g>
<!-- 5541bc1d28e1e13e440e1ec5 -->
<g id="node45" class="node"><title>5541bc1d28e1e13e440e1ec5</title>
<polygon fill="none" stroke="black" points="914.5,-949.5 914.5,-985.5 970.5,-985.5 970.5,-949.5 914.5,-949.5"/>
<text text-anchor="middle" x="942.5" y="-963.8" font-family="Times,serif" font-size="14.00">.head</text>
</g>
<!-- 5541bc1d28e1e13e440e1ed6&#45;&gt;5541bc1d28e1e13e440e1ec5 -->
<g id="edge31" class="edge"><title>5541bc1d28e1e13e440e1ed6&#45;&gt;5541bc1d28e1e13e440e1ec5</title>
<path fill="none" stroke="black" d="M942.5,-1022.31C942.5,-1014.29 942.5,-1004.55 942.5,-995.569"/>
<polygon fill="black" stroke="black" points="946,-995.529 942.5,-985.529 939,-995.529 946,-995.529"/>
</g>
<!-- 5541bc1d28e1e13e440e1ec7 -->
<g id="node46" class="node"><title>5541bc1d28e1e13e440e1ec7</title>
<polygon fill="none" stroke="black" points="1030.5,-949.5 1030.5,-985.5 1084.5,-985.5 1084.5,-949.5 1030.5,-949.5"/>
<text text-anchor="middle" x="1057.5" y="-963.8" font-family="Times,serif" font-size="14.00">.tail</text>
</g>
<!-- 5541bc1d28e1e13e440e1ed6&#45;&gt;5541bc1d28e1e13e440e1ec7 -->
<g id="edge32" class="edge"><title>5541bc1d28e1e13e440e1ed6&#45;&gt;5541bc1d28e1e13e440e1ec7</title>
<path fill="none" stroke="black" d="M970.045,-1022.49C985.407,-1013.01 1004.73,-1001.08 1021.3,-990.85"/>
<polygon fill="black" stroke="black" points="1023.51,-993.599 1030.18,-985.368 1019.83,-987.643 1023.51,-993.599"/>
</g>
<!-- 5541bc1d28e1e13e440e1ec5&#45;&gt;5541bc1d28e1e13e440e1ec4 -->
<g id="edge33" class="edge"><title>5541bc1d28e1e13e440e1ec5&#45;&gt;5541bc1d28e1e13e440e1ec4</title>
<path fill="none" stroke="black" d="M942.5,-949.313C942.5,-941.289 942.5,-931.547 942.5,-922.569"/>
<polygon fill="black" stroke="black" points="946,-922.529 942.5,-912.529 939,-922.529 946,-922.529"/>
</g>
<!-- 5541bc1d28e1e13e440e1ec6 -->
<g id="node59" class="node"><title>5541bc1d28e1e13e440e1ec6</title>
<polygon fill="none" stroke="black" points="988,-876.5 988,-912.5 1215,-912.5 1215,-876.5 988,-876.5"/>
<text text-anchor="middle" x="1101.5" y="-890.8" font-family="Times,serif" font-size="14.00">5541bc1d28e1e13e440e1ec6</text>
</g>
<!-- 5541bc1d28e1e13e440e1ec7&#45;&gt;5541bc1d28e1e13e440e1ec6 -->
<g id="edge50" class="edge"><title>5541bc1d28e1e13e440e1ec7&#45;&gt;5541bc1d28e1e13e440e1ec6</title>
<path fill="none" stroke="black" d="M1068.15,-949.313C1073.39,-940.853 1079.82,-930.484 1085.63,-921.112"/>
<polygon fill="black" stroke="black" points="1088.65,-922.873 1090.95,-912.529 1082.7,-919.185 1088.65,-922.873"/>
</g>
<!-- 5541bc1d28e1e13e440e1eba&#45;&gt;5541bc1d28e1e13e440e1eb7 -->
<g id="edge40" class="edge"><title>5541bc1d28e1e13e440e1eba&#45;&gt;5541bc1d28e1e13e440e1eb7</title>
<path fill="none" stroke="black" d="M816.829,-146.313C807.683,-137.417 796.365,-126.409 786.353,-116.672"/>
<polygon fill="black" stroke="black" points="788.617,-113.992 779.009,-109.529 783.737,-119.01 788.617,-113.992"/>
</g>
<!-- 5541bc1d28e1e13e440e1eb4 -->
<g id="node52" class="node"><title>5541bc1d28e1e13e440e1eb4</title>
<polygon fill="none" stroke="black" points="807.5,-73.5 807.5,-109.5 861.5,-109.5 861.5,-73.5 807.5,-73.5"/>
<text text-anchor="middle" x="834.5" y="-87.8" font-family="Times,serif" font-size="14.00">id</text>
</g>
<!-- 5541bc1d28e1e13e440e1eba&#45;&gt;5541bc1d28e1e13e440e1eb4 -->
<g id="edge41" class="edge"><title>5541bc1d28e1e13e440e1eba&#45;&gt;5541bc1d28e1e13e440e1eb4</title>
<path fill="none" stroke="black" d="M834.5,-146.313C834.5,-138.289 834.5,-128.547 834.5,-119.569"/>
<polygon fill="black" stroke="black" points="838,-119.529 834.5,-109.529 831,-119.529 838,-119.529"/>
</g>
<!-- 5541bc1d28e1e13e440e1eb9 -->
<g id="node53" class="node"><title>5541bc1d28e1e13e440e1eb9</title>
<polygon fill="none" stroke="black" points="879.5,-73.5 879.5,-109.5 933.5,-109.5 933.5,-73.5 879.5,-73.5"/>
<text text-anchor="middle" x="906.5" y="-87.8" font-family="Times,serif" font-size="14.00">next</text>
</g>
<!-- 5541bc1d28e1e13e440e1eba&#45;&gt;5541bc1d28e1e13e440e1eb9 -->
<g id="edge42" class="edge"><title>5541bc1d28e1e13e440e1eba&#45;&gt;5541bc1d28e1e13e440e1eb9</title>
<path fill="none" stroke="black" d="M851.929,-146.313C860.95,-137.417 872.113,-126.409 881.988,-116.672"/>
<polygon fill="black" stroke="black" points="884.568,-119.042 889.231,-109.529 879.653,-114.058 884.568,-119.042"/>
</g>
<!-- 5541bc1d28e1e13e440e1ea6 -->
<g id="node54" class="node"><title>5541bc1d28e1e13e440e1ea6</title>
<polygon fill="none" stroke="black" points="1119,-584.5 1119,-620.5 1346,-620.5 1346,-584.5 1119,-584.5"/>
<text text-anchor="middle" x="1232.5" y="-598.8" font-family="Times,serif" font-size="14.00">5541bc1d28e1e13e440e1ea6</text>
</g>
<!-- 5541bc1d28e1e13e440e1ea7&#45;&gt;5541bc1d28e1e13e440e1ea6 -->
<g id="edge46" class="edge"><title>5541bc1d28e1e13e440e1ea7&#45;&gt;5541bc1d28e1e13e440e1ea6</title>
<path fill="none" stroke="black" d="M1232.5,-657.313C1232.5,-649.289 1232.5,-639.547 1232.5,-630.569"/>
<polygon fill="black" stroke="black" points="1236,-630.529 1232.5,-620.529 1229,-630.529 1236,-630.529"/>
</g>
<!-- 5541bc1d28e1e13e440e1ea5 -->
<g id="node55" class="node"><title>5541bc1d28e1e13e440e1ea5</title>
<polygon fill="none" stroke="black" points="1364,-584.5 1364,-620.5 1591,-620.5 1591,-584.5 1364,-584.5"/>
<text text-anchor="middle" x="1477.5" y="-598.8" font-family="Times,serif" font-size="14.00">5541bc1d28e1e13e440e1ea5</text>
</g>
<!-- 5541bc1d28e1e13e440e1ea7&#45;&gt;5541bc1d28e1e13e440e1ea5 -->
<g id="edge47" class="edge"><title>5541bc1d28e1e13e440e1ea7&#45;&gt;5541bc1d28e1e13e440e1ea5</title>
<path fill="none" stroke="black" d="M1260.6,-666.355C1296.47,-655.962 1359.72,-637.631 1408.7,-623.438"/>
<polygon fill="black" stroke="black" points="1409.98,-626.712 1418.61,-620.567 1408.03,-619.989 1409.98,-626.712"/>
</g>
<!-- 5541bc1c28e1e13e440e1e9f -->
<g id="node58" class="node"><title>5541bc1c28e1e13e440e1e9f</title>
<polygon fill="none" stroke="black" points="1303.5,-1022.5 1303.5,-1058.5 1359.5,-1058.5 1359.5,-1022.5 1303.5,-1022.5"/>
<text text-anchor="middle" x="1331.5" y="-1036.8" font-family="Times,serif" font-size="14.00">name</text>
</g>
</g>
</svg>
